<svg width="24" height="24" viewBox="0 0 24 24" fill="none" xmlns="http://www.w3.org/2000/svg">
<path d="M21.2267 2.38875C20.96 1.5775 20.2133 1 19.3333 1H4.66667C3.78667 1 3.05333 1.5775 2.77333 2.38875L0 10.625V21.625C0 22.3813 0.6 23 1.33333 23H2.66667C3.4 23 4 22.3813 4 21.625V20.25H20V21.625C20 22.3813 20.6 23 21.3333 23H22.6667C23.4 23 24 22.3813 24 21.625V10.625L21.2267 2.38875ZM5.13333 3.75H18.8533L20.2933 8.02625H3.69333L5.13333 3.75ZM21.3333 17.5H2.66667V10.625H21.3333V17.5Z" fill="#CDD8F7"/>
<path d="M6 16.125C7.10457 16.125 8 15.2016 8 14.0625C8 12.9234 7.10457 12 6 12C4.89543 12 4 12.9234 4 14.0625C4 15.2016 4.89543 16.125 6 16.125Z" fill="#CDD8F7"/>
<path d="M18 16.125C19.1046 16.125 20 15.2016 20 14.0625C20 12.9234 19.1046 12 18 12C16.8954 12 16 12.9234 16 14.0625C16 15.2016 16.8954 16.125 18 16.125Z" fill="#CDD8F7"/>
</svg>
