<svg width="24" height="24" viewBox="0 0 24 24" fill="none" xmlns="http://www.w3.org/2000/svg">
<path d="M14.6 2.82353L13.592 0.776471C13.354 0.296471 12.864 0 12.332 0H3.4C2.63 0 2 0.635294 2 1.41176V22.5882C2 23.3647 2.63 24 3.4 24C4.17 24 4.8 23.3647 4.8 22.5882V14.1176H11.8L12.808 16.1647C13.046 16.6447 13.536 16.9412 14.054 16.9412H21.6C22.37 16.9412 23 16.3059 23 15.5294V4.23529C23 3.45882 22.37 2.82353 21.6 2.82353H14.6ZM20.2 14.1176H14.6L13.2 11.2941H4.8V2.82353H11.8L13.2 5.64706H20.2V14.1176Z" fill="#CDD8F7"/>
</svg>
