<svg width="24" height="24" viewBox="0 0 24 24" fill="none" xmlns="http://www.w3.org/2000/svg">
<g clip-path="url(#clip0_2_179)">
<path d="M10.56 16.68L16.164 12.48C16.488 12.24 16.488 11.76 16.164 11.52L10.56 7.32C10.164 7.02 9.6 7.308 9.6 7.8V16.2C9.6 16.692 10.164 16.98 10.56 16.68ZM12 0C5.376 0 0 5.376 0 12C0 18.624 5.376 24 12 24C18.624 24 24 18.624 24 12C24 5.376 18.624 0 12 0ZM12 21.6C6.708 21.6 2.4 17.292 2.4 12C2.4 6.708 6.708 2.4 12 2.4C17.292 2.4 21.6 6.708 21.6 12C21.6 17.292 17.292 21.6 12 21.6Z" fill="white"/>
</g>
<defs>
<clipPath id="clip0_2_179">
<rect width="24" height="24" fill="white"/>
</clipPath>
</defs>
</svg>
