<svg width="84" height="87" viewBox="0 0 84 87" fill="none" xmlns="http://www.w3.org/2000/svg">
<path d="M47.2872 82.7679C47.1758 82.7605 47.0571 82.8647 46.9457 82.8573C46.3739 83.0434 45.8096 83.1179 45.3492 83.3114C45.119 83.4081 44.8963 83.3933 44.6661 83.4901C43.983 83.6688 43.1958 83.7285 42.5127 83.9072C41.9483 83.9818 41.4954 84.0637 40.9311 84.1383C40.7083 84.1235 40.5969 84.1161 40.3667 84.2128C40.0326 84.1906 39.691 84.28 39.3568 84.2578C39.3568 84.2578 39.3568 84.2578 39.2454 84.2504C39.134 84.243 39.1341 84.243 39.0227 84.2356C38.5771 84.2061 38.1242 84.288 37.5672 84.251C37.3444 84.2362 37.2331 84.2288 37.0103 84.214C36.5647 84.1845 36.2306 84.1623 35.785 84.1327C35.6736 84.1253 35.5622 84.1179 35.4509 84.1105C35.3395 84.1031 35.3395 84.1031 35.2281 84.0957C35.0053 84.0809 34.6712 84.0588 34.4484 84.044C34.2256 84.0292 34.0028 84.0144 33.78 83.9996C33.5573 83.9848 33.2231 83.9627 33.0077 83.8363C32.8963 83.8289 32.6736 83.8142 32.5622 83.8068L32.4508 83.7994C31.6785 83.6361 31.0176 83.4802 30.2452 83.3169C30.1339 83.3095 30.1339 83.3095 30.0225 83.3021L29.9111 83.2947C29.2502 83.1388 28.5966 82.8714 28.0545 82.6114L27.9431 82.604C27.8318 82.5966 27.8317 82.5966 27.7278 82.4777C27.0742 82.2102 26.5321 81.9502 25.8786 81.6828C25.3364 81.4228 24.7943 81.1628 24.2596 80.7912C24.1482 80.7838 24.1556 80.6723 24.0442 80.6649C24.0442 80.6649 23.9328 80.6575 23.9403 80.546C23.4055 80.1744 22.8634 79.9144 22.4401 79.5502C22.4401 79.5502 22.3287 79.5428 22.3361 79.4313C22.1207 79.305 21.8013 79.0598 21.5934 78.8219L12.4509 71.6059C12.7702 71.8512 12.9856 71.9775 13.3049 72.2227C13.8397 72.5943 14.263 72.9584 14.8051 73.2184C14.9091 73.3374 15.0205 73.3448 15.1245 73.4637C15.6666 73.7237 16.2014 74.0953 16.7435 74.3553C17.2856 74.6153 17.9391 74.8827 18.5926 75.1502C18.704 75.1575 18.808 75.2765 18.9194 75.2839C19.5729 75.5513 20.1224 75.6998 20.776 75.9672C20.8874 75.9746 20.9988 75.982 21.1027 76.1009C21.7637 76.2568 22.536 76.4201 23.3083 76.5834C23.5311 76.5982 23.6424 76.6056 23.8578 76.7319C24.0806 76.7467 24.4147 76.7689 24.6301 76.8952C24.8529 76.91 25.0757 76.9248 25.2984 76.9395C25.5212 76.9543 25.8554 76.9765 26.0782 76.9913C26.3009 77.0061 26.4123 77.0135 26.6351 77.0283C27.0807 77.0578 27.4148 77.08 27.8603 77.1096C28.0831 77.1244 28.1945 77.1318 28.4173 77.1466C28.8628 77.1762 29.3158 77.0942 29.8727 77.1312C29.9841 77.1386 30.0955 77.146 30.2069 77.1534C30.5411 77.1755 30.8826 77.0862 31.2168 77.1084C31.4396 77.1232 31.5509 77.1306 31.7811 77.0338C32.3455 76.9593 32.7984 76.8773 33.3628 76.8028C34.0385 76.7356 34.833 76.5643 35.5162 76.3856C35.7463 76.2889 35.9691 76.3037 36.1993 76.2069C36.7636 76.1324 37.3354 75.9463 37.7957 75.7528C38.0259 75.6561 38.1373 75.6635 38.3675 75.5667C39.162 75.3955 39.8525 75.1052 40.6545 74.8224C40.8846 74.7257 41.1148 74.629 41.2262 74.6363C41.6866 74.4429 42.0281 74.3535 42.4885 74.1601C42.7187 74.0633 42.9488 73.9666 43.179 73.8698C43.528 73.669 43.9809 73.587 44.3299 73.3861C44.5601 73.2894 44.7903 73.1927 45.0279 72.9844C45.3768 72.7835 45.7258 72.5827 46.1861 72.3892C46.4163 72.2924 46.6465 72.1957 46.8841 71.9874C47.2331 71.7866 47.6934 71.5931 48.0424 71.3922C48.2726 71.2955 48.5028 71.1987 48.6289 70.9831C49.0967 70.6781 49.6758 70.3805 50.1436 70.0755C50.2624 69.9713 50.2624 69.9713 50.3812 69.8672C50.9678 69.4581 51.5543 69.0489 52.0295 68.6324C52.3784 68.4316 52.7348 68.1191 52.9724 67.9109C53.0912 67.8067 53.3214 67.71 53.4402 67.6059C53.9153 67.1894 54.3831 66.8843 54.8582 66.4678C55.571 65.843 56.2837 65.2182 56.8851 64.586C57.0039 64.4819 57.1301 64.2663 57.2489 64.1621C57.8502 63.5299 58.4516 62.8978 59.0455 62.3771C59.1643 62.273 59.2831 62.1688 59.2905 62.0573C59.7731 61.5292 60.2557 61.0012 60.6269 60.4657C60.7531 60.2501 60.8718 60.1459 60.998 59.9303C61.488 59.2907 61.978 58.6511 62.468 58.0115C62.9579 57.3719 63.4479 56.7324 63.8265 56.0854C63.9527 55.8697 64.0715 55.7656 64.1977 55.5499C64.5688 55.0145 64.8286 54.4716 65.1998 53.9362C65.3186 53.8321 65.4448 53.6164 65.4522 53.5049C65.8308 52.8579 66.2168 52.0994 66.6028 51.3409C66.7215 51.2368 66.7364 51.0137 66.8552 50.9096C67.2337 50.2626 67.5009 49.6082 67.7681 48.9539C67.8943 48.7382 67.9017 48.6267 68.0279 48.411C68.4213 47.541 68.6959 46.7751 69.0893 45.9051C69.2229 45.5779 69.3565 45.2507 69.3787 44.9161C69.5049 44.7004 69.5197 44.4774 69.6459 44.2617C69.7795 43.9346 69.9205 43.4958 70.0541 43.1687C70.0689 42.9456 70.1951 42.7299 70.2025 42.6184C70.2173 42.3954 70.3435 42.1797 70.3583 41.9566C70.4993 41.5179 70.6403 41.0792 70.6699 40.6331C70.6847 40.4101 70.8183 40.0829 70.8332 39.8598C70.9742 39.4211 70.9964 39.0865 71.1374 38.6478C71.1596 38.3132 71.3006 37.8745 71.3228 37.5399C71.3376 37.3169 71.345 37.2054 71.3598 36.9823C71.3968 36.4247 71.5526 35.7629 71.5896 35.2053C72.5013 26.5284 70.4354 18.886 66.3353 13.237C65.0057 11.3564 63.3271 9.67675 61.515 8.32426L70.6575 15.5402C77.8913 21.1733 81.9477 30.8521 80.7322 42.4213C80.6952 42.9789 80.5393 43.6407 80.5023 44.1983C80.4875 44.4214 80.4801 44.5329 80.4653 44.7559C80.4431 45.0905 80.4283 45.3136 80.2947 45.6407C80.2873 45.7523 80.2799 45.8638 80.2725 45.9753C80.2429 46.4214 80.1093 46.7486 79.9683 47.1873C79.9535 47.4104 79.8199 47.7376 79.8051 47.9606C79.6641 48.3993 79.6344 48.8454 79.4934 49.2842C79.4786 49.5072 79.3599 49.6113 79.3451 49.8344L79.3376 49.9459C79.3228 50.169 79.1966 50.3846 79.1892 50.4962C79.0482 50.9349 78.9146 51.2621 78.7736 51.7008C78.6474 51.9164 78.6326 52.1395 78.5064 52.3551C78.3802 52.5708 78.358 52.9054 78.2318 53.121C78.2244 53.2326 78.2244 53.2326 78.1056 53.3367C77.8236 54.2141 77.4376 54.9726 77.0443 55.8427C77.0368 55.9542 77.0368 55.9542 76.9181 56.0583C76.9106 56.1698 76.7919 56.274 76.7844 56.3855C76.5173 57.0399 76.1387 57.6868 75.8715 58.3412C75.8641 58.4527 75.7453 58.5569 75.7379 58.6684C75.7379 58.6684 75.7305 58.7799 75.6191 58.7725C75.2331 59.531 74.8545 60.178 74.4685 60.9365C74.4685 60.9365 74.4611 61.048 74.3497 61.0407C74.2309 61.1448 74.2236 61.2563 74.1048 61.3604C73.7336 61.8959 73.4738 62.4387 73.1026 62.9742C72.9838 63.0783 72.9764 63.1899 72.8576 63.294C72.8502 63.4055 72.7388 63.3981 72.7314 63.5096C72.2415 64.1492 71.8629 64.7962 71.3729 65.4358C70.8829 66.0754 70.3929 66.7149 69.903 67.3545C69.8956 67.466 69.7842 67.4587 69.7768 67.5702C69.658 67.6743 69.6506 67.7858 69.5318 67.89C69.0492 68.418 68.678 68.9535 68.1955 69.4815C68.0767 69.5857 68.0693 69.6972 67.9579 69.6898C67.9579 69.6898 67.9579 69.6898 67.8391 69.7939C67.2378 70.4261 66.6364 71.0583 66.0424 71.579C65.9236 71.6831 65.9236 71.6831 65.9162 71.7946C65.7974 71.8988 65.7974 71.8988 65.6786 72.0029C64.9659 72.6277 64.3646 73.2599 63.6518 73.8847C63.1766 74.3012 62.7015 74.7177 62.2337 75.0227C62.1149 75.1269 61.9961 75.231 61.7659 75.3277C61.417 75.5286 61.172 75.8484 60.823 76.0493C60.823 76.0493 60.7116 76.0419 60.7042 76.1534C60.1177 76.5625 59.6425 76.9791 59.056 77.3882C58.9372 77.4923 58.9372 77.4923 58.8184 77.5965C58.3506 77.9015 57.8829 78.2065 57.3037 78.5041L57.1849 78.6082C57.0661 78.7123 56.836 78.8091 56.7172 78.9132C56.3682 79.1141 56.0192 79.315 55.5589 79.5084C55.3287 79.6052 55.0985 79.7019 54.8609 79.9102C54.512 80.111 54.163 80.3119 53.7026 80.5054C53.4725 80.6021 53.2423 80.6989 53.0047 80.9071C52.6557 81.108 52.3141 81.1973 51.8538 81.3908C51.6236 81.4875 51.3934 81.5843 51.1632 81.681C50.8143 81.8819 50.3613 81.9638 49.901 82.1573C49.7822 82.2615 49.5594 82.2467 49.4406 82.3508L49.3292 82.3434C48.5273 82.6262 47.8442 82.8049 47.0422 83.0877C47.3986 82.7753 47.3986 82.7753 47.2872 82.7679Z" fill="#FB7354"/>
<path d="M2.496 44.6203C4.63057 24.2627 21.862 5.69137 41.0571 3.04498C60.2521 0.398582 73.9554 14.7504 71.9397 35.0039C69.8051 55.3615 52.5736 73.9328 33.3786 76.5792C14.1762 79.3372 0.361443 64.9779 2.496 44.6203Z" fill="#F8BA55"/>
<path d="M10.3966 43.5767C11.9901 27.9999 25.2495 13.6457 40.0412 11.6031C54.8329 9.56058 65.4019 20.5679 63.8011 36.2561C62.2077 51.8329 48.9481 66.1871 34.1565 68.2297C19.4836 70.1681 8.80318 59.1535 10.3966 43.5767Z" fill="url(#paint0_linear_211_662)"/>
<defs>
<linearGradient id="paint0_linear_211_662" x1="30.8432" y1="21.0692" x2="33.8516" y2="86.2247" gradientUnits="userSpaceOnUse">
<stop stop-color="#FB7354"/>
<stop offset="1" stop-color="#F8BA55"/>
</linearGradient>
</defs>
</svg>
