<svg width="72" height="72" viewBox="0 0 72 72" fill="none" xmlns="http://www.w3.org/2000/svg">
<path d="M36.9783 0C37.4257 0.1125 37.8918 0.20625 38.3206 0.31875C39.6442 0.69375 40.8187 1.35 41.8068 2.325C42.944 3.43125 44.2863 3.80625 45.8523 3.61875C50.2521 3.09375 54.2044 5.94375 55.1179 10.3312C55.4534 11.9625 56.2737 13.1063 57.7092 13.95C61.6056 16.2188 63.0411 20.7375 61.2141 24.8812C60.5616 26.3812 60.5429 27.7875 61.2141 29.2688C63.0411 33.3938 61.6056 37.9312 57.7092 40.2C56.2737 41.025 55.4721 42.1688 55.0992 43.8C54.8569 44.8688 54.3162 45.9 53.7942 46.875C53.5518 47.3438 53.4586 47.6438 53.701 48.1313C55.8822 52.7813 58.0261 57.45 60.1887 62.1187C60.4684 62.7375 60.6362 63.3562 60.3752 64.0125C59.9091 65.1937 58.7159 65.7 57.5041 65.2125C54.9687 64.1812 52.4333 63.1125 49.8792 62.0813C49.6741 61.9875 49.4504 61.9125 49.1708 61.8C49.0589 62.0813 48.9657 62.3437 48.8725 62.6062C48.0895 65.025 47.3065 67.4625 46.5794 69.9C46.2998 70.8375 45.871 71.6063 44.9388 72C44.566 72 44.1931 72 43.8203 72C43 71.7 42.5525 71.0625 42.1983 70.2937C40.2967 66.1125 38.3392 61.9312 36.4004 57.75C36.2885 57.5063 36.158 57.2625 35.9902 56.925C35.8224 57.2813 35.6919 57.5063 35.5801 57.75C33.6412 61.9312 31.7024 66.0937 29.7821 70.2937C29.4279 71.0812 28.9805 71.7 28.1602 72C27.7874 72 27.4145 72 27.0416 72C26.1281 71.5875 25.6807 70.8375 25.4011 69.9C24.674 67.4812 23.891 65.0812 23.1266 62.6812C23.0334 62.4187 22.9402 62.1563 22.8283 61.8188C21.9708 62.1563 21.1691 62.4938 20.3675 62.8313C18.4659 63.6 16.583 64.3875 14.6814 65.1562C13.5255 65.625 12.7612 65.5125 12.0714 64.7625C11.4002 64.0312 11.3257 63.225 11.8477 62.1C13.9916 57.45 16.1355 52.8 18.3168 48.1687C18.5405 47.6812 18.4473 47.3625 18.2235 46.9125C17.7015 45.8812 17.1795 44.8125 16.8999 43.7063C16.527 42.225 15.8186 41.1187 14.495 40.35C10.3376 37.875 8.93938 33.525 10.8596 29.0813C11.4375 27.7313 11.4562 26.4375 10.8596 25.0875C8.92074 20.6438 10.319 16.3125 14.4763 13.8375C15.7813 13.0688 16.5457 11.9625 16.8626 10.4625C17.7761 5.9625 21.6352 3.13125 26.2214 3.6375C27.7128 3.80625 29.0364 3.45 30.1364 2.38125C31.4973 1.03125 33.1752 0.35625 35.0208 0C35.6733 0 36.3258 0 36.9783 0ZM57.8397 21.675C57.7465 19.7437 57.0567 18.4875 55.6771 17.625C55.1179 17.2875 54.5586 16.95 54.0552 16.5375C52.3773 15.1687 51.4638 13.3688 51.0164 11.2313C50.5317 8.86875 48.4996 7.51875 46.1506 7.81875C43.5406 8.1375 41.1543 7.51875 39.2527 5.6625C37.463 3.9 34.7039 3.75 32.765 5.64375C30.8634 7.5 28.4958 8.1375 25.8671 7.81875C23.4808 7.51875 21.4488 8.8875 20.9641 11.2687C20.4048 14.1187 18.876 16.2 16.3593 17.625C14.4018 18.7313 13.6374 21.0375 14.5882 23.0812C15.8186 25.7625 15.8186 28.3875 14.5882 31.0687C13.656 33.075 14.4018 35.4188 16.322 36.4875C18.9133 37.95 20.4421 40.0875 21.0386 43.0125C21.5047 45.2625 23.5741 46.65 25.8299 46.35C28.4771 45.9937 30.8075 46.725 32.8023 48.5063C34.9649 50.4188 37.0902 50.4188 39.2714 48.4875C41.2102 46.7625 43.4847 46.0313 46.0388 46.3313C48.5742 46.65 50.5876 45.2438 51.091 42.7125C51.613 40.05 53.0485 38.0625 55.3975 36.7125C57.6906 35.3813 58.399 33.1875 57.3177 30.7875C56.1991 28.3125 56.2178 25.8562 57.3177 23.3812C57.5787 22.7437 57.7092 22.05 57.8397 21.675ZM17.7388 59.325C19.6963 58.5187 21.4115 57.7688 23.1826 57.1125C23.7046 56.925 24.3757 56.925 24.9163 57.0375C25.6061 57.2063 25.979 57.8062 26.2027 58.5C26.762 60.3187 27.3586 62.1188 27.9924 64.125C29.6703 60.5063 31.2549 57.0563 32.8023 53.7563C31.6837 52.9125 30.6584 52.125 29.633 51.3375C28.85 50.7375 27.9365 50.3812 26.9671 50.4937C25.3078 50.6625 23.6859 50.6625 22.064 50.0063C20.6285 53.1 19.2303 56.1187 17.7388 59.325ZM43.988 64.125C44.6219 62.175 45.1812 60.4125 45.7405 58.65C46.2811 57 47.381 56.4937 48.9843 57.15C50.4944 57.7687 52.0045 58.3875 53.4959 59.0063C53.6823 59.0813 53.8874 59.1375 54.2044 59.25C52.7316 56.0625 51.3333 53.0438 49.9165 50.0063C48.4064 50.55 46.9523 50.7187 45.4422 50.4937C44.4168 50.3437 43.4288 50.55 42.5898 51.1687C41.4526 51.9937 40.334 52.8563 39.1595 53.7375C40.7255 57.0938 42.3288 60.5063 43.988 64.125ZM36.0089 43.125C27.2654 43.1438 20.0878 35.9437 20.0506 27.1312C20.0506 18.2625 27.1721 11.0625 35.9902 11.0438C44.7524 11.025 51.9113 18.2063 51.9486 27.0188C51.9672 35.8688 44.8083 43.1062 36.0089 43.125ZM36.0089 38.9062C42.4593 38.9062 47.7353 33.5812 47.7353 27.0938C47.7353 20.5875 42.4966 15.3 36.0275 15.2812C29.5398 15.2625 24.2452 20.5688 24.2638 27.1125C24.2638 33.6 29.5584 38.9062 36.0089 38.9062ZM32.9701 25.8562C32.1312 25.05 30.8634 25.0688 30.0618 25.8375C29.2229 26.6438 29.1856 27.9375 30.0059 28.8C31.0685 29.925 32.1684 31.0125 33.2684 32.0813C34.0327 32.8125 35.2632 32.9063 36.0089 32.175C37.9477 30.2813 39.868 28.3687 41.7509 26.4187C42.3288 25.8187 42.422 25.0312 42.1051 24.2625C41.7882 23.5125 41.1916 23.0812 40.4086 22.9875C39.6629 22.8937 39.0663 23.2125 38.5443 23.7375C37.2766 25.0125 36.0089 26.2875 34.6852 27.6188C34.07 27 33.548 26.4 32.9701 25.8562Z" fill="#7A43EE"/>
</svg>
