<svg width="72" height="72" viewBox="0 0 72 72" fill="none" xmlns="http://www.w3.org/2000/svg">
<g clip-path="url(#clip0_246_1117)">
<path d="M71.9994 60.3314C71.9994 63.7055 71.9994 67.0795 71.9994 70.4536C71.4898 70.9632 70.9626 71.4904 70.453 72C61.6488 72 52.8271 72 44.023 72C43.0916 71.5255 42.4589 70.8753 42.4765 69.7331C42.4941 66.9038 42.4062 64.0569 42.5117 61.2276C42.6347 57.3264 44.4623 54.3741 47.8012 52.3532C48.5393 51.9139 49.3476 51.5975 50.1209 51.2285C48.1527 47.749 48.4163 44.3925 50.8238 41.2118C50.7711 41.1239 50.7359 41.0536 50.7008 41.0009C48.4163 38.7164 46.1317 36.4319 43.8297 34.165C43.6539 33.9892 43.2849 33.9014 43.0213 33.9014C38.3644 33.8838 33.7075 33.8838 29.033 33.9014C28.7167 33.9014 28.3125 34.0771 28.0665 34.3055C26.4674 35.852 24.9033 37.4336 23.3393 39.0152C22.6364 39.7181 21.9159 40.421 21.1778 41.1591C23.6381 44.3925 23.8841 47.7666 21.8983 51.2637C22.0389 51.334 22.1268 51.3867 22.2147 51.4042C26.8715 53.0737 29.5427 56.8871 29.5602 61.8427C29.5602 64.2854 29.5075 66.7105 29.5778 69.1531C29.613 70.4536 29.2263 71.4201 28.0138 71.9824C19.2096 71.9824 10.3879 71.9824 1.58375 71.9824C0.353631 71.4377 -0.0329793 70.4711 0.00216705 69.1707C0.0724597 66.605 -0.0154061 64.0569 0.0373134 61.5088C0.107606 57.4318 1.93522 54.339 5.44985 52.2829C6.15278 51.8787 6.90842 51.58 7.6465 51.2285C5.87161 48.0126 5.76617 44.7967 7.96281 41.7741C10.177 38.7164 13.2875 37.7499 16.9778 38.5231C16.9778 36.8888 16.9778 35.2896 16.9778 33.6905C16.8548 33.6553 16.767 33.6378 16.6791 33.6026C11.6708 32.2495 8.59545 28.2252 8.59545 23.0411C8.59545 18.9115 8.57787 14.7993 8.59545 10.6696C8.63059 4.67718 13.2172 0.0554381 19.1921 0.0202918C24.7628 -0.0148546 30.3335 0.00271858 35.9217 0.0202918C39.1903 0.0378649 41.9318 1.28556 44.0581 3.78095C44.3393 4.11484 44.638 4.23785 45.0773 4.23785C47.8012 4.22028 50.5075 4.18513 53.2313 4.25543C58.7493 4.39601 63.2832 8.91232 63.4237 14.4303C63.494 17.5232 63.494 20.616 63.4237 23.7089C63.3534 26.5558 62.2288 28.9633 60.1903 30.9491C58.7493 32.3549 57.0095 33.2336 55.0589 33.6729C55.0589 35.3072 55.0589 36.9064 55.0589 38.5231C62.6505 36.6955 68.4848 44.8319 64.3903 51.2812C64.4957 51.3339 64.6011 51.3867 64.7066 51.4218C67.7643 52.4938 69.9785 54.4795 71.2087 57.5021C71.5601 58.4159 71.7359 59.3825 71.9994 60.3314ZM21.2481 35.1666C22.8297 33.585 24.2707 32.1616 25.659 30.7206C26.3619 30.0001 27.1176 29.6487 28.1368 29.6662C30.6498 29.719 33.1452 29.7014 35.6581 29.6662C36.3083 29.6662 36.9761 29.6135 37.5912 29.4378C40.5435 28.6118 42.3008 26.257 42.3184 23.1642C42.3359 19.0345 42.3359 14.9223 42.3184 10.7926C42.3184 10.1952 42.2481 9.56252 42.0899 8.98261C41.2464 5.99517 38.8916 4.23785 35.6757 4.23785C30.2807 4.23785 24.9033 4.23785 19.5084 4.23785C15.5017 4.23785 12.7954 6.94412 12.7954 10.9332C12.7954 14.9575 12.7779 18.9993 12.813 23.0236C12.813 23.6738 12.8833 24.3416 13.059 24.9566C13.8674 27.821 15.9586 29.4378 19.0691 29.6662C20.4749 29.7717 21.2306 30.58 21.2481 31.9859C21.2657 32.9876 21.2481 33.9541 21.2481 35.1666ZM50.7711 35.1491C50.7711 34.0771 50.7711 33.216 50.7711 32.3549C50.7711 30.4922 51.3685 29.8244 53.2137 29.6487C56.5351 29.3323 58.9074 27.1708 59.1183 23.8671C59.3116 20.6688 59.3292 17.4353 59.1183 14.2546C58.8899 10.7751 56.2012 8.49056 52.7217 8.45541C50.9116 8.43784 49.1192 8.45541 47.3091 8.45541C47.0104 8.45541 46.7117 8.45541 46.4129 8.45541C46.4656 9.21106 46.5535 9.89641 46.5535 10.5642C46.5711 14.852 46.5711 19.1399 46.5535 23.4278C46.5359 25.4135 45.9912 27.2587 44.9192 28.9282C44.7786 29.1566 44.6556 29.3851 44.6029 29.4729C45.2004 29.8947 45.7979 30.1934 46.2548 30.6152C47.7309 32.0562 49.1543 33.5323 50.7711 35.1491ZM25.3075 67.7473C25.3075 65.4979 25.413 63.3189 25.29 61.1398C25.0967 57.8184 22.8297 55.3934 19.4908 55.1825C16.3628 54.9892 13.2172 54.9892 10.0892 55.1825C6.59211 55.4109 4.29002 58.0996 4.25487 61.6143C4.2373 63.3189 4.25487 65.041 4.25487 66.7456C4.25487 67.0619 4.25487 67.3783 4.25487 67.7297C11.3017 67.7473 18.2783 67.7473 25.3075 67.7473ZM67.7819 67.7473C67.7819 65.5331 67.8522 63.4067 67.7643 61.2804C67.6237 57.959 65.3744 55.4461 62.0706 55.2352C58.8547 55.0243 55.6037 55.0243 52.3878 55.2352C49.0489 55.4636 46.7995 58.082 46.7117 61.4561C46.6589 63.477 46.6941 65.4804 46.7117 67.5013C46.7117 67.5891 46.7468 67.677 46.7644 67.7649C53.7585 67.7473 60.735 67.7473 67.7819 67.7473ZM18.9988 46.6771C18.9812 44.375 17.0657 42.4771 14.7812 42.4946C12.4967 42.4946 10.5812 44.4101 10.5812 46.6946C10.5636 49.0143 12.5143 50.9473 14.8339 50.9122C17.1184 50.877 19.0163 48.9616 18.9988 46.6771ZM57.2204 42.4771C54.9359 42.4946 53.0204 44.3925 53.0204 46.6946C53.0204 48.9791 54.9183 50.8946 57.2204 50.9122C59.5401 50.9298 61.4731 48.9791 61.4555 46.6771C61.438 44.3574 59.5225 42.4771 57.2204 42.4771ZM22.7418 13.3056C21.8456 12.4445 20.6155 12.4621 19.772 13.2705C18.946 14.0788 18.8933 15.3441 19.7544 16.2403C21.1251 17.6813 22.5485 19.0872 23.972 20.4579C24.8682 21.319 26.0456 21.3365 26.9418 20.4755C29.7711 17.6813 32.5828 14.852 35.3945 12.0403C35.9393 11.4956 36.1502 10.8102 35.9393 10.037C35.5 8.40269 33.6021 7.92822 32.3192 9.15834C30.7025 10.7224 29.1209 12.3215 27.5393 13.9207C26.8715 14.606 26.2213 15.309 25.4833 16.0997C24.4816 15.0805 23.6381 14.1667 22.7418 13.3056Z" fill="#7A43EE"/>
</g>
<defs>
<clipPath id="clip0_246_1117">
<rect width="72" height="72" fill="white"/>
</clipPath>
</defs>
</svg>
