<svg width="160" height="156" viewBox="0 0 160 156" fill="none" xmlns="http://www.w3.org/2000/svg">
<path fill-rule="evenodd" clip-rule="evenodd" d="M64.2935 75.2L59.0303 82.4787C58.9477 82.6706 58.8651 82.8625 58.6779 83.0672C58.5734 83.0799 58.5843 83.1695 58.5843 83.1695C58.543 83.2654 58.5306 83.3806 58.5182 83.4957C58.5057 83.6108 58.4933 83.7259 58.452 83.8219C58.4629 83.9114 58.4505 84.0265 58.4381 84.1417C58.4256 84.2568 58.4132 84.3719 58.4242 84.4614L58.6324 86.1627C58.6434 86.2523 58.6805 86.3386 58.7176 86.4249C58.7547 86.5113 58.7918 86.5976 58.8028 86.6872L58.8137 86.7767C58.8356 86.9558 58.8576 87.1349 58.984 87.3011L58.995 87.3907C59.0582 87.4738 59.0953 87.5602 59.1324 87.6465C59.1695 87.7328 59.2066 87.8192 59.2698 87.9023L59.2808 87.9919L59.6602 88.4907L68.4205 102.682C68.5163 102.86 68.6629 103.032 68.7858 103.177C68.8392 103.239 68.888 103.297 68.9263 103.347C68.9896 103.43 69.0789 103.51 69.1683 103.59C69.2577 103.67 69.347 103.75 69.4103 103.833L69.5258 103.91C69.6792 103.954 69.7871 104.049 69.8776 104.128C69.9168 104.162 69.9528 104.194 69.9878 104.217L80.6576 100.366C82.5495 101.952 84.6176 103.244 86.6637 104.357L90.988 116.278C91.0209 116.547 91.1583 116.803 91.2958 117.058C91.3645 117.186 91.4305 117.292 91.4964 117.397C91.5624 117.503 91.6284 117.608 91.6971 117.736L91.708 117.826C91.8039 118.004 91.9505 118.176 92.0734 118.321C92.1267 118.383 92.1756 118.441 92.2139 118.491C92.2771 118.574 92.3665 118.654 92.4559 118.734C92.5452 118.814 92.6346 118.894 92.6978 118.977L92.8133 119.054C92.9398 119.22 93.0553 119.297 93.1708 119.374C93.2285 119.412 93.2602 119.453 93.2918 119.495C93.3234 119.537 93.355 119.578 93.4128 119.617L93.9903 120C94.048 120.039 94.1292 120.051 94.2103 120.064C94.2915 120.077 94.3726 120.09 94.4304 120.128C94.4826 120.122 94.5115 120.141 94.5404 120.16C94.5693 120.179 94.5981 120.198 94.6504 120.192C94.8704 120.256 95.0905 120.32 95.2996 120.294L110.407 123.626C110.647 123.664 110.824 123.66 111.022 123.603L94.7795 129.447C94.7162 129.455 94.6443 129.472 94.5658 129.491C94.3851 129.534 94.1695 129.585 93.9432 129.55L79.1599 129.269C78.9508 129.295 78.7308 129.231 78.5108 129.167C78.4585 129.173 78.4296 129.154 78.4007 129.135C78.3718 129.116 78.343 129.096 78.2907 129.103C78.1862 129.116 77.9661 129.052 77.8506 128.975L77.2731 128.591C77.2085 128.599 77.1796 128.568 77.1397 128.525C77.1151 128.498 77.0862 128.467 77.0421 128.438L76.6956 128.207L76.6846 128.118L76.5691 128.041C76.5114 128.003 76.4798 127.961 76.4482 127.92C76.4165 127.878 76.3849 127.837 76.3272 127.798C76.2694 127.76 76.2378 127.718 76.2062 127.677C76.1746 127.635 76.143 127.594 76.0852 127.555C76.0369 127.492 76.0055 127.439 75.9786 127.395C75.9351 127.322 75.9037 127.27 75.8323 127.223C75.7745 127.184 75.7429 127.143 75.7113 127.101C75.6797 127.059 75.6481 127.018 75.5903 126.98L75.5684 126.8C75.5684 126.8 75.4529 126.724 75.4419 126.634C75.4365 126.589 75.4048 126.548 75.3732 126.506C75.3416 126.465 75.31 126.423 75.3045 126.378C75.299 126.334 75.2674 126.292 75.2358 126.25C75.2042 126.209 75.1726 126.167 75.1671 126.123C75.1542 126.018 75.1093 125.948 75.072 125.89C75.0457 125.849 75.0232 125.814 75.0187 125.777C75.0058 125.672 74.9609 125.602 74.9237 125.545C74.8973 125.504 74.8748 125.469 74.8703 125.432L74.8484 125.253L70.5241 113.331C69.0445 112.513 67.5539 111.605 66.0414 110.517L56.8958 113.818C56.6977 113.933 56.5932 113.946 56.3841 113.972L56.2795 113.984C56.0595 113.92 55.955 113.933 55.8504 113.946L55.7459 113.959C55.6359 113.927 55.5547 113.914 55.4736 113.901C55.3924 113.889 55.3113 113.876 55.2013 113.844C55.1903 113.754 55.0858 113.767 55.0858 113.767C55.028 113.729 54.9441 113.693 54.8602 113.658C54.7763 113.623 54.6925 113.588 54.6347 113.55L54.5192 113.473C54.431 113.357 54.2974 113.291 54.1854 113.235C54.1367 113.211 54.0922 113.189 54.0572 113.166C53.9417 113.089 53.9417 113.089 53.9417 113.089C53.7217 113.025 53.6062 112.948 53.4797 112.782C53.3751 112.795 53.3642 112.705 53.3642 112.705L53.0177 112.475C52.9694 112.412 52.9379 112.359 52.9111 112.315C52.8676 112.242 52.8361 112.19 52.7648 112.143C52.7165 112.079 52.685 112.027 52.6581 111.982C52.6147 111.91 52.5832 111.857 52.5118 111.81C52.4541 111.772 52.4225 111.73 52.3908 111.689C52.3592 111.647 52.3276 111.605 52.2699 111.567L52.2589 111.478L40.4986 94.2863C40.4931 94.2415 40.4615 94.1999 40.4299 94.1584C40.3983 94.1168 40.3667 94.0752 40.3612 94.0305C40.3612 94.0305 40.2457 93.9537 40.2347 93.8642L40.2238 93.7746C40.2183 93.7299 40.1867 93.6883 40.155 93.6467C40.1234 93.6051 40.0918 93.5636 40.0863 93.5188C39.9708 93.442 39.9599 93.3525 39.9489 93.263L39.9379 93.1734C39.9251 93.0685 39.8801 92.9988 39.8429 92.9409C39.8166 92.9001 39.7941 92.8652 39.7896 92.8281L39.7457 92.4699C39.6302 92.3932 39.6083 92.2141 39.5973 92.1246L39.3891 90.4233C39.3671 90.2442 39.3342 89.9756 39.4169 89.7837C39.4582 89.6878 39.4733 89.595 39.4885 89.5023C39.5037 89.4095 39.5189 89.3168 39.5602 89.2209L39.5492 89.1313C39.6538 89.1185 39.6428 89.029 39.6428 89.029C39.6373 88.9842 39.6607 88.9586 39.6841 88.933C39.7075 88.9075 39.7309 88.8819 39.7254 88.8371C39.7722 88.7859 39.7929 88.738 39.8135 88.69C39.8342 88.642 39.8548 88.5941 39.9016 88.5429L39.8907 88.4533L45.1538 81.1746C45.0467 80.7333 44.9163 80.3176 44.7858 79.9019C44.6553 79.4861 44.5249 79.0704 44.4178 78.6291C44.2913 78.4628 44.2804 78.3733 44.2694 78.2838C44.1429 78.1175 44.121 77.9384 44.0991 77.7593C44.0756 77.5674 44.0252 77.4048 43.9785 77.2539C43.938 77.1233 43.9002 77.0014 43.8849 76.8767C43.863 76.6976 43.8149 76.5217 43.7669 76.3459C43.7188 76.17 43.6708 75.9941 43.6488 75.815C43.6324 75.6807 43.5898 75.5496 43.5473 75.4185C43.5047 75.2874 43.4621 75.1563 43.4457 75.0219L43.4018 74.6638C43.3811 74.4947 43.3347 74.3085 43.2856 74.1119C43.2308 73.8921 43.1727 73.6593 43.1438 73.423L34.1464 65.7998C34.0419 65.8125 34.0309 65.723 34.0309 65.723C33.9154 65.6463 33.7999 65.5695 33.6735 65.4032C33.668 65.3585 33.6391 65.3393 33.6102 65.3201C33.5813 65.3009 33.5525 65.2817 33.547 65.237C33.4424 65.2498 33.4315 65.1602 33.4315 65.1602L33.316 65.0835C33.2677 65.02 33.2362 64.9676 33.2094 64.923C33.1659 64.8506 33.1344 64.7983 33.0631 64.7509C33.0631 64.7509 32.9476 64.6742 32.9366 64.5846L32.9256 64.4951C32.9201 64.4503 32.8885 64.4087 32.8569 64.3672C32.8253 64.3256 32.7937 64.284 32.7882 64.2393C32.7827 64.1945 32.7511 64.1529 32.7195 64.1113C32.6879 64.0698 32.6563 64.0282 32.6508 63.9834L32.6289 63.8044C32.5134 63.7276 32.5134 63.7276 32.5024 63.6381C32.4969 63.5933 32.4653 63.5517 32.4337 63.5102C32.4021 63.4686 32.3705 63.427 32.365 63.3823C32.2495 63.3055 32.2385 63.216 32.2275 63.1264C32.112 63.0497 32.0901 62.8706 32.0792 62.781C31.9637 62.7043 31.9417 62.5252 31.9308 62.4357L31.7225 60.7344C31.6896 60.4658 31.6677 60.2867 31.7394 60.0053L34.8559 42.9923C34.8972 42.8963 34.9151 42.826 34.933 42.7556C34.9509 42.6853 34.9689 42.6149 35.0102 42.519L34.9883 42.3399C34.9828 42.2951 35.0034 42.2472 35.0241 42.1992C35.0447 42.1512 35.0654 42.1033 35.0599 42.0585L35.038 41.8794L35.1316 41.7771C35.2361 41.7643 35.2251 41.6747 35.2251 41.6747L35.3187 41.5724C35.4233 41.5596 35.4123 41.47 35.4123 41.47L35.4013 41.3805L35.4949 41.2782C35.5472 41.2718 35.5706 41.2462 35.594 41.2206C35.6174 41.195 35.6408 41.1694 35.693 41.163L35.7976 41.1502C35.7866 41.0607 35.8912 41.0479 35.8912 41.0479L36.1002 41.0223C36.1938 40.92 36.1938 40.92 36.2984 40.9072L51.1338 35.5466L50.3606 30.0974L50.2619 29.2916C50.2948 29.1625 50.3057 29.0361 50.3158 28.9186C50.3277 28.7799 50.3386 28.6535 50.3833 28.5497C50.4246 28.4537 50.4426 28.3834 50.4605 28.313C50.4784 28.2426 50.4963 28.1723 50.5376 28.0764L50.5157 27.8973C50.5102 27.8525 50.5309 27.8045 50.5515 27.7566C50.5722 27.7086 50.5928 27.6606 50.5873 27.6159L50.5654 27.4368L50.659 27.3344C50.7635 27.3216 50.7526 27.2321 50.7526 27.2321L51.1269 26.8227C51.2205 26.7204 51.2205 26.7204 51.2205 26.7204C51.2727 26.714 51.2961 26.6884 51.3195 26.6628C51.3429 26.6373 51.3663 26.6117 51.4186 26.6053C51.4076 26.5157 51.5122 26.5029 51.5122 26.5029L51.7213 26.4773C51.8148 26.375 51.8148 26.375 51.9194 26.3622L68.1494 20.753C68.1329 20.7636 68.1206 20.7771 68.1084 20.7905C68.085 20.8161 68.0616 20.8417 68.0093 20.8481L67.8221 21.0528C67.7286 21.1551 67.7286 21.1551 67.7286 21.1551C67.6928 21.1942 67.6555 21.2202 67.6236 21.2424C67.572 21.2784 67.5346 21.3044 67.5414 21.3598L67.4478 21.4621C67.4533 21.5069 67.4299 21.5325 67.4065 21.558C67.3831 21.5836 67.3597 21.6092 67.3652 21.654L67.178 21.8587C67.1835 21.9034 67.1629 21.9514 67.1422 21.9994C67.1216 22.0473 67.1009 22.0953 67.1064 22.1401C67.0018 22.1529 67.0128 22.2424 67.0128 22.2424C66.9907 22.2938 66.9677 22.3388 66.9465 22.3806C66.8883 22.4947 66.8425 22.5846 66.8585 22.7157C66.8436 22.7745 66.8281 22.8293 66.8134 22.8817C66.7574 23.0806 66.7111 23.2451 66.7371 23.4576L66.8358 24.2635L68.6073 36.134C68.2111 36.3643 67.9194 36.5817 67.5341 36.9016L67.4405 37.0039C67.2946 37.1126 67.1515 37.2438 67.0084 37.3749C66.8653 37.506 66.7222 37.6371 66.5764 37.7459C66.5296 37.797 66.48 37.8258 66.4305 37.8546C66.381 37.8834 66.3315 37.9122 66.2847 37.9633C65.993 38.1808 65.8058 38.3855 65.5251 38.6925C65.4728 38.6989 65.4494 38.7245 65.426 38.7501C65.4026 38.7757 65.3792 38.8012 65.3269 38.8076C64.9417 39.1275 64.6609 39.4345 64.3912 39.831L49.6493 45.0892L47.9835 54.0179C48 54.1522 47.9876 54.2673 47.9751 54.3824C47.9627 54.4976 47.9503 54.6127 47.9667 54.747L48.164 56.3587C48.2327 56.4866 48.2753 56.6177 48.3179 56.7489C48.3604 56.88 48.403 57.0111 48.4717 57.139C48.4937 57.3181 48.6311 57.5739 48.7685 57.8297L48.7795 57.9193C48.8482 58.0472 48.9142 58.1527 48.9801 58.2582C49.0461 58.3638 49.1121 58.4693 49.1808 58.5972C49.244 58.6803 49.3361 58.7827 49.4282 58.885C49.5203 58.9873 49.6125 59.0897 49.6757 59.1728C49.7802 59.16 49.7912 59.2495 49.7912 59.2495C49.856 59.3147 49.9126 59.3743 49.9651 59.4296C50.1084 59.5808 50.2215 59.7 50.3906 59.8123L62.388 67.4356C62.4209 67.7042 62.4799 67.9696 62.5389 68.2351C62.5979 68.5005 62.657 68.7659 62.6899 69.0345C62.7063 69.1688 62.7489 69.3 62.7914 69.4311C62.834 69.5622 62.8766 69.6933 62.893 69.8276C62.915 70.0067 62.963 70.1826 63.0111 70.3584C63.0591 70.5343 63.1072 70.7102 63.1291 70.8893C63.1526 71.0812 63.203 71.2438 63.2497 71.3947C63.2902 71.5253 63.328 71.6472 63.3433 71.7719C63.3597 71.9062 63.405 72.0597 63.4504 72.2132C63.4957 72.3667 63.541 72.5202 63.5574 72.6545C63.7716 73.5371 63.9748 74.3302 64.2935 75.2ZM52.0166 41.8912L51.2653 36.6211C51.2243 36.666 51.2055 36.7256 51.1885 36.7795C51.1667 36.8485 51.1478 36.9081 51.0891 36.9153L49.8811 43.5159L49.9857 43.5031C50.2664 43.1961 50.5581 42.9786 50.8498 42.7611L50.9434 42.6588C51.3287 42.3389 51.6204 42.1215 52.0166 41.8912Z" fill="#7A43EE"/>
<path d="M68.2074 20.7329L68.1494 20.753C68.1643 20.7433 68.1826 20.736 68.2074 20.7329Z" fill="#7A43EE"/>
<path d="M68.5178 20.6257C68.4996 20.6351 68.4814 20.6456 68.4633 20.6562C68.4138 20.685 68.3642 20.7137 68.312 20.7201L68.2074 20.7329L68.5178 20.6257Z" fill="#7A43EE"/>
<path d="M68.5178 20.6257C68.5494 20.6093 68.5815 20.5963 68.6146 20.5922L68.5178 20.6257Z" fill="#7A43EE"/>
<path d="M111.244 123.524C111.165 123.557 111.092 123.584 111.022 123.603L111.244 123.524Z" fill="#7A43EE"/>
<path d="M89.7091 42.0937C89.6982 42.0042 89.8027 41.9914 89.9073 41.9786L106.113 36.2399C106.102 36.2497 106.091 36.2605 106.08 36.2726L98.8649 43.6094L82.4006 46.5328L89.6156 42.1961C89.6046 42.1065 89.7091 42.0937 89.7091 42.0937Z" fill="#7A43EE"/>
<path d="M106.382 36.1447C106.29 36.156 106.198 36.1672 106.113 36.2399L106.382 36.1447Z" fill="#7A43EE"/>
<path d="M111.922 101.17L124.405 108.826C125.296 109.171 126.05 109.26 126.666 109.094L110.202 115.018C109.481 115.197 108.739 115.197 107.941 114.749L95.4581 107.093L111.922 101.17Z" fill="#7A43EE"/>
<path d="M97.2973 54.4375C96.9399 54.1178 96.4779 53.8108 96.1314 53.5806C91.5113 50.5108 83.9781 49.8843 80.4178 51.1381L63.849 57.0744C67.5138 55.8078 72.047 56.4343 76.5626 59.5168C77.0244 59.8237 77.3712 60.0541 77.7286 60.3738C77.7727 60.4031 77.8015 60.4343 77.8262 60.4609C77.8661 60.504 77.895 60.5352 77.9596 60.5273C78.1383 60.6872 78.3432 60.8439 78.5481 61.0006C78.7529 61.1572 78.9578 61.3139 79.1365 61.4738L79.483 61.704C79.5462 61.7872 79.6356 61.8671 79.725 61.9471C79.8144 62.027 79.9037 62.1069 79.9669 62.1901C80.0247 62.2284 80.0852 62.2892 80.1457 62.35C80.2062 62.4107 80.2667 62.4715 80.3244 62.5098C80.3876 62.593 80.477 62.6729 80.5663 62.7528C80.6556 62.8327 80.7451 62.9128 80.8083 62.9959C80.8661 63.0343 80.8977 63.0758 80.9293 63.1174C80.9609 63.159 80.9926 63.2006 81.0503 63.2389C81.4187 63.6482 81.7872 64.0575 82.2711 64.5436C82.2766 64.5884 82.3082 64.6299 82.3398 64.6715C82.3714 64.7131 82.403 64.7546 82.4085 64.7994C82.777 65.2087 83.0299 65.5413 83.2938 65.9634C83.2938 65.9634 83.3047 66.0529 83.4093 66.0401C83.5412 66.2512 83.6966 66.4367 83.8519 66.6221C84.0072 66.8076 84.1626 66.9931 84.2945 67.2041C84.3659 67.2516 84.3974 67.3039 84.4408 67.3762C84.4677 67.4209 84.4991 67.4732 84.5474 67.5367C84.8004 67.8693 85.0533 68.2018 85.2017 68.5472C85.2072 68.592 85.236 68.6111 85.2649 68.6303C85.2938 68.6495 85.3227 68.6687 85.3282 68.7135C85.3883 68.8097 85.4479 68.9012 85.5059 68.9904C85.7024 69.2924 85.8813 69.5673 86.0043 69.9031C86.0089 69.9401 86.0313 69.975 86.0577 70.0159C86.0949 70.0737 86.1399 70.1435 86.1527 70.2484C86.2458 70.4652 86.3802 70.677 86.5013 70.8679C86.5731 70.9811 86.6403 71.0869 86.6914 71.1822C86.696 71.2193 86.7185 71.2542 86.7448 71.295C86.782 71.3529 86.827 71.4226 86.8398 71.5275C86.9195 71.745 87.0253 71.9593 87.1311 72.1735C87.2369 72.3878 87.3427 72.602 87.4224 72.8195C87.4334 72.909 87.4443 72.9985 87.5598 73.0753C87.634 73.248 87.711 73.443 87.7879 73.6381C87.8648 73.8332 87.9418 74.0282 88.016 74.2009C88.0214 74.2457 88.0558 74.3096 88.0901 74.3736C88.1245 74.4375 88.1589 74.5015 88.1643 74.5463C88.244 74.7637 88.3264 75.0036 88.4088 75.2434C88.4913 75.4832 88.5737 75.7231 88.6533 75.9405L88.6753 76.1196C88.6968 76.1859 88.7182 76.2508 88.7392 76.3146C88.8843 76.7553 89.0133 77.1472 89.0707 77.6162L89.0926 77.7953C89.2739 78.4093 89.4552 79.0233 89.5319 79.65L89.5648 79.9187C89.5867 80.0977 89.6375 80.296 89.6883 80.4942C89.7391 80.6924 89.7899 80.8908 89.8118 81.0699L89.9872 82.5025C90.053 83.0398 90.1078 83.4875 90.069 84.0375L90.08 84.1271C90.1374 84.5961 90.1068 85.0066 90.0723 85.4693C90.0673 85.5366 90.0622 85.605 90.0572 85.6748L90.0901 85.9435C90.0652 86.1738 90.0431 86.4264 90.021 86.6791C89.9989 86.9317 89.9767 87.1843 89.9519 87.4145C89.9628 87.504 89.9738 87.5936 89.8802 87.6959C89.8732 87.7605 89.8665 87.8267 89.8596 87.8943C89.8174 88.309 89.7701 88.7728 89.6374 89.1798C89.5767 89.5507 89.516 89.9217 89.3508 90.3055C89.3563 90.3502 89.3356 90.3982 89.315 90.4462C89.2943 90.4941 89.2737 90.5421 89.2792 90.5869L89.0642 91.4311C89.0697 91.4759 89.049 91.5239 89.0284 91.5718C89.0077 91.6198 88.987 91.6678 88.9925 91.7126C88.9567 91.8533 88.9181 91.9716 88.8796 92.0899C88.841 92.2083 88.8024 92.3266 88.7666 92.4673C88.7721 92.5121 88.7487 92.5376 88.7253 92.5632C88.7019 92.5888 88.6785 92.6144 88.684 92.6591C88.5959 92.8062 88.5339 92.9501 88.472 93.094C88.41 93.2379 88.348 93.3819 88.2599 93.529C88.2186 93.6249 88.1746 93.6985 88.1305 93.772C88.0865 93.8456 88.0424 93.9192 88.0011 94.0151C88.0121 94.1046 87.9185 94.207 87.9185 94.207C87.8249 94.3093 87.7602 94.4309 87.6955 94.5524C87.6308 94.6739 87.5661 94.7954 87.4725 94.8978C87.2964 95.1919 87.0157 95.4989 86.735 95.8059L86.5477 96.0107C86.4273 96.2117 86.2529 96.377 86.0949 96.5268C86.0216 96.5962 85.9519 96.6622 85.8926 96.727L85.7991 96.8294C85.7055 96.9317 85.6092 97.0117 85.5128 97.0916C85.4165 97.1716 85.3202 97.2515 85.2266 97.3539C85.1744 97.3603 85.151 97.3859 85.1276 97.4114C85.1042 97.437 85.0808 97.4626 85.0285 97.469C84.8826 97.5778 84.7602 97.6609 84.6377 97.7441C84.5153 97.8272 84.3928 97.9104 84.247 98.0191C84.187 98.054 84.1185 98.0982 84.0436 98.1465C83.8713 98.2577 83.6655 98.3904 83.4545 98.4796C83.35 98.4924 83.2564 98.5948 83.2564 98.5948C83.0583 98.7099 82.7556 98.8378 82.5465 98.8634C82.442 98.8762 82.3484 98.9786 82.3484 98.9786L101.813 93.0551L102.022 93.0295C102.121 92.9719 102.249 92.9336 102.377 92.8952C102.505 92.8568 102.633 92.8184 102.732 92.7608L102.941 92.7352C103.243 92.6073 103.441 92.4922 103.733 92.2747C103.945 92.185 104.101 92.0574 104.276 91.9142C104.35 91.8533 104.428 91.7895 104.515 91.7246C104.515 91.7246 104.619 91.7118 104.608 91.6223L104.702 91.5199C104.795 91.4176 104.892 91.3376 104.988 91.2577C105.084 91.1777 105.181 91.0978 105.274 90.9954L105.368 90.8931C105.567 90.7445 105.713 90.56 105.844 90.3928C105.905 90.3153 105.964 90.2416 106.023 90.1767L106.21 89.9721C106.35 89.8186 106.465 89.6683 106.579 89.518C106.693 89.3676 106.807 89.2173 106.948 89.0638C107.085 88.914 107.166 88.7711 107.268 88.5899C107.306 88.5235 107.346 88.4519 107.394 88.373C107.383 88.2835 107.476 88.1812 107.476 88.1812C107.523 88.13 107.567 88.0564 107.611 87.9829C107.655 87.9093 107.699 87.8358 107.746 87.7846C107.834 87.6375 107.896 87.4936 107.958 87.3497C108.02 87.2058 108.082 87.0619 108.17 86.9148C108.165 86.87 108.188 86.8444 108.211 86.8188C108.235 86.7932 108.258 86.7677 108.253 86.7229C108.289 86.5822 108.327 86.4638 108.366 86.3455C108.404 86.2272 108.443 86.1088 108.479 85.9682L108.468 85.8786C108.457 85.7891 108.457 85.7891 108.55 85.6867L108.765 84.8425C108.76 84.7977 108.78 84.7497 108.801 84.7018C108.822 84.6538 108.842 84.6058 108.837 84.5611C108.867 84.3756 108.924 84.1869 108.98 83.9982C109.037 83.8096 109.093 83.6209 109.124 83.4354C109.148 83.2051 109.197 82.9493 109.245 82.6935C109.293 82.4376 109.342 82.1818 109.366 81.9516C109.355 81.862 109.344 81.7725 109.438 81.6701C109.463 81.4399 109.485 81.1873 109.507 80.9347C109.529 80.6822 109.551 80.4293 109.576 80.1991L109.543 79.9305C109.563 79.6554 109.559 79.406 109.555 79.1566C109.551 78.9071 109.547 78.6577 109.566 78.3827L109.555 78.2931C109.529 78.0795 109.524 77.8425 109.519 77.5948C109.514 77.3234 109.508 77.039 109.473 76.7582L109.298 75.3255C109.254 74.9673 109.199 74.5196 109.051 74.1743L109.029 73.9952C108.938 73.6882 108.874 73.378 108.809 73.0678C108.745 72.7576 108.68 72.4474 108.59 72.1404L108.557 71.8718C108.535 71.8053 108.514 71.7403 108.493 71.6762C108.348 71.2356 108.219 70.8442 108.161 70.3752L108.129 70.1066C108.049 69.8891 107.966 69.6493 107.884 69.4095C107.802 69.1696 107.719 68.9298 107.64 68.7123L107.618 68.5333C107.607 68.4437 107.596 68.3542 107.491 68.367C107.417 68.1943 107.34 67.9992 107.263 67.8042C107.186 67.6091 107.109 67.414 107.035 67.2413L107.002 66.9727C106.922 66.7553 106.817 66.541 106.711 66.3268C106.605 66.1125 106.499 65.8982 106.42 65.6808L106.409 65.5913C106.398 65.5017 106.282 65.425 106.282 65.425C106.134 65.0796 105.985 64.7342 105.743 64.4912C105.732 64.4017 105.721 64.3121 105.617 64.3249C105.617 64.3249 105.606 64.2354 105.501 64.2482C105.369 64.0371 105.266 63.8453 105.163 63.6534C105.06 63.4615 104.957 63.2697 104.825 63.0586C104.814 62.9691 104.814 62.9691 104.71 62.9819C104.583 62.8156 104.483 62.6461 104.383 62.4766C104.282 62.3071 104.182 62.1377 104.056 61.9714C104.05 61.9266 104.021 61.9074 103.992 61.8882C103.963 61.8691 103.935 61.8499 103.929 61.8051C103.924 61.7603 103.895 61.7411 103.866 61.7219C103.837 61.7028 103.808 61.6836 103.803 61.6388C103.539 61.2167 103.275 60.7946 102.917 60.4748L102.906 60.3853C102.716 60.0813 102.478 59.8304 102.222 59.5609C102.122 59.4562 102.02 59.3486 101.917 59.2341C101.911 59.1893 101.882 59.1701 101.853 59.151C101.825 59.1318 101.796 59.1126 101.79 59.0678C101.79 59.0678 101.779 58.9783 101.675 58.9911C101.577 58.8821 101.478 58.7668 101.376 58.6487C101.098 58.3234 100.801 57.9773 100.454 57.6864L100.338 57.6097C100.333 57.5649 100.304 57.5457 100.275 57.5265C100.246 57.5073 100.217 57.4882 100.212 57.4434C100.149 57.3602 100.059 57.2803 99.9699 57.2004C99.8806 57.1204 99.7912 57.0405 99.728 56.9573C99.6702 56.9189 99.6097 56.8582 99.5492 56.7974C99.4887 56.7367 99.4282 56.6759 99.3705 56.6376C99.3073 56.5544 99.2179 56.4745 99.1285 56.3945C99.0392 56.3146 98.9498 56.2346 98.8866 56.1515C98.8288 56.1131 98.7972 56.0716 98.7656 56.03C98.734 55.9884 98.7023 55.9468 98.6446 55.9085L98.5291 55.8317C98.1716 55.512 97.8142 55.1922 97.3522 54.8852C97.3937 54.6314 97.4068 54.5513 97.3739 54.5014C97.3588 54.4783 97.3338 54.4618 97.2973 54.4375Z" fill="#7A43EE"/>
<path d="M106.068 36.1826C107.455 35.3767 109.468 36.2208 110.881 38.229L122.652 55.5098C123.686 57.0191 124.114 58.7843 123.85 60.0891C123.8 60.5496 123.646 61.0229 123.365 61.3299L118.102 68.6086C118.953 71.2309 119.585 73.7892 120.112 76.3602L129.109 83.9835C130.77 85.416 131.82 87.9232 131.423 89.8803L128.306 106.893C127.909 108.85 126.313 109.682 124.498 108.723L115.015 104.067C113.82 105.577 112.488 106.83 110.914 107.841L112.686 119.711C112.752 120.249 112.713 120.799 112.663 121.259C112.409 122.653 111.463 123.587 110.186 123.562L95.2985 123.294C93.593 123.23 91.6901 121.555 90.8824 119.291L86.5581 107.369C84.512 106.256 82.4439 104.964 80.552 103.378L73.3371 107.715C71.9502 108.521 69.937 107.677 68.513 105.579L56.7527 88.3881C55.7191 86.8787 55.2907 85.1135 55.5554 83.8087C55.6052 83.3482 55.7595 82.8749 56.0402 82.5679L61.3034 75.2892C60.4518 72.667 59.8203 70.1087 59.2933 67.5376L50.296 59.9143C48.6351 58.4818 47.5854 55.9747 47.9825 54.0175L51.099 37.0045C51.4961 35.0474 53.092 34.2159 54.8962 35.0856L64.3791 39.7412C65.5737 38.2317 66.9058 36.978 68.4798 35.9674L66.7083 24.0969C66.6425 23.5597 66.6813 23.0096 66.731 22.5491C66.9847 21.1548 67.9315 20.221 69.2079 20.2465L83.9912 20.527C85.6967 20.5909 87.5995 22.2665 88.4072 24.5305L92.7315 36.4521C94.7777 37.5648 96.8458 38.8566 98.7377 40.4427L106.068 36.1826ZM106.393 83.0383C108.23 72.9072 102.266 59.7322 93.0261 53.5928C83.7859 47.4534 74.7558 50.8309 72.9189 60.9619C71.0821 71.093 77.0563 84.3575 86.2855 90.4074C95.5147 96.4573 104.556 93.1693 106.393 83.0383Z" fill="url(#paint0_linear_246_1087)"/>
<defs>
<linearGradient id="paint0_linear_246_1087" x1="70.5" y1="135.5" x2="69.3379" y2="52.5839" gradientUnits="userSpaceOnUse">
<stop stop-color="#7A43EE"/>
<stop offset="1" stop-color="#B565E6"/>
</linearGradient>
</defs>
</svg>
