<svg width="642" height="962" viewBox="0 0 642 962" fill="none" xmlns="http://www.w3.org/2000/svg">
<g clip-path="url(#clip0_142_266)">
<path d="M114.477 -562.633C111.238 -557.815 108.308 -553.41 105.664 -549.391C110.68 -567.336 99.5049 -575.54 29.3053 -524.969C-726.5 19.5008 96.5003 -91.9996 345.738 172.421C652.367 497.731 483.771 517.964 442.686 759.912C397.501 1026 690.219 985.534 789.468 882.054C834.724 834.87 1014.24 587.467 908.066 34.7664C801.889 -517.934 327.32 -879.174 114.477 -562.633Z" fill="url(#paint0_linear_142_266)"/>
<path d="M114.477 -562.633C111.238 -557.815 108.308 -553.41 105.664 -549.391C110.68 -567.336 99.5049 -575.54 29.3053 -524.969C-726.5 19.5008 96.5003 -91.9996 345.738 172.421C652.367 497.731 483.771 517.964 442.686 759.912C397.501 1026 690.219 985.534 789.468 882.054C834.724 834.87 1014.24 587.467 908.066 34.7664C801.889 -517.934 327.32 -879.174 114.477 -562.633Z" fill="url(#paint1_radial_142_266)"/>
<path d="M114.477 -562.633C111.238 -557.815 108.308 -553.41 105.664 -549.391C110.68 -567.336 99.5049 -575.54 29.3053 -524.969C-726.5 19.5008 96.5003 -91.9996 345.738 172.421C652.367 497.731 483.771 517.964 442.686 759.912C397.501 1026 690.219 985.534 789.468 882.054C834.724 834.87 1014.24 587.467 908.066 34.7664C801.889 -517.934 327.32 -879.174 114.477 -562.633Z" fill="url(#paint2_linear_142_266)"/>
<path d="M323.04 435.179C504.039 743.477 800.789 55.6866 784.217 -298.152C807.716 -869.703 395.554 -611.698 307.749 -553.811C219.943 -495.924 434.284 -603.341 382.09 -407.775C290.232 -63.5949 254.765 318.884 323.04 435.179Z" fill="url(#paint3_linear_142_266)"/>
</g>
<defs>
<linearGradient id="paint0_linear_142_266" x1="-73.4998" y1="711" x2="562.632" y2="265.157" gradientUnits="userSpaceOnUse">
<stop stop-color="#CDD8F7"/>
<stop offset="1" stop-color="#CDD8F7" stop-opacity="0"/>
</linearGradient>
<radialGradient id="paint1_radial_142_266" cx="0" cy="0" r="1" gradientUnits="userSpaceOnUse" gradientTransform="translate(238 442.5) rotate(-47.7792) scale(328.13 441.863)">
<stop stop-color="#CDD8F7"/>
<stop offset="1" stop-color="#CDD8F7" stop-opacity="0"/>
</radialGradient>
<linearGradient id="paint2_linear_142_266" x1="665" y1="1125.5" x2="421.5" y2="679.001" gradientUnits="userSpaceOnUse">
<stop stop-color="#E8F0FF"/>
<stop offset="1" stop-color="#E8F0FF" stop-opacity="0"/>
</linearGradient>
<linearGradient id="paint3_linear_142_266" x1="202.5" y1="655" x2="650.7" y2="206.697" gradientUnits="userSpaceOnUse">
<stop stop-color="white"/>
<stop offset="1" stop-color="white" stop-opacity="0"/>
</linearGradient>
<clipPath id="clip0_142_266">
<rect width="642" height="962" fill="white"/>
</clipPath>
</defs>
</svg>
