<svg width="322" height="495" viewBox="0 0 322 495" fill="none" xmlns="http://www.w3.org/2000/svg">
<path d="M242.096 379.459L260.513 286.739L301.793 350.246L293.042 443.601L242.096 379.459Z" fill="#FB7354"/>
<path d="M301.793 349.992L260.577 494.217L61.927 458.336L98.761 308.776L301.793 349.992Z" fill="url(#paint0_linear_134_668)"/>
<path d="M234.5 336L223 386.5L177 377.5L191 327L234.5 336Z" fill="#F8BA55"/>
<path d="M98.7612 308.776L61.9272 458.336L44.1453 381.556L76.8513 248L98.7612 308.776Z" fill="#FB7354"/>
<path d="M301.793 349.992L98.761 308.776L76.8511 248L260.577 286.549L301.793 349.992Z" fill="url(#paint1_linear_134_668)"/>
<path d="M301.792 349.993L98.7605 308.777L248.668 339.208L260.576 286.549L301.792 349.993Z" fill="#FB7354"/>
<path d="M2 268.008L76.9781 248L98.5704 308.967L14.7014 330.77L2 268.008Z" fill="url(#paint2_linear_134_668)"/>
<g filter="url(#filter0_d_134_668)">
<path d="M219.317 121.302C170.151 122.034 135.913 164.363 142.906 215.889C149.9 267.416 195.413 308.595 244.683 307.864C293.849 307.132 328.087 264.803 321.094 213.276C314.1 161.75 268.587 120.57 219.317 121.302Z" fill="url(#paint3_linear_134_668)"/>
</g>
<path d="M184.557 244.004C183.617 244.004 182.886 244.945 184.348 246.408C191.237 253.829 213.054 271.597 238.42 271.283C263.681 270.97 276.834 256.233 278.295 253.724C279.548 251.738 278.817 250.38 277.565 250.484C277.251 250.484 276.938 250.589 276.521 250.693C262.324 258.532 249.485 261.563 237.898 261.668C215.559 261.981 198.022 251.634 185.392 244.318C185.183 244.004 184.87 244.004 184.557 244.004ZM280.383 241.6C279.13 241.6 277.878 241.705 276.729 241.914C272.972 242.437 267.544 244.945 268.274 246.408C268.379 246.617 268.587 246.722 269.005 246.722C269.527 246.722 270.258 246.617 271.719 246.408C273.076 246.199 275.581 245.886 277.982 245.886C280.279 245.886 282.471 246.095 283.41 247.14C285.289 249.23 282.679 259.473 282.262 261.04C281.949 262.086 282.262 262.608 282.784 262.608C283.097 262.608 283.515 262.399 283.932 261.981C285.08 260.831 286.959 258.009 288.003 254.038C289.047 249.962 289.151 244.422 288.108 243.168C287.064 242.018 283.723 241.6 280.383 241.6ZM230.904 228.536C225.372 228.64 221.614 224.251 220.779 217.771C219.004 205.02 229.651 202.511 239.986 202.407L240.403 205.647C241.238 211.5 241.969 216.307 239.881 221.533C238.211 225.818 234.975 228.431 230.904 228.536ZM226.102 157.883C212.532 158.092 198.022 163.631 197.187 181.294C197.083 183.176 198.544 184.116 199.693 184.43L213.785 185.789C215.037 185.684 215.872 184.325 215.872 182.967C216.29 176.905 220.674 173.874 226.207 173.769C229.129 173.769 232.679 174.814 234.766 177.532C237.167 180.563 237.48 184.743 238.002 188.402L238.315 190.387C230.173 191.537 219.422 192.269 212.115 196.031C203.764 200.212 198.544 208.573 200.214 220.697C202.302 236.27 212.741 243.9 224.85 243.691C235.079 243.586 240.299 240.973 246.979 232.507C250.111 236.375 251.259 238.36 256.583 242.332C257.105 242.541 257.627 242.75 258.149 242.646C258.879 242.646 259.506 242.437 259.923 241.914C262.429 239.197 266.917 234.389 269.527 231.776C270.571 230.731 270.153 229.163 269.005 227.804C265.873 224.042 262.637 221.011 261.698 214.008L258.566 190.701C257.209 180.772 256.687 171.783 248.754 164.99C242.491 159.555 233.096 157.778 226.102 157.883Z" fill="url(#paint4_linear_134_668)"/>
<g filter="url(#filter1_d_134_668)">
<path d="M152.266 109.039C178.843 103.942 196.103 77.4664 190.817 49.9048C185.531 22.3431 159.7 4.13226 133.123 9.22965C106.545 14.327 89.2853 40.8024 94.5714 68.364C99.8575 95.9257 125.688 114.137 152.266 109.039Z" fill="white"/>
</g>
<path d="M142.622 47.9693C143.851 47.7337 144.78 46.8583 144.753 45.9826L143.212 31.3065C142.941 29.8907 141.072 29.0016 139.058 29.3878C137.01 29.7805 135.63 31.2561 135.909 32.7073L139.907 46.9121C140.206 47.7354 141.393 48.205 142.622 47.9693ZM135.948 53.9463C136.345 52.6959 136.074 51.4637 135.317 51.0217L122.22 44.9102C120.889 44.4315 119.278 45.6213 118.6 47.6227C117.922 49.6242 118.521 51.6377 119.817 52.123L133.722 55.8045C134.568 55.9725 135.51 55.1679 135.948 53.9463ZM151.034 51.053C151.899 52.0613 153.066 52.4246 153.797 51.9909L165.353 43.4263C166.411 42.4893 166.188 40.4037 164.852 38.7885C163.476 37.1444 161.504 36.6419 160.445 37.5789L150.538 48.1023C150.033 48.7864 150.202 50.0383 151.034 51.053ZM146.084 66.02C147.313 65.7843 148.5 66.2539 148.799 67.0771L152.797 81.282C153.069 82.6977 151.655 84.1799 149.641 84.5661C147.593 84.9589 145.765 84.0986 145.494 82.6828L143.953 68.0066C143.926 67.131 144.855 66.2556 146.084 66.02ZM152.765 60.0784C153.196 58.8214 154.139 58.0168 154.991 58.2202L168.896 61.9016C170.226 62.3804 170.791 64.4005 170.147 66.3954C169.47 68.3968 167.824 69.5932 166.493 69.1144L153.39 62.9675C152.673 62.5545 152.361 61.2934 152.765 60.0784ZM137.673 62.9362C138.504 63.951 138.708 65.1963 138.168 65.887L128.261 76.4104C127.202 77.3474 125.265 76.8383 123.895 75.2296C122.525 73.6209 122.336 71.5288 123.36 70.5984L134.916 62.0337C135.64 61.5646 136.814 61.9634 137.673 62.9362Z" fill="url(#paint5_linear_134_668)"/>
<g filter="url(#filter2_d_134_668)">
<path d="M48.9934 215.188C76.0518 222.249 104.275 203.875 112.032 174.149C119.789 144.422 104.141 114.601 77.0831 107.54C50.0247 100.48 21.8015 118.854 14.0448 148.58C6.28802 178.306 21.9351 208.127 48.9934 215.188Z" fill="url(#paint6_linear_134_668)"/>
</g>
<path d="M70.1294 135.897C76.0712 137.448 82.0477 139.007 87.9895 140.558C88.6694 140.939 89.3045 141.349 89.7558 142.038C90.46 143.037 90.6328 144.224 90.5673 145.471C88.864 151.998 87.1507 158.564 85.4474 165.091C85.3927 165.159 85.338 165.226 85.2834 165.293C84.7066 166.366 84.0007 167.364 83.0172 168.004C73.2261 174.379 63.4797 180.724 53.6887 187.098C51.3639 188.612 48.9316 187.977 47.6427 185.52C43.6273 177.868 39.6119 170.215 35.5965 162.562C35.2743 161.948 35.0614 161.199 34.9875 160.487C34.8502 158.453 35.7649 156.938 37.4092 155.9C47.1108 149.584 56.8572 143.239 66.5936 136.932C67.2642 136.495 68.0587 136.295 68.8285 136.047C69.2357 135.909 69.7074 135.95 70.1294 135.897ZM74.79 156.154C77.0237 156.696 79.3933 155.153 79.9861 152.739C80.5888 150.287 79.2751 147.784 77.0761 147.251C74.8423 146.708 72.4728 148.251 71.88 150.665C71.2872 153.079 72.6009 155.583 74.79 156.154Z" fill="white"/>
<defs>
<filter id="filter0_d_134_668" x="133" y="121.292" width="189" height="195.581" filterUnits="userSpaceOnUse" color-interpolation-filters="sRGB">
<feFlood flood-opacity="0" result="BackgroundImageFix"/>
<feColorMatrix in="SourceAlpha" type="matrix" values="0 0 0 0 0 0 0 0 0 0 0 0 0 0 0 0 0 0 127 0" result="hardAlpha"/>
<feOffset dx="-9" dy="9"/>
<feComposite in2="hardAlpha" operator="out"/>
<feColorMatrix type="matrix" values="0 0 0 0 0.803922 0 0 0 0 0.847059 0 0 0 0 0.968627 0 0 0 1 0"/>
<feBlend mode="normal" in2="BackgroundImageFix" result="effect1_dropShadow_134_668"/>
<feBlend mode="normal" in="SourceGraphic" in2="effect1_dropShadow_134_668" result="shape"/>
</filter>
<filter id="filter1_d_134_668" x="89.6194" y="8.37439" width="102.15" height="107.52" filterUnits="userSpaceOnUse" color-interpolation-filters="sRGB">
<feFlood flood-opacity="0" result="BackgroundImageFix"/>
<feColorMatrix in="SourceAlpha" type="matrix" values="0 0 0 0 0 0 0 0 0 0 0 0 0 0 0 0 0 0 127 0" result="hardAlpha"/>
<feOffset dx="-4" dy="6"/>
<feComposite in2="hardAlpha" operator="out"/>
<feColorMatrix type="matrix" values="0 0 0 0 0.803922 0 0 0 0 0.847059 0 0 0 0 0.968627 0 0 0 1 0"/>
<feBlend mode="normal" in2="BackgroundImageFix" result="effect1_dropShadow_134_668"/>
<feBlend mode="normal" in="SourceGraphic" in2="effect1_dropShadow_134_668" result="shape"/>
</filter>
<filter id="filter2_d_134_668" x="12.0583" y="106.03" width="107.96" height="116.668" filterUnits="userSpaceOnUse" color-interpolation-filters="sRGB">
<feFlood flood-opacity="0" result="BackgroundImageFix"/>
<feColorMatrix in="SourceAlpha" type="matrix" values="0 0 0 0 0 0 0 0 0 0 0 0 0 0 0 0 0 0 127 0" result="hardAlpha"/>
<feOffset dx="6" dy="6"/>
<feComposite in2="hardAlpha" operator="out"/>
<feColorMatrix type="matrix" values="0 0 0 0 0.477078 0 0 0 0 0.262111 0 0 0 0 0.933333 0 0 0 1 0"/>
<feBlend mode="normal" in2="BackgroundImageFix" result="effect1_dropShadow_134_668"/>
<feBlend mode="normal" in="SourceGraphic" in2="effect1_dropShadow_134_668" result="shape"/>
</filter>
<linearGradient id="paint0_linear_134_668" x1="236.49" y1="340.031" x2="93.901" y2="516.618" gradientUnits="userSpaceOnUse">
<stop stop-color="#F8BA55"/>
<stop offset="1" stop-color="#FB7354"/>
</linearGradient>
<linearGradient id="paint1_linear_134_668" x1="192.85" y1="261.886" x2="176.613" y2="325.823" gradientUnits="userSpaceOnUse">
<stop stop-color="#F8BA55"/>
<stop offset="1" stop-color="#FB7354"/>
</linearGradient>
<linearGradient id="paint2_linear_134_668" x1="84.2597" y1="260.871" x2="0.533131" y2="324.808" gradientUnits="userSpaceOnUse">
<stop stop-color="#F8BA55"/>
<stop offset="1" stop-color="#FB7354"/>
</linearGradient>
<linearGradient id="paint3_linear_134_668" x1="276.167" y1="173.101" x2="112.922" y2="349.053" gradientUnits="userSpaceOnUse">
<stop stop-color="white"/>
<stop offset="1" stop-color="#E8F0FF"/>
</linearGradient>
<linearGradient id="paint4_linear_134_668" x1="277.616" y1="157.817" x2="206.258" y2="229.664" gradientUnits="userSpaceOnUse">
<stop stop-color="#B565E5"/>
<stop offset="1" stop-color="#7A43EE"/>
</linearGradient>
<linearGradient id="paint5_linear_134_668" x1="168.134" y1="52.4153" x2="120.583" y2="61.5353" gradientUnits="userSpaceOnUse">
<stop stop-color="#F8BA55"/>
<stop offset="1" stop-color="#FB7354"/>
</linearGradient>
<linearGradient id="paint6_linear_134_668" x1="37.2787" y1="202.499" x2="69.9307" y2="117.017" gradientUnits="userSpaceOnUse">
<stop stop-color="#7A43EE"/>
<stop offset="1" stop-color="#B565E6"/>
</linearGradient>
</defs>
</svg>
