<svg width="437" height="316" viewBox="0 0 437 316" fill="none" xmlns="http://www.w3.org/2000/svg">
<path d="M436.417 305.8L412.081 245.234C411.401 243.534 409.906 242.311 408.139 241.903L313.108 222.733L326.023 291.389L430.299 313.142C434.513 314.025 438.048 309.811 436.417 305.8Z" fill="#CDD8F7"/>
<path d="M219.98 244.486L313.107 222.733L326.023 291.389L219.98 315.181V244.486Z" fill="#636363"/>
<path d="M219.98 244.486L313.107 222.733L326.023 291.389L219.98 315.181V244.486Z" fill="url(#paint0_linear_1541_322)"/>
<path d="M123.454 222.733L111.219 292.069L219.98 315.181V244.486L123.454 222.733Z" fill="#CDD8F7"/>
<path d="M26.4522 242.514L123.454 222.733L111.218 292.069L6.53516 313.278C2.38862 314.093 -1.14613 310.083 0.34935 306.072L22.4416 245.981C23.1214 244.214 24.6168 242.922 26.4522 242.514Z" fill="url(#paint1_linear_1541_322)"/>
<path d="M129.9 104.205L113 205.351L205.278 191.547L225.607 77.9355L129.9 104.205Z" fill="url(#paint2_linear_1541_322)"/>
<path d="M225.607 77.9355L326 157.497L308.18 251.197L205.278 191.547L225.607 77.9355Z" fill="url(#paint3_linear_1541_322)"/>
<path d="M237.822 253.036L308.18 251.196L205.278 191.546L113 205.35L237.822 253.036Z" fill="#FB7354"/>
<path d="M226.527 152.812L260.41 177.324C261.581 178.161 262.167 179.583 261.832 181.006L256.98 205.1C256.478 207.526 253.717 208.781 251.542 207.526L217.324 187.698C215.986 186.945 215.317 185.44 215.568 183.85L220.755 155.071C221.257 152.477 224.352 151.306 226.527 152.812Z" fill="#F8BA55"/>
<path d="M300.895 48.9953C302.186 48.9953 303.478 48.9273 304.702 48.9273C305.993 48.9273 307.217 48.8593 308.508 48.8593C309.732 48.8593 311.023 48.7914 312.247 48.7914C313.47 48.7914 314.762 48.7234 315.986 48.7234C318.025 48.6554 320.064 48.6554 322.103 48.5874C324.143 48.5195 326.114 48.5195 328.153 48.4515C330.125 48.3835 332.096 48.3835 334.067 48.3155C336.039 48.3155 337.942 48.2476 339.913 48.2476C339.981 48.2476 339.981 48.2476 340.049 48.2476C340.117 48.2476 340.117 48.2476 340.185 48.2476C340.253 48.2476 340.253 48.2476 340.321 48.2476C340.389 48.2476 340.389 48.2476 340.457 48.2476C340.661 48.2476 340.865 48.2476 341.001 48.2476C341.205 48.2476 341.409 48.2476 341.545 48.2476C341.749 48.2476 341.952 48.2476 342.088 48.2476C342.292 48.2476 342.428 48.2476 342.632 48.3155C345.079 48.6554 347.323 49.4031 349.294 50.4908C351.265 51.6464 353.033 53.0739 354.46 54.9092C355.888 56.6766 357.043 58.7159 357.859 61.0271C358.675 63.2703 359.082 65.7854 359.15 68.4365C359.218 72.719 359.286 76.9335 359.354 81.148C359.422 85.3625 359.49 89.577 359.49 93.7916C359.558 97.9381 359.626 102.153 359.626 106.299C359.694 110.446 359.694 114.524 359.762 118.671C359.762 121.322 359.354 123.973 358.539 126.352C357.723 128.731 356.499 130.975 354.936 132.946C353.44 134.917 351.537 136.549 349.498 137.772C347.391 139.064 345.079 139.879 342.632 140.287C340.661 140.559 338.69 140.831 336.718 141.103C334.747 141.375 332.776 141.647 330.736 141.919C328.697 142.191 326.726 142.462 324.687 142.802C322.647 143.074 320.608 143.346 318.501 143.686C316.461 143.958 314.422 144.23 312.383 144.502C310.344 144.774 308.236 145.046 306.129 145.317C304.022 145.589 301.915 145.861 299.807 146.133C297.7 146.405 295.525 146.677 293.35 146.949C290.495 147.289 287.775 147.085 285.26 146.337C282.745 145.589 280.434 144.366 278.463 142.666C276.491 140.967 274.86 138.86 273.636 136.481C272.481 134.033 271.733 131.314 271.597 128.323C271.393 123.769 271.121 119.215 270.917 114.66C270.713 110.038 270.442 105.483 270.238 100.861C270.034 96.2387 269.762 91.5484 269.558 86.858C269.354 82.1676 269.082 77.4093 268.878 72.719C268.878 72.3791 268.878 72.0392 268.81 71.6313C268.81 71.2915 268.81 70.9516 268.81 70.5437C268.81 70.2038 268.81 69.864 268.878 69.4561C268.878 69.1162 268.946 68.7763 269.014 68.3685C269.422 65.5815 270.238 62.9304 271.393 60.6192C272.549 58.308 274.112 56.2687 276.016 54.5693C277.851 52.8699 280.026 51.5104 282.337 50.5587C284.649 49.6071 287.232 49.1312 289.883 49.0633C290.834 49.0633 291.718 48.9953 292.602 48.9953C293.485 48.9953 294.437 48.9273 295.321 48.9273C296.205 48.9273 297.156 48.8593 298.04 48.8593C299.127 48.9953 300.011 48.9953 300.895 48.9953Z" fill="url(#paint4_linear_1541_322)"/>
<path d="M337.33 82.5075C338.417 82.4395 339.437 82.1676 340.389 81.6238C341.34 81.148 342.156 80.4682 342.836 79.6525C343.516 78.8368 344.059 77.8851 344.467 76.7975C344.875 75.7779 345.011 74.6223 345.011 73.3987C345.011 72.1751 344.739 71.0875 344.331 70.0679C343.923 69.0482 343.38 68.0966 342.632 67.3488C341.884 66.6011 341.068 65.9893 340.117 65.5814C339.165 65.1736 338.146 64.9696 336.99 64.9696C335.902 65.0376 334.883 65.3095 333.931 65.7854C332.979 66.2612 332.164 66.941 331.416 67.7567C330.736 68.5724 330.124 69.524 329.716 70.6117C329.309 71.6993 329.105 72.8549 329.173 74.0785C329.173 75.302 329.445 76.4576 329.852 77.4773C330.26 78.4969 330.872 79.4486 331.62 80.1963C332.368 80.944 333.251 81.5558 334.203 81.9637C335.155 82.3715 336.174 82.5755 337.33 82.5075ZM313.742 55.6569C316.053 55.5889 318.296 55.521 320.608 55.453C322.851 55.385 325.094 55.317 327.337 55.2491C329.581 55.1811 331.756 55.1131 333.931 55.0451C336.106 54.9772 338.281 54.9092 340.457 54.9092C340.661 54.9092 340.797 54.9092 341.001 54.9092C341.204 54.9092 341.34 54.9092 341.544 54.9092C341.748 54.9092 341.884 54.9092 342.088 54.9092C342.292 54.9092 342.428 54.9092 342.632 54.9772C344.263 55.2491 345.759 55.7929 347.118 56.5406C348.478 57.3563 349.633 58.376 350.585 59.5316C351.537 60.7551 352.285 62.1826 352.828 63.6781C353.372 65.2416 353.644 66.941 353.712 68.7083C353.78 72.1751 353.848 75.5739 353.848 78.9727C353.916 82.3715 353.984 85.7703 353.984 89.1692C354.052 92.568 354.052 95.8988 354.12 99.2976C354.188 102.628 354.188 106.027 354.256 109.358C354.256 109.426 354.256 109.494 354.256 109.562C354.256 109.63 354.256 109.698 354.256 109.766C354.256 109.834 354.256 109.902 354.256 110.038C354.256 110.106 354.256 110.242 354.256 110.31C354.188 110.242 354.12 110.174 354.052 110.106C353.984 110.038 353.916 109.97 353.848 109.902C353.78 109.834 353.712 109.766 353.712 109.698C353.644 109.63 353.644 109.562 353.576 109.562C352.964 108.882 352.421 108.134 351.809 107.455C351.197 106.775 350.653 106.027 350.041 105.347C349.43 104.668 348.886 103.92 348.274 103.172C347.662 102.424 347.118 101.677 346.507 100.929C345.963 100.181 345.351 99.5695 344.671 99.0257C343.991 98.4819 343.312 98.074 342.496 97.7341C341.748 97.3943 340.933 97.1903 340.185 97.0544C339.369 96.9184 338.553 96.8504 337.738 96.9184C336.922 96.9864 336.106 97.1224 335.291 97.3943C334.475 97.6662 333.727 98.006 332.979 98.4819C332.232 98.9577 331.484 99.5015 330.804 100.181C330.124 100.861 329.513 101.609 328.969 102.492C328.697 102.9 328.493 103.24 328.221 103.648C327.949 104.056 327.677 104.396 327.405 104.804C327.133 105.212 326.861 105.551 326.59 105.959C326.318 106.367 326.046 106.707 325.774 107.115C325.638 106.979 325.57 106.911 325.434 106.775C325.298 106.639 325.23 106.571 325.162 106.435C325.094 106.299 324.958 106.231 324.89 106.095C324.822 105.959 324.686 105.891 324.618 105.755C323.735 104.804 322.851 103.852 322.035 102.9C321.151 101.949 320.268 100.997 319.384 99.9773C318.5 99.0257 317.617 98.0061 316.733 97.0544C315.849 96.1027 314.966 95.0831 314.014 94.1314C313.402 93.4516 312.654 92.8399 311.975 92.2961C311.227 91.7522 310.479 91.3444 309.664 91.0725C308.848 90.7326 308.032 90.5287 307.216 90.3927C306.401 90.2568 305.517 90.2568 304.701 90.2568C303.886 90.3247 303.002 90.4607 302.186 90.7326C301.37 91.0045 300.555 91.3444 299.807 91.7522C299.059 92.1601 298.244 92.7039 297.564 93.3157C296.884 93.9275 296.204 94.6752 295.592 95.423C294.709 96.5785 293.893 97.6662 293.009 98.8218C292.126 99.9774 291.31 101.133 290.426 102.221C289.543 103.376 288.727 104.532 287.843 105.687C286.959 106.843 286.076 107.999 285.26 109.154C284.716 109.902 284.172 110.65 283.561 111.329C283.017 112.077 282.473 112.825 281.861 113.573C281.317 114.32 280.706 115.068 280.162 115.884C279.55 116.632 279.006 117.447 278.394 118.263C278.394 118.127 278.395 117.991 278.327 117.855C278.327 117.719 278.327 117.651 278.327 117.583C278.327 117.515 278.327 117.447 278.327 117.311C278.327 117.243 278.327 117.175 278.327 117.107C278.123 113.437 277.987 109.698 277.783 106.027C277.579 102.289 277.443 98.5499 277.239 94.8112C277.035 91.0725 276.899 87.2658 276.695 83.5271C276.491 79.7205 276.355 75.9138 276.151 72.1071C276.151 71.9032 276.151 71.6993 276.151 71.4954C276.151 71.2914 276.151 71.0875 276.151 70.8836C276.151 70.6796 276.151 70.4757 276.151 70.2718C276.151 70.0679 276.151 69.8639 276.219 69.66C276.491 67.6887 277.035 65.8533 277.783 64.2219C278.598 62.5905 279.618 61.163 280.91 60.0074C282.201 58.8518 283.629 57.9001 285.26 57.2204C286.892 56.5406 288.659 56.2007 290.562 56.1328C292.534 56.0648 294.573 55.9968 296.544 55.9968C298.515 55.9288 300.487 55.8608 302.458 55.8608C304.429 55.7929 306.333 55.7249 308.236 55.7249C309.935 55.7249 311.839 55.7249 313.742 55.6569Z" fill="#E8F0FF"/>
<path d="M187.488 1.94671C188.372 2.15064 189.324 2.35457 190.207 2.5585C191.091 2.76242 192.043 2.96635 192.994 3.17028C193.946 3.37421 194.83 3.57814 195.781 3.78207C196.733 3.986 197.617 4.18992 198.568 4.39385C199.316 4.5298 199.996 4.73373 200.744 4.86969C201.491 5.00564 202.171 5.20957 202.919 5.34552C203.667 5.48147 204.346 5.6854 205.094 5.82135C205.842 5.9573 206.589 6.16123 207.269 6.29718C208.017 6.43314 208.765 6.63706 209.444 6.77302C210.192 6.90897 210.94 7.1129 211.688 7.24885C212.435 7.3848 213.183 7.58873 213.931 7.72468C214.679 7.86064 215.426 8.06456 216.174 8.20052C216.242 8.20052 216.242 8.20052 216.31 8.20052C216.378 8.20052 216.378 8.20052 216.446 8.20052C216.514 8.20052 216.514 8.20052 216.582 8.20052C216.65 8.20052 216.65 8.20052 216.718 8.20052C216.854 8.20052 216.99 8.26849 217.126 8.26849C217.262 8.26849 217.398 8.33647 217.534 8.40444C217.67 8.47242 217.806 8.47242 217.942 8.5404C218.077 8.60837 218.213 8.60837 218.349 8.67635C220.185 9.35611 221.748 10.3078 223.04 11.3954C224.331 12.551 225.419 13.9105 226.167 15.474C226.914 17.0374 227.39 18.6688 227.526 20.5042C227.662 22.2716 227.458 24.1749 226.846 26.0782C225.895 29.2051 224.875 32.332 223.923 35.4589C222.904 38.6538 221.952 41.8487 220.932 45.0436C219.913 48.2385 218.893 51.5013 217.874 54.7642C216.854 58.027 215.766 61.3579 214.747 64.6887C214.067 66.8639 212.979 68.8352 211.62 70.5346C210.26 72.234 208.629 73.6615 206.793 74.6812C204.958 75.7688 202.987 76.4486 200.879 76.7205C198.84 76.9924 196.665 76.8564 194.558 76.3126C192.926 75.8368 191.295 75.3609 189.663 74.9531C188.032 74.4772 186.401 74.0014 184.769 73.5936C183.138 73.1177 181.574 72.6419 179.943 72.234C178.379 71.7582 176.748 71.3503 175.185 70.8745C173.621 70.3987 172.126 69.9908 170.562 69.515C168.999 69.0392 167.503 68.6313 166.008 68.1555C164.512 67.6796 162.949 67.2718 161.453 66.7959C159.958 66.3201 158.462 65.9123 156.967 65.4364C154.996 64.8246 153.296 63.873 151.937 62.6494C150.577 61.4258 149.49 59.8624 148.81 58.163C148.062 56.4636 147.722 54.5602 147.722 52.5889C147.722 50.6176 148.062 48.5783 148.878 46.5391C150.033 43.4801 151.189 40.4212 152.345 37.4303C153.5 34.4393 154.656 31.4484 155.743 28.4574C156.899 25.4665 157.987 22.5435 159.142 19.6205C160.23 16.6975 161.385 13.8425 162.473 10.9196C162.541 10.7156 162.609 10.5117 162.745 10.3078C162.813 10.1038 162.949 9.89992 163.017 9.69599C163.085 9.49206 163.221 9.28813 163.289 9.08421C163.425 8.88028 163.493 8.67635 163.629 8.47242C164.58 6.90897 165.736 5.48147 167.027 4.32588C168.319 3.17028 169.746 2.21862 171.31 1.47088C172.873 0.791117 174.505 0.315284 176.204 0.111356C177.904 -0.0925726 179.603 -0.0245965 181.302 0.38326C181.846 0.519213 182.39 0.587189 182.866 0.723141C183.41 0.859093 183.953 0.927069 184.429 1.06302C184.973 1.19897 185.517 1.26695 185.993 1.4029C186.469 1.74278 187.012 1.81076 187.488 1.94671Z" fill="url(#paint5_linear_1541_322)"/>
<path d="M205.774 31.2445C206.657 31.4484 207.473 31.5164 208.357 31.3805C209.172 31.2445 209.988 30.9726 210.736 30.5648C211.484 30.1569 212.163 29.6131 212.707 28.9333C213.251 28.2536 213.727 27.5058 213.999 26.6901C214.271 25.8064 214.407 24.9907 214.339 24.175C214.271 23.3593 214.067 22.6115 213.659 21.9318C213.319 21.252 212.775 20.6402 212.163 20.1644C211.552 19.6886 210.804 19.3487 209.92 19.1448C209.104 18.9408 208.221 18.9408 207.405 19.0768C206.589 19.2127 205.774 19.4846 205.026 19.8925C204.278 20.3004 203.598 20.8442 203.055 21.4559C202.511 22.0677 202.035 22.8155 201.763 23.6992C201.491 24.5149 201.355 25.3986 201.423 26.2143C201.491 27.03 201.695 27.7777 202.035 28.5255C202.375 29.2052 202.919 29.817 203.53 30.3608C204.21 30.6327 204.958 31.0406 205.774 31.2445ZM193.266 7.9287C195.033 8.33655 196.801 8.74441 198.636 9.15227C200.403 9.56012 202.239 9.96798 204.074 10.3758C205.91 10.7837 207.677 11.1916 209.512 11.5994C211.348 12.0073 213.183 12.4151 215.018 12.891C215.154 12.891 215.29 12.9589 215.426 12.9589C215.562 12.9589 215.698 13.0269 215.834 13.0949C215.97 13.1629 216.106 13.1629 216.242 13.2308C216.378 13.2988 216.514 13.2988 216.65 13.3668C217.873 13.8426 218.893 14.5224 219.777 15.3381C220.66 16.1538 221.34 17.1055 221.816 18.1251C222.292 19.1448 222.564 20.3004 222.632 21.5239C222.7 22.7475 222.496 24.039 222.088 25.3306C221.272 27.7777 220.524 30.2928 219.709 32.808C218.893 35.3231 218.077 37.8382 217.262 40.3533C216.446 42.9364 215.63 45.4515 214.814 48.0346C213.999 50.6177 213.183 53.2008 212.299 55.8519C212.299 55.9198 212.231 55.9878 212.231 55.9878C212.231 56.0558 212.163 56.1238 212.163 56.1918C212.163 56.2597 212.095 56.3277 212.095 56.3957C212.095 56.4637 212.027 56.5316 212.027 56.5996C211.959 56.5316 211.959 56.4637 211.891 56.3277C211.891 56.2597 211.823 56.1918 211.823 56.1238C211.823 56.0558 211.755 55.9878 211.755 55.9198C211.755 55.8519 211.687 55.7839 211.687 55.7159C211.416 54.9682 211.076 54.2884 210.804 53.5407C210.532 52.7929 210.192 52.1132 209.92 51.3654C209.648 50.6177 209.308 49.9379 209.036 49.1902C208.765 48.4425 208.493 47.7627 208.221 47.015C207.949 46.3352 207.609 45.6555 207.201 45.0437C206.793 44.4319 206.317 43.9561 205.842 43.4802C205.366 43.0044 204.754 42.6645 204.21 42.3246C203.598 41.9847 202.987 41.7808 202.375 41.5769C201.695 41.4409 201.083 41.305 200.335 41.305C199.656 41.305 198.976 41.373 198.228 41.5089C197.548 41.6449 196.869 41.8488 196.121 42.1887C195.441 42.5285 194.761 42.8684 194.082 43.4122C193.81 43.6162 193.538 43.8201 193.198 44.024C192.926 44.228 192.586 44.4319 192.314 44.6358C192.042 44.8397 191.703 45.0437 191.431 45.2476C191.159 45.4515 190.819 45.6554 190.479 45.8594C190.411 45.7234 190.411 45.6554 190.343 45.5195C190.275 45.3835 190.275 45.3156 190.207 45.1796C190.139 45.0437 190.139 44.9757 190.071 44.8397C190.003 44.7038 190.003 44.6358 189.935 44.5678C189.527 43.6841 189.187 42.7325 188.78 41.8488C188.372 40.9651 188.032 40.0134 187.624 39.1297C187.284 38.2461 186.876 37.3624 186.536 36.4107C186.196 35.527 185.789 34.6433 185.449 33.7596C185.177 33.1478 184.837 32.5361 184.497 32.0602C184.157 31.5164 183.681 31.1086 183.205 30.7007C182.73 30.2928 182.254 29.953 181.71 29.6811C181.166 29.4092 180.622 29.2052 180.011 29.0693C179.399 28.9333 178.855 28.8653 178.243 28.7974C177.631 28.7974 177.02 28.7974 176.34 28.9333C175.728 29.0693 175.048 29.2052 174.437 29.4771C173.825 29.749 173.145 30.0209 172.533 30.4288C171.65 30.9726 170.766 31.5164 169.95 32.1282C169.066 32.672 168.183 33.2158 167.367 33.8276C166.483 34.3714 165.668 34.9832 164.784 35.527C163.9 36.0708 163.017 36.6826 162.201 37.2264C161.657 37.5663 161.113 37.9062 160.569 38.314C160.026 38.6539 159.482 39.0618 158.87 39.4016C158.326 39.7415 157.714 40.1494 157.171 40.4893C156.627 40.8291 156.015 41.237 155.403 41.6449C155.403 41.5769 155.471 41.4409 155.471 41.373C155.471 41.305 155.539 41.237 155.539 41.169C155.539 41.1011 155.607 41.0331 155.607 41.0331C155.607 40.9651 155.607 40.9651 155.675 40.8971C156.627 38.45 157.511 36.0028 158.462 33.5557C159.414 31.1086 160.298 28.7294 161.181 26.2823C162.065 23.9031 163.017 21.5239 163.9 19.1448C164.784 16.7656 165.668 14.4544 166.551 12.0752C166.619 11.9393 166.619 11.8033 166.687 11.6674C166.755 11.5314 166.823 11.3955 166.823 11.2595C166.891 11.1236 166.959 10.9876 167.027 10.8517C167.095 10.7157 167.163 10.5798 167.231 10.5118C167.911 9.3562 168.659 8.33655 169.61 7.52084C170.494 6.70513 171.514 6.02537 172.601 5.48156C173.689 5.00572 174.844 4.66584 176 4.52989C177.156 4.39394 178.379 4.46191 179.603 4.73382C180.69 5.00572 181.846 5.27763 183.002 5.48156C184.157 5.75346 185.245 6.02536 186.4 6.22929C187.556 6.5012 188.644 6.7731 189.799 6.97703C190.955 7.45286 192.11 7.65679 193.266 7.9287Z" fill="#E8F0FF"/>
<defs>
<linearGradient id="paint0_linear_1541_322" x1="317.473" y1="260.229" x2="143.758" y2="285.77" gradientUnits="userSpaceOnUse">
<stop stop-color="#E8F0FF"/>
<stop offset="1" stop-color="#CDD8F7"/>
</linearGradient>
<linearGradient id="paint1_linear_1541_322" x1="113.5" y1="259.5" x2="-87" y2="294.5" gradientUnits="userSpaceOnUse">
<stop stop-color="#E8F0FF"/>
<stop offset="1" stop-color="#CDD8F7"/>
</linearGradient>
<linearGradient id="paint2_linear_1541_322" x1="149.5" y1="113" x2="217.5" y2="205" gradientUnits="userSpaceOnUse">
<stop stop-color="#F8BA55"/>
<stop offset="1" stop-color="#FB7354"/>
</linearGradient>
<linearGradient id="paint3_linear_1541_322" x1="205.278" y1="164.566" x2="326" y2="164.566" gradientUnits="userSpaceOnUse">
<stop stop-color="#F8BA55"/>
<stop offset="1" stop-color="#FB7354"/>
</linearGradient>
<linearGradient id="paint4_linear_1541_322" x1="347" y1="136.5" x2="302.674" y2="40.9324" gradientUnits="userSpaceOnUse">
<stop stop-color="#7A43EE"/>
<stop offset="1" stop-color="#B565E6"/>
</linearGradient>
<linearGradient id="paint5_linear_1541_322" x1="216.363" y1="68.6094" x2="184.634" y2="-8.63763" gradientUnits="userSpaceOnUse">
<stop stop-color="#7A43EE"/>
<stop offset="1" stop-color="#B565E6"/>
</linearGradient>
</defs>
</svg>
