<svg width="363" height="344" viewBox="0 0 363 344" fill="none" xmlns="http://www.w3.org/2000/svg">
<g filter="url(#filter0_i_3_235)">
<path d="M270.692 266.449L63.2828 241.581C46.5892 240.503 31.1566 238.536 31.5169 223.184L35.4201 49.488C35.7804 34.1992 48.751 20.877 64.4838 19.7986L261.925 6.09576C277.658 5.0173 290.928 18.4029 291.649 36.0389L299.635 236.443C300.296 254.142 287.325 267.528 270.692 266.449Z" fill="white"/>
</g>
<g filter="url(#filter1_i_3_235)">
<path d="M254.659 272.095L47.0095 242.913C30.3759 241.2 16.0843 234.349 16.925 218.489L26.2926 38.2593C27.1333 22.3995 40.5242 9.07736 56.257 8.50641L253.998 1.52813C269.731 0.957176 282.581 15.3578 282.762 33.6917L284.563 241.962C284.683 260.359 271.292 273.808 254.659 272.095Z" fill="white"/>
</g>
<g filter="url(#filter2_i_3_235)">
<path d="M237.305 270.573L28.3943 246.783C11.7608 244.88 -0.909562 230.479 0.0512216 214.683L10.9201 34.5799C11.8809 18.7201 25.3919 5.52483 41.1247 5.1442L238.926 0.0690796C254.659 -0.311554 267.389 14.216 267.389 32.5498V240.82C267.389 259.09 253.938 272.413 237.305 270.573Z" fill="white"/>
</g>
<path d="M214.966 193.368L40.4641 180.299C30.556 179.538 22.9298 171.037 23.4102 161.268L29.355 49.8688C29.8955 40.0992 38.0621 32.1059 47.67 31.9791L216.407 30.2028C226.015 30.0759 233.762 38.8939 233.702 49.8688L233.041 174.907C232.981 185.819 224.874 194.129 214.966 193.368Z" fill="#CDD8F7"/>
<path d="M188.305 155.114C186.744 157.842 185.723 158.222 182.781 157.144C179.478 155.939 176.175 154.733 172.872 153.528C172.512 153.401 172.152 153.274 171.792 153.084C172.332 124.6 172.812 96.2426 173.353 67.7585C176.656 66.7435 179.898 65.7919 183.201 64.7769C183.561 64.65 183.921 64.5866 184.282 64.4597C187.164 63.5716 188.185 64.0156 189.626 66.8069C189.626 67.5048 189.626 68.1392 189.566 68.837C189.506 68.9004 189.446 68.9004 189.386 69.0273C187.945 73.2777 186.564 77.4647 185.122 81.6517C185.002 81.9689 185.002 82.3495 185.122 82.6032C186.443 86.9805 187.825 91.3578 189.146 95.7351C189.146 96.3061 189.146 96.9404 189.146 97.5114C187.644 101.825 186.143 106.203 184.642 110.516C184.582 110.707 184.582 111.024 184.642 111.214C185.963 115.591 187.344 119.969 188.725 124.346C188.725 124.917 188.725 125.551 188.725 126.122C187.644 129.294 186.624 132.466 185.363 135.575C184.282 138.176 184.102 140.586 185.182 143.378C186.383 146.55 187.284 149.849 188.305 153.084C188.305 153.718 188.305 154.416 188.305 155.114ZM72.2304 67.6316C73.1311 70.423 73.7917 73.3412 74.9326 76.069C76.1336 78.9872 75.8934 81.6517 74.5123 84.5064C73.2512 87.2343 72.2905 90.089 71.1495 92.8804C71.1495 93.4513 71.0895 93.9588 71.0895 94.5298C72.3505 98.6533 73.6115 102.84 74.8726 106.964C74.9326 107.154 74.8726 107.471 74.8125 107.662C73.2512 111.658 71.6299 115.718 70.0086 119.715C70.0086 120.286 69.9485 120.793 69.9485 121.364C71.2096 125.488 72.4706 129.612 73.6716 133.798C73.7316 134.052 73.7316 134.433 73.6716 134.687C72.1704 138.62 70.6091 142.49 69.0478 146.423C69.0478 146.486 68.9277 146.486 68.8677 146.55C68.8677 147.184 68.8076 147.818 68.8076 148.453C70.2488 151.181 71.2096 151.625 74.2721 150.927C74.6324 150.864 74.9326 150.8 75.2929 150.737C78.6556 149.975 82.0184 149.214 85.3211 148.389C86.3419 121.174 87.3627 94.0857 88.4436 66.9338C84.8407 65.8554 81.2978 64.7769 77.7549 63.635C74.9326 62.7469 73.9118 63.1909 72.2905 65.7919C72.2905 66.3629 72.2304 66.9973 72.2304 67.6316ZM166.327 68.9639C142.608 68.7101 119.009 68.4564 95.4093 68.2026C94.4485 94.6566 93.4877 121.047 92.527 147.501C116.607 148.834 140.626 150.166 164.706 151.498C165.246 123.902 165.787 96.3695 166.327 68.9639ZM109.881 111.595C111.442 99.9221 120.75 90.089 131.799 88.2493C140.206 86.8537 147.472 91.8019 149.273 100.176C150.234 104.617 149.634 108.93 147.892 112.991C143.929 122.253 137.263 128.026 127.716 129.675C126.635 129.865 125.554 129.802 125.013 129.865C115.105 129.485 108.56 121.301 109.881 111.595Z" fill="url(#paint0_linear_3_235)"/>
<path d="M224 233.043L148.225 241.565L148.225 344L224 329.087L224 233.043Z" fill="url(#paint1_linear_3_235)"/>
<path d="M66.0003 318.435L148.225 344L148.225 241.565L66.0003 224.522L66.0003 318.435Z" fill="url(#paint2_linear_3_235)"/>
<path d="M94.5379 252.43L115.497 259.035L115.497 235.174L94.5379 230.913L94.5379 252.43Z" fill="#FB7354"/>
<path d="M141.776 216L66.0003 224.522L148.225 241.565L224 233.043L141.776 216Z" fill="url(#paint3_linear_3_235)"/>
<path d="M170.312 222.391L94.537 230.913L115.496 235.174L192.884 226.652L170.312 222.391Z" fill="#F8BA55"/>
<path d="M362.673 247.188C366.088 204.653 340.071 172.24 300.392 159.945C367.081 189.688 355.656 293.137 291.761 318.472C274.127 325.488 254.691 326.233 236.87 319.155C282.633 339.522 330.57 327.786 353.421 280.905C358.575 270.411 361.741 258.861 362.673 247.188Z" fill="url(#paint4_linear_3_235)"/>
<path d="M286.546 156.095C328.77 163.547 355.036 206.95 345.1 253.086C335.227 299.222 292.941 330.58 250.655 323.128C208.431 315.677 182.165 272.273 192.101 226.137C202.036 180.001 244.322 148.644 286.546 156.095Z" fill="#B565E5"/>
<path d="M323.43 271.156C326.845 264.884 329.453 257.93 331.005 250.603C332.123 245.325 332.682 240.047 332.682 234.955C332.682 230.981 332.371 227.069 331.751 223.219C331.502 221.605 331.192 219.99 330.819 218.376C329.95 214.65 328.77 211.049 327.342 207.633C326.907 206.64 326.473 205.709 326.038 204.715C324.92 202.355 323.616 200.058 322.25 197.823C320.574 195.215 318.711 192.669 316.662 190.371C315.979 189.564 315.296 188.819 314.55 188.074C314.178 187.701 313.805 187.329 313.433 186.956C311.57 185.155 309.645 183.479 307.596 181.927C307.161 181.616 306.789 181.306 306.354 180.995C302.566 178.325 298.468 176.09 294.059 174.351C293.066 173.978 292.072 173.606 291.079 173.295C288.533 172.488 285.925 171.805 283.255 171.371C275.183 169.942 267.111 170.253 259.349 172.054C258.852 172.178 258.293 172.302 257.796 172.426C248.048 174.972 238.858 179.877 230.972 186.584C230.537 186.956 230.165 187.267 229.73 187.639C228.488 188.757 227.308 189.875 226.128 191.054C224.887 192.296 223.707 193.6 222.589 194.966C222.03 195.649 221.409 196.394 220.85 197.077C219.174 199.189 217.622 201.424 216.193 203.722C215.697 204.591 215.138 205.398 214.641 206.267C210.791 212.974 207.873 220.487 206.134 228.497C205.265 232.595 204.706 236.631 204.52 240.605C204.52 240.668 204.52 240.73 204.52 240.792C204.023 250.541 205.513 259.917 208.618 268.486C208.804 268.982 208.99 269.479 209.177 269.976C211.288 275.44 214.144 280.532 217.559 285.065C217.87 285.5 218.18 285.872 218.491 286.307C219.112 287.114 219.795 287.921 220.478 288.666C220.788 289.039 221.161 289.411 221.533 289.846C222.9 291.336 224.39 292.827 225.942 294.193C226.315 294.503 226.687 294.876 227.122 295.186C227.929 295.869 228.736 296.49 229.544 297.111C233.269 299.905 237.305 302.203 241.652 304.066C243.577 304.873 245.564 305.618 247.613 306.177C249.662 306.798 251.773 307.295 253.947 307.667C255.002 307.853 256.12 308.04 257.175 308.164C259.349 308.412 261.46 308.536 263.633 308.599C266.862 308.599 270.029 308.412 273.196 307.915C275.307 307.605 277.356 307.17 279.405 306.612C282.51 305.804 285.49 304.749 288.471 303.507C289.464 303.072 290.396 302.637 291.389 302.203C292.321 301.706 293.314 301.271 294.246 300.713C294.742 300.464 295.177 300.216 295.674 299.905C296.605 299.346 297.537 298.788 298.406 298.229C298.841 297.918 299.337 297.67 299.772 297.359C301.138 296.428 302.442 295.497 303.746 294.503C305.05 293.51 306.292 292.454 307.534 291.336C309.148 289.908 310.763 288.356 312.253 286.741C313.743 285.127 315.233 283.45 316.6 281.65C316.972 281.215 317.283 280.78 317.593 280.346C318.028 279.787 318.462 279.166 318.897 278.545C319.766 277.303 320.636 276.061 321.381 274.757C321.691 274.26 321.94 273.764 322.25 273.267C322.623 272.646 323.057 271.901 323.43 271.156Z" fill="#7A43EE"/>
<path d="M226.247 266.927C227.737 267.237 228.544 268.044 228.792 269.286C229.103 270.59 228.792 271.832 227.799 272.702C226.681 273.695 225.501 274.564 224.322 275.309C223.701 275.682 223.018 275.806 222.397 275.682C221.652 275.558 221.031 275.123 220.534 274.502C219.665 273.322 219.54 271.46 220.596 270.404C221.9 269.1 223.514 268.107 225.067 267.051C225.439 266.865 225.998 266.989 226.247 266.927ZM257.045 288.349C255.431 288.101 253.878 289.156 253.382 290.895C253.195 291.516 253.133 292.137 252.947 292.758C252.823 293.441 252.637 294.062 252.512 294.745C252.264 296.608 253.32 298.16 254.934 298.408C256.548 298.719 258.225 297.601 258.722 295.801C259.094 294.559 259.343 293.255 259.529 291.951C259.777 290.088 258.722 288.66 257.107 288.349C257.107 288.349 257.107 288.349 257.045 288.349ZM284.925 238.736C282.255 238.239 279.647 237.805 276.977 237.37C276.791 237.308 276.605 237.308 276.419 237.246C275.115 236.997 273.997 236.687 273.624 235.01C273.562 234.576 273.065 234.327 272.879 233.893C272.693 233.334 272.382 232.713 272.507 232.154C273.438 227.621 274.432 223.026 275.425 218.493C276.419 213.898 277.412 209.303 278.406 204.708C278.84 202.473 277.909 200.797 276.108 200.486C275.86 200.424 275.611 200.424 275.363 200.424C273.749 200.486 272.569 201.728 272.134 203.839C270.209 212.781 268.284 221.722 266.359 230.664C266.173 231.657 265.8 232.216 264.869 232.713C261.143 234.7 259.715 239.605 261.64 243.207C262.634 245.07 264.31 246.312 266.173 246.622C267.912 246.932 269.775 246.498 271.389 245.132C272.631 244.076 273.686 243.766 274.866 243.952C275.053 244.014 275.301 244.014 275.487 244.076C275.673 244.138 275.86 244.138 276.046 244.2C276.356 244.262 276.667 244.262 276.915 244.325C278.716 244.635 280.579 244.945 282.38 245.318C283.559 245.504 284.739 245.753 285.919 245.939C287.968 246.312 289.955 246.622 292.004 246.995C294.302 247.367 296.04 246.001 296.227 243.641C296.413 241.841 295.357 240.537 293.494 240.164C290.638 239.792 287.782 239.233 284.925 238.736ZM317.96 244.573C317.401 244.449 316.842 244.387 316.283 244.325C314.544 244.138 313.054 245.38 312.682 247.181C312.309 248.982 313.116 250.658 314.793 251.093C314.979 251.155 315.227 251.217 315.414 251.217C315.786 251.279 316.097 251.341 316.469 251.403C316.842 251.465 317.214 251.527 317.525 251.59C317.711 251.652 317.96 251.652 318.146 251.652C319.947 251.838 321.499 250.596 321.871 248.733C322.244 246.932 321.313 245.318 319.698 244.883C319.077 244.759 318.518 244.635 317.96 244.573ZM240.839 199.555C241.335 199.617 241.894 199.555 242.515 199.368C243.757 198.934 244.502 198.002 244.813 196.45C244.813 196.202 244.999 195.705 244.813 195.394C243.881 193.718 243.074 191.979 241.894 190.551C241.584 190.178 241.211 189.992 240.839 189.93C239.969 189.744 238.852 190.178 238.106 190.861C236.989 191.917 236.492 193.532 237.113 194.898C237.734 196.139 238.479 197.381 239.286 198.499C239.721 199.12 240.218 199.493 240.839 199.555ZM218.857 227.062C218.298 226.938 217.74 226.876 217.119 226.814C215.38 226.628 213.89 227.87 213.517 229.67C213.145 231.471 214.014 233.085 215.628 233.582C215.815 233.644 216.063 233.706 216.249 233.706C216.622 233.768 216.932 233.831 217.305 233.893C217.678 233.955 217.988 234.017 218.361 234.079C218.609 234.141 218.795 234.141 219.044 234.203C220.844 234.389 222.335 233.148 222.769 231.285C223.142 229.484 222.21 227.87 220.534 227.435C219.975 227.311 219.416 227.187 218.857 227.062ZM278.219 190.178C279.896 190.489 281.448 189.433 282.007 187.633C282.193 187.012 282.255 186.391 282.442 185.77C282.566 185.087 282.752 184.466 282.876 183.783C283.125 181.92 282.069 180.43 280.455 180.119C278.778 179.871 277.226 180.926 276.729 182.789C276.419 183.969 276.108 185.211 275.922 186.453C275.487 188.316 276.543 189.868 278.219 190.178ZM312.992 202.784C312.371 202.659 311.688 202.784 311.067 203.156C309.825 203.901 308.645 204.771 307.59 205.764C306.596 206.633 306.286 207.875 306.596 209.179C306.907 210.483 307.714 211.228 309.142 211.539C309.391 211.539 309.949 211.601 310.322 211.353C311.874 210.297 313.427 209.303 314.793 207.999C315.848 206.944 315.724 205.081 314.855 203.901C314.358 203.28 313.675 202.908 312.992 202.784ZM294.488 278.973C293.991 278.911 293.494 278.911 292.936 279.097C291.694 279.47 290.949 280.401 290.514 282.202C290.576 282.512 290.514 283.382 290.824 284.003C291.445 285.245 292.128 286.424 292.936 287.48C293.37 288.039 293.991 288.411 294.612 288.536C295.419 288.66 296.289 288.473 297.034 287.915C298.4 286.921 299.021 285.058 298.276 283.568C297.655 282.326 296.91 281.084 296.102 279.967C295.668 279.408 295.109 279.035 294.488 278.973Z" fill="url(#paint5_linear_3_235)"/>
<defs>
<filter id="filter0_i_3_235" x="27.5107" y="3.03491" width="272.148" height="263.475" filterUnits="userSpaceOnUse" color-interpolation-filters="sRGB">
<feFlood flood-opacity="0" result="BackgroundImageFix"/>
<feBlend mode="normal" in="SourceGraphic" in2="BackgroundImageFix" result="shape"/>
<feColorMatrix in="SourceAlpha" type="matrix" values="0 0 0 0 0 0 0 0 0 0 0 0 0 0 0 0 0 0 127 0" result="hardAlpha"/>
<feOffset dx="-4" dy="-3"/>
<feGaussianBlur stdDeviation="3"/>
<feComposite in2="hardAlpha" operator="arithmetic" k2="-1" k3="1"/>
<feColorMatrix type="matrix" values="0 0 0 0 0.803922 0 0 0 0 0.847059 0 0 0 0 0.968627 0 0 0 1 0"/>
<feBlend mode="normal" in2="shape" result="effect1_innerShadow_3_235"/>
</filter>
<filter id="filter1_i_3_235" x="12.8896" y="-1.48828" width="271.674" height="273.73" filterUnits="userSpaceOnUse" color-interpolation-filters="sRGB">
<feFlood flood-opacity="0" result="BackgroundImageFix"/>
<feBlend mode="normal" in="SourceGraphic" in2="BackgroundImageFix" result="shape"/>
<feColorMatrix in="SourceAlpha" type="matrix" values="0 0 0 0 0 0 0 0 0 0 0 0 0 0 0 0 0 0 127 0" result="hardAlpha"/>
<feOffset dx="-4" dy="-3"/>
<feGaussianBlur stdDeviation="3"/>
<feComposite in2="hardAlpha" operator="arithmetic" k2="-1" k3="1"/>
<feColorMatrix type="matrix" values="0 0 0 0 0.803922 0 0 0 0 0.847059 0 0 0 0 0.968627 0 0 0 1 0"/>
<feBlend mode="normal" in2="shape" result="effect1_innerShadow_3_235"/>
</filter>
<filter id="filter2_i_3_235" x="-4" y="-2.93823" width="271.389" height="273.681" filterUnits="userSpaceOnUse" color-interpolation-filters="sRGB">
<feFlood flood-opacity="0" result="BackgroundImageFix"/>
<feBlend mode="normal" in="SourceGraphic" in2="BackgroundImageFix" result="shape"/>
<feColorMatrix in="SourceAlpha" type="matrix" values="0 0 0 0 0 0 0 0 0 0 0 0 0 0 0 0 0 0 127 0" result="hardAlpha"/>
<feOffset dx="-4" dy="-3"/>
<feGaussianBlur stdDeviation="3"/>
<feComposite in2="hardAlpha" operator="arithmetic" k2="-1" k3="1"/>
<feColorMatrix type="matrix" values="0 0 0 0 0.803922 0 0 0 0 0.847059 0 0 0 0 0.968627 0 0 0 1 0"/>
<feBlend mode="normal" in2="shape" result="effect1_innerShadow_3_235"/>
</filter>
<linearGradient id="paint0_linear_3_235" x1="131.719" y1="139.438" x2="94.5422" y2="70.3653" gradientUnits="userSpaceOnUse">
<stop stop-color="#7A43EE"/>
<stop offset="1" stop-color="#B565E6"/>
</linearGradient>
<linearGradient id="paint1_linear_3_235" x1="257.228" y1="255.4" x2="122.936" y2="274.483" gradientUnits="userSpaceOnUse">
<stop stop-color="#FB7354"/>
<stop offset="1" stop-color="#F8BA55"/>
</linearGradient>
<linearGradient id="paint2_linear_3_235" x1="167.077" y1="224.522" x2="69.5328" y2="258.798" gradientUnits="userSpaceOnUse">
<stop stop-color="#FB7354"/>
<stop offset="1" stop-color="#F8BA55"/>
</linearGradient>
<linearGradient id="paint3_linear_3_235" x1="154.634" y1="194.754" x2="138.369" y2="250.846" gradientUnits="userSpaceOnUse">
<stop stop-color="#E8F0FF"/>
<stop offset="1" stop-color="#F8BA55"/>
</linearGradient>
<linearGradient id="paint4_linear_3_235" x1="302.533" y1="296.118" x2="223.224" y2="210.033" gradientUnits="userSpaceOnUse">
<stop stop-color="#7A43EE"/>
<stop offset="1" stop-color="#B565E6"/>
</linearGradient>
<linearGradient id="paint5_linear_3_235" x1="240.5" y1="190" x2="268" y2="262.5" gradientUnits="userSpaceOnUse">
<stop stop-color="white"/>
<stop offset="1" stop-color="#CDD8F7"/>
</linearGradient>
</defs>
</svg>
