<svg width="515" height="344" viewBox="0 0 515 344" fill="none" xmlns="http://www.w3.org/2000/svg">
<path d="M137.275 288.833L107.297 291.728L106.201 264.47L137.275 264.945L137.275 288.833Z" fill="#7A43EE"/>
<path d="M126.26 288.048C126.617 295.597 122.704 303.675 122.704 303.675C122.704 303.675 116.384 303.309 115.476 303.263C109.155 302.897 103.731 295.699 103.409 287.117C103.086 278.536 115.012 271.873 121.315 272.035C127.58 272.241 125.838 279.269 126.26 288.048Z" fill="#7A43EE"/>
<path d="M133.437 288.341C133.862 297.161 129.065 304.038 122.708 303.716C116.387 303.35 110.96 296.111 110.589 287.451C110.219 278.791 115.02 271.955 121.319 272.076C127.581 272.241 133.012 279.521 133.437 288.341Z" fill="url(#paint0_linear_1570_1162)"/>
<path d="M127.827 288.12C128.055 292.714 125.526 296.308 122.224 296.137C118.921 295.966 116.089 292.171 115.909 287.656C115.728 283.14 118.216 279.549 121.512 279.639C124.767 279.731 127.599 283.526 127.827 288.12Z" fill="#E8F0FF"/>
<path d="M43.7779 284.84C43.9197 291.79 39.8655 299.18 39.8655 299.18C39.8655 299.18 33.5453 298.814 32.6371 298.768C26.3169 298.402 21.0639 291.766 20.9304 283.951C20.7933 276.095 32.935 270.032 39.1934 270.156C45.4961 270.317 43.5825 276.783 43.7779 284.84Z" fill="#7A43EE"/>
<path d="M50.9515 285.092C51.1503 293.19 46.1822 299.505 39.862 299.139C33.5418 298.773 28.2853 292.096 28.1447 284.199C28.0042 276.302 32.9723 269.987 39.2342 270.152C45.4961 270.317 50.7526 276.994 50.9515 285.092Z" fill="url(#paint1_linear_1570_1162)"/>
<path d="M45.88 284.908C45.9858 289.512 43.1676 293.09 39.5348 292.906C35.9428 292.719 32.9479 288.938 32.8456 284.374C32.7467 279.851 35.6057 276.27 39.1907 276.376C42.7758 276.481 45.7742 280.303 45.88 284.908Z" fill="#7A43EE"/>
<path d="M233.198 292.213C233.788 300.566 230.156 309.527 230.156 309.527C230.156 309.527 223.836 309.161 222.928 309.115C216.608 308.749 210.954 300.788 210.347 291.283C209.74 281.778 221.481 274.39 227.739 274.514C234.005 274.72 232.536 282.548 233.198 292.213Z" fill="#631818"/>
<path d="M240.374 292.506C241.083 302.249 236.475 309.893 230.158 309.568C223.838 309.202 218.181 301.2 217.567 291.613C216.956 282.067 221.524 274.427 227.782 274.551C234.003 274.72 239.664 282.763 240.374 292.506Z" fill="#822121"/>
<path d="M235.551 292.342C235.962 298.115 233.265 302.629 229.506 302.415C225.751 302.241 222.424 297.459 222.023 291.809C221.66 286.114 224.357 281.6 228.068 281.736C231.779 281.872 235.181 286.565 235.551 292.342Z" fill="#661717"/>
<path d="M186.627 236.423L179.564 167.225L152.321 163.067L88.8313 168.493C79.9356 169.254 71.9549 174.467 68.1117 181.922L62.277 193.007L41.4531 235.031L23.1842 247.797L17.7067 251.519C17.7067 251.519 15.0624 253.764 12.7747 257.296C10.9954 260.043 9.44229 263.513 9.44438 267.384C9.44307 269.774 9.48369 272.654 9.52082 275.493C9.51846 275.946 9.5161 276.399 9.51724 276.894C9.56817 282.78 15.501 287.751 22.7224 288.082L107.297 291.728C106.981 290.437 106.825 289.091 106.75 287.738C106.343 277.681 112.685 269.642 120.878 269.806C129.113 269.968 136.176 278.55 136.649 288.89C136.727 290.284 147.223 280.6 147.046 281.893L186.627 272.474C186.627 272.474 186.648 273.701 185.766 262.901C185.206 255.864 184.464 243.817 184.233 236.298L186.627 236.423Z" fill="url(#paint2_linear_1570_1162)"/>
<path d="M167.464 161.773L151.917 163.102C151.917 163.102 130.719 218.546 125.574 230.973C124.316 234.046 123.386 236.144 123.179 236.615C122.018 238.897 92.9834 252.665 88.224 256.615C85.5727 258.777 84.609 270.105 85.0142 277.732C85.0608 278.758 85.1412 279.699 85.2554 280.554C85.9417 286.18 92.4866 291.099 92.4866 291.099L107.382 291.762C107.066 290.471 106.91 289.125 106.835 287.772C106.708 284.364 107.34 281.179 108.589 278.477C110.975 273.207 115.569 269.725 121.004 269.837C126.439 269.949 131.363 273.689 134.219 279.212C135.694 282.051 136.637 285.39 136.775 288.921C136.853 290.314 190.848 277.92 190.671 279.212L194.141 275.944L318.491 300.906L304.629 185.817L167.464 161.773Z" fill="url(#paint3_linear_1570_1162)"/>
<path d="M55.724 230.501L117.826 229.398C119.273 229.353 120.54 228.577 121.063 227.353L134.853 194.617C135.308 193.517 134.426 192.374 133.216 192.438L70.3251 195.181C68.9203 195.262 67.6177 196.081 67.0948 197.305L54.8837 220.669L52.2583 226.199C51.296 228.246 53.1022 230.568 55.724 230.501Z" fill="#FBDCAA"/>
<path d="M143.195 198.877L131.517 230.176L154.227 229.767C154.227 229.767 158.862 228.939 158.935 219.697C159.032 209.825 158.13 192.845 158.13 192.845L148.289 193.333C144.514 194.127 144.061 196.17 143.195 198.877Z" fill="#FBDCAA"/>
<path d="M12.7709 257.255C13.2349 257.875 13.8038 258.279 14.4707 258.387L25.396 260.213C26.3147 260.382 27.0224 259.044 26.7404 257.668L25.5597 251.549L25.5049 251.389L25.2742 250.131C25.0574 249.038 24.4943 248.221 23.7762 247.994L23.1431 247.801L17.6656 251.523C17.7029 251.479 15.0586 253.723 12.7709 257.255Z" fill="#FBDCAA"/>
<path d="M72.362 264.355L85.6786 263.382L92.7042 262.864C95.1561 262.695 97.0705 261.049 97.4193 258.877L98.7069 250.858C98.7372 250.732 98.7267 250.609 98.7162 250.486C98.7362 248.796 96.9746 247.422 95.0742 247.791L74.4719 251.529C73.1766 251.763 72.1412 252.634 71.8275 253.773L69.6247 261.664C69.2912 263.052 70.6447 264.461 72.362 264.355Z" fill="#FBDCAA"/>
<path d="M9.51369 276.853C9.56462 282.739 15.7493 287.772 23.3379 288.07L107.297 291.728C106.981 290.437 106.825 289.091 106.75 287.738C106.623 284.33 107.255 281.145 108.504 278.444L9.47647 275.456C9.4776 275.95 9.47524 276.403 9.51369 276.853Z" fill="#FB7354"/>
<path d="M63.8818 252.187L32.1386 252.057C31.1115 252.063 30.3862 253.196 30.5354 254.46L31.8219 263.742C32.0224 265.125 32.9737 266.156 34.0416 266.147L60.3098 266.662C61.9968 266.683 63.4391 265.282 63.8764 263.185L65.5208 255.012C65.8544 253.625 64.9905 252.174 63.8818 252.187Z" fill="#FB7354"/>
<path d="M271.545 298.905L306.818 300.421C307.266 297.005 307.434 272.522 287.836 272.138C270.006 271.767 270.338 293.447 271.545 298.905Z" fill="#661717"/>
<path d="M295.348 294.645C296.063 303.482 292.598 312.964 292.598 312.964C292.598 312.964 286.278 312.598 285.37 312.552C279.05 312.186 273.276 303.782 272.501 293.756C271.726 283.73 283.343 275.858 289.605 276.023C295.867 276.188 294.515 284.418 295.348 294.645Z" fill="#631818"/>
<path d="M302.526 294.938C303.366 305.247 298.919 313.33 292.598 312.964C286.278 312.598 280.501 304.153 279.678 294.049C278.856 283.944 283.344 275.858 289.606 276.023C295.867 276.188 301.645 284.633 302.526 294.938Z" fill="#822121"/>
<path d="M297.454 294.753C297.913 300.605 295.386 305.187 291.794 305C288.202 304.812 284.916 300.027 284.464 294.257C284.012 288.488 286.539 283.905 290.124 284.011C293.709 284.116 296.954 288.906 297.454 294.753Z" fill="#661717"/>
<path d="M438.552 113.409C438.465 107.372 436.102 102.122 432.69 97.2222C412.741 67.9108 389.379 38.5119 366.193 11.7379C359.368 3.86318 350.093 -1.47411 339.419 0.363317C331.806 1.67577 324.457 6.1381 317.544 9.11299C296.808 18.1251 276.246 27.0498 255.597 36.062C268.721 30.3747 280.271 41.7493 288.845 51.8114C311.77 78.7604 331.894 106.934 353.593 134.933C362.343 146.22 365.93 150.333 365.843 164.682C365.668 203.618 364.53 246.492 364.093 285.428C363.918 300.302 373.892 326.376 360.33 338.188C378.005 322.789 395.679 307.389 413.353 292.077C419.216 287.003 426.303 282.365 431.028 276.153C433.215 273.266 434.615 268.541 435.052 265.216C436.54 254.016 435.577 242.029 435.84 230.742C436.452 204.756 436.977 178.682 437.59 152.695C438.027 139.571 438.727 126.446 438.552 113.409Z" fill="url(#paint4_linear_1570_1162)"/>
<path d="M268.371 34.0497C270.384 34.2247 272.309 34.6622 274.321 35.2746C276.246 35.8871 278.171 36.7621 280.096 37.8121C281.933 38.862 283.771 40.1745 285.433 41.6619C287.096 43.1493 288.758 44.8118 290.158 46.7367L362.955 140.796C364.005 142.196 364.968 143.596 365.755 145.083C366.543 146.57 367.243 148.145 367.768 149.72C368.293 151.295 368.73 152.87 368.993 154.533C369.255 156.108 369.43 157.77 369.343 159.432L367.68 322.001C367.68 325.676 366.805 329.001 365.318 331.888C363.83 334.776 361.73 337.226 359.193 339.238C356.656 341.163 353.593 342.563 350.268 343.351C346.943 344.138 343.269 344.225 339.419 343.526L202.486 320.076C198.899 319.464 195.487 318.151 192.337 316.402C189.187 314.564 186.387 312.289 184.025 309.577C181.662 306.864 179.737 303.89 178.337 300.652C176.937 297.415 176.15 294.002 176.15 290.503L173 134.758C173 133.183 173.087 131.696 173.35 130.209C173.612 128.721 173.962 127.321 174.4 125.921C174.925 124.521 175.537 123.209 176.237 121.984C176.937 120.759 177.812 119.534 178.775 118.484L246.847 42.3619C248.247 40.7869 249.822 39.387 251.485 38.2495C253.147 37.1121 254.897 36.2371 256.734 35.5371C258.572 34.8372 260.497 34.3997 262.422 34.1372C264.434 33.8747 266.446 33.8747 268.371 34.0497Z" fill="url(#paint5_linear_1570_1162)"/>
<path d="M247.285 201.256C248.598 201.431 249.91 201.868 251.048 202.481C252.185 203.181 253.235 204.056 254.11 205.106C254.985 206.155 255.685 207.38 256.21 208.605C256.735 209.918 256.997 211.318 256.997 212.718L257.172 236.079C257.172 237.479 256.91 238.792 256.472 239.929C256.035 241.067 255.335 242.117 254.46 242.904C253.585 243.692 252.622 244.304 251.485 244.654C250.348 245.004 249.123 245.092 247.81 244.917L226.286 242.029C224.974 241.854 223.749 241.417 222.611 240.717C221.474 240.017 220.511 239.229 219.636 238.179C218.761 237.129 218.061 235.992 217.624 234.679C217.099 233.454 216.836 232.055 216.836 230.655L216.486 207.555C216.486 206.155 216.749 204.843 217.186 203.706C217.624 202.568 218.324 201.518 219.111 200.731C219.986 199.943 220.949 199.243 222.086 198.893C223.224 198.543 224.449 198.368 225.761 198.543L247.285 201.256ZM283.859 224.967C282.546 224.792 281.234 224.967 280.096 225.317C278.959 225.667 277.909 226.367 277.034 227.155C276.159 227.942 275.459 228.992 274.934 230.217C274.409 231.355 274.147 232.754 274.147 234.154L274.322 308.614C274.322 310.014 274.584 311.326 275.109 312.639C275.634 313.951 276.334 315.089 277.209 316.139C278.084 317.189 279.134 318.064 280.271 318.764C281.409 319.464 282.721 319.901 284.034 320.076L306.783 323.401C308.095 323.576 309.408 323.489 310.545 323.139C311.683 322.789 312.733 322.176 313.695 321.389C314.57 320.601 315.27 319.639 315.795 318.501C316.32 317.364 316.583 316.051 316.583 314.651L316.933 239.404C316.933 238.004 316.67 236.517 316.145 235.204C315.62 233.892 314.92 232.667 314.045 231.617C313.17 230.567 312.12 229.692 310.895 228.992C309.67 228.292 308.445 227.855 307.045 227.68L283.859 224.967Z" fill="#7A43EE"/>
<path d="M266.096 60.2109C266.184 60.2109 266.184 60.2109 266.271 60.2984C266.534 60.3859 266.796 60.4734 267.059 60.6484C267.409 60.8234 267.759 61.0859 268.109 61.4359C268.546 61.7859 268.984 62.2233 269.334 62.7483L342.131 156.807C342.306 157.07 342.569 157.332 342.656 157.682C342.831 157.945 342.919 158.207 343.006 158.382C343.094 158.557 343.094 158.732 343.094 158.907C343.094 158.995 343.094 159.082 343.094 159.082L341.344 312.289C341.344 314.826 338.981 316.751 336.444 316.314L206.861 294.265C206.424 294.177 205.899 294.002 205.461 293.74C204.761 293.39 204.149 292.865 203.624 292.252C203.186 291.727 202.749 291.115 202.486 290.59C202.399 290.327 202.311 290.152 202.311 290.152L199.337 140.27C199.249 136.946 200.474 133.708 202.661 131.171L266.096 60.2109ZM265.747 33.9619C264.609 33.9619 263.559 34.0494 262.509 34.1369C260.584 34.3994 258.659 34.8369 256.822 35.5369C254.984 36.2368 253.234 37.1118 251.572 38.2493C249.91 39.3867 248.335 40.7867 246.935 42.3616L178.862 118.484C177.9 119.534 177.025 120.759 176.325 121.984C175.625 123.209 175.012 124.521 174.487 125.921C173.962 127.321 173.612 128.721 173.437 130.208C173.087 131.696 173 133.183 173 134.758L176.062 290.502C176.15 294.002 176.937 297.415 178.25 300.652C179.65 303.889 181.575 306.952 183.937 309.577C186.299 312.289 189.099 314.564 192.249 316.401C195.399 318.239 198.812 319.464 202.399 320.076L339.331 343.438C341.081 343.7 342.744 343.875 344.406 343.875C346.418 343.875 348.343 343.7 350.268 343.263C353.593 342.475 356.656 341.075 359.193 339.15C361.73 337.225 363.83 334.776 365.318 331.801C366.805 328.913 367.593 325.588 367.68 321.914L369.605 159.345C369.605 157.682 369.518 156.107 369.255 154.445C368.993 152.87 368.555 151.207 368.03 149.633C367.505 148.058 366.805 146.483 366.018 144.995C365.23 143.508 364.268 142.02 363.218 140.708L290.246 46.7364C288.758 44.8115 287.183 43.1491 285.521 41.6616C283.858 40.1742 282.021 38.9492 280.183 37.8118C278.346 36.7618 276.421 35.8868 274.409 35.2744C272.484 34.6619 270.471 34.2244 268.459 34.0494C267.496 33.9619 266.621 33.9619 265.747 33.9619Z" fill="#B565E5"/>
<g filter="url(#filter0_i_1570_1162)">
<path d="M482.198 28.0438L423.385 31.2656C418.479 31.5135 413.868 32.9385 409.672 35.231C405.475 37.5854 401.692 40.8072 398.618 44.7725C395.486 48.6758 393.121 53.3227 391.585 58.3412C390.048 63.4218 389.397 68.8741 389.87 74.5122L395.308 145.392C395.722 150.658 397.082 155.429 399.269 159.58C401.397 163.732 404.293 167.201 407.721 169.865C411.09 172.53 414.991 174.388 419.188 175.318C423.326 176.247 427.759 176.247 432.31 175.194L487.34 162.616C491.241 161.749 494.906 159.952 498.216 157.536C501.467 155.119 504.363 152.022 506.728 148.552C509.092 145.02 510.984 141.055 512.225 136.842C513.466 132.629 514.116 128.106 513.998 123.521L512.402 62.0587C512.284 57.226 511.397 52.6411 509.861 48.5519C508.324 44.4007 506.137 40.6832 503.477 37.6473C500.758 34.5494 497.566 32.0711 494.019 30.3982C490.355 28.6015 486.394 27.796 482.198 28.0438Z" fill="white"/>
</g>
<path d="M482.079 66.2718C481.488 66.3338 480.897 66.4577 480.306 66.7055C479.715 66.8914 479.124 67.2012 478.592 67.5729C478.06 67.9447 477.468 68.3784 476.996 68.874C476.464 69.3697 475.991 69.9893 475.577 70.6089C473.745 73.2731 471.971 75.9372 470.139 78.6014C468.307 81.2656 466.474 83.9918 464.701 86.7179C462.869 89.4441 461.036 92.1702 459.204 94.8964C457.372 97.6225 455.48 100.349 453.648 103.137C453.589 103.199 453.589 103.261 453.53 103.323C453.47 103.385 453.47 103.447 453.411 103.57C453.352 103.694 453.352 103.756 453.293 103.818C453.234 103.942 453.175 104.004 453.116 104.128C453.057 104.004 452.938 103.942 452.879 103.818C452.82 103.756 452.761 103.632 452.702 103.57C452.643 103.509 452.584 103.447 452.525 103.385C452.466 103.323 452.406 103.261 452.406 103.199C451.697 102.455 450.515 101.216 449.156 99.7291C447.737 98.2421 446.141 96.5073 444.486 94.7105C442.831 92.9137 441.176 91.1789 439.757 89.6299C438.339 88.081 437.097 86.7799 436.329 86.0364C435.797 85.4788 435.265 85.0451 434.674 84.6113C434.083 84.2396 433.492 83.8679 432.901 83.62C432.31 83.3722 431.659 83.1863 430.95 83.0624C430.3 82.9385 429.591 82.9385 428.881 83.0004C428.822 83.0004 428.822 83.0004 428.763 83.0004C428.704 83.0004 428.704 83.0004 428.645 83.0004C428.586 83.0004 428.586 83.0004 428.527 83.0004C428.468 83.0004 428.468 83.0004 428.408 83.0004C427.345 83.1244 426.281 83.4341 425.335 83.9298C424.33 84.4255 423.443 85.0451 422.616 85.8505C421.788 86.656 421.02 87.5853 420.429 88.6386C419.779 89.6919 419.306 90.8691 418.951 92.1083C418.596 93.4094 418.36 94.7105 418.301 96.0736C418.242 97.3747 418.36 98.6758 418.656 99.9149C418.951 101.154 419.365 102.331 419.956 103.447C420.547 104.5 421.256 105.491 422.143 106.359C423.68 107.846 425.689 109.89 427.936 112.121C430.182 114.351 432.605 116.767 435.029 119.246C437.452 121.662 439.816 124.079 441.944 126.185C444.072 128.292 445.964 130.15 447.382 131.513C447.914 132.009 448.505 132.443 449.096 132.815C449.687 133.186 450.279 133.434 450.929 133.62C451.52 133.806 452.17 133.93 452.82 133.93C453.47 133.992 454.062 133.93 454.712 133.806C455.362 133.682 455.953 133.496 456.544 133.248C457.135 133 457.726 132.629 458.317 132.257C458.908 131.823 459.44 131.39 459.972 130.832C460.504 130.274 460.977 129.655 461.45 128.973C463.874 125.318 466.297 121.724 468.661 118.131C471.026 114.537 473.449 110.943 475.813 107.35C478.178 103.818 480.542 100.225 482.847 96.6931C485.153 93.1615 487.517 89.6299 489.822 86.1603C490.768 84.7353 491.418 83.1863 491.773 81.5135C492.127 79.9025 492.246 78.1677 492.127 76.4949C491.95 74.822 491.536 73.2111 490.886 71.7861C490.236 70.361 489.29 69.0599 488.167 68.0686C487.694 67.6968 487.28 67.3251 486.808 67.0773C486.335 66.8294 485.862 66.5816 485.33 66.3957C484.857 66.2099 484.325 66.1479 483.793 66.0859C483.084 66.2718 482.611 66.2718 482.079 66.2718Z" fill="url(#paint6_linear_1570_1162)"/>
<defs>
<filter id="filter0_i_1570_1162" x="389.719" y="16" width="128.293" height="160" filterUnits="userSpaceOnUse" color-interpolation-filters="sRGB">
<feFlood flood-opacity="0" result="BackgroundImageFix"/>
<feBlend mode="normal" in="SourceGraphic" in2="BackgroundImageFix" result="shape"/>
<feColorMatrix in="SourceAlpha" type="matrix" values="0 0 0 0 0 0 0 0 0 0 0 0 0 0 0 0 0 0 127 0" result="hardAlpha"/>
<feOffset dx="4" dy="-12"/>
<feGaussianBlur stdDeviation="9"/>
<feComposite in2="hardAlpha" operator="arithmetic" k2="-1" k3="1"/>
<feColorMatrix type="matrix" values="0 0 0 0 0.803922 0 0 0 0 0.847059 0 0 0 0 0.968627 0 0 0 1 0"/>
<feBlend mode="normal" in2="shape" result="effect1_innerShadow_1570_1162"/>
</filter>
<linearGradient id="paint0_linear_1570_1162" x1="128.704" y1="306.184" x2="107.125" y2="287.811" gradientUnits="userSpaceOnUse">
<stop stop-color="#7A43EE"/>
<stop offset="1" stop-color="#B565E6"/>
</linearGradient>
<linearGradient id="paint1_linear_1570_1162" x1="35.0101" y1="278.918" x2="46.2472" y2="303.194" gradientUnits="userSpaceOnUse">
<stop stop-color="#7A43EE"/>
<stop offset="1" stop-color="#B565E6"/>
</linearGradient>
<linearGradient id="paint2_linear_1570_1162" x1="74.1729" y1="160.933" x2="107.387" y2="284.867" gradientUnits="userSpaceOnUse">
<stop stop-color="#E8F0FF"/>
<stop offset="0.32484" stop-color="#F8BA55"/>
<stop offset="1" stop-color="#FB7354"/>
</linearGradient>
<linearGradient id="paint3_linear_1570_1162" x1="146.55" y1="141.104" x2="167.867" y2="251.157" gradientUnits="userSpaceOnUse">
<stop stop-color="#F8BA55"/>
<stop offset="1" stop-color="#FB7354"/>
</linearGradient>
<linearGradient id="paint4_linear_1570_1162" x1="524.5" y1="306" x2="333" y2="-23" gradientUnits="userSpaceOnUse">
<stop stop-color="#B565E5"/>
<stop offset="0.461458" stop-color="#7A43EE"/>
<stop offset="1" stop-color="#B565E6"/>
</linearGradient>
<linearGradient id="paint5_linear_1570_1162" x1="336.5" y1="388" x2="118.474" y2="207.31" gradientUnits="userSpaceOnUse">
<stop stop-color="#B565E6"/>
<stop offset="1" stop-color="#7A43EE"/>
</linearGradient>
<linearGradient id="paint6_linear_1570_1162" x1="449.014" y1="74.9614" x2="472.257" y2="134.256" gradientUnits="userSpaceOnUse">
<stop stop-color="#F8BA55"/>
<stop offset="1" stop-color="#FB7354"/>
</linearGradient>
</defs>
</svg>
