<svg width="210" height="210" viewBox="0 0 210 210" fill="none" xmlns="http://www.w3.org/2000/svg">
<g filter="url(#filter0_i_131_253)">
<circle cx="105" cy="105" r="85" transform="rotate(15 105 105)" fill="white"/>
</g>
<mask id="mask0_131_253" style="mask-type:alpha" maskUnits="userSpaceOnUse" x="0" y="0" width="210" height="210">
<path d="M88.3622 12.5436C88.3622 12.5436 59.4988 50.7166 48.9759 89.9885C38.453 129.26 44.3629 176.751 44.3629 176.751L0.89627 165.104L44.8955 0.896698L88.3622 12.5436Z" fill="url(#paint0_linear_131_253)"/>
<path d="M209.103 44.8959L165.104 209.103L121.637 197.456C121.637 197.456 150.5 159.283 161.023 120.012C171.546 80.7396 165.636 33.2491 165.636 33.2491L209.103 44.8959Z" fill="url(#paint1_linear_131_253)"/>
<path d="M128.942 95.884C125.67 96.4464 122.35 97.017 118.938 97.591C119.133 97.2725 119.232 97.0697 119.3 96.9277C119.346 96.833 119.379 96.7654 119.418 96.7086C119.973 95.8279 120.528 94.9485 121.082 94.0696C124.126 89.2422 127.159 84.4333 130.171 79.5384C131.316 77.767 130.703 76.8726 128.516 76.8484C127.785 76.8491 127.061 76.8798 126.337 76.9105C125.613 76.9412 124.89 76.9719 124.158 76.9726C121.518 77.0515 120.394 76.2448 119.692 73.8661C119.326 72.6167 118.996 71.3487 118.666 70.0807C118.335 68.8127 118.005 67.5448 117.639 66.2954C117.023 64.2767 115.887 63.9722 114.4 65.4274C113.088 66.6861 111.827 67.9582 110.566 69.2304C109.935 69.8665 109.305 70.5025 108.668 71.1369C107.167 72.6445 105.422 72.7946 103.544 71.6175C103.22 71.4142 102.897 71.2081 102.572 71.0016C101.489 70.3115 100.399 69.6169 99.2496 69.0064C97.7567 68.2132 96.8353 68.6965 96.84 70.2704C96.8135 71.6743 96.8822 73.0748 96.9514 74.488C96.9787 75.0437 97.006 75.6014 97.0277 76.162C97.2415 81.2743 97.4412 86.4389 97.6276 91.8808C92.1064 87.2563 86.8699 82.9328 81.6335 78.6092L81.6323 78.6083C79.882 77.1845 79.0309 77.4057 78.4265 79.4343C77.7097 81.882 77.0638 84.2926 76.4747 86.7184C76.012 88.6726 74.9369 89.9572 72.7947 90.4503C71.3593 90.7663 69.9788 91.205 68.6055 91.6413C67.9973 91.8346 67.3904 92.0274 66.7808 92.2089C64.0718 92.9995 63.932 93.7484 65.9818 95.6456C67.4818 97.029 68.9759 98.4187 70.4692 99.8078C74.6161 103.665 78.7576 107.517 83.006 111.216C84.3438 112.361 84.4313 113.17 83.3703 114.403C82.5071 115.351 81.8713 116.36 81.2214 117.421C79.7946 119.791 80.7807 122.021 83.6649 122.85L94.1213 125.652C94.5028 125.754 94.8527 125.89 95.2321 126.037C95.4745 126.131 95.7289 126.229 96.0114 126.327L95.3374 128.842C94.755 131.13 94.1477 133.396 93.5422 135.656C92.9366 137.916 92.3328 140.169 91.7575 142.43C91.2947 144.384 92.4072 146.143 94.3394 146.66C96.2147 147.163 98.1001 146.264 98.6765 144.34C99.3826 142.046 99.985 139.755 100.591 137.45C100.794 136.679 100.997 135.907 101.205 135.132L103.072 128.163C104.51 128.548 105.921 128.932 107.314 129.312C110.051 130.058 112.721 130.785 115.404 131.467C118.373 132.206 120.328 130.821 120.291 128.002C120.273 126.706 120.255 125.409 119.982 124.156C119.694 122.731 120.16 122.126 121.707 121.81C126.748 120.727 131.751 119.584 136.754 118.441C139.255 117.869 141.757 117.298 144.263 116.733C147.243 116.071 147.439 115.338 145.303 113.08C144.693 112.454 144.104 111.823 143.518 111.195C142.682 110.301 141.853 109.413 140.974 108.55C139.565 107.218 139.22 105.778 139.683 104.048L141.579 96.9738C142.266 94.1811 141.796 93.662 138.661 94.226C135.44 94.7672 132.215 95.3215 128.942 95.884Z" fill="url(#paint2_linear_131_253)"/>
</mask>
<g mask="url(#mask0_131_253)">
<g filter="url(#filter1_i_131_253)">
<circle cx="105" cy="105" r="85" transform="rotate(15 105 105)" fill="url(#paint3_linear_131_253)"/>
</g>
</g>
<defs>
<filter id="filter0_i_131_253" x="5.97852" y="5.97888" width="184.042" height="184.042" filterUnits="userSpaceOnUse" color-interpolation-filters="sRGB">
<feFlood flood-opacity="0" result="BackgroundImageFix"/>
<feBlend mode="normal" in="SourceGraphic" in2="BackgroundImageFix" result="shape"/>
<feColorMatrix in="SourceAlpha" type="matrix" values="0 0 0 0 0 0 0 0 0 0 0 0 0 0 0 0 0 0 127 0" result="hardAlpha"/>
<feOffset dx="-14" dy="-14"/>
<feGaussianBlur stdDeviation="16"/>
<feComposite in2="hardAlpha" operator="arithmetic" k2="-1" k3="1"/>
<feColorMatrix type="matrix" values="0 0 0 0 0.803922 0 0 0 0 0.847059 0 0 0 0 0.968627 0 0 0 1 0"/>
<feBlend mode="normal" in2="shape" result="effect1_innerShadow_131_253"/>
</filter>
<filter id="filter1_i_131_253" x="5.97852" y="5.97888" width="184.042" height="184.042" filterUnits="userSpaceOnUse" color-interpolation-filters="sRGB">
<feFlood flood-opacity="0" result="BackgroundImageFix"/>
<feBlend mode="normal" in="SourceGraphic" in2="BackgroundImageFix" result="shape"/>
<feColorMatrix in="SourceAlpha" type="matrix" values="0 0 0 0 0 0 0 0 0 0 0 0 0 0 0 0 0 0 127 0" result="hardAlpha"/>
<feOffset dx="-14" dy="-14"/>
<feGaussianBlur stdDeviation="16"/>
<feComposite in2="hardAlpha" operator="arithmetic" k2="-1" k3="1"/>
<feColorMatrix type="matrix" values="0 0 0 0 0.984314 0 0 0 0 0.45098 0 0 0 0 0.329412 0 0 0 1 0"/>
<feBlend mode="normal" in2="shape" result="effect1_innerShadow_131_253"/>
</filter>
<linearGradient id="paint0_linear_131_253" x1="126.999" y1="22.8963" x2="83" y2="187.104" gradientUnits="userSpaceOnUse">
<stop stop-color="#F8BA55"/>
<stop offset="1" stop-color="#FB7354"/>
</linearGradient>
<linearGradient id="paint1_linear_131_253" x1="126.999" y1="22.8963" x2="83" y2="187.104" gradientUnits="userSpaceOnUse">
<stop stop-color="#F8BA55"/>
<stop offset="1" stop-color="#FB7354"/>
</linearGradient>
<linearGradient id="paint2_linear_131_253" x1="126.999" y1="22.8963" x2="83" y2="187.104" gradientUnits="userSpaceOnUse">
<stop stop-color="#F8BA55"/>
<stop offset="1" stop-color="#FB7354"/>
</linearGradient>
<linearGradient id="paint3_linear_131_253" x1="105" y1="20" x2="105" y2="190" gradientUnits="userSpaceOnUse">
<stop stop-color="#F8BA55"/>
<stop offset="1" stop-color="#FB7354"/>
</linearGradient>
</defs>
</svg>
