<svg width="786" height="875" viewBox="0 0 786 875" fill="none" xmlns="http://www.w3.org/2000/svg">
<path d="M691.164 274.556C859.483 82.4839 709.975 -202.536 613.339 -206.615C326.28 -218.733 61.9691 -145.252 -68.5178 -60.5882C-199.005 24.0761 -211.464 191.79 -246.695 415.433C-281.925 639.075 -305.212 551.362 -205.451 838.948C-105.69 1126.53 26.5724 1229.85 153.618 1169.63C280.664 1109.41 570.241 987.815 481.01 638.003C440.223 478.105 522.845 466.629 691.164 274.556Z" fill="url(#paint0_linear_3_242)"/>
<path d="M63.2693 515.888C-45.588 625.178 -131.623 972.456 -114.986 1021.23C-65.5645 1166.12 13.8833 1216.99 72.5114 1194.91C131.14 1172.84 349.939 1148.93 434 936.5C508 749.5 294.867 648.136 459.158 381.114C628.519 105.853 662.22 36.5627 539.052 -123.528C502.721 -170.75 372.183 -123.666 248.766 258.857C192.352 433.706 172.127 406.597 63.2693 515.888Z" fill="url(#paint1_linear_3_242)"/>
<defs>
<linearGradient id="paint0_linear_3_242" x1="808.363" y1="-105.604" x2="123.065" y2="1178.15" gradientUnits="userSpaceOnUse">
<stop stop-color="#7A43EE" stop-opacity="0"/>
<stop offset="1" stop-color="#7A43EE"/>
</linearGradient>
<linearGradient id="paint1_linear_3_242" x1="48.07" y1="1038.8" x2="-310.547" y2="95.7569" gradientUnits="userSpaceOnUse">
<stop stop-color="#31225C" stop-opacity="0"/>
<stop offset="1" stop-color="#31225C"/>
</linearGradient>
</defs>
</svg>
