<svg width="72" height="72" viewBox="0 0 72 72" fill="none" xmlns="http://www.w3.org/2000/svg">
<g clip-path="url(#clip0_131_316)">
<path d="M72 29.1223C72 33.7137 72 38.305 72 42.8964C71.5501 43.9084 70.7253 44.3581 69.6756 44.583C68.251 44.8829 66.8638 45.3326 65.4392 45.5763C64.2395 45.7824 63.396 46.2322 63.171 47.5065C63.1336 47.7126 62.9461 47.8813 62.9274 48.0875C62.8899 48.406 62.8524 48.7808 62.9836 49.0245C63.9583 50.7298 64.9893 52.3977 66.0016 54.0843C66.6764 55.2275 66.5827 56.127 65.6454 57.064C62.7774 59.9313 59.9281 62.7985 57.0601 65.6471C56.1229 66.5841 55.2231 66.6778 54.0797 66.0031C52.8987 65.291 51.6428 64.6726 50.5556 63.848C49.2434 62.8548 48.0062 62.6111 46.5816 63.5294C46.2255 63.7543 45.963 63.923 45.8506 64.354C45.4382 66.1343 44.9695 67.8959 44.5759 69.6762C44.351 70.7257 43.9011 71.5502 42.8888 72C38.2963 72 33.7037 72 29.1112 72C28.0989 71.5502 27.649 70.7257 27.4241 69.6762C27.1804 68.4581 26.7305 67.2775 26.5806 66.0593C26.3744 64.3727 25.6246 63.267 23.9188 62.9297C23.6188 62.8735 23.2252 62.8548 22.9815 63.0047C21.2757 63.9792 19.6074 65.0099 17.9203 66.0031C16.7769 66.6778 15.8771 66.5841 14.9399 65.6471C12.0719 62.7798 9.20385 59.9313 6.35459 57.064C5.41734 56.127 5.32361 55.2275 5.99844 54.0843C6.71075 52.9037 7.32934 51.6481 8.15413 50.5612C9.14762 49.2493 9.37256 48.0312 8.47279 46.5882C8.22911 46.1947 8.02291 45.9511 7.57303 45.8574C5.79224 45.4451 4.0302 44.9578 2.24941 44.583C1.21843 44.3581 0.431138 43.9084 0 42.9151C0 38.3238 0 33.7324 0 29.1411C0.431138 28.1666 1.21843 27.6981 2.24941 27.4732C3.48659 27.2296 4.68628 26.7798 5.9422 26.6111C7.62926 26.405 8.73522 25.6554 9.07264 23.95C9.12887 23.6502 9.14762 23.2566 9.0164 23.013C8.02291 21.2889 6.97318 19.6023 5.96095 17.8782C5.34236 16.81 5.45483 15.873 6.3171 15.0109C9.20385 12.1062 12.1093 9.20146 15.0148 6.31546C15.8771 5.45341 16.8144 5.34097 17.8828 5.9594C19.1013 6.67153 20.3572 7.30869 21.4819 8.152C22.7941 9.1265 24.0125 9.4076 25.4559 8.47059C25.812 8.2457 26.0745 8.07704 26.1869 7.64602C26.5993 5.86569 27.068 4.10411 27.4616 2.32379C27.6865 1.27434 28.1364 0.449766 29.1487 0C33.7412 0 38.3338 0 42.9263 0C43.9011 0.431025 44.3884 1.21812 44.5946 2.24883C44.8383 3.48568 45.2695 4.68506 45.4569 5.94066C45.6819 7.57106 46.3379 8.69547 48.0437 9.07028C48.4561 9.16398 48.7373 9.25768 49.131 9.01405C50.7805 7.98334 52.4488 7.00885 54.1172 6.01562C55.2606 5.34097 56.1604 5.43467 57.0976 6.37168C59.9656 9.23894 62.8336 12.0875 65.6829 14.9547C66.6201 15.8917 66.7139 16.7913 66.0391 17.9344C65.3455 19.115 64.7082 20.3706 63.8834 21.4576C62.8899 22.7694 62.6462 24.0062 63.5647 25.4305C63.7896 25.7866 63.9583 26.0489 64.3895 26.1426C66.1703 26.5549 67.9323 27.0234 69.7131 27.417C70.7253 27.6606 71.5501 28.0916 72 29.1223ZM27.5741 59.8751C27.5741 57.7574 27.5553 55.7897 27.5928 53.822C27.6116 53.2035 27.4054 52.9037 26.8618 52.5851C20.1697 48.6309 16.6832 42.7277 17.1143 34.9693C17.5267 27.342 21.5007 21.9073 28.3989 18.6278C30.3858 17.6908 31.8105 18.6278 31.8105 20.8204C31.8105 25.2993 31.8105 29.7595 31.7917 34.2384C31.7917 34.6882 31.9042 34.9693 32.2978 35.2129C33.3663 35.8876 34.416 36.5809 35.447 37.3118C35.8407 37.5929 36.1218 37.6304 36.553 37.3306C37.584 36.5997 38.6337 35.8876 39.7022 35.2316C40.1146 34.9693 40.2458 34.6882 40.2458 34.2009C40.227 29.6658 40.227 25.1119 40.2458 20.5768C40.2458 18.759 41.6704 17.8032 43.3575 18.4966C51.8115 21.9636 56.6665 31.3899 54.5108 40.2915C53.1799 45.8011 49.9745 49.924 45.0258 52.6788C44.5946 52.9224 44.4447 53.1661 44.4447 53.6533C44.4634 55.4711 44.4634 57.3076 44.4634 59.1255C44.4634 59.3316 44.4822 59.519 44.5009 59.8563C45.5131 59.4066 46.4692 59.0317 47.3689 58.5632C48.3437 58.0385 49.2247 58.1135 50.1432 58.6944C51.5866 59.6127 53.0862 60.4373 54.5295 61.3555C54.9419 61.6179 55.1856 61.5992 55.5418 61.2431C57.2851 59.444 59.0659 57.6825 60.8467 55.9209C61.1278 55.6398 61.484 55.4336 61.7839 55.19C60.6592 53.2972 59.6282 51.5919 58.5972 49.8865C58.1661 49.1744 58.0911 48.4623 58.4285 47.6752C59.0284 46.3071 59.6095 44.9204 60.1718 43.5336C60.4718 42.8027 60.9591 42.3342 61.7277 42.1468C62.0838 42.0531 62.4587 41.9594 62.8149 41.8844C64.4645 41.4721 66.114 41.0599 67.8011 40.6476C67.8011 37.6304 67.8011 34.6882 67.8011 31.7272C67.8011 31.2962 67.5762 31.24 67.2575 31.165C65.458 30.734 63.6772 30.2655 61.8776 29.8532C60.9779 29.6471 60.4343 29.1036 60.0969 28.2415C59.6095 26.9485 59.0659 25.6741 58.5035 24.4185C58.1286 23.594 58.1286 22.8443 58.5972 22.076C59.1596 21.1577 59.7032 20.2395 60.2656 19.3024C60.7342 18.5154 61.2216 17.7095 61.7089 16.885C59.5532 14.7298 57.4538 12.6309 55.3168 10.5508C55.2044 10.4383 54.792 10.4758 54.6045 10.5882C53.0487 11.4878 51.4928 12.4248 49.9557 13.3618C49.1497 13.8678 48.3624 13.8678 47.5001 13.4555C46.3567 12.912 45.2132 12.3686 44.0135 11.975C42.9076 11.6189 42.3077 10.9443 42.064 9.83862C41.6891 8.13326 41.258 6.4279 40.8081 4.72254C40.7519 4.5164 40.5082 4.21655 40.3395 4.21655C37.359 4.17907 34.3973 4.19781 31.3981 4.19781C31.3418 4.38522 31.2856 4.53514 31.2481 4.68506C30.817 6.4279 30.3671 8.17074 29.9734 9.93233C29.7298 10.963 29.1674 11.6002 28.1552 11.9563C26.993 12.3498 25.8308 12.8371 24.7248 13.3805C23.7501 13.8678 22.8878 13.8678 21.9505 13.2868C20.3197 12.2749 18.6701 11.3004 17.0581 10.3446C16.9643 10.3821 16.9081 10.4008 16.8706 10.4196C14.7899 12.481 12.7279 14.5612 10.6472 16.6039C10.3286 16.9224 10.4973 17.1286 10.666 17.3909C11.5657 18.8902 12.4655 20.4081 13.384 21.9073C13.9276 22.7881 13.9651 23.6127 13.4965 24.5497C12.9529 25.6741 12.4468 26.8548 12.0344 28.0354C11.6782 29.0474 11.0784 29.6471 10.0474 29.8719C8.28534 30.2842 6.54205 30.734 4.79875 31.1463C4.38636 31.24 4.27389 31.3899 4.27389 31.8022C4.29263 34.557 4.29263 37.3306 4.27389 40.0854C4.27389 40.4789 4.36761 40.6476 4.78 40.7413C6.59828 41.1536 8.41656 41.6408 10.2348 42.0718C11.1159 42.278 11.6407 42.8214 11.9594 43.646C12.4468 44.9016 12.9529 46.1759 13.534 47.3941C13.9464 48.2749 13.9464 49.0807 13.4215 49.924C12.503 51.4232 11.6407 52.9412 10.7035 54.4216C10.4035 54.8902 10.4785 55.1338 10.8534 55.4711C11.7532 56.3332 12.6155 57.2139 13.4965 58.0947C14.6399 59.2566 15.8021 60.4185 16.9643 61.6179C18.6139 60.6247 20.226 59.7064 21.7818 58.7132C22.8503 58.0198 23.825 57.9823 24.931 58.6007C25.6996 59.1255 26.5993 59.444 27.5741 59.8751ZM27.5741 24.0062C23.5439 26.4612 20.0198 32.6455 21.6694 39.5044C23.2252 46.026 29.2424 50.7673 36.0281 50.7673C42.9451 50.7673 48.906 45.9885 50.4431 39.1484C51.924 32.5705 48.5124 26.48 44.4634 24.0062C44.4634 24.2873 44.4634 24.5497 44.4634 24.7933C44.4634 28.3915 44.4447 32.0083 44.4822 35.6065C44.4822 36.6746 44.0885 37.4243 43.1888 37.9865C41.258 39.2233 39.3647 40.5164 37.4527 41.8095C36.478 42.4654 35.5595 42.4654 34.5847 41.8095C32.6915 40.5164 30.7795 39.2421 28.8487 38.0052C27.949 37.4243 27.5553 36.6934 27.5553 35.6252C27.5928 32.0271 27.5741 28.4102 27.5741 24.8121C27.5741 24.531 27.5741 24.2873 27.5741 24.0062ZM40.1895 67.746C40.1895 63.3045 40.1895 58.938 40.1895 54.5154C37.3778 55.1338 34.6035 55.115 31.8292 54.5341C31.8292 58.9943 31.8292 63.3607 31.8292 67.746C34.6222 67.746 37.3778 67.746 40.1895 67.746Z" fill="#7A43EE"/>
</g>
<defs>
<clipPath id="clip0_131_316">
<rect width="72" height="72" fill="white"/>
</clipPath>
</defs>
</svg>
