<svg width="72" height="72" viewBox="0 0 72 72" fill="none" xmlns="http://www.w3.org/2000/svg">
<g clip-path="url(#clip0_131_304)">
<path d="M72 5.62439C72 20.2478 72 34.8712 72 49.4946C71.9648 49.6001 71.9121 49.7055 71.8945 49.8286C71.3848 52.6408 69.2933 54.6796 66.4811 55.0311C65.4968 55.1542 64.4949 55.1366 63.4404 55.1717C63.4404 55.453 63.4404 55.7166 63.4404 55.9627C63.4404 59.1264 63.458 62.2901 63.4404 65.4538C63.4228 69.2503 60.7161 71.9922 56.9196 71.9922C40.1167 72.0098 23.3139 72.0098 6.52859 71.9746C5.5619 71.9746 4.50732 71.7285 3.62851 71.3067C1.11511 70.1291 0.00781165 68.0024 0.00781165 65.2781C0.00781165 52.1838 0.00781165 39.0895 0.00781165 25.9776C0.00781165 25.1516 -0.00976457 24.3431 0.00781165 23.517C0.0956927 20.1248 2.34545 17.6114 5.72008 17.2071C6.61647 17.1017 7.51286 17.1895 8.4444 17.1895C8.4444 16.7677 8.4444 16.5041 8.4444 16.258C8.4444 13.024 8.4444 9.78995 8.4444 6.55593C8.4444 4.3589 9.21775 2.47825 11.0633 1.24791C11.9596 0.667896 13.0669 0.404253 14.0688 0C31.5044 0 48.94 0 66.3756 0C66.4635 0.0351524 66.5338 0.0878811 66.6393 0.105457C68.2563 0.351524 69.5569 1.14245 70.6115 2.39037C71.3848 3.33948 71.7364 4.46436 72 5.62439ZM4.2261 46.6473C4.48975 46.3133 4.63036 46.1376 4.75339 45.9794C6.28252 43.9405 7.81165 41.8841 9.35836 39.8629C12.2233 36.084 17.3028 36.207 19.9744 40.1265C20.3259 40.6538 20.6774 41.1635 21.0817 41.7787C21.732 40.9702 22.3472 40.2144 22.9448 39.441C24.1048 37.9998 25.2473 36.541 26.4073 35.1173C29.2546 31.6372 34.0178 31.7602 36.6894 35.3809C38.8161 38.281 40.9077 41.2338 43.0168 44.1515C44.0187 45.5576 45.0381 46.9461 46.1102 48.4401C46.8484 47.6843 47.5163 46.9812 48.2018 46.2782C49.2739 45.206 50.5394 44.4854 52.0686 44.3096C54.248 44.046 56.0584 44.7842 57.6051 46.3133C58.0972 46.8055 58.6069 47.3152 59.2221 47.9128C59.2221 47.4909 59.2221 47.2624 59.2221 47.0164C59.2221 39.3356 59.2221 31.6548 59.2221 23.9564C59.2221 22.1285 58.4487 21.3727 56.6032 21.3727C40.0113 21.3727 23.4369 21.3727 6.84496 21.3727C4.99946 21.3727 4.24368 22.1285 4.24368 23.974C4.24368 31.2329 4.24368 38.4919 4.24368 45.7685C4.2261 45.9794 4.2261 46.2079 4.2261 46.6473ZM67.7817 42.429C67.7817 42.2005 67.7817 42.0423 67.7817 41.8841C67.7817 30.1256 67.7817 18.3671 67.7817 6.60866C67.7817 5.04437 66.938 4.21829 65.321 4.21829C48.5885 4.21829 31.8735 4.21829 15.1409 4.21829C13.4888 4.21829 12.6627 5.0268 12.6627 6.66139C12.6627 9.94814 12.6627 13.2173 12.6627 16.5041C12.6627 16.715 12.6803 16.9083 12.6978 17.1544C13.0142 17.1544 13.2954 17.1544 13.5767 17.1544C27.9188 17.1544 42.2435 17.1368 56.5857 17.1895C57.6578 17.1895 58.8178 17.3829 59.7669 17.8223C62.2628 18.9647 63.4052 21.0915 63.4052 23.8158C63.4228 29.739 63.4052 35.6621 63.4052 41.6029C63.4052 41.8841 63.4052 42.1478 63.4052 42.4466C64.8992 42.429 66.3053 42.429 67.7817 42.429ZM23.5599 45.4169C23.6127 45.5224 23.6303 45.5927 23.6654 45.663C26.6182 50.1098 29.571 54.5566 32.559 58.9682C32.6996 59.1791 33.0863 59.3197 33.3675 59.3197C38.2888 59.3373 43.2102 59.3373 48.1315 59.3373C48.3073 59.3373 48.483 59.3197 48.7467 59.2846C47.8503 58.0542 47.0242 56.8942 46.1981 55.7342C41.9447 49.8286 37.6912 43.9054 33.4378 37.9998C32.2777 36.4003 30.8189 36.3652 29.571 37.9119C28.9558 38.6853 28.3407 39.441 27.7255 40.2144C26.3194 41.9544 24.9309 43.6945 23.5599 45.4169ZM4.2261 59.2846C12.0651 59.2846 19.8162 59.2846 27.6025 59.2846C27.5497 59.1615 27.5322 59.0912 27.497 59.0385C23.806 53.4844 20.115 47.9303 16.3888 42.3938C15.4397 40.9702 13.8051 40.9526 12.7506 42.3411C9.9911 45.997 7.23164 49.688 4.48975 53.3614C4.34914 53.5372 4.2261 53.7657 4.2261 53.9766C4.2261 55.7342 4.2261 57.4742 4.2261 59.2846ZM59.2045 63.6083C40.8374 63.6083 22.5581 63.6083 4.24368 63.6083C4.24368 64.3817 4.20853 65.1023 4.26126 65.8229C4.34914 67.0533 5.28068 67.7739 6.72193 67.7739C23.4018 67.7739 40.0816 67.7739 56.7614 67.7739C56.9196 67.7739 57.0954 67.7739 57.2536 67.7563C58.3257 67.6684 59.1518 66.8775 59.2221 65.8054C59.2397 65.1023 59.2045 64.3641 59.2045 63.6083ZM48.5885 51.885C50.3461 54.3281 52.0686 56.7185 53.791 59.1088C53.8789 59.2143 54.0547 59.3373 54.1777 59.3373C55.8299 59.3549 57.482 59.3549 59.1869 59.3549C59.1869 57.5621 59.1869 55.8572 59.1694 54.1523C59.1694 53.9941 59.0639 53.8008 58.9409 53.6778C57.4117 52.1311 55.8826 50.5668 54.3183 49.0552C53.4571 48.2291 52.2619 48.2291 51.4007 49.0552C50.4867 49.934 49.5727 50.8832 48.5885 51.885ZM63.4755 46.7176C63.4755 48.1413 63.4755 49.4946 63.4755 50.9007C64.2665 50.9007 65.0222 50.9359 65.7604 50.9007C66.7799 50.848 67.6235 50.1274 67.729 49.1255C67.8169 48.3522 67.7466 47.5437 67.7466 46.7352C66.3229 46.7176 64.9344 46.7176 63.4755 46.7176ZM54.9862 31.936C54.9686 35.3809 52.1037 38.2458 48.6588 38.2458C45.1963 38.2458 42.2786 35.3106 42.3313 31.8657C42.3841 28.4032 45.2666 25.5558 48.6939 25.591C52.1564 25.6261 55.0038 28.5086 54.9862 31.936ZM48.6588 34.0276C49.8012 34.0276 50.7679 33.0784 50.7679 31.936C50.7679 30.7935 49.8188 29.8268 48.6764 29.8268C47.5339 29.8268 46.5672 30.776 46.5672 31.9184C46.5496 33.0609 47.5163 34.0276 48.6588 34.0276Z" fill="#7A43EE"/>
</g>
<defs>
<clipPath id="clip0_131_304">
<rect width="72" height="72" fill="white"/>
</clipPath>
</defs>
</svg>
