<svg width="72" height="72" viewBox="0 0 72 72" fill="none" xmlns="http://www.w3.org/2000/svg">
<g clip-path="url(#clip0_131_296)">
<path d="M52.2989 72C41.4267 72 30.5545 72 19.6824 72C19.6261 71.9625 19.5699 71.9062 19.5137 71.8875C18.4077 71.3812 17.9016 70.5 18.1265 69.4312C18.3327 68.4375 19.195 67.8 20.3572 67.7812C21.2945 67.7812 22.2317 67.7812 23.169 67.7812C23.7126 67.7812 24.2749 67.7812 24.8185 67.7812C24.8185 64.6125 24.8185 61.575 24.8185 58.4625C24.4999 58.4625 24.2374 58.4625 23.9563 58.4625C18.2952 58.4625 12.6155 58.4625 6.95444 58.4625C4.01146 58.4625 1.83702 57.15 0.562354 54.4688C0.299922 53.925 0.187451 53.325 0 52.7437C0 40.0875 0 27.4313 0 14.775C0.0374902 14.6625 0.0937256 14.5687 0.131216 14.4562C0.73106 11.5125 2.90549 9.4125 5.88597 9.13125C7.79797 8.94375 9.72872 9.05625 11.6407 9.0375C12.1468 9.0375 12.653 9.0375 13.1966 9.0375C13.309 6.825 13.4402 4.725 13.4965 2.625C13.534 1.36875 13.9651 0.45 15.1835 0C26.0557 0 36.9279 0 47.8001 0C48.9248 0.46875 49.4496 1.29375 49.4309 2.5125C49.4121 3.05625 49.4684 3.58125 49.5059 4.125C49.5808 5.7375 49.6746 7.35 49.7683 9.01875C50.1057 9.01875 50.3869 9.01875 50.6681 9.01875C55.4855 9.01875 60.3218 9 65.1393 9.01875C68.2322 9.01875 70.7253 10.7813 71.6438 13.5563C71.7751 13.95 71.8875 14.3625 72 14.7562C72 27.4125 72 40.0688 72 52.725C71.9813 52.7625 71.925 52.8 71.925 52.8375C70.969 56.6437 68.6446 58.4438 64.7082 58.4438C59.1596 58.4438 53.611 58.4438 48.0437 58.4438C47.7626 58.4438 47.5001 58.4438 47.1815 58.4438C47.1815 61.5938 47.1815 64.65 47.1815 67.7625C47.4439 67.7625 47.6876 67.7625 47.9125 67.7625C49.2059 67.7625 50.4994 67.7438 51.774 67.7625C52.8237 67.7812 53.6673 68.4375 53.8735 69.3938C54.0984 70.4062 53.611 71.3438 52.6175 71.8125C52.5051 71.8875 52.3926 71.9437 52.2989 72ZM12.9716 13.275C12.653 13.2563 12.428 13.2375 12.2031 13.2375C10.4785 13.2375 8.73523 13.2375 7.01067 13.2375C5.15491 13.2375 4.21765 14.175 4.21765 16.0687C4.21765 27.8625 4.21765 39.6375 4.21765 51.4312C4.21765 53.2875 5.15491 54.225 7.02942 54.225C26.3369 54.225 45.6444 54.225 64.9518 54.225C66.8263 54.225 67.7636 53.2875 67.7636 51.4312C67.7636 39.6375 67.7636 27.8625 67.7636 16.0687C67.7636 14.1562 66.8263 13.2375 64.8956 13.2375C60.1906 13.2375 55.4855 13.2375 50.7618 13.2375C50.5181 13.2375 50.2557 13.2375 49.937 13.2375C50.012 14.8875 50.1057 16.4438 50.1807 18.075C50.4806 18.075 50.743 18.075 50.9867 18.075C53.4236 18.075 55.8605 18.0562 58.2973 18.075C59.7594 18.075 60.5467 18.7875 60.678 20.1937C61.0341 24.2812 61.3528 28.3688 61.6902 32.4563C62.0838 37.2188 62.4775 41.9813 62.8899 46.7438C63.0398 48.4125 62.215 49.3875 60.528 49.3875C44.8946 49.3875 29.2799 49.3875 13.6464 49.3875C12.0344 49.3875 11.1908 48.45 11.2846 46.8562C11.5095 42.5812 11.7157 38.2875 11.9406 34.0125C12.2031 28.8187 12.4655 23.625 12.7279 18.4313C12.8217 16.725 12.8966 15.0375 12.9716 13.275ZM17.6579 4.25625C16.9831 17.8875 16.2895 31.4812 15.6147 45.1312C19.5324 45.1312 23.3752 45.1312 27.2367 45.1312C27.2929 44.6625 27.3491 44.25 27.3866 43.8375C27.9677 36.7875 28.5488 29.7375 29.1487 22.6875C29.1861 22.1812 29.1112 21.975 28.6051 21.7875C25.8308 20.7937 23.975 18.8813 23.019 16.0875C22.4754 14.5125 22.6254 12.9 22.6066 11.2875C22.6066 9.975 23.5064 9.0375 24.7061 9.0375C25.887 9.0375 26.7868 9.99375 26.8243 11.3062C26.843 12.0562 26.8055 12.8063 26.843 13.5563C26.9367 16.125 28.9987 18.1125 31.5293 18.0938C34.0786 18.0562 36.1031 16.05 36.1406 13.4813C36.1593 12.6938 36.1218 11.8875 36.1593 11.1C36.2156 9.95625 37.1716 9.05625 38.2775 9.075C39.3647 9.09375 40.3208 9.95625 40.3582 11.0625C40.452 13.4438 40.452 15.8062 39.1773 17.9437C39.1586 17.9625 39.196 18.0188 39.2148 18.075C41.4455 18.075 43.6949 18.075 45.9818 18.075C45.7568 13.4625 45.5131 8.8875 45.2882 4.29375C36.0469 4.25625 26.8992 4.25625 17.6579 4.25625ZM56.6478 22.35C56.4041 22.3312 56.2354 22.2938 56.0479 22.2938C48.7186 22.2938 41.3892 22.2938 34.0599 22.275C33.5913 22.275 33.3851 22.3875 33.3476 22.875C33.2726 24.1688 33.1601 25.4438 33.0476 26.7188C32.6915 30.9937 32.3353 35.2687 31.9792 39.525C31.8292 41.3625 31.6792 43.2 31.5293 45.075C40.5457 45.075 49.5246 45.075 58.5597 45.075C57.9037 37.5 57.2663 29.9437 56.6478 22.35ZM42.8701 58.5C38.24 58.5 33.685 58.5 29.1112 58.5C29.1112 61.6125 29.1112 64.6688 29.1112 67.725C33.7225 67.725 38.2963 67.725 42.8701 67.725C42.8701 64.6313 42.8701 61.5938 42.8701 58.5ZM51.6428 29.3625C51.6053 28.0313 50.7618 27.1313 49.5621 27.1125C48.3624 27.1125 47.4814 28.0125 47.4439 29.3438C47.4252 30.0375 47.4626 30.75 47.4251 31.4437C47.3877 32.85 46.3754 33.8625 45.0445 33.8812C43.6949 33.8812 42.6451 32.8125 42.6264 31.4062C42.6077 30.675 42.6451 29.9625 42.6264 29.2312C42.5889 28.0125 41.7079 27.1312 40.5457 27.1312C39.3835 27.1312 38.465 28.0125 38.4275 29.2125C38.39 30.075 38.39 30.9375 38.4462 31.8187C38.5775 34.5375 40.3395 36.8625 42.8888 37.7438C45.4757 38.6437 48.2312 37.9125 50.0495 35.85C51.3616 34.35 51.8115 32.5875 51.699 30.6375C51.6428 30.2062 51.6428 29.7938 51.6428 29.3625Z" fill="#7A43EE"/>
</g>
<defs>
<clipPath id="clip0_131_296">
<rect width="72" height="72" fill="white"/>
</clipPath>
</defs>
</svg>
