<svg width="72" height="72" viewBox="0 0 72 72" fill="none" xmlns="http://www.w3.org/2000/svg">
<path d="M72 17.2164C72 26.7958 72 36.3566 72 45.936C71.5126 47.1684 70.5941 47.5793 69.3007 47.5793C58.2973 47.5419 47.2752 47.5606 36.2718 47.5606C36.0656 47.5606 35.8407 47.5419 35.6345 47.5793C35.5033 47.5979 35.2971 47.71 35.2596 47.8033C35.0909 48.3635 34.9596 48.9424 34.8284 49.54C40.4332 50.1188 43.7511 52.7331 44.7633 57.2707C45.6631 61.3228 43.8073 65.5243 40.2083 67.6531C38.315 68.7735 36.2531 69.1843 34.0599 68.9229C31.4543 68.6054 29.3549 67.3543 27.649 65.3936C23.7126 69.8565 18.3515 69.5951 15.1461 67.7278C11.4908 65.599 9.57876 61.3789 10.4598 57.3267C10.9097 55.2913 11.8844 53.5361 13.459 52.1356C15.8021 50.0628 18.5577 49.2972 21.6694 49.7454C21.8381 49.0171 22.0068 48.3449 22.1755 47.5793C21.8006 47.5793 21.5381 47.5793 21.257 47.5793C15.0711 47.5793 8.88519 47.5606 2.6993 47.5979C1.40588 47.5979 0.468628 47.2058 0 45.9547C0 36.3753 0 26.8145 0 17.2351C0.581099 16.04 1.5371 15.6665 2.84926 15.6852C6.41083 15.7412 9.9724 15.7039 13.534 15.7039C13.7777 15.7039 14.0401 15.7039 14.2088 15.7039C14.2088 14.3221 14.0776 13.0149 14.2275 11.7265C14.7337 7.67435 18.1078 4.01438 22.0443 3.08071C23.3752 2.76326 24.4249 3.39816 24.7623 4.70529C24.9123 5.26549 25.0435 5.82569 25.1934 6.40456C25.962 9.46699 26.7305 12.5481 27.4991 15.6479C28.3614 15.6479 29.2049 15.6479 30.0484 15.6479C30.1047 15.4051 30.1796 15.1997 30.2359 14.9756C31.0607 11.6144 31.9042 8.23455 32.7477 4.87335C33.1414 3.30479 34.1911 2.72592 35.7657 3.17408C37.509 3.67826 39.0461 4.5559 40.302 5.84436C42.9826 8.58934 43.9011 11.8758 43.2262 15.6852C43.5262 15.6852 43.7886 15.6852 44.0698 15.6852C52.4301 15.6852 60.7904 15.7039 69.1507 15.6665C70.4629 15.6665 71.4189 16.0213 72 17.2164ZM67.7261 43.3217C67.7261 35.4789 67.7261 27.6922 67.7261 19.9054C67.5762 19.8867 67.4824 19.8867 67.3887 19.8867C59.1596 19.8867 50.9492 19.8867 42.7201 19.868C42.214 19.868 42.1203 20.0921 42.0078 20.5029C40.2083 27.8415 38.3713 35.1615 36.553 42.5001C36.4967 42.7615 36.4405 43.023 36.3843 43.3404C46.8815 43.3217 57.2851 43.3217 67.7261 43.3217ZM4.27389 43.3591C4.59255 43.3591 4.83624 43.3591 5.09867 43.3591C6.99193 43.3591 8.88519 43.3591 10.7972 43.3591C14.7337 43.3591 18.6701 43.3591 22.6066 43.3404C22.8503 43.3404 23.2627 43.2284 23.3002 43.0977C23.6563 41.8839 23.9375 40.6328 24.2374 39.3443C22.5129 39.3443 20.8633 39.3443 19.2325 39.3443C17.8641 39.3443 16.9081 38.4853 16.9081 37.2716C16.8894 36.0205 17.8641 35.1615 19.27 35.1615C20.9383 35.1615 22.5879 35.1615 24.2562 35.1615C24.5936 35.1615 24.9498 35.1615 25.2872 35.1615C26.5431 30.045 27.7803 25.0032 29.0362 19.9427C20.7321 19.9427 12.5217 19.9427 4.27389 19.9427C4.27389 27.7295 4.27389 35.4976 4.27389 43.3591ZM36.328 8.06649C36.2718 8.29057 36.1968 8.51465 36.1406 8.72006C33.685 18.6916 31.2106 28.6632 28.755 38.6534C27.7615 42.6868 26.768 46.7016 25.7933 50.7351C25.737 50.9778 25.737 51.3699 25.887 51.538C26.4494 52.1169 27.068 52.6397 27.649 53.1626C28.2864 52.5837 28.9612 52.0422 29.5798 51.4446C29.8797 51.1645 30.1609 50.7911 30.2734 50.3989C30.7045 48.8304 31.0794 47.2431 31.4731 45.6559C34.0036 35.4603 36.5342 25.2646 39.0648 15.0503C39.7022 12.2493 38.5775 9.35495 36.328 8.06649ZM35.1471 64.7774C38.1276 64.8708 40.6957 62.4246 40.7706 59.4182C40.8456 56.4304 38.4087 53.8908 35.3908 53.7975C32.3541 53.7228 29.8235 56.1316 29.7298 59.2127C29.6548 62.1631 32.0916 64.6654 35.1471 64.7774ZM25.5121 59.2874C25.5121 56.2624 23.0752 53.7975 20.0385 53.7788C17.0206 53.7601 14.5087 56.225 14.49 59.2314C14.4712 62.2752 16.9456 64.7774 20.001 64.7774C23.0378 64.7774 25.4934 62.3125 25.5121 59.2874ZM21.257 8.02914C18.8576 9.46699 17.6766 12.8095 18.6139 15.3491C18.6701 15.4798 18.8576 15.6665 18.9701 15.6665C20.3385 15.6852 21.7068 15.6852 23.1502 15.6852C22.5129 13.0896 21.8943 10.5874 21.257 8.02914ZM57.2851 25.3206C60.7529 25.3393 63.5647 28.159 63.5647 31.6322C63.5647 35.1055 60.6779 37.9625 57.1914 37.9251C53.7048 37.8878 50.8743 35.0121 50.9117 31.5389C50.9492 28.0843 53.7985 25.302 57.2851 25.3206ZM57.2476 29.5221C56.1041 29.5221 55.1481 30.4558 55.1294 31.5949C55.1106 32.7526 56.1229 33.7423 57.2663 33.7236C58.391 33.705 59.347 32.734 59.347 31.6136C59.347 30.4745 58.391 29.5408 57.2476 29.5221ZM10.6097 23.9015C9.41005 23.9201 8.52903 24.7418 8.45405 25.8622C8.37907 26.9826 9.2226 28.0283 10.4223 28.0656C12.3155 28.1403 14.2088 28.1403 16.1021 28.0656C17.283 28.0283 18.1265 27.0386 18.089 25.9369C18.0515 24.7791 17.1518 23.9201 15.9334 23.9015C15.0523 23.8828 14.1526 23.9015 13.2715 23.9015C12.3905 23.9015 11.4908 23.8828 10.6097 23.9015ZM12.6717 37.2529C12.6717 36.1138 11.7344 35.1615 10.591 35.1428C9.42879 35.1241 8.4353 36.1138 8.45405 37.2716C8.47279 38.4107 9.42879 39.3443 10.5722 39.3443C11.7157 39.3443 12.6717 38.392 12.6717 37.2529Z" fill="#7A43EE"/>
</svg>
