<svg width="411" height="345" viewBox="0 0 411 345" fill="none" xmlns="http://www.w3.org/2000/svg">
<path d="M65.111 147.999L26.6046 156.259L3.80615 112.473L40.8273 99.3361L65.111 147.999Z" fill="url(#paint0_linear_131_322)"/>
<path d="M61.6084 83.6284L40.8213 99.3388L65.105 148.002L82.3156 125.124L61.6084 83.6284Z" fill="url(#paint1_linear_131_322)"/>
<path d="M3.80547 112.473L25.2852 92.2296L61.6137 83.6259L43.1155 103.923L3.80547 112.473Z" fill="white"/>
<path d="M411 202.895L395.464 280.217L342.462 289.29L357.999 212.036L411 202.895Z" fill="url(#paint2_linear_131_322)"/>
<path d="M357.998 212.036L342.462 289.29L244.365 249.907L259.901 172.653L357.998 212.036Z" fill="#7A43EE"/>
<path d="M411 202.895L357.998 212.036L259.901 172.653L312.902 163.581L411 202.895Z" fill="url(#paint3_linear_131_322)"/>
<path d="M395.326 205.644L379.378 208.256L281.28 168.873L297.16 166.055L395.326 205.644Z" fill="#B565E5"/>
<path d="M395.326 205.644L390.445 233.618L373.328 236.436L379.378 208.256L395.326 205.644Z" fill="#B565E5"/>
<g filter="url(#filter0_i_131_322)">
<path fill-rule="evenodd" clip-rule="evenodd" d="M143.369 260.658L221.461 18.7243C222.45 15.5446 224.075 12.6477 225.984 10.104C227.962 7.63093 230.365 5.44053 232.98 3.81539C235.595 2.19026 238.492 0.989072 241.461 0.423807C244.429 -0.141458 247.468 -0.141458 250.506 0.494465L350.011 22.6104C353.333 23.3877 356.301 24.7302 358.775 26.638C361.319 28.5457 363.368 30.8774 364.852 33.6331C366.336 36.3888 367.326 39.4271 367.608 42.6773C367.891 45.9276 367.538 49.3899 366.478 52.7814L284.57 312.944C283.439 316.407 281.743 319.516 279.552 322.13C277.432 324.744 274.817 326.793 271.92 328.277C269.022 329.761 265.913 330.609 262.662 330.821C259.411 331.033 256.16 330.609 252.909 329.337L156.655 292.383C153.758 291.252 151.214 289.557 149.093 287.366C146.973 285.176 145.277 282.632 144.076 279.735C142.874 276.838 142.168 273.729 142.026 270.479C141.885 267.229 142.309 263.908 143.369 260.658ZM151.122 258.81L226.952 23.6597C227.729 21.1866 229.001 18.9256 230.485 16.8765C232.04 14.9687 233.878 13.2729 235.927 12.0011C237.977 10.7292 240.238 9.81068 242.57 9.38673C244.902 8.89213 247.305 8.89213 249.637 9.45739L340.45 30.0896C342.994 30.7255 345.326 31.7853 347.234 33.2692C349.142 34.753 350.768 36.5901 351.898 38.7098C353.029 40.8296 353.806 43.1613 354.018 45.705C354.301 48.2487 354.018 50.863 353.17 53.548L274.231 304.031C273.383 306.787 272.04 309.189 270.344 311.167C268.648 313.216 266.598 314.842 264.407 315.972C262.217 317.173 259.743 317.88 257.27 318.021C254.796 318.163 252.181 317.809 249.708 316.891L161.581 283.54C159.32 282.692 157.341 281.35 155.645 279.654C153.949 277.958 152.606 275.98 151.687 273.719C150.698 271.458 150.203 269.055 150.062 266.511C149.991 263.968 150.274 261.353 151.122 258.81Z" fill="white"/>
</g>
<path d="M226.952 23.6597L151.122 258.81C150.274 261.353 149.991 263.968 150.062 266.511C150.203 269.055 150.698 271.458 151.687 273.719C152.606 275.98 153.949 277.958 155.645 279.654C157.341 281.35 159.32 282.692 161.581 283.54L249.708 316.891C252.181 317.809 254.796 318.163 257.27 318.021C259.743 317.88 262.217 317.173 264.407 315.972C266.598 314.842 268.648 313.216 270.344 311.167C272.04 309.189 273.383 306.787 274.231 304.031L353.17 53.548C354.018 50.863 354.301 48.2487 354.018 45.705C353.806 43.1613 353.029 40.8296 351.898 38.7098C350.768 36.5901 349.142 34.753 347.234 33.2692C345.326 31.7853 342.994 30.7255 340.45 30.0896L249.637 9.45739C247.305 8.89213 244.902 8.89213 242.57 9.38673C240.238 9.81068 237.977 10.7292 235.927 12.0011C233.878 13.2729 232.04 14.9687 230.485 16.8765C229.001 18.9256 227.729 21.1866 226.952 23.6597Z" fill="url(#paint4_linear_131_322)"/>
<path d="M162.5 247.222C161.934 249.059 161.652 250.896 161.793 252.733C161.864 254.499 162.288 256.266 162.924 257.891C163.63 259.516 164.549 260.929 165.75 262.13C166.952 263.332 168.365 264.25 169.991 264.886L254.231 295.764C255.997 296.4 257.835 296.682 259.602 296.541C261.368 296.4 263.135 295.905 264.69 295.057C266.245 294.209 267.729 293.079 268.86 291.595C270.061 290.182 270.98 288.415 271.616 286.508C272.252 284.6 272.464 282.621 272.322 280.714C272.181 278.806 271.686 276.969 270.909 275.273C270.132 273.577 269.072 272.093 267.729 270.821C266.386 269.55 264.831 268.56 262.994 267.924L178.542 238.177C176.916 237.612 175.22 237.4 173.595 237.612C171.969 237.753 170.344 238.319 168.931 239.096C167.447 239.944 166.174 241.004 165.044 242.417C163.984 243.759 163.065 245.384 162.5 247.222Z" fill="url(#paint5_linear_131_322)"/>
<path d="M171.546 218.535C171.334 219.241 171.192 220.018 171.263 220.725C171.263 221.431 171.475 222.138 171.758 222.774C172.04 223.41 172.394 223.975 172.888 224.399C173.383 224.894 173.949 225.247 174.585 225.459L243.56 249.341C244.266 249.553 244.973 249.695 245.68 249.624C246.386 249.553 247.022 249.341 247.658 248.988C248.294 248.635 248.86 248.211 249.284 247.646C249.779 247.08 250.132 246.374 250.344 245.667C250.556 244.89 250.697 244.113 250.627 243.406C250.556 242.629 250.415 241.922 250.061 241.286C249.779 240.65 249.355 240.015 248.789 239.591C248.294 239.096 247.658 238.743 246.952 238.46L177.906 214.931C177.27 214.719 176.563 214.648 175.927 214.719C175.291 214.79 174.655 215.002 174.09 215.355C173.524 215.708 172.959 216.132 172.535 216.697C172.111 217.192 171.758 217.828 171.546 218.535ZM177.27 200.729C177.058 201.435 176.917 202.213 176.987 202.919C177.058 203.626 177.199 204.332 177.482 204.968C177.765 205.604 178.118 206.169 178.613 206.593C179.108 207.017 179.673 207.441 180.309 207.653L279.955 241.145C280.662 241.357 281.439 241.498 282.146 241.428C282.853 241.357 283.559 241.145 284.195 240.792C284.831 240.439 285.397 239.944 285.892 239.379C286.386 238.813 286.74 238.107 287.022 237.33C287.234 236.552 287.376 235.775 287.305 234.998C287.234 234.221 287.022 233.514 286.74 232.878C286.457 232.242 285.962 231.606 285.467 231.112C284.902 230.617 284.266 230.264 283.559 229.981L183.772 196.984C183.136 196.772 182.429 196.701 181.793 196.772C181.157 196.842 180.521 197.054 179.956 197.408C179.39 197.761 178.825 198.185 178.401 198.75C177.835 199.386 177.482 200.022 177.27 200.729ZM182.994 182.993C182.782 183.7 182.641 184.477 182.712 185.184C182.782 185.89 182.924 186.597 183.206 187.162C183.489 187.798 183.842 188.364 184.337 188.787C184.832 189.211 185.397 189.565 186.033 189.777L285.892 222.35C286.598 222.562 287.376 222.633 288.082 222.562C288.789 222.491 289.496 222.279 290.132 221.926C290.768 221.573 291.333 221.078 291.828 220.513C292.323 219.948 292.676 219.241 292.959 218.464C293.171 217.687 293.312 216.909 293.241 216.203C293.171 215.426 292.959 214.719 292.676 214.083C292.323 213.447 291.899 212.811 291.404 212.387C290.838 211.893 290.202 211.539 289.496 211.327L189.567 179.319C188.931 179.107 188.224 179.037 187.588 179.107C186.952 179.178 186.316 179.39 185.751 179.743C185.185 180.097 184.62 180.52 184.196 181.086C183.56 181.651 183.206 182.287 182.994 182.993ZM233.878 25.5673C234.019 25.0727 234.302 24.6488 234.584 24.2248C234.867 23.8715 235.291 23.5182 235.644 23.2356C236.068 22.953 236.492 22.8116 236.916 22.741C237.34 22.6703 237.835 22.6703 238.33 22.741L342.994 47.33C343.488 47.4713 343.983 47.6833 344.337 47.9659C344.69 48.2486 345.043 48.6018 345.255 49.0258C345.467 49.4497 345.609 49.9443 345.679 50.439C345.75 50.9336 345.679 51.4282 345.538 51.9934L345.467 52.2761C345.326 52.7707 345.043 53.2653 344.69 53.6892C344.337 54.1132 343.983 54.4665 343.488 54.6784C343.064 54.9611 342.57 55.1024 342.075 55.173C341.58 55.2437 341.086 55.2437 340.52 55.1024L235.927 30.1601C235.432 30.0188 235.079 29.8774 234.726 29.5948C234.372 29.3122 234.09 28.9589 233.948 28.6056C233.736 28.1817 233.666 27.7577 233.595 27.3338C233.595 26.8391 233.595 26.3445 233.807 25.8499L233.878 25.5673ZM229.849 38.0738C229.991 37.5792 230.273 37.1552 230.556 36.7313C230.839 36.378 231.263 36.0247 231.616 35.7421C232.04 35.4594 232.464 35.3181 232.888 35.2475C233.312 35.1768 233.807 35.1768 234.302 35.2475L281.722 46.6941C282.217 46.8354 282.641 47.0474 282.994 47.33C283.347 47.6126 283.63 47.9659 283.842 48.3899C284.054 48.8138 284.195 49.2378 284.195 49.7324C284.266 50.227 284.195 50.7216 283.983 51.2162L283.913 51.4988C283.771 51.9934 283.489 52.488 283.206 52.8413C282.923 53.2653 282.499 53.5479 282.075 53.8305C281.651 54.1132 281.157 54.2545 280.733 54.3251C280.238 54.3958 279.743 54.3958 279.248 54.2545L231.899 42.7372C231.404 42.5959 231.051 42.3839 230.697 42.172C230.344 41.8893 230.061 41.536 229.92 41.1121C229.708 40.6881 229.637 40.2642 229.567 39.7696C229.567 39.275 229.567 38.7804 229.779 38.2858L229.849 38.0738Z" fill="#E8F0FF"/>
<g filter="url(#filter1_i_131_322)">
<path d="M123.484 55.474L114.356 85.3622C113.215 89.0126 112.835 92.6631 113.063 96.1615C113.291 99.6598 114.128 103.006 115.573 106.048C117.019 109.09 118.92 111.828 121.354 114.034C123.788 116.239 126.679 117.912 130.026 118.977L255.305 157.231C259.033 158.371 262.836 158.676 266.487 158.219C270.138 157.763 273.713 156.546 276.984 154.721C280.255 152.896 283.145 150.386 285.579 147.42C288.013 144.378 289.915 140.88 291.056 136.925L300.716 104.451C301.857 100.496 302.238 96.5417 301.857 92.7392C301.477 88.9366 300.336 85.3622 298.663 82.092C296.913 78.8978 294.555 76.0079 291.741 73.7263C288.926 71.4448 285.579 69.6956 281.776 68.7069L155.508 35.5486C152.161 34.6359 148.814 34.5599 145.543 35.1683C142.272 35.7767 139.078 36.9935 136.263 38.8188C133.373 40.644 130.786 43.0016 128.657 45.8155C126.299 48.5533 124.625 51.8235 123.484 55.474Z" fill="white"/>
</g>
<path d="M160.234 72.16C159.93 73.0726 159.474 73.9092 158.941 74.6697C158.409 75.3542 157.724 75.9626 156.964 76.4189C156.203 76.8752 155.442 77.1794 154.606 77.3315C153.769 77.4836 152.932 77.4076 152.096 77.1794C151.259 76.9512 150.498 76.4949 149.89 75.9626C149.281 75.4302 148.749 74.7458 148.368 73.9852C147.988 73.2247 147.76 72.3882 147.684 71.4756C147.608 70.5629 147.684 69.6503 147.988 68.7377C148.292 67.8251 148.749 66.9885 149.281 66.228C149.814 65.5435 150.498 64.9351 151.259 64.4788C152.019 64.0225 152.78 63.7183 153.617 63.5662C154.454 63.4141 155.29 63.4902 156.127 63.7183C156.964 63.9465 157.724 64.4028 158.333 64.9351C158.941 65.4675 159.474 66.152 159.854 66.9125C160.234 67.673 160.463 68.5095 160.539 69.4222C160.615 70.2587 160.539 71.1714 160.234 72.16ZM140.458 66.5322C140.153 67.4448 140.001 68.3574 139.773 69.2701C139.621 70.1827 139.545 71.0953 139.469 72.0079C139.393 72.9205 139.393 73.8331 139.469 74.7458C139.545 75.6584 139.621 76.571 139.697 77.4836C139.849 78.6244 140.077 79.7652 140.305 80.9059C140.534 82.0467 140.838 83.1875 141.142 84.2522C141.446 85.3169 141.827 86.4577 142.207 87.5224C142.587 88.5871 143.044 89.6518 143.5 90.7165C143.728 91.1728 143.88 91.6292 144.109 92.0855C144.337 92.5418 144.565 92.9981 144.793 93.4544C145.021 93.9107 145.25 94.367 145.478 94.8233C145.706 95.2796 145.934 95.7359 146.162 96.1922C146.923 95.812 147.836 95.3557 148.825 94.8233C149.814 94.291 150.802 93.6065 151.867 92.922C152.932 92.2376 153.921 91.4771 154.91 90.7926C155.899 90.0321 156.812 89.3476 157.648 88.6632C158.409 88.0547 159.094 87.3703 159.778 86.6858C160.463 86.0014 161.147 85.3169 161.832 84.6324C162.516 83.948 163.125 83.1875 163.734 82.4269C164.342 81.6664 164.874 80.8299 165.407 79.9933C165.711 79.537 165.939 79.0807 166.168 78.6244C166.396 78.1681 166.624 77.7118 166.852 77.2555C167.08 76.7991 167.309 76.3428 167.461 75.8105C167.613 75.2781 167.841 74.8218 167.993 74.3655C168.069 74.1373 168.145 73.8331 168.221 73.605C168.297 73.3008 168.373 73.0726 168.373 72.7684C168.373 72.4642 168.45 72.2361 168.526 71.9319C168.602 71.6277 168.602 71.3995 168.602 71.0953C168.83 68.9659 168.678 66.9125 168.145 65.0872C167.613 63.186 166.776 61.5128 165.711 60.0679C164.646 58.6229 163.201 57.4061 161.68 56.4934C160.082 55.5808 158.333 55.0485 156.355 54.8203C154.682 54.6682 153.008 54.8203 151.411 55.3527C149.814 55.809 148.216 56.5695 146.847 57.5582C145.478 58.5468 144.185 59.7636 143.12 61.2086C142.055 62.6536 141.218 64.2507 140.61 65.9999C140.61 66.0759 140.61 66.0759 140.61 66.152C140.61 66.228 140.61 66.228 140.61 66.3041C140.61 66.3801 140.61 66.3801 140.61 66.4562C140.458 66.4562 140.458 66.4562 140.458 66.5322Z" fill="url(#paint6_linear_131_322)"/>
<path d="M177.425 90.2603L177.349 90.5645C177.197 91.0968 177.121 91.6292 177.197 92.1615C177.273 92.6939 177.349 93.2263 177.577 93.6826C177.805 94.1389 178.11 94.5191 178.49 94.8994C178.87 95.2036 179.327 95.5078 179.859 95.6599L244.743 114.445C245.275 114.597 245.808 114.597 246.34 114.597C246.873 114.521 247.405 114.369 247.862 114.064C248.318 113.76 248.774 113.456 249.079 113C249.459 112.543 249.687 112.087 249.839 111.479L249.915 111.174C250.067 110.642 250.144 110.034 250.067 109.501C249.991 108.969 249.839 108.437 249.611 107.98C249.383 107.524 249.003 107.068 248.622 106.763C248.242 106.459 247.709 106.155 247.177 106.003L182.217 87.4464C181.685 87.2943 181.228 87.2943 180.696 87.3703C180.163 87.4464 179.707 87.5985 179.251 87.9027C178.794 88.1308 178.414 88.5111 178.11 88.9674C177.881 89.1955 177.577 89.7279 177.425 90.2603ZM181.685 76.3429L181.609 76.6471C181.456 77.1794 181.38 77.7118 181.456 78.2442C181.533 78.7765 181.609 79.3089 181.837 79.6891C182.065 80.1454 182.369 80.5257 182.75 80.8299C183.13 81.1341 183.586 81.4383 184.119 81.5144L271.898 106.307C272.431 106.459 273.039 106.459 273.572 106.383C274.104 106.307 274.637 106.155 275.093 105.851C275.549 105.547 276.006 105.242 276.31 104.786C276.69 104.33 276.919 103.797 277.071 103.265L277.147 102.961C277.299 102.352 277.375 101.82 277.299 101.288C277.223 100.755 277.071 100.223 276.842 99.7667C276.614 99.3104 276.234 98.8541 275.854 98.5499C275.473 98.2457 274.941 97.9414 274.408 97.7893L186.629 73.3008C186.096 73.1487 185.64 73.1487 185.108 73.2248C184.575 73.3008 184.119 73.4529 183.662 73.7571C183.206 73.9853 182.826 74.3655 182.521 74.8218C182.065 75.2781 181.837 75.8105 181.685 76.3429Z" fill="#E8F0FF"/>
<path d="M85.9495 188.014L149.455 189.409C158.192 189.629 165.386 196.456 166.047 205.191L174.49 320.213C175.224 330.637 162.156 343.556 140.792 343.556L67.0814 330.637C57.2436 329.756 50.269 320.801 51.7374 311.111L55.1145 202.842C56.5094 194.4 70.3118 187.647 85.9495 188.014Z" fill="#FB7354"/>
<path d="M69.3575 193.519L132.863 194.914C141.6 195.134 148.794 201.961 149.455 210.696L157.898 325.792C158.632 336.215 149.896 344.877 139.47 343.996L50.5629 336.142C40.725 335.261 33.7505 326.306 35.2188 316.617L52.178 207.833C53.4995 199.465 60.8412 193.299 69.3575 193.519Z" fill="url(#paint7_linear_131_322)"/>
<path d="M76.5526 219.284C76.5526 223.762 72.8818 227.432 68.2565 227.432C63.6313 227.432 59.9604 223.762 59.9604 219.284C59.9604 214.807 63.6313 211.136 68.2565 211.136C72.8818 211.136 76.5526 214.733 76.5526 219.284ZM116.565 212.458C112.013 212.458 108.269 216.348 108.269 221.046C108.269 225.817 111.939 229.634 116.565 229.634C121.19 229.634 124.861 225.744 124.861 221.046C124.861 216.348 121.117 212.458 116.565 212.458Z" fill="#FB7354"/>
<g filter="url(#filter2_i_131_322)">
<path d="M87.6386 269.272C86.0968 269.272 84.5551 269.198 82.9399 269.051C72.6616 267.95 64.6591 261.858 60.6212 251.802C55.8491 240.057 57.3175 225.156 61.8693 219.651C63.8516 217.229 66.6414 216.128 69.4312 216.715C72.4413 217.302 74.3501 220.238 73.7628 223.174C73.3223 225.23 71.854 226.771 69.9451 227.358C68.5502 230.515 67.5958 240.057 70.8996 247.911C73.4691 254.004 77.8741 257.38 84.0411 258.041C91.3094 258.775 96.8891 257.38 101.074 253.563C107.094 248.132 110.398 237.561 110.324 223.762V223.468C110.324 220.385 112.82 217.963 115.831 217.963C118.841 217.963 121.337 220.459 121.337 223.468V223.762C121.337 245.489 114.362 256.426 108.415 261.711C102.983 266.776 95.9346 269.272 87.6386 269.272Z" fill="white"/>
</g>
<defs>
<filter id="filter0_i_131_322" x="138" y="-2.9917" width="229.702" height="333.865" filterUnits="userSpaceOnUse" color-interpolation-filters="sRGB">
<feFlood flood-opacity="0" result="BackgroundImageFix"/>
<feBlend mode="normal" in="SourceGraphic" in2="BackgroundImageFix" result="shape"/>
<feColorMatrix in="SourceAlpha" type="matrix" values="0 0 0 0 0 0 0 0 0 0 0 0 0 0 0 0 0 0 127 0" result="hardAlpha"/>
<feOffset dx="-4" dy="-3"/>
<feGaussianBlur stdDeviation="3"/>
<feComposite in2="hardAlpha" operator="arithmetic" k2="-1" k3="1"/>
<feColorMatrix type="matrix" values="0 0 0 0 0.803922 0 0 0 0 0.847059 0 0 0 0 0.968627 0 0 0 1 0"/>
<feBlend mode="normal" in2="shape" result="effect1_innerShadow_131_322"/>
</filter>
<filter id="filter1_i_131_322" x="108" y="24.7751" width="194" height="133.647" filterUnits="userSpaceOnUse" color-interpolation-filters="sRGB">
<feFlood flood-opacity="0" result="BackgroundImageFix"/>
<feBlend mode="normal" in="SourceGraphic" in2="BackgroundImageFix" result="shape"/>
<feColorMatrix in="SourceAlpha" type="matrix" values="0 0 0 0 0 0 0 0 0 0 0 0 0 0 0 0 0 0 127 0" result="hardAlpha"/>
<feOffset dx="-5" dy="-10"/>
<feGaussianBlur stdDeviation="6"/>
<feComposite in2="hardAlpha" operator="arithmetic" k2="-1" k3="1"/>
<feColorMatrix type="matrix" values="0 0 0 0 0.803922 0 0 0 0 0.847059 0 0 0 0 0.968627 0 0 0 1 0"/>
<feBlend mode="normal" in2="shape" result="effect1_innerShadow_131_322"/>
</filter>
<filter id="filter2_i_131_322" x="54.6758" y="213.56" width="66.6611" height="55.7119" filterUnits="userSpaceOnUse" color-interpolation-filters="sRGB">
<feFlood flood-opacity="0" result="BackgroundImageFix"/>
<feBlend mode="normal" in="SourceGraphic" in2="BackgroundImageFix" result="shape"/>
<feColorMatrix in="SourceAlpha" type="matrix" values="0 0 0 0 0 0 0 0 0 0 0 0 0 0 0 0 0 0 127 0" result="hardAlpha"/>
<feOffset dx="-3" dy="-3"/>
<feGaussianBlur stdDeviation="3"/>
<feComposite in2="hardAlpha" operator="arithmetic" k2="-1" k3="1"/>
<feColorMatrix type="matrix" values="0 0 0 0 0.803922 0 0 0 0 0.847059 0 0 0 0 0.968627 0 0 0 1 0"/>
<feBlend mode="normal" in2="shape" result="effect1_innerShadow_131_322"/>
</filter>
<linearGradient id="paint0_linear_131_322" x1="56.3119" y1="135.642" x2="25.7825" y2="97.8452" gradientUnits="userSpaceOnUse">
<stop stop-color="#CDD8F7"/>
<stop offset="1" stop-color="#E8F0FF"/>
</linearGradient>
<linearGradient id="paint1_linear_131_322" x1="74.0998" y1="142.72" x2="66.089" y2="79.5317" gradientUnits="userSpaceOnUse">
<stop stop-color="#CDD8F7"/>
<stop offset="1" stop-color="white"/>
</linearGradient>
<linearGradient id="paint2_linear_131_322" x1="366.5" y1="295.5" x2="330.907" y2="228.745" gradientUnits="userSpaceOnUse">
<stop stop-color="#7A43EE"/>
<stop offset="1" stop-color="#B565E6"/>
</linearGradient>
<linearGradient id="paint3_linear_131_322" x1="411" y1="187.808" x2="259.901" y2="187.808" gradientUnits="userSpaceOnUse">
<stop stop-color="#B565E5"/>
<stop offset="1" stop-color="#7A43EE"/>
</linearGradient>
<linearGradient id="paint4_linear_131_322" x1="261.5" y1="275" x2="112.5" y2="23.5" gradientUnits="userSpaceOnUse">
<stop stop-color="#CDD8F7"/>
<stop offset="1" stop-color="#E8F0FF"/>
</linearGradient>
<linearGradient id="paint5_linear_131_322" x1="272" y1="288" x2="183.572" y2="217.096" gradientUnits="userSpaceOnUse">
<stop stop-color="#7A43EE"/>
<stop offset="1" stop-color="#B565E6"/>
</linearGradient>
<linearGradient id="paint6_linear_131_322" x1="154.665" y1="88.1837" x2="135.142" y2="68.1268" gradientUnits="userSpaceOnUse">
<stop stop-color="#7A43EE"/>
<stop offset="1" stop-color="#B565E6"/>
</linearGradient>
<linearGradient id="paint7_linear_131_322" x1="72" y1="226" x2="158" y2="363.5" gradientUnits="userSpaceOnUse">
<stop stop-color="#F8BA55"/>
<stop offset="1" stop-color="#FB7354"/>
</linearGradient>
</defs>
</svg>
