<svg width="482" height="315" viewBox="0 0 482 315" fill="none" xmlns="http://www.w3.org/2000/svg">
<path d="M204.928 257.816L323.222 252.232C323.673 252.175 324.124 252.232 324.576 252.457L362.314 262.329C364.571 263.401 364.289 274.965 361.807 275.247L240.185 290.986C239.621 291.043 239.056 290.93 238.549 290.648L204.928 270.058C202.897 268.817 202.559 258.099 204.928 257.816Z" fill="url(#paint0_linear_1532_296)"/>
<path d="M205.943 257.027L323.221 243.826C323.673 243.77 324.124 243.826 324.575 244.052L362.54 262.104C364.796 263.175 364.232 266.504 361.806 266.842L240.184 282.581C239.62 282.637 239.056 282.524 238.549 282.242L204.928 261.596C202.897 260.355 203.574 257.252 205.943 257.027Z" fill="url(#paint1_linear_1532_296)"/>
<path d="M237.082 230.231V257.252C237.082 258.775 238.379 260.016 239.903 259.847L308.611 251.273C309.965 251.16 310.98 250.032 310.98 248.678V221.319C310.98 219.739 309.57 218.554 308.047 218.724L239.338 227.637C238.041 227.806 237.082 228.878 237.082 230.231Z" fill="#CDD8F7"/>
<path d="M130.183 0.0181678L427.243 15.1927C434.464 15.5876 440.161 21.4543 440.161 28.5621V203.098C440.161 209.98 434.859 215.734 427.864 216.411L130.804 245.237C122.793 245.97 115.798 239.821 115.798 231.924V13.3876C115.798 5.71568 122.342 -0.376709 130.183 0.0181678Z" fill="#CDD8F7"/>
<path d="M141.522 0.18732L426.002 12.9362C434.238 13.3311 440.725 20.1004 440.725 28.3364V203.154C440.725 211.108 434.69 217.764 426.736 218.498L142.255 244.955C133.173 245.801 125.388 238.693 125.388 229.611V15.5875C125.388 6.7874 132.722 -0.207557 141.522 0.18732Z" fill="#E8F0FF"/>
<path d="M156.471 14.6848L416.525 25.7414C424.084 26.0799 430.008 31.9466 430.008 39.1108V190.8C430.008 197.682 424.479 203.492 417.202 204.113L157.148 227.072C148.855 227.805 141.748 221.657 141.748 213.759V28.0542C141.748 20.4388 148.46 14.3464 156.471 14.6848Z" fill="#CDD8F7"/>
<path d="M173.281 34.5416L292.421 37.3058C298.683 37.475 303.647 42.552 303.647 48.8136V188.149C303.647 194.128 299.078 199.092 293.098 199.6L173.958 209.585C167.245 210.149 161.491 204.846 161.491 198.133V46.0495C161.491 39.5622 166.794 34.3724 173.281 34.5416Z" fill="url(#paint2_linear_1532_296)"/>
<path d="M334.504 130.907L395.879 128.03C407.387 127.466 417.033 136.661 417.033 148.225C417.033 158.718 409.023 167.461 398.53 168.364L337.325 173.554C324.858 174.625 314.14 164.754 314.14 152.23C314.14 140.835 323.109 131.471 334.504 130.907Z" fill="url(#paint3_linear_1532_296)"/>
<path d="M253.878 118.609C252.379 118.656 250.879 118.656 249.426 118.703C247.927 118.75 246.427 118.75 244.927 118.796C243.428 118.843 241.881 118.843 240.382 118.89C238.835 118.937 237.335 118.937 235.789 118.984C234.242 119.031 232.696 119.031 231.149 119.078C229.603 119.125 228.01 119.125 226.463 119.172C224.87 119.219 223.276 119.219 221.683 119.265C220.09 119.312 218.496 119.312 216.856 119.359C216.669 119.359 216.481 119.359 216.34 119.406C216.2 119.453 216.059 119.5 215.919 119.547C215.778 119.594 215.684 119.688 215.591 119.828C215.497 119.922 215.403 120.063 215.263 120.204C214.278 121.657 213.388 123.111 212.498 124.612C211.654 126.113 210.857 127.614 210.108 129.162C209.358 130.71 208.702 132.257 208.092 133.852C207.483 135.447 206.921 137.041 206.359 138.636C205.515 141.309 204.765 143.983 204.203 146.656C203.64 149.33 203.172 152.003 202.797 154.676C202.469 157.35 202.235 159.976 202.094 162.603C201.953 165.229 201.953 167.856 202 170.482C202 171.186 202.094 171.749 202.281 172.218C202.469 172.687 202.703 173.062 203.031 173.343C203.359 173.625 203.781 173.812 204.343 173.906C204.859 174 205.515 174 206.265 173.953C208.795 173.765 211.326 173.531 213.857 173.343C216.34 173.156 218.824 172.921 221.308 172.734C223.745 172.546 226.229 172.358 228.619 172.124C231.056 171.936 233.446 171.749 235.836 171.561C237.429 171.42 239.023 171.327 240.569 171.186C242.162 171.045 243.709 170.951 245.255 170.811C246.802 170.67 248.348 170.576 249.895 170.435C251.441 170.295 252.988 170.201 254.488 170.06C255.237 170.013 255.987 169.92 256.784 169.873C257.534 169.826 258.284 169.732 259.033 169.685C259.783 169.638 260.533 169.544 261.283 169.497C262.033 169.451 262.782 169.357 263.532 169.31C264.095 169.263 264.61 169.169 265.032 168.981C265.454 168.794 265.782 168.606 266.063 168.278C266.344 167.997 266.532 167.621 266.719 167.199C266.86 166.777 266.953 166.261 266.953 165.698C267 163.869 267 162.04 266.953 160.211C266.906 158.382 266.813 156.506 266.672 154.676C266.532 152.847 266.344 150.971 266.063 149.142C265.782 147.266 265.501 145.437 265.079 143.608C264.657 141.497 264.142 139.386 263.532 137.323C262.923 135.259 262.22 133.195 261.423 131.179C260.627 129.162 259.736 127.145 258.705 125.175C257.674 123.205 256.55 121.282 255.284 119.359C255.191 119.219 255.097 119.078 255.003 118.984C254.909 118.89 254.816 118.796 254.675 118.703C254.534 118.656 254.441 118.562 254.3 118.562C254.206 118.656 254.066 118.609 253.878 118.609ZM223.37 160.633C223.323 160.633 223.323 160.633 223.323 160.633C222.948 160.633 222.573 160.586 222.198 160.492C221.87 160.398 221.542 160.211 221.261 160.023C220.98 159.789 220.793 159.554 220.605 159.226C220.465 158.898 220.324 158.569 220.324 158.194C220.324 157.96 220.277 157.725 220.277 157.491C220.277 157.256 220.277 157.022 220.277 156.74C220.277 156.506 220.277 156.224 220.277 155.99C220.277 155.708 220.277 155.427 220.277 155.145C220.324 153.129 220.418 151.065 220.605 149.048C220.793 146.985 221.027 144.921 221.402 142.857C221.73 140.793 222.152 138.683 222.667 136.619C223.183 134.509 223.745 132.445 224.448 130.334C224.448 130.287 224.495 130.194 224.495 130.147C224.495 130.1 224.542 130.006 224.542 129.959C224.542 129.912 224.589 129.818 224.589 129.772C224.589 129.725 224.635 129.631 224.635 129.584C224.776 129.209 224.963 128.88 225.151 128.599C225.338 128.318 225.573 128.036 225.854 127.849C226.135 127.661 226.416 127.473 226.697 127.38C226.979 127.286 227.307 127.192 227.635 127.192C227.728 127.192 227.822 127.192 227.916 127.192C228.01 127.192 228.103 127.192 228.197 127.239C228.291 127.239 228.384 127.286 228.478 127.286C228.572 127.286 228.666 127.333 228.759 127.38C229.181 127.52 229.556 127.755 229.837 127.989C230.118 128.271 230.353 128.552 230.493 128.927C230.634 129.302 230.728 129.678 230.728 130.147C230.728 130.569 230.681 131.038 230.54 131.554C230.306 132.445 230.025 133.336 229.79 134.227C229.556 135.118 229.322 136.009 229.041 136.901C228.806 137.792 228.572 138.683 228.338 139.574C228.103 140.465 227.916 141.356 227.728 142.247C227.447 143.514 227.26 144.78 227.072 146.046C226.885 147.313 226.744 148.579 226.651 149.846C226.557 151.112 226.463 152.331 226.416 153.598C226.369 154.864 226.322 156.083 226.369 157.35C226.369 157.819 226.276 158.288 226.135 158.663C225.994 159.038 225.807 159.414 225.526 159.695C225.245 159.976 224.917 160.211 224.589 160.398C224.26 160.492 223.839 160.633 223.37 160.633ZM247.786 159.038C247.364 159.085 246.989 159.038 246.661 158.898C246.333 158.804 246.005 158.616 245.771 158.382C245.537 158.147 245.302 157.866 245.162 157.491C245.021 157.162 244.927 156.74 244.881 156.318C244.834 155.521 244.787 154.676 244.74 153.832C244.693 152.988 244.646 152.191 244.599 151.346C244.552 150.502 244.506 149.705 244.459 148.861C244.412 148.016 244.318 147.172 244.271 146.375C244.131 145.108 243.99 143.842 243.756 142.529C243.568 141.262 243.287 139.996 243.006 138.73C242.725 137.463 242.397 136.197 242.022 134.931C241.647 133.664 241.272 132.398 240.803 131.179C240.663 130.803 240.616 130.475 240.569 130.1C240.522 129.772 240.569 129.443 240.616 129.115C240.663 128.787 240.803 128.505 240.944 128.271C241.131 127.989 241.319 127.755 241.553 127.52C241.694 127.38 241.834 127.286 242.022 127.192C242.162 127.098 242.35 127.004 242.537 126.957C242.725 126.864 242.865 126.817 243.053 126.77C243.24 126.723 243.428 126.723 243.568 126.723C243.709 126.723 243.803 126.723 243.943 126.723C244.084 126.723 244.178 126.77 244.318 126.77C244.412 126.817 244.552 126.864 244.646 126.91C244.74 126.957 244.881 127.004 244.974 127.098C245.162 127.239 245.302 127.333 245.443 127.52C245.583 127.661 245.724 127.849 245.865 127.989C246.005 128.177 246.099 128.364 246.24 128.552C246.333 128.74 246.427 128.927 246.521 129.115C246.943 130.287 247.317 131.46 247.692 132.633C248.02 133.805 248.348 134.978 248.63 136.197C248.911 137.37 249.145 138.589 249.333 139.762C249.52 140.934 249.707 142.154 249.848 143.326C249.942 144.17 250.036 144.968 250.129 145.812C250.223 146.656 250.27 147.454 250.364 148.298C250.457 149.142 250.504 149.939 250.551 150.784C250.598 151.581 250.692 152.425 250.738 153.222H250.692C250.692 153.41 250.692 153.645 250.692 153.832C250.692 154.02 250.692 154.254 250.692 154.442C250.692 154.63 250.692 154.864 250.692 155.052C250.692 155.239 250.692 155.474 250.692 155.661C250.692 156.13 250.598 156.552 250.457 156.928C250.317 157.303 250.129 157.631 249.848 157.913C249.614 158.194 249.286 158.429 248.958 158.616C248.63 158.804 248.255 158.898 247.833 158.944C247.833 158.944 247.833 158.944 247.786 158.944C247.739 158.944 247.786 158.944 247.739 158.944C247.833 158.991 247.786 158.991 247.786 159.038ZM222.198 65C222.105 65 222.011 65 221.917 65C221.824 65 221.73 65 221.636 65C221.542 65 221.449 65.0469 221.355 65.0469C221.261 65.0469 221.167 65.0938 221.121 65.0938C220.793 65.1876 220.465 65.3283 220.183 65.5159C219.902 65.7035 219.668 65.938 219.434 66.2194C219.246 66.5009 219.059 66.7823 218.965 67.1575C218.871 67.4858 218.777 67.861 218.824 68.2831C218.824 69.1274 218.824 69.9247 218.824 70.7689C218.824 71.6132 218.871 72.4105 218.871 73.2547C218.871 74.099 218.918 74.8963 218.918 75.7405C218.918 76.5379 218.918 77.3821 218.918 78.1794C218.918 78.3201 218.918 78.5077 218.871 78.6485C218.824 78.7892 218.777 78.9768 218.731 79.1175C218.684 79.2582 218.59 79.4458 218.543 79.5865C218.449 79.7272 218.356 79.8679 218.262 79.9617C217.606 80.759 217.09 81.5564 216.622 82.4006C216.153 83.2448 215.825 84.0891 215.544 84.9802C215.309 85.8713 215.122 86.8094 215.122 87.7474C215.075 88.7324 215.169 89.7173 215.356 90.7491C215.497 91.6403 215.684 92.4845 215.825 93.3756C215.966 94.2668 216.106 95.111 216.247 96.0022C216.387 96.8933 216.528 97.7375 216.669 98.6287C216.809 99.4729 216.95 100.364 217.09 101.208C217.231 102.193 217.418 103.131 217.559 104.116C217.7 105.101 217.887 106.039 218.028 107.024C218.168 108.009 218.356 108.947 218.496 109.932C218.637 110.87 218.824 111.855 218.965 112.84C221.824 112.793 224.682 112.793 227.447 112.746C230.259 112.699 233.024 112.699 235.742 112.652C238.46 112.605 241.178 112.605 243.85 112.559C246.521 112.512 249.145 112.512 251.816 112.465C251.816 112.371 251.863 112.277 251.863 112.23C251.863 112.136 251.91 112.09 251.91 111.996C251.91 111.902 251.957 111.855 251.957 111.761C251.957 111.667 252.004 111.62 252.004 111.527C252.285 109.838 252.519 108.15 252.8 106.461C253.082 104.773 253.316 103.037 253.597 101.349C253.878 99.6136 254.16 97.9251 254.394 96.1898C254.675 94.4544 254.956 92.719 255.237 90.9837C255.378 89.9987 255.425 89.1076 255.378 88.2164C255.331 87.3253 255.191 86.4342 254.909 85.5899C254.675 84.7457 254.347 83.9484 253.925 83.151C253.503 82.3537 252.988 81.5564 252.426 80.8059C252.332 80.7121 252.285 80.6183 252.238 80.4776C252.191 80.3838 252.144 80.2431 252.098 80.1024C252.051 79.9617 252.004 79.821 252.004 79.7272C252.004 79.5865 251.957 79.4927 251.957 79.352C251.957 78.6485 251.957 77.9918 251.957 77.2883C251.957 76.5848 251.957 75.9281 252.004 75.2246C252.004 74.5211 252.051 73.8176 252.051 73.1609C252.051 72.4574 252.051 71.7539 252.098 71.0503C252.098 70.8627 252.098 70.722 252.098 70.5344C252.098 70.3468 252.098 70.2061 252.098 70.0185C252.098 69.8309 252.098 69.6902 252.051 69.5026C252.051 69.315 252.004 69.1743 252.004 68.9867C251.957 68.5645 251.816 68.1893 251.629 67.861C251.441 67.5327 251.207 67.2513 250.973 67.0168C250.692 66.7823 250.41 66.5947 250.082 66.454C249.754 66.3133 249.379 66.2194 249.005 66.2194C248.63 66.2194 248.255 66.2664 247.927 66.4071C247.599 66.5478 247.271 66.7354 246.989 66.9699C246.708 67.2044 246.474 67.4858 246.333 67.8141C246.146 68.1424 246.052 68.5176 246.005 68.9398C245.958 69.1743 245.958 69.4557 245.912 69.6902C245.912 69.9247 245.865 70.2061 245.865 70.4406C245.865 70.6751 245.865 70.9565 245.865 71.1911C245.865 71.4256 245.865 71.707 245.865 71.9415C245.865 72.3167 245.865 72.6919 245.865 73.114C245.865 73.4892 245.865 73.9114 245.865 74.2866C245.865 74.6618 245.865 75.0839 245.865 75.4591C245.865 75.8343 245.865 76.2565 245.865 76.6317C245.724 76.5848 245.537 76.5848 245.396 76.5848C245.255 76.5848 245.068 76.5379 244.927 76.5379C244.787 76.5379 244.646 76.491 244.459 76.491C244.318 76.491 244.178 76.491 243.99 76.491C243.24 76.491 242.537 76.491 241.788 76.6317C241.085 76.7255 240.382 76.9131 239.726 77.1476C239.069 77.3821 238.413 77.6635 237.757 78.0387C237.101 78.4139 236.492 78.8361 235.883 79.3051C235.273 78.7892 234.664 78.3201 234.008 77.898C233.352 77.4759 232.696 77.1476 232.04 76.8662C231.337 76.5848 230.634 76.3503 229.931 76.2096C229.181 76.0688 228.478 75.975 227.682 75.9281C227.541 75.9281 227.353 75.9281 227.213 75.9281C227.072 75.9281 226.885 75.9281 226.744 75.9281C226.604 75.9281 226.416 75.9281 226.276 75.975C226.135 75.975 225.948 76.0219 225.76 76.0219C225.76 75.4122 225.76 74.8494 225.76 74.2866C225.76 73.7238 225.76 73.114 225.76 72.5512C225.76 71.9884 225.76 71.3787 225.76 70.8158C225.76 70.253 225.713 69.6433 225.713 69.0805C225.713 68.8929 225.666 68.6583 225.666 68.4707C225.62 68.2362 225.573 68.0486 225.526 67.8141C225.479 67.5796 225.385 67.392 225.338 67.2044C225.245 67.0168 225.151 66.8292 225.057 66.6416C224.917 66.4071 224.729 66.1725 224.542 65.9849C224.354 65.7973 224.12 65.6097 223.886 65.5159C223.651 65.3752 223.417 65.2814 223.136 65.1876C222.714 65.0469 222.433 65 222.198 65Z" fill="#CDD8F7"/>
<path d="M196.78 161.004L22.4286 163.438C19.7105 163.495 17.1624 164.118 14.7841 165.25C12.4624 166.383 10.3106 167.969 8.4986 169.95C6.68658 171.932 5.21431 174.254 4.19504 176.859C3.17578 179.464 2.55289 182.295 2.49627 185.239L0.00472858 280.88C-0.0518973 283.882 0.401109 286.713 1.30712 289.374C2.21314 292.036 3.57216 294.414 5.27093 296.509C6.96971 298.548 9.00824 300.303 11.3299 301.549C13.6516 302.795 16.1997 303.587 18.8611 303.757L193.269 314.573C196.496 314.799 199.611 314.29 202.499 313.27C205.387 312.251 207.991 310.609 210.143 308.57C212.352 306.532 214.164 303.984 215.466 301.209C216.768 298.378 217.505 295.263 217.561 291.922L219.996 184.9C220.053 181.559 219.487 178.388 218.354 175.556C217.221 172.668 215.523 170.12 213.428 167.969C211.332 165.817 208.784 164.118 206.01 162.929C203.122 161.57 200.007 160.947 196.78 161.004Z" fill="url(#paint4_linear_1532_296)"/>
<path d="M40.7753 249.623L24.5237 249.114C23.9008 249.114 23.3345 249.227 22.8249 249.453C22.3153 249.68 21.8056 250.02 21.4093 250.473C21.0129 250.926 20.6731 251.435 20.4466 252.001C20.2201 252.568 20.0502 253.191 20.0502 253.87L19.8237 260.835C19.8237 261.515 19.937 262.138 20.1069 262.76C20.3334 263.327 20.6165 263.893 21.0129 264.346C21.4093 264.799 21.8623 265.195 22.3719 265.478C22.8815 265.762 23.4478 265.931 24.0707 265.931L40.3223 266.611C40.9452 266.611 41.5114 266.498 42.0777 266.271C42.6439 266.045 43.097 265.705 43.55 265.252C43.9463 264.799 44.2861 264.289 44.5692 263.723C44.7957 263.157 44.9656 262.477 44.9656 261.798L45.1355 254.663C45.1355 253.983 45.0222 253.304 44.8524 252.738C44.6258 252.115 44.3427 251.605 43.9463 251.152C43.55 250.699 43.097 250.303 42.5307 250.02C41.9644 249.793 41.3982 249.623 40.7753 249.623ZM76.7893 250.756L59.8582 250.189C59.2353 250.189 58.6124 250.303 58.0462 250.529C57.4799 250.756 56.9703 251.095 56.5739 251.548C56.1775 252.001 55.7811 252.511 55.5546 253.077C55.3281 253.644 55.1583 254.323 55.1583 255.003L54.9884 262.194C54.9884 262.874 55.1016 263.553 55.2715 264.119C55.498 264.742 55.7811 265.252 56.2341 265.762C56.6305 266.215 57.1402 266.611 57.6498 266.894C58.2161 267.177 58.7823 267.347 59.4052 267.347L76.3363 268.027C76.9592 268.027 77.5821 267.913 78.1483 267.687C78.7146 267.46 79.2242 267.121 79.6772 266.668C80.1303 266.215 80.47 265.705 80.6965 265.082C80.923 264.516 81.0929 263.836 81.0929 263.157L81.2628 255.852C81.2628 255.173 81.1495 254.493 80.923 253.87C80.6965 253.247 80.3568 252.681 79.9604 252.228C79.564 251.775 79.0544 251.379 78.4881 251.095C78.0351 250.926 77.4122 250.756 76.7893 250.756ZM114.219 251.945L96.665 251.379C95.9855 251.379 95.3626 251.492 94.7963 251.718C94.2301 251.945 93.7205 252.285 93.2674 252.738C92.8144 253.191 92.4747 253.7 92.1916 254.323C91.9651 254.946 91.7952 255.569 91.7952 256.305L91.6253 263.61C91.6253 264.289 91.7385 264.969 91.965 265.592C92.1916 266.215 92.5313 266.781 92.9277 267.234C93.3241 267.687 93.8337 268.083 94.4 268.366C94.9662 268.649 95.5891 268.819 96.212 268.819L113.766 269.555C114.446 269.555 115.068 269.442 115.635 269.216C116.201 268.989 116.767 268.649 117.22 268.196C117.673 267.743 118.013 267.234 118.296 266.611C118.579 265.988 118.692 265.309 118.749 264.629L118.919 257.268C118.919 256.532 118.806 255.852 118.579 255.229C118.353 254.606 118.013 254.04 117.56 253.587C117.107 253.134 116.597 252.738 116.031 252.454C115.521 252.171 114.842 252.001 114.219 251.945ZM116.994 203.643L61.0473 203.247C60.4245 203.247 59.8016 203.36 59.2353 203.643C58.6691 203.87 58.1594 204.266 57.763 204.719C57.3667 205.172 56.9703 205.682 56.7438 206.304C56.5173 206.871 56.3474 207.55 56.3474 208.23C56.3474 208.909 56.4607 209.589 56.6305 210.155C56.857 210.778 57.1402 211.287 57.5932 211.741C57.9895 212.194 58.4992 212.59 59.0088 212.816C59.5751 213.1 60.1413 213.213 60.7642 213.213L116.711 213.949C117.39 213.949 118.013 213.836 118.579 213.553C119.145 213.326 119.712 212.93 120.165 212.477C120.618 212.024 120.957 211.457 121.241 210.834C121.524 210.212 121.637 209.532 121.694 208.853C121.694 208.116 121.58 207.494 121.354 206.871C121.127 206.248 120.788 205.682 120.335 205.229C119.882 204.776 119.372 204.379 118.806 204.096C118.296 203.756 117.673 203.643 116.994 203.643ZM168.24 184.73L61.5004 184.956C60.8775 184.956 60.2546 185.126 59.6883 185.353C59.1221 185.579 58.6124 185.976 58.2161 186.429C57.8197 186.882 57.4233 187.391 57.1968 188.014C56.9703 188.581 56.8004 189.26 56.8004 189.94C56.8004 190.619 56.9137 191.299 57.0835 191.865C57.31 192.431 57.5932 192.997 58.0462 193.45C58.4426 193.903 58.9522 194.243 59.4618 194.526C60.0281 194.753 60.5943 194.923 61.2172 194.923L167.957 195.262C168.636 195.262 169.316 195.093 169.939 194.866C170.562 194.583 171.128 194.243 171.581 193.733C172.034 193.28 172.43 192.714 172.714 192.035C172.997 191.412 173.167 190.732 173.167 189.996C173.167 189.26 173.053 188.581 172.827 187.958C172.6 187.335 172.204 186.769 171.751 186.259C171.298 185.806 170.732 185.409 170.165 185.126C169.599 184.9 168.92 184.73 168.24 184.73Z" fill="#7A43EE"/>
<path d="M191.117 236.713L149.61 235.75C148.931 235.75 148.251 235.863 147.628 236.09C147.005 236.316 146.496 236.713 145.986 237.166C145.533 237.619 145.137 238.185 144.854 238.808C144.57 239.431 144.457 240.11 144.401 240.846L143.381 283.089C143.381 283.825 143.495 284.505 143.721 285.128C143.948 285.751 144.287 286.317 144.74 286.827C145.193 287.336 145.703 287.733 146.326 288.016C146.892 288.299 147.572 288.469 148.251 288.525L189.758 290.62C190.494 290.677 191.174 290.564 191.796 290.281C192.419 290.054 192.986 289.658 193.495 289.205C194.005 288.752 194.401 288.186 194.684 287.563C194.967 286.94 195.137 286.26 195.137 285.524L196.157 242.205C196.157 241.469 196.043 240.79 195.817 240.11C195.59 239.487 195.194 238.864 194.741 238.411C194.288 237.902 193.722 237.505 193.099 237.222C192.533 236.883 191.853 236.713 191.117 236.713Z" fill="url(#paint5_linear_1532_296)"/>
<path d="M42.4173 185.013L26.1657 185.07C25.5428 185.07 24.9766 185.183 24.4669 185.466C23.9573 185.693 23.4477 186.089 23.0513 186.485C22.6549 186.938 22.3151 187.448 22.0886 188.014C21.8621 188.581 21.6923 189.26 21.6923 189.883L21.2393 207.72C21.2393 208.4 21.3525 209.023 21.5224 209.645C21.7489 210.212 22.032 210.778 22.4284 211.231C22.8248 211.684 23.2778 212.024 23.7874 212.307C24.2971 212.533 24.8633 212.703 25.4862 212.703L41.7378 212.93C42.3607 212.93 42.927 212.816 43.4932 212.59C44.0595 212.363 44.5125 211.967 44.9655 211.571C45.3619 211.118 45.7016 210.608 45.9847 209.985C46.2113 209.419 46.3811 208.739 46.3811 208.06L46.8341 189.94C46.8341 189.26 46.7209 188.637 46.551 188.014C46.3245 187.448 46.0414 186.882 45.645 186.429C45.2486 185.976 44.7956 185.636 44.2293 185.353C43.6065 185.126 43.0402 185.013 42.4173 185.013Z" fill="#B565E5"/>
<path d="M468.712 197.452C468.822 197.452 468.876 197.397 468.986 197.397C469.15 197.397 469.26 197.342 469.424 197.342C469.479 197.342 469.534 197.342 469.589 197.287C469.753 197.233 469.917 197.178 470.082 197.178C470.191 197.123 470.356 197.123 470.465 197.068C470.63 197.013 470.794 196.959 470.958 196.904C471.068 196.849 471.123 196.849 471.232 196.794C471.287 196.794 471.342 196.739 471.397 196.739C471.616 196.63 471.835 196.52 472.054 196.411C472.109 196.356 472.164 196.356 472.218 196.301C472.383 196.192 472.492 196.137 472.657 196.027C472.711 195.972 472.766 195.918 472.821 195.918C472.985 195.808 473.095 195.699 473.204 195.589C473.259 195.534 473.259 195.534 473.314 195.479C473.314 195.479 473.314 195.479 473.369 195.479C473.424 195.425 473.478 195.37 473.533 195.26C473.643 195.151 473.698 195.096 473.807 194.986C473.862 194.932 473.917 194.822 473.972 194.767C474.026 194.658 474.136 194.603 474.191 194.493C474.191 194.493 474.191 194.493 474.245 194.438C474.3 194.329 474.355 194.219 474.41 194.165C474.465 194.11 474.465 194.055 474.519 193.945C474.574 193.836 474.629 193.671 474.684 193.507C474.684 193.452 474.739 193.397 474.739 193.343C474.793 193.178 474.848 192.959 474.903 192.795L478.519 175.866C478.464 176.085 478.409 176.249 478.354 176.468C478.354 176.523 478.3 176.578 478.3 176.633C478.245 176.797 478.19 176.907 478.135 177.016C478.081 177.071 478.081 177.126 478.026 177.235C477.971 177.345 477.916 177.455 477.807 177.564C477.752 177.674 477.642 177.728 477.587 177.838C477.533 177.893 477.478 178.002 477.423 178.057C477.368 178.167 477.259 178.222 477.149 178.331C477.094 178.386 476.985 178.495 476.93 178.55C476.875 178.605 476.875 178.605 476.82 178.66C476.711 178.769 476.547 178.879 476.437 178.989C476.382 179.043 476.327 179.098 476.273 179.098C476.163 179.208 475.999 179.262 475.834 179.372C475.779 179.427 475.725 179.427 475.67 179.482C475.451 179.591 475.232 179.701 475.012 179.81C474.903 179.865 474.739 179.92 474.629 179.975C474.465 180.03 474.3 180.084 474.136 180.139C474.026 180.194 473.862 180.194 473.752 180.249C473.588 180.303 473.424 180.358 473.259 180.358C473.095 180.413 472.876 180.413 472.711 180.468C472.602 180.468 472.547 180.523 472.437 180.523C472.164 180.577 471.835 180.632 471.506 180.632L437.264 183.7L433.648 200.629L467.89 197.561C468.109 197.561 468.438 197.506 468.712 197.452Z" fill="#FB7354"/>
<path d="M478.19 249.608L481.806 232.679C481.752 232.843 481.697 233.062 481.697 233.227C481.697 233.282 481.642 233.336 481.642 233.391C481.587 233.501 481.587 233.61 481.532 233.775C481.532 233.829 481.478 233.884 481.478 233.994C481.423 234.103 481.368 234.213 481.368 234.323C481.313 234.377 481.313 234.487 481.258 234.542C481.204 234.651 481.149 234.761 481.094 234.816C481.039 234.87 481.039 234.98 480.985 235.035C480.93 235.144 480.875 235.254 480.82 235.309C480.765 235.364 480.711 235.473 480.711 235.528C480.656 235.637 480.601 235.692 480.546 235.802C480.491 235.911 480.437 235.966 480.382 236.076C480.327 236.131 480.272 236.24 480.217 236.295C480.163 236.404 480.108 236.459 479.998 236.569C479.944 236.624 479.889 236.733 479.779 236.788C479.724 236.843 479.615 236.952 479.56 237.007C479.505 237.062 479.396 237.171 479.341 237.226C479.286 237.281 479.177 237.391 479.122 237.445C479.067 237.5 479.012 237.555 478.903 237.61C478.683 237.829 478.41 237.993 478.19 238.212C478.136 238.267 478.136 238.267 478.081 238.322C477.862 238.486 477.588 238.651 477.314 238.815C477.259 238.87 477.204 238.87 477.149 238.925C476.876 239.089 476.547 239.253 476.273 239.418C476.218 239.473 476.163 239.473 476.054 239.527C475.725 239.692 475.396 239.856 475.068 240.02C474.903 240.075 474.739 240.13 474.574 240.24C474.136 240.404 473.698 240.568 473.26 240.678C473.205 240.678 473.095 240.733 473.04 240.733C472.602 240.842 472.109 241.007 471.671 241.116C471.616 241.116 471.506 241.171 471.452 241.171C471.013 241.281 470.575 241.335 470.137 241.39H470.082C469.644 241.445 469.205 241.5 468.767 241.554C468.712 241.554 468.603 241.554 468.548 241.554C468.11 241.609 467.671 241.609 467.233 241.609C467.123 241.609 467.069 241.609 466.959 241.609C466.521 241.609 466.082 241.609 465.589 241.609C465.535 241.609 465.48 241.609 465.425 241.609C464.877 241.609 464.329 241.554 463.781 241.5C463.727 241.5 463.672 241.5 463.672 241.5C463.124 241.445 462.576 241.39 461.974 241.28C461.919 241.28 461.864 241.28 461.809 241.28C461.316 241.226 460.878 241.116 460.385 241.007C460.33 241.007 460.33 241.007 460.275 241.007C459.782 240.897 459.344 240.787 458.851 240.678C458.796 240.678 458.686 240.623 458.632 240.623C458.193 240.513 457.755 240.349 457.317 240.24C457.262 240.24 457.152 240.185 457.097 240.13C456.659 239.966 456.221 239.801 455.783 239.637C455.728 239.637 455.673 239.582 455.673 239.582C455.18 239.363 454.632 239.144 454.139 238.925C454.084 238.925 454.084 238.87 454.029 238.87C453.536 238.651 453.043 238.377 452.55 238.103C452.495 238.048 452.441 238.048 452.386 237.993C452.112 237.829 451.838 237.665 451.509 237.445C451.454 237.391 451.345 237.336 451.29 237.281C450.961 237.062 450.633 236.843 450.359 236.624C450.304 236.624 450.304 236.569 450.249 236.569C449.975 236.35 449.701 236.131 449.427 235.911C449.373 235.857 449.263 235.802 449.208 235.747C448.934 235.528 448.66 235.254 448.386 234.98L407.57 196.027L389.655 215.421C389.491 215.586 389.326 215.75 389.162 215.914C389.107 215.969 389.052 216.024 388.998 216.079C388.888 216.188 388.724 216.298 388.614 216.353C388.559 216.407 388.45 216.462 388.395 216.517C388.231 216.626 388.121 216.681 387.957 216.791C387.902 216.846 387.847 216.846 387.737 216.9C387.518 217.01 387.299 217.12 387.08 217.229C386.97 217.284 386.806 217.339 386.696 217.393C386.587 217.448 386.423 217.503 386.313 217.558C386.203 217.613 386.149 217.613 386.039 217.613C385.875 217.667 385.765 217.667 385.601 217.722C385.491 217.722 385.436 217.777 385.327 217.777C385.162 217.832 384.943 217.832 384.779 217.887C384.724 217.887 384.669 217.887 384.615 217.887C384.395 217.941 384.122 217.941 383.848 217.996C383.793 217.996 383.738 217.996 383.628 217.996C383.464 217.996 383.245 217.996 383.081 218.051C382.971 218.051 382.916 218.051 382.807 218.051C382.642 218.051 382.478 218.051 382.314 218.051C382.204 218.051 382.149 218.051 382.04 218.051C381.766 218.051 381.547 218.051 381.273 217.996C381.218 217.996 381.163 217.996 381.163 217.996C380.889 217.941 380.56 217.941 380.286 217.887C380.177 217.887 380.122 217.832 380.012 217.832C379.793 217.777 379.629 217.777 379.41 217.722C379.3 217.722 379.245 217.667 379.136 217.667C378.917 217.613 378.698 217.558 378.478 217.503C378.424 217.503 378.369 217.503 378.314 217.448C378.04 217.393 377.766 217.284 377.547 217.229C377.492 217.229 377.383 217.174 377.328 217.174C377.109 217.12 376.944 217.01 376.78 216.955C376.725 216.9 376.616 216.9 376.561 216.846C376.287 216.736 376.013 216.626 375.739 216.517C375.739 216.517 375.739 216.517 375.684 216.517C375.41 216.407 375.136 216.243 374.917 216.079C374.808 216.024 374.753 215.969 374.643 215.914C374.589 215.859 374.534 215.859 374.424 215.805C374.315 215.75 374.205 215.64 374.096 215.585C374.041 215.531 373.986 215.531 373.931 215.476C373.767 215.366 373.602 215.257 373.438 215.092C373.274 214.983 373.164 214.873 373 214.709C372.945 214.654 372.89 214.599 372.835 214.599C372.726 214.49 372.616 214.435 372.561 214.325C372.507 214.271 372.452 214.216 372.397 214.161C372.288 214.051 372.233 213.997 372.178 213.887C372.123 213.832 372.068 213.778 372.014 213.723C371.959 213.613 371.849 213.558 371.794 213.449C371.74 213.394 371.74 213.339 371.685 213.284C371.575 213.175 371.521 213.065 371.466 212.956C371.466 212.901 371.411 212.901 371.411 212.846C371.301 212.682 371.247 212.517 371.137 212.408C371.137 212.353 371.082 212.353 371.082 212.298C371.027 212.189 370.973 212.079 370.918 211.915C370.918 211.86 370.863 211.805 370.863 211.75C370.808 211.641 370.808 211.531 370.754 211.422C370.754 211.367 370.699 211.312 370.699 211.203C370.644 211.093 370.644 210.983 370.644 210.874C370.644 210.819 370.644 210.764 370.589 210.655C370.589 210.545 370.534 210.436 370.534 210.326C370.534 210.271 370.534 210.216 370.534 210.162C370.534 209.997 370.534 209.833 370.534 209.614L373.164 151.649C373.164 151.375 373.219 151.156 373.274 150.882L369.658 167.811C369.603 168.031 369.548 168.305 369.548 168.578L366.918 226.543C366.918 226.707 366.918 226.926 366.918 227.091C366.918 227.146 366.918 227.2 366.918 227.255C366.918 227.365 366.918 227.474 366.973 227.584C366.973 227.639 366.973 227.693 367.028 227.803C367.028 227.913 367.083 228.022 367.083 228.132C367.083 228.186 367.138 228.241 367.138 228.351C367.192 228.46 367.192 228.57 367.247 228.68C367.247 228.734 367.302 228.789 367.302 228.844C367.357 228.953 367.412 229.063 367.466 229.227C367.466 229.282 367.521 229.282 367.521 229.337C367.576 229.501 367.685 229.666 367.795 229.775C367.795 229.83 367.85 229.83 367.85 229.885C367.905 229.994 368.014 230.104 368.069 230.214C368.124 230.268 368.124 230.323 368.179 230.378C368.233 230.487 368.343 230.542 368.398 230.652C368.452 230.707 368.507 230.761 368.562 230.816C368.617 230.926 368.726 230.981 368.781 231.09C368.836 231.145 368.891 231.2 368.946 231.255C369.055 231.364 369.11 231.419 369.22 231.528C369.274 231.583 369.329 231.638 369.384 231.638C369.548 231.748 369.658 231.857 369.822 232.022C369.987 232.131 370.151 232.241 370.315 232.405C370.37 232.46 370.425 232.46 370.48 232.515C370.589 232.569 370.699 232.679 370.808 232.734C370.863 232.789 370.918 232.789 371.027 232.843C371.082 232.898 371.137 232.898 371.192 232.953C371.247 232.953 371.247 233.008 371.301 233.008C371.575 233.172 371.794 233.282 372.068 233.446C372.068 233.446 372.068 233.446 372.123 233.446C372.397 233.556 372.671 233.665 372.945 233.775C373 233.775 373 233.829 373.055 233.829C373.109 233.829 373.164 233.884 373.164 233.884C373.329 233.939 373.548 234.049 373.767 234.103C373.822 234.103 373.931 234.158 373.986 234.158C374.26 234.268 374.534 234.323 374.753 234.377C374.808 234.377 374.808 234.377 374.863 234.432C375.082 234.487 375.301 234.542 375.52 234.597C375.63 234.597 375.684 234.651 375.794 234.651C376.013 234.706 376.177 234.706 376.397 234.761C376.451 234.761 376.506 234.761 376.561 234.816C376.616 234.816 376.616 234.816 376.67 234.816C376.944 234.87 377.273 234.925 377.547 234.925C377.602 234.925 377.657 234.925 377.657 234.925C377.931 234.925 378.15 234.98 378.424 234.98C378.478 234.98 378.533 234.98 378.533 234.98C378.588 234.98 378.643 234.98 378.698 234.98C378.862 234.98 379.026 234.98 379.191 234.98C379.3 234.98 379.355 234.98 379.465 234.98C379.629 234.98 379.848 234.98 380.012 234.925C380.067 234.925 380.122 234.925 380.232 234.925C380.506 234.925 380.725 234.87 380.999 234.816C381.053 234.816 381.108 234.816 381.163 234.761C381.327 234.706 381.547 234.706 381.711 234.651H381.766C381.82 234.651 381.875 234.597 381.93 234.597C382.094 234.542 382.204 234.542 382.368 234.487C382.478 234.487 382.533 234.432 382.642 234.432C382.807 234.377 382.916 234.323 383.026 234.268C383.081 234.268 383.135 234.213 383.19 234.213C383.3 234.158 383.354 234.158 383.464 234.103C383.683 233.994 383.902 233.884 384.122 233.775C384.176 233.72 384.231 233.72 384.341 233.665C384.505 233.556 384.615 233.501 384.779 233.391C384.834 233.336 384.943 233.282 384.998 233.227C385.108 233.117 385.272 233.008 385.382 232.953C385.436 232.898 385.491 232.843 385.546 232.789C385.546 232.789 385.601 232.734 385.656 232.734C385.82 232.624 385.929 232.46 386.094 232.295L404.009 212.901L444.825 251.854C445.099 252.128 445.373 252.347 445.647 252.621C445.702 252.676 445.811 252.731 445.866 252.786C446.14 253.005 446.414 253.224 446.688 253.443C446.743 253.443 446.743 253.498 446.798 253.498C447.126 253.717 447.4 253.936 447.729 254.155C447.784 254.21 447.893 254.265 448.003 254.32C448.277 254.484 448.551 254.648 448.879 254.868C448.934 254.868 448.934 254.922 448.989 254.922C448.989 254.922 448.989 254.922 449.044 254.922C449.537 255.196 450.03 255.47 450.523 255.689C450.578 255.689 450.578 255.744 450.633 255.744C451.126 255.963 451.619 256.182 452.167 256.402C452.221 256.402 452.221 256.402 452.276 256.456H452.331C452.769 256.621 453.208 256.785 453.646 256.95C453.701 257.004 453.81 257.004 453.865 257.059C454.303 257.223 454.742 257.333 455.18 257.443C455.235 257.443 455.235 257.443 455.29 257.497C455.344 257.497 455.399 257.497 455.454 257.552C455.892 257.662 456.385 257.771 456.824 257.881C456.878 257.881 456.878 257.881 456.933 257.881C457.371 257.99 457.865 258.045 458.358 258.155C458.412 258.155 458.412 258.155 458.467 258.155C458.467 258.155 458.467 258.155 458.522 258.155C459.07 258.264 459.618 258.319 460.22 258.374C460.275 258.374 460.33 258.374 460.33 258.374C460.878 258.429 461.426 258.484 461.974 258.484C462.028 258.484 462.028 258.484 462.083 258.484H462.138C462.576 258.484 463.014 258.484 463.508 258.484C463.617 258.484 463.672 258.484 463.781 258.484C464.22 258.484 464.658 258.429 465.096 258.429C465.151 258.429 465.261 258.429 465.315 258.429C465.754 258.374 466.192 258.319 466.63 258.264H466.685C467.123 258.21 467.562 258.1 468 258.045C468.055 258.045 468.11 258.045 468.164 258.045H468.219C468.712 257.936 469.151 257.826 469.589 257.662C469.644 257.662 469.753 257.607 469.808 257.607C470.246 257.443 470.685 257.333 471.123 257.169C471.178 257.169 471.178 257.169 471.232 257.114C471.342 257.059 471.506 257.004 471.616 256.95C471.945 256.785 472.328 256.621 472.602 256.456C472.657 256.402 472.712 256.402 472.821 256.347C473.15 256.182 473.424 256.018 473.698 255.854C473.753 255.799 473.807 255.799 473.862 255.744C474.136 255.58 474.355 255.415 474.629 255.251C474.684 255.196 474.684 255.196 474.739 255.142C475.013 254.922 475.232 254.758 475.451 254.539L475.506 254.484C475.561 254.429 475.615 254.375 475.615 254.375C475.725 254.32 475.78 254.21 475.835 254.155C475.889 254.101 475.999 253.991 476.054 253.936C476.108 253.881 476.218 253.772 476.273 253.717C476.328 253.662 476.382 253.553 476.492 253.498C476.547 253.388 476.656 253.334 476.711 253.224C476.766 253.169 476.821 253.06 476.876 253.005C476.93 252.895 476.985 252.841 477.04 252.731C477.095 252.676 477.095 252.621 477.149 252.621C477.204 252.567 477.204 252.512 477.259 252.512C477.314 252.457 477.369 252.347 477.369 252.293C477.423 252.183 477.478 252.128 477.533 252.019C477.588 251.964 477.588 251.854 477.643 251.8C477.697 251.69 477.752 251.58 477.807 251.526C477.862 251.471 477.862 251.361 477.916 251.306C477.971 251.197 478.026 251.087 478.026 250.978C478.026 250.923 478.081 250.868 478.081 250.759V250.704C478.136 250.594 478.136 250.485 478.19 250.375C478.19 250.32 478.245 250.266 478.245 250.211C478.136 249.937 478.136 249.772 478.19 249.608Z" fill="#FB7354"/>
<path d="M376.89 146.884C379.136 145.952 382.095 145.678 385.163 146.445L470.247 167.1C479.341 169.291 481.204 177.126 474.958 179.81C473.972 180.249 472.767 180.523 471.397 180.632L437.155 183.7L477.752 222.435C484.327 228.68 483.012 236.57 474.903 240.021C466.795 243.473 454.852 241.226 448.332 234.981L407.516 196.027L389.6 215.422C388.888 216.189 388.012 216.792 387.026 217.175C380.78 219.86 370.151 215.751 370.425 209.56L373.055 151.595C373.164 149.513 374.644 147.815 376.89 146.884Z" fill="url(#paint6_linear_1532_296)"/>
<defs>
<linearGradient id="paint0_linear_1532_296" x1="363.85" y1="271.606" x2="203.275" y2="271.606" gradientUnits="userSpaceOnUse">
<stop stop-color="#E8F0FF"/>
<stop offset="0.773958" stop-color="#CDD8F7"/>
<stop offset="1" stop-color="#CDD8F7"/>
</linearGradient>
<linearGradient id="paint1_linear_1532_296" x1="283.844" y1="243.806" x2="283.844" y2="282.595" gradientUnits="userSpaceOnUse">
<stop stop-color="#CDD8F7"/>
<stop offset="1" stop-color="#E8F0FF"/>
</linearGradient>
<linearGradient id="paint2_linear_1532_296" x1="280.698" y1="34.1808" x2="180.465" y2="209.705" gradientUnits="userSpaceOnUse">
<stop stop-color="white"/>
<stop offset="1" stop-color="#E8F0FF"/>
</linearGradient>
<linearGradient id="paint3_linear_1532_296" x1="417.033" y1="150.819" x2="314.14" y2="150.819" gradientUnits="userSpaceOnUse">
<stop stop-color="#B565E5"/>
<stop offset="1" stop-color="#7A43EE"/>
</linearGradient>
<linearGradient id="paint4_linear_1532_296" x1="80" y1="315" x2="147.852" y2="166.176" gradientUnits="userSpaceOnUse">
<stop stop-color="#7A43EE"/>
<stop offset="1" stop-color="#B565E6"/>
</linearGradient>
<linearGradient id="paint5_linear_1532_296" x1="196.157" y1="263.192" x2="143.381" y2="263.192" gradientUnits="userSpaceOnUse">
<stop stop-color="#F8BA55"/>
<stop offset="1" stop-color="#FB7354"/>
</linearGradient>
<linearGradient id="paint6_linear_1532_296" x1="415.601" y1="265.676" x2="411.388" y2="153.47" gradientUnits="userSpaceOnUse">
<stop stop-color="#FB7354"/>
<stop offset="1" stop-color="#F8BA55"/>
</linearGradient>
</defs>
</svg>
