<svg width="456" height="344" viewBox="0 0 456 344" fill="none" xmlns="http://www.w3.org/2000/svg">
<g filter="url(#filter0_i_1555_796)">
<path d="M154.544 344H143.108C135.05 344 128.553 337.502 128.553 329.445V179.218H169.099V329.445C169.099 337.502 162.549 344 154.544 344Z" fill="url(#paint0_linear_1555_796)"/>
</g>
<path d="M242.601 72.0953C240.99 66.1694 238.495 60.6073 235.22 55.721C231.997 50.8867 228.098 46.7282 223.68 43.6093C219.313 40.4904 214.427 38.3591 209.333 37.4754C208.501 37.3195 207.669 37.2155 206.838 37.1635C206.006 37.1116 205.174 37.0596 204.394 37.0596C203.563 37.0596 202.783 37.1116 202.003 37.1635C201.224 37.2155 200.444 37.3195 199.664 37.4754C141.964 47.0401 84.3165 56.7087 26.6167 66.3253C27.3964 66.1694 28.1762 66.1174 29.0079 66.0654C29.8396 66.0134 30.6193 66.0134 31.451 66.0134C32.2827 66.0654 33.1144 66.1174 33.9981 66.2214C34.8298 66.3253 35.7135 66.4813 36.5972 66.6892C41.8994 67.9368 47.0455 70.6398 51.7239 74.5904C56.4543 78.5411 60.7168 83.7392 64.2515 89.7171C67.8383 95.747 70.7492 102.609 72.6726 109.886C74.6479 117.164 75.6355 124.909 75.5316 132.654L73.6082 249.405L238.131 187.703L244.472 90.6528C244.94 84.363 244.213 78.0212 242.601 72.0953Z" fill="url(#paint1_linear_1555_796)"/>
<path d="M36.597 66.6894C41.8992 67.937 47.0454 70.6401 51.7237 74.5907C56.4541 78.5413 60.7166 83.7395 64.2513 89.7174C67.8381 95.7473 70.7491 102.609 72.6724 109.886C74.6477 117.164 75.6354 124.909 75.5314 132.654L73.6081 249.405L0.677594 220.14L0.0538126 111.134C0.00183077 103.908 0.937503 97.3067 2.70488 91.4848C4.47227 85.6108 7.07136 80.5166 10.2942 76.514C13.5691 72.4594 17.5197 69.3925 21.9382 67.6771C26.3566 65.9097 31.3469 65.4939 36.597 66.6894Z" fill="#FB7354"/>
<mask id="mask0_1555_796" style="mask-type:alpha" maskUnits="userSpaceOnUse" x="0" y="66" width="76" height="184">
<path d="M36.597 66.6894C41.8992 67.937 47.0454 70.6401 51.7237 74.5907C56.4541 78.5413 60.7166 83.7395 64.2513 89.7174C67.8381 95.7473 70.7491 102.609 72.6724 109.886C74.6477 117.164 75.6354 124.909 75.5314 132.654L73.6081 249.405L0.677594 220.14L0.0538126 111.134C0.00183077 103.908 0.937503 97.3067 2.70488 91.4848C4.47227 85.6108 7.07136 80.5166 10.2942 76.514C13.5691 72.4594 17.5197 69.3925 21.9382 67.6771C26.3566 65.9097 31.3469 65.4939 36.597 66.6894Z" fill="#FB7354"/>
</mask>
<g mask="url(#mask0_1555_796)">
<path d="M144.984 49.0357C143.373 43.1098 140.878 37.5478 137.603 32.6615C134.38 27.8272 130.481 23.6686 126.063 20.5497C121.697 17.4308 116.81 15.2995 111.716 14.4159C110.884 14.2599 110.053 14.1559 109.221 14.104C108.389 14.052 107.557 14 106.778 14C105.946 14 105.166 14.052 104.387 14.104C103.607 14.1559 102.827 14.2599 102.047 14.4159C44.3476 23.9805 -13.3002 33.6491 -71 43.2658C-70.2203 43.1098 -69.4405 43.0578 -68.6088 43.0058C-67.7771 42.9539 -66.9974 42.9539 -66.1657 42.9539C-65.334 43.0058 -64.5023 43.0578 -63.6186 43.1618C-62.7869 43.2658 -61.9032 43.4217 -61.0195 43.6296C-55.7173 44.8772 -50.5711 47.5802 -45.8928 51.5309C-41.1624 55.4815 -36.8999 60.6797 -33.3652 66.6576C-29.7784 72.6875 -26.8675 79.5491 -24.9441 86.8265C-22.9688 94.104 -21.9812 101.849 -22.0851 109.595L-24.0084 226.346L140.514 164.643L146.856 67.5932C147.324 61.3034 146.596 54.9617 144.984 49.0357Z" fill="url(#paint2_linear_1555_796)"/>
</g>
<path d="M30.6193 66.0137V76.41C31.8149 76.41 33.0105 76.566 34.2581 76.8259C37.8448 77.6576 41.4316 79.5809 44.9663 82.5439C48.709 85.7148 52.2957 90.0293 55.2587 95.0715C58.4296 100.374 60.8727 106.3 62.5882 112.641C64.3555 119.243 65.1872 125.949 65.0833 132.55L63.4718 234.175L11.0222 213.07L10.4504 111.03C10.3984 105 11.1781 99.438 12.6856 94.4477C14.0371 89.9253 16.0125 85.9747 18.4556 82.9597C20.6388 80.2567 23.082 78.3334 25.7331 77.2937C27.2925 76.6699 28.9559 76.358 30.6713 76.358L30.6193 66.0137ZM30.6193 66.0137C27.5524 66.0137 24.6414 66.5855 21.8864 67.6251C17.4679 69.3405 13.5173 72.3555 10.2425 76.462C7.0196 80.5166 4.42051 85.5588 2.65313 91.4328C0.885745 97.2547 -0.049927 103.908 0.00205476 111.082L0.625836 220.088L73.5563 249.457L75.4796 132.706C75.5836 124.961 74.596 117.268 72.6206 109.938C70.6453 102.661 67.7863 95.7992 64.1996 89.7694C60.6128 83.7395 56.3503 78.5933 51.672 74.6427C46.9936 70.692 41.8994 67.937 36.5453 66.7414C34.57 66.2216 32.5427 66.0137 30.6193 66.0137Z" fill="#F8BA55"/>
<path d="M164.992 30.0942L144.148 34.9804L132.66 37.6835C132.036 37.8394 131.464 38.1513 130.892 38.5672C130.372 38.983 129.853 39.5548 129.489 40.1786C129.073 40.8024 128.761 41.5302 128.553 42.3099C128.345 43.0896 128.189 43.8693 128.241 44.701L128.449 64.766L128.865 108.743C128.865 109.21 128.813 109.73 128.761 110.198C128.657 110.666 128.553 111.186 128.345 111.654C128.189 112.121 127.929 112.589 127.721 113.005C127.461 113.421 127.202 113.837 126.838 114.201C125.382 115.812 124.031 117.632 122.835 119.607C121.639 121.582 120.652 123.713 119.82 125.897C118.988 128.132 118.417 130.419 118.001 132.758C117.637 135.097 117.481 137.489 117.637 139.828C117.793 142.999 118.469 145.806 119.508 148.197C120.548 150.588 121.951 152.615 123.667 154.123C125.382 155.63 127.357 156.67 129.541 157.138C131.724 157.606 134.063 157.502 136.506 156.774C136.558 156.774 136.662 156.722 136.714 156.722C136.766 156.722 136.87 156.67 136.922 156.67C136.974 156.67 137.026 156.618 137.13 156.618C137.182 156.618 137.234 156.566 137.338 156.566C139.937 155.63 142.432 154.123 144.667 152.095C146.903 150.12 148.878 147.625 150.593 144.922C152.257 142.167 153.608 139.152 154.544 135.929C155.48 132.758 155.999 129.379 155.999 126.053C155.999 123.817 155.74 121.738 155.324 119.867C154.908 117.943 154.232 116.228 153.452 114.669C152.621 113.109 151.685 111.758 150.541 110.614C149.398 109.47 148.15 108.587 146.747 107.911C146.435 107.755 146.123 107.547 145.863 107.287C145.603 107.027 145.395 106.715 145.187 106.351C144.979 105.988 144.875 105.572 144.771 105.156C144.667 104.74 144.615 104.272 144.615 103.752L144.459 66.4294C144.459 65.6497 144.563 64.87 144.771 64.0903C144.979 63.3625 145.291 62.6348 145.707 62.011C146.123 61.3872 146.591 60.8674 147.059 60.3996C147.578 59.9837 148.15 59.6718 148.722 59.5159L165.044 55.3053C165.616 55.1494 166.188 54.8375 166.656 54.4216C167.176 54.0058 167.591 53.486 168.007 52.8622C168.371 52.2384 168.683 51.5626 168.891 50.8349C169.099 50.1072 169.203 49.3274 169.203 48.5477L169.255 34.8245C169.255 34.0448 169.151 33.317 168.943 32.6932C168.735 32.0695 168.423 31.4977 168.059 31.0818C167.695 30.666 167.228 30.3541 166.708 30.1461C166.136 29.9902 165.564 29.9382 164.992 30.0942Z" fill="url(#paint3_linear_1555_796)"/>
<g filter="url(#filter1_i_1555_796)">
<path d="M296.692 23.3516L422.764 23.8726C452.98 23.3516 456.679 39.8169 454.491 61.1802L434.642 255.169C432.871 272.625 418.18 285.547 401.04 284.713L253.452 258.869C241.053 258.296 246.575 235.63 252.41 224.479C262.1 205.982 255.692 207.18 259.756 183.681C264.08 158.67 266.997 103.229 268.456 69.3608C269.185 52.9997 280.855 25.1753 296.692 23.3516Z" fill="url(#paint4_linear_1555_796)"/>
</g>
<g filter="url(#filter2_i_1555_796)">
<path d="M278.511 32.1578L400.26 29.813C421.202 29.3962 437.3 49.4048 433.184 70.7681L395.779 264.861C392.393 282.317 376.608 293.988 359.625 291.487L208.129 269.499C195.835 267.727 189.427 253.138 196.251 242.404C207.556 224.636 221.883 199.26 228.082 175.865C234.698 151.011 242.617 95.3098 247.149 61.1806C249.337 44.7152 262.622 32.4704 278.511 32.1578Z" fill="white"/>
</g>
<g filter="url(#filter3_i_1555_796)">
<path d="M273.614 0.164633L398.853 12.8263C420.42 15.0147 434.33 36.6907 427.401 57.2203L364.105 243.654C358.426 260.432 340.713 269.967 323.574 265.434L170.932 225.105C158.533 221.822 153.845 206.659 162.232 196.967C176.142 180.867 194.063 157.628 203.44 135.379C213.391 111.723 228.707 57.8455 237.719 24.8106C242.096 8.97048 257.255 -1.45064 273.614 0.164633Z" fill="white"/>
</g>
<path d="M262.727 45.4967L257.101 62.3789C254.652 69.7258 259.445 77.5417 267.103 78.6359L323.836 86.9207C329.827 87.8065 335.558 84.2633 337.485 78.4796L343.528 60.1384C345.977 52.6873 340.976 44.8193 333.161 43.8814L276.064 37.0556C270.177 36.3782 264.603 39.8693 262.727 45.4967Z" fill="url(#paint5_linear_1555_796)"/>
<path d="M367.283 124.697C367.023 124.697 366.814 124.697 366.554 124.645L247.67 108.284C244.805 107.867 242.826 105.262 243.242 102.396C243.659 99.5302 246.264 97.5502 249.129 97.967L368.012 114.328C370.878 114.745 372.857 117.35 372.441 120.216C372.076 122.821 369.836 124.697 367.283 124.697ZM364.626 143.195C365.043 140.329 363.115 137.671 360.25 137.255L241.471 119.018C238.606 118.601 235.949 120.529 235.532 123.395C235.115 126.26 237.043 128.918 239.908 129.335L358.687 147.572C358.948 147.624 359.208 147.624 359.469 147.624C362.021 147.624 364.209 145.8 364.626 143.195ZM356.239 167.267C356.76 164.454 354.832 161.744 352.019 161.223L233.24 140.381C230.427 139.86 227.718 141.788 227.197 144.602C226.676 147.415 228.603 150.125 231.417 150.646L350.196 171.488C350.508 171.54 350.821 171.592 351.081 171.592C353.634 171.592 355.822 169.821 356.239 167.267ZM334.879 211.766C335.504 208.952 333.733 206.19 330.92 205.565L213.704 180.033C210.891 179.408 208.13 181.18 207.504 183.993C206.879 186.807 208.651 189.569 211.464 190.194L328.68 215.726C329.045 215.83 329.409 215.83 329.774 215.83C332.17 215.882 334.358 214.215 334.879 211.766Z" fill="#E8F0FF"/>
<defs>
<filter id="filter0_i_1555_796" x="118.553" y="167.218" width="50.5459" height="176.782" filterUnits="userSpaceOnUse" color-interpolation-filters="sRGB">
<feFlood flood-opacity="0" result="BackgroundImageFix"/>
<feBlend mode="normal" in="SourceGraphic" in2="BackgroundImageFix" result="shape"/>
<feColorMatrix in="SourceAlpha" type="matrix" values="0 0 0 0 0 0 0 0 0 0 0 0 0 0 0 0 0 0 127 0" result="hardAlpha"/>
<feOffset dx="-10" dy="-12"/>
<feGaussianBlur stdDeviation="9"/>
<feComposite in2="hardAlpha" operator="arithmetic" k2="-1" k3="1"/>
<feColorMatrix type="matrix" values="0 0 0 0 0.477078 0 0 0 0 0.262111 0 0 0 0 0.933333 0 0 0 1 0"/>
<feBlend mode="normal" in2="shape" result="effect1_innerShadow_1555_796"/>
</filter>
<filter id="filter1_i_1555_796" x="245.994" y="23.3516" width="209.015" height="261.4" filterUnits="userSpaceOnUse" color-interpolation-filters="sRGB">
<feFlood flood-opacity="0" result="BackgroundImageFix"/>
<feBlend mode="normal" in="SourceGraphic" in2="BackgroundImageFix" result="shape"/>
<feColorMatrix in="SourceAlpha" type="matrix" values="0 0 0 0 0 0 0 0 0 0 0 0 0 0 0 0 0 0 127 0" result="hardAlpha"/>
<feOffset dx="-6" dy="-6"/>
<feComposite in2="hardAlpha" operator="arithmetic" k2="-1" k3="1"/>
<feColorMatrix type="matrix" values="0 0 0 0 0.984314 0 0 0 0 0.45098 0 0 0 0 0.329412 0 0 0 1 0"/>
<feBlend mode="normal" in2="shape" result="effect1_innerShadow_1555_796"/>
</filter>
<filter id="filter2_i_1555_796" x="189.47" y="26.8066" width="244.36" height="265.018" filterUnits="userSpaceOnUse" color-interpolation-filters="sRGB">
<feFlood flood-opacity="0" result="BackgroundImageFix"/>
<feBlend mode="normal" in="SourceGraphic" in2="BackgroundImageFix" result="shape"/>
<feColorMatrix in="SourceAlpha" type="matrix" values="0 0 0 0 0 0 0 0 0 0 0 0 0 0 0 0 0 0 127 0" result="hardAlpha"/>
<feOffset dx="-4" dy="-3"/>
<feGaussianBlur stdDeviation="3"/>
<feComposite in2="hardAlpha" operator="arithmetic" k2="-1" k3="1"/>
<feColorMatrix type="matrix" values="0 0 0 0 0.803922 0 0 0 0 0.847059 0 0 0 0 0.968627 0 0 0 1 0"/>
<feBlend mode="normal" in2="shape" result="effect1_innerShadow_1555_796"/>
</filter>
<filter id="filter3_i_1555_796" x="154" y="-3" width="275.195" height="269.56" filterUnits="userSpaceOnUse" color-interpolation-filters="sRGB">
<feFlood flood-opacity="0" result="BackgroundImageFix"/>
<feBlend mode="normal" in="SourceGraphic" in2="BackgroundImageFix" result="shape"/>
<feColorMatrix in="SourceAlpha" type="matrix" values="0 0 0 0 0 0 0 0 0 0 0 0 0 0 0 0 0 0 127 0" result="hardAlpha"/>
<feOffset dx="-4" dy="-3"/>
<feGaussianBlur stdDeviation="3"/>
<feComposite in2="hardAlpha" operator="arithmetic" k2="-1" k3="1"/>
<feColorMatrix type="matrix" values="0 0 0 0 0.803922 0 0 0 0 0.847059 0 0 0 0 0.968627 0 0 0 1 0"/>
<feBlend mode="normal" in2="shape" result="effect1_innerShadow_1555_796"/>
</filter>
<linearGradient id="paint0_linear_1555_796" x1="146" y1="220.5" x2="149" y2="265" gradientUnits="userSpaceOnUse">
<stop stop-color="#7A43EE"/>
<stop offset="1" stop-color="#B565E6"/>
</linearGradient>
<linearGradient id="paint1_linear_1555_796" x1="121" y1="57" x2="153" y2="213.5" gradientUnits="userSpaceOnUse">
<stop stop-color="#F8BA55"/>
<stop offset="1" stop-color="#FB7354"/>
</linearGradient>
<linearGradient id="paint2_linear_1555_796" x1="38" y1="134" x2="65.5" y2="243.5" gradientUnits="userSpaceOnUse">
<stop stop-color="#FB7354"/>
<stop offset="1" stop-color="#F8BA55"/>
</linearGradient>
<linearGradient id="paint3_linear_1555_796" x1="144.486" y1="132.789" x2="91.9394" y2="101.824" gradientUnits="userSpaceOnUse">
<stop stop-color="#7A43EE"/>
<stop offset="1" stop-color="#B565E6"/>
</linearGradient>
<linearGradient id="paint4_linear_1555_796" x1="455" y1="32.5" x2="281" y2="259" gradientUnits="userSpaceOnUse">
<stop stop-color="#F8BA55"/>
<stop offset="1" stop-color="#FB7354"/>
</linearGradient>
<linearGradient id="paint5_linear_1555_796" x1="302.122" y1="77.3739" x2="286.046" y2="36.473" gradientUnits="userSpaceOnUse">
<stop stop-color="#7A43EE"/>
<stop offset="1" stop-color="#B565E6"/>
</linearGradient>
</defs>
</svg>
