<svg width="517" height="347" viewBox="0 0 517 347" fill="none" xmlns="http://www.w3.org/2000/svg">
<path d="M339.071 153.445C339.071 174.526 349.047 237.657 356.252 264.95C359.965 278.986 368.667 301.342 375.207 319.871C378.532 329.246 372.325 339.343 362.459 340.618L320.449 345.889C312.69 346.887 306.362 341.868 303.435 334.405C297 318 295.886 311.5 291.408 285.476C283.178 237.65 291.962 161.212 291.962 161.212L339.071 153.445Z" fill="url(#paint0_linear_3_236)"/>
<path d="M251.615 146.789C248.899 166.538 237.26 228.226 228.393 253.412C221.243 273.827 206.39 293.409 196.802 304.671C192.923 309.275 195.139 316.376 200.903 317.929L243.966 329.524C251.116 331.465 257.545 327.305 261.424 320.981C267.909 310.44 276.056 286.586 281.266 259.237C289.025 218.684 294.678 160.214 294.678 160.214L251.615 146.789Z" fill="url(#paint1_linear_3_236)"/>
<path d="M415 113.725C415.443 78.3319 399.925 42.1621 368.888 23.4669C360.686 18.5297 351.818 14.6464 343.283 10.3193C379.086 28.2933 392.607 68.2224 391 107C389.005 154.708 363.174 196.863 320 218C293.286 231.092 262.81 238.1 235.819 224.564C252.391 232.886 268.241 241.706 287.085 243.481C304.432 245.09 321.89 241.706 337.741 234.605C367.558 221.18 391.057 195.44 403.86 165.539C410.843 149.229 414.778 131.477 415 113.725Z" fill="url(#paint2_linear_3_236)"/>
<g filter="url(#filter0_i_3_236)">
<path fill-rule="evenodd" clip-rule="evenodd" d="M390.78 135.361C407.241 71.8415 375.207 12.3167 319.286 2.38662C263.365 -7.48796 204.728 35.9491 188.323 99.5236C171.862 163.043 203.786 222.512 259.762 232.442C315.739 242.372 374.375 198.88 390.78 135.361ZM369.557 129.895C382.699 78.9122 357.065 31.0921 312.315 23.1312C267.564 15.1703 220.586 50.0675 207.443 101.105C194.301 152.142 219.935 199.907 264.685 207.868C309.491 215.829 356.414 180.932 369.557 129.895Z" fill="#F8BA55"/>
<path fill-rule="evenodd" clip-rule="evenodd" d="M390.78 135.361C407.241 71.8415 375.207 12.3167 319.286 2.38662C263.365 -7.48796 204.728 35.9491 188.323 99.5236C171.862 163.043 203.786 222.512 259.762 232.442C315.739 242.372 374.375 198.88 390.78 135.361ZM369.557 129.895C382.699 78.9122 357.065 31.0921 312.315 23.1312C267.564 15.1703 220.586 50.0675 207.443 101.105C194.301 152.142 219.935 199.907 264.685 207.868C309.491 215.829 356.414 180.932 369.557 129.895Z" fill="url(#paint3_linear_3_236)"/>
</g>
<path d="M312.854 21.4675C358.522 29.5669 384.681 78.2186 371.269 130.088C357.857 182.013 309.972 217.517 264.249 209.417C218.581 201.318 192.422 152.722 205.834 100.797C219.246 48.8723 267.186 13.3682 312.854 21.4675Z" fill="#FB7354"/>
<path d="M305.534 46.7087C309.635 47.5963 312.683 50.8694 313.515 56.5278C314.845 65.4593 316.12 74.3908 317.394 83.3223C317.561 84.4873 317.949 85.0975 319.002 85.4304C326.484 88.1487 333.966 90.9224 341.448 93.7517C345.937 95.4714 348.375 99.1327 348.597 104.514C348.819 110.006 346.713 114.666 342.279 118.105C334.686 123.986 326.982 129.755 319.334 135.524C318.558 136.135 318.226 136.745 318.115 137.688C316.951 147.452 315.842 157.215 314.568 167.034C313.847 172.748 310.965 177.131 306.033 179.627C303.372 180.959 300.878 181.402 298.551 181.014C296.5 180.626 294.616 179.627 292.898 177.963C287.245 172.582 281.647 167.201 276.105 161.709C275.717 161.32 275.329 161.098 274.885 160.988C274.442 160.932 273.999 160.988 273.389 161.209C265.519 164.316 257.649 167.423 249.779 170.418C247.507 171.306 245.29 171.472 243.295 171.139C237.642 170.141 233.707 164.76 234.538 157.493C234.815 154.885 235.979 152.278 236.977 149.782C240.302 141.571 243.683 133.416 247.119 125.262C247.618 124.097 247.618 123.209 247.063 122.155C243.128 114.777 239.36 107.288 235.48 99.8539C232.931 95.0276 232.875 89.8684 235.979 84.5428C239.083 79.2172 243.572 76.9982 248.948 76.9982C256.762 77.0536 264.577 76.9427 272.391 76.9427C273.611 76.9427 274.331 76.4434 275.107 75.3339C280.594 67.6783 286.136 60.0228 291.678 52.4227C295.004 47.9292 299.825 45.7102 305.534 46.7087Z" fill="url(#paint4_linear_3_236)"/>
<g filter="url(#filter1_i_3_236)">
<path d="M409.887 263.325C408.772 275.241 396.784 283.863 383.111 282.584C382.413 282.518 381.723 282.428 381.043 282.315C378.67 290.726 369.546 296.469 359.282 295.509C347.9 294.443 339.425 285.539 340.353 275.619C341.218 266.383 349.931 259.523 360.316 259.483C360.33 259.22 360.349 258.956 360.374 258.692C361.489 246.776 373.477 238.154 387.149 239.433C400.822 240.713 411.002 251.41 409.887 263.325Z" fill="white"/>
</g>
<g filter="url(#filter2_i_3_236)">
<path d="M477.307 269.937C477.307 295.86 456.293 316.874 430.37 316.874C418.653 316.874 407.939 312.581 399.715 305.482C395.556 309.664 389.797 312.253 383.433 312.253C370.751 312.253 360.47 301.972 360.47 289.29C360.47 276.608 370.751 266.327 383.433 266.327C383.478 266.327 383.524 266.327 383.57 266.327C385.413 242.091 405.662 223 430.37 223C456.293 223 477.307 244.014 477.307 269.937Z" fill="white"/>
</g>
<g filter="url(#filter3_i_3_236)">
<path d="M482.325 303.832C498.789 305.373 513.225 294.99 514.568 280.642C515.911 266.293 503.652 253.412 487.187 251.871C470.722 250.331 456.287 260.713 454.944 275.062C453.601 289.411 465.86 302.292 482.325 303.832Z" fill="white"/>
</g>
<g filter="url(#filter4_i_3_236)">
<path d="M77.091 209.876L70.2428 223.686C67.996 228.296 71.0824 233.364 75.2687 231.932L107.85 220.427L132.976 228.998C152.146 235.524 175.513 219.998 185.153 194.236L205.014 141.163C214.655 115.401 205.172 91.5041 183.865 87.7479L121.745 76.77C100.438 73.0137 77.2951 88.2512 70.1389 110.78L51.6577 161.393C42.1256 188.325 57.9208 203.35 77.091 209.876Z" fill="white"/>
</g>
<path d="M95.3475 130.787C95.7323 130.187 96.0674 129.578 96.5021 128.988C99.0604 125.44 103.24 123.994 106.705 125.603C109.864 127.028 111.334 131.251 109.985 135.285C106.06 146.919 102.114 158.61 98.1395 170.234C96.6838 174.554 92.5317 177.357 88.8951 176.636C85.0095 175.866 82.671 171.962 83.3795 167.494C83.3939 167.312 83.4297 167.073 83.4441 166.892C87.3478 154.885 91.3725 142.841 95.3475 130.787ZM147.561 134.253C149.357 131.168 150.727 127.937 151.74 124.512C152.954 120.268 153.506 116.076 152.548 112.199C151.683 108.648 149.57 106.571 146.183 105.899C144.34 105.534 142.688 106.374 141.369 108.325C141.027 108.81 140.735 109.305 140.542 109.82C139.658 112.041 138.823 114.272 137.889 116.483C135.564 121.982 132.122 126.462 127.137 129.345C123.797 131.264 120.373 132.121 116.92 132.481C115.254 132.643 114.713 133.089 114.099 134.872C112.237 140.278 110.425 145.695 108.562 151.102C106.557 157.033 104.502 162.955 102.497 168.886C100.427 174.989 102.657 180.899 107.596 182.431C116.42 185.163 125.215 187.828 134.082 190.445C138.615 191.774 143.528 188.938 146.401 183.547C151.72 173.48 157.06 163.355 162.449 153.24C165.836 146.907 164.489 140.065 159.438 137.835C158.883 137.602 158.306 137.427 157.708 137.308C154.214 136.493 150.77 135.687 147.226 134.862C147.383 134.586 147.447 134.414 147.561 134.253Z" fill="url(#paint5_linear_3_236)"/>
<defs>
<filter id="filter0_i_3_236" x="179.995" y="-2.0127" width="215.105" height="235.867" filterUnits="userSpaceOnUse" color-interpolation-filters="sRGB">
<feFlood flood-opacity="0" result="BackgroundImageFix"/>
<feBlend mode="normal" in="SourceGraphic" in2="BackgroundImageFix" result="shape"/>
<feColorMatrix in="SourceAlpha" type="matrix" values="0 0 0 0 0 0 0 0 0 0 0 0 0 0 0 0 0 0 127 0" result="hardAlpha"/>
<feOffset dx="-4" dy="-3"/>
<feGaussianBlur stdDeviation="3"/>
<feComposite in2="hardAlpha" operator="arithmetic" k2="-1" k3="1"/>
<feColorMatrix type="matrix" values="0 0 0 0 0.984314 0 0 0 0 0.45098 0 0 0 0 0.329412 0 0 0 1 0"/>
<feBlend mode="normal" in2="shape" result="effect1_innerShadow_3_236"/>
</filter>
<filter id="filter1_i_3_236" x="327.284" y="234.308" width="82.6865" height="61.3057" filterUnits="userSpaceOnUse" color-interpolation-filters="sRGB">
<feFlood flood-opacity="0" result="BackgroundImageFix"/>
<feBlend mode="normal" in="SourceGraphic" in2="BackgroundImageFix" result="shape"/>
<feColorMatrix in="SourceAlpha" type="matrix" values="0 0 0 0 0 0 0 0 0 0 0 0 0 0 0 0 0 0 127 0" result="hardAlpha"/>
<feOffset dx="-13" dy="-5"/>
<feGaussianBlur stdDeviation="7.5"/>
<feComposite in2="hardAlpha" operator="arithmetic" k2="-1" k3="1"/>
<feColorMatrix type="matrix" values="0 0 0 0 0.803922 0 0 0 0 0.847059 0 0 0 0 0.968627 0 0 0 1 0"/>
<feBlend mode="normal" in2="shape" result="effect1_innerShadow_3_236"/>
</filter>
<filter id="filter2_i_3_236" x="354.47" y="214" width="122.838" height="102.875" filterUnits="userSpaceOnUse" color-interpolation-filters="sRGB">
<feFlood flood-opacity="0" result="BackgroundImageFix"/>
<feBlend mode="normal" in="SourceGraphic" in2="BackgroundImageFix" result="shape"/>
<feColorMatrix in="SourceAlpha" type="matrix" values="0 0 0 0 0 0 0 0 0 0 0 0 0 0 0 0 0 0 127 0" result="hardAlpha"/>
<feOffset dx="-6" dy="-9"/>
<feGaussianBlur stdDeviation="10"/>
<feComposite in2="hardAlpha" operator="arithmetic" k2="-1" k3="1"/>
<feColorMatrix type="matrix" values="0 0 0 0 0.803922 0 0 0 0 0.847059 0 0 0 0 0.968627 0 0 0 1 0"/>
<feBlend mode="normal" in2="shape" result="effect1_innerShadow_3_236"/>
</filter>
<filter id="filter3_i_3_236" x="449.844" y="246.72" width="64.8242" height="57.2642" filterUnits="userSpaceOnUse" color-interpolation-filters="sRGB">
<feFlood flood-opacity="0" result="BackgroundImageFix"/>
<feBlend mode="normal" in="SourceGraphic" in2="BackgroundImageFix" result="shape"/>
<feColorMatrix in="SourceAlpha" type="matrix" values="0 0 0 0 0 0 0 0 0 0 0 0 0 0 0 0 0 0 127 0" result="hardAlpha"/>
<feOffset dx="-5" dy="-5"/>
<feGaussianBlur stdDeviation="7.5"/>
<feComposite in2="hardAlpha" operator="arithmetic" k2="-1" k3="1"/>
<feColorMatrix type="matrix" values="0 0 0 0 0.803922 0 0 0 0 0.847059 0 0 0 0 0.968627 0 0 0 1 0"/>
<feBlend mode="normal" in2="shape" result="effect1_innerShadow_3_236"/>
</filter>
<filter id="filter4_i_3_236" x="46.7993" y="66.2012" width="161.986" height="165.978" filterUnits="userSpaceOnUse" color-interpolation-filters="sRGB">
<feFlood flood-opacity="0" result="BackgroundImageFix"/>
<feBlend mode="normal" in="SourceGraphic" in2="BackgroundImageFix" result="shape"/>
<feColorMatrix in="SourceAlpha" type="matrix" values="0 0 0 0 0 0 0 0 0 0 0 0 0 0 0 0 0 0 127 0" result="hardAlpha"/>
<feOffset dx="-2" dy="-10"/>
<feGaussianBlur stdDeviation="9"/>
<feComposite in2="hardAlpha" operator="arithmetic" k2="-1" k3="1"/>
<feColorMatrix type="matrix" values="0 0 0 0 0.803922 0 0 0 0 0.847059 0 0 0 0 0.968627 0 0 0 1 0"/>
<feBlend mode="normal" in2="shape" result="effect1_innerShadow_3_236"/>
</filter>
<linearGradient id="paint0_linear_3_236" x1="353" y1="247.5" x2="355.44" y2="316.559" gradientUnits="userSpaceOnUse">
<stop stop-color="#7A43EE"/>
<stop offset="1" stop-color="#B565E6"/>
</linearGradient>
<linearGradient id="paint1_linear_3_236" x1="275.5" y1="277.5" x2="227.381" y2="298.788" gradientUnits="userSpaceOnUse">
<stop stop-color="#7A43EE"/>
<stop offset="1" stop-color="#B565E6"/>
</linearGradient>
<linearGradient id="paint2_linear_3_236" x1="368.5" y1="-15.0005" x2="359.5" y2="221.5" gradientUnits="userSpaceOnUse">
<stop stop-color="#F8BA55"/>
<stop offset="1" stop-color="#FB7354"/>
</linearGradient>
<linearGradient id="paint3_linear_3_236" x1="222" y1="-47.0002" x2="299.679" y2="136.105" gradientUnits="userSpaceOnUse">
<stop stop-color="#E8F0FF"/>
<stop offset="1" stop-color="#F8BA55"/>
</linearGradient>
<linearGradient id="paint4_linear_3_236" x1="247.5" y1="1.5" x2="300.5" y2="127.5" gradientUnits="userSpaceOnUse">
<stop stop-color="#E8F0FF"/>
<stop offset="1" stop-color="#F8BA55"/>
</linearGradient>
<linearGradient id="paint5_linear_3_236" x1="119.765" y1="170.827" x2="95.827" y2="118.506" gradientUnits="userSpaceOnUse">
<stop stop-color="#7A43EE"/>
<stop offset="1" stop-color="#B565E6"/>
</linearGradient>
</defs>
</svg>
