<svg width="72" height="72" viewBox="0 0 72 72" fill="none" xmlns="http://www.w3.org/2000/svg">
<path d="M4.65611 72C4.28462 72 3.91314 72 3.54166 72C2.35291 71.4187 2 70.4625 2 69.1687C2.01857 47.0625 2.01857 24.9375 2 2.83125C2 1.5375 2.35291 0.5625 3.54166 0C3.91314 0 4.28462 0 4.65611 0C5.84485 0.54375 6.21633 1.4625 6.21633 2.75625C6.17919 9.1125 6.19776 15.45 6.19776 21.8063C6.19776 22.0688 6.19776 22.35 6.19776 22.6125C7.6094 22.6125 8.92816 22.6125 10.3026 22.6125C10.3026 22.2937 10.3026 22.0125 10.3026 21.75C10.3026 17.625 10.3026 13.5 10.3026 9.375C10.3026 7.5375 11.0642 6.76875 12.8845 6.76875C28.301 6.76875 43.699 6.76875 59.1155 6.76875C60.9172 6.76875 61.6973 7.5375 61.6973 9.375C61.6973 13.5188 61.6973 17.6625 61.6973 21.825C61.6973 22.0875 61.7159 22.3687 61.7345 22.6125C63.1276 22.6125 64.4463 22.6125 65.8022 22.6125C65.8022 22.2937 65.8022 22.0125 65.8022 21.7313C65.8022 15.4125 65.8208 9.075 65.7837 2.75625C65.7837 1.4625 66.1737 0.54375 67.3439 0C67.7154 0 68.0869 0 68.4583 0C69.6471 0.5625 70 1.5375 70 2.83125C69.9814 24.9375 69.9814 47.0625 70 69.1687C70 70.4625 69.6471 71.4375 68.4583 72C68.0869 72 67.7154 72 67.3439 72C66.1737 71.4563 65.7279 70.5375 65.7837 69.2437C65.858 67.65 65.8022 66.0562 65.8022 64.4625C65.8022 64.2375 65.7837 64.0125 65.7651 63.7875C45.8722 63.7875 26.0721 63.7875 6.19776 63.7875C6.19776 65.6438 6.14204 67.4437 6.21633 69.2437C6.27206 70.5375 5.84485 71.4563 4.65611 72ZM6.25348 26.9062C6.25348 34.9688 6.25348 42.9938 6.25348 51.0188C7.6094 51.0188 8.92816 51.0188 10.3212 51.0188C10.3212 50.7 10.3212 50.4188 10.3212 50.1562C10.3212 46.05 10.3212 41.9625 10.3212 37.8562C10.3212 35.925 11.0642 35.175 12.9773 35.175C28.3382 35.175 43.7176 35.175 59.0784 35.175C60.973 35.175 61.7159 35.925 61.7159 37.875C61.7159 41.9813 61.7159 46.0688 61.7159 50.175C61.7159 50.4563 61.7159 50.7188 61.7159 51.0188C63.1276 51.0188 64.4649 51.0188 65.7837 51.0188C65.7837 42.9563 65.7837 34.95 65.7837 26.925C45.9093 26.9063 26.0907 26.9062 6.25348 26.9062ZM65.7837 55.3313C45.8907 55.3313 26.0721 55.3313 6.23491 55.3313C6.23491 56.7375 6.23491 58.0875 6.23491 59.475C26.0907 59.475 45.9279 59.475 65.7837 59.475C65.7837 58.0875 65.7837 56.7375 65.7837 55.3313ZM18.1781 11.025C16.9151 11.025 15.7449 11.025 14.5561 11.025C14.5561 14.9062 14.5561 18.7687 14.5561 22.6125C18.401 22.6125 22.2087 22.6125 26.0164 22.6125C26.0164 18.7312 26.0164 14.8875 26.0164 11.0438C24.7905 11.0438 23.6017 11.0438 22.3573 11.0438C22.3573 11.5688 22.3759 12.0375 22.3573 12.5062C22.3201 13.6687 21.4286 14.55 20.3141 14.5875C19.1997 14.6063 18.2338 13.6875 18.1967 12.5062C18.1595 12.0375 18.1781 11.5687 18.1781 11.025ZM57.481 22.6312C57.481 18.7312 57.481 14.8875 57.481 11.025C56.2551 11.025 55.0849 11.025 53.8405 11.025C53.8405 11.5125 53.8591 11.9813 53.8405 12.4313C53.8033 13.6313 52.9118 14.55 51.7788 14.5687C50.6272 14.5875 49.6984 13.65 49.6799 12.4125C49.6613 11.9625 49.6799 11.4937 49.6799 11.025C48.4168 11.025 47.2281 11.025 46.0393 11.025C46.0393 14.9062 46.0393 18.7687 46.0393 22.6312C49.847 22.6312 53.6362 22.6312 57.481 22.6312ZM25.9978 51.0375C25.9978 47.1375 25.9978 43.2937 25.9978 39.45C24.7719 39.45 23.5832 39.45 22.3387 39.45C22.3387 39.9375 22.3573 40.3875 22.3387 40.8375C22.3016 42.0375 21.4286 42.9562 20.2955 42.9938C19.1439 43.0125 18.2152 42.075 18.1781 40.8562C18.1595 40.3875 18.1781 39.9375 18.1781 39.45C16.9151 39.45 15.7449 39.45 14.5561 39.45C14.5561 43.3312 14.5561 47.1937 14.5561 51.0562C18.3824 51.0375 22.153 51.0375 25.9978 51.0375ZM57.481 39.4313C56.218 39.4313 55.0478 39.4313 53.8219 39.4313C53.8219 39.9188 53.8405 40.35 53.8219 40.8C53.7848 42.0375 52.8746 42.975 51.723 42.975C50.5714 42.975 49.6613 42.0375 49.6427 40.7812C49.6427 40.3312 49.6427 39.8625 49.6427 39.4313C48.3611 39.4313 47.1909 39.4313 45.9836 39.4313C45.9836 43.3125 45.9836 47.1562 45.9836 51C49.8285 51 53.6547 51 57.4624 51C57.481 47.1188 57.481 43.3125 57.481 39.4313ZM41.7301 22.6312C41.7301 18.7312 41.7301 14.9062 41.7301 11.0438C40.4857 11.0438 39.3155 11.0438 38.0896 11.0438C38.0896 11.55 38.1082 11.9813 38.0896 12.4313C38.0524 13.6313 37.1609 14.55 36.0279 14.5687C34.8763 14.5875 33.9476 13.65 33.9104 12.4125C33.8918 11.9437 33.9104 11.4937 33.9104 11.025C32.6474 11.025 31.4772 11.025 30.2884 11.025C30.2884 14.9062 30.2884 18.7687 30.2884 22.6312C34.1147 22.6312 37.9039 22.6312 41.7301 22.6312ZM38.0896 39.4313C38.0896 39.75 38.0896 40.0125 38.0896 40.2937C38.0896 41.9812 37.3281 42.975 36.0093 42.975C34.7091 42.9937 33.9104 41.9813 33.9104 40.3125C33.9104 40.0125 33.9104 39.7313 33.9104 39.4313C32.6288 39.4313 31.4586 39.4313 30.2513 39.4313C30.2513 43.3125 30.2513 47.1375 30.2513 51C34.0961 51 37.9224 51 41.7301 51C41.7301 47.1188 41.7301 43.275 41.7301 39.4125C40.5042 39.4312 39.3341 39.4313 38.0896 39.4313Z" fill="#7A43EE"/>
</svg>
