<svg width="72" height="72" viewBox="0 0 72 72" fill="none" xmlns="http://www.w3.org/2000/svg">
<g clip-path="url(#clip0_131_308)">
<path d="M71.9625 53.4236C71.4003 54.7357 70.4258 55.2606 69.0203 55.1294C68.1395 55.0544 67.24 55.0919 66.3592 55.1294C66.1343 55.1481 65.8345 55.3356 65.7408 55.523C63.417 60.3218 59.8188 63.8271 54.9276 65.9641C54.5716 66.114 54.5154 66.3202 54.5903 66.6764C54.7402 67.4262 54.8527 68.1947 54.9839 68.9633C55.2462 70.6691 55.0213 71.1377 53.5783 72C50.3925 72 47.2067 72 44.0208 72C42.8777 71.5126 42.4654 70.5566 42.3529 69.3944C42.2967 68.8696 42.1843 68.3447 42.0906 67.8011C39.4669 67.8011 36.8995 67.8011 34.3321 67.8011C33.8636 69.3007 34.2759 71.2127 32.3644 72C29.1786 72 25.9927 72 22.8069 72C21.3639 71.1377 21.139 70.6691 21.4014 68.9633C21.5138 68.251 21.5888 67.5199 21.7574 66.8263C21.8699 66.3577 21.7762 66.1515 21.3076 65.9266C14.5424 62.8336 10.3071 57.66 8.84539 50.3494C7.83342 45.2507 8.78917 40.4332 11.3941 35.9719C11.6752 35.4845 11.6939 35.2033 11.3004 34.7722C10.1197 33.46 8.90161 32.2229 7.10255 31.9042C6.44664 31.7917 5.69703 31.8854 5.05986 32.0729C4.12285 32.3728 3.99167 33.0664 4.66632 33.7974C4.85372 34.0036 5.09734 34.1536 5.32223 34.3223C6.18428 35.0346 6.39042 36.2718 5.80947 37.1528C5.17231 38.0901 3.95419 38.39 2.96096 37.7714C1.51796 36.9279 0.580947 35.7094 0.149922 34.1161C0.112441 33.9849 0.0562207 33.8724 0 33.7412C0 33.1789 0 32.6165 0 32.0542C0.299844 31.3981 0.505986 30.6858 0.918272 30.1047C2.13639 28.3989 3.89797 27.6678 5.94066 27.5741C8.54555 27.4429 10.7194 28.5113 12.6684 30.1422C13.2868 30.667 13.849 31.2669 14.43 31.8105C14.4862 31.773 14.5424 31.7542 14.5799 31.7355C14.6923 31.6418 14.786 31.548 14.8797 31.4543C18.4779 28.024 22.7507 25.9807 27.6981 25.5871C30.3592 25.3809 33.039 25.4559 35.7002 25.4559C40.0479 25.4746 44.4144 25.5496 48.7621 25.5683C48.9682 25.5683 49.2493 25.3996 49.3618 25.2309C52.3977 20.8071 57.7574 20.0573 61.9552 21.2945C63.6231 21.8006 64.0729 23.5626 62.8922 24.856C61.5617 26.3181 60.7933 28.0427 60.2686 29.9172C60.2124 30.1234 60.3061 30.4796 60.4748 30.6295C62.7048 32.6165 64.4664 34.9596 65.7595 37.6589C65.8532 37.8651 66.1905 38.0713 66.4341 38.0713C67.3524 38.1276 68.2707 38.1463 69.1702 38.0713C70.482 37.9776 71.4378 38.4087 72 39.6272C71.9625 44.2385 71.9625 48.831 71.9625 53.4236ZM30.3592 65.5142C30.5841 64.2208 31.3524 63.546 32.683 63.546C36.3373 63.546 39.9917 63.546 43.646 63.546C45.014 63.546 45.7637 64.202 45.9885 65.5704C46.101 66.2827 46.2322 66.995 46.3633 67.7261C47.7501 67.7261 49.0994 67.7261 50.5049 67.7261C50.3738 66.9013 50.2426 66.114 50.1114 65.3455C49.8865 64.0521 50.3925 63.1336 51.6481 62.7212C56.8954 60.9404 60.4747 57.4163 62.48 52.2801C62.8922 51.1929 63.5669 50.7805 64.7663 50.7805C65.7033 50.7805 66.6403 50.7805 67.5773 50.7618C67.6148 50.7618 67.671 50.743 67.746 50.7055C67.746 47.95 67.746 45.1757 67.746 42.3265C66.7527 42.3265 65.7595 42.3265 64.785 42.3265C63.5481 42.3265 62.8922 41.8953 62.4612 40.7706C61.2806 37.6215 59.3691 35.0159 56.6705 32.9914C55.8084 32.3353 55.4711 31.5105 55.7897 30.4608C56.3332 28.6613 56.8766 26.843 57.4388 25.0247C56.1645 25.0997 54.8902 25.5308 53.8969 26.5056C53.2785 27.1054 52.7725 27.8178 52.3415 28.5488C51.6106 29.8047 51.0297 30.1234 49.6054 29.9547C48.2749 29.8047 46.9443 29.6735 45.6137 29.6735C40.1603 29.636 34.7069 29.6173 29.2535 29.6735C21.6262 29.7485 14.786 35.3533 13.0994 42.7951C11.1879 51.2679 15.9667 59.7032 24.3061 62.5712C26.0677 63.171 26.4612 63.8271 26.1801 65.6641C26.0677 66.339 25.974 66.9951 25.8615 67.7074C27.2483 67.7074 28.5976 67.7074 30.0031 67.7074C30.0968 66.9763 30.228 66.2452 30.3592 65.5142ZM37.2556 0C37.4243 0.0562354 37.5929 0.112471 37.7803 0.149961C43.5711 1.1622 47.5627 6.82322 46.5133 12.5592C45.4638 18.239 39.7855 22.1192 34.0698 21.0508C29.5159 20.2072 26.1801 16.6082 25.5242 11.8282C24.9245 7.62926 27.3982 3.03671 31.3712 1.12471C32.4394 0.599844 33.6762 0.374902 34.8568 0C35.6627 0 36.4498 0 37.2556 0ZM35.9813 17.0018C39.5044 17.0018 42.4466 14.1151 42.4466 10.666C42.4466 7.19813 39.4482 4.21765 35.9813 4.21765C32.5331 4.21765 29.6471 7.17938 29.6658 10.7035C29.6658 14.1713 32.5143 17.0018 35.9813 17.0018ZM36.1312 38.0901C38.8485 38.0901 41.5658 38.0901 44.2644 38.0901C45.6887 38.0901 46.6445 37.2466 46.6632 35.9906C46.6819 34.7347 45.7074 33.8724 44.3019 33.8724C38.811 33.8724 33.3014 33.8724 27.8105 33.8724C26.405 33.8724 25.4305 34.7534 25.4492 35.9906C25.468 37.2466 26.4237 38.0713 27.848 38.0713C30.6028 38.1088 33.3576 38.0901 36.1312 38.0901ZM50.8797 40.1895C50.861 41.333 51.798 42.289 52.9412 42.3265C54.1031 42.3452 55.0963 41.3705 55.0963 40.2083C55.0963 39.0648 54.1405 38.1088 52.9974 38.1088C51.8542 38.0901 50.8985 39.0461 50.8797 40.1895Z" fill="#FB7354"/>
</g>
<defs>
<clipPath id="clip0_131_308">
<rect width="72" height="72" fill="white"/>
</clipPath>
</defs>
</svg>
