<svg width="386" height="381" viewBox="0 0 386 381" fill="none" xmlns="http://www.w3.org/2000/svg">
<g filter="url(#filter0_i_211_1681)">
<path d="M200.644 117.934C198.636 116.595 196.124 116.195 193.762 116.893C175.709 122.338 172.712 122.514 143.236 132.906C109.913 144.7 2.31208 171.541 8.28011 197.454C14.2481 223.367 61.5768 348.388 62.7413 351.208C63.9059 354.029 49.4039 322.359 162.234 289.165C182.439 283.225 211.429 274.746 223.441 270.795C225.548 270.104 227.256 268.578 228.23 266.551L233.79 254.922C235.22 251.967 234.725 248.477 232.508 246.002L223.054 235.359C221.243 233.305 220.541 230.481 221.271 227.841L225.426 212.571C226.119 209.992 225.537 207.243 223.786 205.226L215.641 195.57C214.021 193.677 213.375 191.097 213.895 188.661L218.067 168.547C218.602 165.953 217.825 163.249 215.987 161.304L205.984 150.736C204.289 148.964 203.519 146.516 203.795 144.135L205.953 126.905C206.338 123.882 204.971 120.851 202.422 119.172L200.644 117.934Z" fill="#CDD8F7"/>
</g>
<g filter="url(#filter1_i_211_1681)">
<path d="M43.2505 201.756C43.2505 201.756 34.524 206.34 22.3396 207.087C17.7704 207.367 13.1387 204.47 9.09393 200.768C17.7031 232.559 62.8869 351.844 63.0558 352.578C77.0127 366.456 98.0362 361.614 98.0362 361.614L43.2505 201.756Z" fill="url(#paint0_linear_211_1681)"/>
</g>
<path d="M251.943 380.096L123.01 285.316L128.682 168.792L267.72 265.994L251.943 380.096Z" fill="url(#paint1_linear_211_1681)"/>
<path d="M219.03 277.043L173.531 248.68L175.363 201.881L223.994 235.267L219.03 277.043Z" fill="url(#paint2_linear_211_1681)"/>
<path d="M385.839 167.551L362.912 282.303L251.941 380.096L267.718 265.994L385.839 167.551Z" fill="#CDD8F7"/>
<path d="M267.72 265.994L128.682 168.791L249.934 79.2705L385.84 167.55L267.72 265.994Z" fill="white"/>
<path d="M223.994 235.267L175.363 201.882L296.615 112.361L342.114 136.824L223.994 235.267Z" fill="url(#paint3_linear_211_1681)"/>
<path d="M359.964 80.039C362.741 78.03 365.755 76.1982 368.887 74.8982C371.664 73.7164 374.736 72.8301 377.75 73.1846C379.168 73.3619 380.527 73.7755 381.65 74.6028C378.814 72.5937 375.918 70.5847 373.082 68.5756C367.409 64.5575 361.737 60.5985 356.005 56.5804C351.691 53.5668 347.378 50.4942 343.064 47.4806C341.883 46.6534 340.76 45.8852 339.401 45.4716C335.442 44.2898 331.128 45.5307 327.465 47.067C322.383 49.2533 317.833 52.5623 313.638 56.1077C308.97 60.0667 304.656 64.4984 300.756 69.2256C293.547 77.9118 287.343 87.7206 283.088 98.1795C280.961 103.438 279.189 109.052 278.775 114.725C278.42 119.511 278.893 125.243 283.029 128.315C286.279 130.738 289.588 133.161 292.838 135.583C298.452 139.779 304.124 143.974 309.738 148.169C313.579 151.006 317.42 153.901 321.26 156.737C321.438 156.856 321.674 157.033 321.851 157.151C319.547 155.437 318.542 152.601 318.188 149.824C317.833 146.81 318.129 143.738 318.719 140.783C319.842 134.874 322.029 129.142 324.628 123.706C329.828 112.775 336.742 102.611 344.837 93.6887C349.446 88.7252 354.469 83.998 359.964 80.039Z" fill="url(#paint4_linear_211_1681)"/>
<path d="M355.802 94.1186C357.695 92.5909 359.715 91.2541 361.862 90.1083C363.819 89.1535 365.965 88.326 368.112 88.3897C370.005 88.4533 371.773 89.2808 372.72 90.9995C373.73 92.7818 373.856 95.0098 373.73 96.9831C373.414 102.012 371.457 106.977 369.311 111.433C366.975 116.207 364.134 120.726 360.978 124.927C357.822 129.065 354.35 132.948 350.372 136.322C346.9 139.25 342.734 142.369 338.189 143.069C336.295 143.387 334.211 143.069 332.823 141.605C331.434 140.141 331.055 138.04 331.055 136.131C330.929 131.166 332.759 126.201 334.78 121.745C339.072 112.26 345.385 103.412 353.087 96.4738C353.908 95.71 354.855 94.8824 355.802 94.1186Z" fill="#FB7354"/>
<path d="M357.58 81.4251C360.608 79.0437 363.753 76.9005 367.196 75.2335C370.283 73.7452 373.725 72.4354 377.227 72.614C380.314 72.7331 382.985 74.3405 384.41 77.1386C385.893 80.0558 386.012 83.5683 385.715 86.7237C385.062 94.7013 381.976 102.441 378.474 109.525C374.794 116.967 370.283 123.992 365.237 130.6C360.251 137.09 354.731 143.162 348.499 148.401C345.472 150.902 342.326 153.283 338.883 155.188C335.796 156.974 332.413 158.463 328.852 158.879C325.765 159.237 322.56 158.582 320.542 156.081C318.583 153.7 318.049 150.366 318.049 147.389C318.049 143.639 318.82 139.828 319.83 136.197C320.957 132.267 322.441 128.457 324.163 124.766C327.605 117.205 331.998 110.121 336.865 103.393C341.732 96.785 347.134 90.5339 353.247 85.0567C354.672 83.8065 356.096 82.6158 357.58 81.4251ZM349.448 135.959C356.987 129.886 363.16 121.73 367.552 113.097C369.689 108.93 371.589 104.346 372.182 99.6426C372.657 96.1301 372.301 91.0697 367.968 90.4148C365.95 90.1171 363.872 90.772 362.032 91.546C360.073 92.439 358.233 93.6297 356.453 94.8799C352.594 97.7375 349.152 101.25 346.125 104.941C342.979 108.751 340.129 112.859 337.755 117.205C335.5 121.373 333.482 125.778 332.591 130.481C331.938 133.815 331.404 139.352 335.262 141.079C337.102 141.912 339.239 141.495 341.079 140.9C343.038 140.245 344.878 139.173 346.599 138.042C347.549 137.447 348.499 136.733 349.448 135.959Z" fill="#F8BA55"/>
<path d="M141.07 82.4768L144.179 83.0665C149.033 83.9742 153.647 80.8049 154.597 76.0288L158.549 55.5242C159.457 50.6699 156.287 46.0567 151.511 45.1063L148.402 44.5167C143.547 43.6089 138.934 46.7783 137.984 51.5544L134.032 72.059C133.064 76.8955 136.276 81.5869 141.07 82.4768Z" fill="#FB7354"/>
<g filter="url(#filter2_i_211_1681)">
<path d="M175.475 74.049C174.479 84.9847 167.643 142.398 166.269 147.05C164.896 151.701 164.222 161.549 147.688 160.608C131.154 159.667 48.3047 149.787 35.6183 147.158C22.9319 144.529 16.35 140.353 18.5411 121.365C20.7925 102.394 24.7714 66.0048 25.8666 58.5133C26.9619 51.0218 32.423 45.87 47.0889 41.7939C61.7548 37.7178 65.2365 39.271 67.5934 38.8505C69.9504 38.4299 74.5469 34.2049 76.5012 31.367C78.4376 28.5894 83.5409 18.8664 90.8523 18.7921C98.1636 18.7178 114.113 21.1936 119.368 22.7451C123.476 23.9578 128.485 29.9022 130.095 33.7923C131.478 36.8931 133.608 46.5845 143.536 48.9902C153.482 51.3356 160.751 55.1888 167.153 58.1952C173.554 61.2016 176.247 65.8712 175.475 74.049Z" fill="#B565E5"/>
</g>
<path d="M47.09 41.7942C61.7559 37.7181 65.2376 39.2713 67.5946 38.8508C69.9515 38.4302 74.5481 34.2052 76.5023 31.3672C78.4387 28.5897 83.542 18.8666 90.8534 18.7923C98.1647 18.718 114.114 21.1939 119.369 22.7454C123.477 23.9581 128.486 29.9025 130.096 33.7926C131.479 36.8934 133.609 46.5847 143.537 48.9905C153.483 51.3358 160.752 55.189 167.154 58.1954C173.555 61.2018 176.11 65.8962 175.337 74.074C175.107 76.6329 174.551 81.8537 173.819 88.3361C165.499 88.0468 161.209 87.8967 153.637 85.0704C146.997 82.6502 129.824 70.7505 112.423 68.9627C95.5241 67.2572 83.5553 75.5444 71.0916 74.1633C60.6075 72.9725 36.6028 71.5335 24.4095 69.9038C25.044 64.6405 25.5208 60.5783 25.8499 58.574C27.0412 50.9795 32.4242 45.8703 47.09 41.7942Z" fill="url(#paint5_linear_211_1681)"/>
<path d="M119.409 71.5504C120.109 71.6258 120.791 71.7616 121.473 71.8973L135.681 74.7126L135.006 77.6656C145.935 85.3577 152.372 99.1445 150.53 113.836C148.344 131.25 135.251 144.459 119.492 146.899L119.06 148.808L110.751 147.143C110.431 147.114 110.172 147.103 109.852 147.074C107.83 146.806 105.861 146.356 103.928 145.785L103.868 145.767C87.3276 140.622 76.3693 123.464 78.7128 104.849C81.4141 83.9093 99.592 69.0493 119.409 71.5504Z" fill="#CDD8F7"/>
<path d="M89.2607 106.665C91.89 85.8198 110.109 70.9504 129.953 73.4535C149.798 75.9566 163.753 94.8843 161.124 115.73C158.495 136.575 140.276 151.444 120.432 148.941C100.587 146.438 86.6313 127.511 89.2607 106.665Z" fill="white"/>
<path d="M101.275 107.773C103.099 93.3122 115.741 82.9976 129.512 84.7345C143.282 86.4715 152.966 99.6022 151.142 114.063C149.318 128.523 136.677 138.838 122.906 137.101C109.136 135.364 99.4515 122.233 101.275 107.773Z" fill="url(#paint6_radial_211_1681)"/>
<path d="M77.6515 67.9567C77.7723 67.9923 77.9109 67.9676 78.0921 68.0211L79.6983 68.364L79.7587 68.3818C80.0786 68.4106 80.3806 68.4997 80.7431 68.6067L80.9243 68.6602C84.307 69.6589 86.5605 73.148 86.0945 76.9507C85.5642 81.194 81.861 84.1724 77.8771 83.6529C77.8167 83.6351 77.6959 83.5994 77.6355 83.5816L75.9689 83.2209C75.9085 83.2031 75.8481 83.1852 75.7699 83.2278C75.3292 83.1634 74.9489 83.1168 74.6043 82.9494C71.2394 81.8903 69.0464 78.419 69.4945 74.6768C69.9466 70.476 73.6071 67.4194 77.6515 67.9567Z" fill="url(#paint7_radial_211_1681)"/>
<defs>
<filter id="filter0_i_211_1681" x="8.04102" y="104.555" width="230.557" height="246.829" filterUnits="userSpaceOnUse" color-interpolation-filters="sRGB">
<feFlood flood-opacity="0" result="BackgroundImageFix"/>
<feBlend mode="normal" in="SourceGraphic" in2="BackgroundImageFix" result="shape"/>
<feColorMatrix in="SourceAlpha" type="matrix" values="0 0 0 0 0 0 0 0 0 0 0 0 0 0 0 0 0 0 127 0" result="hardAlpha"/>
<feOffset dx="4" dy="-12"/>
<feGaussianBlur stdDeviation="9"/>
<feComposite in2="hardAlpha" operator="arithmetic" k2="-1" k3="1"/>
<feColorMatrix type="matrix" values="0 0 0 0 0.803922 0 0 0 0 0.847059 0 0 0 0 0.968627 0 0 0 1 0"/>
<feBlend mode="normal" in2="shape" result="effect1_innerShadow_211_1681"/>
</filter>
<filter id="filter1_i_211_1681" x="9.09375" y="200.768" width="91.9434" height="164.665" filterUnits="userSpaceOnUse" color-interpolation-filters="sRGB">
<feFlood flood-opacity="0" result="BackgroundImageFix"/>
<feBlend mode="normal" in="SourceGraphic" in2="BackgroundImageFix" result="shape"/>
<feColorMatrix in="SourceAlpha" type="matrix" values="0 0 0 0 0 0 0 0 0 0 0 0 0 0 0 0 0 0 127 0" result="hardAlpha"/>
<feOffset dx="3" dy="3"/>
<feGaussianBlur stdDeviation="4"/>
<feComposite in2="hardAlpha" operator="arithmetic" k2="-1" k3="1"/>
<feColorMatrix type="matrix" values="0 0 0 0 1 0 0 0 0 1 0 0 0 0 1 0 0 0 1 0"/>
<feBlend mode="normal" in2="shape" result="effect1_innerShadow_211_1681"/>
</filter>
<filter id="filter2_i_211_1681" x="4.125" y="4.79053" width="171.479" height="155.881" filterUnits="userSpaceOnUse" color-interpolation-filters="sRGB">
<feFlood flood-opacity="0" result="BackgroundImageFix"/>
<feBlend mode="normal" in="SourceGraphic" in2="BackgroundImageFix" result="shape"/>
<feColorMatrix in="SourceAlpha" type="matrix" values="0 0 0 0 0 0 0 0 0 0 0 0 0 0 0 0 0 0 127 0" result="hardAlpha"/>
<feOffset dx="-14" dy="-14"/>
<feGaussianBlur stdDeviation="16"/>
<feComposite in2="hardAlpha" operator="arithmetic" k2="-1" k3="1"/>
<feColorMatrix type="matrix" values="0 0 0 0 0.477078 0 0 0 0 0.262111 0 0 0 0 0.933333 0 0 0 1 0"/>
<feBlend mode="normal" in2="shape" result="effect1_innerShadow_211_1681"/>
</filter>
<linearGradient id="paint0_linear_211_1681" x1="69.3178" y1="277.425" x2="29.9931" y2="292.035" gradientUnits="userSpaceOnUse">
<stop stop-color="#E8F0FF"/>
<stop offset="1" stop-color="#CDD8F7"/>
</linearGradient>
<linearGradient id="paint1_linear_211_1681" x1="178" y1="405.5" x2="201" y2="136.501" gradientUnits="userSpaceOnUse">
<stop stop-color="#CDD8F7"/>
<stop offset="1" stop-color="white"/>
</linearGradient>
<linearGradient id="paint2_linear_211_1681" x1="219.5" y1="204.501" x2="190" y2="251.001" gradientUnits="userSpaceOnUse">
<stop stop-color="#F8BA55"/>
<stop offset="1" stop-color="#FB7354"/>
</linearGradient>
<linearGradient id="paint3_linear_211_1681" x1="295.5" y1="133.501" x2="165" y2="267.501" gradientUnits="userSpaceOnUse">
<stop stop-color="#F8BA55"/>
<stop offset="1" stop-color="#FB7354"/>
</linearGradient>
<linearGradient id="paint4_linear_211_1681" x1="374" y1="33.0019" x2="292" y2="133.002" gradientUnits="userSpaceOnUse">
<stop stop-color="#FB7354"/>
<stop offset="0.497917" stop-color="#F8BA55"/>
<stop offset="1" stop-color="#FB7354"/>
</linearGradient>
<linearGradient id="paint5_linear_211_1681" x1="99.7023" y1="19.6081" x2="93.7043" y2="82.9771" gradientUnits="userSpaceOnUse">
<stop stop-color="#B565E5"/>
<stop offset="0.354285" stop-color="#7A43EE"/>
<stop offset="0.506973" stop-color="#B565E5"/>
<stop offset="1" stop-color="#7A43EE"/>
</linearGradient>
<radialGradient id="paint6_radial_211_1681" cx="0" cy="0" r="1" gradientUnits="userSpaceOnUse" gradientTransform="translate(123.775 106.684) rotate(56.4055) scale(24.5173 24.7746)">
<stop stop-color="#E8F0FF"/>
<stop offset="1" stop-color="#CDD8F7"/>
</radialGradient>
<radialGradient id="paint7_radial_211_1681" cx="0" cy="0" r="1" gradientUnits="userSpaceOnUse" gradientTransform="translate(80.7273 74.9089) rotate(141.986) scale(8.73858 9.22526)">
<stop stop-color="#F8BA55"/>
<stop offset="1" stop-color="#FB7354"/>
</radialGradient>
</defs>
</svg>
