<svg width="439" height="290" viewBox="0 0 439 290" fill="none" xmlns="http://www.w3.org/2000/svg">
<path d="M224.5 282C398.5 300.5 445.5 237.5 431.5 188.5C420.71 150.736 386.838 148 338.5 141.5C301.214 136.486 306.5 89 378.5 83.5" stroke="#CDD8F7" stroke-width="9"/>
<path d="M132.257 191.594L138.9 191.645C139.305 191.594 139.762 191.594 140.167 191.594C150.562 191.594 158.979 204.277 158.979 219.953C158.979 235.629 150.562 248.312 140.167 248.312H133.069V248.262C132.764 248.262 132.511 248.312 132.207 248.312C121.812 248.312 113.395 235.629 113.395 219.953C113.445 204.277 121.862 191.594 132.257 191.594Z" fill="#7A43EE"/>
<path d="M10.0547 191.594V225.483C10.0547 234.31 17.8127 241.159 26.5849 240.094L108.932 229.998V191.594H10.0547Z" fill="#7A43EE"/>
<path d="M47.1211 186.875L69.736 222.033C72.9812 227.055 78.2547 230.404 84.1873 231.114L159.03 240.093L164.759 202.247L47.1211 186.875Z" fill="url(#paint0_linear_211_1647)"/>
<path d="M52.3471 204.023C51.9415 204.023 51.4851 204.074 51.0795 204.074L44.437 204.023L44.4877 206.611C38.048 211.126 33.5352 220.917 33.5352 232.332C33.5352 244.203 38.3522 254.35 45.2483 258.56L45.299 260.64H52.3978C62.7926 260.64 71.2098 247.957 71.2098 232.281C71.1591 216.706 62.7419 204.023 52.3471 204.023Z" fill="#7A43EE"/>
<path d="M44.437 260.742C54.8266 260.742 63.249 248.045 63.249 232.382C63.249 216.72 54.8266 204.023 44.437 204.023C34.0474 204.023 25.625 216.72 25.625 232.382C25.625 248.045 34.0474 260.742 44.437 260.742Z" fill="url(#paint1_linear_211_1647)"/>
<path d="M41.8007 248.313C47.6536 248.313 52.3983 241.181 52.3983 232.383C52.3983 223.585 47.6536 216.453 41.8007 216.453C35.9478 216.453 31.2031 223.585 31.2031 232.383C31.2031 241.181 35.9478 248.313 41.8007 248.313Z" fill="#E8F0FF"/>
<path d="M227.654 198.285L134.033 210.206L153.308 16L181.945 34.7241L207.352 31.6869C210.699 31.8391 213.335 34.6293 213.335 38.0284L227.654 198.285Z" fill="url(#paint2_linear_211_1647)"/>
<path d="M153.308 214.806L5.17315 197.3C2.63785 196.945 0.761719 194.764 0.761719 192.227L19.4858 30.8691C19.4858 28.1296 21.6662 25.8466 24.455 25.7452L153.308 16.0005V214.806Z" fill="url(#paint3_linear_211_1647)"/>
<path d="M197.254 254.305L257.509 251.825L240.824 212.763L202.021 215.053L191.629 232.032L197.254 254.305Z" fill="url(#paint4_linear_211_1647)"/>
<path d="M304.462 212.382L312.137 212.477C312.614 212.43 313.091 212.382 313.615 212.382C325.58 212.382 335.305 225.736 335.305 242.238C335.305 258.741 325.58 272.095 313.615 272.095H305.464V272.047C305.13 272.047 304.796 272.095 304.51 272.095C292.545 272.095 282.82 258.741 282.82 242.238C282.82 225.784 292.497 212.382 304.462 212.382Z" fill="#7A43EE"/>
<path d="M231.193 226.26C230.717 226.26 230.24 226.308 229.763 226.356L222.231 226.26L222.279 229.074C214.985 233.939 209.885 244.527 209.885 256.88C209.885 269.662 215.367 280.632 223.137 285.211L223.185 287.5H231.241C243.015 287.5 252.597 273.812 252.597 256.88C252.549 239.949 242.968 226.26 231.193 226.26Z" fill="#7A43EE"/>
<path d="M222.182 287.5C233.977 287.5 243.538 273.791 243.538 256.88C243.538 239.969 233.977 226.26 222.182 226.26C210.388 226.26 200.826 239.969 200.826 256.88C200.826 273.791 210.388 287.5 222.182 287.5Z" fill="url(#paint5_linear_211_1647)"/>
<path d="M219.225 274.098C225.833 274.098 231.19 266.389 231.19 256.88C231.19 247.371 225.833 239.663 219.225 239.663C212.617 239.663 207.26 247.371 207.26 256.88C207.26 266.389 212.617 274.098 219.225 274.098Z" fill="#E8F0FF"/>
<path d="M156.828 118.185C152.919 135.737 143.814 186.436 153.968 240.855C154.731 244.909 157.972 248.057 162.024 248.677L197.205 254.305C197.205 254.305 197.538 220.966 214.461 218.82C231.384 216.626 247.211 232.508 248.259 259.98C248.259 259.98 284.87 264.893 340.167 252.254C340.167 252.254 347.556 250.68 350.75 242.286L348.271 203.94C348.08 200.792 346.602 197.882 344.219 195.784L311.66 167.644C311.66 167.644 282.105 125.721 272.237 117.613C272.237 117.613 266.946 109.171 224.377 108.122C195.06 107.406 174.848 109.362 165.123 110.602C161.023 111.174 157.734 114.179 156.828 118.185Z" fill="url(#paint6_linear_211_1647)"/>
<path d="M346.412 198.312L344.791 200.076C345.506 219.822 349.749 226.785 313.615 230.505C277.481 234.225 278.577 203.844 278.577 203.844L231.193 183.145L191.627 120.808C183.762 114.465 170.033 112.748 160.737 112.366C158.83 113.75 157.4 115.753 156.828 118.185C152.919 135.737 143.814 186.436 153.968 240.855C154.731 244.909 157.972 248.057 162.024 248.677L197.205 254.305C197.205 254.305 197.538 220.966 214.461 218.82C231.384 216.674 247.211 232.508 248.259 259.98C248.259 259.98 284.87 264.893 340.167 252.254C340.167 252.254 347.556 250.68 350.75 242.286L348.271 203.939C348.128 201.889 347.46 199.981 346.412 198.312Z" fill="url(#paint7_linear_211_1647)"/>
<path d="M230.717 174.083C232.004 176.182 234.387 177.326 236.818 177.04L311.851 167.835L311.66 167.692C311.66 167.692 287.11 132.923 275.288 120.57L206.119 124.719C203.736 124.863 202.353 127.486 203.593 129.537L230.717 174.083Z" fill="#CDD8F7"/>
<path d="M341.694 203.367C341.599 202.7 341.027 202.175 340.359 202.175C321.673 202.318 298.124 206.277 290.354 207.66C288.876 207.946 287.922 209.377 288.256 210.808C289.782 217.294 292.308 221.682 294.167 224.257C295.454 225.974 297.361 227.071 299.506 227.262C305.37 227.739 318.431 228.502 324.771 227.024C330.396 225.688 335.783 223.017 338.691 221.444C340.359 220.537 341.551 218.868 341.885 216.96C342.6 212.382 342.028 205.991 341.694 203.367Z" fill="#CDD8F7"/>
<path d="M250.215 205.18C249.69 204.131 250.215 202.843 251.311 202.414C252.979 201.794 255.22 201.078 256.555 201.269C258.271 201.46 272.858 205.276 279.532 206.993C281.581 207.517 283.012 209.425 282.868 211.571C282.582 216.102 280.866 223.304 273.048 224.115C262.227 225.212 255.363 215.673 250.215 205.18Z" fill="url(#paint8_linear_211_1647)"/>
<path d="M320.291 232.031C291.927 235.99 286.207 226.26 286.207 226.26C279.485 227.262 269.951 225.926 264.564 225.02C262.515 224.639 260.512 225.64 259.368 227.405C258.51 228.693 256.937 230.028 254.077 230.505C249.405 231.316 241.492 229.551 237.631 228.55C243.304 236.324 247.26 246.387 247.737 259.932C247.737 259.932 284.967 264.893 340.264 252.206C340.264 252.206 347.653 250.632 350.847 242.238L349.226 217.246C346.223 221.682 338.644 229.456 320.291 232.031Z" fill="#CDD8F7"/>
<path d="M168.937 128.344L179.138 130.824C182.475 131.635 185.383 133.638 187.337 136.452L212.555 173.272C214.271 175.8 212.03 179.091 209.075 178.471L165.361 169.218C163.598 168.836 162.311 167.358 162.215 165.546C161.929 159.25 161.643 144.274 164.122 131.444C164.551 129.25 166.744 127.819 168.937 128.344Z" fill="#CDD8F7"/>
<path d="M61.6898 53.7349C62.1936 58.6408 58.5845 63.0751 53.5168 63.5954C48.4492 64.1158 44.0142 60.5076 43.5105 55.6017C43.0067 50.6958 46.6157 46.2615 51.6834 45.7412C56.7511 45.2208 61.1778 48.7486 61.6898 53.7349ZM104.761 41.7536C99.774 42.2657 96.1093 46.9495 96.6379 52.0967C97.1747 57.3243 101.626 61.0934 106.694 60.573C111.761 60.0526 115.346 55.377 114.817 50.2299C114.289 45.0827 109.749 41.2414 104.761 41.7536Z" fill="#FB7354"/>
<g filter="url(#filter0_i_211_1647)">
<path d="M79.4588 107.257C77.7696 107.43 76.0721 107.523 74.2859 107.544C62.9005 107.494 53.4472 101.719 47.8915 91.1554C41.3416 78.8244 41.2738 62.333 45.6417 55.789C47.541 52.9119 50.4738 51.3917 53.5966 51.7212C56.9607 52.0259 59.3825 55.0281 59.0693 58.3112C58.8179 60.6126 57.3826 62.4668 55.3572 63.3249C54.184 66.9401 54.2119 77.5027 58.7154 85.7365C62.2162 92.1226 67.4225 95.3265 74.2537 95.3565C82.2998 95.343 88.2563 93.1871 92.4119 88.5342C98.3968 81.9054 100.827 69.9526 99.1942 54.841L99.1612 54.5193C98.8143 51.1414 101.277 48.2066 104.575 47.8679C107.873 47.5292 110.889 49.9828 111.227 53.2803L111.26 53.602C113.705 77.4077 107.294 90.1757 101.373 96.6353C95.9899 102.796 88.5485 106.323 79.4588 107.257Z" fill="white"/>
</g>
<path d="M380.067 55.409L380.008 55.4106C379.949 55.4123 379.891 55.4139 379.774 55.3605C379.657 55.3638 379.54 55.3103 379.364 55.3153C379.305 55.3169 379.247 55.3185 379.189 55.2635C379.071 55.2667 379.013 55.2117 378.896 55.215C378.837 55.2166 378.779 55.2182 378.721 55.1632C378.662 55.1648 378.604 55.1098 378.545 55.1114C378.428 55.1147 378.37 55.0596 378.253 55.0629C378.194 55.0645 378.135 55.0662 378.077 55.0111C378.019 55.0127 377.96 54.9577 377.902 54.9593C377.785 54.9059 377.726 54.9075 377.61 54.8541C377.551 54.8557 377.551 54.8557 377.493 54.8007C377.434 54.8023 377.318 54.7489 377.259 54.6938C377.143 54.6404 377.084 54.642 376.967 54.5886C376.909 54.5903 376.909 54.5903 376.85 54.5352C376.792 54.4801 376.675 54.4834 376.617 54.4283C376.5 54.3749 376.442 54.3199 376.325 54.3231C376.325 54.3231 376.266 54.3248 376.267 54.2681C376.208 54.213 376.091 54.2163 376.033 54.1612C375.916 54.1078 375.858 54.0527 375.741 53.9993C375.741 53.9993 375.683 54.0009 375.683 53.9442C375.625 53.8892 375.566 53.8908 375.508 53.8358C375.391 53.7823 375.275 53.7289 375.158 53.6188C375.1 53.6204 375.1 53.5637 375.042 53.5654C374.983 53.5103 374.925 53.5119 374.867 53.4569C374.75 53.4035 374.634 53.2933 374.517 53.2399C374.458 53.2416 374.459 53.1849 374.4 53.1865C374.341 53.1881 374.342 53.1314 374.284 53.0764C374.167 52.9662 373.992 52.8578 373.876 52.8043C373.817 52.7493 373.759 52.7509 373.759 52.6942L373.701 52.6391C373.468 52.4756 372.002 51.3261 371.77 51.1059C371.595 50.9974 371.479 50.8306 371.304 50.7221C371.246 50.667 371.246 50.667 371.188 50.612C371.071 50.5018 370.955 50.3917 370.838 50.3383L370.78 50.2832C370.606 50.118 370.373 49.8978 370.199 49.6759C370.199 49.6192 370.141 49.6208 370.141 49.5641C369.967 49.3989 369.851 49.2321 369.676 49.0669L369.618 49.0119C369.56 48.9568 369.56 48.9568 369.56 48.9001C369.386 48.6782 369.212 48.513 369.096 48.2895C369.038 48.2345 369.039 48.1778 368.981 48.1227C368.807 47.9008 368.633 47.6222 368.459 47.3436C368.401 47.2886 368.402 47.2319 368.344 47.1768C368.228 46.9533 368.054 46.7314 367.939 46.5079C367.881 46.4528 367.881 46.3961 367.823 46.3411C367.649 46.0625 367.534 45.7822 367.361 45.5037C367.361 45.5037 367.361 45.447 367.303 45.4486C367.303 45.3919 367.245 45.3368 367.245 45.2801C367.188 45.1117 367.072 44.9449 367.015 44.7764C366.957 44.6646 366.958 44.6079 366.9 44.4962C366.843 44.3277 366.786 44.1592 366.67 43.9924C366.67 43.9357 366.612 43.8806 366.612 43.8239C366.613 43.7672 366.613 43.7672 366.555 43.7122C366.555 43.6555 366.497 43.5437 366.498 43.487C366.44 43.3753 366.383 43.2068 366.384 43.0934C366.384 43.0367 366.327 42.9249 366.327 42.8682C366.328 42.8115 366.269 42.7565 366.27 42.6998C366.27 42.6431 366.271 42.5864 366.213 42.5313C366.156 42.3061 366.099 42.081 366.042 41.8558C366.043 41.7991 365.984 41.7441 365.985 41.6874L365.985 41.6307C365.929 41.4055 365.872 41.1803 365.874 40.9535C365.874 40.8968 365.874 40.8968 365.875 40.8401C365.818 40.5583 365.761 40.3331 365.764 40.0496C365.765 39.9362 365.765 39.8795 365.707 39.7677C365.709 39.5976 365.651 39.4859 365.652 39.3158C365.652 39.3158 365.652 39.3158 365.653 39.2591C365.654 39.1457 365.655 39.0323 365.655 38.9189C365.656 38.8055 365.657 38.6921 365.658 38.5787C365.658 38.5787 365.658 38.5787 365.659 38.522C365.66 38.2952 365.662 38.0684 365.664 37.8416C365.664 37.8416 365.664 37.8416 365.665 37.7849C365.666 37.5581 365.668 37.3313 365.67 37.1045C365.67 37.0478 365.671 36.9911 365.671 36.9344C365.672 36.8777 365.673 36.7643 365.673 36.7076C365.674 36.5942 365.675 36.5375 365.675 36.4241C365.676 36.3107 365.678 36.1406 365.737 36.0255C365.738 35.9688 365.738 35.9121 365.739 35.8554L365.739 35.7987C365.741 35.5719 365.801 35.3435 365.861 35.1717L365.862 35.115C365.862 35.0583 365.863 35.0016 365.922 34.9433C365.923 34.8299 365.983 34.6582 365.984 34.5448C365.984 34.4881 366.044 34.373 366.044 34.3163C366.044 34.2596 366.104 34.1446 366.104 34.0879C366.105 34.0312 366.105 33.9745 366.164 33.9161C366.224 33.8011 366.225 33.631 366.285 33.516C366.285 33.4593 366.344 33.4009 366.345 33.3442L366.345 33.2875C366.406 33.0591 366.525 32.829 366.585 32.6006C366.586 32.5439 366.645 32.4855 366.704 32.3705C366.764 32.1987 366.824 32.0837 366.884 31.912C366.884 31.912 366.884 31.8553 366.943 31.8536C367.002 31.7386 367.062 31.6235 367.121 31.5085C367.181 31.3935 367.24 31.2784 367.299 31.2201C367.299 31.2201 367.3 31.1634 367.359 31.1618C367.478 30.9317 367.655 30.7 367.774 30.4699C367.774 30.4699 367.775 30.4132 367.833 30.4115C367.833 30.4115 367.833 30.4115 367.834 30.3548C367.952 30.1815 368.071 29.9514 368.249 29.7764C368.308 29.718 367.545 28.9457 367.604 28.8874C367.663 28.8291 367.722 28.7707 367.781 28.7124C367.84 28.6541 367.9 28.539 368.017 28.479C368.076 28.4207 368.076 28.4207 368.136 28.3624C368.313 28.1873 368.431 28.014 368.609 27.839C368.668 27.7806 368.668 27.7806 368.727 27.7223C368.845 27.6056 369.022 27.4873 369.14 27.3139C369.199 27.2556 369.258 27.2539 369.258 27.1972C369.436 27.0222 369.612 26.9039 369.789 26.7856C369.789 26.7856 369.848 26.7272 369.907 26.7256C370.083 26.6073 370.26 26.489 370.437 26.3707C370.496 26.3123 370.555 26.3107 370.614 26.2523C370.79 26.134 371.026 26.0141 371.261 25.8941L383.027 21.0869C382.792 21.2069 382.615 21.3252 382.38 21.4452C382.321 21.5035 382.262 21.5051 382.203 21.5635C382.026 21.6818 381.85 21.8001 381.673 21.9184C381.673 21.9184 381.614 21.9768 381.555 21.9784C381.378 22.0967 381.201 22.2717 381.024 22.39C380.965 22.4484 380.907 22.45 380.906 22.5067C380.788 22.6234 380.611 22.7417 380.493 22.9151C380.434 22.9734 380.434 22.9734 380.375 23.0318C380.197 23.2068 380.02 23.3818 379.902 23.5552C379.843 23.6135 379.843 23.6135 379.783 23.6719C379.665 23.7885 379.547 23.9619 379.428 24.1353C379.369 24.1936 379.31 24.252 379.31 24.3087C379.191 24.482 379.014 24.6571 378.895 24.8871C378.895 24.8871 378.895 24.8871 378.894 24.9438L378.835 25.0022C378.716 25.2322 378.538 25.464 378.419 25.694C378.36 25.8091 378.3 25.9241 378.241 26.0392C378.181 26.1542 378.122 26.2692 378.062 26.3843C378.002 26.556 377.884 26.7294 377.824 26.9011C377.765 26.9595 377.764 27.0162 377.705 27.1312C377.586 27.3613 377.525 27.6464 377.406 27.8765C377.405 27.9332 377.346 27.9916 377.346 28.0483C377.286 28.22 377.225 28.4484 377.165 28.6202C377.165 28.6769 377.105 28.7919 377.105 28.8486C377.044 29.077 376.985 29.2488 376.983 29.4756C376.982 29.5323 376.982 29.589 376.923 29.6473C376.862 29.9325 376.86 30.1593 376.799 30.4444C376.799 30.5011 376.798 30.5578 376.798 30.6145C376.796 30.8413 376.736 31.0697 376.734 31.2965C376.733 31.3532 376.732 31.4666 376.732 31.5233C376.73 31.8068 376.727 32.0903 376.725 32.3738C376.723 32.6006 376.721 32.8275 376.719 33.111C376.718 33.2244 376.717 33.3378 376.716 33.4512C376.716 33.5646 376.714 33.7347 376.772 33.8464C376.771 34.0165 376.828 34.1283 376.827 34.2984C376.826 34.4118 376.825 34.4685 376.883 34.5803C376.94 34.8621 376.938 35.0889 376.994 35.3708C376.994 35.4275 376.993 35.4842 377.051 35.5392C377.108 35.7644 377.165 35.9896 377.222 36.2147C377.221 36.2714 377.279 36.3832 377.278 36.4399C377.335 36.6651 377.392 36.8902 377.449 37.1154C377.507 37.2271 377.506 37.3405 377.564 37.3956C377.563 37.4523 377.621 37.5641 377.621 37.6208C377.678 37.7325 377.736 37.901 377.735 38.0144C377.734 38.0711 377.792 38.1829 377.791 38.2396C377.849 38.3513 377.849 38.408 377.906 38.5198C377.964 38.6882 378.021 38.8567 378.137 39.0235C378.195 39.1353 378.194 39.192 378.252 39.3038C378.309 39.4722 378.425 39.639 378.482 39.8075C378.54 39.8626 378.539 39.976 378.598 40.031C378.713 40.3112 378.886 40.5898 379.06 40.8684C379.118 40.9235 379.117 40.9802 379.176 41.0353C379.291 41.2588 379.465 41.4807 379.58 41.7042C379.639 41.7592 379.638 41.816 379.696 41.871C379.87 42.1496 380.044 42.3715 380.217 42.6501C380.276 42.7051 380.275 42.7618 380.333 42.8169C380.507 43.0388 380.681 43.2607 380.797 43.4275C380.855 43.4825 380.914 43.5376 380.972 43.5927C381.146 43.7579 381.262 43.9247 381.437 44.0899C381.436 44.1466 381.495 44.1449 381.494 44.2016C381.668 44.4235 381.843 44.5887 382.075 44.809C382.192 44.9191 382.308 45.0292 382.424 45.1393C382.482 45.1944 382.483 45.1944 382.541 45.2494C382.715 45.4146 382.89 45.5231 383.006 45.69C383.239 45.8535 383.472 46.0737 383.705 46.2373C383.763 46.2924 383.821 46.3474 383.938 46.4008C384.054 46.511 384.229 46.6194 384.346 46.6729C384.404 46.7279 384.521 46.7814 384.579 46.8364C384.696 46.8899 384.812 47 384.929 47.0534C384.987 47.1085 385.104 47.1619 385.162 47.2169C385.279 47.2704 385.396 47.3238 385.512 47.4339C385.629 47.4873 385.687 47.5424 385.804 47.5958C385.92 47.6493 385.978 47.7043 386.095 47.7577C386.212 47.8112 386.329 47.8646 386.387 47.9196C386.504 47.9731 386.562 48.0281 386.679 48.0249C386.796 48.0783 386.913 48.1317 387.029 48.1851C387.146 48.2386 387.205 48.2369 387.322 48.2903C387.438 48.3438 387.555 48.3972 387.672 48.3939C387.789 48.4473 387.848 48.4457 387.965 48.4991C388.081 48.5525 388.199 48.5493 388.315 48.6027C388.432 48.6561 388.491 48.6545 388.608 48.6512C388.725 48.7046 388.842 48.7013 388.959 48.7548C389.076 48.7515 389.134 48.8065 389.251 48.8033C389.427 48.8551 389.603 48.8501 389.778 48.9019C389.895 48.8987 389.953 48.9537 390.071 48.9504C390.246 48.9455 390.422 48.9973 390.598 48.9924L390.656 48.9908C390.832 48.9858 391.066 49.036 391.242 49.0311C391.301 49.0294 391.359 49.0278 391.359 49.0278C391.535 49.0229 391.77 49.0163 391.945 49.0114C391.945 49.0114 391.945 49.0114 392.004 49.0098C392.238 49.0032 392.473 48.9967 392.649 48.9917C392.707 48.9901 392.707 48.9901 392.766 48.9885C393 48.9819 393.235 48.9187 393.47 48.9121C393.528 48.9105 393.587 48.9088 393.587 48.9088C393.646 48.9072 393.763 48.9039 393.822 48.8456C393.881 48.844 393.939 48.8423 393.998 48.784C394.057 48.7823 394.175 48.7224 394.233 48.7207C394.292 48.7191 394.35 48.7174 394.409 48.6591C394.586 48.5975 394.762 48.5926 394.879 48.5326C394.938 48.531 394.938 48.531 394.997 48.4726C395.115 48.4127 395.232 48.4094 395.408 48.3478C395.467 48.3461 395.526 48.2878 395.526 48.2878C395.644 48.2278 395.702 48.2262 395.82 48.1662C395.878 48.1646 395.938 48.1062 395.938 48.1062C396.055 48.0462 396.232 47.9846 396.349 47.9247L386.579 54.4333C386.461 54.4933 386.285 54.5549 386.167 54.6149C386.109 54.6166 386.05 54.6749 386.05 54.6749C385.932 54.7349 385.874 54.7365 385.756 54.7965L385.697 54.7981L385.639 54.7998C385.521 54.8597 385.403 54.9197 385.227 54.9246C385.169 54.9263 385.169 54.9263 385.11 54.9846C384.933 55.0462 384.757 55.1078 384.64 55.1111C384.64 55.1111 384.64 55.1111 384.581 55.1127C384.523 55.1144 384.523 55.1144 384.464 55.116C384.405 55.1177 384.288 55.1776 384.229 55.1793C384.17 55.1809 384.112 55.1826 384.053 55.2409C383.994 55.2425 383.877 55.3025 383.818 55.3041L383.759 55.3058L383.701 55.3074C383.466 55.3707 383.231 55.3772 382.997 55.3838C382.997 55.3838 382.997 55.3838 382.938 55.3854L382.88 55.3871C382.645 55.3936 382.469 55.3985 382.235 55.4051C382.059 55.41 381.825 55.4165 381.649 55.4215L381.59 55.4231L381.531 55.4247C381.356 55.4296 381.121 55.4362 380.946 55.3844L380.887 55.386C380.418 55.4559 380.242 55.4041 380.067 55.409ZM418.79 41.0618C418.791 41.0051 418.791 40.9484 418.791 40.8917C418.794 40.5515 418.796 40.268 418.799 39.9278C418.8 39.8144 418.801 39.7577 418.801 39.6443C418.802 39.5309 418.803 39.4742 418.804 39.3608C418.806 39.134 418.808 38.8505 418.81 38.6237C418.81 38.6237 418.81 38.6237 418.81 38.567C418.812 38.2835 418.815 38 418.758 37.7181C418.759 37.6614 418.76 37.548 418.76 37.4913C418.761 37.3779 418.761 37.3212 418.762 37.2078C418.765 36.8676 418.709 36.5291 418.712 36.1889C418.712 36.1322 418.712 36.1322 418.713 36.0755C418.657 35.7369 418.66 35.3967 418.604 35.0014C418.605 34.888 418.606 34.8313 418.548 34.7196C418.549 34.6062 418.55 34.4928 418.492 34.381C418.493 34.2109 418.437 33.9857 418.379 33.8173C418.38 33.7606 418.381 33.6472 418.323 33.5921C418.267 33.2535 418.21 32.9717 418.154 32.6331C418.155 32.5764 418.156 32.463 418.098 32.408C417.984 31.9576 417.929 31.5057 417.815 31.112C417.816 30.9986 417.758 30.9436 417.759 30.8302C417.759 30.7735 417.701 30.6617 417.702 30.605C417.646 30.2665 417.531 29.9862 417.475 29.7044C417.475 29.6477 417.417 29.5926 417.417 29.5359C417.303 29.1423 417.189 28.7487 417.075 28.355C417.076 28.2983 417.076 28.2983 417.018 28.2433C416.96 28.0748 416.903 27.8496 416.846 27.6812C416.79 27.3993 416.674 27.1758 416.56 26.8956C416.502 26.7271 416.445 26.5019 416.33 26.3351C416.272 26.1667 416.215 25.9982 416.158 25.773C416.101 25.6613 416.101 25.6046 416.043 25.5495C415.985 25.4377 415.986 25.3243 415.928 25.2126C415.814 24.8757 415.641 24.5404 415.526 24.2034C415.468 24.1484 415.469 24.0917 415.411 23.9799C415.238 23.5879 415.066 23.1959 414.893 22.8039C414.835 22.6922 414.777 22.6371 414.778 22.5237C414.721 22.3553 414.663 22.2435 414.547 22.0767C414.489 21.9649 414.432 21.7964 414.316 21.6863C414.259 21.5179 414.142 21.4077 414.085 21.2393C413.97 20.9591 413.796 20.7372 413.681 20.4569C413.623 20.3452 413.566 20.1767 413.45 20.0666C413.218 19.7329 413.045 19.341 412.814 19.0073C412.814 18.9506 412.755 18.9522 412.756 18.8955C412.525 18.5052 412.293 18.1715 412.062 17.7812C412.004 17.6694 411.888 17.5593 411.83 17.4476C411.656 17.2257 411.482 16.9471 411.308 16.7252C411.192 16.6151 411.135 16.4466 411.018 16.3365C410.844 16.1146 410.67 15.8927 410.496 15.6708C410.38 15.5607 410.323 15.3922 410.206 15.2821C410.032 15.0602 409.858 14.8383 409.684 14.6165C409.568 14.5063 409.51 14.3946 409.394 14.2844C409.336 14.2294 409.336 14.1727 409.278 14.1743C409.045 13.8974 408.813 13.6771 408.581 13.4002C408.522 13.3451 408.523 13.2884 408.465 13.2334C408.233 12.9564 408 12.7362 407.768 12.4592C407.71 12.4041 407.593 12.294 407.535 12.2389C407.244 11.9636 406.954 11.6316 406.663 11.3563C406.605 11.3013 406.547 11.2462 406.43 11.1361C406.198 10.9158 405.907 10.6405 405.674 10.4203C405.558 10.3101 405.442 10.2 405.267 10.0915C405.034 9.92798 404.86 9.7061 404.627 9.54255C404.568 9.48749 404.51 9.48913 404.51 9.43243C404.219 9.21382 403.986 8.99357 403.695 8.77496C403.579 8.66483 403.462 8.61141 403.346 8.50129C403.229 8.39116 403.054 8.28267 402.938 8.17255C402.821 8.11913 402.764 8.00737 402.647 7.95394C402.53 7.90052 402.472 7.84546 402.356 7.73534C402.064 7.51673 401.714 7.29975 401.423 7.08114C401.423 7.08114 401.423 7.08114 401.365 7.08278C401.015 6.8658 400.724 6.64719 400.373 6.48692C400.315 6.43186 400.198 6.37844 400.14 6.32338C400.082 6.26832 399.965 6.2149 399.907 6.15984C399.674 5.99629 399.382 5.89107 399.149 5.72752C399.09 5.72916 399.09 5.67246 399.032 5.6741C398.857 5.56561 398.623 5.45878 398.448 5.35029C398.332 5.29687 398.156 5.24507 398.04 5.13494C397.982 5.07988 397.923 5.08153 397.865 5.02647C397.573 4.86456 397.281 4.75934 397.048 4.65249C396.989 4.59743 396.931 4.59908 396.814 4.54566C396.756 4.49059 396.697 4.49222 396.639 4.43716C396.289 4.27689 395.997 4.17169 395.646 4.01142C395.646 4.01142 395.588 4.01305 395.529 3.95799C395.471 3.95963 395.413 3.90456 395.413 3.90456C395.062 3.74429 394.653 3.64236 394.303 3.48209C393.894 3.32345 393.543 3.21988 393.134 3.11795C393.075 3.11959 393.017 3.06452 393.017 3.06452C392.958 3.06616 392.958 3.06617 392.9 3.0111C392.549 2.90753 392.198 2.80396 391.906 2.75545C391.847 2.75709 391.789 2.70203 391.73 2.70366C391.672 2.7053 391.614 2.65025 391.555 2.65188C391.262 2.60337 390.912 2.4998 390.619 2.45129C390.56 2.45293 390.502 2.39787 390.444 2.39951C390.326 2.40279 390.268 2.34772 390.151 2.351C389.858 2.30249 389.566 2.25398 389.273 2.20547C389.098 2.15368 388.922 2.1586 388.747 2.10681C388.571 2.05503 388.395 2.05994 388.161 2.0098C388.103 2.01143 388.103 2.01143 388.044 2.01307C387.751 1.96456 387.517 1.97112 387.224 1.92261C387.166 1.92425 387.049 1.92752 386.99 1.92916C386.931 1.9308 386.814 1.93408 386.755 1.93571C386.404 1.88884 386.053 1.89867 385.701 1.9085C385.291 1.91997 384.881 1.87473 384.47 1.8862C384.353 1.88948 384.236 1.89275 384.119 1.89603C384.06 1.89767 384.001 1.8993 384.001 1.8993C383.826 1.90422 383.708 1.9075 383.533 1.91241C383.415 1.91569 383.357 1.91733 383.239 1.9206C383.064 1.92552 382.888 1.93043 382.771 1.93371C382.712 1.93535 382.653 1.93698 382.595 1.93862C382.595 1.93862 382.595 1.93862 382.536 1.94026C382.302 1.94681 382.008 2.01171 381.774 2.01826C381.715 2.0199 381.656 2.02154 381.598 2.02318C381.422 2.02809 381.187 2.09135 381.011 2.09626C380.953 2.0979 380.953 2.0979 380.894 2.09954C380.835 2.10118 380.835 2.10118 380.777 2.10282C380.483 2.16771 380.19 2.23259 379.896 2.29748C379.603 2.36237 379.309 2.42727 379.074 2.49052C379.016 2.49216 379.016 2.49216 378.957 2.4938C378.898 2.49544 378.84 2.49708 378.839 2.55378C378.722 2.55705 378.663 2.61539 378.546 2.61866C378.428 2.62194 378.311 2.68192 378.252 2.68356C378.135 2.68684 378.076 2.74517 377.958 2.80515C377.841 2.86513 377.723 2.8684 377.664 2.92674C377.547 2.98672 377.488 2.98836 377.37 3.04834C377.253 3.10831 377.194 3.10995 377.076 3.16993C376.959 3.2299 376.9 3.23154 376.782 3.29152C376.724 3.29316 376.665 3.3515 376.606 3.35314C376.606 3.35314 376.547 3.35477 376.547 3.41147C376.253 3.53306 375.959 3.65466 375.665 3.77625C375.606 3.77789 375.547 3.83622 375.547 3.83622C375.253 3.95781 374.959 4.13611 374.606 4.25934L363.603 9.78211C363.898 9.60381 364.192 9.48223 364.545 9.359C364.603 9.35737 364.662 9.29902 364.662 9.29902C364.956 9.17743 365.25 9.05584 365.544 8.93424C365.603 8.87591 365.72 8.87263 365.779 8.87099C365.897 8.81101 365.955 8.80938 366.073 8.74941C366.191 8.68943 366.249 8.68778 366.367 8.62781C366.485 8.56783 366.543 8.5662 366.661 8.50623C366.779 8.44625 366.837 8.4446 366.955 8.38463C367.073 8.32465 367.131 8.32301 367.249 8.31973C367.366 8.31646 367.483 8.25648 367.542 8.25484C367.659 8.25156 367.718 8.19324 367.836 8.18996C367.894 8.18832 368.012 8.12834 368.07 8.1267C368.364 8.06181 368.658 7.99691 368.892 7.93366C369.186 7.86877 369.48 7.80388 369.773 7.73899C369.832 7.73735 369.949 7.73407 370.008 7.67573C370.184 7.67082 370.419 7.60756 370.595 7.60265C370.653 7.60101 370.712 7.59937 370.77 7.59773C371.005 7.59118 371.298 7.5263 371.533 7.51975C371.591 7.51811 371.709 7.51483 371.767 7.5132C371.943 7.50828 372.119 7.50337 372.236 7.50009C372.353 7.49681 372.412 7.49517 372.529 7.4919C372.705 7.48698 372.822 7.48371 372.998 7.47879C373.174 7.47388 373.35 7.46896 373.467 7.46569C373.877 7.45422 374.288 7.44274 374.698 7.48797C375.049 7.47814 375.401 7.52501 375.752 7.51519C375.811 7.51355 375.928 7.51027 375.987 7.50863C376.338 7.5555 376.69 7.54568 377.041 7.59255C377.099 7.59091 377.099 7.59091 377.158 7.58927C377.509 7.63615 377.919 7.68137 378.27 7.72824C378.68 7.77348 379.09 7.8754 379.441 7.92228C379.499 7.92064 379.558 7.9757 379.616 7.97406C379.967 8.07764 380.377 8.12287 380.728 8.22644C380.786 8.2248 380.844 8.27987 380.903 8.27823C381.254 8.3818 381.663 8.48374 382.014 8.58731C382.073 8.58567 382.131 8.64073 382.131 8.64073C382.54 8.74267 382.891 8.90293 383.3 9.00486C383.65 9.16513 384.06 9.26708 384.41 9.42735C384.469 9.42571 384.527 9.48076 384.527 9.48076C384.877 9.64103 385.228 9.74461 385.578 9.90488C385.636 9.95994 385.695 9.95829 385.753 10.0134C386.103 10.1736 386.454 10.3339 386.804 10.4942C386.862 10.5492 386.921 10.5476 386.979 10.6027C387.329 10.7629 387.621 10.9248 387.971 11.1418C388.03 11.1402 388.029 11.1969 388.088 11.1952C388.438 11.3555 388.788 11.5725 389.079 11.7911C389.137 11.8462 389.254 11.8996 389.312 11.9546C389.662 12.1716 390.012 12.3886 390.303 12.6072C390.303 12.6072 390.303 12.6072 390.362 12.6056C390.712 12.8225 391.003 13.0411 391.294 13.2597C391.411 13.3132 391.469 13.3682 391.586 13.4784C391.819 13.6419 392.052 13.8055 392.284 14.0257C392.401 14.1358 392.517 14.1893 392.634 14.2994C392.925 14.518 393.216 14.7366 393.449 14.9568C393.507 15.0119 393.566 15.0103 393.565 15.067C393.798 15.2305 394.031 15.4508 394.205 15.616C394.322 15.7261 394.438 15.8362 394.554 15.9463C394.846 16.1649 395.078 16.4419 395.369 16.6605C395.427 16.7156 395.485 16.7706 395.602 16.8807C395.893 17.156 396.183 17.4314 396.474 17.7634C396.532 17.8184 396.648 17.9286 396.706 17.9836C396.939 18.2606 397.171 18.4808 397.403 18.7578C397.462 18.8128 397.461 18.8695 397.519 18.9246C397.81 19.1999 398.042 19.5336 398.333 19.8089C398.449 19.919 398.507 20.0307 398.623 20.1409C398.797 20.3627 398.971 20.5846 399.145 20.8065C399.261 20.9166 399.319 21.0851 399.435 21.1952C399.609 21.4171 399.783 21.639 399.957 21.8609C400.073 21.971 400.131 22.1395 400.247 22.2496C400.421 22.4715 400.594 22.7501 400.768 22.972C400.826 23.0837 400.943 23.1939 401 23.3056C401.232 23.696 401.463 24.0296 401.695 24.42C401.694 24.4767 401.753 24.475 401.752 24.5317C401.984 24.8654 402.157 25.2574 402.388 25.591C402.446 25.7028 402.503 25.8712 402.62 25.9814C402.793 26.2599 402.909 26.4835 403.024 26.7637C403.081 26.9322 403.197 27.0423 403.254 27.2107C403.369 27.491 403.543 27.7696 403.658 28.0498C403.716 28.1615 403.774 28.2166 403.773 28.33C403.946 28.722 404.118 29.114 404.291 29.506C404.349 29.561 404.349 29.6177 404.406 29.7295C404.521 30.0664 404.694 30.4017 404.808 30.7386C404.866 30.8504 404.865 30.9638 404.923 31.0755C405.038 31.3558 405.095 31.5809 405.21 31.8612C405.267 32.0296 405.324 32.2548 405.44 32.4216C405.554 32.7018 405.611 32.927 405.726 33.2072C405.783 33.3757 405.84 33.6009 405.898 33.7693C406.011 34.2197 406.125 34.6133 406.297 35.062C406.297 35.1187 406.355 35.1737 406.355 35.2304C406.469 35.624 406.583 36.0177 406.638 36.4129C406.637 36.5263 406.695 36.5814 406.694 36.6948C406.808 37.1451 406.864 37.5404 406.977 37.9907C407.033 38.386 407.147 38.7796 407.202 39.1749C407.202 39.2316 407.201 39.345 407.259 39.4C407.315 39.6819 407.371 40.0204 407.369 40.3039C407.368 40.4174 407.367 40.4741 407.425 40.5858C407.481 40.9244 407.536 41.3197 407.534 41.6599C407.533 41.7166 407.533 41.7165 407.533 41.7732C407.589 42.1118 407.586 42.452 407.583 42.7922C407.582 42.9056 407.582 42.9623 407.581 43.0757C407.578 43.4159 407.634 43.8112 407.631 44.1514C407.631 44.1514 407.631 44.1514 407.631 44.2081C407.628 44.5483 407.625 44.8885 407.622 45.2287C407.621 45.3421 407.621 45.3988 407.62 45.5122C407.617 45.8524 407.615 46.1359 407.612 46.4761C407.612 46.5328 407.612 46.5328 407.611 46.5895C407.609 46.9297 407.606 47.2699 407.544 47.6684C407.543 47.7818 407.543 47.8385 407.542 47.9519C407.54 48.2354 407.479 48.4639 407.477 48.7474C407.476 48.8608 407.475 48.9742 407.416 49.0892C407.355 49.3744 407.352 49.7146 407.291 49.9997C407.291 50.0564 407.29 50.1131 407.29 50.1131C407.229 50.455 407.167 50.8535 407.164 51.1937C407.163 51.3071 407.104 51.4221 407.103 51.4788C407.043 51.7073 407.041 51.9908 406.98 52.2192C406.979 52.3893 406.919 52.5611 406.859 52.7328C406.799 52.9612 406.797 53.1313 406.737 53.3598C406.677 53.5315 406.675 53.7016 406.615 53.8734C406.555 54.0451 406.554 54.2719 406.494 54.4436C406.433 54.6721 406.373 54.9005 406.312 55.1289C406.252 55.3007 406.251 55.4708 406.191 55.6425C406.131 55.871 406.07 56.0994 406.01 56.3278C405.949 56.5563 405.889 56.728 405.829 56.9565C405.708 57.4133 405.588 57.8135 405.467 58.2704C405.407 58.3854 405.406 58.5555 405.346 58.6706C405.285 58.9557 405.166 59.2425 405.106 59.4709C404.986 59.7577 404.925 60.0428 404.806 60.2729C404.746 60.4447 404.686 60.6731 404.626 60.8448C404.506 61.1316 404.387 61.4184 404.326 61.7035C404.266 61.8753 404.206 62.047 404.146 62.2187C403.966 62.734 403.728 63.1941 403.548 63.7093C403.488 63.8244 403.429 63.9394 403.369 64.0545C403.191 64.3996 403.07 64.7998 402.892 65.1449C402.832 65.2599 402.772 65.4317 402.713 65.5467C402.474 66.1202 402.177 66.6387 401.938 67.2123C401.937 67.269 401.937 67.269 401.878 67.3273C401.58 67.9025 401.283 68.4777 400.986 68.9962C400.926 69.168 400.808 69.2846 400.748 69.4564C400.629 69.6864 400.45 69.9749 400.331 70.2049C400.213 70.3783 400.153 70.5501 400.034 70.7234C399.915 70.9535 399.737 71.2419 399.618 71.472C399.499 71.6454 399.439 71.8171 399.321 71.9338C399.143 72.2222 398.966 72.4539 398.846 72.7407C398.728 72.8574 398.668 73.0291 398.55 73.1458C398.313 73.4926 398.134 73.781 397.897 74.1277C397.838 74.1861 397.779 74.3011 397.778 74.3578C397.601 74.5895 397.422 74.8779 397.245 75.1097C397.185 75.2247 397.067 75.3414 397.007 75.5131C396.77 75.8599 396.474 76.2649 396.237 76.6117C396 76.9018 395.763 77.2485 395.525 77.5953C395.466 77.6536 395.466 77.7103 395.407 77.7686C395.17 78.0587 394.933 78.4055 394.696 78.6955C394.637 78.7538 394.578 78.8122 394.578 78.8689C394.34 79.2157 394.104 79.5057 393.808 79.8541C393.807 79.9108 393.749 79.9124 393.748 79.9691C393.512 80.2592 393.216 80.6076 392.979 80.8976C392.92 80.956 392.92 81.0127 392.861 81.071C392.801 81.1294 392.742 81.1877 392.683 81.246C392.565 81.3627 392.447 81.5361 392.328 81.6528C392.269 81.7111 392.21 81.7694 392.151 81.8845C392.033 82.0012 391.914 82.1745 391.796 82.2912C391.737 82.3495 391.678 82.4079 391.619 82.4662C391.442 82.6412 391.264 82.8729 391.087 83.048L391.028 83.1063C390.85 83.2813 390.732 83.4547 390.555 83.6297C390.495 83.6881 390.436 83.7464 390.377 83.8047C390.259 83.9214 390.141 84.0948 390.022 84.2115C389.963 84.2698 389.904 84.3282 389.845 84.3865C389.727 84.5599 389.55 84.6782 389.431 84.8516C389.372 84.9099 389.313 84.9682 389.313 85.0249C389.136 85.1999 388.958 85.4317 388.781 85.6067C388.722 85.665 388.721 85.7217 388.663 85.7233C388.544 85.8967 388.367 86.015 388.249 86.1884C388.19 86.2468 388.13 86.3051 388.071 86.3634C387.953 86.4801 387.835 86.6535 387.717 86.7702C387.657 86.8285 387.598 86.8869 387.539 86.9452C387.362 87.1202 387.243 87.2936 387.067 87.4119L387.008 87.4702C386.83 87.6452 386.653 87.8203 386.476 88.052C386.417 88.1103 386.357 88.1687 386.298 88.227C386.18 88.3437 386.062 88.517 385.885 88.6354C385.826 88.6937 385.767 88.752 385.708 88.8104C385.59 88.927 385.471 89.0437 385.295 89.1621C385.236 89.2204 385.177 89.2787 385.117 89.3371C384.94 89.5121 384.763 89.6871 384.586 89.8621C384.586 89.8621 384.586 89.8621 384.527 89.9205C384.35 90.0955 384.173 90.2138 383.996 90.3888C383.937 90.4471 383.877 90.5055 383.818 90.5638C383.7 90.6805 383.582 90.7972 383.464 90.9138C383.405 90.9722 383.346 91.0305 383.287 91.0889C383.169 91.2055 383.05 91.3222 382.874 91.4405C382.815 91.4989 382.756 91.5005 382.756 91.5572C382.578 91.7322 382.402 91.8505 382.224 92.0255C382.165 92.0839 382.165 92.0839 382.106 92.1422C381.988 92.2589 381.811 92.3772 381.693 92.4939C381.634 92.5522 381.575 92.6106 381.517 92.6122C381.398 92.7289 381.281 92.7889 381.163 92.9055C381.103 92.9639 381.044 93.0222 380.986 93.0239C380.868 93.1405 380.691 93.2589 380.573 93.3755C380.514 93.3772 380.514 93.4339 380.455 93.4355C380.278 93.5538 381.216 93.5593 381.097 93.7327C381.038 93.7911 380.98 93.7927 380.979 93.8494C380.861 93.9661 380.743 94.0261 380.625 94.1427C380.566 94.2011 380.508 94.2027 380.448 94.2611C380.331 94.321 380.213 94.4377 380.095 94.4977C380.036 94.556 379.977 94.5577 379.977 94.6144C379.8 94.7327 379.544 95.0057 379.471 95.1597L389.394 89.501C389.571 89.3827 389.689 89.266 389.865 89.2044C389.924 89.146 389.983 89.1444 389.983 89.0877C390.101 89.0277 390.219 88.911 390.337 88.8511C390.396 88.7927 390.455 88.7911 390.514 88.7327C390.631 88.6728 390.749 88.5561 390.868 88.4394C390.927 88.3811 390.985 88.3794 390.986 88.3227C391.163 88.2044 391.339 88.0861 391.458 87.9127C391.516 87.9111 391.517 87.8544 391.576 87.8528C391.694 87.7361 391.87 87.6177 391.989 87.5011C392.048 87.4427 392.107 87.3844 392.165 87.3828C392.283 87.2661 392.401 87.2061 392.519 87.0894C392.578 87.0311 392.637 86.9728 392.696 86.9711C392.814 86.8544 392.991 86.7361 393.109 86.6194C393.168 86.5611 393.168 86.5611 393.227 86.5028C393.404 86.3278 393.581 86.2094 393.758 86.0344C393.817 85.9761 393.876 85.9745 393.877 85.9178C393.995 85.8011 394.113 85.6844 394.29 85.5661C394.349 85.5077 394.408 85.4494 394.467 85.3911C394.585 85.2744 394.703 85.1577 394.821 85.041C394.88 84.9827 394.939 84.9243 394.998 84.866C395.176 84.691 395.352 84.5727 395.53 84.3977C395.53 84.3977 395.53 84.3977 395.589 84.3393C395.766 84.1643 395.943 83.9893 396.12 83.8143C396.179 83.7559 396.238 83.6976 396.297 83.6393C396.416 83.5226 396.534 83.4059 396.711 83.2309C396.77 83.1726 396.829 83.1142 396.888 83.0559C397.006 82.9392 397.183 82.7642 397.302 82.6475C397.361 82.5892 397.42 82.5308 397.479 82.4725C397.656 82.2975 397.833 82.1225 398.011 81.8908L398.07 81.8324C398.247 81.6574 398.366 81.484 398.543 81.3657C398.602 81.3074 398.661 81.249 398.72 81.1907C398.838 81.074 398.956 80.9006 399.075 80.7839C399.134 80.7256 399.193 80.6673 399.252 80.6089C399.37 80.4356 399.547 80.3173 399.666 80.1439C399.725 80.0855 399.725 80.0288 399.784 80.0272C399.961 79.8522 400.139 79.6205 400.316 79.4455C400.375 79.3871 400.375 79.3304 400.434 79.3288C400.553 79.1554 400.729 79.0371 400.848 78.8637C400.907 78.8054 400.966 78.747 401.025 78.6887C401.143 78.572 401.262 78.3986 401.38 78.282C401.439 78.2236 401.498 78.1653 401.557 78.1069C401.735 77.9319 401.853 77.7585 402.03 77.5835L402.089 77.5252C402.267 77.3502 402.444 77.1185 402.621 76.9435C402.681 76.8851 402.74 76.8268 402.799 76.7684C402.917 76.6518 403.035 76.4784 403.154 76.3617C403.213 76.3034 403.272 76.245 403.331 76.13C403.449 76.0133 403.568 75.8399 403.686 75.7233C403.745 75.6649 403.804 75.6066 403.863 75.5482L403.922 75.4899C403.923 75.4332 403.981 75.4316 403.982 75.3749C404.219 75.0848 404.514 74.7364 404.751 74.4464C404.752 74.3897 404.81 74.388 404.811 74.3313C405.048 73.9846 405.343 73.6929 405.58 73.3461C405.639 73.2878 405.699 73.2294 405.699 73.1727C405.936 72.8827 406.173 72.5359 406.41 72.2459C406.469 72.1875 406.469 72.1308 406.528 72.0725C406.765 71.7257 407.002 71.4357 407.239 71.0889C407.477 70.7422 407.773 70.3371 408.01 69.9903C408.069 69.8753 408.188 69.7586 408.247 69.6436C408.425 69.4119 408.603 69.1234 408.781 68.8917C408.84 68.8334 408.84 68.7767 408.9 68.6616C409.137 68.3149 409.315 68.0265 409.552 67.6797C409.67 67.5631 409.73 67.3913 409.848 67.2746C410.026 66.9862 410.204 66.7545 410.324 66.4677C410.442 66.2944 410.502 66.1226 410.621 65.9492C410.798 65.7175 410.918 65.4307 411.037 65.2007C411.156 65.0273 411.216 64.8555 411.334 64.6822C411.453 64.4521 411.631 64.2204 411.75 63.9336C411.809 63.8753 411.869 63.7602 411.869 63.7035C411.929 63.6452 411.929 63.5885 411.988 63.5301C412.286 62.9549 412.583 62.4365 412.88 61.8613C412.881 61.8046 412.881 61.8046 412.94 61.7462C413.237 61.2277 413.476 60.6542 413.715 60.0806C413.774 60.0223 413.775 59.9089 413.834 59.8505C413.893 59.7922 413.894 59.7355 413.953 59.6205C414.132 59.2753 414.311 58.8735 414.431 58.53C414.49 58.415 414.55 58.3 414.609 58.1849C414.789 57.7264 415.027 57.2096 415.207 56.6943L415.208 56.6376C415.267 56.5226 415.327 56.3509 415.387 56.2358C415.506 55.949 415.626 55.6623 415.687 55.3771C415.747 55.2054 415.807 54.9769 415.867 54.8052C415.987 54.5184 416.047 54.29 416.166 54.0032C416.167 53.9465 416.226 53.8882 416.226 53.8315C416.287 53.603 416.347 53.3746 416.407 53.2029C416.467 53.0878 416.468 52.9177 416.528 52.8027C416.648 52.4025 416.769 51.9456 416.89 51.4887C416.891 51.3753 416.95 51.317 416.951 51.2036C417.01 51.0886 417.011 50.9752 417.071 50.8601C417.131 50.6317 417.192 50.4033 417.252 50.1748C417.312 50.0031 417.313 49.833 417.373 49.6612C417.434 49.4328 417.494 49.2044 417.555 48.9759C417.555 48.9192 417.615 48.8042 417.615 48.7475C417.616 48.6341 417.675 48.519 417.676 48.4056C417.736 48.2339 417.738 48.0638 417.798 47.8921C417.858 47.6636 417.86 47.4935 417.92 47.2651C417.98 47.0933 417.981 46.9232 418.041 46.7515C418.042 46.6948 418.042 46.6381 418.101 46.5798C418.161 46.408 418.163 46.1812 418.223 46.0095C418.224 45.8961 418.283 45.781 418.284 45.7243C418.345 45.3825 418.407 45.0407 418.409 44.7005C418.41 44.6438 418.41 44.5871 418.41 44.5871C418.471 44.3019 418.474 43.9617 418.535 43.6766C418.536 43.5632 418.537 43.4498 418.596 43.3347C418.597 43.2213 418.598 43.1079 418.658 42.9362C418.659 42.8228 418.66 42.6527 418.661 42.5393C418.662 42.4259 418.662 42.3692 418.663 42.2558C418.785 41.7422 418.787 41.402 418.79 41.0618Z" fill="#7A43EE"/>
<path d="M408.804 37.5232C405.719 21.6036 393.498 9.31297 379.529 7.1323C377.924 6.89149 376.259 6.76669 374.592 6.81343C360.842 7.08471 350.213 18.7013 349.972 33.8567C349.846 42.0919 352.043 50.0905 355.372 57.943C359.461 67.4892 364.925 76.1964 371.228 84.3657C373.996 87.9466 376.944 91.351 379.832 94.8714C385.159 91.235 393.201 82.892 397.896 76.358C402.111 70.409 405.733 64.0193 407.817 56.5295C409.414 50.4824 410.119 44.2317 408.804 37.5232ZM379.746 54.0011C372.435 52.8342 366.483 45.4554 366.488 37.5094C366.433 29.5651 372.31 24.0268 379.682 25.1349C386.993 26.3018 392.944 33.6806 392.939 41.6838C392.935 49.5726 387.057 55.1109 379.746 54.0011Z" fill="url(#paint9_linear_211_1647)"/>
<defs>
<filter id="filter0_i_211_1647" x="39.627" y="44.8367" width="72.168" height="62.7075" filterUnits="userSpaceOnUse" color-interpolation-filters="sRGB">
<feFlood flood-opacity="0" result="BackgroundImageFix"/>
<feBlend mode="normal" in="SourceGraphic" in2="BackgroundImageFix" result="shape"/>
<feColorMatrix in="SourceAlpha" type="matrix" values="0 0 0 0 0 0 0 0 0 0 0 0 0 0 0 0 0 0 127 0" result="hardAlpha"/>
<feOffset dx="-3" dy="-3"/>
<feGaussianBlur stdDeviation="3"/>
<feComposite in2="hardAlpha" operator="arithmetic" k2="-1" k3="1"/>
<feColorMatrix type="matrix" values="0 0 0 0 0.803922 0 0 0 0 0.847059 0 0 0 0 0.968627 0 0 0 1 0"/>
<feBlend mode="normal" in2="shape" result="effect1_innerShadow_211_1647"/>
</filter>
<linearGradient id="paint0_linear_211_1647" x1="105.948" y1="264.921" x2="145.048" y2="196.082" gradientUnits="userSpaceOnUse">
<stop stop-color="#7A43EE"/>
<stop offset="1" stop-color="#B565E5"/>
</linearGradient>
<linearGradient id="paint1_linear_211_1647" x1="25.5476" y1="252.255" x2="63.2426" y2="232.36" gradientUnits="userSpaceOnUse">
<stop stop-color="#7A43EE"/>
<stop offset="1" stop-color="#B565E5"/>
</linearGradient>
<linearGradient id="paint2_linear_211_1647" x1="150.004" y1="89.7951" x2="221.596" y2="87.0415" gradientUnits="userSpaceOnUse">
<stop stop-color="#FB7354"/>
<stop offset="0.492608" stop-color="#FB8955"/>
<stop offset="0.492708" stop-color="#FB7354"/>
<stop offset="0.9964" stop-color="#F8BA55"/>
</linearGradient>
<linearGradient id="paint3_linear_211_1647" x1="49.2434" y1="36.9269" x2="4.08532" y2="213.705" gradientUnits="userSpaceOnUse">
<stop stop-color="#F8BA55"/>
<stop offset="0.9964" stop-color="#FB7354"/>
</linearGradient>
<linearGradient id="paint4_linear_211_1647" x1="237.463" y1="262.649" x2="211.576" y2="202.074" gradientUnits="userSpaceOnUse">
<stop stop-color="#929BB1"/>
<stop offset="1" stop-color="#CDD8F7"/>
</linearGradient>
<linearGradient id="paint5_linear_211_1647" x1="200.701" y1="276.628" x2="243.155" y2="245.046" gradientUnits="userSpaceOnUse">
<stop stop-color="#7A43EE"/>
<stop offset="1" stop-color="#B565E5"/>
</linearGradient>
<linearGradient id="paint6_linear_211_1647" x1="259.206" y1="128.038" x2="219.858" y2="188.095" gradientUnits="userSpaceOnUse">
<stop stop-color="white"/>
<stop offset="1" stop-color="#E8F0FF"/>
</linearGradient>
<linearGradient id="paint7_linear_211_1647" x1="270.079" y1="85.5836" x2="195.007" y2="260.578" gradientUnits="userSpaceOnUse">
<stop stop-color="white"/>
<stop offset="1" stop-color="#CDD8F7"/>
</linearGradient>
<linearGradient id="paint8_linear_211_1647" x1="285.612" y1="206.734" x2="243.157" y2="224.337" gradientUnits="userSpaceOnUse">
<stop stop-color="#F8BA55"/>
<stop offset="1" stop-color="#FB7354"/>
</linearGradient>
<linearGradient id="paint9_linear_211_1647" x1="388.12" y1="105.079" x2="334.434" y2="52.3328" gradientUnits="userSpaceOnUse">
<stop stop-color="#7A43EE"/>
<stop offset="1" stop-color="#B565E6"/>
</linearGradient>
</defs>
</svg>
