<svg width="436" height="366" viewBox="0 0 436 366" fill="none" xmlns="http://www.w3.org/2000/svg">
<path d="M277.152 83.391L434.138 38.0068L435.023 241.616L278.038 287L277.152 83.391Z" fill="#CDD8F7"/>
<path d="M336.584 66.276L379.903 53.9414L380.198 117.09L336.82 129.424L336.584 66.276Z" fill="#FB7354"/>
<path d="M123 45.3841L279.985 0L434.138 38.007L277.153 83.3911L123 45.3841Z" fill="white"/>
<path d="M186.326 27.2657L225.277 16.0525L379.843 53.9415L336.761 66.276L186.326 27.2657Z" fill="url(#paint0_linear_211_1626)"/>
<path d="M277.153 83.391L278.038 287L123.885 248.993L123 45.384L277.153 83.391Z" fill="url(#paint1_linear_211_1626)"/>
<path d="M243.276 135.798C243.394 159.228 243.512 182.599 243.571 206.029C243.571 213.583 239.794 217.655 234.069 216.239C228.699 214.94 223.269 213.583 217.899 212.225C211.407 210.632 204.915 209.038 198.482 207.445C192.049 205.852 185.557 204.258 179.124 202.665C173.754 201.366 168.383 200.009 162.954 198.651C158.173 197.471 154.514 192.809 153.629 186.671C153.452 185.609 153.452 184.605 153.452 183.602C153.334 160.29 153.216 136.979 153.157 113.667C153.098 105.995 156.875 101.922 162.659 103.339C175.347 106.467 188.036 109.595 200.666 112.723C211.702 115.437 222.679 118.152 233.715 120.867C239.44 122.283 243.276 128.185 243.276 135.798Z" fill="url(#paint2_linear_211_1626)"/>
<path d="M175.643 129.837C175.643 130.192 175.643 130.487 175.702 130.841C175.761 146.421 175.82 162.002 175.879 177.582C175.879 180.946 174.522 182.953 172.279 182.953C171.984 182.953 171.689 182.894 171.394 182.835C169.033 182.245 167.085 179.412 166.908 176.107C166.849 175.163 166.908 174.218 166.849 173.333C166.79 166.192 166.79 158.992 166.731 151.851C166.672 144.002 166.613 136.093 166.613 128.244C166.613 124.703 168.561 122.696 171.04 123.287C171.394 123.405 171.748 123.523 172.161 123.759C174.108 124.762 175.466 127.241 175.643 129.837ZM189.217 134.264C189.217 133.556 189.217 132.847 189.099 132.139C188.627 129.424 186.738 127.064 184.791 126.591C184.673 126.591 184.554 126.532 184.436 126.532C182.135 126.237 180.305 128.126 180.305 131.136C180.305 139.28 180.364 147.484 180.423 155.687C180.423 156.159 180.482 156.631 180.6 157.103C181.19 159.818 182.902 161.884 184.968 162.356C185.204 162.415 185.44 162.474 185.617 162.474C187.682 162.651 189.335 160.644 189.335 157.694C189.394 153.68 189.335 149.726 189.276 145.713C189.217 141.936 189.217 138.1 189.217 134.264ZM199.191 130.369C198.837 130.192 198.483 130.074 198.128 129.955C195.65 129.365 193.702 131.431 193.702 135.031C193.702 142.88 193.761 150.729 193.82 158.638C193.82 162.946 193.879 167.313 193.879 171.622C193.879 175.34 193.879 179.058 193.938 182.776C193.997 186.022 196.063 188.914 198.423 189.504C198.719 189.563 199.014 189.622 199.309 189.622C201.61 189.622 202.909 187.615 202.909 184.133C202.85 168.612 202.791 153.149 202.732 137.628C202.732 137.274 202.732 136.86 202.732 136.506C202.555 133.91 201.138 131.372 199.191 130.369ZM216.07 138.69C215.538 136.034 213.709 133.792 211.82 133.319C211.643 133.26 211.525 133.26 211.348 133.26C209.047 133.083 207.335 134.913 207.335 137.923C207.335 146.067 207.394 154.212 207.453 162.356C207.453 162.828 207.512 163.3 207.63 163.772C208.22 166.546 209.932 168.612 211.997 169.084C212.174 169.143 212.411 169.143 212.588 169.202C214.653 169.379 216.365 167.431 216.365 164.539C216.424 160.526 216.365 156.454 216.365 152.441C216.365 148.664 216.365 144.887 216.306 141.169C216.247 140.283 216.247 139.457 216.07 138.69ZM184.85 168.376C182.43 167.785 180.482 169.674 180.423 172.92C180.364 175.104 180.364 177.287 180.423 179.471C180.541 182.658 182.489 185.668 184.909 186.258C187.269 186.848 189.276 184.841 189.335 181.713C189.394 180.651 189.335 179.589 189.335 178.527C189.335 177.405 189.335 176.284 189.335 175.163C189.217 171.858 187.328 168.966 184.85 168.376ZM211.938 175.045C209.578 174.454 207.571 176.343 207.512 179.471C207.453 181.713 207.453 184.015 207.571 186.317C207.689 189.445 209.696 192.337 212.056 192.927C214.417 193.517 216.365 191.569 216.483 188.5C216.542 187.379 216.483 186.258 216.483 185.136C216.483 183.956 216.542 182.835 216.483 181.654C216.306 178.468 214.299 175.635 211.938 175.045ZM229.762 143.175C229.585 140.638 228.227 138.1 226.339 137.097C225.984 136.86 225.571 136.742 225.217 136.624C222.798 136.034 220.791 138.041 220.791 141.582C220.791 149.431 220.85 157.28 220.85 165.189C220.909 172.33 220.909 179.53 220.968 186.671C220.968 187.615 220.968 188.559 221.027 189.445C221.145 192.691 223.152 195.582 225.512 196.173C225.807 196.232 226.103 196.291 226.398 196.291C228.64 196.291 229.998 194.284 229.998 190.92C229.939 175.34 229.88 159.759 229.821 144.179C229.821 143.824 229.821 143.529 229.762 143.175Z" fill="#FB7354"/>
<path d="M86.9915 230.735L89.6575 267.411C89.6575 267.411 74.6573 276.212 73 276.5C71.4148 276.788 77.264 230.879 86.9915 230.735Z" fill="url(#paint3_linear_211_1626)"/>
<path d="M13.5667 297.386C7.65816 320.805 2.3981 318.859 3.26277 329.163V345.087C3.26277 345.087 2.83043 352.221 13.9991 358.273C25.1677 364.326 29.6351 366.632 36.6966 364.11C37.3451 363.894 38.1377 363.534 39.0744 363.101C48.0814 358.994 68.4731 344.727 70.3465 343.79C72.4362 342.782 73.9493 333.991 70.1304 329.595C66.3114 325.272 64.2939 323.687 64.2939 323.687C64.3659 323.471 64.7262 321.165 65.4468 317.49C69.9142 292.991 85.9106 240.535 87.0635 231.888C88.5046 221.8 89.3692 212.793 89.3692 212.793C89.3692 212.793 80.7946 208.614 61.916 209.334C51.7562 209.695 34.4628 210.92 20.7723 212.001C9.09927 212.865 0.0202633 213.658 0.0202633 213.658C-0.628237 219.062 14.5034 234.698 14.6476 235.347C17.4577 246.803 19.115 257.107 19.115 258.693C19.2591 259.485 18.7547 276.995 13.5667 297.386Z" fill="#7A43EE"/>
<path d="M13.5674 297.386C7.65879 320.804 2.39873 318.859 3.2634 329.163L3.33545 345.087C3.33545 345.087 2.90312 352.221 14.0717 358.273C25.2404 364.326 29.7078 366.632 36.7693 364.11C37.4178 363.894 38.2104 363.533 39.1471 363.101C39.7235 347.897 41.1647 317.994 44.8395 303.439C50.676 280.237 55.4317 281.678 55.5037 280.958C55.5758 280.309 55.5037 273.896 54.4949 264.817C53.4141 255.738 48.5864 247.092 46.857 245.506C45.1998 243.921 38.6427 237.148 36.6251 231.888C36.6251 231.888 29.4916 222.593 20.9891 212.073C9.31607 212.937 0.23706 213.73 0.23706 213.73C-0.41144 219.134 14.7202 234.77 14.8644 235.419C17.6745 246.875 19.3318 257.179 19.3318 258.765C19.2597 259.485 18.7554 276.995 13.5674 297.386Z" fill="url(#paint4_linear_211_1626)"/>
<path d="M0.163643 213.802C0.163643 213.802 -0.052524 219.422 10.8999 225.907C21.8524 232.392 26.6081 233.041 30.0667 233.401C33.5254 233.761 36.6238 231.96 36.6238 231.96L89.5126 215.891L137.934 196.508C137.934 196.508 141.104 155.941 141.032 155.509C140.456 147.799 101.546 110.906 79.2807 115.374C79.2807 115.374 51.4673 135.622 37.0561 149.528C22.645 163.363 4.34287 174.459 2.75764 176.261C1.17242 178.062 0.0195312 192.762 0.0195312 192.762L0.163643 213.802Z" fill="url(#paint5_linear_211_1626)"/>
<path d="M2.75781 176.261L38.7856 197.589C41.9561 197.229 140.96 155.437 140.96 155.437L140.6 151.906C140.096 144.268 100.681 111.195 78.4883 115.734C68.4005 121.21 4.34304 174.459 2.75781 176.261Z" fill="url(#paint6_linear_211_1626)"/>
<path d="M0.163643 213.802C0.163643 213.802 -0.052524 219.422 10.8999 225.907C21.8524 232.392 26.6081 233.041 30.0667 233.401C33.5254 233.761 36.6238 231.96 36.6238 231.96L36.4797 212.145L38.8575 197.589C36.6238 191.032 18.6099 182.53 12.0528 178.855C5.49576 175.18 2.75764 176.261 2.75764 176.261C1.17242 178.062 0.0195312 192.762 0.0195312 192.762L0.163643 213.802Z" fill="#B565E5"/>
<path d="M56.2953 311.653C57.0159 316.914 59.1776 318.211 65.4464 317.634C69.9139 293.135 85.9102 240.679 87.0631 232.032C87.0631 232.032 78.8488 240.03 75.5342 241.255C72.2196 242.48 70.5624 242.696 70.5624 242.696C70.5624 242.696 67.0316 257.324 69.9139 262.584C72.7961 267.772 73.7328 273.464 69.0492 278.796C64.3656 284.128 60.9069 288.668 64.0053 293.207C67.1757 297.675 55.2866 304.448 56.2953 311.653Z" fill="url(#paint7_linear_211_1626)"/>
<defs>
<linearGradient id="paint0_linear_211_1626" x1="249.5" y1="16" x2="366" y2="131.5" gradientUnits="userSpaceOnUse">
<stop stop-color="#F8BA55"/>
<stop offset="1" stop-color="#FB7354"/>
</linearGradient>
<linearGradient id="paint1_linear_211_1626" x1="189" y1="258.5" x2="179" y2="-19" gradientUnits="userSpaceOnUse">
<stop stop-color="#CDD8F7"/>
<stop offset="1" stop-color="white"/>
</linearGradient>
<linearGradient id="paint2_linear_211_1626" x1="181" y1="124.5" x2="210" y2="217" gradientUnits="userSpaceOnUse">
<stop stop-color="#F8BA55"/>
<stop offset="1" stop-color="#FB7354"/>
</linearGradient>
<linearGradient id="paint3_linear_211_1626" x1="89.6575" y1="253.618" x2="72.7422" y2="253.618" gradientUnits="userSpaceOnUse">
<stop stop-color="#F8BA55"/>
<stop offset="1" stop-color="#FB7354"/>
</linearGradient>
<linearGradient id="paint4_linear_211_1626" x1="29.0158" y1="335.532" x2="-30.3751" y2="304.347" gradientUnits="userSpaceOnUse">
<stop stop-color="#7A43EE"/>
<stop offset="1" stop-color="#B565E6"/>
</linearGradient>
<linearGradient id="paint5_linear_211_1626" x1="57.5" y1="196" x2="99.5" y2="304" gradientUnits="userSpaceOnUse">
<stop stop-color="#7A43EE"/>
<stop offset="1" stop-color="#B565E6"/>
</linearGradient>
<linearGradient id="paint6_linear_211_1626" x1="62" y1="202" x2="40.5" y2="141" gradientUnits="userSpaceOnUse">
<stop stop-color="#7A43EE"/>
<stop offset="1" stop-color="#B565E6"/>
</linearGradient>
<linearGradient id="paint7_linear_211_1626" x1="72.2872" y1="301.188" x2="39.1122" y2="283.853" gradientUnits="userSpaceOnUse">
<stop stop-color="#7A43EE"/>
<stop offset="1" stop-color="#B565E6"/>
</linearGradient>
</defs>
</svg>
