<svg width="72" height="72" viewBox="0 0 72 72" fill="none" xmlns="http://www.w3.org/2000/svg">
<g clip-path="url(#clip0_211_1607)">
<path d="M43.7362 72.0001C42.8222 71.6134 41.8379 71.3322 41.0118 70.8049C39.4826 69.8206 38.6213 68.3441 38.3753 66.5161C38.3577 66.4282 38.3401 66.3404 38.305 66.2525C38.2874 66.2173 38.2522 66.1822 38.1995 66.0767C36.4242 66.2701 34.7368 65.9009 33.2955 64.7409C31.8718 63.5984 31.1336 62.0867 30.9226 60.2236C30.4305 60.2236 29.9559 60.2587 29.4637 60.2236C25.5089 59.9072 22.9251 56.5148 23.6809 52.6127C23.7512 52.2612 23.7512 52.0679 23.3997 51.8745C20.9916 50.5738 19.8316 48.5173 20.0073 45.828C20.1655 43.2618 21.5893 41.5041 23.8918 40.4143C25.4913 39.6585 27.1084 38.9203 28.7958 38.1117C28.5673 37.8481 28.3915 37.6547 28.1982 37.4614C26.7569 35.9322 25.2804 34.403 23.8567 32.8562C23.5403 32.5047 23.2766 32.452 22.8372 32.6102C16.2459 34.8952 10.2697 33.7527 5.20753 28.9717C1.02421 25.0345 -0.715912 20.0075 0.268398 14.3125C1.53394 6.98294 5.94576 2.3602 13.1172 0.479462C19.7613 -1.26066 27.3721 1.86804 31.0281 7.72117C34.0338 12.5197 34.5786 17.5994 32.6276 22.9077C32.4518 23.3822 32.5221 23.6635 32.8737 24.015C33.6295 24.7533 34.3326 25.5266 34.9829 26.2121C36.02 25.4036 36.934 24.5248 38.0061 23.8744C40.836 22.1694 43.8769 21.9585 46.988 23.0483C50.0288 24.1205 53.052 25.2454 56.0928 26.3528C59.1337 27.4601 62.1042 27.3019 65.0219 25.9309C66.1644 25.386 67.3069 24.8587 68.4494 24.3314C70.2071 23.5229 71.1036 23.8041 72 25.4739C72 35.4049 72 45.3535 72 55.2844C71.7715 55.6887 71.5957 56.1457 71.2969 56.4797C68.9065 59.2393 66.1644 61.5946 63.1236 63.5984C60.1883 65.5142 57.0068 66.9204 53.8254 68.3441C50.9955 69.6097 48.3238 71.2443 45.283 72.0001C44.7733 72.0001 44.2635 72.0001 43.7362 72.0001ZM40.9767 32.452C41.961 32.0125 42.875 31.538 43.8241 31.1688C44.8787 30.747 46.0212 31.2216 46.4958 32.2235C46.9704 33.2253 46.6013 34.3679 45.617 34.9479C45.3885 35.0709 45.16 35.194 44.9315 35.2994C38.5686 38.2699 32.2057 41.2229 25.8429 44.1934C25.5617 44.3164 25.2804 44.457 25.0519 44.6328C24.3488 45.1601 24.0676 45.8983 24.2434 46.742C24.4016 47.5682 24.9289 48.2009 25.755 48.324C26.3175 48.4119 26.9854 48.3064 27.4951 48.0779C29.8856 47.0233 32.2409 45.8808 34.6314 44.7734C35.8793 44.1934 37.0921 44.5801 37.6195 45.6874C38.1468 46.8123 37.6898 47.9724 36.4242 48.57C35.4575 49.0446 34.4732 49.4841 33.5064 49.9411C31.9772 50.6617 30.4481 51.3472 28.9364 52.0854C28.0049 52.5424 27.583 53.4916 27.8115 54.4232C28.04 55.3723 28.8134 56.0403 29.7626 56.0403C30.1844 56.0403 30.6414 55.8996 31.0281 55.7239C33.4361 54.6341 35.8266 53.4916 38.2171 52.3843C39.4826 51.8042 40.7306 52.2612 41.2052 53.4389C41.627 54.4935 41.2052 55.6008 40.1154 56.1457C38.8323 56.7785 37.514 57.341 36.2485 57.9913C35.2993 58.4835 34.9126 59.5381 35.229 60.5048C35.5629 61.4891 36.4945 62.0692 37.5491 61.911C37.8831 61.8582 38.2171 61.7176 38.5335 61.5594C40.8888 60.4697 43.2441 59.3623 45.5994 58.2725C47.0407 57.6046 48.4644 58.3077 48.7281 59.7842C48.9039 60.6982 48.4293 61.577 47.445 62.0516C46.2497 62.6316 45.0194 63.1765 43.8241 63.7565C42.8222 64.2487 42.3477 65.1275 42.541 66.0943C42.8398 67.5532 44.246 68.2035 45.7049 67.5356C49.3609 65.8482 52.9993 64.1432 56.6377 62.4383C60.7156 60.5224 64.2837 57.921 67.3421 54.5989C67.5706 54.3353 67.7464 53.9134 67.7639 53.5619C67.7815 45.705 67.7815 37.8657 67.7815 30.0088C67.7815 29.8154 67.7639 29.6221 67.7288 29.3584C67.3421 29.5342 67.0257 29.6924 66.7093 29.833C62.7721 31.6258 58.7645 31.8368 54.6867 30.3779C51.7338 29.3233 48.7984 28.2335 45.8455 27.1789C45.2303 26.968 44.5975 26.7746 43.9472 26.7043C41.6094 26.4055 38.9729 27.6886 38.094 29.5342C39.0608 30.4658 40.0099 31.4501 40.9767 32.452ZM29.534 16.8963C29.534 9.93587 23.8391 4.24093 16.8786 4.24093C9.91815 4.24093 4.22322 9.93587 4.22322 16.8963C4.22322 23.8568 9.91815 29.5518 16.8786 29.5518C23.8391 29.5342 29.534 23.8393 29.534 16.8963ZM36.934 34.3503C34.6314 31.9422 32.4167 29.6221 30.3953 27.5128C29.3759 28.4971 28.374 29.4463 27.3545 30.4482C29.0419 32.241 30.8347 34.1394 32.6452 36.0377C32.7506 36.1431 32.9967 36.1959 33.1198 36.1431C34.3677 35.5631 35.5981 34.9655 36.934 34.3503ZM12.0977 15.4726C11.1661 14.5762 9.93573 14.5586 9.07446 15.4023C8.23076 16.2284 8.19561 17.5115 9.09204 18.4255C10.463 19.8317 11.8516 21.2379 13.2754 22.5913C14.1718 23.4526 15.367 23.4877 16.2459 22.6089C19.0758 19.8141 21.8881 16.9842 24.7004 14.1719C25.2277 13.6446 25.4386 12.9767 25.2628 12.2385C24.8762 10.5862 22.9427 10.0238 21.6771 11.2541C20.1479 12.7306 18.6539 14.2598 17.1423 15.7714C16.3689 16.5448 15.5955 17.3358 14.7342 18.197C13.8027 17.1952 12.9765 16.3163 12.0977 15.4726Z" fill="#7A43EE"/>
</g>
<defs>
<clipPath id="clip0_211_1607">
<rect width="72" height="72" fill="white"/>
</clipPath>
</defs>
</svg>
