<svg width="161" height="146" viewBox="0 0 161 146" fill="none" xmlns="http://www.w3.org/2000/svg">
<path d="M99.6919 14.4966C81.1031 10.5847 62.512 6.72074 43.9232 2.80878C35.3894 1.05726 28.2185 6.10954 25.6965 15.666C18.0667 44.6693 10.4849 73.675 2.85512 102.678C2.50559 103.961 2.2041 105.247 2.09473 106.542C1.49562 114.119 5.6006 119.945 12.6066 121.432C20.5183 123.106 28.3843 124.73 36.296 126.404C45.7814 128.393 55.2668 130.382 64.7042 132.369C74.1896 134.358 83.723 136.349 93.2084 138.338C101.12 140.012 109.034 141.638 116.994 143.314C125.432 145.061 132.651 140.011 135.164 130.647C142.846 101.55 150.483 72.4022 158.069 43.3006C160.536 33.8859 156.554 26.4769 148.116 24.7299C131.961 21.27 115.849 17.9085 99.6919 14.4966Z" fill="url(#paint0_linear_211_1580)"/>
<path d="M56.7013 83.7557C53.1262 83.0089 49.4996 85.3887 48.3001 89.3756C47.4982 92.0815 46.7923 94.792 46.1825 97.507C45.2712 101.508 47.3583 105.217 50.8853 105.961C54.4123 106.706 58.0915 104.232 59.2887 100.293C59.6885 98.9642 59.9923 97.6307 60.3441 96.2995C60.6982 94.9202 61.1003 93.5432 61.4063 92.1617C62.2718 88.1109 60.2763 84.5025 56.7013 83.7557ZM96.4063 92.0843C96.3583 92.082 96.3583 92.082 96.4063 92.0843C92.8793 91.3398 89.2047 93.7173 88.06 97.5623C87.2055 100.362 86.4929 103.217 85.8305 106.025C84.974 109.884 87.1114 113.547 90.5446 114.239C90.5446 114.239 90.5446 114.239 90.5926 114.242C94.0739 114.936 97.7485 112.558 98.9412 108.716C99.3913 107.341 99.6974 105.959 100.051 104.58C100.408 103.153 100.862 101.682 101.171 100.252C101.981 96.3434 99.8853 92.8265 96.4063 92.0843ZM90.0577 35.9919C86.4346 35.2429 82.7509 37.8125 81.5287 42.2797C78.8993 52.0718 76.3683 61.8204 73.8349 71.617C72.4255 76.9899 71.016 82.3628 69.6043 87.7838C68.3753 92.3951 67.096 97.0521 66.011 101.67C65.0472 105.764 67.2371 109.334 70.668 110.074C71.098 110.142 71.528 110.211 72.0106 110.186C75.574 110.162 78.2926 107.643 79.4577 103.365C84.5084 84.1082 89.5591 64.8512 94.6122 45.5461C94.7309 45.0704 94.8474 44.6427 94.9662 44.1669C95.601 40.9235 94.2094 37.7769 91.5742 36.4969C91.055 36.2798 90.5815 36.113 90.0577 35.9919ZM50.4007 27.6656C46.8256 26.9189 43.0961 29.4382 41.9265 33.8116C39.2994 43.5556 36.7661 53.3522 34.2327 63.1489C31.8867 72.0397 29.5383 80.9786 27.2403 89.8717C26.9456 91.0131 26.6006 92.2002 26.354 93.3439C25.4885 97.3947 27.5823 100.96 31.0613 101.702C31.4913 101.77 31.9213 101.839 32.4039 101.814C35.8712 101.785 38.6836 99.3185 39.748 95.1327C44.8536 75.7339 49.9089 56.3808 55.0145 36.982C55.131 36.5542 55.1972 36.1723 55.3137 35.7445C55.9462 32.5492 54.6004 29.4528 52.0613 28.1774C51.446 27.9558 50.9245 27.7867 50.4007 27.6656ZM129.811 44.3228C126.236 43.576 122.506 46.0953 121.337 50.4687C118.71 60.2128 116.176 70.0094 113.595 79.8037C111.249 88.6946 108.9 97.6335 106.602 106.527C106.308 107.668 105.963 108.855 105.716 109.999C104.851 114.05 106.944 117.615 110.423 118.357C110.853 118.425 111.283 118.494 111.766 118.468C115.233 118.44 118.046 115.973 119.11 111.788C124.216 92.3888 129.271 73.0357 134.377 53.6368C134.493 53.2091 134.559 52.8271 134.676 52.3994C135.308 49.2041 133.963 46.1077 131.423 44.8323C130.856 44.6129 130.335 44.4438 129.811 44.3228ZM110.126 40.1664C109.888 40.107 109.648 40.0957 109.408 40.0843C105.907 39.8224 102.669 42.1243 101.625 45.8778C98.8833 56.0016 96.286 66.1321 93.643 76.2124C93.4717 76.782 93.4421 77.4064 93.4149 77.9827C93.3976 81.3997 95.3929 83.9973 98.3961 84.6207C98.682 84.6824 98.9679 84.744 99.3041 84.7599C102.47 85.0059 105.762 82.5622 106.751 78.9505C108.145 73.9138 109.394 68.8703 110.738 63.8793C111.971 59.172 113.203 54.5127 114.436 49.8054C114.676 48.8058 114.916 47.8062 114.913 46.8434C114.976 43.4767 112.892 40.7305 110.126 40.1664ZM70.3733 31.8356C70.2315 31.7808 70.0393 31.7717 69.8472 31.7626C66.3523 31.3566 62.9201 33.6974 61.8761 37.4509C59.1324 47.6227 56.5329 57.8013 53.8373 67.9754C53.666 68.5449 53.6364 69.1693 53.6572 69.7479C53.6903 73.1192 55.6878 75.6687 58.643 76.2899C58.9769 76.3538 59.3108 76.4177 59.6471 76.4336C62.8148 76.6316 66.0137 74.1353 67.0509 70.5259C68.4399 65.5852 69.6871 60.5897 70.9824 55.5965C72.2182 50.8411 73.4998 46.1361 74.6876 41.3785C74.9206 40.523 75.1559 39.6195 75.1487 38.7527C75.4061 35.347 73.2804 32.4545 70.3733 31.8356Z" fill="url(#paint1_linear_211_1580)"/>
<defs>
<linearGradient id="paint0_linear_211_1580" x1="81.5929" y1="115.272" x2="28.2666" y2="18.8325" gradientUnits="userSpaceOnUse">
<stop stop-color="#7A43EE"/>
<stop offset="1" stop-color="#B565E6"/>
</linearGradient>
<linearGradient id="paint1_linear_211_1580" x1="82.5704" y1="29.1097" x2="78.4174" y2="116.911" gradientUnits="userSpaceOnUse">
<stop stop-color="#E8F0FF"/>
<stop offset="1" stop-color="#CDD8F7"/>
</linearGradient>
</defs>
</svg>
