<svg width="72" height="72" viewBox="0 0 72 72" fill="none" xmlns="http://www.w3.org/2000/svg">
<g clip-path="url(#clip0_211_1622)">
<path d="M15.3335 0C15.4085 0.0562354 15.4647 0.112471 15.5397 0.149961C16.5519 0.656079 17.0393 1.59334 16.8144 2.54934C16.5707 3.58032 15.7459 4.21765 14.6024 4.21765C11.4158 4.21765 8.24785 4.21765 5.06118 4.21765C4.79875 4.21765 4.55506 4.21765 4.19891 4.21765C4.19891 4.49883 4.19891 4.76126 4.19891 5.00495C4.19891 8.13538 4.19891 11.2658 4.19891 14.3963C4.19891 15.7272 3.61781 16.5519 2.53059 16.8144C1.5371 17.0393 0.674824 16.5519 0.0937256 15.3897C0.0937256 15.371 0.0374902 15.3523 0 15.3335C0 10.741 0 6.1484 0 1.55584C0.337412 0.84353 0.84353 0.337412 1.55584 0C6.1484 0 10.741 0 15.3335 0ZM71.9813 1.55584C71.6438 0.862275 71.1377 0.337412 70.4254 0C65.8329 0 61.2403 0 56.6478 0C56.629 0.0374902 56.5915 0.0937256 56.5728 0.0937256C55.4293 0.674824 54.9232 1.5371 55.1481 2.53059C55.4106 3.61781 56.2354 4.19891 57.5663 4.19891C60.6967 4.19891 63.8271 4.19891 66.9763 4.19891C67.22 4.19891 67.4637 4.19891 67.7636 4.19891C67.7636 4.53632 67.7636 4.79875 67.7636 5.06118C67.7636 8.24785 67.7636 11.4158 67.7636 14.6024C67.7636 15.7459 68.4009 16.5707 69.4319 16.8144C70.3879 17.0393 71.3064 16.5332 71.8313 15.521C71.8688 15.446 71.925 15.371 71.9813 15.3148C71.9813 10.741 71.9813 6.1484 71.9813 1.55584ZM0 70.4442C0.337412 71.1377 0.84353 71.6626 1.55584 72C6.1484 72 10.741 72 15.3335 72C15.3523 71.9625 15.371 71.9063 15.4085 71.8875C16.5519 71.3064 17.0581 70.4442 16.8331 69.4507C16.5707 68.3634 15.7459 67.7823 14.415 67.7823C11.2846 67.7823 8.15413 67.7823 5.00495 67.7823C4.76126 67.7823 4.51757 67.7823 4.21765 67.7823C4.21765 67.4262 4.21765 67.1825 4.21765 66.9201C4.21765 63.7334 4.21765 60.5655 4.21765 57.3788C4.21765 56.2354 3.58032 55.4106 2.54934 55.1669C1.59334 54.9419 0.674824 55.4481 0.149961 56.4603C0.112471 56.5353 0.0562354 56.6103 0 56.6852C0 61.259 0 65.8516 0 70.4442ZM70.4442 71.9813C71.1377 71.6438 71.6626 71.1377 72 70.4254C72 65.8329 72 61.2403 72 56.6478C71.9625 56.629 71.9063 56.6103 71.8875 56.5728C71.3064 55.4293 70.4442 54.9232 69.4507 55.1481C68.3634 55.4106 67.7823 56.2354 67.7823 57.5663C67.7823 60.6967 67.7823 63.8271 67.7823 66.9763C67.7823 67.22 67.7823 67.4637 67.7823 67.7636C67.4262 67.7636 67.1825 67.7636 66.9201 67.7636C63.7334 67.7636 60.5655 67.7636 57.3788 67.7636C56.2354 67.7636 55.4106 68.4009 55.1669 69.4319C54.9419 70.3879 55.4481 71.3064 56.4603 71.8313C56.5353 71.8688 56.6103 71.925 56.6665 71.9813C61.259 71.9813 65.8516 71.9813 70.4442 71.9813ZM8.56652 47.7063C8.56652 48.6623 8.90393 49.3934 9.78495 49.8245C11.2096 50.5181 12.7842 49.4871 12.7842 47.8188C12.8029 44.2572 12.7842 40.6957 12.7842 37.1528C12.7842 32.8414 12.7842 28.5301 12.7842 24.2374C12.7842 23.3189 12.4468 22.5879 11.6032 22.1755C10.1599 21.4444 8.56652 22.4941 8.56652 24.1999C8.54777 28.1177 8.56652 32.0167 8.56652 35.9344C8.58526 39.8521 8.58526 43.7886 8.56652 47.7063ZM59.1783 47.7251C59.1783 48.6811 59.5158 49.4121 60.3968 49.8433C61.8214 50.5368 63.396 49.5059 63.396 47.8375C63.4147 44.1822 63.396 40.5269 63.396 36.8904C63.396 32.6727 63.396 28.4551 63.396 24.2562C63.396 23.3377 63.0586 22.6066 62.215 22.1942C60.7717 21.4632 59.1971 22.5129 59.1783 24.2187C59.1596 28.1364 59.1783 32.0354 59.1783 35.9531C59.1971 39.8521 59.1971 43.7886 59.1783 47.7251ZM17.0206 39.3647C17.0206 40.377 17.5267 41.1268 18.3702 41.4642C19.8136 42.0266 21.2382 40.9768 21.2382 39.3085C21.2382 34.3223 21.2382 29.3361 21.2382 24.3499C21.2382 22.869 20.3759 21.913 19.1013 21.913C17.8454 21.9318 17.0206 22.8878 17.0206 24.3124C17.0206 26.7868 17.0206 29.2799 17.0206 31.7542C17.0206 34.3036 17.0018 36.8342 17.0206 39.3647ZM25.4559 39.271C25.4559 40.6394 26.3181 41.5954 27.5366 41.6142C28.7925 41.6329 29.6735 40.6582 29.6735 39.2523C29.6735 34.2661 29.6735 29.2799 29.6735 24.2937C29.6735 22.869 28.8112 21.913 27.5553 21.9318C26.2994 21.9318 25.4559 22.8878 25.4559 24.3312C25.4559 26.7868 25.4559 29.2424 25.4559 31.698C25.4559 34.2286 25.4371 36.7404 25.4559 39.271ZM38.0901 24.2562C38.0901 22.8878 37.2278 21.9318 36.0094 21.9318C34.7535 21.913 33.8724 22.8878 33.8724 24.2937C33.8724 29.2799 33.8724 34.2661 33.8724 39.2523C33.8724 40.6582 34.7347 41.6329 35.9906 41.6142C37.2466 41.6142 38.0901 40.6394 38.0901 39.2148C38.0901 36.7592 38.0901 34.3036 38.0901 31.848C38.0901 29.3174 38.1088 26.7868 38.0901 24.2562ZM46.5254 24.1812C46.5254 23.169 46.0193 22.4192 45.1757 22.0818C43.7324 21.5194 42.3077 22.5691 42.3077 24.2187C42.3077 29.2049 42.3077 34.1911 42.3077 39.1773C42.3077 40.6582 43.17 41.6142 44.4447 41.6142C45.7006 41.5954 46.5254 40.6394 46.5254 39.2148C46.5254 36.7404 46.5254 34.2473 46.5254 31.773C46.5254 29.2424 46.5441 26.7118 46.5254 24.1812ZM54.9607 24.1812C54.9607 23.169 54.4546 22.4192 53.611 22.0818C52.1677 21.5194 50.743 22.5691 50.743 24.2374C50.743 29.2236 50.743 34.2098 50.743 39.196C50.743 40.6769 51.6053 41.6329 52.88 41.6329C54.1359 41.6142 54.9607 40.6582 54.9607 39.2335C54.9607 36.7592 54.9607 34.2661 54.9607 31.7917C54.9607 29.2424 54.9794 26.7118 54.9607 24.1812ZM19.1388 45.8318C17.9953 45.8131 17.0393 46.7691 17.0018 47.8938C16.9831 49.056 17.9578 50.0495 19.12 50.0307C20.2635 50.0307 21.2195 49.0747 21.2195 47.9313C21.2382 46.8066 20.2822 45.8506 19.1388 45.8318ZM27.4429 50.0495C28.605 50.1244 29.636 49.1872 29.6735 48.0062C29.711 46.8628 28.7925 45.8881 27.649 45.8318C26.5056 45.7756 25.5121 46.6941 25.4559 47.8375C25.3996 48.981 26.2994 49.9745 27.4429 50.0495ZM35.9906 45.8318C34.8472 45.8318 33.8912 46.7691 33.8724 47.9125C33.8537 49.0747 34.8472 50.0682 36.0094 50.0495C37.1528 50.0307 38.0901 49.0747 38.0901 47.9313C38.0901 46.7878 37.1341 45.8318 35.9906 45.8318ZM44.4259 45.8318C43.2825 45.8318 42.3265 46.7691 42.3077 47.9125C42.289 49.0747 43.2825 50.0682 44.4447 50.0495C45.5881 50.0307 46.5254 49.0747 46.5254 47.9313C46.5254 46.7878 45.5694 45.8318 44.4259 45.8318ZM52.88 45.8318C51.7365 45.8131 50.7618 46.7503 50.743 47.8938C50.7243 49.056 51.699 50.0495 52.8612 50.0495C54.0047 50.0495 54.9607 49.0935 54.9607 47.95C54.9794 46.8066 54.0234 45.8506 52.88 45.8318Z" fill="#7A43EE"/>
</g>
<defs>
<clipPath id="clip0_211_1622">
<rect width="72" height="72" fill="white"/>
</clipPath>
</defs>
</svg>
