<svg width="158" height="154" viewBox="0 0 158 154" fill="none" xmlns="http://www.w3.org/2000/svg">
<path d="M67.1812 15.8685C68.7247 15.9318 70.382 15.9738 71.9254 16.0371C73.4689 16.1005 75.1261 16.1424 76.7834 16.1844C78.4407 16.2263 79.9841 16.2897 81.6414 16.3317C83.2987 16.3736 84.8421 16.437 86.4994 16.4789C87.7939 16.4712 88.996 16.5988 90.2905 16.5911C91.585 16.5834 92.7871 16.7109 94.0816 16.7032C95.3761 16.6956 96.5782 16.8231 97.8727 16.8154C99.1671 16.8077 100.483 16.9139 101.664 16.9276C102.958 16.9199 104.274 17.026 105.455 17.0397C106.749 17.0321 108.065 17.1382 109.36 17.1305C110.654 17.1228 111.97 17.229 113.265 17.2213C114.559 17.2136 115.875 17.3197 117.169 17.3121C117.283 17.2907 117.283 17.2907 117.397 17.2693C117.511 17.2479 117.511 17.2479 117.625 17.2265C117.738 17.2051 117.738 17.2051 117.852 17.1838C117.966 17.1624 117.966 17.1624 118.08 17.141C118.307 17.0982 118.556 17.1692 118.784 17.1264C119.011 17.0837 119.26 17.1547 119.509 17.2257C119.758 17.2967 119.986 17.254 120.235 17.325C120.484 17.396 120.712 17.3532 120.961 17.4242C124.247 17.9847 127.163 19.0859 129.668 20.5002C132.193 22.0284 134.442 23.962 136.185 26.344C137.929 28.726 139.239 31.3073 140.044 34.337C140.828 37.2528 141.085 40.5032 140.66 43.8818C140.05 49.4157 139.327 54.971 138.718 60.5049C138.016 66.174 137.428 71.8217 136.727 77.4907C136.025 83.1598 135.345 88.9427 134.664 94.7255C133.984 100.508 133.211 106.426 132.552 112.323C132.099 116.178 130.898 119.821 129.157 123.093C127.416 126.366 125.134 129.269 122.383 131.553C119.652 133.951 116.566 135.709 113.124 136.827C109.796 137.924 106.112 138.381 102.413 138.134C99.5324 137.85 96.6516 137.567 93.7923 137.398C90.9115 137.114 88.0308 136.831 85.1715 136.662C82.2907 136.378 79.5238 136.074 76.6644 135.904C73.8975 135.6 71.0381 135.43 68.2712 135.126C65.5042 134.821 62.8724 134.609 60.1055 134.304C57.3386 133.999 54.7068 133.787 52.0537 133.461C49.4005 133.135 46.6549 132.944 44.0018 132.618C41.3486 132.292 38.7169 132.08 36.0637 131.754C32.5712 131.35 29.427 130.291 26.7662 128.671C24.1053 127.05 21.7927 124.775 20.1201 122.144C18.3337 119.535 17.166 116.456 16.5457 113.156C15.9255 109.856 15.8528 106.335 16.5767 102.664C17.5488 97.1802 18.5209 91.6959 19.5143 86.3255C20.5078 80.955 21.5012 75.5845 22.3809 70.2355C23.3743 64.865 24.2754 59.6297 25.2902 54.373C26.1913 49.1377 27.2275 43.9949 28.1285 38.7596C28.1781 38.3968 28.2278 38.034 28.3912 37.6499C28.4408 37.2871 28.6043 36.903 28.6539 36.5402C28.7035 36.1774 28.867 35.7933 28.9166 35.4305C29.08 35.0464 29.1297 34.6836 29.2931 34.2994C30.3943 31.3828 31.8796 28.6295 33.6781 26.2887C35.4766 23.9479 37.5668 21.9057 39.9488 20.162C42.3522 18.5322 44.9335 17.2224 47.7142 16.3463C50.4948 15.4702 53.361 15.0494 56.3342 15.1974C57.2873 15.2539 58.219 15.1966 59.0583 15.2745C60.0114 15.331 60.9432 15.2737 61.7825 15.3516C62.7356 15.4081 63.6674 15.3508 64.5067 15.4286C65.4102 15.8479 66.3419 15.7906 67.1812 15.8685Z" fill="url(#paint0_linear_211_1584)"/>
<path d="M107.009 59.1604C108.552 59.2237 109.939 59.0809 111.375 58.5753C112.698 58.091 113.978 57.3792 115.102 56.4612C116.225 55.5432 117.192 54.419 117.888 53.1099C118.585 51.8009 119.146 50.3995 119.345 48.9484C119.522 47.3836 119.493 45.9753 119.122 44.6311C118.752 43.287 118.175 42.0995 117.278 41.0898C116.496 40.0589 115.393 39.2058 114.219 38.6017C113.045 37.9977 111.686 37.664 110.143 37.6006C108.713 37.5159 107.234 37.7939 105.911 38.2782C104.589 38.7624 103.309 39.4742 102.185 40.3922C101.062 41.3102 100.095 42.4344 99.3771 43.6297C98.6592 44.8249 98.0979 46.2263 97.9208 47.7912C97.7223 49.2423 97.7727 50.7643 98.1431 52.1085C98.5136 53.4526 99.0902 54.6402 99.8944 55.7849C100.677 56.8159 101.78 57.669 102.975 58.3868C104.199 58.6281 105.579 59.0756 107.009 59.1604ZM78.7349 24.0646C81.8218 24.1913 84.9088 24.318 88.1095 24.4233C91.1964 24.55 94.3971 24.6553 97.5979 24.7606C100.799 24.8659 103.886 24.9926 107.086 25.0979C110.287 25.2032 113.488 25.3085 116.71 25.5276C116.937 25.4849 117.186 25.5559 117.414 25.5131C117.642 25.4703 117.891 25.5414 118.14 25.6124C118.388 25.6834 118.616 25.6406 118.865 25.7116C119.114 25.7827 119.342 25.7399 119.591 25.8109C121.789 26.2225 123.709 27.0396 125.445 28.1271C127.181 29.2146 128.619 30.5938 129.736 32.151C130.853 33.7082 131.672 35.5571 132.171 37.584C132.67 39.6109 132.735 41.8371 132.458 44.1275C131.863 48.4807 131.402 52.9263 130.828 57.3933C130.254 61.8602 129.68 66.3272 129.105 70.7942C128.553 75.375 127.978 79.842 127.426 84.4227C126.873 89.0035 126.32 93.5843 125.675 98.3002C125.696 98.414 125.604 98.5492 125.604 98.5492C125.625 98.663 125.533 98.7982 125.554 98.912C125.575 99.0258 125.483 99.161 125.504 99.2747C125.526 99.3885 125.433 99.5237 125.455 99.6375C125.32 99.5451 125.298 99.4313 125.142 99.2251C125.12 99.1113 124.985 99.0189 124.964 98.9051C124.942 98.7913 124.807 98.6989 124.786 98.5851C124.764 98.4713 124.629 98.3789 124.608 98.2651C123.917 97.099 123.135 96.068 122.444 94.9018C121.754 93.7356 120.971 92.7046 120.28 91.5385C119.59 90.3723 118.807 89.3413 118.117 88.1751C117.426 87.0089 116.757 85.9566 116.067 84.7904C115.398 83.738 114.615 82.707 113.74 81.8112C112.865 80.9154 111.918 80.2685 110.972 79.6217C110.026 78.9749 108.895 78.5984 107.877 78.2005C106.746 77.824 105.658 77.6751 104.57 77.5262C103.389 77.5125 102.322 77.4774 101.07 77.7127C99.9324 77.9266 98.8159 78.2542 97.607 78.7171C96.5118 79.1585 95.438 79.7138 94.2932 80.518C93.2622 81.3008 92.2312 82.0837 91.2644 83.2079C90.8734 83.6348 90.4824 84.0617 89.9776 84.51C89.5866 84.937 89.0818 85.3853 88.6908 85.8122C88.2998 86.2391 87.795 86.6875 87.404 87.1144C87.0129 87.5413 86.5081 87.9896 86.0033 88.4379C85.8468 88.2317 85.8254 88.1179 85.6688 87.9117C85.5122 87.7055 85.4909 87.5917 85.3343 87.3855C85.1777 87.1794 85.1563 87.0656 84.9998 86.8594C84.8432 86.6532 84.8218 86.5394 84.6866 86.447C83.7258 85.096 82.8575 83.6098 81.8967 82.2588C80.9359 80.9078 80.0675 79.4217 79.1067 78.0707C78.2597 76.6983 77.2989 75.3473 76.4305 73.8612C75.5835 72.4888 74.6228 71.1378 73.7758 69.7654C73.1281 68.8269 72.3666 67.9097 71.648 67.22C70.9079 66.4166 69.983 65.8836 69.0582 65.3505C68.1333 64.8175 67.2298 64.3982 66.2339 64.1142C65.2381 63.8301 64.2635 63.6598 63.1966 63.6247C62.1297 63.5896 61.198 63.6469 60.1525 63.7256C59.1283 63.9181 58.1042 64.1106 57.009 64.552C56.0277 64.9721 54.9325 65.4135 53.9939 66.0612C53.0553 66.7088 52.003 67.3779 51.1072 68.2531C49.7989 69.4415 48.4907 70.6299 47.3177 71.9107C46.0095 73.099 44.7013 74.2874 43.5282 75.5682C42.22 76.7566 41.047 78.0373 39.7388 79.2257C38.4306 80.4141 37.1438 81.7163 35.9493 82.8833C35.1459 83.6233 34.3425 84.3634 33.5605 85.2172C32.7571 85.9573 31.9751 86.8111 31.0579 87.5726C30.2545 88.3126 29.3586 89.1879 28.5552 89.9279C27.7518 90.668 26.856 91.5433 25.9602 92.4185C25.9388 92.3047 26.0098 92.0557 25.9884 91.9419C25.9671 91.8281 26.0595 91.693 26.0381 91.5792C26.0167 91.4654 26.1091 91.3302 26.1091 91.3302C26.0877 91.2164 26.0877 91.2164 26.1801 91.0812C27.0033 86.6853 27.7127 82.3107 28.5358 77.9147C29.359 73.5188 30.0897 69.258 30.7991 64.8834C31.5299 60.6226 32.3744 56.3404 33.1052 52.0797C33.836 47.8189 34.5881 43.6719 35.3189 39.4111C35.3899 39.1621 35.3471 38.9345 35.4181 38.6856C35.4892 38.4366 35.5602 38.1876 35.5174 37.96C35.5884 37.7111 35.6594 37.4621 35.7305 37.2131C35.8015 36.9641 35.8725 36.7152 35.9649 36.58C36.7392 34.4316 37.6702 32.4895 39.0066 30.8246C40.2293 29.181 41.7223 27.7223 43.3719 26.4697C45.0429 25.331 46.8704 24.3985 48.7621 23.8073C50.6538 23.2161 52.7235 22.945 54.8573 23.0152C56.7635 23.1281 58.7836 23.2197 60.7822 23.1975C62.8022 23.2891 64.7085 23.4021 66.7071 23.3799C68.7271 23.4715 70.6334 23.5845 72.632 23.5623C74.7162 23.9952 76.7149 23.973 78.7349 24.0646Z" fill="#FBDCAA"/>
<defs>
<linearGradient id="paint0_linear_211_1584" x1="136.491" y1="118.378" x2="59.0728" y2="-0.95179" gradientUnits="userSpaceOnUse">
<stop stop-color="#FB7354"/>
<stop offset="1" stop-color="#F8BA55"/>
</linearGradient>
</defs>
</svg>
