<svg width="457" height="481" viewBox="0 0 457 481" fill="none" xmlns="http://www.w3.org/2000/svg">
<path d="M165.452 439.657L284.179 423.556C284.628 423.459 285.088 423.476 285.563 423.663L324.472 430.272C326.841 431.152 327.58 442.832 325.104 443.336L203.921 469.965C203.358 470.072 202.779 470.008 202.243 469.769L166.535 451.994C164.379 450.923 163.089 440.151 165.452 439.657Z" fill="url(#paint0_linear_202_561)"/>
<path d="M166.405 438.771L283.434 415.085C283.884 414.988 284.344 415.005 284.819 415.193L324.679 430.025C327.048 430.905 326.774 434.31 324.359 434.865L203.177 461.494C202.613 461.601 202.035 461.537 201.498 461.298L165.786 443.466C163.629 442.395 164.037 439.208 166.405 438.771Z" fill="url(#paint1_linear_202_561)"/>
<path d="M195.416 409.009L197.808 436.242C197.943 437.777 199.36 438.913 200.88 438.607L269.368 423.883C270.723 423.649 271.646 422.422 271.527 421.058L269.104 393.484C268.965 391.892 267.438 390.823 265.918 391.129L197.46 406.194C196.167 406.479 195.296 407.645 195.416 409.009Z" fill="#CDD8F7"/>
<path d="M67.298 186.454L368.031 175.45C375.343 175.208 381.605 180.617 382.234 187.78L397.685 363.684C398.294 370.62 393.46 376.889 386.47 378.19L89.6322 433.541C81.624 434.989 74.0298 429.411 73.3307 421.452L53.984 201.202C53.3048 193.47 59.3605 186.75 67.298 186.454Z" fill="#CDD8F7"/>
<path d="M78.7409 185.621L366.581 173.285C374.916 172.954 382.054 179.202 382.783 187.503L398.259 363.691C398.963 371.707 393.469 378.95 385.518 380.394L101.149 432.242C92.0704 433.899 83.5954 427.425 82.7914 418.272L63.8443 202.57C63.0652 193.701 69.8369 186.002 78.7409 185.621Z" fill="white"/>
<path d="M95.0909 198.909L358.163 187.03C365.812 186.702 372.301 192.09 372.935 199.31L386.364 352.189C386.973 359.125 381.916 365.47 374.637 366.74L114.575 412.901C106.283 414.375 98.5751 408.807 97.8759 400.847L81.4357 213.686C80.7616 206.011 86.9877 199.277 95.0909 198.909Z" fill="#CDD8F7"/>
<path d="M154 67L293.957 55.5142C307.408 54.4103 319.124 64.6116 319.882 78.0871L331.746 289.18C332.452 301.755 323.318 312.737 310.825 314.333L63 346" stroke="white" stroke-width="9"/>
<path d="M425.377 119.054L242.368 130.148C237.059 130.488 232.023 131.917 227.395 134.3C222.835 136.682 218.684 139.948 215.281 143.896C211.878 147.843 209.155 152.539 207.386 157.576C205.616 162.68 204.732 168.125 205.072 173.842L208.339 239.722C208.611 245.235 209.972 250.339 212.15 254.899C214.328 259.391 217.39 263.27 221.066 266.401C224.741 269.464 228.96 271.778 233.588 273.139C238.216 274.5 243.185 274.84 248.357 274.16L426.534 248.978C430.686 248.366 434.633 246.868 438.172 244.622C441.711 242.376 444.91 239.382 447.564 235.911C450.218 232.44 452.328 228.424 453.826 224.069C455.323 219.713 456.072 215.085 456.072 210.253L455.799 153.084C455.799 148.183 454.915 143.555 453.417 139.404C451.92 135.252 449.674 131.509 446.952 128.447C444.229 125.384 440.895 122.934 437.287 121.3C433.748 119.531 429.665 118.782 425.377 119.054Z" fill="url(#paint2_linear_202_561)"/>
<path d="M427.419 163.769L418.503 164.586L404.687 199.091L389.714 167.172L379.437 167.989L382.16 173.365C382.296 173.569 382.364 173.705 382.5 173.91C382.636 174.114 382.704 174.318 382.84 174.522C382.976 174.726 383.044 174.93 383.113 175.135C383.181 175.339 383.317 175.543 383.385 175.815L400.195 208.96L392.913 226.247L402.441 225.09L427.419 163.769ZM362.082 208.619C360.381 208.824 358.952 208.756 357.727 208.483C356.502 208.211 355.481 207.735 354.732 207.054C353.915 206.373 353.371 205.557 352.963 204.672C352.554 203.719 352.35 202.698 352.35 201.609C352.282 199.636 352.895 198.07 353.984 196.845C355.072 195.62 356.774 194.667 358.816 193.987C360.925 193.238 363.444 192.762 366.302 192.353C369.161 191.945 372.427 191.605 375.898 191.265L375.966 194.123C375.966 195.076 375.898 196.369 375.558 197.798C375.218 199.227 374.605 200.793 373.652 202.358C372.7 203.855 371.338 205.285 369.433 206.442C367.527 207.394 365.145 208.279 362.082 208.619ZM320.022 212.975C317.64 213.247 315.53 212.975 313.693 212.295C311.855 211.614 310.222 210.457 308.929 209.028C307.636 207.599 306.615 205.829 305.934 203.855C305.254 201.882 304.845 199.704 304.777 197.39C304.709 195.28 304.913 193.102 305.458 191.06C306.002 189.019 306.819 186.977 307.976 185.275C309.133 183.506 310.63 182.009 312.468 180.92C314.305 179.763 316.483 179.082 318.933 178.81C321.179 178.606 323.221 178.878 324.991 179.558C326.76 180.239 328.325 181.26 329.687 182.689C330.98 184.05 332.001 185.82 332.749 187.794C333.498 189.767 333.906 192.013 333.906 194.395C333.974 196.981 333.634 199.363 332.953 201.541C332.273 203.719 331.252 205.625 330.027 207.258C328.802 208.892 327.237 210.253 325.535 211.206C323.902 212.09 322.064 212.703 320.022 212.975ZM255.979 197.934C255.911 195.756 256.252 193.783 257.068 192.013C257.817 190.244 258.906 188.678 260.267 187.385C261.628 186.092 263.193 185.071 264.963 184.254C266.664 183.506 268.502 183.029 270.34 182.825C272.449 182.621 274.355 182.825 276.057 183.302C277.758 183.778 279.255 184.595 280.548 185.684C281.842 186.773 282.794 188.134 283.543 189.699C284.224 191.265 284.7 193.102 284.768 195.144L255.979 197.934ZM303.416 154.581L293.616 155.33L294.909 194.872C294.773 192.694 294.296 190.38 293.411 188.066C292.527 185.752 291.166 183.506 289.328 181.532C287.422 179.558 285.04 177.925 281.91 176.836C278.779 175.747 274.968 175.339 270.408 175.679C266.937 175.951 263.534 176.7 260.539 177.857C257.477 179.014 254.754 180.647 252.44 182.893C250.126 185.139 248.357 187.862 247.132 191.333C245.907 194.735 245.362 198.819 245.566 203.651C245.702 207.462 246.383 210.865 247.54 213.724C248.697 216.65 250.399 219.032 252.644 220.938C254.89 222.844 257.613 224.137 260.948 224.885C264.282 225.634 268.162 225.77 272.654 225.226C277.894 224.613 281.91 223.252 284.904 221.482C287.899 219.781 289.94 217.671 291.37 215.698C292.799 213.724 293.548 211.818 293.888 210.389C294.296 208.96 294.364 208.075 294.364 208.075L284.292 209.164C284.292 209.164 284.156 209.64 283.815 210.457C283.475 211.274 282.93 212.295 281.978 213.384C281.093 214.472 279.868 215.629 278.166 216.514C276.465 217.467 274.355 218.216 271.701 218.488C269.523 218.76 267.481 218.556 265.644 218.08C263.806 217.535 262.105 216.65 260.743 215.493C259.314 214.336 258.225 212.771 257.409 211.07C256.592 209.3 256.115 207.326 256.047 205.08L295.113 201.065L295.521 213.315C295.521 214.132 295.589 215.017 295.589 215.902C295.589 216.786 295.589 217.671 295.589 218.42C295.589 219.168 295.589 219.849 295.589 220.325C295.589 220.802 295.589 221.074 295.589 221.074L305.049 219.985C305.049 219.985 305.049 219.781 305.118 219.441C305.118 219.1 305.186 218.556 305.186 218.011C305.186 217.399 305.254 216.718 305.254 215.97C305.254 215.221 305.254 214.472 305.254 213.724C305.254 213.724 305.526 214.2 306.206 214.881C306.887 215.561 307.84 216.446 309.269 217.263C310.63 218.08 312.468 218.896 314.646 219.373C316.824 219.849 319.478 220.053 322.609 219.645C325.263 219.373 327.713 218.624 329.891 217.603C332.137 216.582 334.11 215.221 335.812 213.588C337.513 211.954 339.011 210.049 340.236 207.939C341.393 205.829 342.346 203.447 342.89 200.929C342.89 201.065 342.89 201.201 342.89 201.337C342.89 201.473 342.89 201.609 342.89 201.746C342.89 201.882 342.89 202.018 342.89 202.154C342.89 202.29 342.89 202.426 342.89 202.562C342.958 204.944 343.434 207.054 344.319 208.824C345.204 210.593 346.429 212.022 347.994 213.043C349.56 214.132 351.397 214.881 353.439 215.289C355.481 215.698 357.727 215.766 360.177 215.493C363.444 215.085 366.098 214.268 368.344 213.315C370.522 212.295 372.223 211.138 373.584 209.981C374.877 208.824 375.762 207.735 376.375 206.918C376.919 206.101 377.191 205.557 377.191 205.557C377.191 206.373 377.26 207.122 377.26 207.871C377.328 208.619 377.328 209.3 377.396 209.913C377.464 210.525 377.464 211.001 377.464 211.342C377.464 211.682 377.532 211.886 377.532 211.886L385.631 210.933C385.631 210.933 385.631 210.661 385.563 210.321C385.495 209.913 385.495 209.368 385.427 208.756C385.358 208.143 385.358 207.394 385.29 206.714C385.222 206.033 385.222 205.285 385.222 204.672L384.678 182.961C384.678 182.213 384.61 181.532 384.542 180.92C384.474 180.239 384.406 179.627 384.27 179.014C384.133 178.401 384.065 177.857 383.861 177.313C383.725 176.768 383.521 176.224 383.317 175.747L382.092 173.297C381.207 171.868 380.118 170.779 378.825 169.962C377.6 169.077 376.171 168.465 374.673 168.057C373.176 167.648 371.611 167.376 369.977 167.308C368.344 167.24 366.71 167.24 365.145 167.376C360.449 167.784 356.842 168.805 354.052 170.234C351.261 171.596 349.356 173.297 348.062 174.999C346.769 176.7 346.021 178.401 345.68 179.831C345.272 181.26 345.272 182.349 345.272 182.825L354.8 181.941C354.8 181.941 354.8 181.532 355.004 180.852C355.209 180.171 355.549 179.286 356.161 178.401C356.774 177.517 357.727 176.564 359.156 175.815C360.517 175.067 362.355 174.454 364.737 174.25C366.302 174.114 367.731 174.182 369.024 174.454C370.318 174.726 371.543 175.203 372.495 175.883C373.516 176.564 374.265 177.449 374.877 178.538C375.422 179.627 375.762 180.92 375.762 182.485L375.83 184.663L364.941 185.752C361.878 186.024 359.156 186.5 356.774 187.181C354.324 187.862 352.214 188.678 350.376 189.699C348.539 190.72 347.042 191.945 345.885 193.306C344.728 194.667 343.843 196.301 343.366 198.002C343.434 197.594 343.434 197.254 343.503 196.845C343.503 196.437 343.571 196.097 343.571 195.688C343.571 195.28 343.571 194.94 343.571 194.531C343.571 194.123 343.571 193.715 343.571 193.306C343.503 190.039 342.89 186.977 341.869 184.186C340.848 181.396 339.351 179.014 337.445 176.972C335.54 174.999 333.226 173.433 330.503 172.48C327.781 171.528 324.65 171.119 321.179 171.391C317.913 171.664 315.258 172.412 313.012 173.297C310.834 174.25 309.065 175.339 307.772 176.428C306.479 177.517 305.594 178.606 304.981 179.354C304.437 180.171 304.165 180.647 304.165 180.647L303.416 154.581Z" fill="url(#paint3_linear_202_561)"/>
<g filter="url(#filter0_i_202_561)">
<path d="M95.387 261.058L36.673 264.343C31.4588 264.7 26.5302 266.058 22.1017 268.272C17.6017 270.486 13.6017 273.629 10.2446 277.343C6.95891 281.058 4.24464 285.415 2.53036 290.2C0.744655 294.986 -0.183911 300.2 0.0303734 305.557L2.45893 367.843C2.67322 373.057 3.95892 377.914 6.03034 382.2C8.10176 386.486 11.0303 390.128 14.5303 393.128C18.0303 396.057 22.1731 398.271 26.6731 399.557C31.1731 400.843 36.0302 401.271 41.0302 400.557L98.1727 392.986C102.887 392.343 107.316 390.771 111.244 388.486C115.244 386.2 118.744 383.128 121.744 379.557C124.673 375.986 127.03 371.914 128.673 367.486C130.244 363.057 131.101 358.343 131.03 353.486L130.101 295.486C130.03 290.486 129.03 285.772 127.244 281.558C125.458 277.343 122.958 273.558 119.815 270.415C116.673 267.272 112.958 264.843 108.816 263.201C104.744 261.558 100.173 260.772 95.387 261.058Z" fill="url(#paint4_linear_202_561)"/>
</g>
<path d="M68.5296 342.772C68.101 342.843 67.6724 342.914 67.3153 343.057C66.9582 343.2 66.601 343.414 66.3153 343.629C66.0296 343.843 65.8153 344.129 65.601 344.343C65.4582 344.629 65.3153 344.914 65.2439 345.2L64.101 364.843C64.101 365.343 64.2439 365.771 64.5296 366.129C64.8153 366.486 65.1725 366.843 65.601 367.129C66.0296 367.414 66.601 367.557 67.1724 367.7C67.7439 367.843 68.3867 367.843 69.101 367.771C69.8153 367.7 70.4581 367.486 71.0296 367.271C71.601 367.057 72.101 366.7 72.601 366.343C73.0296 365.986 73.3867 365.557 73.601 365.129C73.8153 364.7 73.9581 364.2 73.9581 363.771L71.8153 344.557C71.7439 344.272 71.601 343.986 71.4581 343.772C71.2439 343.557 71.0296 343.343 70.7439 343.2C70.4581 343.057 70.101 342.914 69.7439 342.843C69.3153 342.7 68.9582 342.7 68.5296 342.772ZM55.1725 335.914C55.1011 335.914 55.0297 335.914 55.0297 335.914C54.9582 335.914 54.8868 335.914 54.8868 335.986C54.8868 336.057 54.8154 335.986 54.7439 336.057C54.6725 336.057 54.6725 336.129 54.6011 336.129L37.1726 346.272C36.744 346.557 36.4583 346.914 36.244 347.414C36.0298 347.843 35.8869 348.414 35.8869 348.986C35.8869 349.557 35.9583 350.2 36.1012 350.771C36.244 351.414 36.5297 351.986 36.8869 352.557C37.1726 352.986 37.5297 353.414 37.8155 353.7C38.1726 354.057 38.5297 354.343 38.8869 354.557C39.244 354.771 39.6726 354.914 40.0297 355.057C40.3869 355.129 40.8154 355.2 41.1726 355.129C41.3154 355.129 41.3869 355.129 41.5297 355.057C41.6726 355.057 41.744 354.986 41.8869 354.986C42.0297 354.914 42.1011 354.914 42.1726 354.843C42.244 354.771 42.3869 354.7 42.4583 354.629L57.9582 341.629C58.1725 341.414 58.3154 341.129 58.4582 340.843C58.6011 340.557 58.6011 340.2 58.6011 339.843C58.6011 339.486 58.5296 339.129 58.4582 338.7C58.3154 338.343 58.1725 337.914 57.9582 337.557C57.7439 337.272 57.5296 336.986 57.3154 336.772C57.1011 336.557 56.8154 336.343 56.6011 336.2C56.3868 336.057 56.1011 335.914 55.8154 335.843C55.7439 335.914 55.4582 335.914 55.1725 335.914ZM81.2438 333.414C81.0295 333.414 80.7438 333.486 80.5295 333.629C80.3152 333.772 80.0295 333.914 79.8152 334.129C79.6009 334.343 79.3867 334.557 79.1724 334.843C78.9581 335.129 78.7438 335.414 78.601 335.7C78.3867 336.129 78.2438 336.486 78.1724 336.914C78.101 337.272 78.0295 337.7 78.101 338.057C78.101 338.414 78.1724 338.7 78.3152 338.986C78.4581 339.272 78.601 339.486 78.8152 339.629L94.3152 349.2C94.3866 349.271 94.5294 349.271 94.6009 349.343C94.6723 349.343 94.8152 349.414 94.8866 349.414C94.958 349.414 95.1009 349.414 95.1723 349.414C95.2437 349.414 95.3866 349.414 95.5294 349.414C95.8866 349.343 96.2437 349.271 96.6009 349.129C96.958 348.986 97.3151 348.7 97.6723 348.414C98.0294 348.129 98.3866 347.772 98.6723 347.414C98.958 346.986 99.2437 346.557 99.5294 346.129C99.8151 345.486 100.029 344.843 100.172 344.2C100.315 343.557 100.315 342.986 100.244 342.414C100.172 341.843 100.029 341.414 99.8151 340.986C99.6008 340.557 99.2437 340.272 98.8866 340.057L81.8867 333.557C81.8152 333.557 81.8152 333.557 81.7438 333.486C81.6724 333.486 81.6724 333.486 81.6009 333.486C81.5295 333.486 81.5295 333.486 81.4581 333.486C81.3867 333.486 81.2438 333.414 81.2438 333.414ZM94.5294 306.486C94.3866 306.486 94.3152 306.486 94.1723 306.557C94.1009 306.557 93.958 306.629 93.8866 306.629C93.8152 306.7 93.6723 306.7 93.6009 306.772C93.5295 306.843 93.3866 306.915 93.3152 306.915L78.2438 319.486C78.0295 319.7 77.8867 319.986 77.7438 320.272C77.6724 320.557 77.601 320.915 77.601 321.272C77.601 321.629 77.6724 321.986 77.7438 322.414C77.8152 322.772 78.0295 323.2 78.2438 323.557C78.4581 323.843 78.6724 324.129 78.8867 324.343C79.101 324.557 79.3867 324.772 79.601 324.914C79.8152 325.057 80.101 325.2 80.3152 325.272C80.6009 325.343 80.8152 325.343 81.0295 325.343C81.1009 325.343 81.1009 325.343 81.1724 325.343C81.2438 325.343 81.2438 325.343 81.3152 325.343C81.3867 325.343 81.3867 325.343 81.4581 325.272C81.5295 325.272 81.5295 325.2 81.6009 325.2L98.3151 315.272C98.6723 314.986 99.0294 314.629 99.1723 314.2C99.3866 313.772 99.5294 313.2 99.5294 312.7C99.5294 312.129 99.5294 311.557 99.3866 310.915C99.2437 310.343 98.958 309.7 98.6723 309.129C98.3866 308.7 98.1009 308.272 97.7437 307.915C97.3866 307.557 97.1009 307.272 96.6723 307.057C96.3152 306.843 95.958 306.629 95.6009 306.557C95.2437 306.486 94.8866 306.415 94.5294 306.486ZM39.8154 310.986C39.4583 310.986 39.0297 311.129 38.6726 311.272C38.3155 311.415 37.8869 311.7 37.5297 311.986C37.1726 312.272 36.8155 312.629 36.4583 313.057C36.1012 313.486 35.8155 313.915 35.6012 314.415C35.244 315.057 35.0298 315.772 34.8869 316.415C34.744 317.057 34.744 317.7 34.8155 318.272C34.8869 318.843 35.0298 319.343 35.3155 319.772C35.6012 320.2 35.8869 320.557 36.3155 320.772L54.3154 327.557C54.3868 327.557 54.3868 327.557 54.4582 327.629C54.5297 327.629 54.5297 327.629 54.6011 327.629C54.6725 327.629 54.7439 327.629 54.7439 327.629H54.8868C55.1011 327.629 55.3868 327.557 55.6725 327.414C55.9582 327.272 56.1725 327.129 56.3868 326.914C56.6011 326.7 56.8868 326.486 57.1011 326.2C57.3154 325.914 57.5296 325.629 57.6725 325.272C57.8868 324.843 58.0296 324.486 58.1011 324.057C58.1725 323.629 58.2439 323.272 58.1725 322.914C58.1725 322.557 58.1011 322.2 57.9582 321.914C57.8154 321.629 57.6725 321.414 57.3868 321.2L41.1726 311.2C41.1012 311.129 40.9583 311.129 40.8869 311.057C40.744 310.986 40.6726 310.986 40.5297 310.986C40.3869 310.986 40.3154 310.986 40.1726 310.915C40.0297 310.986 39.9583 310.986 39.8154 310.986ZM67.1724 292.772C66.4582 292.843 65.8153 292.986 65.2439 293.2C64.6725 293.415 64.101 293.7 63.6725 294.057C63.2439 294.415 62.8868 294.843 62.6725 295.272C62.4582 295.7 62.3153 296.2 62.3153 296.7L64.5296 316.415C64.601 316.7 64.7439 316.986 64.8867 317.2C65.101 317.415 65.3153 317.629 65.601 317.772C65.8867 317.915 66.2439 318.057 66.601 318.129C66.9582 318.2 67.3867 318.2 67.8153 318.2C68.2439 318.129 68.6724 318.057 69.0296 317.915C69.3867 317.772 69.7439 317.629 70.0296 317.415C70.3153 317.2 70.5296 316.986 70.7439 316.7C70.9581 316.415 71.0296 316.129 71.101 315.843L72.2438 295.986C72.2438 295.486 72.101 295.057 71.8153 294.629C71.5296 294.2 71.1724 293.843 70.7439 293.557C70.3153 293.272 69.7439 293.058 69.1724 292.915C68.5296 292.772 67.8867 292.772 67.1724 292.772Z" fill="url(#paint5_linear_202_561)"/>
<g filter="url(#filter1_i_202_561)">
<path d="M169.913 0.0555606L113.337 3.2904C108.313 3.56571 103.564 4.94223 99.2966 7.07585C94.9606 9.2783 91.1063 12.3067 87.8714 15.9545C84.7054 19.6023 82.09 23.9383 80.4382 28.6185C78.7175 33.2987 77.8228 38.3919 78.0293 43.6227L80.3694 104.534C80.5758 109.627 81.7459 114.376 83.8107 118.575C85.8066 122.773 88.6285 126.352 92.001 129.243C95.3735 132.133 99.3654 134.267 103.702 135.506C108.038 136.745 112.718 137.158 117.536 136.469L172.597 129.105C177.139 128.486 181.407 126.971 185.192 124.7C189.046 122.429 192.419 119.469 195.309 115.959C198.131 112.449 200.403 108.457 201.986 104.19C203.5 99.8538 204.326 95.2425 204.257 90.4934L203.431 33.7117C203.362 28.825 202.399 24.2136 200.678 20.084C198.957 15.9545 196.548 12.2378 193.52 9.20947C190.492 6.18111 186.913 3.70336 182.921 2.12035C178.929 0.537345 174.524 -0.219745 169.913 0.0555606Z" fill="white"/>
</g>
<path d="M105.698 94.2789C105.491 94.2789 105.354 94.3477 105.216 94.4854C105.078 94.5542 104.941 94.6919 104.872 94.8983C104.803 95.036 104.803 95.2425 104.872 95.449C104.941 95.6554 105.078 95.8619 105.354 96.1372C106.524 97.4449 108.382 99.0968 110.722 100.886C113.131 102.676 116.022 104.534 119.394 106.186C122.767 107.838 126.483 109.214 130.613 110.04C134.674 110.866 139.079 111.21 143.69 110.591C148.301 110.04 152.362 108.87 155.941 107.425C159.52 105.979 162.548 104.259 165.095 102.538C167.642 100.817 169.569 99.0968 171.014 97.7202C172.459 96.3437 173.354 95.2425 173.698 94.7607C173.974 94.3477 174.111 94.0036 174.249 93.7283C174.318 93.453 174.387 93.1777 174.318 92.9712C174.249 92.7647 174.18 92.6271 174.042 92.5583C173.905 92.4894 173.698 92.4206 173.492 92.4206C173.423 92.4206 173.354 92.4206 173.354 92.4206C173.285 92.4206 173.217 92.4206 173.148 92.4894C173.079 92.4894 173.01 92.5583 172.941 92.5583C172.872 92.5583 172.804 92.6271 172.735 92.6271C170.051 94.2789 167.504 95.7243 164.957 97.032C162.411 98.2708 160.002 99.3721 157.593 100.198C155.184 101.093 152.913 101.781 150.641 102.332C148.37 102.882 146.237 103.226 144.103 103.502C140.042 103.983 136.188 103.915 132.609 103.57C129.03 103.158 125.658 102.4 122.491 101.437C119.325 100.473 116.435 99.3032 113.751 98.0644C111.066 96.8255 108.589 95.5866 106.317 94.4166C106.248 94.4166 106.248 94.3477 106.18 94.3477C106.111 94.3477 106.042 94.3477 106.042 94.2789C105.973 94.2789 105.904 94.2789 105.904 94.2789C105.836 94.2789 105.767 94.2789 105.698 94.2789ZM176.176 85.8821C175.97 85.8821 175.694 85.9509 175.488 85.9509C175.281 85.9509 175.075 86.0197 174.8 86.0197C174.593 86.0886 174.387 86.0886 174.18 86.1574C173.974 86.2262 173.767 86.2262 173.561 86.2951C172.872 86.4327 172.115 86.708 171.358 87.0521C170.601 87.3963 169.844 87.7404 169.225 88.1534C168.536 88.5663 167.986 88.9105 167.642 89.3234C167.297 89.6675 167.091 90.0117 167.16 90.287C167.16 90.3558 167.229 90.3558 167.229 90.4246L167.297 90.4935C167.366 90.4935 167.366 90.4935 167.435 90.4935C167.504 90.4935 167.573 90.4935 167.642 90.4935C167.71 90.4935 167.848 90.4935 167.917 90.4246C168.055 90.4246 168.192 90.3558 168.33 90.3558C168.468 90.287 168.674 90.287 168.88 90.2182C169.087 90.1493 169.293 90.1493 169.569 90.0805C169.775 90.0117 170.119 89.9429 170.463 89.874C170.808 89.8052 171.152 89.7364 171.565 89.6675C171.978 89.5987 172.391 89.5299 172.804 89.4611C173.217 89.3922 173.698 89.3234 174.111 89.2546C174.524 89.1858 174.937 89.1858 175.281 89.1858C175.694 89.1858 176.038 89.1858 176.314 89.2546C176.658 89.3234 176.933 89.3234 177.14 89.4611C177.415 89.5299 177.553 89.6675 177.69 89.874C177.966 90.2182 178.034 90.9752 177.897 91.87C177.828 92.7647 177.553 93.9348 177.277 95.036C177.002 96.1372 176.658 97.2385 176.383 98.1332C176.107 99.0279 175.832 99.7162 175.694 100.06C175.625 100.267 175.557 100.404 175.557 100.542C175.557 100.68 175.557 100.817 175.557 100.886C175.557 100.955 175.625 101.024 175.694 101.093C175.763 101.162 175.832 101.162 175.901 101.162C175.97 101.162 176.038 101.162 176.107 101.093C176.176 101.093 176.245 101.024 176.314 100.955C176.383 100.886 176.451 100.886 176.52 100.817C176.589 100.749 176.658 100.68 176.796 100.611C177.002 100.404 177.277 100.06 177.553 99.7162C177.828 99.3721 178.172 98.8903 178.447 98.3397C178.791 97.7891 179.067 97.2384 179.411 96.619C179.686 95.9996 180.03 95.3113 180.237 94.5542C180.512 93.7971 180.719 92.9712 180.925 92.1453C181.132 91.3194 181.269 90.4935 181.338 89.7364C181.407 88.9793 181.476 88.291 181.476 87.7404C181.476 87.1898 181.338 86.7768 181.2 86.5704C181.063 86.3639 180.787 86.2262 180.443 86.0886C180.099 85.9509 179.686 85.8821 179.204 85.8821C178.723 85.8133 178.172 85.8133 177.621 85.8133C177.346 85.7444 176.796 85.8133 176.176 85.8821ZM141.625 79.4812C140.593 79.6189 139.698 79.4812 138.872 79.2059C138.046 78.9306 137.358 78.4488 136.807 77.7606C136.257 77.1411 135.775 76.3152 135.5 75.3517C135.156 74.3881 135.018 73.2869 134.949 72.1168C134.88 69.7767 135.362 67.7807 136.188 66.1977C137.014 64.6147 138.253 63.3759 139.698 62.4811C141.143 61.5176 142.864 60.8981 144.722 60.4163C146.512 59.9345 148.439 59.6592 150.366 59.4528L150.435 61.8617C150.435 62.9629 150.504 63.9953 150.504 64.9589C150.504 65.9913 150.504 66.9548 150.366 67.9184C150.297 68.882 150.091 69.8455 149.884 70.8091C149.609 71.7727 149.265 72.7362 148.783 73.7686C148.37 74.5946 147.957 75.3517 147.407 75.9711C146.925 76.6594 146.305 77.21 145.755 77.6918C145.135 78.1735 144.516 78.5865 143.828 78.8618C143.071 79.2059 142.382 79.4124 141.625 79.4812ZM143.759 26.6914C141.212 26.8979 138.666 27.3108 136.119 28.0679C133.573 28.825 131.164 29.9262 128.961 31.4404C126.759 32.9546 124.832 34.8129 123.317 37.2218C121.803 39.6308 120.702 42.4526 120.22 45.8251C120.151 46.1693 120.22 46.5134 120.289 46.7887C120.358 47.064 120.496 47.2705 120.702 47.477C120.84 47.6834 121.046 47.8211 121.321 47.8899C121.528 48.0276 121.734 48.0276 122.01 48.0964L132.471 48.3717C132.678 48.3717 132.953 48.2341 133.16 48.0964C133.366 47.9588 133.573 47.8211 133.71 47.6146C133.848 47.4081 133.985 47.2017 134.123 46.9264C134.192 46.651 134.33 46.4446 134.33 46.1693C134.536 44.9992 134.88 43.9668 135.362 43.0721C135.844 42.1773 136.532 41.4202 137.289 40.8008C138.046 40.1814 138.872 39.6996 139.767 39.3555C140.662 39.0113 141.694 38.8048 142.658 38.736C143.208 38.6672 143.759 38.736 144.309 38.736C144.86 38.8048 145.411 38.9425 145.961 39.149C146.512 39.3555 146.994 39.6308 147.475 39.9061C147.957 40.2502 148.37 40.6632 148.646 41.1449C149.058 41.6955 149.334 42.315 149.54 42.9344C149.747 43.5539 149.884 44.2421 149.953 44.9304C150.022 45.6187 150.091 46.3069 150.091 47.064C150.091 47.7523 150.091 48.4405 150.16 49.1288L150.229 50.5742C148.714 50.9183 147.063 51.1936 145.411 51.5377C143.69 51.8819 141.969 52.226 140.249 52.6389C138.528 53.0519 136.807 53.5337 135.087 54.1531C133.435 54.7037 131.852 55.392 130.407 56.2179C128.755 57.1127 127.241 58.2139 125.864 59.5216C124.487 60.8293 123.317 62.2746 122.354 63.8576C121.39 65.5095 120.633 67.299 120.151 69.2261C119.67 71.2221 119.394 73.2869 119.463 75.5581C119.532 78.4488 120.083 80.9954 120.977 83.0602C121.872 85.125 123.042 86.8457 124.556 88.1534C126.07 89.4611 127.791 90.3558 129.718 90.8376C131.645 91.3194 133.779 91.457 135.981 91.2506C137.84 91.0441 139.492 90.7688 141.075 90.287C142.589 89.874 143.965 89.2546 145.273 88.4975C146.581 87.7404 147.82 86.7768 149.127 85.6068C150.366 84.4367 151.674 82.9914 153.05 81.3395C153.532 82.0278 153.945 82.5784 154.358 83.129C154.771 83.6797 155.115 84.1614 155.528 84.6432C155.941 85.125 156.423 85.6068 156.974 86.1574C157.524 86.708 158.281 87.2586 159.107 87.9469C159.176 88.0157 159.245 88.0157 159.382 88.0157C159.451 88.0157 159.589 88.0845 159.658 88.0845C159.727 88.0845 159.864 88.0845 159.933 88.0845C160.002 88.0845 160.14 88.0845 160.208 88.0845C160.346 88.0845 160.484 88.0157 160.552 88.0157C160.69 87.9469 160.759 87.9469 160.897 87.8781C161.034 87.8092 161.103 87.7404 161.241 87.6716C161.378 87.6028 161.447 87.5339 161.516 87.3963C161.998 86.8457 162.617 86.2262 163.306 85.538C163.994 84.8497 164.682 84.0926 165.37 83.3355C166.059 82.5784 166.816 81.8213 167.435 81.2019C168.123 80.5136 168.674 79.8942 169.225 79.3436C169.431 79.1371 169.569 78.9306 169.638 78.6553C169.706 78.4488 169.775 78.1735 169.775 77.8982C169.775 77.6229 169.706 77.4164 169.638 77.1411C169.569 76.8658 169.431 76.6594 169.225 76.4529C168.743 75.8334 168.261 75.214 167.779 74.5946C167.297 73.9751 166.885 73.2869 166.472 72.5986C166.059 71.8415 165.783 71.0156 165.508 70.1208C165.302 69.1573 165.095 68.0561 165.095 66.8172L164.751 49.7482C164.682 47.9588 164.682 46.1693 164.613 44.4486C164.544 42.7279 164.407 41.0761 164.131 39.4931C163.856 37.9101 163.374 36.3959 162.686 35.0194C161.998 33.6429 161.034 32.3352 159.727 31.1651C158.694 30.2015 157.524 29.4445 156.216 28.825C154.909 28.2056 153.532 27.7238 152.156 27.3797C150.71 27.0355 149.265 26.829 147.888 26.7602C146.443 26.5537 145.067 26.5537 143.759 26.6914Z" fill="url(#paint6_linear_202_561)"/>
<defs>
<filter id="filter0_i_202_561" x="0" y="249" width="135.034" height="151.901" filterUnits="userSpaceOnUse" color-interpolation-filters="sRGB">
<feFlood flood-opacity="0" result="BackgroundImageFix"/>
<feBlend mode="normal" in="SourceGraphic" in2="BackgroundImageFix" result="shape"/>
<feColorMatrix in="SourceAlpha" type="matrix" values="0 0 0 0 0 0 0 0 0 0 0 0 0 0 0 0 0 0 127 0" result="hardAlpha"/>
<feOffset dx="4" dy="-12"/>
<feGaussianBlur stdDeviation="9"/>
<feComposite in2="hardAlpha" operator="arithmetic" k2="-1" k3="1"/>
<feColorMatrix type="matrix" values="0 0 0 0 0.984314 0 0 0 0 0.45098 0 0 0 0 0.329412 0 0 0 1 0"/>
<feBlend mode="normal" in2="shape" result="effect1_innerShadow_202_561"/>
</filter>
<filter id="filter1_i_202_561" x="78" y="-12" width="130.261" height="148.801" filterUnits="userSpaceOnUse" color-interpolation-filters="sRGB">
<feFlood flood-opacity="0" result="BackgroundImageFix"/>
<feBlend mode="normal" in="SourceGraphic" in2="BackgroundImageFix" result="shape"/>
<feColorMatrix in="SourceAlpha" type="matrix" values="0 0 0 0 0 0 0 0 0 0 0 0 0 0 0 0 0 0 127 0" result="hardAlpha"/>
<feOffset dx="4" dy="-12"/>
<feGaussianBlur stdDeviation="9"/>
<feComposite in2="hardAlpha" operator="arithmetic" k2="-1" k3="1"/>
<feColorMatrix type="matrix" values="0 0 0 0 0.803922 0 0 0 0 0.847059 0 0 0 0 0.968627 0 0 0 1 0"/>
<feBlend mode="normal" in2="shape" result="effect1_innerShadow_202_561"/>
</filter>
<linearGradient id="paint0_linear_202_561" x1="326.841" y1="439.485" x2="165.007" y2="453.701" gradientUnits="userSpaceOnUse">
<stop stop-color="white"/>
<stop offset="0.773958" stop-color="#CDD8F7"/>
<stop offset="1" stop-color="#CDD8F7"/>
</linearGradient>
<linearGradient id="paint1_linear_202_561" x1="243.746" y1="418.551" x2="247.18" y2="457.644" gradientUnits="userSpaceOnUse">
<stop stop-color="#CDD8F7"/>
<stop offset="1" stop-color="white"/>
</linearGradient>
<linearGradient id="paint2_linear_202_561" x1="297" y1="292.5" x2="362" y2="129.5" gradientUnits="userSpaceOnUse">
<stop stop-color="#7A43EE"/>
<stop offset="1" stop-color="#B565E6"/>
</linearGradient>
<linearGradient id="paint3_linear_202_561" x1="336.472" y1="154.581" x2="318.5" y2="252" gradientUnits="userSpaceOnUse">
<stop stop-color="#E8F0FF"/>
<stop offset="1" stop-color="#CDD8F7"/>
</linearGradient>
<linearGradient id="paint4_linear_202_561" x1="125" y1="285" x2="8.02198e-06" y2="395.5" gradientUnits="userSpaceOnUse">
<stop stop-color="#F8BA55"/>
<stop offset="1" stop-color="#FB7354"/>
</linearGradient>
<linearGradient id="paint5_linear_202_561" x1="75" y1="303.5" x2="35" y2="376.5" gradientUnits="userSpaceOnUse">
<stop stop-color="white"/>
<stop offset="1" stop-color="#FBDCAA"/>
</linearGradient>
<linearGradient id="paint6_linear_202_561" x1="159.5" y1="37.5" x2="116.5" y2="95.5" gradientUnits="userSpaceOnUse">
<stop stop-color="#F8BA55"/>
<stop offset="1" stop-color="#FB7354"/>
</linearGradient>
</defs>
</svg>
