<svg width="458" height="255" viewBox="0 0 458 255" fill="none" xmlns="http://www.w3.org/2000/svg">
<path d="M431.946 23.5317L192.262 2.07001C189.102 1.78947 186.153 2.28042 183.414 3.33247C180.745 4.38451 178.357 6.06779 176.321 8.24201C174.354 10.4162 172.739 13.0113 171.616 15.957C170.562 18.9027 169.93 22.1992 170 25.706L171.124 70.3127L456.245 87.1454L457.93 54.3216C458.141 50.4641 457.509 46.6066 456.315 43.0998C455.051 39.593 453.225 36.3667 450.837 33.5612C448.45 30.7558 445.64 28.4413 442.41 26.6879C439.25 25.0046 435.668 23.8824 431.946 23.5317Z" fill="#CDD8F7"/>
<g filter="url(#filter0_i_202_707)">
<path d="M170 25.7061L171.896 187.16C171.966 190.456 172.598 193.683 173.722 196.699C174.846 199.714 176.461 202.52 178.427 204.975C180.394 207.429 182.711 209.604 185.309 211.217C187.908 212.83 190.787 214.022 193.737 214.513L422.184 253.649C425.766 254.281 429.137 254.14 432.297 253.369C435.457 252.597 438.336 251.195 440.794 249.231C443.252 247.267 445.289 244.812 446.764 241.937C448.238 239.061 449.151 235.765 449.292 232.117L457.087 69.892L170.14 39.7333L170 25.7061Z" fill="#E8F0FF"/>
</g>
<g filter="url(#filter1_i_202_707)">
<path d="M433.561 38.3303C434.615 38.4004 435.668 38.7511 436.511 39.2421C437.424 39.733 438.196 40.4344 438.898 41.2059C439.601 41.9774 440.092 42.8892 440.443 43.9412C440.794 44.9231 440.935 45.9752 440.935 47.0973C440.865 48.2195 440.654 49.2014 440.162 50.1833C439.741 51.0951 439.109 51.9368 438.407 52.568C437.705 53.1992 436.792 53.6902 435.879 54.0408C434.966 54.3214 433.912 54.4617 432.859 54.3915C431.805 54.2513 430.822 53.9707 429.909 53.4798C428.996 52.9888 428.224 52.2874 427.522 51.5159C426.89 50.7444 426.328 49.8327 425.977 48.8508C425.626 47.8688 425.485 46.8168 425.485 45.6946C425.555 44.5724 425.766 43.5905 426.187 42.6788C426.609 41.767 427.241 40.9253 427.943 40.2941C428.645 39.6629 429.488 39.1018 430.471 38.8212C431.454 38.4004 432.508 38.2602 433.561 38.3303ZM407.015 35.8054C405.962 35.7352 404.979 35.8054 404.066 36.1561C403.153 36.4366 402.31 36.9977 401.608 37.6289C400.906 38.2602 400.344 39.1018 399.923 40.0136C399.501 40.9253 399.29 41.9073 399.22 43.0294C399.15 44.1516 399.361 45.2037 399.712 46.1856C400.063 47.1675 400.555 48.0793 401.257 48.8508C401.889 49.6223 402.732 50.3236 403.574 50.7444C404.487 51.2354 405.47 51.5861 406.454 51.6562C407.507 51.7263 408.49 51.6562 409.403 51.3055C410.316 51.025 411.159 50.534 411.861 49.8327C412.563 49.2014 413.195 48.3598 413.617 47.448C414.038 46.5363 414.319 45.4842 414.319 44.4322C414.389 43.31 414.179 42.2579 413.827 41.276C413.476 40.2941 412.985 39.3823 412.282 38.6108C411.65 37.8393 410.808 37.138 409.965 36.647C409.052 36.2262 408.069 35.9457 407.015 35.8054ZM380.891 33.3506C379.838 33.2805 378.854 33.3506 378.012 33.7013C377.099 33.9818 376.326 34.5429 375.624 35.1742C374.922 35.8054 374.36 36.647 373.939 37.4887C373.517 38.4004 373.307 39.3823 373.236 40.5045C373.236 41.5566 373.377 42.6086 373.728 43.5905C374.079 44.5724 374.571 45.4842 375.203 46.2557C375.835 47.0272 376.607 47.6584 377.52 48.1494C378.363 48.6403 379.346 48.9209 380.399 49.0612C381.453 49.1313 382.436 49.0612 383.279 48.7105C384.192 48.4299 385.034 47.939 385.666 47.2376C386.369 46.6064 386.931 45.8349 387.352 44.9231C387.773 44.0113 387.984 43.0294 388.054 41.9073C388.124 40.8552 387.914 39.8032 387.563 38.8212C387.211 37.8393 386.72 36.9276 386.018 36.1561C385.386 35.3846 384.613 34.7533 383.7 34.2624C382.928 33.7714 381.944 33.4909 380.891 33.3506Z" fill="#F8BA55"/>
</g>
<path d="M47 61.0002C8.50073 168.5 103.923 215.24 171.5 116.5C268 -24.5001 395.501 9.50021 341.501 177.001" stroke="url(#paint0_linear_202_707)" stroke-width="12"/>
<path d="M268.897 74.7826C268.955 74.3754 268.955 74.0263 268.955 73.619C268.955 73.5026 268.955 73.3863 268.955 73.2699C268.955 73.1535 268.955 72.979 268.955 72.8626C268.955 72.6881 268.955 72.4554 268.955 72.2808C268.955 71.9899 268.955 71.699 268.955 71.4081C268.955 71.2335 268.955 71.059 268.955 70.8844C268.955 70.5354 268.955 70.2445 268.897 69.8954C268.897 69.7208 268.897 69.6045 268.897 69.4299C268.897 68.9645 268.839 68.499 268.781 68.0335C268.723 67.5099 268.664 66.9863 268.606 66.5208C268.606 66.3463 268.548 66.2299 268.548 66.0554C268.49 65.7063 268.432 65.3572 268.374 65.0081C268.315 64.8335 268.315 64.6008 268.257 64.4263C268.199 64.1354 268.141 63.8445 268.083 63.4954C268.024 63.2626 267.966 63.0881 267.908 62.9135C267.85 62.6226 267.792 62.3317 267.675 62.099C267.617 61.8663 267.559 61.6917 267.501 61.459C267.443 61.1681 267.326 60.9354 267.268 60.6445C267.21 60.4117 267.152 60.2372 267.035 60.0045C266.919 59.7717 266.861 59.4808 266.744 59.2481C266.686 59.0154 266.57 58.8408 266.512 58.6081C266.395 58.3754 266.337 58.0845 266.221 57.8517C266.163 57.6772 266.046 57.4445 265.988 57.2699C265.872 57.0372 265.755 56.7463 265.639 56.5135C265.581 56.3972 265.523 56.2808 265.465 56.1644C265.406 56.0481 265.348 55.9899 265.348 55.9317C265.29 55.7572 265.174 55.5826 265.115 55.4081C264.999 55.1754 264.883 54.9426 264.766 54.7099C264.65 54.5354 264.592 54.3608 264.475 54.2444C264.359 54.0117 264.243 53.779 264.068 53.6045C263.952 53.4299 263.894 53.3135 263.777 53.139C263.661 52.9063 263.486 52.6735 263.37 52.4408C263.254 52.3245 263.195 52.1499 263.079 52.0335C263.021 51.9754 263.021 51.9172 263.021 51.9172C262.963 51.8008 262.905 51.7426 262.846 51.6263C262.614 51.3354 262.381 50.9863 262.148 50.6954C262.032 50.579 261.915 50.4045 261.799 50.2881C261.566 49.9972 261.334 49.7063 261.101 49.4154C261.043 49.3572 260.985 49.2408 260.868 49.1826C260.81 49.1244 260.81 49.1244 260.752 49.0663C260.577 48.8335 260.345 48.659 260.17 48.4263C260.054 48.3099 259.937 48.1354 259.763 48.019C259.53 47.7863 259.356 47.5535 259.123 47.379C259.006 47.2626 258.948 47.1463 258.832 47.0881C258.832 47.0881 258.774 47.0881 258.774 47.0299C258.657 46.9135 258.483 46.739 258.366 46.6226C258.192 46.4481 258.017 46.2735 257.785 46.099C257.61 45.9826 257.494 45.8663 257.319 45.6917C257.145 45.5754 256.97 45.4008 256.854 45.2844L256.796 45.2263C256.679 45.1099 256.563 45.0517 256.388 44.9354C256.156 44.7608 255.981 44.5863 255.748 44.4699C255.632 44.3535 255.457 44.2372 255.283 44.179C255.108 44.0626 254.992 43.9463 254.817 43.8881C254.759 43.8299 254.701 43.8299 254.643 43.7717C254.527 43.6554 254.352 43.5972 254.236 43.4808C254.003 43.3645 253.77 43.1899 253.596 43.0735C253.421 42.9572 253.305 42.899 253.13 42.7826C253.014 42.7245 252.956 42.6663 252.839 42.6081C252.723 42.5499 252.548 42.4917 252.432 42.3754C252.258 42.3172 252.141 42.2008 251.967 42.1426C251.734 42.0263 251.443 41.9099 251.21 41.7935C251.094 41.7354 250.919 41.6772 250.803 41.619C250.745 41.619 250.745 41.5608 250.687 41.5608C250.396 41.4445 250.105 41.3281 249.872 41.2117C249.814 41.1535 249.698 41.1535 249.639 41.0954C249.232 40.9208 248.883 40.8045 248.476 40.6299C248.418 40.6299 248.418 40.6299 248.359 40.5717L230.673 34.2881C231.08 34.4626 231.545 34.579 231.953 34.7535C232.011 34.8117 232.127 34.8117 232.185 34.8699C232.534 34.9863 232.825 35.1608 233.116 35.2772C233.233 35.3354 233.407 35.3935 233.523 35.4517C233.756 35.5681 234.047 35.6844 234.28 35.8008C234.454 35.859 234.571 35.9754 234.745 36.0335C234.978 36.1499 235.211 36.2663 235.443 36.4408C235.618 36.499 235.734 36.6154 235.909 36.7317C236.142 36.8481 236.374 37.0226 236.549 37.139C236.665 37.2554 236.84 37.3135 236.956 37.4299C237.189 37.5463 237.363 37.7208 237.596 37.8954C237.771 38.0117 237.887 38.0699 238.062 38.1863C238.294 38.3608 238.469 38.5354 238.702 38.6517C238.818 38.7681 238.992 38.8263 239.109 38.9426C239.283 39.1172 239.516 39.2335 239.691 39.4081C239.865 39.5244 239.981 39.6408 240.156 39.8154C240.331 39.9899 240.505 40.1645 240.738 40.339C240.854 40.4554 241.029 40.5717 241.145 40.7463C241.261 40.8626 241.378 40.979 241.494 41.0954C241.727 41.3281 241.96 41.5026 242.134 41.7354C242.251 41.8517 242.367 42.0263 242.541 42.1426C242.716 42.3754 242.949 42.5499 243.123 42.7826C243.24 42.899 243.356 43.0154 243.414 43.1317C243.647 43.4226 243.88 43.7135 244.112 44.0045C244.229 44.1208 244.345 44.2954 244.461 44.4117C244.694 44.7026 244.927 45.0517 245.16 45.3426C245.276 45.459 245.334 45.6335 245.45 45.7499C245.567 45.8663 245.625 46.0408 245.741 46.1572C245.916 46.3899 246.032 46.6226 246.149 46.8554C246.265 47.0299 246.323 47.1463 246.44 47.3208C246.556 47.5535 246.73 47.7863 246.847 48.019C246.963 48.1935 247.021 48.3681 247.138 48.4844C247.254 48.7172 247.37 48.9499 247.487 49.1826C247.545 49.3572 247.661 49.5317 247.719 49.7063C247.836 49.8808 247.894 50.1135 248.01 50.3463C248.127 50.579 248.243 50.8117 248.359 51.1026C248.476 51.2772 248.534 51.5099 248.592 51.6845C248.709 51.9172 248.825 52.2081 248.883 52.4408C248.941 52.6154 249.058 52.8481 249.116 53.0808C249.232 53.3135 249.29 53.6045 249.407 53.8372C249.465 54.0699 249.523 54.2445 249.639 54.4772C249.698 54.7681 249.814 55.0008 249.872 55.2917C249.93 55.5245 249.989 55.699 250.047 55.9317C250.105 56.2226 250.221 56.5135 250.279 56.7463C250.338 56.9208 250.396 57.1535 250.454 57.3281C250.512 57.619 250.57 57.9099 250.629 58.259C250.687 58.4335 250.687 58.6663 250.745 58.8408C250.803 59.1899 250.861 59.539 250.919 59.8881C250.919 60.0626 250.978 60.179 250.978 60.3535C251.036 60.8772 251.094 61.3426 251.152 61.8663C251.21 62.3317 251.21 62.7972 251.269 63.2626C251.269 63.379 251.269 63.5535 251.269 63.7281C251.269 64.0772 251.268 64.3681 251.327 64.7172C251.327 64.8917 251.327 65.0663 251.327 65.2408C251.327 65.5317 251.327 65.8226 251.327 66.1135C251.327 66.2881 251.327 66.4626 251.327 66.6954C251.327 66.9281 251.327 67.1608 251.269 67.4517C251.269 67.859 251.21 68.2081 251.21 68.6154C251.21 68.7899 251.152 69.0226 251.152 69.1972C251.094 69.6626 251.036 70.1281 250.978 70.5935C250.978 70.7099 250.919 70.8845 250.919 71.0008L241.494 132.906C241.436 133.488 241.32 134.012 241.203 134.535C241.145 134.71 241.145 134.884 241.087 135.059C241.029 135.408 240.912 135.815 240.854 136.164C240.796 136.339 240.738 136.514 240.738 136.688C240.621 137.037 240.563 137.386 240.447 137.735C240.389 137.91 240.331 138.084 240.272 138.259C240.156 138.666 240.04 139.074 239.865 139.423C239.807 139.539 239.807 139.655 239.749 139.772C239.574 140.237 239.4 140.761 239.225 141.226C239.167 141.343 239.109 141.459 239.109 141.575C238.934 141.924 238.818 142.332 238.643 142.681C238.585 142.855 238.527 142.972 238.469 143.146C238.294 143.495 238.12 143.844 237.945 144.194C237.887 144.31 237.829 144.426 237.771 144.543C237.538 145.008 237.305 145.415 237.072 145.881C237.014 145.997 236.956 146.114 236.898 146.172C236.723 146.521 236.491 146.87 236.258 147.219C236.142 147.335 236.083 147.51 235.967 147.626C235.793 147.917 235.56 148.208 235.385 148.499C235.269 148.674 235.211 148.79 235.094 148.906C234.862 149.255 234.629 149.546 234.396 149.895C234.338 149.954 234.28 150.07 234.222 150.128C233.873 150.535 233.582 150.943 233.233 151.35C233.174 151.466 233.058 151.524 233 151.641C232.767 151.932 232.476 152.281 232.185 152.572C232.011 152.804 231.778 152.979 231.604 153.212C231.429 153.386 231.254 153.619 231.08 153.794C230.847 154.026 230.673 154.201 230.44 154.375C230.265 154.55 230.091 154.724 229.858 154.899C229.393 155.306 228.927 155.714 228.462 156.121C228.345 156.237 228.229 156.295 228.113 156.412C227.764 156.703 227.356 156.994 226.949 157.284C226.716 157.459 226.484 157.634 226.251 157.75C226.076 157.866 225.902 157.983 225.727 158.099C225.495 158.274 225.204 158.448 224.971 158.623C224.796 158.739 224.622 158.855 224.447 158.972C224.156 159.146 223.866 159.321 223.575 159.495C223.4 159.612 223.226 159.67 223.109 159.786C222.76 159.961 222.411 160.194 222.004 160.368C221.887 160.426 221.829 160.484 221.713 160.484C221.247 160.717 220.782 160.95 220.317 161.124C220.2 161.183 220.026 161.241 219.909 161.299C219.56 161.415 219.211 161.59 218.862 161.706C218.687 161.764 218.513 161.823 218.338 161.881C218.047 161.997 217.757 162.114 217.408 162.172C217.233 162.23 217 162.288 216.826 162.346C216.535 162.463 216.244 162.521 215.953 162.579C215.72 162.637 215.546 162.695 215.313 162.754C215.022 162.812 214.731 162.87 214.44 162.986C214.208 163.044 214.033 163.103 213.8 163.103C213.509 163.161 213.219 163.219 212.928 163.277C212.695 163.335 212.462 163.335 212.288 163.394C211.997 163.452 211.706 163.452 211.415 163.51C211.182 163.51 210.949 163.568 210.775 163.568C210.484 163.568 210.193 163.626 209.902 163.626C209.67 163.626 209.495 163.684 209.262 163.684C208.971 163.684 208.622 163.684 208.331 163.684C208.099 163.684 207.924 163.684 207.691 163.684C207.342 163.684 206.993 163.684 206.644 163.626C206.47 163.626 206.295 163.626 206.12 163.626C205.597 163.568 205.073 163.568 204.55 163.51L147.067 156.935C144.798 156.703 142.646 156.179 140.609 155.423L158.296 161.706C160.333 162.404 162.485 162.928 164.754 163.219L222.12 169.852C222.644 169.91 223.167 169.968 223.691 169.968C223.866 169.968 224.04 169.968 224.215 169.968C224.564 169.968 224.913 170.026 225.262 170.026C225.495 170.026 225.669 170.026 225.902 170.026C226.193 170.026 226.542 170.026 226.833 170.026C227.065 170.026 227.24 170.026 227.473 169.968C227.764 169.968 228.055 169.91 228.404 169.91C228.636 169.91 228.869 169.852 229.044 169.852C229.334 169.794 229.625 169.794 229.916 169.735C230.149 169.677 230.382 169.677 230.556 169.619C230.847 169.561 231.138 169.503 231.429 169.444C231.662 169.386 231.894 169.328 232.069 169.328C232.36 169.27 232.651 169.212 232.942 169.095C233.174 169.037 233.349 168.979 233.582 168.921C233.873 168.863 234.163 168.746 234.454 168.688C234.629 168.63 234.862 168.572 235.036 168.514C235.327 168.397 235.618 168.281 235.967 168.223C236.142 168.164 236.316 168.106 236.491 168.048C236.84 167.932 237.189 167.757 237.538 167.641C237.654 167.583 237.829 167.524 237.945 167.466C238.411 167.234 238.876 167.059 239.342 166.826C239.458 166.768 239.516 166.71 239.632 166.71C239.981 166.535 240.389 166.361 240.738 166.128C240.912 166.012 241.087 165.954 241.203 165.837C241.494 165.663 241.785 165.488 242.076 165.314C242.251 165.197 242.425 165.081 242.6 164.964C242.832 164.79 243.123 164.615 243.356 164.441C243.531 164.324 243.705 164.208 243.88 164.034C244.054 163.917 244.17 163.801 244.345 163.684C244.403 163.626 244.461 163.568 244.52 163.51C244.927 163.219 245.276 162.928 245.683 162.637C245.8 162.521 245.916 162.463 246.032 162.346C246.498 161.939 246.963 161.532 247.429 161.124L247.487 161.066C247.661 160.892 247.836 160.775 247.952 160.601C248.185 160.426 248.359 160.194 248.592 160.019C248.767 159.844 248.941 159.612 249.116 159.437C249.29 159.204 249.523 159.03 249.698 158.797C249.756 158.739 249.756 158.739 249.814 158.681C250.047 158.39 250.279 158.157 250.512 157.866C250.57 157.75 250.687 157.692 250.745 157.575C251.094 157.168 251.385 156.819 251.676 156.412C251.676 156.412 251.676 156.354 251.734 156.354C251.792 156.295 251.85 156.179 251.908 156.121C252.141 155.772 252.374 155.481 252.607 155.132C252.723 155.015 252.781 154.841 252.898 154.724C253.014 154.55 253.13 154.375 253.247 154.259C253.305 154.143 253.421 154.026 253.479 153.852C253.596 153.735 253.654 153.561 253.77 153.444C254.003 153.095 254.178 152.746 254.352 152.455C254.41 152.339 254.468 152.223 254.527 152.164C254.527 152.106 254.585 152.106 254.585 152.048C254.817 151.641 255.05 151.234 255.283 150.826C255.341 150.71 255.399 150.594 255.457 150.477C255.574 150.244 255.69 150.012 255.807 149.779C255.865 149.663 255.923 149.546 255.981 149.43C256.039 149.255 256.097 149.139 256.156 148.964C256.33 148.615 256.447 148.208 256.621 147.859C256.679 147.743 256.737 147.626 256.737 147.51C256.737 147.452 256.796 147.452 256.796 147.394C256.97 146.928 257.145 146.521 257.319 146.055C257.377 145.939 257.377 145.823 257.436 145.706C257.552 145.415 257.61 145.124 257.727 144.834C257.785 144.717 257.785 144.601 257.843 144.543C257.901 144.368 257.959 144.194 258.017 144.019C258.134 143.67 258.192 143.321 258.308 142.972C258.366 142.797 258.425 142.623 258.425 142.448C258.425 142.332 258.483 142.274 258.483 142.157C258.541 141.866 258.599 141.634 258.657 141.343C258.716 141.168 258.716 140.994 258.774 140.819C258.89 140.295 259.006 139.714 259.065 139.19L268.49 77.2845C268.49 77.2263 268.49 77.2263 268.49 77.1681C268.49 77.0517 268.49 76.9935 268.548 76.8772C268.606 76.4117 268.664 75.9463 268.723 75.4808C268.839 75.1899 268.897 74.9572 268.897 74.7826Z" fill="#FB7354"/>
<path d="M224.273 32.8329C241.844 34.8693 253.771 51.9165 250.92 70.8838L241.494 132.789C238.585 151.815 222.004 165.546 204.434 163.509L147.068 156.935C129.497 154.898 117.57 137.851 120.421 118.884L129.846 56.9202C132.755 37.8947 149.337 24.1638 166.907 26.2002L224.273 32.8329Z" fill="url(#paint1_linear_202_707)"/>
<path d="M208.681 124.935C208.216 129.532 204.492 132.964 200.245 132.557C197.976 132.324 195.707 132.092 193.496 131.801C190.703 131.452 187.853 131.161 185.06 130.812C180.638 130.288 176.158 129.764 171.737 129.299C168.42 128.892 165.046 128.543 161.73 128.135C158.006 127.67 155.33 124.935 155.272 121.095C155.213 119.466 155.679 117.721 156.028 116.092C157.192 110.564 158.355 105.095 159.577 99.568C160.915 93.4008 162.253 87.1753 163.591 81.008C163.94 79.4371 164.173 77.8662 164.639 76.3535C165.802 72.1644 169.177 69.7208 173.133 70.0698C173.482 70.128 173.831 70.128 174.18 70.1862C174.704 70.2444 175.227 70.3026 175.867 70.3608C176.333 64.8335 178.311 60.1789 182.733 56.9208C185.642 54.8262 188.842 53.8953 192.274 54.3026C196.638 54.8262 199.954 56.9789 202.223 60.8189C204.55 64.6589 204.667 69.0226 203.619 73.5608C204.201 73.6189 204.783 73.6771 205.307 73.7353C205.598 73.7935 205.83 73.7935 206.121 73.8517C210.485 74.3753 213.103 77.9244 212.637 82.6953C211.823 91.7135 211.008 100.732 210.194 109.75C209.554 114.87 209.147 119.873 208.681 124.935ZM199.198 91.7135C200.187 90.3171 200.012 88.688 198.907 87.8153C198.558 87.5244 198.151 87.408 197.801 87.3498C196.871 87.2335 195.94 87.7571 195.242 88.7462C192.972 92.0044 190.063 93.5753 186.398 93.168C182.675 92.7608 180.347 90.4917 179.126 86.8262C178.776 85.7208 177.962 85.0226 177.089 84.9062C176.74 84.848 176.333 84.9062 175.926 85.0808C174.529 85.6044 173.889 87.1753 174.413 88.7462C176.275 94.448 180.056 97.5899 185.525 98.5208C191.169 98.928 195.707 96.7171 199.198 91.7135ZM185.758 60.9353C182.267 63.1462 180.755 66.6953 180.638 70.9426C186.573 71.6408 192.507 72.3389 198.5 72.9789C199.663 68.3244 199.14 64.4262 195.881 61.5753C194.602 60.4698 193.031 59.7717 191.46 59.5971C189.54 59.4226 187.562 59.8298 185.758 60.9353Z" fill="url(#paint2_linear_202_707)"/>
<path d="M59.0765 0.31935C86.8061 3.50223 105.566 30.3638 101.033 60.2635C96.4994 90.1633 70.3612 111.816 42.6316 108.634C14.902 105.451 -3.85768 78.5892 0.675504 48.6894C5.20869 18.7415 31.3469 -2.91175 59.0765 0.31935Z" fill="url(#paint3_linear_202_707)"/>
<path d="M73.0138 35.7655C74.557 35.9584 76.0037 36.6818 77.1129 38.0321C80.0064 41.4078 79.5242 47.2431 76.0037 50.3778C67.2749 58.1903 58.5461 65.9546 49.7691 73.7189C48.1295 75.1656 46.2004 75.7443 44.4161 75.5514C42.6318 75.3585 40.9439 74.3458 39.7865 72.5615C36.7 67.8354 29.8038 56.6471 26.7656 51.8728C25.0295 49.1721 25.0777 45.5552 26.7174 42.5653C28.3088 39.72 31.1541 38.0803 33.9512 38.3696C34.0476 38.3696 34.1441 38.4179 34.2406 38.4179C36.0731 38.7072 37.5681 39.72 38.6291 41.4078C40.1723 43.7709 45.5253 52.5961 47.0685 54.9592C47.165 55.1039 47.2614 55.2968 47.4543 55.6343C47.6472 55.3932 47.7919 55.2003 47.9366 55.0556C54.4952 49.2204 61.0539 43.3369 67.6608 37.5016C69.3004 36.1513 71.1812 35.5243 73.0138 35.7655Z" fill="url(#paint4_linear_202_707)"/>
<path d="M348.444 122.58C381.978 126.429 404.665 158.914 399.183 195.073C393.701 231.232 362.091 257.418 328.556 253.569C295.022 249.72 272.335 217.235 277.817 181.076C283.299 144.858 314.909 118.672 348.444 122.58Z" fill="url(#paint5_linear_202_707)"/>
<path d="M365.299 165.446C367.165 165.679 368.915 166.554 370.256 168.187C373.755 172.27 373.172 179.326 368.915 183.117C358.358 192.565 347.802 201.955 337.188 211.345C335.205 213.094 332.872 213.794 330.714 213.561C328.556 213.328 326.515 212.103 325.115 209.945C321.383 204.23 313.043 190.699 309.369 184.925C307.269 181.659 307.327 177.285 309.31 173.669C311.235 170.228 314.676 168.245 318.059 168.595C318.175 168.595 318.292 168.654 318.408 168.654C320.625 169.004 322.433 170.228 323.716 172.27C325.582 175.127 332.056 185.8 333.922 188.658C334.038 188.833 334.155 189.066 334.388 189.474C334.622 189.183 334.797 188.949 334.972 188.774C342.903 181.718 350.835 174.602 358.825 167.546C360.808 165.913 363.082 165.154 365.299 165.446Z" fill="url(#paint6_linear_202_707)"/>
<defs>
<filter id="filter0_i_202_707" x="166" y="22.7061" width="291.087" height="231.341" filterUnits="userSpaceOnUse" color-interpolation-filters="sRGB">
<feFlood flood-opacity="0" result="BackgroundImageFix"/>
<feBlend mode="normal" in="SourceGraphic" in2="BackgroundImageFix" result="shape"/>
<feColorMatrix in="SourceAlpha" type="matrix" values="0 0 0 0 0 0 0 0 0 0 0 0 0 0 0 0 0 0 127 0" result="hardAlpha"/>
<feOffset dx="-4" dy="-3"/>
<feGaussianBlur stdDeviation="3"/>
<feComposite in2="hardAlpha" operator="arithmetic" k2="-1" k3="1"/>
<feColorMatrix type="matrix" values="0 0 0 0 0.803922 0 0 0 0 0.847059 0 0 0 0 0.968627 0 0 0 1 0"/>
<feBlend mode="normal" in2="shape" result="effect1_innerShadow_202_707"/>
</filter>
<filter id="filter1_i_202_707" x="369.236" y="30.3262" width="71.6982" height="24.083" filterUnits="userSpaceOnUse" color-interpolation-filters="sRGB">
<feFlood flood-opacity="0" result="BackgroundImageFix"/>
<feBlend mode="normal" in="SourceGraphic" in2="BackgroundImageFix" result="shape"/>
<feColorMatrix in="SourceAlpha" type="matrix" values="0 0 0 0 0 0 0 0 0 0 0 0 0 0 0 0 0 0 127 0" result="hardAlpha"/>
<feOffset dx="-4" dy="-3"/>
<feGaussianBlur stdDeviation="3"/>
<feComposite in2="hardAlpha" operator="arithmetic" k2="-1" k3="1"/>
<feColorMatrix type="matrix" values="0 0 0 0 0.984314 0 0 0 0 0.45098 0 0 0 0 0.329412 0 0 0 1 0"/>
<feBlend mode="normal" in2="shape" result="effect1_innerShadow_202_707"/>
</filter>
<linearGradient id="paint0_linear_202_707" x1="84" y1="177" x2="300" y2="94.5" gradientUnits="userSpaceOnUse">
<stop stop-color="#CDD8F7"/>
<stop offset="1" stop-color="white"/>
</linearGradient>
<linearGradient id="paint1_linear_202_707" x1="167" y1="68" x2="197.5" y2="209" gradientUnits="userSpaceOnUse">
<stop stop-color="#F8BA55"/>
<stop offset="1" stop-color="#FB7354"/>
</linearGradient>
<linearGradient id="paint2_linear_202_707" x1="203" y1="148" x2="155.904" y2="92.2234" gradientUnits="userSpaceOnUse">
<stop stop-color="#FBDCAA"/>
<stop offset="1" stop-color="white"/>
</linearGradient>
<linearGradient id="paint3_linear_202_707" x1="52.9604" y1="87.8836" x2="3.90175" y2="21.3358" gradientUnits="userSpaceOnUse">
<stop stop-color="#7A43EE"/>
<stop offset="1" stop-color="#B565E6"/>
</linearGradient>
<linearGradient id="paint4_linear_202_707" x1="45" y1="36" x2="57" y2="76" gradientUnits="userSpaceOnUse">
<stop stop-color="#E8F0FF"/>
<stop offset="1" stop-color="#CDD8F7"/>
</linearGradient>
<linearGradient id="paint5_linear_202_707" x1="341.047" y1="228.475" x2="281.719" y2="147.996" gradientUnits="userSpaceOnUse">
<stop stop-color="#7A43EE"/>
<stop offset="1" stop-color="#B565E6"/>
</linearGradient>
<linearGradient id="paint6_linear_202_707" x1="331.42" y1="165.73" x2="345.932" y2="214.103" gradientUnits="userSpaceOnUse">
<stop stop-color="#E8F0FF"/>
<stop offset="1" stop-color="#CDD8F7"/>
</linearGradient>
</defs>
</svg>
