<svg width="385" height="425" viewBox="0 0 385 425" fill="none" xmlns="http://www.w3.org/2000/svg">
<path d="M368.963 366.43C368.963 368.579 368.963 370.728 368.963 372.926C368.768 373.317 368.572 373.708 368.426 374.05C367.742 376.053 367.302 378.055 366.326 380.009C360.757 390.999 347.423 400.524 326.468 408.485C304.488 416.838 278.063 422.064 247.194 424.067C241.674 424.409 236.057 424.653 230.44 424.897C224.676 424.897 218.962 424.897 213.198 424.897C212.368 424.848 211.537 424.751 210.707 424.702C202.696 424.213 194.539 423.969 186.675 423.285C111.162 416.496 62.5614 387.971 77.3124 359.299C83.4668 347.381 98.2667 337.221 122.152 329.015C156.245 317.341 196.493 312.701 242.114 314.899C271.176 316.267 296.771 320.761 318.702 328.038C344.541 336.635 360.708 347.283 366.667 360.08C367.644 362.23 368.182 364.33 368.963 366.43Z" fill="#E8F0FF"/>
<path d="M330 255.575C330 259.795 330 264.016 330 268.236C329.895 268.975 329.736 269.713 329.631 270.452C329.104 274.356 328.84 278.312 328.102 282.163C323.988 303.687 314.232 322.257 298.833 337.82C282.696 354.121 263.289 364.355 240.666 368.312C236.605 368.998 232.492 369.42 228.378 370C224.159 370 219.941 370 215.722 370C215.089 369.894 214.509 369.736 213.876 369.631C207.97 368.734 202.01 368.206 196.209 366.835C140.784 353.541 105.082 297.832 115.946 241.753C120.428 218.436 131.345 198.547 148.853 182.615C173.85 159.825 203.434 150.751 236.921 155.025C258.279 157.715 277.053 166.472 293.19 180.716C312.175 197.492 324.041 218.33 328.418 243.389C329.051 247.398 329.42 251.513 330 255.575Z" fill="url(#paint0_radial_202_726)"/>
<path d="M188.06 209.758C187.324 209.864 186.64 210.023 185.903 210.182C174.852 212.83 167.221 224.958 168.063 238.463C168.327 242.594 170.695 245.242 174.01 245.136C174.22 245.136 174.378 245.136 174.536 245.083C177.325 244.659 179.22 241.905 179.167 238.039C179.167 237.404 179.167 236.768 179.167 236.132C178.957 229.142 183.903 223.104 189.797 222.257C190.744 222.098 191.691 222.098 192.691 222.257C198.585 223.157 202.322 227.288 203.848 234.703C204.584 238.145 207.163 240.369 210.005 239.946C210.11 239.946 210.215 239.893 210.268 239.893C213.32 239.257 215.32 236.027 214.793 232.372C214.53 230.73 214.162 229.036 213.688 227.447C209.689 215.107 199.375 208.116 188.06 209.758ZM281.573 258.005C279.31 258.323 277.521 260.283 276.89 263.46C274.995 272.623 271.364 280.726 265.944 287.823C258.155 298.044 247.368 304.082 236.053 305.723C223.529 307.524 210.426 303.923 200.059 294.602C194.375 289.517 189.955 283.321 186.482 276.118C185.219 273.47 183.061 272.252 180.851 272.57C180.114 272.676 179.378 272.94 178.693 273.417C176.01 275.165 175.22 278.819 176.799 282.262C188.376 307.365 212.794 321.982 237.159 318.487C237.316 318.487 237.474 318.434 237.632 318.434C249.999 316.527 260.839 310.914 269.996 301.381C279.205 291.795 285.151 279.984 287.835 266.108C288.677 261.819 286.204 258.217 282.415 258.058C282.099 257.952 281.836 257.952 281.573 258.005ZM259.629 199.166C257.577 199.854 255.419 200.384 253.419 201.337C244.052 205.68 238.053 217.543 239.369 228.93C239.79 232.584 242.474 235.179 245.578 234.808C245.631 234.808 245.736 234.808 245.789 234.808C248.683 234.385 250.63 231.525 250.525 227.871C250.525 227.076 250.525 226.335 250.525 225.54C250.578 218.391 255.472 212.777 261.26 211.982C263.102 211.717 264.997 211.929 266.891 212.724C271.732 214.789 274.206 218.92 275.258 224.481C275.942 228.029 278.573 230.042 281.31 229.671C281.468 229.671 281.573 229.618 281.731 229.618C284.836 228.93 286.678 225.752 286.099 221.992C284.046 207.586 272.364 197.577 259.629 199.166Z" fill="url(#paint1_linear_202_726)"/>
<g filter="url(#filter0_i_202_726)">
<path d="M323.847 17.7127C318.276 18.449 314.691 21.4807 313.223 26.0715C310.805 33.6508 308.472 41.23 306.14 48.8093C305.795 49.892 305.277 50.4984 304.197 50.8015C297.028 52.8804 289.902 55.0459 282.733 57.1248C277.853 58.5107 274.527 61.4991 273.534 66.6097C272.584 71.6769 274.441 75.7914 278.457 78.9963C284.633 83.8903 290.766 88.8277 296.941 93.7217C297.805 94.4147 298.107 95.1509 298.064 96.1904C297.805 103.64 297.589 111.046 297.46 118.495C297.416 120.79 297.33 123.172 297.935 125.338C299.705 131.358 305.277 134.606 310.761 133.913C312.705 133.654 314.648 132.917 316.462 131.618C322.638 127.114 328.727 122.566 334.817 117.932C335.249 117.585 335.68 117.412 336.069 117.369C336.501 117.326 336.89 117.412 337.408 117.585C344.447 120.444 351.444 123.302 358.527 126.074C360.686 126.94 362.802 127.244 364.789 126.984C367.078 126.681 369.194 125.684 371.18 123.865C374.808 120.531 375.888 116.286 374.549 111.522C372.26 103.38 369.842 95.2809 367.423 87.1386C367.207 86.359 367.25 85.7527 367.769 85.0597C372.735 78.39 377.745 71.7202 382.625 65.0072C385.432 61.1093 385.735 56.8216 383.618 52.4473C381.545 48.2029 378.004 45.9075 373.297 45.7343C365.48 45.4744 357.663 45.2578 349.846 45.0846C348.766 45.0846 348.205 44.6948 347.643 43.7853C343.325 36.9856 339.006 30.186 334.644 23.3863C331.88 19.1419 327.907 17.3662 323.847 17.7127ZM50.5577 52.7072C44.9865 53.4434 41.402 56.4751 39.9336 61.066C37.5151 68.6452 35.183 76.2245 32.8509 83.8037C32.5054 84.8865 31.9871 85.4928 30.9074 85.796C23.7383 87.8749 16.6124 90.0404 9.44332 92.1192C4.56315 93.5051 1.23773 96.4935 0.24442 101.604C-0.705701 106.671 1.15135 110.786 5.16778 113.991C11.3436 118.885 17.4762 123.822 23.652 128.716C24.5157 129.409 24.818 130.145 24.7748 131.185C24.5157 138.634 24.2998 146.04 24.1702 153.489C24.127 155.785 24.0406 158.167 24.6453 160.332C26.4159 166.353 31.9871 169.601 37.4719 168.908C39.4153 168.648 41.3588 167.912 43.1726 166.612C49.3484 162.108 55.4378 157.561 61.5273 152.926C61.9591 152.58 62.391 152.407 62.7797 152.363C63.2116 152.32 63.6002 152.407 64.1185 152.58C71.158 155.438 78.1544 158.297 85.1939 161.069C87.3533 161.935 89.4695 162.238 91.4561 161.978C93.745 161.675 95.8612 160.679 97.8478 158.86C101.476 155.525 102.555 151.281 101.216 146.517C98.9275 138.374 96.509 130.275 94.0905 122.133C93.8746 121.353 93.9177 120.747 94.436 120.054C99.4025 113.384 104.412 106.715 109.292 100.002C112.1 96.1037 112.402 91.8161 110.286 87.4418C108.17 83.1974 104.671 80.9019 99.964 80.7287C92.1471 80.4688 84.3302 80.2523 76.5133 80.0791C75.4336 80.0358 74.8721 79.6893 74.3107 78.7798C69.992 71.9801 65.6732 65.1804 61.3113 58.3808C58.5905 54.1364 54.6173 52.3607 50.5577 52.7072ZM182.495 0.0422395C176.967 0.778509 173.339 3.81021 171.871 8.40106C169.452 15.9803 167.12 23.5596 164.788 31.1388C164.443 32.2215 163.924 32.8279 162.845 33.1311C155.676 35.2099 148.55 37.3754 141.381 39.4543C136.5 40.8402 133.175 43.8286 132.182 48.9392C131.232 54.0065 133.089 58.1209 137.105 61.3258C143.281 66.2199 149.413 71.1572 155.589 76.0512C156.453 76.7442 156.755 77.4372 156.712 78.5199C156.453 85.9692 156.237 93.3752 156.108 100.825C156.064 103.12 155.978 105.502 156.583 107.668C158.396 113.688 163.924 116.936 169.409 116.243C171.353 115.983 173.296 115.247 175.11 113.947C181.286 109.443 187.375 104.896 193.465 100.262C193.896 99.915 194.328 99.7418 194.717 99.6985C195.149 99.6552 195.538 99.7418 196.056 99.915C203.052 102.773 210.092 105.632 217.131 108.404C219.291 109.27 221.407 109.573 223.393 109.313C225.682 109.01 227.798 108.014 229.785 106.195C233.413 102.86 234.493 98.6157 233.154 93.8516C230.865 85.7094 228.446 77.6104 226.028 69.4681C225.812 68.6885 225.855 68.0822 226.373 67.3892C231.34 60.7195 236.35 54.0498 241.23 47.3367C244.037 43.4388 244.339 39.1511 242.223 34.7768C240.107 30.5325 236.609 28.237 231.901 28.0638C224.084 27.8039 216.267 27.5874 208.451 27.4141C207.371 27.3708 206.809 27.0243 206.248 26.1148C201.929 19.3152 197.611 12.5155 193.249 5.71585C190.528 1.47147 186.555 -0.30424 182.495 0.0422395Z" fill="url(#paint2_linear_202_726)"/>
</g>
<defs>
<filter id="filter0_i_202_726" x="0" y="-12" width="389" height="181" filterUnits="userSpaceOnUse" color-interpolation-filters="sRGB">
<feFlood flood-opacity="0" result="BackgroundImageFix"/>
<feBlend mode="normal" in="SourceGraphic" in2="BackgroundImageFix" result="shape"/>
<feColorMatrix in="SourceAlpha" type="matrix" values="0 0 0 0 0 0 0 0 0 0 0 0 0 0 0 0 0 0 127 0" result="hardAlpha"/>
<feOffset dx="4" dy="-12"/>
<feGaussianBlur stdDeviation="9"/>
<feComposite in2="hardAlpha" operator="arithmetic" k2="-1" k3="1"/>
<feColorMatrix type="matrix" values="0 0 0 0 0.984314 0 0 0 0 0.45098 0 0 0 0 0.329412 0 0 0 1 0"/>
<feBlend mode="normal" in2="shape" result="effect1_innerShadow_202_726"/>
</filter>
<radialGradient id="paint0_radial_202_726" cx="0" cy="0" r="1" gradientUnits="userSpaceOnUse" gradientTransform="translate(222.166 223.22) rotate(106.323) scale(144.054 148.104)">
<stop stop-color="#B565E6"/>
<stop offset="1" stop-color="#7A43EE"/>
</radialGradient>
<linearGradient id="paint1_linear_202_726" x1="244.05" y1="199.178" x2="191.234" y2="319.285" gradientUnits="userSpaceOnUse">
<stop stop-color="#E8F0FF"/>
<stop offset="1" stop-color="#CDD8F7"/>
</linearGradient>
<linearGradient id="paint2_linear_202_726" x1="128.206" y1="43.0045" x2="118.425" y2="202.605" gradientUnits="userSpaceOnUse">
<stop stop-color="#F8BA55"/>
<stop offset="1" stop-color="#FB7354"/>
</linearGradient>
</defs>
</svg>
