<svg width="72" height="72" viewBox="0 0 72 72" fill="none" xmlns="http://www.w3.org/2000/svg">
<g clip-path="url(#clip0_202_672)">
<path d="M0 49.0364C0.46875 47.7815 1.40625 47.3694 2.7 47.3881C6.1125 47.4256 9.54375 47.4069 12.9562 47.4069C14.7188 47.4069 15.4875 48.1936 15.4875 49.9355C15.4875 50.5723 15.4875 51.1904 15.4875 51.9396C16.5375 51.9396 17.5312 51.9584 18.525 51.9209C18.675 51.9209 18.8438 51.5838 18.9375 51.359C19.7812 49.0177 21.225 47.2008 23.475 46.0583C24.8062 45.384 26.2312 45.1779 27.6937 45.1779C32.4 45.1779 37.1063 45.1779 41.8313 45.1779C44.625 45.1779 46.7438 46.358 48.0938 48.8304C48.1312 48.9053 48.1875 48.9802 48.3188 49.1488C49.2938 48.1561 50.2313 47.1634 51.1875 46.2268C55.4437 42.1061 62.0062 41.975 66.4312 45.9084C67.8 47.1259 67.8375 48.3247 66.5437 49.6171C61.6312 54.5245 56.7188 59.4131 51.8438 64.3205C49.7062 66.4745 47.175 67.486 44.1562 67.486C34.9313 67.4672 25.6875 67.486 16.4625 67.486C16.1813 67.486 15.9 67.486 15.525 67.486C15.525 68.1041 15.4875 68.6847 15.525 69.2654C15.6375 70.5578 15.15 71.4755 13.9313 72C9.80625 72 5.68125 72 1.55625 72C0.8625 71.6629 0.3375 71.1571 0 70.4454C0 63.2716 0 56.154 0 49.0364ZM62.1 47.9875C59.475 46.5827 56.25 47.0885 54.0188 49.2987C51.6938 51.5838 49.3875 53.8876 47.1188 56.2102C45.6562 57.6899 43.9125 58.4204 41.8313 58.4017C39.5063 58.3829 37.2 58.4017 34.875 58.4017C34.5938 58.4017 34.3125 58.3829 34.0312 58.3267C33.0187 58.1207 32.3063 57.2029 32.3625 56.1915C32.4188 55.1426 33.225 54.2997 34.275 54.206C34.5375 54.1873 34.7812 54.1873 35.0437 54.1873C37.3687 54.1873 39.675 54.206 42 54.1873C43.5563 54.1686 44.5687 53.1946 44.5687 51.8085C44.5687 50.4412 43.5563 49.3923 42.1125 49.3736C37.2 49.3548 32.2687 49.3174 27.3562 49.3923C24.7687 49.4298 22.9125 51.3215 22.7625 53.8689C22.6875 55.3486 21.8625 56.1353 20.3812 56.154C18.9562 56.1727 17.5125 56.1727 16.0875 56.154C15.6375 56.154 15.4875 56.2851 15.4875 56.7534C15.5062 58.7575 15.4875 60.7804 15.5062 62.7846C15.5062 62.9157 15.5437 63.0468 15.5812 63.2341C15.8625 63.2341 16.125 63.2341 16.3688 63.2341C25.5938 63.2341 34.8375 63.2154 44.0625 63.2529C45.975 63.2529 47.55 62.6348 48.9 61.2674C53.1187 56.9969 57.375 52.7825 61.6125 48.5494C61.7812 48.3434 61.9125 48.1936 62.1 47.9875ZM11.25 67.6733C11.25 62.2976 11.25 56.9782 11.25 51.64C8.90625 51.64 6.6 51.64 4.275 51.64C4.275 57.0156 4.275 62.3538 4.275 67.6733C6.61875 67.6733 8.90625 67.6733 11.25 67.6733ZM39.9375 0C41.1188 0.224766 42.3375 0.39334 43.5 0.711759C52.7062 3.14672 59.0062 11.8939 58.3875 21.3715C57.675 32.4974 48.2812 40.8699 37.1438 40.308C27.5438 39.821 19.4438 32.3101 18.2625 22.795C16.8938 11.6878 24.4688 1.7794 35.5312 0.168574C35.8688 0.112383 36.2062 0.0561915 36.5625 0C37.6875 0 38.8125 0 39.9375 0ZM54.225 20.1353C54.1875 11.2945 46.9875 4.1769 38.1562 4.21436C29.4 4.25182 22.275 11.4256 22.2938 20.1915C22.3125 29.0323 29.4937 36.1498 38.3438 36.1124C47.1188 36.0562 54.2625 28.8637 54.225 20.1353ZM72 30.9053C71.6062 30.4558 71.3063 29.8751 70.8188 29.5942C69.3563 28.77 67.8375 28.0395 66.3188 27.3278C65.2313 26.8033 64.0125 27.2154 63.4875 28.2456C62.9438 29.2945 63.3375 30.5307 64.4625 31.0926C65.925 31.8606 67.425 32.5911 68.9062 33.3215C70.0687 33.8835 71.1937 33.4714 71.8125 32.3288C71.8688 32.2352 71.925 32.1415 72 32.0479C72 31.6545 72 31.2799 72 30.9053ZM72 8.29761C70.95 6.61186 70.1438 6.40583 68.3438 7.30489C67.1062 7.923 65.8687 8.52237 64.65 9.15921C64.2937 9.34651 63.9375 9.60874 63.675 9.92716C63.075 10.6576 63.1312 11.744 63.7312 12.4558C64.35 13.205 65.3625 13.4672 66.2625 13.0364C67.575 12.4183 68.85 11.7253 70.1625 11.1259C70.9688 10.7513 71.6438 10.2643 72 9.42144C72 9.04683 72 8.67222 72 8.29761ZM10.425 27.2341C8.79375 28.0395 7.14375 28.8075 5.53125 29.6691C4.55625 30.1935 4.275 31.3923 4.74375 32.3663C5.19375 33.3028 6.31875 33.846 7.275 33.4152C9 32.6472 10.6875 31.7856 12.3563 30.8866C13.1438 30.4558 13.425 29.3881 13.1437 28.5265C12.8625 27.6837 12.075 27.103 11.0063 27.103C10.9125 27.1217 10.65 27.1217 10.425 27.2341ZM12.2438 9.34651C10.65 8.50364 9.05625 7.6795 7.40625 6.93028C6.39375 6.46202 5.2125 6.98647 4.74375 7.96046C4.275 8.93444 4.575 10.1332 5.55 10.6389C7.14375 11.5005 8.7375 12.3059 10.3875 13.0552C11.7563 13.6733 13.2375 12.6244 13.2562 11.1446C13.2375 10.3767 12.9188 9.72112 12.2438 9.34651ZM35.6813 11.4818C33.0375 12.2685 31.3875 14.6472 31.65 17.3257C31.9125 19.9854 34.05 22.0458 36.8438 22.2331C37.6312 22.2893 38.4375 22.2144 39.225 22.2893C39.6187 22.3267 40.125 22.4766 40.3125 22.7575C40.5375 23.0947 40.5938 23.6379 40.5 24.0499C40.3875 24.6119 39.8438 24.8179 39.3 24.8366C38.1562 24.8554 37.0125 24.8179 35.85 24.8554C34.8187 24.8928 33.9937 25.6982 33.8812 26.7097C33.7687 27.7024 34.4062 28.6576 35.4 28.9573C35.625 29.0135 35.85 29.0697 36.0563 29.1072C36.3375 30.5494 37.1437 31.3548 38.2875 31.3174C39.45 31.2799 40.2 30.4558 40.3875 28.9761C40.5938 28.9199 40.8188 28.8637 41.025 28.7888C43.5375 27.9834 45.1312 25.4735 44.7937 22.8325C44.4562 20.2664 42.3375 18.2622 39.7312 18.1124C38.9062 18.0562 38.0812 18.1311 37.275 18.0562C36.8813 18.0187 36.375 17.8876 36.1687 17.6067C35.9437 17.2882 35.85 16.7263 35.9437 16.333C36.0562 15.7336 36.6187 15.5276 37.2 15.5088C38.3438 15.4901 39.4875 15.5276 40.65 15.4901C41.6813 15.4527 42.5063 14.6285 42.5813 13.6171C42.675 12.5869 42.0375 11.6691 41.025 11.4069C40.8 11.3507 40.575 11.2945 40.3688 11.257C40.1437 9.87097 39.3375 9.04683 38.1937 9.06556C37.0312 9.08429 36.225 9.94589 36.075 11.3881C35.9625 11.4069 35.8312 11.4443 35.6813 11.4818Z" fill="#7A43EE"/>
</g>
<defs>
<clipPath id="clip0_202_672">
<rect width="72" height="72" fill="white"/>
</clipPath>
</defs>
</svg>
