<svg width="72" height="72" viewBox="0 0 72 72" fill="none" xmlns="http://www.w3.org/2000/svg">
<path d="M72 35.5011C72 46.1495 72 56.7836 72 67.432C71.4375 68.6294 70.4953 69 69.2156 69C47.0672 68.9715 24.9188 68.9715 2.77031 69C1.50469 69 0.5625 68.6294 0 67.432C0 56.7836 0 46.1495 0 35.5011C0.478125 34.2752 1.36406 33.8618 2.64375 33.876C7.24219 33.9188 11.8266 33.8903 16.425 33.8903C16.6922 33.8903 16.9734 33.8903 17.2969 33.8903C17.2969 33.5197 17.2969 33.2346 17.2969 32.9495C17.2969 23.8549 17.2969 14.7603 17.2969 5.66566C17.2969 3.74125 18.0422 3 19.9406 3C30.6422 3 41.3578 3 52.0594 3C53.9578 3 54.7031 3.74125 54.7031 5.66566C54.7031 14.7888 54.7031 23.9119 54.7031 33.0207C54.7031 33.2916 54.7031 33.5624 54.7031 33.8903C55.0969 33.8903 55.3781 33.8903 55.6453 33.8903C60.2156 33.8903 64.7859 33.9188 69.3563 33.876C70.6359 33.8618 71.5219 34.2752 72 35.5011ZM38.1234 64.6808C48.0656 64.6808 57.9375 64.6808 67.7953 64.6808C67.7953 55.8 67.7953 46.9762 67.7953 38.1382C65.25 38.1382 62.7609 38.1382 60.2297 38.1382C60.2297 38.4518 60.2297 38.7084 60.2297 38.965C60.2297 42.5287 60.2297 46.0924 60.2297 49.6562C60.2297 51.3525 59.4562 52.1365 57.7687 52.1365C54.3516 52.1508 50.9203 52.1508 47.5031 52.1365C45.7875 52.1365 45.0141 51.3382 45.0141 49.6134C45.0141 46.0497 45.0141 42.486 45.0141 38.9222C45.0141 38.6657 45.0141 38.4091 45.0141 38.124C42.6797 38.124 40.4297 38.124 38.1375 38.124C38.1234 46.9905 38.1234 55.8143 38.1234 64.6808ZM4.19062 64.695C14.1328 64.695 23.9906 64.695 33.8484 64.695C33.8484 55.8 33.8484 46.962 33.8484 38.124C31.3172 38.124 28.8422 38.124 26.3109 38.124C26.3109 38.4233 26.3109 38.6799 26.3109 38.9365C26.3109 42.5002 26.3109 46.0639 26.3109 49.6276C26.3109 51.324 25.5375 52.1365 23.8781 52.1365C20.4328 52.1508 16.9875 52.1508 13.5422 52.1365C11.8688 52.1365 11.0953 51.3382 11.0953 49.6419C11.0953 46.0782 11.0953 42.5145 11.0953 38.9508C11.0953 38.6799 11.0953 38.4091 11.0953 38.1382C8.73281 38.1382 6.46875 38.1382 4.19062 38.1382C4.19062 47.0047 4.19062 55.8143 4.19062 64.695ZM43.6078 7.2622C43.6078 7.56155 43.6078 7.81814 43.6078 8.07473C43.6078 11.6384 43.6078 15.2022 43.6078 18.7659C43.6078 20.4622 42.8344 21.2605 41.1609 21.2605C37.7156 21.2605 34.2703 21.2605 30.825 21.2605C29.1656 21.2605 28.3922 20.4765 28.3922 18.7659C28.3922 15.2022 28.3922 11.6384 28.3922 8.07473C28.3922 7.81814 28.3922 7.56155 28.3922 7.27646C26.0578 7.27646 23.7937 7.27646 21.5016 7.27646C21.5016 16.1572 21.5016 24.981 21.5016 33.8475C31.1766 33.8475 40.8094 33.8475 50.4562 33.8475C50.4562 24.9525 50.4562 16.1145 50.4562 7.2622C48.1641 7.2622 45.9281 7.2622 43.6078 7.2622ZM22.0922 47.8885C22.0922 44.5957 22.0922 41.3598 22.0922 38.124C19.7859 38.124 17.55 38.124 15.2719 38.124C15.2719 41.3883 15.2719 44.6242 15.2719 47.8885C17.5641 47.8885 19.8 47.8885 22.0922 47.8885ZM32.5266 12.0946C32.5266 13.5486 32.5406 14.9883 32.5125 16.4423C32.4984 16.9127 32.6531 17.0553 33.1172 17.0553C35.0297 17.041 36.9562 17.041 38.8687 17.0553C39.3187 17.0553 39.4734 16.9127 39.4734 16.4423C39.4594 13.5771 39.4594 10.6976 39.4734 7.8324C39.4734 7.36199 39.3328 7.21944 38.8687 7.21944C36.9562 7.23369 35.0297 7.23369 33.1172 7.21944C32.6672 7.21944 32.5125 7.36199 32.5125 7.8324C32.5406 9.24363 32.5266 10.6691 32.5266 12.0946ZM56.025 47.8743C56.025 44.5672 56.025 41.3456 56.025 38.1097C53.7188 38.1097 51.4828 38.1097 49.2047 38.1097C49.2047 41.3741 49.2047 44.6099 49.2047 47.8743C51.4969 47.8743 53.7469 47.8743 56.025 47.8743ZM57.7687 56.3274C57.7266 56.3274 57.6703 56.3274 57.6281 56.3274C56.3203 56.3559 55.4203 57.197 55.4062 58.3944C55.3781 59.606 56.25 60.5184 57.5438 60.5469C59.3438 60.5754 61.1437 60.5896 62.9438 60.5469C64.1813 60.5184 65.0812 59.606 65.0812 58.4514C65.0812 57.2682 64.1531 56.3559 62.8875 56.3274C62.0016 56.3132 61.1156 56.3274 60.2156 56.3274C59.4 56.3274 58.5844 56.3274 57.7687 56.3274ZM23.0344 56.3274C21.6984 56.3417 20.7984 57.2112 20.7984 58.4514C20.7984 59.6631 21.6703 60.5326 22.9781 60.5469C24.7359 60.5754 26.4937 60.5754 28.2375 60.5469C29.5594 60.5326 30.4875 59.606 30.4594 58.3944C30.4313 57.2112 29.5172 56.3559 28.2234 56.3274C27.3516 56.3132 26.4937 56.3274 25.6219 56.3274C24.7641 56.3274 23.8922 56.3132 23.0344 56.3274ZM45.6609 29.6566C46.8563 29.6281 47.7281 28.7585 47.7703 27.6181C47.8125 26.492 46.9547 25.5227 45.7734 25.4942C43.875 25.4514 41.9766 25.4371 40.0922 25.4942C38.8828 25.5227 38.0812 26.4492 38.1094 27.6181C38.1375 28.7728 38.9953 29.6281 40.1906 29.6566C41.1047 29.6708 42.0187 29.6566 42.9328 29.6566C43.8328 29.6566 44.7469 29.6708 45.6609 29.6566Z" fill="#7A43EE"/>
</svg>
