<svg width="72" height="72" viewBox="0 0 72 72" fill="none" xmlns="http://www.w3.org/2000/svg">
<g clip-path="url(#clip0_202_663)">
<path d="M23.6124 0C24.3626 0 25.1128 0 25.863 0C25.9943 0.0375098 26.1068 0.112529 26.2381 0.131284C30.0078 0.956499 32.4084 3.22584 33.3649 6.95806C33.5337 7.61448 33.5712 8.28966 33.665 9.0211C33.9088 9.0211 34.1526 9.0211 34.4152 9.0211C36.3845 9.0211 38.3537 9.00234 40.323 9.0211C41.6546 9.03985 42.4235 9.69628 42.6111 11.0091C42.9112 13.0722 43.155 15.1352 43.4363 17.1982C43.6801 18.9799 43.9052 20.7617 44.149 22.5996C44.4866 22.5996 44.7679 22.5996 45.0492 22.5996C50.957 22.5996 56.8648 22.5996 62.7726 22.5996C64.2917 22.5996 64.9857 23.2185 65.2482 24.7189C65.5858 26.6882 65.9422 28.6387 66.2798 30.5892C67.8552 39.5353 69.4306 48.4814 71.0247 57.4275C71.3248 59.1529 71.6812 60.8596 72 62.5851C72 63.3352 72 64.0854 72 64.8356C71.9625 64.9669 71.8875 65.0795 71.8687 65.2107C71.3811 67.7239 70.0495 69.6556 67.8177 70.8935C66.8987 71.3998 65.8296 71.6437 64.8356 72C45.7057 72 26.5757 72 7.44569 72C7.33316 71.9625 7.23939 71.9062 7.12686 71.8875C4.66997 71.4936 2.68195 70.2746 1.40662 68.1553C0.76895 67.105 0.468872 65.8484 0 64.7044C0 63.9542 0 63.204 0 62.4538C0.0375098 62.3787 0.0937744 62.285 0.112529 62.21C0.73144 57.4837 1.35035 52.7387 1.96926 48.0125C2.73821 42.086 3.50716 36.1782 4.27611 30.2516C5.10133 23.9312 5.9453 17.6296 6.75176 11.3092C6.95806 9.73378 7.6895 9.03985 9.30242 9.03985C11.2154 9.03985 13.1472 9.03985 15.0602 9.03985C15.304 9.03985 15.5478 9.0211 15.8291 9.00234C15.8479 8.77729 15.8666 8.60849 15.8666 8.45845C16.0729 5.21386 17.6108 2.75697 20.4241 1.18156C21.3806 0.600156 22.5434 0.375098 23.6124 0ZM61.3285 26.8382C60.9909 26.8382 60.7283 26.8382 60.447 26.8382C55.0643 26.8382 49.6629 26.8382 44.2803 26.8382C40.8856 26.8382 37.4723 26.857 34.0776 26.8195C33.3837 26.8195 33.1774 27.0258 33.0649 27.6822C32.746 29.7452 32.3709 31.7895 32.0146 33.8526C30.3079 43.5113 28.5824 53.1701 26.8945 62.8289C26.4256 65.5108 28.1886 67.7989 30.7955 67.7989C41.7859 67.8177 52.7762 67.8177 63.7854 67.7989C66.3173 67.7989 68.1553 65.5671 67.7426 63.0539C67.4426 61.1597 67.0862 59.2654 66.7486 57.3712C65.2295 48.7252 63.6916 40.0792 62.1724 31.4332C61.8911 29.914 61.6098 28.3949 61.3285 26.8382ZM10.7278 13.2785C10.6903 13.466 10.6715 13.5785 10.6528 13.6911C10.1276 17.7609 9.6025 21.8119 9.07736 25.8817C8.30841 31.827 7.52071 37.7723 6.733 43.7176C5.90779 50.0568 5.10133 56.3959 4.25736 62.7351C3.88226 65.5858 5.739 67.7802 8.60849 67.7802C13.391 67.7802 18.1735 67.7802 22.956 67.7802C23.1435 67.7802 23.3498 67.7426 23.5936 67.7239C22.6371 65.9047 22.3933 64.0667 22.7309 62.1349C23.5374 57.5212 24.3438 52.9075 25.1691 48.2938C26.5569 40.4168 27.9448 32.521 29.3514 24.6439C29.614 23.1248 30.3079 22.5809 31.8645 22.5809C34.2839 22.5809 36.6846 22.5809 39.1039 22.5809C39.3477 22.5809 39.5916 22.5621 39.8916 22.5434C39.479 19.3925 39.0852 16.3355 38.6726 13.2597C36.9659 13.2597 35.3154 13.2597 33.59 13.2597C33.59 14.0287 33.59 14.7413 33.59 15.4728C33.5712 16.8044 32.7273 17.7234 31.5082 17.7421C30.2704 17.7609 29.3889 16.8231 29.3701 15.4728C29.3701 14.7601 29.3701 14.0287 29.3701 13.2785C26.2381 13.2785 23.181 13.2785 20.0302 13.2785C20.0302 14.0662 20.049 14.7976 20.0302 15.5478C19.9927 16.6731 19.355 17.5171 18.3798 17.7234C17.0669 18.0047 15.8854 17.0857 15.8291 15.7166C15.7916 14.9101 15.8291 14.1037 15.8291 13.2972C14.0662 13.2785 12.4345 13.2785 10.7278 13.2785ZM20.0865 8.98359C23.1998 8.98359 26.2756 8.98359 29.3326 8.98359C29.4452 6.43293 27.3446 4.25736 24.794 4.21985C22.1683 4.18234 20.0115 6.30164 20.0865 8.98359ZM56.1709 33.8713C56.1334 32.5397 55.2519 31.6395 54.0516 31.6395C52.8513 31.6395 51.9885 32.5585 51.9698 33.8901C51.951 34.734 51.9885 35.578 51.9135 36.422C51.726 38.7288 49.8505 40.5481 47.5811 40.6418C45.1618 40.7544 43.1175 39.1977 42.7236 36.8721C42.5548 35.8969 42.6299 34.8653 42.5923 33.8526C42.5548 32.5397 41.6921 31.6207 40.473 31.6207C39.2915 31.6207 38.3912 32.5397 38.3725 33.7963C38.3537 34.6403 38.3537 35.4842 38.3725 36.3282C38.5788 41.8984 43.9614 45.9307 49.3629 44.6179C52.7012 43.8114 56.3397 40.6418 56.1521 35.3905C56.1709 34.9028 56.1896 34.3965 56.1709 33.8713Z" fill="#7A43EE"/>
</g>
<defs>
<clipPath id="clip0_202_663">
<rect width="72" height="72" fill="white"/>
</clipPath>
</defs>
</svg>
