<svg width="72" height="72" viewBox="0 0 72 72" fill="none" xmlns="http://www.w3.org/2000/svg">
<path d="M0 64.0043C0 52.3643 0 40.7432 0 29.1032C0.0375 28.9892 0.09375 28.8943 0.1125 28.7804C0.50625 26.027 1.8 23.8053 3.80625 21.9444C10.0875 16.1339 16.3688 10.3234 22.575 4.4369C24.9188 2.21522 27.45 1.51264 30.6188 2.32916C38.2687 4.266 45.9562 6.01296 53.625 7.91182C57.1688 8.7853 59.6813 11.0639 60.8813 14.5389C64.65 25.4953 68.3063 36.4898 72 47.4842C72 48.1108 72 48.7185 72 49.3451C71.3438 52.6301 69.1688 54.3581 66.225 55.4974C63 56.7507 59.85 58.2318 56.6625 59.599C56.2313 59.7888 56.0625 59.9977 56.0813 60.4914C56.1188 61.3459 56.1188 62.2004 56.0813 63.0549C55.9688 66.9476 53.0438 69.9858 49.3125 69.9858C35.1375 70.0048 20.9625 70.0048 6.7875 69.9858C3.9375 69.9858 1.40625 68.1249 0.43125 65.4285C0.2625 64.9538 0.15 64.4791 0 64.0043ZM28.0125 65.7133C34.8937 65.7133 41.7938 65.6753 48.675 65.7323C50.775 65.7513 51.9 64.3651 51.8813 62.5042C51.8438 51.9465 51.8438 41.3888 51.8625 30.8122C51.8625 28.5145 51.0938 26.6157 49.4062 25.0776C47.6063 23.4445 45.8438 21.7735 44.0813 20.1215C39.4688 15.8301 34.875 11.5387 30.2438 7.26621C28.6875 5.82307 27.4313 5.80408 25.9875 7.15228C19.5188 13.1527 13.0688 19.1531 6.6 25.1535C4.9875 26.6536 4.2 28.4765 4.2 30.6982C4.21875 41.3509 4.2 52.0035 4.2 62.6751C4.2 64.6879 5.25 65.7323 7.2375 65.7323C14.175 65.7133 21.0937 65.7133 28.0125 65.7133ZM56.0813 55.2126C59.6063 53.6745 63 52.2314 66.375 50.7123C67.575 50.1616 68.0437 48.7564 67.5938 47.4272C64.05 36.9645 60.5063 26.5017 56.925 16.039C56.1938 13.9312 54.675 12.564 52.5188 12.0324C48.6375 11.0639 44.7375 10.1525 40.8375 9.22204C39.9375 9.01317 39.0187 8.80429 38.1 8.59542C38.1937 8.86126 38.325 8.99418 38.4563 9.10811C42.9375 13.2856 47.3812 17.5011 51.9187 21.6216C54.7875 24.2231 56.1188 27.3562 56.0813 31.2489C56.025 38.9203 56.0625 46.5727 56.0625 54.2442C56.0812 54.51 56.0813 54.7948 56.0813 55.2126ZM10.8375 34.382C10.9125 32.1034 11.7 30.0526 13.5 28.4955C16.1625 26.1979 19.9875 26.5587 22.275 29.2931C24.75 32.2173 24.75 36.6986 22.275 39.6229C19.35 43.0978 14.2312 42.5471 11.9062 38.5215C11.1938 37.2683 10.875 35.9011 10.8375 34.382ZM19.95 33.9833C19.7625 33.5845 19.5187 32.711 19.0312 32.0464C18.225 30.9451 16.8563 31.002 15.9375 32.0084C14.775 33.3187 14.775 35.6163 15.9562 36.8885C16.8562 37.8759 18.1125 37.8949 19.0312 36.8885C19.65 36.2239 19.8938 35.3694 19.95 33.9833ZM32.1375 51.3199C32.175 49.0792 32.9437 47.1424 34.5938 45.6233C37.4062 43.0409 41.5125 43.4776 43.8562 46.5917C45.9562 49.4021 45.9562 53.4846 43.8375 56.2759C40.8188 60.2446 35.1187 59.599 32.9812 54.9657C32.475 53.8644 32.2875 52.5922 31.9688 51.3959C32.0062 51.3579 32.0812 51.3389 32.1375 51.3199ZM41.2125 51.4718C41.1938 50.5034 40.95 49.6679 40.3313 48.9653C39.45 47.9779 38.2313 47.9589 37.3125 48.8894C36.0563 50.1806 36.0563 52.6491 37.3125 53.9214C38.2125 54.8328 39.3937 54.8328 40.275 53.8834C40.9125 53.1998 41.175 52.3643 41.2125 51.4718ZM25.0125 55.5924C27.1687 50.3705 29.325 45.1486 31.5 39.9267C32.7 37.0214 33.9188 34.1162 35.1 31.2109C35.6812 29.8058 34.95 28.4006 33.5437 28.1537C32.55 27.9639 31.6313 28.5335 31.1813 29.6349C28.6125 35.8252 26.0437 42.0345 23.475 48.2437C22.6687 50.1996 21.825 52.1744 21.0375 54.1492C20.4375 55.6683 21.375 57.1684 23.1188 57.1874C23.9813 57.1684 24.6187 56.5608 25.0125 55.5924ZM26.0062 15.4503C26.0062 16.6466 26.9812 17.596 28.1625 17.5771C29.2875 17.5391 30.2438 16.5327 30.2063 15.3934C30.1875 14.254 29.2125 13.2856 28.0687 13.3046C26.9062 13.3236 25.9875 14.273 26.0062 15.4503Z" fill="#7A43EE"/>
</svg>
