<svg width="72" height="72" viewBox="0 0 72 72" fill="none" xmlns="http://www.w3.org/2000/svg">
<g clip-path="url(#clip0_202_678)">
<path d="M0 33.8715C0.187451 32.511 0.318667 31.1505 0.562354 29.8089C2.96173 15.807 13.2528 3.77024 28.0989 0.406756C28.6613 0.274485 29.2424 0.161109 29.8235 0.0477331C31.1544 -0.197914 32.2229 0.520132 32.4665 1.84285C32.9539 4.52607 33.4225 7.22819 33.8724 9.93032C34.1161 11.4231 33.4413 12.3679 31.9229 12.6513C23.4501 14.3142 17.5829 19.3216 14.34 27.239C11.697 33.6825 12.4842 40.1449 15.371 46.3995C15.8584 47.4388 16.477 48.4214 17.0581 49.4229C17.7891 50.6511 17.6017 51.7849 16.4207 52.6352C14.1901 54.2224 11.9406 55.8097 9.69123 57.3781C8.47279 58.2284 7.27311 58.0016 6.42958 56.7545C2.77428 51.388 0.637334 45.4925 0.131216 39.0112C0.112471 38.8033 0.0562354 38.5955 0 38.3876C0 36.8948 0 35.3832 0 33.8715ZM12.503 50.1787C8.21036 42.0534 7.01067 33.6825 10.6097 25.1605C14.1713 16.7329 20.5634 11.2908 29.3736 8.75877C29.2611 8.07851 29.1299 7.41715 29.0174 6.7369C28.8862 6.05665 28.7738 5.3575 28.6238 4.58276C17.4892 7.70059 9.78495 14.5409 5.99844 25.5006C2.73679 34.9486 3.84275 44.0564 8.82895 52.7674C10.1224 51.8604 11.3033 51.0101 12.503 50.1787ZM71.9813 42.5069C71.5689 44.0753 71.2502 45.6815 70.7253 47.1931C65.9641 60.7226 56.5915 68.9613 42.6639 71.9279C41.4829 72.1736 40.3957 71.4933 40.1708 70.3029C39.6272 67.4496 39.1211 64.5963 38.6712 61.743C38.465 60.3825 39.2335 59.5322 40.7519 59.2299C45.5131 58.2851 49.5996 56.0742 52.9925 52.5974C56.3103 49.1961 58.4473 45.1524 59.347 40.4473C59.6657 38.8033 60.5842 38.1231 62.1776 38.3876C64.6519 38.8222 67.1075 39.3135 69.5819 39.6914C70.6878 39.8615 71.5126 40.315 71.9813 41.3354C71.9813 41.7511 71.9813 42.129 71.9813 42.5069ZM43.9011 67.2984C56.2354 64.3318 65.0268 54.0713 67.295 43.6596C65.9266 43.4139 64.5394 43.1683 63.1898 42.9226C60.0969 53.3154 53.4236 60.0235 43.17 63.1224C43.4137 64.5396 43.6574 65.9001 43.9011 67.2984ZM71.9813 30.6025C71.4939 31.6229 70.6878 32.0764 69.5819 32.2464C67.1075 32.6244 64.6519 33.1157 62.1963 33.5503C60.7154 33.8148 59.7407 33.0968 59.4783 31.604C58.9159 28.3728 57.6975 25.425 55.823 22.7418C54.8107 21.2868 55.0169 20.1719 56.479 19.1515C58.5972 17.6588 60.6967 16.1849 62.8149 14.6921C64.0896 13.804 65.2518 14.0118 66.1328 15.2968C68.982 19.4728 70.894 24.0456 71.85 29.0152C71.8875 29.1664 71.9438 29.3176 72 29.4687C71.9813 29.8466 71.9813 30.2246 71.9813 30.6025ZM67.3512 28.3161C66.5452 25.066 65.3455 22.0993 63.6397 19.2838C62.4775 20.0963 61.3528 20.89 60.2656 21.6647C60.8654 22.8929 61.484 24.0645 61.9901 25.2738C62.4962 26.5021 62.8899 27.7681 63.321 29.0341C64.6707 28.7885 65.9828 28.5617 67.3512 28.3161ZM55.3918 35.8367C55.1294 42.866 52.655 48.6103 46.7503 52.3517C37.2278 58.3795 24.2937 55.0727 19.3075 45.2091C15.3335 37.3672 16.9081 27.2579 23.3002 21.608C29.0362 16.5439 35.7469 15.3535 42.9263 17.8099C49.8995 20.2097 53.761 25.425 55.0732 32.6244C55.2606 33.7203 55.2981 34.873 55.3918 35.8367ZM51.1367 35.9878C51.043 28.2594 45.9818 20.9278 36.2906 20.9089C26.4494 20.89 21.3882 28.4106 21.3882 35.9878C21.3882 43.3762 26.2432 51.029 36.2156 51.0668C45.8318 51.1046 51.0242 43.8485 51.1367 35.9878ZM58.0536 7.87066C57.8662 8.28637 57.7537 8.75877 57.51 9.13669C55.9167 11.4798 54.3046 13.7851 52.6738 16.1093C51.9052 17.2053 50.7618 17.432 49.6558 16.714C46.8253 14.8433 43.7699 13.5394 40.452 12.8592C39.1023 12.5758 38.4462 11.6498 38.6712 10.2704C39.1398 7.43605 39.6272 4.60166 40.152 1.76726C40.3957 0.501236 41.4642 -0.179018 42.7201 0.066629C47.8188 1.01143 52.4863 2.93881 56.7602 5.88658C57.6037 6.47236 57.9412 7.00144 58.0536 7.87066ZM52.88 8.41864C50.0495 6.69911 47.1065 5.43308 43.9198 4.67724C43.6574 6.20781 43.3949 7.62501 43.1513 9.0611C44.4072 9.51461 45.6444 9.91142 46.8253 10.4027C48.0062 10.894 49.1497 11.4987 50.3494 12.0656C51.1742 10.8562 51.999 9.66577 52.88 8.41864ZM33.8912 61.8186C33.61 63.4437 33.2913 65.2766 32.9727 67.1284C32.804 68.111 32.6353 69.0746 32.4665 70.0572C32.2229 71.4744 31.1731 72.2114 29.7672 71.9468C24.6873 71.002 20.001 69.0746 15.7272 66.108C14.4337 65.201 14.2088 64.0294 15.1273 62.7067C16.6269 60.5337 18.1265 58.3795 19.6449 56.2065C20.5259 54.9405 21.6881 54.7137 22.9628 55.6207C25.6808 57.5481 28.68 58.8141 31.9604 59.381C33.2351 59.6078 33.9287 60.4392 33.8912 61.8186ZM28.6425 67.3362C28.8862 65.919 29.1299 64.5774 29.3361 63.4059C26.843 62.3666 24.4436 61.3462 21.9693 60.3069C21.2757 61.3084 20.4884 62.4422 19.6824 63.5948C22.4941 65.3333 25.4184 66.5426 28.6425 67.3362ZM34.1724 35.8556C34.2098 36.4224 34.4348 37.1027 34.8097 37.4995C36.2343 39.049 37.7527 40.5229 39.271 42.0156C39.7771 42.5258 40.4145 42.7337 41.1455 42.5825C42.8139 42.2235 43.4324 40.2772 42.2328 39.0112C41.1268 37.8207 39.9271 36.7248 38.8211 35.5343C38.5775 35.2698 38.39 34.8541 38.39 34.514C38.3525 32.2086 38.39 29.8844 38.3713 27.5791C38.3525 26.2564 37.4715 25.3305 36.2531 25.3305C35.0346 25.3305 34.1724 26.2564 34.1536 27.5791C34.1349 28.9396 34.1536 30.319 34.1536 31.6796C34.1349 33.059 34.0786 34.4573 34.1724 35.8556Z" fill="#7A43EE"/>
</g>
<defs>
<clipPath id="clip0_202_678">
<rect width="72" height="72" fill="white"/>
</clipPath>
</defs>
</svg>
