<svg width="224" height="161" viewBox="0 0 224 161" fill="none" xmlns="http://www.w3.org/2000/svg">
<path d="M0 96L9 43.5L16.5 87.5L0 96Z" fill="#FB7354"/>
<path d="M24.451 136.082L8.99926 43.601L93.3719 56.2225L111.96 160.101L24.451 136.082Z" fill="url(#paint0_linear_202_544)"/>
<path d="M111.96 160.101L203.753 87.3554L187.46 1.68236L93.3723 56.2225L111.96 160.101Z" fill="url(#paint1_linear_202_544)"/>
<path d="M123.129 7.62939e-06L187.46 1.68286L93.3725 56.223L8.99983 43.6015L123.129 7.62939e-06Z" fill="url(#paint2_linear_202_544)"/>
<path d="M139 92.5L93.5 56L187.5 1.5L223.5 27L139 92.5Z" fill="#F8BA55"/>
<path d="M123.129 7.62939e-06L129.999 35L93.3728 56.223L9.00009 43.6015L123.129 7.62939e-06Z" fill="#FB7354"/>
<path d="M62.6601 93.1608L25.768 83.1081C24.4961 82.7698 23.5366 81.7416 23.3645 80.4168L19.7502 58.2369C19.3977 55.9992 21.3555 54.0356 23.6211 54.4082L59.2895 60.3444C60.6776 60.5572 61.7356 61.63 62.0332 63.0709L66.8713 89.3674C67.2777 91.7483 65.0067 93.7482 62.6601 93.1608Z" fill="#F8BA55"/>
<defs>
<linearGradient id="paint0_linear_202_544" x1="42.3723" y1="128.04" x2="104.547" y2="43.9216" gradientUnits="userSpaceOnUse">
<stop stop-color="#F8BA55"/>
<stop offset="1" stop-color="#FB7354"/>
</linearGradient>
<linearGradient id="paint1_linear_202_544" x1="93.3723" y1="80.8917" x2="203.753" y2="80.8917" gradientUnits="userSpaceOnUse">
<stop stop-color="#F8BA55"/>
<stop offset="1" stop-color="#FB7354"/>
</linearGradient>
<linearGradient id="paint2_linear_202_544" x1="8.99983" y1="28.1115" x2="187.46" y2="28.1115" gradientUnits="userSpaceOnUse">
<stop stop-color="#F8BA55"/>
<stop offset="1" stop-color="#FB7354"/>
</linearGradient>
</defs>
</svg>
