<svg width="72" height="72" viewBox="0 0 72 72" fill="none" xmlns="http://www.w3.org/2000/svg">
<path d="M66.4205 72C46.1259 72 25.8313 72 5.53667 72C4.74006 71.5875 3.98138 71.0625 4.00035 70.0875C4.03828 67.4625 3.92448 64.8187 4.30382 62.25C5.4039 54.8063 12.1372 48.6375 19.705 47.9812C22.2465 47.7562 24.826 47.8688 27.3676 47.8313C27.6142 47.8313 27.8607 47.8313 28.1452 47.8313C28.1452 47.4188 28.1073 47.1187 28.1452 46.8187C28.2211 46.1437 27.9935 45.7687 27.3676 45.375C24.1243 43.4062 21.8482 40.6313 20.5774 37.0875C20.1981 36.0187 19.9515 34.8938 19.6481 33.7688C19.4015 33.7688 19.136 33.7688 18.8894 33.7688C17.5617 33.7875 16.234 33.825 14.9822 33.2625C12.5544 32.1375 11.1698 30.2625 11.1129 27.6C11.0371 24.8812 12.3648 22.9125 14.8305 21.7125C15.2288 21.525 15.3805 21.3188 15.3615 20.8875C15.3615 20.025 15.3995 19.1625 15.4753 18.3C16.1961 10.275 22.2845 3 30.1178 0.8625C31.4834 0.4875 32.887 0.28125 34.2716 0C35.4096 0 36.5476 0 37.6856 0C37.8563 0.0375 38.046 0.09375 38.2167 0.13125C39.6961 0.45 41.2135 0.6375 42.636 1.125C51.1332 3.99375 56.5767 11.6625 56.5767 20.6625C56.5767 21.2062 56.6905 21.5063 57.2405 21.7687C59.4596 22.8562 60.7304 24.675 60.8253 27.1125C60.9201 29.7188 60.9011 32.3062 60.8253 34.9125C60.7115 38.4562 57.8854 41.6063 54.3386 42.0375C52.5557 42.2625 50.7538 42.1313 48.952 42.2063C48.6485 42.225 48.3071 42.3375 48.0795 42.525C46.7518 43.5375 45.4621 44.5875 44.1723 45.6562C44.0206 45.7875 43.8309 45.9938 43.8119 46.1813C43.755 46.7062 43.793 47.25 43.793 47.8313C44.0964 47.8313 44.324 47.8313 44.5516 47.8313C46.5242 47.8313 48.4778 47.8125 50.4503 47.8313C58.6441 47.925 65.7946 53.7188 67.5585 61.6125C68.1086 64.125 67.881 66.6562 67.9948 69.1687C68.0517 70.4812 67.6534 71.4375 66.4205 72ZM8.30584 67.7437C26.7796 67.7437 45.2344 67.7437 63.7841 67.7437C63.7082 66.3 63.7272 64.8938 63.5755 63.5063C62.9306 57.825 57.8475 52.7625 52.1005 52.2188C49.5399 51.975 46.9415 52.1063 44.362 52.0312C43.755 52.0125 43.4895 52.1625 43.2429 52.7625C42.048 55.6312 39.8478 57.3187 36.7373 57.6187C33.7784 57.9187 31.3507 56.7562 29.6057 54.375C29.0936 53.6813 28.7712 52.8563 28.3349 52.05C26.1537 52.05 23.8967 52.0312 21.6396 52.05C18.0738 52.0875 14.9822 53.3438 12.4027 55.7812C8.96968 59.025 7.88857 63.1125 8.30584 67.7437ZM19.667 21.0938C19.9705 21.0938 20.2171 21.0938 20.4826 21.0938C23.3087 21.0938 26.1158 21.075 28.9419 21.0938C33.7595 21.1313 37.9322 19.5375 41.4221 16.2375C42.4842 15.225 43.5085 15.1875 44.6465 16.1063C46.5432 17.5875 48.4399 19.0688 50.2986 20.5875C50.9435 21.1313 51.5884 21.15 52.3091 21.0187C52.7453 12.225 45.5569 4.14375 35.8838 4.21875C26.2486 4.29375 19.2118 12.375 19.667 21.0938ZM23.8967 25.3125C23.8967 27.4312 23.8967 29.475 23.8967 31.5C23.9156 39.0187 30.4592 44.5688 37.9511 43.425C39.1461 43.2375 40.322 42.9 41.5549 42.1875C40.1323 42.1875 38.9374 42.1875 37.7235 42.1875C36.2252 42.1875 35.2578 41.325 35.2578 40.05C35.2768 38.7938 36.2441 37.9688 37.6856 37.9688C40.341 37.9688 42.9963 37.9688 45.6517 37.9688C46.05 37.9688 46.2966 37.875 46.4863 37.5C47.207 36.1688 47.8139 34.7812 47.8898 33.2625C48.0226 30.9937 47.8898 28.7063 48.0795 26.4563C48.2312 24.7688 47.7001 23.6438 46.2587 22.7625C45.1396 22.0688 44.1723 21.1688 43.1481 20.3438C38.615 24.0562 33.3991 25.5187 27.6521 25.3125C26.4382 25.275 25.2054 25.3125 23.8967 25.3125ZM32.4318 47.4375C32.4318 48.375 32.4128 49.2188 32.4318 50.0625C32.4887 51.9 34.006 53.3813 35.8458 53.4563C37.7046 53.5125 39.3357 52.1437 39.5064 50.325C39.5823 49.4062 39.5254 48.4688 39.5254 47.4563C37.1545 47.925 34.8406 47.9437 32.4318 47.4375ZM56.5387 33.7875C55.1162 33.7875 53.6747 33.7875 52.2901 33.7875C51.8918 35.1937 51.5315 36.5625 51.1521 37.9313C54.9076 38.25 56.975 36.6937 56.5387 33.7875ZM56.5387 29.4938C56.975 25.725 55.8749 24.975 52.4039 25.3875C52.4039 26.7562 52.4039 28.125 52.4039 29.4938C53.8075 29.4938 55.1731 29.4938 56.5387 29.4938ZM19.5912 25.3125C18.7946 25.3125 18.0928 25.2938 17.391 25.3125C16.2909 25.3687 15.4184 26.2313 15.3615 27.2812C15.3046 28.3125 16.0254 29.3063 17.0686 29.4563C17.8841 29.5688 18.7376 29.475 19.5912 29.475C19.5912 28.0875 19.5912 26.7375 19.5912 25.3125Z" fill="#7A43EE"/>
</svg>
