<svg width="72" height="72" viewBox="0 0 72 72" fill="none" xmlns="http://www.w3.org/2000/svg">
<g clip-path="url(#clip0_211_1493)">
<path d="M0 45.15C0 31.9313 0 18.7125 0 5.49375C0.0562354 5.2875 0.112471 5.1 0.168706 4.89375C0.618589 3.1125 1.59334 1.725 3.20542 0.8625C3.91773 0.46875 4.72377 0.28125 5.49232 0C25.8308 0 46.1692 0 66.5077 0C66.6389 0.0375 66.7701 0.09375 66.9013 0.13125C69.0758 0.6 70.5941 1.875 71.4939 3.88125C71.7188 4.3875 71.8313 4.95 72 5.475C72 18.6938 72 31.9125 72 45.1312C71.9438 45.3 71.8875 45.4875 71.85 45.675C71.1752 48.5438 68.7196 50.55 65.7954 50.625C64.9331 50.6437 63.9396 51.3562 63.6022 52.1812C63.2648 53.0625 63.4897 53.9062 64.277 54.6375C64.9518 55.2562 65.6454 55.8563 66.3202 56.475C67.3325 57.3938 67.4824 58.2938 66.8076 59.475C65.6641 61.4813 64.502 63.4875 63.3398 65.4937C62.6837 66.6375 61.8027 66.9563 60.5467 66.5625C59.6282 66.2812 58.7285 65.9437 57.8099 65.6812C56.4603 65.2687 55.2981 65.9625 54.9982 67.3313C54.8295 68.0813 54.642 68.8313 54.5483 69.6C54.3983 70.6875 53.9297 71.5312 52.88 72C50.0682 72 47.2564 72 44.4447 72C43.4137 71.625 42.8701 70.9125 42.7201 69.825C42.6077 69 42.3827 68.175 42.1953 67.35C41.8766 65.925 40.7331 65.25 39.346 65.6812C38.4462 65.9625 37.5652 66.2625 36.6842 66.5437C35.4283 66.9375 34.5473 66.6188 33.8912 65.5125C32.7102 63.4875 31.548 61.4625 30.3858 59.4375C29.7298 58.2938 29.8797 57.375 30.8732 56.4937C31.6043 55.8375 32.3541 55.2 33.0664 54.5063C33.7787 53.8313 33.9474 52.9688 33.61 52.125C33.2538 51.3 32.2978 50.6062 31.4731 50.6062C23.169 50.6062 14.8461 50.6062 6.54205 50.6062C3.6553 50.6062 1.23718 48.9 0.374902 46.275C0.206196 45.9 0.112471 45.525 0 45.15ZM66.6201 46.1438C67.4824 45.6562 67.7636 44.9437 67.7636 44.0625C67.7636 31.5563 67.7636 19.0312 67.7636 6.525C67.7636 5.08125 66.9013 4.21875 65.4392 4.21875C45.8131 4.21875 26.1682 4.21875 6.54205 4.21875C5.09867 4.21875 4.2364 5.08125 4.2364 6.54375C4.2364 19.05 4.2364 31.575 4.2364 44.0813C4.2364 45.5438 5.09867 46.3875 6.56079 46.4062C14.3213 46.4062 22.063 46.4062 29.8235 46.425C30.2546 46.425 30.4983 46.2937 30.7045 45.9187C31.7355 44.0812 32.804 42.2625 33.8537 40.4437C34.5285 39.3 35.3908 38.9625 36.6467 39.3562C37.5652 39.6375 38.465 39.9563 39.3835 40.2375C40.7331 40.65 41.8766 39.975 42.1953 38.5875C42.4015 37.65 42.5702 36.7125 42.7951 35.775C43.0575 34.5563 43.8261 33.9187 45.082 33.9187C47.4251 33.9 49.7683 33.9 52.1114 33.9187C53.4048 33.9187 54.1546 34.5563 54.4358 35.8313C54.6233 36.7313 54.8107 37.6125 54.9982 38.5125C55.3168 40.0125 56.4603 40.6875 57.9412 40.2188C58.8409 39.9375 59.7219 39.6375 60.603 39.3562C61.7839 38.9812 62.6649 39.3188 63.3023 40.3688C63.9583 41.4562 64.5769 42.5625 65.2143 43.65C65.6641 44.4562 66.1328 45.2812 66.6201 46.1438ZM50.6118 38.1375C49.7308 38.1375 48.9622 38.1375 48.1937 38.1375C46.6379 38.1375 46.6379 38.1375 46.263 39.675C45.3819 43.2938 41.9141 45.3187 38.3338 44.325C37.8276 44.175 37.3215 44.025 36.7592 43.8375C36.1031 45 35.447 46.125 34.7722 47.3063C36.6842 48.7687 37.9776 50.5313 37.9589 53.0063C37.9589 55.4625 36.628 57.225 34.8097 58.6125C34.8659 58.7438 34.8659 58.8 34.8847 58.8375C35.2596 59.5125 35.6532 60.1688 36.0469 60.8438C36.7592 62.0812 36.7592 62.0812 38.1276 61.65C41.8016 60.525 45.3819 62.5875 46.2817 66.3188C46.3942 66.7875 46.5066 67.2562 46.6004 67.7437C47.95 67.7437 49.2434 67.7437 50.5743 67.7437C50.6868 67.2188 50.7805 66.7125 50.9117 66.2063C51.5303 63.6562 53.5173 61.8375 56.1041 61.4062C57.435 61.1813 58.6535 61.5 59.8907 61.9125C60.2093 62.025 60.4343 62.1 60.6405 61.725C61.2028 60.6938 61.8027 59.7 62.4212 58.6313C60.5467 57.1875 59.2346 55.425 59.2346 52.9688C59.2346 50.5125 60.528 48.7313 62.44 47.3063C61.7464 46.125 61.1091 44.9813 60.4155 43.8187C58.2223 44.7188 56.0666 44.9812 53.9484 43.7625C51.8115 42.525 50.893 40.5562 50.6118 38.1375ZM19.12 42.3187C16.402 42.3187 13.6839 42.3187 10.9659 42.3187C9.41005 42.3187 8.54777 41.475 8.58526 39.9375C8.6415 37.8563 8.49154 35.7375 8.88519 33.7125C9.84119 28.65 14.4712 25.2375 19.6824 25.4437C24.6311 25.65 28.9425 29.5313 29.5236 34.5188C29.7485 36.4688 29.6735 38.4562 29.636 40.4062C29.6173 41.5312 28.6425 42.3 27.4241 42.3C24.6498 42.3375 21.8943 42.3187 19.12 42.3187ZM12.6717 38.0625C17.0581 38.0625 21.2382 38.0625 25.4371 38.0625C25.4371 37.275 25.4559 36.525 25.4371 35.775C25.3434 32.6437 22.944 30.075 19.7761 29.7C16.8144 29.3437 13.8526 31.275 13.0841 34.2C12.7842 35.4187 12.8029 36.7313 12.6717 38.0625ZM19.12 8.71875C23.6938 8.71875 27.4241 12.4688 27.4054 17.0625C27.3866 21.6 23.6563 25.3125 19.1013 25.3125C14.5275 25.3125 10.7972 21.5625 10.8159 16.9688C10.8347 12.4312 14.5837 8.71875 19.12 8.71875ZM23.1877 17.025C23.1877 14.7938 21.3694 12.9563 19.1388 12.9375C16.9081 12.9187 15.0523 14.7375 15.0336 16.9688C15.0148 19.2375 16.8519 21.0938 19.12 21.0938C21.3507 21.0938 23.1877 19.2563 23.1877 17.025ZM61.0716 12.8063C62.0276 12.8063 62.7587 12.4688 63.1898 11.5875C63.8834 10.1625 62.8524 8.5875 61.1841 8.5875C56.7602 8.56875 52.3364 8.5875 47.9125 8.5875C43.9948 8.5875 40.0958 8.5875 36.1781 8.5875C35.2596 8.5875 34.5285 8.94375 34.1161 9.76875C33.3851 11.2125 34.4348 12.7875 36.1406 12.8063C40.302 12.825 44.4822 12.8063 48.6436 12.8063C52.7863 12.7875 56.9289 12.7875 61.0716 12.8063ZM61.0716 21.2438C62.0651 21.2438 62.8149 20.8687 63.2085 19.95C63.8459 18.525 62.7962 17.025 61.1466 17.025C56.4041 17.0063 51.6428 17.025 46.9003 17.025C43.32 17.025 39.7397 17.025 36.1593 17.025C35.2033 17.025 34.4723 17.4 34.0599 18.2812C33.3851 19.725 34.4535 21.2438 36.1406 21.2438C40.302 21.2625 44.4822 21.2438 48.6436 21.2438C52.7863 21.225 56.9289 21.225 61.0716 21.2438ZM44.201 29.6625C45.5694 29.6625 46.5066 28.8 46.5254 27.5625C46.5441 26.325 45.5881 25.4437 44.2385 25.4437C41.5579 25.4437 38.8586 25.4437 36.1781 25.4437C34.8284 25.4437 33.8724 26.3438 33.8912 27.5625C33.9099 28.7625 34.8472 29.6438 36.1406 29.6438C37.4902 29.6625 38.8586 29.6438 40.2083 29.6438C41.5392 29.6625 42.8701 29.6812 44.201 29.6625ZM61.2028 29.6625C62.4587 29.6437 63.3772 28.7625 63.396 27.5813C63.4147 26.3813 62.4775 25.4625 61.1841 25.4437C58.4473 25.425 55.7105 25.425 52.9737 25.4437C51.6803 25.4437 50.743 26.3625 50.743 27.5625C50.743 28.7625 51.6803 29.6437 52.9925 29.6625C54.3421 29.6812 55.7105 29.6625 57.0601 29.6625C58.4473 29.6625 59.8344 29.6812 61.2028 29.6625ZM42.2515 52.95C42.2515 49.4437 45.1008 46.6313 48.6061 46.65C52.0927 46.6688 54.8857 49.5 54.8857 52.9688C54.867 56.475 51.9802 59.3438 48.5124 59.2875C45.0445 59.25 42.2515 56.4187 42.2515 52.95ZM48.6061 50.8687C47.4439 50.85 46.4879 51.7687 46.4879 52.9312C46.4691 54.075 47.4064 55.05 48.5499 55.0688C49.6933 55.0875 50.6681 54.1313 50.6681 52.9875C50.6868 51.8438 49.7683 50.8875 48.6061 50.8687Z" fill="#7A43EE"/>
</g>
<defs>
<clipPath id="clip0_211_1493">
<rect width="72" height="72" fill="white"/>
</clipPath>
</defs>
</svg>
