<svg width="170" height="157" viewBox="0 0 170 157" fill="none" xmlns="http://www.w3.org/2000/svg">
<path d="M131.197 17.8243L59.9293 5.34112C54.9945 4.45264 50.1376 4.75079 45.4963 6.02832C40.917 7.25745 36.5532 9.46596 32.66 12.405C28.8219 15.3509 25.3922 19.0758 22.6811 23.3376C19.9563 27.7098 17.9016 32.5569 16.7379 37.9062L7.13296 81.729C5.97602 87.0231 5.77124 92.3224 6.43544 97.3926C7.09963 102.463 8.6396 107.248 10.8481 111.612C13.1118 115.983 16.1129 119.828 19.7062 122.961C23.3546 126.101 27.5952 128.529 32.4136 129.908L101.569 149.977C106.982 151.541 112.488 151.883 117.738 151.129C123.042 150.382 128.152 148.489 132.707 145.632C137.318 142.781 141.376 138.966 144.687 134.386C148.004 129.75 150.458 124.392 151.814 118.394L162.962 68.8759C164.317 62.8777 164.438 56.8954 163.456 51.2255C162.466 45.6109 160.429 40.3154 157.468 35.6908C154.562 31.073 150.733 27.126 146.291 24.0564C141.856 20.9315 136.788 18.8496 131.197 17.8243Z" fill="url(#paint0_linear_211_1457)"/>
<path d="M52.6799 90.5374C52.2451 90.4277 51.8238 90.2076 51.4646 89.9392C51.1053 89.6707 50.8149 89.2986 50.5865 88.8781C50.3581 88.4576 50.1917 87.9887 50.1357 87.5335C50.0865 87.023 50.0925 86.5193 50.209 86.0292C50.3254 85.5391 50.5523 85.0626 50.7724 84.6414C51.0477 84.2269 51.3713 83.8745 51.7366 83.6393C52.1087 83.3488 52.5224 83.1756 52.9845 83.0644C53.4466 82.9533 53.895 82.9525 54.3299 83.0621C54.7648 83.1718 55.186 83.3918 55.5453 83.6603C55.9045 83.9288 56.195 84.3009 56.4234 84.7214C56.6518 85.1418 56.8182 85.6107 56.8742 86.066C56.9233 86.5765 56.9173 87.0802 56.8009 87.5703C56.6776 88.1156 56.5128 88.5436 56.2375 88.9581C55.9622 89.3726 55.6385 89.725 55.2732 89.9602C54.908 90.1954 54.4875 90.4239 54.0322 90.4798C53.5633 90.6462 53.1148 90.647 52.6799 90.5374ZM55.3908 78.0925C54.3554 77.8528 53.2929 77.8339 52.2583 78.0427C51.2237 78.2515 50.2723 78.6947 49.4177 79.2619C48.5563 79.8844 47.7917 80.6309 47.1723 81.5634C46.553 82.4959 46.0856 83.5593 45.7703 84.7535C45.5101 85.9545 45.4225 87.1207 45.5624 88.2589C45.7024 89.3971 46.0768 90.4521 46.5684 91.4655C47.0668 92.4237 47.7445 93.2919 48.6082 94.0149C49.4167 94.7311 50.418 95.2469 51.5018 95.5486L51.557 95.5554L51.6122 95.5622L51.6674 95.569L51.7226 95.5758C52.758 95.8155 53.8206 95.8344 54.8 95.6188C55.8346 95.41 56.786 94.9668 57.6406 94.3996C58.502 93.7771 59.3286 92.9822 59.9479 92.0497C60.5673 91.1172 61.0967 90.0054 61.3568 88.8044C61.6721 87.6102 61.7046 86.4372 61.5647 85.299C61.4247 84.1608 61.0571 83.0506 60.5035 82.0855C59.9498 81.1205 59.2722 80.2523 58.4637 79.5362C57.6484 78.8752 56.6538 78.3042 55.6185 78.0645L55.5633 78.0577L55.508 78.0509C55.446 78.0993 55.446 78.0993 55.3908 78.0925ZM101.503 102.776C101.013 102.66 100.591 102.44 100.177 102.164C99.8176 101.896 99.472 101.517 99.2436 101.097C99.0152 100.676 98.8488 100.207 98.7444 99.6899C98.64 99.1726 98.646 98.6689 98.7693 98.1237C98.8925 97.5784 99.0642 97.0951 99.3395 96.6806C99.6148 96.2662 99.9452 95.8585 100.366 95.6301C100.738 95.3397 101.214 95.1181 101.676 95.0069C102.138 94.8957 102.641 94.9017 103.193 94.9698C103.193 94.9698 103.193 94.9698 103.249 94.9766C103.304 94.9834 103.249 94.9766 103.304 94.9834C103.359 94.9902 103.304 94.9834 103.359 94.9902C103.414 94.997 103.359 94.9902 103.414 94.997C103.904 95.1134 104.326 95.3335 104.685 95.602C105.044 95.8705 105.39 96.2493 105.673 96.6766C105.902 97.0971 106.123 97.5728 106.173 98.0833C106.277 98.6006 106.271 99.1043 106.148 99.6496C106.024 100.195 105.853 100.678 105.578 101.093C105.302 101.507 104.917 101.908 104.551 102.143C104.124 102.427 103.703 102.655 103.193 102.704C102.731 102.816 102.227 102.81 101.682 102.686C101.682 102.686 101.682 102.686 101.627 102.679C101.572 102.673 101.627 102.679 101.572 102.673C101.558 102.783 101.558 102.783 101.503 102.776ZM104.447 89.7997C103.246 89.5396 102.073 89.5071 100.983 89.7091C99.8936 89.9111 98.825 90.3959 97.9084 91.0115C96.9918 91.6272 96.1584 92.4773 95.477 93.4582C94.7956 94.4391 94.3215 95.5577 93.9993 96.8071C93.7324 98.0633 93.6931 99.2915 93.8263 100.485C94.0146 101.685 94.3822 102.795 94.9843 103.822C95.5863 104.849 96.3192 105.724 97.2381 106.454C98.157 107.184 99.2136 107.707 100.353 108.015C101.492 108.324 102.665 108.356 103.81 108.161C104.955 107.966 106.016 107.536 106.995 106.872C107.967 106.263 108.8 105.413 109.482 104.432C110.163 103.451 110.699 102.284 110.966 101.028C111.233 99.7719 111.279 98.4885 111.091 97.2883C110.902 96.0881 110.486 94.9158 109.878 93.944C109.276 92.917 108.487 92.0352 107.569 91.3054C106.65 90.5756 105.593 90.053 104.447 89.7997ZM97.9584 71.9613C97.4683 71.8449 96.9783 71.7284 96.4882 71.612C95.9981 71.4955 95.508 71.3791 95.0179 71.2626C94.5279 71.1462 94.0378 71.0297 93.5477 70.9133C93.0576 70.7968 92.5675 70.6804 92.0775 70.5639C91.6978 70.4611 91.3801 70.3098 91.0693 70.1034C90.7585 69.8969 90.5164 69.5868 90.3296 69.2836C90.1428 68.9803 89.9628 68.6218 89.9 68.2217C89.782 67.8149 89.7744 67.4216 89.8221 67.0351C89.8621 66.2554 89.9642 65.4272 90.0043 64.6475C90.0443 63.8678 90.1464 63.0396 90.1864 62.2599C90.2265 61.4802 90.3286 60.652 90.4238 59.8791C90.5191 59.1062 90.566 58.2712 90.6612 57.4983C90.668 57.4431 90.6748 57.3879 90.6817 57.3326C90.6885 57.2774 90.6953 57.2222 90.7021 57.167C90.7089 57.1118 90.7157 57.0566 90.7225 57.0014C90.7293 56.9462 90.7361 56.891 90.7497 56.7806C91.0257 56.8146 91.295 56.9038 91.571 56.9378C91.8471 56.9719 92.1163 57.0611 92.3924 57.0951C92.6684 57.1291 92.9377 57.2184 93.2137 57.2524C93.4898 57.2864 93.759 57.3756 94.035 57.4097C94.2007 57.4301 94.3595 57.5057 94.5251 57.5261C94.6908 57.5465 94.8496 57.6222 95.0152 57.6426C95.1808 57.663 95.3397 57.7386 95.5053 57.759C95.6709 57.7794 95.8297 57.8551 95.9954 57.8755C96.6511 58.0123 97.1828 58.246 97.7628 58.5417C98.2877 58.8306 98.8058 59.1747 99.2618 59.5672C99.7179 59.9597 100.112 60.4006 100.499 60.8967C100.886 61.3928 101.15 61.9857 101.468 62.5855C101.814 63.4128 102.161 64.2402 102.507 65.0676C102.854 65.895 103.2 66.7223 103.54 67.6049C103.886 68.4323 104.226 69.3149 104.572 70.1422C104.919 70.9696 105.258 71.8522 105.605 72.6795C105.653 72.7416 105.646 72.7968 105.695 72.8588C105.743 72.9208 105.736 72.976 105.778 73.0932C105.826 73.1552 105.813 73.2657 105.861 73.3277C105.903 73.4449 105.951 73.5069 105.993 73.6241C105.282 73.4805 104.626 73.3436 103.922 73.1447C103.266 73.0078 102.555 72.8642 101.906 72.6721C101.251 72.5352 100.54 72.3916 99.8907 72.1995C99.325 72.2419 98.6693 72.105 97.9584 71.9613ZM93.1424 51.919C92.7076 51.8094 92.2107 51.7481 91.7758 51.6385C91.3409 51.5288 90.8441 51.4676 90.4092 51.358C89.9743 51.2483 89.4774 51.1871 89.0426 51.0774C88.6077 50.9678 88.1108 50.9065 87.6759 50.7969C86.3645 50.5232 85.1083 50.2562 83.7969 49.9825C82.5407 49.7156 81.2293 49.4418 79.9731 49.1749C78.7169 48.908 77.4054 48.6342 76.1492 48.3673C74.893 48.1004 73.6368 47.8335 72.3806 47.5665C70.6895 47.19 68.9364 46.8618 67.2454 46.4852C65.5543 46.1086 63.8564 45.7873 62.1653 45.4107C60.4742 45.0341 58.7764 44.7127 57.1405 44.343C55.4494 43.9664 53.8067 43.6518 52.1157 43.2753C52.1157 43.2753 52.1157 43.2753 52.0604 43.2685C52.0052 43.2617 52.0604 43.2685 52.0052 43.2617C52.0052 43.2617 52.0052 43.2617 51.95 43.2549C51.8948 43.2481 51.95 43.2549 51.8948 43.2481C51.8396 43.2412 51.7292 43.2276 51.674 43.2208C51.6188 43.214 51.5084 43.2004 51.4531 43.1936C51.3979 43.1868 51.2875 43.1732 51.2323 43.1664C51.1771 43.1596 51.0667 43.146 51.0115 43.1392C50.6734 43.1536 50.3906 43.1747 50.0941 43.3063C49.7976 43.438 49.5564 43.5764 49.3635 43.7768C49.1707 43.9772 48.971 44.2328 48.8198 44.5505C48.6685 44.8681 48.5725 45.1926 48.5317 45.5238C48.4976 45.7999 48.5188 46.0827 48.54 46.3656C48.568 46.5932 48.6512 46.8277 48.7896 47.0689C48.9348 47.255 49.08 47.441 49.2253 47.6271C49.3705 47.8131 49.5777 47.9507 49.7849 48.0884C49.7781 48.1436 49.7781 48.1436 49.7713 48.1988C49.7645 48.254 49.7645 48.254 49.7645 48.254L49.7577 48.3092L49.7509 48.3644C49.3252 49.545 48.8994 50.7256 48.4184 51.8994C47.9927 53.08 47.5669 54.2605 47.086 55.4343C46.6602 56.6149 46.2345 57.7955 45.7535 58.9693C45.3278 60.1499 44.902 61.3304 44.4279 62.449C44.263 62.8771 44.0981 63.3051 43.9265 63.7884C43.7616 64.2165 43.5968 64.6445 43.4251 65.1278C43.2602 65.5559 43.0954 65.984 42.9237 66.4672C42.7589 66.8953 42.594 67.3234 42.4224 67.8066C42.169 68.9524 41.9157 70.0982 41.6624 71.244C41.4091 72.3898 41.1558 73.5356 40.9024 74.6814C40.6491 75.8272 40.3958 76.973 40.1425 78.1187C39.8892 79.2645 39.6359 80.4103 39.3825 81.5561C39.4453 81.9562 39.5701 82.3078 39.7017 82.6043C39.8333 82.9008 40.0269 83.1488 40.2274 83.3417C40.4278 83.5345 40.6902 83.679 40.9043 83.7614C41.1735 83.8506 41.4427 83.9399 41.712 84.0291C41.8224 84.0427 41.988 84.0631 42.0917 84.1319C42.2021 84.1455 42.3677 84.166 42.4781 84.1796C42.5885 84.1932 42.7542 84.2136 42.8646 84.2272C42.975 84.2408 43.1406 84.2612 43.2442 84.33C43.6828 82.5906 44.4323 81.0575 45.3133 79.821C46.1943 78.5844 47.269 77.5959 48.3648 76.8902C49.5159 76.1914 50.7501 75.727 51.9572 75.4834C53.2194 75.2467 54.4476 75.2859 55.5934 75.5393C55.5934 75.5393 55.5934 75.5393 55.6486 75.5461C55.7038 75.5529 55.6486 75.5461 55.7038 75.5529C55.7038 75.5529 55.7038 75.5529 55.759 75.5597C55.759 75.5597 55.759 75.5597 55.8143 75.5665C57.0637 75.8886 58.2858 76.4316 59.3636 77.237C60.4413 78.0424 61.3746 79.1103 62.1219 80.3233C62.8691 81.5364 63.4235 82.9499 63.6883 84.4398C63.9462 85.9849 63.9697 87.6132 63.5932 89.3042C65.8779 89.8661 68.1627 90.4279 70.4475 90.9898C72.7323 91.5516 75.017 92.1135 77.357 92.6821C79.697 93.2508 81.9818 93.8126 84.3218 94.3813C86.6617 94.9499 89.0569 95.5254 91.3901 96.1492C91.8287 94.4098 92.5781 92.8767 93.466 91.5849C94.409 90.3 95.5389 89.3183 96.7587 88.5158C98.027 87.7754 99.3785 87.2694 100.758 86.991C102.131 86.7678 103.531 86.7723 104.891 87.1081C104.891 87.1081 104.891 87.1081 104.946 87.1149C104.946 87.1149 104.946 87.1149 105.002 87.1217C105.002 87.1217 105.002 87.1217 105.057 87.1285C105.057 87.1285 105.057 87.1285 105.112 87.1353C106.361 87.4574 107.632 88.0624 108.765 88.8746C109.898 89.6869 110.886 90.7615 111.744 91.9882C112.546 93.2081 113.149 94.6836 113.511 96.2975C113.817 97.9046 113.875 99.7053 113.534 101.569C113.699 101.589 113.803 101.658 113.969 101.678C114.134 101.699 114.238 101.768 114.403 101.788C114.569 101.809 114.673 101.877 114.838 101.898C115.004 101.918 115.108 101.987 115.273 102.007C115.598 102.103 115.929 102.144 116.205 102.178C116.536 102.219 116.819 102.198 117.109 102.122C117.398 102.045 117.695 101.914 117.998 101.727C118.301 101.54 118.563 101.236 118.832 100.877C118.989 100.055 119.208 99.1856 119.365 98.3642C119.523 97.5429 119.742 96.6731 119.899 95.8518C120.057 95.0305 120.269 94.2159 120.433 93.3394C120.59 92.518 120.803 91.7035 120.967 90.827C120.974 90.7718 120.981 90.7165 120.932 90.6545C120.939 90.5993 120.946 90.5441 120.897 90.4821C120.904 90.4269 120.911 90.3717 120.863 90.3097C120.869 90.2545 120.876 90.1993 120.883 90.144C120.93 89.3091 120.859 88.5157 120.796 87.6672C120.726 86.8738 120.545 86.0669 120.357 85.3151C120.17 84.5634 119.872 83.798 119.567 83.0879C119.207 82.3709 118.84 81.7092 118.363 81.0339C117.975 80.5377 117.588 80.0416 117.201 79.5455C116.814 79.0494 116.427 78.5533 115.984 78.0504C115.597 77.5543 115.148 77.1065 114.76 76.6104C114.373 76.1143 113.924 75.6666 113.475 75.2189C113.129 74.84 112.735 74.3991 112.396 73.965C112.057 73.5309 111.718 73.0968 111.435 72.6695C111.151 72.2422 110.874 71.7597 110.598 71.2772C110.321 70.7947 110.106 70.2638 109.946 69.7397C109.655 68.9191 109.309 68.0918 109.017 67.2712C108.671 66.4438 108.373 65.6785 108.027 64.8511C107.68 64.0237 107.327 63.2516 107.036 62.431C106.683 61.6588 106.336 60.8315 105.983 60.0593C105.595 59.1147 105.138 58.2737 104.619 57.4812C104.1 56.6886 103.513 55.9996 102.856 55.4143C102.207 54.7737 101.481 54.292 100.701 53.8035C99.9136 53.3701 99.0642 52.9852 98.1393 52.7591C97.7044 52.6495 97.3247 52.5466 96.8899 52.437C96.455 52.3273 96.0201 52.2177 95.6405 52.1148C95.2056 52.0052 94.7707 51.8955 94.3843 51.8479C94.019 52.0831 93.5773 52.0287 93.1424 51.919Z" fill="url(#paint1_linear_211_1457)"/>
<defs>
<linearGradient id="paint0_linear_211_1457" x1="160.868" y1="87.7577" x2="8.50214" y2="68.978" gradientUnits="userSpaceOnUse">
<stop stop-color="#B565E5"/>
<stop offset="1" stop-color="#7A43EE"/>
</linearGradient>
<linearGradient id="paint1_linear_211_1457" x1="89.0111" y1="44.0722" x2="34.899" y2="96.4118" gradientUnits="userSpaceOnUse">
<stop stop-color="white"/>
<stop offset="1" stop-color="#CDD8F7"/>
</linearGradient>
</defs>
</svg>
