<svg width="117" height="117" viewBox="0 0 117 117" fill="none" xmlns="http://www.w3.org/2000/svg">
<path d="M110.413 65.3309C110.425 65.2011 110.448 64.9414 110.59 64.8232C110.789 64.0558 110.977 63.4183 111.048 62.6392C111.071 62.3796 111.224 62.1315 111.259 61.742C111.471 60.8448 111.564 59.806 111.787 58.779C111.846 58.1297 111.916 57.3507 111.974 56.7015C111.998 56.4418 112.021 56.1821 112.033 56.0522C112.068 55.6627 112.114 55.1433 112.149 54.7538C112.149 54.7538 112.149 54.7538 112.161 54.624C112.173 54.4941 112.184 54.3643 112.196 54.2345C112.255 53.5852 112.183 52.9244 112.23 52.405C112.253 52.1453 112.277 51.8856 112.171 51.6142C112.217 51.0949 112.134 50.5638 112.051 50.0328C112.063 49.9029 112.075 49.7731 112.086 49.6433C112.098 49.5134 112.11 49.3836 112.11 49.3836C112.145 48.994 112.039 48.7227 111.944 48.3215C111.967 48.0618 111.861 47.7904 111.896 47.4009C111.801 46.9997 111.825 46.74 111.73 46.3388C111.754 46.0791 111.636 45.9376 111.659 45.6779L111.671 45.5481C111.493 44.6158 111.197 43.5421 111.02 42.6098C111.032 42.48 111.032 42.48 110.914 42.3385C110.925 42.2086 110.925 42.2086 110.807 42.0671C110.488 41.253 110.311 40.3208 109.992 39.5067C109.992 39.5067 110.004 39.3769 109.874 39.3652C109.886 39.2354 109.756 39.2237 109.768 39.0939C109.449 38.2798 109.13 37.4657 108.681 36.64C108.351 35.9557 107.902 35.13 107.442 34.4341C107.453 34.3042 107.324 34.2926 107.335 34.1628L107.217 34.0212C106.757 33.3253 106.297 32.6294 105.836 31.9335C105.836 31.9335 105.848 31.8037 105.718 31.792C105.482 31.509 105.258 31.0961 104.892 30.8014L95.2752 18.548C95.4995 18.9609 95.8652 19.2556 96.0895 19.6685C96.5498 20.3644 97.0101 21.0603 97.4704 21.7562C97.5884 21.8977 97.7064 22.0392 97.6947 22.1691C98.155 22.865 98.4856 23.5492 98.9342 24.3749C99.2531 25.189 99.7018 26.0147 100.021 26.8288C100.139 26.9703 100.127 27.1002 100.245 27.2417C100.564 28.0557 100.883 28.8698 101.06 29.8021C101.049 29.9319 101.167 30.0734 101.155 30.2033C101.462 31.1472 101.64 32.0794 101.806 33.1415C101.912 33.4129 101.889 33.6725 101.995 33.9439C102.09 34.3451 102.066 34.6048 102.161 35.006C102.267 35.2774 102.244 35.537 102.209 35.9266C102.303 36.3278 102.28 36.5875 102.375 36.9887C102.351 37.2484 102.458 37.5197 102.434 37.7794C102.517 38.3105 102.47 38.8298 102.553 39.3609C102.53 39.6205 102.507 39.8802 102.613 40.1516C102.684 40.8125 102.626 41.4617 102.567 42.1109C102.556 42.2407 102.544 42.3706 102.532 42.5004C102.497 42.8899 102.45 43.4093 102.415 43.7989C102.392 44.0585 102.38 44.1884 102.357 44.4481C102.299 45.0973 102.228 45.8763 102.17 46.5256C102.076 47.5643 101.865 48.4616 101.642 49.4886C101.618 49.7483 101.465 49.9963 101.43 50.3858C101.231 51.1532 101.042 51.7908 100.972 52.5699C100.949 52.8295 100.796 53.0776 100.773 53.3372C100.549 54.3643 100.197 55.3797 99.8437 56.3951C99.6906 56.6431 99.6672 56.9028 99.5025 57.2807C99.3261 57.7884 99.138 58.4259 98.8319 58.922C98.6671 59.2998 98.5141 59.5478 98.479 59.9373C98.3026 60.445 97.9965 60.9411 97.8201 61.4488C97.6553 61.8266 97.5023 62.0746 97.3375 62.4525C97.1611 62.9602 96.855 63.4563 96.5489 63.9523C96.3959 64.2003 96.2311 64.5781 96.0781 64.8261C95.772 65.3222 95.4658 65.8182 95.1597 66.3143C95.0067 66.5623 94.8536 66.8103 94.6889 67.1882C94.2414 67.8024 93.912 68.558 93.4645 69.1722C93.4528 69.3021 93.3114 69.4203 93.2997 69.5501C92.8406 70.2942 92.2517 71.0265 91.7926 71.7706C91.4865 72.2666 91.1921 72.6328 90.7563 73.1172C90.6032 73.3652 90.4619 73.4834 90.3088 73.7314C89.8613 74.3456 89.2842 74.9481 88.8367 75.5623C87.9651 76.531 87.2349 77.3816 86.3633 78.3503C86.2103 78.5983 86.0689 78.7165 85.7862 78.9528C85.056 79.8033 84.2078 80.5124 83.3479 81.3513C83.2065 81.4694 83.0652 81.5876 82.9238 81.7058C82.217 82.2967 81.5101 82.8875 80.8033 83.4784C80.5206 83.7147 80.3792 83.8329 80.0965 84.0692C79.2483 84.7783 78.4117 85.3574 77.5635 86.0665C76.727 86.6457 75.8788 87.3547 74.9126 87.9222C74.6416 88.0287 74.3588 88.265 74.2175 88.3832C73.5223 88.8442 72.8272 89.3053 72.132 89.7663C71.861 89.8728 71.7196 89.9909 71.4486 90.0974C70.4824 90.665 69.5279 91.1027 68.5617 91.6702C68.4203 91.7884 68.1492 91.8948 68.0079 92.013C67.183 92.4624 66.3582 92.9117 65.4154 93.2195C65.1443 93.326 65.003 93.4442 64.7319 93.5507C63.6477 93.9767 62.5519 94.5326 61.4677 94.9586C61.0669 95.0534 60.6545 95.2781 60.2538 95.3729C59.9827 95.4794 59.582 95.5742 59.311 95.6807C58.7689 95.8937 58.2385 95.9769 57.826 96.2016C57.555 96.3081 57.2839 96.4146 57.0246 96.3912C56.7535 96.4977 56.4825 96.6042 56.0934 96.5692C55.5513 96.7822 54.8912 96.8537 54.3492 97.0667C53.9484 97.1615 53.6774 97.268 53.2883 97.233C52.7579 97.3162 52.2158 97.5292 51.6854 97.6123C51.155 97.6955 50.6246 97.7787 50.2239 97.8735C49.9645 97.8502 49.6934 97.9566 49.4341 97.9333C48.6443 97.9931 47.8428 98.1828 47.0531 98.2426C35.4308 99.5527 25.3496 96.8129 17.8597 91.4266C15.4063 89.6351 13.1176 87.4657 11.2414 85.0716L20.8586 97.325C28.3636 106.901 41.2171 112.247 56.6703 110.496C57.4601 110.436 58.2615 110.247 59.0513 110.187C59.3107 110.21 59.5817 110.104 59.8411 110.127C60.2418 110.032 60.6308 110.067 61.0316 109.972C61.1613 109.984 61.3026 109.866 61.4323 109.877C61.9627 109.794 62.4931 109.711 63.0352 109.498C63.436 109.403 63.707 109.297 64.096 109.332C64.6265 109.249 65.2982 109.047 65.8403 108.834C66.1114 108.728 66.3707 108.751 66.5121 108.633L66.6418 108.645C66.9128 108.538 67.1839 108.432 67.4432 108.455C67.9853 108.242 68.5158 108.159 68.9282 107.934C69.1992 107.828 69.4703 107.721 69.871 107.626C70.142 107.52 70.5428 107.425 70.8138 107.318C70.9435 107.33 70.9552 107.2 71.0849 107.212C72.1691 106.786 73.2533 106.36 74.3491 105.804C74.4788 105.816 74.4905 105.686 74.6202 105.698C74.7616 105.579 74.8912 105.591 75.0326 105.473C75.8574 105.024 76.8003 104.716 77.6251 104.266C77.7665 104.148 77.8961 104.16 78.0375 104.042L78.1789 103.924C79.1334 103.486 80.0996 102.918 80.9361 102.339L81.0775 102.221C81.2188 102.103 81.3602 101.985 81.4899 101.996C82.185 101.535 82.8802 101.074 83.5753 100.613C83.7167 100.495 83.8581 100.377 83.9877 100.389C84.1291 100.27 84.1291 100.27 84.2705 100.152C85.107 99.5731 86.0732 99.0056 86.9214 98.2965C87.7579 97.7173 88.6061 97.0083 89.4543 96.2993C89.5957 96.1811 89.5957 96.1811 89.737 96.0629C89.8784 95.9448 90.0198 95.8266 90.1611 95.7084C90.868 95.1175 91.5748 94.5267 92.2816 93.9358C92.423 93.8176 92.5644 93.6995 92.5644 93.6995C92.5644 93.6995 92.5761 93.5696 92.7058 93.5813C93.554 92.8723 94.2842 92.0217 95.144 91.1829C95.2854 91.0647 95.2854 91.0647 95.4268 90.9465C95.5682 90.8283 95.5798 90.6985 95.7212 90.5803C96.5811 89.7415 97.4527 88.7727 98.1946 87.7924C98.7717 87.1898 99.2192 86.5756 99.6667 85.9614C99.8197 85.7134 99.9611 85.5952 100.114 85.3472C100.409 84.981 100.715 84.485 101.009 84.1188C101.009 84.1188 101.021 83.989 101.15 84.0006C101.739 83.2683 102.198 82.5242 102.658 81.7801C102.669 81.6503 102.811 81.5321 102.822 81.4023C103.27 80.7881 103.729 80.0441 104.047 79.4182C104.058 79.2883 104.188 79.3 104.2 79.1702C104.353 78.9222 104.365 78.7923 104.518 78.5443C104.824 78.0483 105.13 77.5522 105.436 77.0562C105.589 76.8082 105.754 76.4303 105.907 76.1823C106.213 75.6863 106.389 75.1786 106.695 74.6826C106.86 74.3047 107.013 74.0567 107.178 73.6788C107.354 73.1711 107.66 72.6751 107.837 72.1674C108.002 71.7895 108.155 71.5415 108.19 71.152C108.366 70.6443 108.543 70.1366 108.86 69.5107C108.884 69.251 109.037 69.003 109.048 68.8732L109.06 68.7433C109.413 67.7279 109.766 66.7125 109.989 65.6854C110.39 65.5906 110.401 65.4608 110.413 65.3309Z" fill="#FB7354"/>
<path d="M59.5473 5.90835C32.4952 8.7095 7.92298 31.8916 4.45377 57.3657C1.11424 82.8514 20.1198 101.186 47.1836 98.2545C74.1177 95.3119 98.8079 72.2713 102.147 46.7855C105.628 21.1816 86.4814 2.96569 59.5473 5.90835Z" fill="#F8BA55"/>
<path d="M58.0694 16.5086C37.3355 18.8312 18.3584 36.4958 15.6744 56.1502C12.9904 75.8047 27.8077 89.835 48.5299 87.6422C69.2638 85.3196 88.2409 67.6551 90.7952 47.9889C93.4792 28.3345 78.8033 14.186 58.0694 16.5086Z" fill="url(#paint0_linear_211_1452)"/>
<defs>
<linearGradient id="paint0_linear_211_1452" x1="39.1312" y1="38.8942" x2="122.017" y2="104.046" gradientUnits="userSpaceOnUse">
<stop stop-color="#FB7354"/>
<stop offset="1" stop-color="#F8BA55"/>
</linearGradient>
</defs>
</svg>
