<svg width="27" height="27" viewBox="0 0 27 27" fill="none" xmlns="http://www.w3.org/2000/svg">
<path d="M17.4938 14.625C18.3375 14.625 19.08 14.1638 19.4625 13.4663L23.49 6.165C23.5848 5.99448 23.6335 5.80216 23.6311 5.60706C23.6288 5.41197 23.5755 5.22087 23.4767 5.05267C23.3778 4.88447 23.2367 4.745 23.0674 4.64807C22.8981 4.55114 22.7064 4.5001 22.5113 4.5H5.86125L4.80375 2.25H1.125V4.5H3.375L7.425 13.0388L5.90625 15.7837C5.085 17.2912 6.165 19.125 7.875 19.125H21.375V16.875H7.875L9.1125 14.625H17.4938ZM6.93 6.75H20.5987L17.4938 12.375H9.59625L6.93 6.75ZM7.875 20.25C6.6375 20.25 5.63625 21.2625 5.63625 22.5C5.63625 23.7375 6.6375 24.75 7.875 24.75C9.1125 24.75 10.125 23.7375 10.125 22.5C10.125 21.2625 9.1125 20.25 7.875 20.25ZM19.125 20.25C17.8875 20.25 16.8863 21.2625 16.8863 22.5C16.8863 23.7375 17.8875 24.75 19.125 24.75C20.3625 24.75 21.375 23.7375 21.375 22.5C21.375 21.2625 20.3625 20.25 19.125 20.25Z" fill="black"/>
</svg>
