<svg width="24" height="24" viewBox="0 0 24 24" fill="none" xmlns="http://www.w3.org/2000/svg">
<path d="M19.7539 7.4375L16.5008 10.925C16.1277 11.325 16.3842 12 16.9089 12H18.996C18.996 16.1375 15.8595 19.5 12 19.5C11.0789 19.5 10.181 19.3125 9.37648 18.95C8.95672 18.7625 8.47866 18.9 8.16384 19.2375C7.56917 19.875 7.77906 20.95 8.56028 21.2875C9.62135 21.75 10.7874 22 12 22C17.1538 22 21.3281 17.525 21.3281 12H23.4152C23.9399 12 24.1964 11.325 23.8233 10.9375L20.5702 7.45C20.3486 7.2 19.9755 7.2 19.7539 7.4375ZM5.00396 12C5.00396 7.8625 8.14052 4.5 12 4.5C12.9211 4.5 13.819 4.6875 14.6235 5.05C15.0433 5.2375 15.5213 5.1 15.8362 4.7625C16.4308 4.125 16.2209 3.05 15.4397 2.7125C14.3787 2.25 13.2126 2 12 2C6.84625 2 2.67195 6.475 2.67195 12H0.584793C0.0600895 12 -0.196432 12.675 0.17669 13.0625L3.42985 16.55C3.66305 16.8 4.02451 16.8 4.25771 16.55L7.51087 13.0625C7.87234 12.675 7.61581 12 7.09111 12H5.00396Z" fill="#CDD8F7"/>
</svg>
