<svg width="24" height="24" viewBox="0 0 24 24" fill="none" xmlns="http://www.w3.org/2000/svg">
<g clip-path="url(#clip0_2_184)">
<path d="M21.6 0H2.4C1.2 0 0 1.08 0 2.4V6.012C0 6.876 0.516 7.62 1.2 8.04V21.6C1.2 22.92 2.52 24 3.6 24H20.4C21.48 24 22.8 22.92 22.8 21.6V8.04C23.484 7.62 24 6.876 24 6.012V2.4C24 1.08 22.8 0 21.6 0ZM20.4 21.6H3.6V8.4H20.4V21.6ZM21.6 6H2.4V2.4H21.6V6Z" fill="#CDD8F7"/>
<path d="M15.6 12H8.4V14.4H15.6V12Z" fill="#CDD8F7"/>
</g>
<defs>
<clipPath id="clip0_2_184">
<rect width="24" height="24" fill="white"/>
</clipPath>
</defs>
</svg>
