<svg width="89" height="16" viewBox="0 0 89 16" fill="none" xmlns="http://www.w3.org/2000/svg">
<path d="M70 7C69.4477 7 69 7.44772 69 8C69 8.55228 69.4477 9 70 9V7ZM88.7071 8.70711C89.0976 8.31658 89.0976 7.68342 88.7071 7.29289L82.3431 0.928932C81.9526 0.538408 81.3195 0.538408 80.9289 0.928932C80.5384 1.31946 80.5384 1.95262 80.9289 2.34315L86.5858 8L80.9289 13.6569C80.5384 14.0474 80.5384 14.6805 80.9289 15.0711C81.3195 15.4616 81.9526 15.4616 82.3431 15.0711L88.7071 8.70711ZM70 9L88 9V7L70 7V9Z" fill="#31225C"/>
<path d="M1 8H70" stroke="#31225C" stroke-width="2" stroke-linecap="round"/>
</svg>
