<svg width="24" height="24" viewBox="0 0 24 24" fill="none" xmlns="http://www.w3.org/2000/svg">
<path d="M20.4804 3.51562C15.7938 -1.17188 8.20777 -1.17188 3.51494 3.51562C-1.17165 8.20312 -1.17165 15.7906 3.51494 20.4844C8.20152 25.1719 15.7875 25.1719 20.4804 20.4844C25.1732 15.7906 25.1732 8.20312 20.4804 3.51562ZM12.0008 22.0219C6.47061 22.0219 1.97774 17.5219 1.97774 11.9969C1.97774 6.47187 6.47061 1.97188 12.0008 1.97188C17.531 1.97188 22.0238 6.47187 22.0238 11.9969C22.0238 17.5219 17.531 22.0219 12.0008 22.0219Z" fill="white"/>
<path d="M15.5626 11.4842C16.0125 10.7279 15.9875 10.1092 15.9875 9.55918C15.9875 8.24668 15.1502 7.12168 13.9879 6.69668V5.49043C13.9879 4.94668 13.5442 4.50293 13.0006 4.50293C12.4569 4.50293 12.0133 4.94668 12.0133 5.49043V6.50918H10.9822V5.49043C10.9822 4.94668 10.5386 4.50293 9.99492 4.50293C9.45128 4.50293 9.00762 4.94668 9.00762 5.49043V6.50918C8.42023 6.50918 8.00781 6.97168 8.00781 7.49668V16.5092C8.00781 17.0342 8.42023 17.4967 9.00762 17.4967V18.5154C9.00762 19.0592 9.45128 19.5029 9.99492 19.5029C10.5386 19.5029 10.9822 19.0592 10.9822 18.5154V17.4967H12.0133V18.5154C12.0133 19.0592 12.4569 19.5029 13.0006 19.5029C13.5442 19.5029 13.9879 19.0592 13.9879 18.5154V17.4967C15.6501 17.4717 16.9936 16.1154 16.9936 14.4467V14.0717C16.9873 12.9779 16.4187 12.0217 15.5626 11.4842ZM14.0191 9.93418C14.0191 10.5279 13.538 11.0154 12.9381 11.0154H9.98243V8.48418H12.9381C13.5317 8.48418 14.0191 8.97168 14.0191 9.56543V9.93418ZM15.0189 14.4342C15.0189 15.0279 14.5378 15.5154 13.9379 15.5154H9.98243V12.9842H13.9379C14.5315 12.9842 15.0189 13.4717 15.0189 14.0654V14.4342Z" fill="white"/>
</svg>
