<svg width="24" height="24" viewBox="0 0 24 24" fill="none" xmlns="http://www.w3.org/2000/svg">
<path fill-rule="evenodd" clip-rule="evenodd" d="M24 11.6008C24 5.39442 17.4915 1.3756 11.9999 4.03302C6.50261 1.37563 0 5.39436 0 11.6008C0 17.8072 6.50269 21.8259 12 19.1684C17.4973 21.8259 24 17.8072 24 11.6008ZM2.26208 11.6008C2.26208 7.61733 5.9904 4.75091 9.7465 5.62546C6.41601 8.90812 6.41561 14.2989 9.74656 17.5769C5.99105 18.4558 2.26208 15.5849 2.26208 11.6008ZM9.51208 11.6068C9.51208 8.2243 12.2578 5.47934 15.625 5.47934C18.9978 5.47934 21.7379 8.22987 21.7379 11.6068C21.7379 14.9835 18.992 17.7343 15.625 17.7343C12.2522 17.7343 9.51208 14.9837 9.51208 11.6068Z" fill="white"/>
</svg>
