<svg width="1040" height="597" viewBox="0 0 1040 597" fill="none" xmlns="http://www.w3.org/2000/svg">
<g clip-path="url(#clip0_31_482)">
<path d="M1284 979.288C1213.29 1180.83 907.661 1023.52 843.342 1187.51C704.06 1542.62 162.552 1292.66 -60.7407 776.045C-284.033 259.429 -76.1579 37.1316 -16.266 10.9141C44.1048 -15.5132 190.336 4.18958 280.621 202.005C329.616 309.352 334.245 556.114 458.459 519.937C895 392.793 1367.5 741.288 1284 979.288Z" fill="url(#paint0_linear_31_482)"/>
<path d="M1284 979.288C1213.29 1180.83 907.661 1023.52 843.342 1187.51C704.06 1542.62 162.552 1292.66 -60.7407 776.045C-284.033 259.429 -76.1579 37.1316 -16.266 10.9141C44.1048 -15.5132 190.336 4.18958 280.621 202.005C329.616 309.352 334.245 556.114 458.459 519.937C895 392.793 1367.5 741.288 1284 979.288Z" fill="url(#paint1_radial_31_482)"/>
<path d="M309.572 214.38C175.126 199.502 -22.5083 595.311 -102.988 802.475C-79.4429 1286.43 362.541 1103.11 456.443 1061.58C550.345 1020.04 551.35 757.506 539.009 588.149C526.667 418.791 445.089 229.376 309.572 214.38Z" fill="url(#paint2_linear_31_482)"/>
</g>
<defs>
<linearGradient id="paint0_linear_31_482" x1="623.394" y1="106.634" x2="309.552" y2="481.884" gradientUnits="userSpaceOnUse">
<stop stop-color="#CDD8F7"/>
<stop offset="1" stop-color="#CDD8F7" stop-opacity="0"/>
</linearGradient>
<radialGradient id="paint1_radial_31_482" cx="0" cy="0" r="1" gradientUnits="userSpaceOnUse" gradientTransform="translate(1085.5 655.293) rotate(113.969) scale(459.089 549.563)">
<stop stop-color="white"/>
<stop offset="1" stop-color="white" stop-opacity="0"/>
</radialGradient>
<linearGradient id="paint2_linear_31_482" x1="288.58" y1="159.875" x2="299.656" y2="532.886" gradientUnits="userSpaceOnUse">
<stop stop-color="#E8F0FF"/>
<stop offset="1" stop-color="#E8F0FF" stop-opacity="0"/>
</linearGradient>
<clipPath id="clip0_31_482">
<rect width="1040" height="597" fill="white"/>
</clipPath>
</defs>
</svg>
