<svg width="209" height="98" viewBox="0 0 209 98" fill="none" xmlns="http://www.w3.org/2000/svg">
<path d="M208.783 17.0435L108.652 25.5652L108.652 98L208.783 83.087L208.783 17.0435Z" fill="url(#paint0_linear_1248_197)"/>
<path d="M-7.64472e-05 72.4348L108.652 98L108.652 25.5652L-7.62939e-05 8.52173L-7.64472e-05 72.4348Z" fill="url(#paint1_linear_1248_197)"/>
<path d="M37.7086 36.4304L65.4043 43.0348L65.4043 19.1739L37.7086 14.913L37.7086 36.4304Z" fill="#FB7354"/>
<path d="M100.13 -3.80514e-08L-1.52792e-05 8.52174L108.652 25.5652L208.783 17.0435L100.13 -3.80514e-08Z" fill="url(#paint2_linear_1248_197)"/>
<path d="M137.839 6.3913L37.7088 14.913L65.4044 19.1739L167.665 10.6522L137.839 6.3913Z" fill="#F8BA55"/>
<defs>
<linearGradient id="paint0_linear_1248_197" x1="252.691" y1="39.3997" x2="77.8183" y2="72.236" gradientUnits="userSpaceOnUse">
<stop stop-color="#F8BA55"/>
<stop offset="1" stop-color="#FB7354"/>
</linearGradient>
<linearGradient id="paint1_linear_1248_197" x1="133.564" y1="8.52173" x2="14.4366" y2="63.836" gradientUnits="userSpaceOnUse">
<stop stop-color="#F8BA55"/>
<stop offset="1" stop-color="#FB7354"/>
</linearGradient>
<linearGradient id="paint2_linear_1248_197" x1="117.122" y1="-21.2457" x2="104.391" y2="36.769" gradientUnits="userSpaceOnUse">
<stop stop-color="#E8F0FF"/>
<stop offset="1" stop-color="#F8BA55"/>
</linearGradient>
</defs>
</svg>
