<svg width="345" height="269" viewBox="0 0 345 269" fill="none" xmlns="http://www.w3.org/2000/svg">
<g filter="url(#filter0_i_1248_237)">
<path d="M310.539 130.295C278.267 121.508 223.706 98.5817 221.35 96.5846C212.722 89.1953 199.062 61.4358 187.239 54.0865C175.417 46.6973 152.21 28.8833 144.661 20.4556C135.435 10.1906 126.049 -1.87183 122.014 0.245085C117.022 2.88124 116.822 13.2661 121.575 22.4926C125.689 30.441 139.469 47.1766 135.155 47.8956C130.842 48.6145 89.5817 26.2472 79.5564 22.1332C63.5397 15.5428 36.9785 1.1238 31.7062 8.11361C26.3939 15.1434 32.7846 22.8521 46.4447 31.2399C57.6283 38.1099 101.964 60.8766 102.842 65.7096C103.721 70.5026 100.007 68.3457 97.6899 67.467C95.3333 66.5484 59.7453 52.5688 47.2834 49.3335C34.8216 46.1381 8.7796 37.1912 3.38746 42.7431C-0.486886 46.6973 -0.846362 53.7271 11.1761 57.881C23.1986 62.035 58.1476 76.6936 69.9704 80.2883C78.7575 82.9644 90.6202 86.8787 88.7829 90.9128C87.9042 92.87 19.6837 74.9761 9.85803 74.4568C4.30613 74.1772 -2.6038 82.5251 10.8965 89.9542C24.3968 97.3834 108.035 119.271 98.9281 122.227C89.8214 125.183 53.6741 111.163 46.3648 113.839C39.0554 116.515 36.8986 122.267 55.0321 131.214C73.1657 140.161 128.365 163.407 144.222 165.883C160.079 168.36 189.476 166.523 211.324 173.792C215.199 175.07 229.138 182.699 236.088 187.372L311.858 234.903L310.539 130.295Z" fill="url(#paint0_linear_1248_237)"/>
</g>
<path d="M355.835 123.144V268.373C318.01 248.762 270.119 221.083 251.666 216.889C231.335 212.256 220.791 196.878 230.337 186.414C254.342 160.132 259.973 124.544 262.61 107.089C264.207 96.5845 277.308 96.5046 298.877 106.81C303.35 108.966 347.048 120.268 355.835 123.144Z" fill="url(#paint1_linear_1248_237)"/>
<defs>
<filter id="filter0_i_1248_237" x="0.979248" y="-5.99905" width="310.878" height="240.902" filterUnits="userSpaceOnUse" color-interpolation-filters="sRGB">
<feFlood flood-opacity="0" result="BackgroundImageFix"/>
<feBlend mode="normal" in="SourceGraphic" in2="BackgroundImageFix" result="shape"/>
<feColorMatrix in="SourceAlpha" type="matrix" values="0 0 0 0 0 0 0 0 0 0 0 0 0 0 0 0 0 0 127 0" result="hardAlpha"/>
<feOffset dy="-6"/>
<feGaussianBlur stdDeviation="6"/>
<feComposite in2="hardAlpha" operator="arithmetic" k2="-1" k3="1"/>
<feColorMatrix type="matrix" values="0 0 0 0 0.803922 0 0 0 0 0.847059 0 0 0 0 0.968627 0 0 0 1 0"/>
<feBlend mode="normal" in2="shape" result="effect1_innerShadow_1248_237"/>
</filter>
<linearGradient id="paint0_linear_1248_237" x1="232" y1="178.5" x2="116.5" y2="26.5" gradientUnits="userSpaceOnUse">
<stop stop-color="#E8F0FF"/>
<stop offset="1" stop-color="white"/>
</linearGradient>
<linearGradient id="paint1_linear_1248_237" x1="275.391" y1="99.1452" x2="275" y2="205.5" gradientUnits="userSpaceOnUse">
<stop stop-color="#E8F0FF"/>
<stop offset="1" stop-color="#CDD8F7"/>
</linearGradient>
</defs>
</svg>
