<svg width="109" height="148" viewBox="0 0 109 148" fill="none" xmlns="http://www.w3.org/2000/svg">
<path d="M48.951 84.39L48.8642 84.3972C48.7775 84.4043 48.6907 84.4115 48.5133 84.3416C48.3398 84.3559 48.1623 84.2861 47.902 84.3075C47.8153 84.3146 47.7285 84.3218 47.6379 84.2448C47.4643 84.2591 47.3737 84.1821 47.2001 84.1964C47.1134 84.2035 47.0266 84.2106 46.936 84.1337C46.8492 84.1408 46.7585 84.0639 46.6718 84.071C46.4982 84.0853 46.4076 84.0083 46.2341 84.0226C46.1473 84.0297 46.0605 84.0369 45.9699 83.9599C45.8831 83.967 45.7925 83.8901 45.7057 83.8972C45.5283 83.8274 45.4415 83.8345 45.2641 83.7647C45.1773 83.7718 45.1773 83.7718 45.0867 83.6949C44.9999 83.702 44.8225 83.6322 44.7319 83.5552C44.5545 83.4854 44.4677 83.4925 44.2903 83.4227C44.2035 83.4299 44.2035 83.4299 44.1128 83.3529C44.0222 83.2759 43.8487 83.2902 43.758 83.2132C43.5806 83.1434 43.49 83.0665 43.3164 83.0807C43.3164 83.0807 43.2297 83.0879 43.2258 83.0038C43.1351 82.9268 42.9616 82.9411 42.871 82.8641C42.6935 82.7943 42.6029 82.7173 42.4255 82.6475C42.4255 82.6475 42.3387 82.6546 42.3348 82.5705C42.2442 82.4936 42.1574 82.5007 42.0668 82.4237C41.8894 82.3539 41.7119 82.2841 41.5306 82.1302C41.4439 82.1373 41.44 82.0532 41.3532 82.0603C41.2626 81.9834 41.1758 81.9905 41.0852 81.9136C40.9077 81.8437 40.7264 81.6898 40.549 81.62C40.4623 81.6271 40.4584 81.543 40.3716 81.5502C40.2848 81.5573 40.281 81.4732 40.1903 81.3962C40.009 81.2423 39.741 81.0955 39.5635 81.0257C39.4729 80.9487 39.3862 80.9559 39.3823 80.8718L39.2916 80.7948C38.9329 80.5711 36.6675 78.9847 36.3049 78.6768C36.0368 78.53 35.8517 78.292 35.5836 78.1452C35.493 78.0683 35.4929 78.0683 35.4023 77.9913C35.221 77.8374 35.0397 77.6835 34.8623 77.6136L34.7717 77.5367C34.4997 77.3058 34.1371 76.9979 33.8613 76.683C33.8574 76.5989 33.7707 76.606 33.7668 76.5219C33.4948 76.291 33.3096 76.053 33.0377 75.8221L32.9471 75.7452C32.8564 75.6682 32.8564 75.6682 32.8525 75.5841C32.5767 75.2691 32.3048 75.0382 32.1157 74.7161C32.0251 74.6392 32.0212 74.5551 31.9306 74.4781C31.6547 74.1631 31.375 73.764 31.0953 73.365C31.0047 73.288 31.0008 73.2039 30.9101 73.127C30.7211 72.8048 30.4453 72.4899 30.2562 72.1677C30.1656 72.0908 30.1617 72.0067 30.071 71.9297C29.7913 71.5306 29.5984 71.1244 29.3187 70.7254C29.3187 70.7254 29.3148 70.6413 29.2281 70.6484C29.2242 70.5643 29.1335 70.4873 29.1297 70.4032C29.0313 70.1581 28.8461 69.9201 28.7477 69.6749C28.6531 69.5139 28.6493 69.4298 28.5547 69.2687C28.4563 69.0235 28.3579 68.7784 28.1727 68.5404C28.1689 68.4563 28.0782 68.3793 28.0743 68.2952C28.0705 68.2111 28.0704 68.2111 27.9798 68.1341C27.9759 68.05 27.8814 67.889 27.8775 67.8049C27.783 67.6438 27.6846 67.3987 27.6768 67.2305C27.673 67.1464 27.5784 66.9853 27.5745 66.9012C27.5707 66.8171 27.48 66.7402 27.4761 66.6561C27.4722 66.572 27.4684 66.4879 27.3777 66.4109C27.2754 66.0817 27.1732 65.7524 27.0709 65.4232C27.067 65.3391 26.9763 65.2621 26.9725 65.178L26.9686 65.0939C26.8663 64.7647 26.764 64.4354 26.7485 64.099C26.7446 64.0149 26.7446 64.0149 26.7407 63.9309C26.6346 63.5175 26.5323 63.1882 26.5129 62.7677C26.5051 62.5995 26.5012 62.5155 26.4067 62.3544C26.3951 62.1021 26.3005 61.9411 26.2889 61.6888C26.2889 61.6888 26.2889 61.6888 26.285 61.6047C26.2772 61.4365 26.2695 61.2683 26.2617 61.1001C26.254 60.9319 26.2462 60.7637 26.2384 60.5955C26.2384 60.5955 26.2384 60.5955 26.2346 60.5114C26.219 60.175 26.2035 59.8386 26.188 59.5022C26.188 59.5022 26.188 59.5022 26.1841 59.4181C26.1686 59.0817 26.1531 58.7454 26.1376 58.409C26.1337 58.3249 26.1298 58.2408 26.1259 58.1567C26.1221 58.0726 26.1143 57.9044 26.1104 57.8203C26.1027 57.6521 26.0988 57.568 26.091 57.3998C26.0833 57.2316 26.0716 56.9793 26.1506 56.804C26.1467 56.7199 26.1429 56.6358 26.139 56.5517L26.1351 56.4676C26.1196 56.1312 26.1908 55.7877 26.266 55.5283L26.2621 55.4442C26.2582 55.3601 26.2543 55.276 26.3372 55.1847C26.3295 55.0165 26.4046 54.7571 26.3968 54.5889C26.3929 54.5048 26.4719 54.3295 26.4681 54.2454C26.4642 54.1613 26.5432 53.986 26.5393 53.9019C26.5354 53.8178 26.5316 53.7337 26.6145 53.6425C26.6935 53.4671 26.6818 53.2148 26.7608 53.0395C26.7569 52.9554 26.8398 52.8642 26.8359 52.7801L26.8321 52.696C26.9033 52.3525 27.0613 52.0018 27.1326 51.6583C27.1287 51.5742 27.2116 51.4829 27.2906 51.3076C27.3657 51.0482 27.4447 50.8729 27.5198 50.6134C27.5198 50.6134 27.516 50.5293 27.6027 50.5222C27.6817 50.3469 27.7608 50.1715 27.8398 49.9962C27.9188 49.8209 27.9978 49.6455 28.0807 49.5543C28.0807 49.5543 28.0768 49.4702 28.1636 49.4631C28.3216 49.1124 28.5663 48.7546 28.7244 48.404C28.7244 48.404 28.7205 48.3199 28.8073 48.3127C28.8073 48.3127 28.8073 48.3127 28.8034 48.2286C28.9653 47.9621 29.1233 47.6114 29.372 47.3377C29.4548 47.2465 28.2619 46.1628 28.3448 46.0715C28.4277 45.9803 28.5106 45.8891 28.5934 45.7979C28.6763 45.7066 28.7553 45.5313 28.925 45.4329C29.0079 45.3417 29.0079 45.3417 29.0908 45.2505C29.3394 44.9768 29.5013 44.7102 29.75 44.4365C29.8329 44.3453 29.8329 44.3453 29.9158 44.254C30.0815 44.0716 30.3341 43.8819 30.496 43.6154C30.5789 43.5241 30.6656 43.517 30.6618 43.4329C30.9104 43.1592 31.163 42.9696 31.4155 42.78C31.4155 42.78 31.4984 42.6888 31.5852 42.6816C31.8377 42.492 32.0902 42.3025 32.3428 42.1129C32.4257 42.0216 32.5124 42.0145 32.5953 41.9232C32.8479 41.7336 33.1872 41.5369 33.5265 41.3402L50.5841 33.2684C50.2448 33.4652 49.9922 33.6547 49.6529 33.8515C49.57 33.9427 49.4833 33.9499 49.4004 34.0411C49.1478 34.2307 48.8953 34.4203 48.6428 34.6099C48.6428 34.6099 48.5599 34.7011 48.4731 34.7083C48.2206 34.8979 47.9719 35.1716 47.7193 35.3612C47.6365 35.4524 47.5497 35.4595 47.5536 35.5436C47.3878 35.7261 47.1353 35.9157 46.9734 36.1823C46.8905 36.2735 46.8905 36.2735 46.8076 36.3647C46.5589 36.6384 46.3103 36.9121 46.1484 37.1787C46.0655 37.2699 46.0655 37.2699 45.9826 37.3612C45.8168 37.5436 45.6549 37.8102 45.493 38.0767C45.4102 38.168 45.3273 38.2592 45.3311 38.3433C45.1692 38.6099 44.9206 38.8836 44.7626 39.2342C44.7626 39.2342 44.7626 39.2342 44.7665 39.3183L44.6836 39.4096C44.5255 39.7602 44.2808 40.118 44.1227 40.4687C44.0437 40.644 43.9647 40.8194 43.8857 40.9947C43.8067 41.17 43.7277 41.3453 43.6487 41.5207C43.5736 41.7801 43.4117 42.0467 43.3365 42.3061C43.2537 42.3973 43.2576 42.4814 43.1785 42.6567C43.0205 43.0074 42.9532 43.435 42.7952 43.7857C42.799 43.8698 42.7161 43.961 42.72 44.0451C42.6449 44.3045 42.5736 44.6481 42.4985 44.9075C42.5024 44.9916 42.4234 45.1669 42.4273 45.251C42.356 45.5945 42.2809 45.854 42.2964 46.1904C42.3003 46.2745 42.3042 46.3586 42.2213 46.4498C42.1539 46.8774 42.1694 47.2138 42.1021 47.6414C42.106 47.7255 42.1098 47.8096 42.1137 47.8937C42.1292 48.2301 42.058 48.5736 42.0735 48.91C42.0774 48.9941 42.0851 49.1623 42.089 49.2464C42.1084 49.6669 42.1278 50.0873 42.1472 50.5078C42.1627 50.8442 42.1783 51.1806 42.1977 51.6011C42.2054 51.7693 42.2132 51.9375 42.2209 52.1057C42.2287 52.2739 42.2403 52.5262 42.3349 52.6872C42.3465 52.9395 42.441 53.1006 42.4527 53.3529C42.4604 53.5211 42.4643 53.6052 42.5588 53.7662C42.665 54.1796 42.6805 54.516 42.7867 54.9293C42.7906 55.0134 42.7945 55.0975 42.8851 55.1745C42.9874 55.5037 43.0897 55.833 43.192 56.1622C43.1958 56.2463 43.2904 56.4074 43.2942 56.4915C43.3965 56.8207 43.4988 57.15 43.6011 57.4792C43.6956 57.6403 43.7034 57.8085 43.794 57.8854C43.7979 57.9695 43.8925 58.1306 43.8963 58.2147C43.9909 58.3758 44.0892 58.6209 44.097 58.7891C44.1009 58.8732 44.1954 59.0343 44.1993 59.1184C44.2938 59.2794 44.2977 59.3635 44.3922 59.5246C44.4907 59.7697 44.5891 60.0149 44.7742 60.2529C44.8688 60.414 44.8726 60.498 44.9671 60.6591C45.0656 60.9043 45.2507 61.1423 45.3492 61.3874C45.4398 61.4644 45.4475 61.6326 45.5382 61.7095C45.7311 62.1158 46.0108 62.5148 46.2905 62.9139C46.3812 62.9909 46.3851 63.075 46.4757 63.1519C46.6648 63.4741 46.9406 63.789 47.1296 64.1111C47.2203 64.1881 47.2242 64.2722 47.3148 64.3492C47.5945 64.7483 47.8703 65.0632 48.1501 65.4623C48.2407 65.5393 48.2446 65.6234 48.3352 65.7003C48.611 66.0153 48.8869 66.3303 49.072 66.5683C49.1627 66.6453 49.2533 66.7222 49.344 66.7992C49.6159 67.0301 49.8011 67.2681 50.073 67.499C50.0769 67.5831 50.1637 67.5759 50.1676 67.66C50.4434 67.975 50.7153 68.2059 51.0779 68.5137C51.2592 68.6677 51.4405 68.8216 51.6218 68.9755C51.7124 69.0525 51.7125 69.0524 51.8031 69.1294C52.075 69.3603 52.3431 69.5071 52.5283 69.7451C52.887 69.9689 53.2496 70.2767 53.6083 70.5005C53.6989 70.5774 53.7896 70.6544 53.967 70.7242C54.1483 70.8781 54.4163 71.0249 54.5937 71.0947C54.6844 71.1717 54.8618 71.2415 54.9525 71.3185C55.1299 71.3883 55.3112 71.5422 55.4886 71.6121C55.5792 71.689 55.7567 71.7588 55.8473 71.8358C56.0247 71.9056 56.2021 71.9754 56.3834 72.1293C56.5608 72.1992 56.6515 72.2762 56.8289 72.346C57.0063 72.4158 57.0969 72.4927 57.2744 72.5626C57.4518 72.6324 57.6292 72.7023 57.7198 72.7792C57.8973 72.849 57.9879 72.926 58.1614 72.9117C58.3389 72.9815 58.5163 73.0514 58.6937 73.1212C58.8711 73.191 58.9579 73.1839 59.1353 73.2537C59.3127 73.3235 59.4901 73.3934 59.6636 73.3791C59.8411 73.4489 59.9278 73.4418 60.1052 73.5116C60.2827 73.5814 60.4562 73.5671 60.6336 73.637C60.811 73.7068 60.8978 73.6997 61.0713 73.6854C61.2487 73.7552 61.4223 73.7409 61.5997 73.8107C61.7732 73.7965 61.8639 73.8734 62.0374 73.8592C62.3016 73.9219 62.5619 73.9005 62.8261 73.9632C62.9996 73.9489 63.0903 74.0259 63.2638 74.0116C63.5241 73.9902 63.7883 74.0528 64.0486 74.0314L64.1354 74.0243C64.3957 74.0029 64.7466 74.0584 65.0069 74.037C65.0937 74.0299 65.1804 74.0228 65.1804 74.0228C65.4407 74.0014 65.7878 73.9728 66.0481 73.9514C66.0481 73.9514 66.0481 73.9514 66.1349 73.9443C66.4819 73.9157 66.829 73.8872 67.0893 73.8658C67.1761 73.8586 67.1761 73.8586 67.2629 73.8515C67.6099 73.823 67.9531 73.7103 68.3002 73.6818C68.3869 73.6746 68.4737 73.6675 68.4737 73.6675C68.5605 73.6604 68.734 73.6461 68.8169 73.5549C68.9037 73.5477 68.9904 73.5406 69.0733 73.4494C69.1601 73.4422 69.3298 73.3439 69.4165 73.3367C69.5033 73.3296 69.59 73.3224 69.6729 73.2312C69.9294 73.1257 70.1896 73.1043 70.3593 73.0059C70.4461 72.9988 70.4461 72.9988 70.529 72.9076C70.6986 72.8092 70.8722 72.7949 71.1286 72.6894C71.2154 72.6823 71.2982 72.591 71.2982 72.591C71.4679 72.4927 71.5547 72.4856 71.7243 72.3872C71.8111 72.38 71.894 72.2888 71.894 72.2888C72.0636 72.1904 72.32 72.0849 72.4897 71.9866L58.5279 82.4206C58.3582 82.519 58.1018 82.6245 57.9321 82.7229C57.8454 82.73 57.7625 82.8212 57.7625 82.8212C57.5928 82.9196 57.5061 82.9267 57.3364 83.0251L57.2496 83.0322L57.1629 83.0394C56.9932 83.1377 56.8235 83.2361 56.5632 83.2575C56.4765 83.2646 56.4765 83.2646 56.3936 83.3559C56.1372 83.4614 55.8807 83.5669 55.7072 83.5811C55.7072 83.5811 55.7072 83.5811 55.6205 83.5883C55.5337 83.5954 55.5337 83.5954 55.4469 83.6026C55.3602 83.6097 55.1905 83.7081 55.1037 83.7152C55.017 83.7223 54.9302 83.7295 54.8473 83.8207C54.7605 83.8279 54.5909 83.9262 54.5041 83.9333L54.4173 83.9405L54.3306 83.9476C53.9874 84.0602 53.6403 84.0888 53.2933 84.1173C53.2933 84.1173 53.2933 84.1173 53.2065 84.1245L53.1197 84.1316C52.7726 84.1602 52.5124 84.1816 52.1653 84.2101C51.905 84.2315 51.5579 84.2601 51.2976 84.2815L51.2108 84.2886L51.1241 84.2957C50.8638 84.3171 50.5167 84.3457 50.2525 84.283L50.1657 84.2901C49.4755 84.4313 49.2113 84.3686 48.951 84.39ZM105.208 60.01C105.204 59.9259 105.2 59.8417 105.196 59.7576C105.173 59.2531 105.154 58.8326 105.13 58.328C105.123 58.1598 105.119 58.0757 105.111 57.9075C105.103 57.7393 105.099 57.6552 105.092 57.487C105.076 57.1507 105.057 56.7302 105.041 56.3938C105.041 56.3938 105.041 56.3938 105.037 56.3097C105.018 55.8892 104.999 55.4687 104.892 55.0553C104.888 54.9713 104.881 54.8031 104.877 54.719C104.869 54.5508 104.865 54.4667 104.857 54.2985C104.834 53.7939 104.724 53.2965 104.701 52.7919C104.697 52.7078 104.697 52.7078 104.693 52.6237C104.583 52.1262 104.56 51.6217 104.446 51.0401C104.438 50.8719 104.434 50.7878 104.34 50.6268C104.332 50.4586 104.324 50.2904 104.23 50.1293C104.218 49.877 104.116 49.5478 104.017 49.3026C104.013 49.2185 104.006 49.0503 103.915 48.9734C103.805 48.4759 103.699 48.0626 103.589 47.5651C103.585 47.481 103.577 47.3128 103.486 47.2359C103.282 46.5774 103.164 45.9117 102.963 45.3373C102.956 45.1691 102.865 45.0922 102.857 44.924C102.853 44.8399 102.759 44.6788 102.755 44.5947C102.645 44.0973 102.452 43.6911 102.346 43.2777C102.342 43.1936 102.251 43.1166 102.247 43.0325C102.047 42.4581 101.846 41.8837 101.645 41.3093C101.641 41.2252 101.641 41.2252 101.551 41.1483C101.452 40.9031 101.35 40.5739 101.252 40.3287C101.145 39.9154 100.956 39.5933 100.763 39.187C100.665 38.9419 100.563 38.6126 100.378 38.3746C100.279 38.1295 100.181 37.8843 100.079 37.5551C99.984 37.394 99.9801 37.3099 99.8895 37.2329C99.7949 37.0719 99.7872 36.9037 99.6927 36.7426C99.4958 36.2523 99.2123 35.7691 99.0155 35.2788C98.9248 35.2019 98.9209 35.1178 98.8264 34.9567C98.5389 34.3894 98.2515 33.8222 97.964 33.2549C97.8695 33.0938 97.7788 33.0169 97.7711 32.8487C97.6727 32.6035 97.5781 32.4425 97.393 32.2044C97.2984 32.0434 97.2 31.7982 97.0187 31.6443C96.9203 31.3991 96.739 31.2452 96.6406 31.0001C96.4477 30.5939 96.1719 30.2789 95.9789 29.8727C95.8844 29.7116 95.786 29.4665 95.6047 29.3125C95.2344 28.8365 94.9469 28.2692 94.5765 27.7932C94.5727 27.7091 94.4859 27.7162 94.482 27.6321C94.1078 27.072 93.7374 26.596 93.3632 26.0358C93.2687 25.8748 93.0874 25.7209 92.9929 25.5598C92.717 25.2448 92.4373 24.8457 92.1615 24.5307C91.9802 24.3768 91.8818 24.1317 91.7005 23.9778C91.4247 23.6628 91.1489 23.3478 90.8731 23.0328C90.6918 22.8789 90.5933 22.6337 90.4121 22.4798C90.1362 22.1648 89.8604 21.8499 89.5846 21.5349C89.4033 21.381 89.3088 21.2199 89.1275 21.066C89.0368 20.989 89.033 20.9049 88.9462 20.912C88.5797 20.5201 88.2171 20.2123 87.8507 19.8203C87.76 19.7434 87.7561 19.6593 87.6655 19.5823C87.299 19.1904 86.9364 18.8825 86.5699 18.4906C86.4793 18.4136 86.298 18.2597 86.2074 18.1827C85.7541 17.7979 85.297 17.329 84.8438 16.9442C84.7531 16.8673 84.6625 16.7903 84.4812 16.6364C84.1186 16.3285 83.6654 15.9437 83.3028 15.6359C83.1215 15.482 82.9402 15.328 82.6721 15.1813C82.3134 14.9575 82.0376 14.6425 81.6789 14.4188C81.5882 14.3418 81.5015 14.349 81.4976 14.2649C81.0482 13.9642 80.6856 13.6563 80.2363 13.3556C80.055 13.2017 79.8776 13.1319 79.6963 12.9779C79.515 12.824 79.2469 12.6772 79.0656 12.5233C78.8882 12.4535 78.7937 12.2924 78.6163 12.2226C78.4389 12.1528 78.3482 12.0758 78.1669 11.9219C77.7176 11.6212 77.1814 11.3276 76.7321 11.0269C76.7321 11.0269 76.7321 11.0269 76.6453 11.034C76.1092 10.7405 75.6598 10.4397 75.1276 10.2303C75.037 10.1533 74.8595 10.0835 74.7689 10.0065C74.6782 9.92957 74.5008 9.85976 74.4102 9.78279C74.0515 9.55905 73.6099 9.42652 73.2512 9.20277C73.1644 9.20991 73.1605 9.1258 73.0737 9.13294C72.8057 8.98615 72.4508 8.84652 72.1828 8.69974C72.0054 8.62991 71.7412 8.5672 71.5599 8.41328C71.4693 8.33632 71.3825 8.34347 71.2918 8.26651C70.8464 8.0499 70.4048 7.91738 70.0499 7.77773C69.9593 7.70077 69.8725 7.70792 69.6951 7.63809C69.6045 7.56113 69.5177 7.56825 69.4271 7.49129C68.8948 7.28182 68.4532 7.14932 67.921 6.93984C67.921 6.93984 67.8342 6.94697 67.7435 6.87001C67.6568 6.87715 67.5661 6.80018 67.5661 6.80018C67.0339 6.5907 66.4188 6.47246 65.8865 6.26298C65.2675 6.06065 64.7392 5.93527 64.124 5.81703C64.0373 5.82416 63.9466 5.7472 63.9466 5.7472C63.8598 5.75434 63.8598 5.75434 63.7692 5.67738C63.2408 5.552 62.7125 5.42663 62.2747 5.37821C62.188 5.38534 62.0973 5.30838 62.0105 5.31552C61.9238 5.32265 61.8331 5.2457 61.7464 5.25283C61.3087 5.20442 60.7803 5.07903 60.3426 5.03061C60.2558 5.03775 60.1652 4.9608 60.0784 4.96793C59.9049 4.9822 59.8142 4.90524 59.6407 4.91951C59.203 4.87109 58.7652 4.82267 58.3275 4.77426C58.0633 4.71157 57.8031 4.73298 57.5389 4.67029C57.2747 4.6076 57.0144 4.62901 56.6634 4.57346C56.5767 4.58059 56.5767 4.58059 56.4899 4.58773C56.0522 4.53931 55.7051 4.56786 55.2674 4.51944C55.1806 4.52658 55.0071 4.54085 54.9203 4.54799C54.8336 4.55512 54.66 4.56939 54.5732 4.57653C54.0488 4.53525 53.5282 4.57806 53.0076 4.62088C52.4002 4.67083 51.7889 4.63668 51.1816 4.68663C51.008 4.7009 50.8345 4.71517 50.661 4.72945C50.5742 4.73658 50.4874 4.74372 50.4874 4.74372C50.2271 4.76513 50.0536 4.7794 49.7933 4.80081C49.6197 4.81508 49.533 4.82221 49.3594 4.83649C49.0991 4.85789 48.8388 4.8793 48.6653 4.89357C48.5785 4.90071 48.4918 4.90784 48.405 4.91498C48.405 4.91498 48.405 4.91498 48.3182 4.92212C47.9712 4.95066 47.5412 5.07044 47.1941 5.09899C47.1074 5.10612 47.0206 5.11326 46.9338 5.1204C46.6735 5.1418 46.3304 5.25445 46.0701 5.27586C45.9833 5.28299 45.9833 5.28299 45.8965 5.29013C45.8097 5.29727 45.8098 5.29727 45.723 5.3044C45.293 5.42418 44.8631 5.54395 44.4331 5.66372C44.0032 5.7835 43.5732 5.90328 43.23 6.01592C43.1433 6.02306 43.1432 6.02306 43.0565 6.03019C42.9697 6.03733 42.8829 6.04447 42.8868 6.12857C42.7133 6.14284 42.6304 6.23406 42.4569 6.24834C42.2833 6.26261 42.1137 6.36098 42.0269 6.36812C41.8534 6.38239 41.7705 6.47362 41.6008 6.57199C41.4312 6.67036 41.2576 6.68463 41.1747 6.77586C41.0051 6.87423 40.9183 6.88138 40.7487 6.97975C40.579 7.07811 40.4922 7.08525 40.3226 7.18362C40.1529 7.28199 40.0662 7.28912 39.8965 7.38749C39.8097 7.39462 39.7269 7.48586 39.6401 7.493C39.6401 7.493 39.5533 7.50013 39.5572 7.58422C39.1311 7.7881 38.7051 7.99198 38.279 8.19585C38.1922 8.20299 38.1093 8.29421 38.1093 8.29421C37.6833 8.49808 37.2611 8.78607 36.7482 8.99708L20.8797 18.0684C21.3019 17.7804 21.7279 17.5766 22.2408 17.3656C22.3275 17.3584 22.4104 17.2672 22.4104 17.2672C22.8365 17.0633 23.2626 16.8595 23.6887 16.6556C23.7716 16.5643 23.9451 16.5501 24.0319 16.5429C24.2015 16.4446 24.2883 16.4374 24.4579 16.3391C24.6276 16.2407 24.7144 16.2336 24.884 16.1352C25.0537 16.0368 25.1404 16.0297 25.3101 15.9313C25.4797 15.833 25.5665 15.8258 25.7362 15.7274C25.9058 15.6291 25.9926 15.6219 26.1661 15.6077C26.3397 15.5934 26.5093 15.495 26.5961 15.4879C26.7696 15.4736 26.8525 15.3824 27.026 15.3681C27.1128 15.361 27.2825 15.2626 27.3692 15.2555C27.7992 15.1357 28.2291 15.0159 28.5723 14.9033C29.0023 14.7835 29.4322 14.6637 29.8622 14.5439C29.949 14.5368 30.1225 14.5225 30.2054 14.4313C30.4657 14.4099 30.8089 14.2972 31.0692 14.2758C31.1559 14.2687 31.2427 14.2616 31.3295 14.2544C31.6766 14.2259 32.1065 14.1061 32.4536 14.0776C32.5403 14.0705 32.7139 14.0562 32.8006 14.049C33.0609 14.0276 33.3213 14.0062 33.4948 13.992C33.6683 13.9777 33.7551 13.9705 33.9286 13.9563C34.1889 13.9349 34.3625 13.9206 34.6228 13.8992C34.8831 13.8778 35.1434 13.8564 35.3169 13.8421C35.9243 13.7921 36.5316 13.7422 37.1429 13.7763C37.6635 13.7335 38.188 13.7748 38.7086 13.732C38.7954 13.7248 38.9689 13.7106 39.0557 13.7034C39.5801 13.7447 40.1007 13.7019 40.6252 13.7432C40.712 13.7361 40.712 13.736 40.7988 13.7289C41.3232 13.7702 41.9345 13.8043 42.459 13.8456C43.0702 13.8798 43.6854 13.998 44.2098 14.0393C44.2966 14.0321 44.3873 14.1091 44.474 14.102C45.0024 14.2273 45.6137 14.2615 46.142 14.3869C46.2288 14.3797 46.3194 14.4567 46.4062 14.4496C46.9346 14.5749 47.5497 14.6932 48.078 14.8186C48.1648 14.8114 48.2555 14.8884 48.2555 14.8884C48.8706 15.0066 49.4028 15.2161 50.018 15.3343C50.5502 15.5438 51.1653 15.6621 51.6976 15.8715C51.7844 15.8644 51.875 15.9414 51.875 15.9414C52.4073 16.1508 52.9356 16.2762 53.4679 16.4857C53.5585 16.5627 53.6453 16.5555 53.7359 16.6325C54.2682 16.8419 54.8004 17.0514 55.3326 17.2609C55.4233 17.3379 55.5101 17.3307 55.6007 17.4077C56.1329 17.6172 56.5784 17.8338 57.1146 18.1273C57.2013 18.1202 57.2052 18.2043 57.292 18.1972C57.8242 18.4066 58.3603 18.7002 58.8097 19.0009C58.9003 19.0779 59.0777 19.1477 59.1684 19.2247C59.7045 19.5182 60.2407 19.8118 60.69 20.1125C60.69 20.1125 60.69 20.1125 60.7768 20.1054C61.3129 20.399 61.7623 20.6997 62.2116 21.0004C62.389 21.0702 62.4797 21.1472 62.661 21.3011C63.0197 21.5248 63.3784 21.7486 63.741 22.0564C63.9223 22.2104 64.0997 22.2802 64.281 22.4341C64.7303 22.7348 65.1797 23.0355 65.5423 23.3433C65.6329 23.4203 65.7197 23.4132 65.7236 23.4973C66.0823 23.721 66.4449 24.0289 66.7168 24.2598C66.8981 24.4137 67.0794 24.5676 67.2607 24.7215C67.71 25.0222 68.0765 25.4142 68.5259 25.7149C68.6165 25.7918 68.7072 25.8688 68.8885 26.0227C69.3417 26.4075 69.7949 26.7923 70.2521 27.2612C70.3427 27.3382 70.524 27.4921 70.6146 27.5691C70.9811 27.961 71.3437 28.2688 71.7102 28.6608C71.8008 28.7377 71.8047 28.8219 71.8953 28.8988C72.3486 29.2836 72.7189 29.7597 73.1722 30.1445C73.3535 30.2984 73.448 30.4594 73.6293 30.6134C73.9051 30.9283 74.1809 31.2433 74.4568 31.5583C74.6381 31.7122 74.7365 31.9574 74.9178 32.1113C75.1936 32.4263 75.4694 32.7413 75.7452 33.0562C75.9265 33.2102 76.0249 33.4553 76.2062 33.6092C76.482 33.9242 76.7617 34.3233 77.0376 34.6383C77.1321 34.7993 77.3134 34.9533 77.4079 35.1143C77.7821 35.6745 78.1525 36.1505 78.5267 36.7106C78.5306 36.7947 78.6174 36.7876 78.6212 36.8717C78.9916 37.3477 79.279 37.915 79.6494 38.391C79.7439 38.5521 79.8423 38.7972 80.0236 38.9512C80.3033 39.3502 80.4924 39.6724 80.6853 40.0786C80.7837 40.3237 80.965 40.4777 81.0634 40.7228C81.2563 41.129 81.5361 41.5281 81.729 41.9343C81.8235 42.0954 81.9142 42.1723 81.9219 42.3405C82.2094 42.9078 82.4969 43.4751 82.7843 44.0423C82.875 44.1193 82.8788 44.2034 82.9734 44.3645C83.1702 44.8548 83.4538 45.3379 83.6506 45.8282C83.7451 45.9893 83.7529 46.1575 83.8474 46.3186C84.0403 46.7248 84.1426 47.054 84.3356 47.4602C84.434 47.7054 84.5362 48.0346 84.7214 48.2727C84.9144 48.6789 85.0166 49.0081 85.2096 49.4144C85.308 49.6595 85.4103 49.9888 85.5087 50.2339C85.7132 50.8924 85.9139 51.4668 86.2053 52.1182C86.2092 52.2023 86.2998 52.2792 86.3037 52.3633C86.5044 52.9377 86.7051 53.5121 86.819 54.0937C86.8268 54.2619 86.9174 54.3388 86.9252 54.507C87.1297 55.1655 87.2437 55.7471 87.4482 56.4056C87.5622 56.9871 87.7629 57.5615 87.8768 58.1431C87.8807 58.2272 87.8884 58.3954 87.9791 58.4723C88.0852 58.8857 88.1953 59.3831 88.2147 59.8036C88.2224 59.9718 88.2263 60.0559 88.3209 60.217C88.4309 60.7144 88.5448 61.296 88.5681 61.8006C88.572 61.8846 88.572 61.8846 88.5759 61.9687C88.6859 62.4662 88.7092 62.9708 88.7325 63.4754C88.7402 63.6435 88.7441 63.7276 88.7519 63.8958C88.7752 64.4004 88.8891 64.982 88.9124 65.4865C88.9124 65.4865 88.9124 65.4865 88.9162 65.5706C88.9395 66.0752 88.9628 66.5798 88.9861 67.0844C88.9938 67.2526 88.9977 67.3367 89.0055 67.5049C89.0287 68.0094 89.0481 68.4299 89.0714 68.9345C89.0753 69.0186 89.0753 69.0186 89.0792 69.1027C89.1025 69.6073 89.1257 70.1119 89.0661 70.7077C89.0739 70.8759 89.0778 70.96 89.0855 71.1282C89.1049 71.5486 89.0337 71.8922 89.0531 72.3127C89.0608 72.4809 89.0686 72.649 88.9896 72.8244C88.9222 73.252 88.9455 73.7566 88.8781 74.1842C88.882 74.2683 88.8859 74.3524 88.8859 74.3524C88.8224 74.8641 88.7628 75.4599 88.7861 75.9645C88.7938 76.1327 88.7149 76.308 88.7187 76.3921C88.6475 76.7357 88.6669 77.1561 88.5956 77.4997C88.6073 77.7519 88.5321 78.0114 88.457 78.2708C88.3858 78.6144 88.3974 78.8666 88.3262 79.2101C88.251 79.4696 88.2627 79.7219 88.1875 79.9813C88.1124 80.2407 88.1279 80.5771 88.0528 80.8366C87.9816 81.1801 87.9103 81.5236 87.8391 81.8671C87.7639 82.1265 87.7756 82.3788 87.7005 82.6383C87.6292 82.9818 87.5579 83.3253 87.4867 83.6688C87.4154 84.0124 87.3403 84.2718 87.2691 84.6153C87.1266 85.3024 86.9802 85.9053 86.8377 86.5924C86.7587 86.7677 86.7703 87.02 86.6913 87.1953C86.624 87.6229 86.4698 88.0577 86.3986 88.4012C86.2445 88.836 86.1771 89.2636 86.0191 89.6142C85.9439 89.8737 85.8727 90.2172 85.7976 90.4766C85.6434 90.9114 85.4893 91.3461 85.4219 91.7738C85.3468 92.0332 85.2717 92.2926 85.1965 92.552C84.9712 93.3303 84.6551 94.0316 84.4297 94.8099C84.3507 94.9853 84.2717 95.1606 84.1927 95.3359C83.9557 95.8619 83.8093 96.4649 83.5723 96.9908C83.4933 97.1662 83.4182 97.4256 83.3392 97.6009C83.0309 98.4704 82.632 99.263 82.3237 100.133C82.3276 100.217 82.3276 100.217 82.2447 100.308C81.8497 101.184 81.4546 102.061 81.0557 102.854C80.9806 103.113 80.8148 103.296 80.7397 103.555C80.5817 103.906 80.3408 104.348 80.1827 104.698C80.0208 104.965 79.9457 105.224 79.7838 105.491C79.6258 105.841 79.3849 106.283 79.2269 106.634C79.065 106.901 78.9899 107.16 78.8241 107.342C78.5832 107.784 78.3384 108.142 78.1843 108.577C78.0185 108.759 77.9434 109.019 77.7776 109.201C77.4538 109.734 77.2129 110.176 76.8891 110.709C76.8062 110.801 76.7272 110.976 76.7311 111.06C76.4863 111.418 76.2454 111.86 76.0006 112.218C75.9216 112.393 75.7558 112.575 75.6807 112.835C75.3569 113.368 74.9503 113.992 74.6265 114.525C74.2988 114.974 73.975 115.508 73.6512 116.041C73.5683 116.132 73.5722 116.216 73.4893 116.307C73.1617 116.756 72.8379 117.289 72.5102 117.738C72.4273 117.83 72.3444 117.921 72.3483 118.005C72.0245 118.538 71.6968 118.987 71.2863 119.527C71.2901 119.611 71.2034 119.619 71.2073 119.703C70.8796 120.152 70.469 120.692 70.1414 121.141C70.0585 121.232 70.0624 121.316 69.9795 121.408C69.8966 121.499 69.8137 121.59 69.7308 121.681C69.565 121.864 69.4031 122.13 69.2374 122.313C69.1545 122.404 69.0716 122.495 68.9926 122.671C68.8268 122.853 68.6649 123.12 68.4991 123.302C68.4163 123.393 68.3334 123.485 68.2505 123.576C68.0018 123.849 67.757 124.207 67.5084 124.481L67.4255 124.572C67.1768 124.846 67.0149 125.112 66.7663 125.386C66.6834 125.477 66.6005 125.569 66.5176 125.66C66.3518 125.842 66.1899 126.109 66.0242 126.291C65.9413 126.383 65.8584 126.474 65.7755 126.565C65.6136 126.832 65.3611 127.021 65.1992 127.288C65.1163 127.379 65.0334 127.47 65.0373 127.554C64.7886 127.828 64.5438 128.186 64.2952 128.46C64.2123 128.551 64.2162 128.635 64.1294 128.642C63.9675 128.909 63.715 129.098 63.5531 129.365C63.4702 129.456 63.3873 129.547 63.3044 129.638C63.1386 129.821 62.9767 130.087 62.8109 130.27C62.7281 130.361 62.6452 130.452 62.5623 130.544C62.3136 130.817 62.1517 131.084 61.8992 131.273L61.8163 131.365C61.5676 131.638 61.319 131.912 61.0742 132.27C60.9913 132.361 60.9084 132.452 60.8255 132.544C60.6598 132.726 60.4979 132.993 60.2453 133.182C60.1624 133.273 60.0796 133.365 59.9967 133.456C59.8309 133.638 59.6651 133.821 59.4126 134.011C59.3297 134.102 59.2468 134.193 59.1639 134.284C58.9152 134.558 58.6666 134.832 58.4179 135.105C58.4179 135.105 58.4179 135.105 58.335 135.197C58.0864 135.47 57.8338 135.66 57.5851 135.934C57.5023 136.025 57.4194 136.116 57.3365 136.207C57.1707 136.39 57.0049 136.572 56.8392 136.755C56.7563 136.846 56.6734 136.937 56.5905 137.028C56.4247 137.211 56.259 137.393 56.0064 137.583C55.9235 137.674 55.8368 137.681 55.8406 137.765C55.592 138.039 55.3394 138.229 55.0908 138.502C55.0079 138.594 55.0079 138.594 54.925 138.685C54.7592 138.867 54.5067 139.057 54.3409 139.239C54.258 139.331 54.1751 139.422 54.0884 139.429C53.9226 139.611 53.7529 139.71 53.5872 139.892C53.5043 139.983 53.4214 140.075 53.3346 140.082C53.1689 140.264 52.9163 140.454 52.7505 140.636C52.6638 140.644 52.6676 140.728 52.5809 140.735C52.3283 140.924 53.7188 140.857 53.5569 141.124C53.474 141.215 53.3872 141.222 53.3911 141.306C53.2253 141.489 53.0557 141.587 52.8899 141.77C52.807 141.861 52.7203 141.868 52.6374 141.959C52.4677 142.058 52.3019 142.24 52.1323 142.338C52.0494 142.43 51.9626 142.437 51.9665 142.521C51.714 142.71 51.3555 143.136 51.2605 143.37L65.5173 134.184C65.7699 133.994 65.9356 133.812 66.192 133.706C66.2749 133.615 66.3617 133.608 66.3578 133.524C66.5275 133.425 66.6933 133.243 66.8629 133.145C66.9458 133.053 67.0326 133.046 67.1154 132.955C67.2851 132.857 67.4509 132.674 67.6167 132.492C67.6995 132.4 67.7863 132.393 67.7824 132.309C68.035 132.12 68.2875 131.93 68.4494 131.663C68.5362 131.656 68.5323 131.572 68.6191 131.565C68.7849 131.383 69.0374 131.193 69.2032 131.01C69.286 130.919 69.3689 130.828 69.4557 130.821C69.6215 130.638 69.7911 130.54 69.9569 130.358C70.0398 130.266 70.1227 130.175 70.2095 130.168C70.3752 129.985 70.6278 129.796 70.7935 129.613C70.8764 129.522 70.8764 129.522 70.9593 129.431C71.208 129.157 71.4605 128.968 71.7092 128.694C71.7921 128.603 71.8788 128.596 71.875 128.512C72.0407 128.329 72.2065 128.147 72.459 127.957C72.5419 127.866 72.6248 127.775 72.7077 127.683C72.8735 127.501 73.0393 127.318 73.2051 127.136C73.2879 127.045 73.3708 126.953 73.4537 126.862C73.7024 126.588 73.9549 126.399 74.2036 126.125C74.2036 126.125 74.2036 126.125 74.2865 126.034C74.5351 125.76 74.7838 125.487 75.0324 125.213C75.1153 125.122 75.1982 125.03 75.2811 124.939C75.4469 124.757 75.6126 124.574 75.8613 124.301C75.9442 124.209 76.0271 124.118 76.11 124.027C76.2758 123.844 76.5244 123.571 76.6902 123.388C76.7731 123.297 76.856 123.206 76.9389 123.114C77.1875 122.841 77.4362 122.567 77.681 122.209L77.7639 122.118C78.0125 121.844 78.1744 121.578 78.4269 121.388C78.5098 121.297 78.5927 121.206 78.6756 121.114C78.8414 120.932 79.0033 120.665 79.169 120.483C79.2519 120.392 79.3348 120.301 79.4177 120.209C79.5796 119.943 79.8322 119.753 79.994 119.487C80.0769 119.395 80.0731 119.311 80.1598 119.304C80.4085 119.03 80.6533 118.673 80.9019 118.399C80.9848 118.308 80.981 118.224 81.0677 118.216C81.2296 117.95 81.4821 117.76 81.644 117.494C81.7269 117.402 81.8098 117.311 81.8927 117.22C82.0585 117.038 82.2204 116.771 82.3861 116.589C82.469 116.497 82.5519 116.406 82.6348 116.315C82.8835 116.041 83.0454 115.775 83.294 115.501L83.3769 115.41C83.6256 115.136 83.8704 114.778 84.119 114.504C84.2019 114.413 84.2848 114.322 84.3677 114.231C84.5335 114.048 84.6953 113.782 84.8611 113.599C84.944 113.508 85.0269 113.417 85.1059 113.241C85.2717 113.059 85.4336 112.792 85.5994 112.61C85.6823 112.519 85.7651 112.427 85.848 112.336L85.9309 112.245C85.927 112.161 86.0138 112.154 86.0099 112.07C86.3376 111.621 86.7481 111.08 87.0758 110.631C87.0719 110.547 87.1587 110.54 87.1548 110.456C87.4786 109.923 87.893 109.467 88.2168 108.934C88.2997 108.842 88.3826 108.751 88.3787 108.667C88.7064 108.218 89.0302 107.685 89.3579 107.236C89.4407 107.145 89.4369 107.061 89.5198 106.969C89.8435 106.436 90.1712 105.987 90.495 105.454C90.8188 104.921 91.2255 104.297 91.5493 103.763C91.6283 103.588 91.794 103.406 91.8731 103.23C92.1178 102.872 92.3587 102.431 92.6035 102.073C92.6864 101.982 92.6825 101.897 92.7615 101.722C93.0853 101.189 93.3262 100.747 93.65 100.214C93.8158 100.032 93.8909 99.7721 94.0567 99.5896C94.2976 99.1477 94.5424 98.79 94.6965 98.3552C94.8584 98.0886 94.9335 97.8292 95.0954 97.5627C95.3402 97.2049 95.4944 96.7701 95.6524 96.4194C95.8143 96.1529 95.8894 95.8934 96.0513 95.6269C96.2093 95.2762 96.4541 94.9184 96.6082 94.4837C96.6911 94.3924 96.7701 94.2171 96.7662 94.133C96.8491 94.0418 96.8452 93.9577 96.9281 93.8664C97.3232 92.9898 97.7221 92.1972 98.1171 91.3206C98.1133 91.2365 98.1132 91.2365 98.1961 91.1453C98.595 90.3527 98.9033 89.4832 99.2116 88.6137C99.2945 88.5224 99.2867 88.3543 99.3696 88.263C99.4525 88.1718 99.4486 88.0877 99.5276 87.9124C99.7646 87.3864 99.9978 86.7763 100.148 86.2574C100.227 86.0821 100.306 85.9068 100.385 85.7314C100.614 85.0373 100.926 84.2518 101.152 83.4736L101.148 83.3894C101.227 83.2141 101.302 82.9547 101.381 82.7794C101.535 82.3446 101.689 81.9098 101.757 81.4822C101.832 81.2228 101.903 80.8793 101.978 80.6198C102.132 80.1851 102.204 79.8416 102.358 79.4068C102.354 79.3227 102.437 79.2315 102.433 79.1474C102.504 78.8039 102.575 78.4603 102.651 78.2009C102.73 78.0256 102.718 77.7733 102.797 77.5979C102.943 76.995 103.086 76.308 103.228 75.6209C103.221 75.4527 103.303 75.3615 103.296 75.1933C103.375 75.018 103.367 74.8498 103.446 74.6744C103.517 74.3309 103.588 73.9874 103.66 73.6439C103.735 73.3845 103.723 73.1321 103.798 72.8727C103.87 72.5292 103.941 72.1857 104.012 71.8422C104.008 71.7581 104.087 71.5827 104.083 71.4986C104.075 71.3304 104.155 71.1551 104.147 70.9869C104.222 70.7275 104.21 70.4752 104.285 70.2158C104.357 69.8722 104.345 69.6199 104.416 69.2764C104.491 69.017 104.48 68.7647 104.555 68.5053C104.551 68.4212 104.547 68.3371 104.63 68.2458C104.705 67.9864 104.69 67.65 104.765 67.3906C104.757 67.2224 104.836 67.0471 104.832 66.963C104.896 66.4513 104.959 65.9396 104.936 65.435C104.932 65.3509 104.928 65.2668 104.928 65.2668C104.995 64.8392 104.972 64.3346 105.039 63.9069C105.032 63.7388 105.024 63.5706 105.103 63.3952C105.095 63.227 105.087 63.0588 105.163 62.7994C105.155 62.6312 105.143 62.3789 105.135 62.2107C105.128 62.0425 105.124 61.9584 105.116 61.7902C105.255 61.0191 105.231 60.5145 105.208 60.01Z" fill="#7A43EE"/>
<path d="M90.1195 55.5658C84.267 32.2122 65.1624 14.9722 44.2779 12.8611C41.8791 12.633 39.3999 12.5817 36.9325 12.7849C16.5686 14.2913 1.74451 32.367 2.60356 54.8549C3.07801 67.0741 6.9775 78.7559 12.5435 90.1302C19.3723 103.954 28.1732 116.424 38.1726 128.03C42.5644 133.116 47.2088 137.926 51.7729 142.914C59.3774 137.095 70.631 124.08 77.0669 114.016C82.837 104.858 87.6946 95.094 90.1828 83.8227C92.0638 74.7295 92.6073 65.4059 90.1195 55.5658ZM48.3627 82.3287C37.4299 81.1859 28.0139 70.7244 27.3827 58.9438C26.6635 47.1704 34.9322 38.4876 45.9491 39.5384C56.8819 40.6813 66.2979 51.1427 66.933 63.0082C67.5602 74.704 59.2915 83.3868 48.3627 82.3287Z" fill="url(#paint0_linear_1248_254)"/>
<defs>
<linearGradient id="paint0_linear_1248_254" x1="64.8793" y1="157.381" x2="-18.9474" y2="83.4942" gradientUnits="userSpaceOnUse">
<stop stop-color="#7A43EE"/>
<stop offset="1" stop-color="#B565E6"/>
</linearGradient>
</defs>
</svg>
