<svg width="36" height="36" viewBox="0 0 36 36" fill="none" xmlns="http://www.w3.org/2000/svg">
<rect width="36" height="36" rx="12" fill="white"/>
<mask id="mask0_30_415" style="mask-type:alpha" maskUnits="userSpaceOnUse" x="0" y="0" width="36" height="36">
<rect width="36" height="36" rx="12" fill="#D9D9D9"/>
</mask>
<g mask="url(#mask0_30_415)">
<rect x="6" width="36" height="6" transform="rotate(90 6 0)" fill="#EB6E5D"/>
<rect x="36" width="36" height="6" transform="rotate(90 36 0)" fill="#EB6E5D"/>
<path d="M20.3392 15.6146C21.6723 15.0057 22.9306 14.4198 24.189 13.8454C24.7995 13.5582 24.924 13.6386 24.9365 14.2475C24.9365 14.7645 24.9365 15.2815 24.9365 15.7985C24.9365 16.1776 25.086 16.4533 25.4473 16.6486C25.8335 16.8669 26.1948 17.1082 26.5811 17.338C27.1417 17.6826 27.1417 17.8435 26.5686 18.1422C25.1234 18.9004 23.6906 19.6702 22.2329 20.4169C21.9339 20.5663 21.8716 20.7157 22.0087 20.9914C22.1333 21.2326 22.208 21.4969 22.2828 21.7611C22.4447 22.3356 22.1208 22.7262 21.4729 22.7377C20.5884 22.7492 19.7038 22.7377 18.7694 22.7377C18.7694 23.2776 18.7694 23.7717 18.7694 24.2657C18.7694 24.9435 18.7818 25.6099 18.7569 26.2877C18.7445 26.7128 18.4081 27 17.9969 27C17.5733 27 17.2494 26.7013 17.237 26.2762C17.2245 25.2882 17.237 24.3001 17.2245 23.3006C17.2245 23.1283 17.2245 22.956 17.2245 22.7492C17.0625 22.7377 16.9379 22.7147 16.8009 22.7147C16.0409 22.7147 15.2809 22.7147 14.5085 22.7147C13.8731 22.7032 13.5491 22.3011 13.7111 21.7382C13.7859 21.4854 13.8606 21.2441 13.9852 21.0029C14.1347 20.6927 14.0724 20.5318 13.736 20.371C12.2783 19.6587 10.8456 18.8775 9.40037 18.1192C8.8771 17.8435 8.86464 17.6826 9.37545 17.3724C9.74921 17.1427 10.1105 16.8899 10.5092 16.6831C10.9203 16.4648 11.0698 16.1431 11.0574 15.718C11.0449 15.1896 11.0449 14.6611 11.0574 14.1211C11.0698 13.673 11.2318 13.5811 11.6679 13.7764C12.976 14.3739 14.2842 14.9713 15.6671 15.6146C15.3308 14.5117 15.0068 13.4663 14.6829 12.4323C14.5583 12.0302 14.4213 11.6395 14.3216 11.2374C14.2344 10.9157 14.3963 10.7664 14.7452 10.8468C15.094 10.9272 15.4304 11.0421 15.7668 11.1455C16.2153 11.2834 16.5642 11.157 16.7884 10.7664C17.075 10.2724 17.3491 9.77836 17.6481 9.28435C17.8724 8.90522 18.1215 8.90522 18.3582 9.28435C18.6448 9.75539 18.9064 10.2494 19.193 10.7204C19.4671 11.1685 19.7412 11.2719 20.2769 11.1111C20.5759 11.0306 20.8625 10.9272 21.1615 10.8468C21.61 10.7319 21.7844 10.8813 21.6474 11.3064C21.2362 12.685 20.8126 14.0407 20.389 15.4079C20.3766 15.4423 20.3766 15.4883 20.3392 15.6146Z" fill="#EB6E5D"/>
</g>
</svg>
