<svg width="1013" height="831" viewBox="0 0 1013 831" fill="none" xmlns="http://www.w3.org/2000/svg">
<path d="M263.683 699.973C108.654 869.749 340.175 1053.2 452.728 1039.62C787.066 999.281 1077.48 900.043 1210.89 815.552C1344.3 731.061 1324.17 605.885 1318.85 435.774C1313.53 265.662 1358.51 326.017 1183.97 132.147C1009.43 -61.7225 835.255 -114.835 700.788 -48.8682C566.321 17.0988 256.606 155.971 431.787 397.297C511.861 507.606 418.713 530.196 263.683 699.973Z" fill="url(#paint0_linear_30_437)"/>
<path d="M939.845 415.239C1043.18 316.391 1071.13 46.8649 1041.85 13.9345C954.889 -83.8858 852.572 -107.577 789.343 -81.3252C726.115 -55.073 678.127 72.6243 608.29 237.177C538.454 401.73 554.191 325.777 509.944 582.009C465.697 838.242 480.082 959.962 535.806 951.822C591.53 943.683 714.427 937.41 778.334 635.616C807.545 497.667 836.508 514.087 939.845 415.239Z" fill="url(#paint1_linear_30_437)"/>
<defs>
<linearGradient id="paint0_linear_30_437" x1="1175" y1="879.001" x2="309" y2="-28.9986" gradientUnits="userSpaceOnUse">
<stop stop-color="#7A43EE"/>
<stop offset="1" stop-color="#7A43EE" stop-opacity="0"/>
</linearGradient>
<linearGradient id="paint1_linear_30_437" x1="950.033" y1="-187.046" x2="1254.61" y2="781.614" gradientUnits="userSpaceOnUse">
<stop stop-color="#31225C"/>
<stop offset="1" stop-color="#31225C" stop-opacity="0"/>
</linearGradient>
</defs>
</svg>
