<svg width="83" height="32" viewBox="0 0 83 32" fill="none" xmlns="http://www.w3.org/2000/svg">
<path d="M10.7418 6.98085C4.90027 6.98085 0 9.37885 0 16.5729C0 22.2748 3.26684 25.8718 10.8803 25.8718C19.8225 25.8718 20.4039 20.1965 20.4039 20.1965H16.0574C16.0574 20.1965 15.1161 23.2606 10.6034 23.2606C6.92128 23.2606 4.26351 20.8626 4.26351 17.5054H20.8469V15.4005C20.8469 12.0966 18.6598 6.98085 10.7418 6.98085ZM10.5757 9.67194C14.0917 9.67194 16.4726 11.7502 16.4726 14.841H4.37425C4.37425 11.5637 7.50267 9.67194 10.5757 9.67194ZM20.8469 0V22.2748C20.8469 23.5271 20.7638 25.3122 20.7638 25.3122H24.8889C24.8889 25.3122 25.0274 24.0333 25.0274 22.8609C25.0274 22.8609 27.0761 25.9251 32.6408 25.9251C38.4823 25.9251 42.469 22.0083 42.469 16.413C42.469 11.1907 38.8145 7.00749 32.6408 7.00749C26.8546 7.00749 25.0827 10.0183 25.0827 10.0183V0H20.8469ZM31.5887 9.80516C35.5754 9.80516 38.0947 12.6561 38.0947 16.4396C38.0947 20.5162 35.1878 23.2073 31.6164 23.2073C27.3806 23.2073 25.0827 20.01 25.0827 16.4929C25.0827 13.189 27.1314 9.80516 31.5887 9.80516ZM52.7402 6.98085C43.9363 6.98085 43.3549 11.617 43.3549 12.363H47.7292C47.7292 12.363 47.9506 9.6453 52.4079 9.6453C55.3149 9.6453 57.5574 10.9242 57.5574 13.3755V14.2548H52.4079C45.5974 14.2548 41.9706 16.1732 41.9706 20.0633C41.9706 23.9001 45.2929 25.9784 49.8055 25.9784C55.9516 25.9784 57.9173 22.7011 57.9173 22.7011C57.9173 24.0067 58.028 25.2856 58.028 25.2856H61.9316C61.9316 25.2856 61.7932 23.6869 61.7932 22.6744V13.9351C61.8209 8.20649 57.0037 6.98085 52.7402 6.98085ZM57.5851 16.8659V18.0383C57.5851 19.557 56.6161 23.3405 50.8853 23.3405C47.7568 23.3405 46.4003 21.8218 46.4003 20.0899C46.4003 16.8926 50.9406 16.8659 57.5851 16.8659ZM59.4676 7.70025H64.3956L71.483 21.3422L78.5427 7.70025H83L70.1264 32H65.4476L69.1574 25.2323L59.4676 7.70025Z" fill="#929BB1"/>
</svg>
