<svg width="137" height="39" viewBox="0 0 137 39" fill="none" xmlns="http://www.w3.org/2000/svg">
<path d="M29.4741 7.17068C29.4741 6.98379 29.2835 6.8592 29.1565 6.8592C29.0294 6.8592 26.298 6.79691 26.298 6.79691C26.298 6.79691 24.0112 4.61658 23.8206 4.42969C23.5666 4.18051 23.1854 4.3051 22.9949 4.3051C22.9949 4.3051 22.5502 4.42969 21.8515 4.67887C21.7244 4.3051 21.5339 3.80674 21.2798 3.37068C20.454 1.8756 19.3106 1.06576 17.8496 1.06576C17.7226 1.06576 17.659 1.06576 17.532 1.06576C17.4685 1.00347 17.4685 0.94117 17.405 0.94117C16.7697 0.31822 16.0075 -0.0555509 15.0546 0.00674419C13.2125 0.0690393 11.3704 1.37724 9.90939 3.68215C8.82952 5.30183 8.06726 7.35756 7.81317 8.97723C5.71695 9.60019 4.19243 10.0985 4.19243 10.0985C3.11256 10.41 3.11256 10.4723 2.922 11.469C2.79496 12.092 0 33.3346 0 33.3346L23.4395 37.3215L33.603 34.8297C33.603 34.8297 29.4741 7.35756 29.4741 7.17068ZM17.5955 5.92478C16.3886 6.29855 15.0546 6.73461 13.6572 7.10838C14.0383 5.6756 14.737 4.24281 15.6263 3.37068C15.944 2.99691 16.3886 2.62314 16.9603 2.43625C17.4685 3.43297 17.5955 4.92805 17.5955 5.92478ZM15.0546 1.12806C15.4993 1.12806 15.8804 1.19035 16.1345 1.43953C15.6263 1.68871 15.1817 2.06248 14.6735 2.56084C13.5301 3.80674 12.5773 5.73789 12.2597 7.54445C11.1163 7.85592 10.0364 8.22969 9.02008 8.54117C9.71882 5.6133 12.1962 1.25265 15.0546 1.12806ZM11.4974 17.6985C11.6245 19.6297 16.8333 20.0658 17.0873 24.6133C17.3414 28.1641 15.1817 30.6559 12.0691 30.8428C8.32135 31.092 6.28865 28.9117 6.28865 28.9117L7.05091 25.61C7.05091 25.61 9.14713 27.1674 10.7987 27.0428C11.8786 26.9805 12.2597 26.1084 12.2597 25.4854C12.0691 22.9313 7.87669 23.1182 7.62261 18.9444C7.36852 15.4559 9.71882 11.9051 14.9276 11.5936C16.8968 11.469 17.9131 11.9674 17.9131 11.9674L16.7062 16.3281C16.7062 16.3281 15.3723 15.7674 13.8477 15.8297C11.4974 15.9543 11.4339 17.3871 11.4974 17.6985ZM18.8024 5.55101C18.8024 4.61658 18.6754 3.37068 18.2307 2.24937C19.6282 2.49855 20.327 4.05592 20.581 4.99035C20.0729 5.17724 19.5012 5.36412 18.8024 5.55101ZM47.0061 21.0625C45.8627 20.4395 45.2275 19.9412 45.2275 19.1936C45.2275 18.2592 46.0532 17.6985 47.3872 17.6985C48.9117 17.6985 50.2457 18.3215 50.2457 18.3215L51.3256 15.0822C51.3256 15.0822 50.3727 14.3346 47.4507 14.3346C43.4489 14.3346 40.6539 16.5772 40.6539 19.7543C40.6539 21.5608 41.9879 22.9313 43.7029 23.9281C45.1004 24.7379 45.6086 25.2985 45.6086 26.1084C45.6086 26.9805 44.9099 27.6658 43.5759 27.6658C41.6067 27.6658 39.8281 26.669 39.8281 26.669L38.6847 29.8461C38.6847 29.8461 40.3998 30.9674 43.2583 30.9674C47.3872 30.9674 50.3727 28.974 50.3727 25.3608C50.3092 23.4297 48.8482 22.0592 47.0061 21.0625ZM63.5217 14.2723C61.489 14.2723 59.901 15.2067 58.6306 16.6395L58.567 16.5772L60.3456 7.54445H55.7085L51.262 30.6559H55.8991L57.4236 22.7444C57.9953 19.7543 59.5834 17.9477 61.0444 17.9477C62.0607 17.9477 62.5054 18.633 62.5054 19.6297C62.5054 20.2526 62.4418 21.0002 62.3148 21.6231L60.5997 30.6559H65.2368L67.0154 21.3117C67.206 20.3149 67.333 19.1313 67.333 18.3838C67.333 15.8297 65.9355 14.2723 63.5217 14.2723ZM77.7506 14.2723C72.2242 14.2723 68.5399 19.1936 68.5399 24.6756C68.5399 28.1641 70.7632 30.9674 74.8921 30.9674C80.355 30.9674 84.0392 26.1707 84.0392 20.5641C83.9757 17.3871 82.0065 14.2723 77.7506 14.2723ZM75.4638 27.5412C73.8758 27.5412 73.2405 26.233 73.2405 24.6133C73.2405 21.9969 74.638 17.8231 77.1154 17.8231C78.7669 17.8231 79.2751 19.1936 79.2751 20.5641C79.2751 23.2428 77.8776 27.5412 75.4638 27.5412ZM95.7908 14.2723C92.6782 14.2723 90.8996 16.951 90.8996 16.951H90.8361L91.0901 14.5215H87.0248C86.8342 16.1412 86.4531 18.633 86.0719 20.5018L82.8958 37.0723H87.5329L88.8034 30.4067H88.9304C88.9304 30.4067 89.8832 30.9674 91.6618 30.9674C97.0612 30.9674 100.618 25.5477 100.618 20.0035C100.491 17.0133 99.1574 14.2723 95.7908 14.2723ZM91.3442 27.6035C90.1373 27.6035 89.4386 26.9182 89.4386 26.9182L90.2008 22.6822C90.709 19.8789 92.2335 18.01 93.8216 18.01C95.2191 18.01 95.6637 19.3182 95.6637 20.5018C95.7272 23.4297 93.9486 27.6035 91.3442 27.6035ZM107.098 7.79363C105.637 7.79363 104.43 8.91494 104.43 10.41C104.43 11.7805 105.319 12.6526 106.589 12.6526H106.653C108.114 12.6526 109.321 11.7182 109.384 10.0363C109.384 8.72806 108.495 7.79363 107.098 7.79363ZM100.618 30.6559H105.255L108.368 14.6461H103.731L100.618 30.6559ZM120.12 14.6461H116.943L117.134 13.8985C117.388 12.3412 118.341 10.9707 119.865 10.9707C120.691 10.9707 121.326 11.2199 121.326 11.2199L122.216 7.66904C122.216 7.66904 121.39 7.29527 119.738 7.29527C118.087 7.29527 116.435 7.73133 115.228 8.79035C113.64 10.0985 112.942 12.0297 112.56 13.8985L112.433 14.6461H110.274L109.575 18.0723H111.735L109.257 30.6559H113.894L116.308 18.01H119.484L120.12 14.6461ZM131.236 14.6461C131.236 14.6461 128.377 21.7477 127.043 25.6723H126.98C126.916 24.4264 125.837 14.6461 125.837 14.6461H121.009L123.804 29.3477C123.867 29.6592 123.867 29.8461 123.677 30.0953C123.169 31.092 122.216 32.0887 121.199 32.8362C120.31 33.4592 119.357 33.833 118.595 34.1444L119.865 38.0067C120.818 37.8199 122.724 37.0723 124.376 35.5772C126.472 33.6461 128.441 30.6559 130.41 26.6067L136.064 14.7707L131.236 14.6461Z" fill="#929BB1"/>
</svg>
