<svg width="68" height="32" viewBox="0 0 68 32" fill="none" xmlns="http://www.w3.org/2000/svg">
<path d="M7.28571 2.27488V11.3744C7.28571 11.3744 10.4732 11.3744 12.1429 11.2227C13.5089 10.9194 13.8125 10.9194 13.9643 9.5545L14.4196 7.58294H15.9375L15.7857 11.981L15.9375 16.3791H14.4196L14.1161 14.5592C13.6607 13.346 13.2054 13.1943 12.1429 13.0427C10.9286 12.891 7.28571 12.891 7.28571 12.891V20.4739C7.28571 21.9905 8.04464 22.5972 9.71429 22.5972H14.875C16.5446 22.5972 18.0625 22.4455 19.125 20.1706L20.4911 17.1374H21.7054C21.5536 17.7441 20.9464 23.2038 20.7946 24.4171C20.7946 24.4171 16.0893 24.2654 14.1161 24.2654H5.3125L0 24.4171V23.0521L1.66964 22.5972C3.03571 22.4455 3.33929 22.1422 3.33929 21.0806C3.33929 21.0806 3.49107 17.7441 3.49107 12.1327C3.49107 6.67299 3.33929 3.33649 3.33929 3.33649C3.33929 2.27488 3.03571 1.97156 1.66964 1.66825L0 1.51659V0.151659L5.16071 0.303318H15.0268C17 0.303318 20.3393 0 20.3393 0C20.3393 0 20.1875 2.12322 20.0357 6.9763H18.6696L18.2143 5.1564C17.7589 2.88152 17 1.81991 15.6339 1.81991H7.89286C7.28571 1.81991 7.28571 1.97156 7.28571 2.27488ZM27.1696 3.33649H28.6875V8.49289L33.6964 8.18957L33.3929 10.4645L28.3839 10.0095V19.109C28.3839 21.6872 29.2946 22.7488 30.6607 22.7488C32.0268 22.7488 32.9375 21.9905 33.3929 21.3839L34.1518 22.2938C33.3929 23.9621 31.2679 24.872 29.2946 24.872C26.8661 24.872 24.8929 23.3554 24.8929 20.6256V10.3128H22.0089V9.09953C24.7411 8.79621 26.5625 7.27962 27.1696 3.33649ZM37.7946 19.109L38.7054 21.3839C39.0089 22.2938 39.9196 23.3554 41.8929 23.3554C44.0179 23.3554 44.9286 22.2938 44.9286 20.9289C44.9286 16.6825 36.7321 17.8957 36.7321 12.2844C36.7321 9.09952 39.3125 7.58294 42.6518 7.58294C44.1696 7.58294 46.2946 7.88626 47.5089 8.34123C47.2054 9.70616 47.0536 11.2227 47.0536 12.5877L45.8393 12.7393L44.9286 10.3128C44.625 9.70616 43.7143 9.25118 42.5 9.25118C40.9821 9.25118 39.4643 9.85782 39.4643 11.5261C39.4643 15.3175 47.9643 14.5592 47.9643 20.1706C47.9643 23.3554 45.0804 25.1754 41.7411 25.1754C39.1607 25.1754 36.5804 24.1137 36.5804 24.1137C36.8839 22.5972 36.7321 21.0806 36.5804 19.4123C36.5804 19.109 37.7946 19.109 37.7946 19.109ZM47.5089 30.9384C47.8125 29.5735 48.1161 27.9052 48.4196 26.237L49.7857 26.0853L50.2411 28.6635C50.3929 29.2701 50.6964 29.7251 51.7589 29.7251C53.4286 29.7251 55.4018 28.8152 57.375 25.327C56.4643 23.2038 53.8839 16.5308 51.6071 11.2227C51 9.85782 50.8482 9.70616 50.0893 9.5545L49.4821 9.25118V8.18957L53.125 8.34123L57.6786 8.03791V9.25118L56.6161 9.5545C55.7054 9.70616 55.4018 10.1611 55.4018 10.6161C55.4018 10.7678 55.4018 10.9194 55.5536 11.0711C55.8571 11.8294 57.8304 17.2891 59.1964 21.0806C60.4107 18.5024 62.8393 12.7393 63.1429 11.6777C63.2946 11.2227 63.4464 11.0711 63.4464 10.7678C63.4464 10.1611 63.1429 9.70616 62.2321 9.5545L61.3214 9.25118V8.03791L64.8125 8.18957L68 8.03791V9.25118L67.3929 9.70616C66.0268 10.3128 65.875 10.4645 65.2679 11.3744L59.9554 24.1137C56.7679 31.3934 53.4286 32 51 32C49.4821 32 48.4196 31.545 47.5089 30.9384Z" fill="#929BB1"/>
</svg>
