<svg width="165" height="28" viewBox="0 0 165 28" fill="none" xmlns="http://www.w3.org/2000/svg">
<path d="M32.6884 14.8957C32.6537 14.6967 32.6537 14.5308 32.6537 14.3318C32.6537 12.7062 33.2078 11.4123 34.3505 10.4834C35.3893 9.58768 36.7398 9.12322 38.1249 9.12322C39.9255 9.12322 41.2067 9.75356 41.8993 11.0806L32.6884 14.8957ZM45.8814 12.5403C45.9161 10.7156 45.085 8.99052 43.596 7.82938C42.107 6.63507 40.2025 6.00474 37.9517 6.00474C36.532 6.00474 35.1123 6.30332 33.8657 6.93365C32.5498 7.59716 31.4071 8.55924 30.6107 9.78673C29.7104 11.1137 29.2602 12.673 29.2949 14.2654C29.2949 16.7204 30.1259 18.6777 31.8227 20.1706C33.4502 21.6303 35.6317 22.4597 37.8825 22.4265C40.5834 22.4265 42.9035 21.4313 44.8772 19.4739L42.8342 17.2844C41.7261 18.6445 40.0294 19.4076 38.2288 19.3744C36.3589 19.3744 34.9045 18.7441 33.7964 17.4834L45.8814 12.6066V12.5403ZM25.2781 7.03318C24.3085 7.66351 23.5121 8.52607 22.958 9.48815V6.27014H19.4953V22.1611H22.9927V15.3602C22.9927 13.5355 23.4428 12.109 24.3085 11.0142C25.1742 9.91943 26.4554 9.38863 28.1868 9.38863H28.3599V6.03791C27.2518 6.07109 26.1784 6.40284 25.2781 7.03318ZM58.4166 14.0995C57.9318 13.7678 57.3778 13.5024 56.8237 13.2701C56.3389 13.0711 55.8195 12.872 55.3001 12.7393C54.7807 12.5735 54.192 12.4408 53.5341 12.2749C52.9801 12.1422 52.4606 11.9763 51.9412 11.7773C51.4218 11.6114 51.1102 11.1469 51.1102 10.6161C51.0756 10.0853 51.3872 9.5545 51.9066 9.32228C52.5299 9.0237 53.2225 8.891 53.915 8.891C55.5079 8.891 57.0315 9.32228 58.3473 10.1848L59.6632 7.69668C58.0703 6.63507 56.1658 6.07109 54.2267 6.07109C52.2875 6.07109 50.7639 6.50237 49.5519 7.43128C48.3746 8.26066 47.7167 9.58768 47.7859 10.981C47.7859 13.0711 49.5173 14.564 52.9454 15.4597C53.0147 15.4929 53.1532 15.5261 53.3263 15.5592C55.5079 16.1896 56.6159 16.9194 56.6159 17.7156C56.6159 18.2464 56.3736 18.7441 55.958 19.0427C55.404 19.4076 54.7461 19.6066 54.0881 19.5735C52.2875 19.5735 50.4176 18.8768 48.4785 17.4834L46.7817 20.1043C47.8206 20.8673 48.9979 21.4645 50.2445 21.8626C51.4565 22.2607 52.7377 22.4597 54.0189 22.4929C55.8195 22.4929 57.2739 22.0284 58.4512 21.1327C59.5939 20.237 60.2172 18.91 60.1826 17.4834C60.0787 15.891 59.5247 14.7962 58.4166 14.0995ZM12.1542 11.7441C11.4271 12.5071 10.0073 12.872 7.96432 12.872H3.70514V4.51185H7.44491C9.41868 4.51185 10.9077 4.81043 11.8772 5.40758C12.8122 6.00474 13.297 7.03318 13.297 8.45972C13.2623 9.85308 12.8814 10.981 12.1542 11.7441ZM14.7513 3.11848C13.2277 1.92417 10.8038 1.29384 7.51417 1.29384H0V22.1943H3.70514V16.0237H7.58342C10.8038 16.0237 13.1584 15.4265 14.7167 14.2654C16.2749 13.0711 17.0714 11.2464 17.0714 8.69194C17.0367 6.17062 16.2749 4.3128 14.7513 3.11848ZM68.2508 19.5071C67.5929 19.5403 66.9349 19.3081 66.4848 18.8436C66.0693 18.346 65.8269 17.6825 65.8615 17.019V8.95735H70.2592V6.27014H65.8615V1.29384H62.3641V16.9858C62.3641 18.6777 62.8835 19.9716 63.957 21C64.9612 21.9621 66.3463 22.4929 67.766 22.4929C69.255 22.4929 70.6055 21.9621 71.8174 20.9005L70.3977 18.545C69.7398 19.1754 69.0126 19.5071 68.2508 19.5071ZM84.2833 17.981C83.383 18.9431 82.1018 19.4739 80.7859 19.4408C79.4355 19.4408 78.1542 18.9431 77.1847 18.0142C76.1459 17.0521 75.6611 15.7915 75.6611 14.2986C75.6264 12.9052 76.1459 11.5118 77.1501 10.4834C78.0504 9.52133 79.3662 8.95735 80.7513 8.95735C82.1018 8.92417 83.383 9.48815 84.2833 10.4834C85.2529 11.4787 85.703 12.7725 85.703 14.2986C85.7377 15.6588 85.2183 16.9858 84.2833 17.981ZM85.6684 9.0237C84.2487 7.03318 82.4481 6.03791 80.2665 6.03791C78.1543 6.00474 76.0766 6.80095 74.5876 8.26066C72.9948 9.75355 72.1983 11.7109 72.1983 14.1659C72.1983 16.6209 72.9948 18.6446 74.553 20.1706C75.9727 21.6303 77.9811 22.4597 80.0588 22.4265C81.1322 22.4265 82.2057 22.1611 83.1752 21.6967C84.1794 21.1991 85.0797 20.5024 85.703 19.6066V22.2275H89.2004V6.33649H85.6684V9.0237ZM140.934 17.981C138.822 19.9384 135.497 19.9384 133.385 17.981C132.381 16.9858 131.896 15.7583 131.896 14.2322C131.896 12.7062 132.381 11.4455 133.385 10.4834C135.497 8.52607 138.822 8.52607 140.934 10.4834C141.938 11.4787 142.423 12.7062 142.423 14.2322C142.423 15.7583 141.938 17.019 140.934 17.981ZM137.194 6.03791C134.701 6.03791 132.589 6.83412 130.927 8.42654C127.602 11.6445 127.602 16.8531 130.927 20.0711C132.589 21.6635 134.666 22.4597 137.194 22.4597C139.722 22.4597 141.765 21.6635 143.462 20.0711C146.786 16.8531 146.786 11.6445 143.462 8.42654C141.765 6.83412 139.687 6.03791 137.194 6.03791ZM159.944 17.981C159.009 18.91 157.694 19.4076 156.343 19.4076C154.993 19.4408 153.746 18.91 152.846 17.9479C151.876 16.9526 151.426 15.7251 151.426 14.2322C151.426 12.7393 151.876 11.4455 152.846 10.4502C153.746 9.48815 155.027 8.92417 156.378 8.92417C157.763 8.92417 159.044 9.45498 159.979 10.4502C160.983 11.4787 161.537 12.872 161.468 14.2654C161.468 15.7915 160.949 17.0521 159.944 17.981ZM162.611 8.26066C161.087 6.80095 159.044 6.00474 156.897 6.03791C154.681 6.03791 152.88 7.03317 151.495 9.05687V6.30332H147.998V28H151.495V19.8057C153.157 21.564 155.027 22.4265 157.14 22.4265C159.252 22.4265 161.052 21.6635 162.645 20.1374C164.238 18.6114 165 16.6209 165 14.1327C165 11.6445 164.169 9.72038 162.611 8.26066ZM120.296 6.03791C119.153 6.03791 118.01 6.33649 117.041 6.8673C116.071 7.3981 115.275 8.19431 114.79 9.1564V0H111.293V22.1611H114.79V13.5687C114.79 12.0758 115.24 10.9479 116.141 10.218C117.006 9.45498 118.149 9.05687 119.292 9.05687C121.82 9.05687 123.101 10.5166 123.101 13.4692V22.1943H126.598V12.4076C126.598 10.3507 126.009 8.72512 124.867 7.63033C123.724 6.56872 122.166 6.03791 120.296 6.03791ZM107.103 12.109C105.96 11.1801 104.298 10.4502 102.047 9.91943C99.7964 9.38863 98.3421 8.92417 97.6495 8.45972C96.9916 8.02844 96.6107 7.29858 96.6107 6.53555C96.5761 5.77251 96.957 5.04265 97.6495 4.64455C98.446 4.21327 99.3463 3.98104 100.281 4.01422C101.389 4.01422 102.497 4.18009 103.536 4.54502C104.506 4.8436 105.406 5.30806 106.168 5.90521L108.142 3.25118C107.103 2.4218 105.891 1.79147 104.575 1.39336C103.225 0.962085 101.839 0.729858 100.42 0.763033C98.2728 0.763033 96.4376 1.29384 94.9832 2.32227C93.5288 3.35071 92.8017 4.87678 92.8017 6.80095C92.8017 8.72512 93.4596 10.1517 94.7408 11.1137C95.3987 11.6114 96.1605 12.0427 96.957 12.3081C98.1343 12.7062 99.3809 13.0711 100.627 13.3033C102.22 13.6682 103.328 14.0995 104.021 14.5308C104.679 14.9621 105.025 15.6588 105.025 16.4218C105.06 17.1848 104.644 17.9147 103.986 18.346C103.294 18.8104 102.359 19.0758 101.147 19.0758C98.7922 19.0758 96.5068 18.1469 94.2907 16.3223L91.9706 18.9763C94.6023 21.2322 97.6495 22.3602 101.043 22.3602C103.398 22.3602 105.268 21.7962 106.687 20.6682C108.072 19.6066 108.869 17.9479 108.834 16.2227C108.8 14.3981 108.211 13.1043 107.103 12.109Z" fill="#929BB1"/>
</svg>
