<svg width="154" height="42" viewBox="0 0 154 42" fill="none" xmlns="http://www.w3.org/2000/svg">
<path d="M18.3764 0L0.0634766 10.508V31.4966L5.29113 34.5008L5.25422 13.5077L18.3395 5.99934L31.4248 13.5077V34.4916L36.6524 31.4966V10.4897L18.3764 0ZM20.9695 34.4962L18.358 36.0052L15.7326 34.51V13.5077L10.5096 16.5074L10.5188 37.5005L18.3533 42L26.1971 37.5005V16.5074L20.9695 13.5077V34.4962ZM48.6258 10.6365L55.8144 28.6895H55.8743L62.8876 10.6365H65.6237V31.3223H63.732V13.2967H63.672C63.5751 13.6224 63.469 13.9526 63.3536 14.2783C63.2567 14.5489 63.1414 14.847 63.0168 15.1727C62.8922 15.5029 62.7769 15.8102 62.6846 16.0992L56.6587 31.3223H54.9423L48.8565 16.1037C48.7411 15.8331 48.6211 15.5396 48.5058 15.2231C48.3904 14.9066 48.2797 14.5993 48.1828 14.3104C48.0675 13.9618 47.9475 13.6224 47.8321 13.2967H47.7722V31.3223H45.9773V10.6365H48.6258ZM71.1236 31.4094C70.5607 31.2535 70.0301 30.9874 69.5687 30.6297C69.1303 30.2811 68.7751 29.8362 68.5351 29.3271C68.2814 28.8088 68.1568 28.1988 68.1568 27.5062C68.1568 26.6209 68.3229 25.8963 68.6505 25.3367C68.9735 24.7817 69.4349 24.323 69.9885 23.9928C70.5514 23.658 71.2066 23.4011 71.9541 23.2268C72.7431 23.0479 73.5459 22.9103 74.3534 22.8232C75.0916 22.7452 75.7191 22.6627 76.2313 22.5755C76.7434 22.4884 77.1633 22.3737 77.4817 22.2407C77.8 22.1077 78.0353 21.9288 78.1784 21.7041C78.3214 21.4793 78.3952 21.1766 78.3952 20.7913V20.5023C78.3952 19.4795 78.0861 18.7227 77.4632 18.232C76.8403 17.7412 75.9498 17.4935 74.7871 17.4935C72.1064 17.4935 70.6991 18.6035 70.5653 20.8234H68.7889C68.8858 19.3786 69.4256 18.2182 70.4038 17.3513C71.382 16.4844 72.84 16.0487 74.7825 16.0487C76.4297 16.0487 77.7308 16.4111 78.6813 17.1357C79.6318 17.8604 80.107 19.0438 80.107 20.6812V28.8088C80.107 29.2537 80.1901 29.5748 80.3562 29.7766C80.5223 29.9784 80.7714 30.0885 81.099 30.1114C81.2005 30.1114 81.302 30.1022 81.4036 30.0839C81.5097 30.0655 81.6296 30.0334 81.7681 29.9967H81.8557V31.2993C81.6942 31.3635 81.5328 31.4186 81.362 31.4599C81.1221 31.5149 80.8776 31.5378 80.633 31.5333C79.9732 31.5333 79.4518 31.3635 79.0596 31.0241C78.6675 30.6847 78.4552 30.1481 78.4183 29.4188V29.1023H78.3399C78.1046 29.4188 77.8462 29.7215 77.5693 30.0013C77.2417 30.327 76.8772 30.6113 76.4758 30.8407C76.0098 31.1067 75.5115 31.3085 74.9901 31.4461C74.4272 31.6021 73.7859 31.68 73.0707 31.6754C72.4109 31.68 71.7557 31.5929 71.1236 31.4094ZM75.5576 29.8362C76.1897 29.5748 76.7157 29.2445 77.1448 28.8363C77.9569 28.0795 78.4183 27.02 78.4275 25.9146V23.2222C77.9431 23.4928 77.3525 23.6992 76.665 23.846C75.9775 23.9928 75.2623 24.112 74.5241 24.2084C73.8828 24.3047 73.2922 24.4056 72.7477 24.5111C72.2033 24.6166 71.7326 24.7817 71.3358 25.0156C70.9436 25.2404 70.616 25.566 70.39 25.9559C70.1546 26.3503 70.0393 26.8686 70.0393 27.5062C70.0393 28.0245 70.1316 28.4602 70.3161 28.8088C70.4868 29.1436 70.7406 29.428 71.0451 29.6481C71.3635 29.8683 71.7234 30.0197 72.1064 30.0976C72.5262 30.1848 72.9599 30.2306 73.3891 30.2261C74.2057 30.2261 74.9255 30.0976 75.5576 29.8362ZM84.9471 35.4503C83.9366 34.7072 83.3645 33.7761 83.2307 32.657H84.9748C85.1317 33.5239 85.6023 34.1476 86.3867 34.5238C87.1711 34.8999 88.1077 35.0879 89.1966 35.0879C90.8069 35.0879 91.9973 34.7072 92.7632 33.9458C93.5291 33.1844 93.9121 32.1387 93.9121 30.804V28.4327H93.8244C93.2615 29.2812 92.6109 29.9233 91.8727 30.3682C91.1345 30.8131 90.1932 31.0333 89.0489 31.0333C88.0569 31.0333 87.1664 30.8498 86.3728 30.4829C85.5884 30.1251 84.8917 29.6023 84.3334 28.951C83.7705 28.2951 83.3368 27.5108 83.0369 26.5934C82.737 25.6761 82.5847 24.667 82.5847 23.5708C82.5847 22.3554 82.7601 21.2821 83.1061 20.3464C83.4522 19.4107 83.9182 18.6264 84.5042 17.9889C85.0717 17.3651 85.773 16.8697 86.5574 16.5441C87.3464 16.2184 88.1907 16.0487 89.0443 16.0533C90.2071 16.0533 91.1668 16.2918 91.9235 16.7642C92.6802 17.2366 93.3123 17.8788 93.8152 18.686H93.9029V16.3652H95.6885V30.7443C95.6885 32.4001 95.2225 33.744 94.2904 34.7668C93.1462 35.964 91.4667 36.5602 89.2566 36.5602C87.3925 36.5602 85.9576 36.1887 84.9471 35.4503ZM92.837 27.8777C93.6353 26.7769 94.0321 25.3321 94.0321 23.5387C94.0321 22.6535 93.9352 21.8417 93.7414 21.1078C93.5476 20.3739 93.2477 19.741 92.837 19.2135C92.4356 18.686 91.9096 18.2641 91.3098 17.9843C90.6961 17.6953 89.9856 17.5485 89.1689 17.5485C87.674 17.5485 86.5159 18.0989 85.69 19.1952C84.8641 20.2914 84.4534 21.7591 84.4534 23.5938C84.4488 24.3872 84.5457 25.1807 84.7441 25.9513C84.9379 26.6714 85.2286 27.2998 85.6161 27.8318C85.9945 28.3547 86.4928 28.7813 87.0695 29.0748C87.6509 29.3729 88.3384 29.5243 89.1366 29.5243C90.8023 29.5243 92.0342 28.9739 92.837 27.8777ZM101.945 31.1067C101.096 30.7306 100.344 30.1664 99.7488 29.4601C99.1582 28.7583 98.706 27.9281 98.3969 26.9695C98.0878 26.0109 97.9309 24.9743 97.9309 23.8598C97.9309 22.7406 98.097 21.7041 98.4246 20.75C98.7522 19.796 99.2136 18.9658 99.8042 18.2641C100.39 17.5623 101.128 16.9981 101.959 16.6129C102.803 16.2184 103.749 16.0212 104.797 16.0212C106.001 16.0212 107.011 16.2459 107.837 16.7C108.645 17.1357 109.332 17.7641 109.844 18.5209C110.356 19.2823 110.721 20.1538 110.938 21.1399C111.15 22.1398 111.261 23.158 111.256 24.1763H99.7903C99.8042 24.9743 99.9241 25.7678 100.155 26.5338C100.358 27.2172 100.681 27.8593 101.115 28.4281C101.534 28.9739 102.079 29.4096 102.702 29.7032C103.343 30.0105 104.091 30.1664 104.944 30.1664C106.204 30.1664 107.182 29.8637 107.869 29.2537C108.557 28.6437 109.046 27.8318 109.337 26.809H111.085C110.758 28.2951 110.075 29.483 109.046 30.3682C108.017 31.2535 106.647 31.6984 104.944 31.6984C103.818 31.6984 102.817 31.5011 101.945 31.1067ZM109.046 20.6904C108.852 20.0437 108.571 19.4841 108.202 19.0117C107.828 18.5347 107.353 18.154 106.804 17.8971C106.241 17.6265 105.572 17.4935 104.797 17.4935C104.021 17.4935 103.348 17.6265 102.771 17.8971C102.194 18.154 101.682 18.5347 101.271 19.0117C100.852 19.507 100.524 20.0712 100.298 20.6766C100.049 21.3463 99.8872 22.048 99.818 22.759H109.364C109.351 22.0572 109.244 21.3646 109.046 20.6904ZM115.303 16.3652V18.6493H115.363C115.879 17.888 116.558 17.2504 117.356 16.7826C118.182 16.2918 119.192 16.0441 120.396 16.0441C121.794 16.0441 122.943 16.4432 123.848 17.2458C124.752 18.0485 125.204 19.1997 125.2 20.7042V31.3269H123.396V20.8785C123.396 19.741 123.091 18.9062 122.477 18.3741C121.864 17.8421 121.024 17.5761 119.958 17.5806C119.34 17.5761 118.731 17.6861 118.154 17.9017C117.61 18.1035 117.107 18.4017 116.668 18.7824C116.244 19.1539 115.898 19.6125 115.662 20.1262C115.418 20.6629 115.293 21.2454 115.298 21.8325V31.3269H113.498V16.3652H115.303ZM129.855 30.8177C129.334 30.4004 129.071 29.7124 129.071 28.7492V17.8421H126.801V16.3652H129.071V11.7648H130.875V16.3652H133.671V17.8421H130.875V28.4602C130.875 29.0014 130.995 29.3729 131.239 29.5748C131.484 29.7766 131.844 29.8775 132.328 29.8775C132.55 29.8775 132.767 29.8499 132.983 29.8041C133.168 29.7674 133.348 29.7124 133.523 29.6436H133.611V31.1755C133.076 31.3544 132.513 31.4415 131.95 31.4369C131.078 31.4369 130.376 31.2305 129.855 30.8177ZM139.009 31.1067C138.165 30.726 137.413 30.1618 136.813 29.4555C136.209 28.7537 135.747 27.9236 135.429 26.9695C135.11 26.0155 134.949 24.9789 134.949 23.8598C134.949 22.7406 135.11 21.7041 135.429 20.75C135.747 19.796 136.209 18.9658 136.813 18.2595C137.413 17.5531 138.165 16.9936 139.009 16.6083C139.872 16.2138 140.85 16.0166 141.935 16.0166C143.019 16.0166 143.992 16.2138 144.846 16.6083C145.686 16.9936 146.429 17.5577 147.028 18.2595C147.633 18.9612 148.085 19.7914 148.394 20.75C148.703 21.7086 148.856 22.7452 148.86 23.8598C148.86 24.9789 148.703 26.0155 148.394 26.9695C148.085 27.9236 147.628 28.7537 147.028 29.4555C146.429 30.1573 145.686 30.7214 144.846 31.1067C143.992 31.5011 143.023 31.6984 141.935 31.6984C140.846 31.6984 139.872 31.5011 139.009 31.1067ZM144.149 29.7032C144.781 29.3821 145.33 28.9189 145.75 28.3455C146.179 27.7676 146.498 27.0934 146.71 26.3182C147.139 24.7083 147.139 23.0112 146.71 21.4013C146.498 20.6262 146.179 19.9519 145.75 19.374C145.33 18.8007 144.781 18.3374 144.149 18.0164C143.508 17.6861 142.774 17.521 141.939 17.5256C141.104 17.5302 140.361 17.6907 139.711 18.0164C139.078 18.342 138.534 18.8053 138.11 19.374C137.671 19.9519 137.348 20.6262 137.136 21.4013C136.711 23.0112 136.711 24.7083 137.136 26.3182C137.348 27.0888 137.671 27.763 138.11 28.3455C138.534 28.9143 139.083 29.3775 139.711 29.7032C140.343 30.0288 141.086 30.1939 141.939 30.1939C142.793 30.1939 143.531 30.0288 144.149 29.7032ZM151.167 18.8512C150.051 18.8512 149.275 18.0806 149.275 16.9293C149.275 15.7781 150.069 14.9984 151.167 14.9984C152.265 14.9984 153.063 15.7781 153.063 16.9293C153.063 18.0806 152.27 18.8512 151.167 18.8512ZM151.167 15.2185C150.267 15.2185 149.548 15.8331 149.548 16.9248C149.548 18.0164 150.263 18.6218 151.167 18.6218C152.071 18.6218 152.796 18.0072 152.796 16.9248C152.796 15.8423 152.071 15.2185 151.167 15.2185ZM151.725 17.9568L151.084 17.044H150.876V17.9246H150.507V15.7873H151.158C151.605 15.7873 151.905 16.012 151.905 16.4111C151.905 16.7184 151.739 16.9156 151.472 16.9981L152.09 17.8696L151.725 17.9568ZM151.163 16.1267H150.876V16.7551H151.144C151.384 16.7551 151.536 16.6541 151.536 16.4386C151.536 16.223 151.402 16.1221 151.163 16.1267Z" fill="#929BB1"/>
</svg>
