<svg width="138" height="32" viewBox="0 0 138 32" fill="none" xmlns="http://www.w3.org/2000/svg">
<path d="M80.0471 16.9982C80.0471 13.861 78.6293 11.066 73.9033 11.066C71.4812 11.066 69.5317 11.7504 68.5274 12.3209L69.2954 14.8307C70.2406 14.2603 71.7765 13.7469 73.2534 13.7469C75.6755 13.7469 76.03 15.0588 76.03 15.9144V16.1426C70.8313 16.1426 67.5231 17.8538 67.5231 21.4474C67.5231 23.615 69.1772 25.6685 72.131 25.6685C73.9033 25.6685 75.4392 24.984 76.3253 23.8431H76.3844C76.3844 23.8431 76.9752 26.2389 80.2834 25.3262C80.1062 24.2995 80.0471 23.2727 80.0471 21.9608V16.9982ZM76.1481 20.3066C76.1481 20.5348 76.1481 20.82 76.03 21.0481C75.7346 22.0178 74.6712 22.8164 73.3716 22.8164C72.3082 22.8164 71.4221 22.246 71.4221 20.9911C71.4221 19.1087 73.6079 18.5383 76.089 18.5954M0 6.78788C0 6.78788 3.42637 20.2496 3.95805 22.4742C4.60788 25.041 5.73031 25.9537 9.03853 25.3262L11.1652 16.9412C11.6969 14.8877 12.0514 13.4046 12.4058 11.2941H12.4649C12.7012 13.4046 13.0557 14.8877 13.4692 16.9982C13.4692 16.9982 14.3553 20.82 14.7688 22.8164C15.1824 24.8128 16.4229 26.0677 19.6721 25.3832L24.7526 6.84492H20.6764L18.9041 14.8877C18.4315 17.2264 18.018 19.0517 17.7226 21.1622C17.4272 19.0517 17.0728 17.2834 16.6002 15.0018L14.7688 6.78788H10.5154L8.56592 14.7736C8.03425 17.2264 7.50257 19.1658 7.20719 21.2193H7.14812C6.79366 19.2799 6.38014 16.8271 5.90753 14.4884C5.90753 14.4884 4.7851 8.78431 4.37158 6.84492M36.2723 16.9982C36.2723 13.861 34.8545 11.066 30.1284 11.066C27.7063 11.066 25.7569 11.7504 24.7526 12.3209L25.5205 14.8307C26.4658 14.2603 28.0017 13.7469 29.4786 13.7469C31.9007 13.7469 32.2551 15.0588 32.2551 15.9144V16.1426C27.0565 16.1426 23.7483 17.8538 23.7483 21.4474C23.7483 23.615 25.4615 25.6685 28.3562 25.6685C30.1875 25.6685 31.6644 24.984 32.5505 23.8431H32.6687C32.6687 23.8431 33.2594 26.2389 36.5676 25.3262C36.3904 24.2995 36.3313 23.2727 36.3313 21.9608V16.9982H36.2723ZM32.3733 20.3066C32.3733 20.5348 32.3733 20.82 32.2551 21.0481C31.9598 22.0178 30.8964 22.8164 29.5967 22.8164C28.5334 22.8164 27.6473 22.246 27.6473 20.9911C27.6473 19.1087 29.833 18.5383 32.3142 18.5954M38.399 6.78788V25.3262H42.2979V21.3904V6.78788H38.399ZM92.0394 6.78788V20.4777C92.0394 22.3601 92.3938 23.672 93.2209 24.4706C93.9298 25.1551 95.0522 25.6114 96.411 25.6114C97.5925 25.6114 98.7149 25.3832 99.2466 25.2121L99.1875 22.246C98.774 22.3601 98.3014 22.4171 97.7106 22.4171C96.3519 22.4171 95.9384 21.6185 95.9384 19.9073V14.6595H99.3647V11.123H95.9384V6.73084M81.9375 11.4082V25.3262H85.9546V18.1961C85.9546 17.7968 85.9546 17.4545 86.0137 17.1693C86.3091 15.6863 87.4906 14.7166 89.2038 14.7166C89.6764 14.7166 90.0308 14.7736 90.3853 14.8307V11.18C90.0899 11.123 89.8536 11.123 89.4991 11.123C87.9632 11.123 86.25 12.0357 85.5411 14.0891H85.423V11.4082M44.6019 11.4082V25.3262H48.5599V17.1123C48.5599 16.713 48.619 16.3137 48.7372 15.9715C49.0325 15.1159 49.8596 14.2032 51.1002 14.2032C52.6952 14.2032 53.4041 15.5152 53.4041 17.3405V25.2692H57.3031V17.0553C57.3031 16.713 57.3622 16.2567 57.4803 15.9144C57.7757 15.0018 58.6618 14.2032 59.8433 14.2032C61.4384 14.2032 62.2063 15.4581 62.2063 17.6827V25.3262H66.1053V17.1123C66.1053 12.7772 63.8604 11.066 61.2611 11.066C60.1387 11.066 59.2526 11.3512 58.4255 11.8075C57.7166 12.2068 57.1259 12.7772 56.5942 13.5187H56.5351C55.8853 12.0357 54.4675 11.0089 52.5771 11.0089C50.155 11.0089 49.0325 12.2068 48.3827 13.2335H48.3236V11.4082M120.396 10.7807C121.164 10.7807 121.813 10.3815 121.872 9.86809L122.64 1.48307C122.64 0.627451 121.636 0 120.396 0C119.155 0 118.151 0.684492 118.151 1.48307L118.919 9.86809C118.978 10.3815 119.628 10.7807 120.396 10.7807ZM115.67 13.3476C116.024 12.7201 116.024 11.9786 115.61 11.6364L108.521 6.84492C107.753 6.44563 106.69 6.90196 106.04 7.98574C105.39 9.01248 105.509 10.2103 106.277 10.6096L114.193 14.1462C114.665 14.3743 115.315 14.0321 115.67 13.3476ZM125.062 13.3476C125.476 13.975 126.126 14.3173 126.598 14.1462L134.515 10.6096C135.223 10.2103 135.342 9.01248 134.751 7.98574C134.101 6.959 132.979 6.44563 132.27 6.84492L125.122 11.6364C124.708 11.9786 124.708 12.7201 125.062 13.3476ZM120.396 21.2193C121.164 21.2193 121.813 21.6185 121.872 22.1319L122.64 30.5169C122.64 31.3726 121.636 32 120.396 32C119.155 32 118.151 31.3155 118.151 30.5169L118.919 22.1319C118.978 21.5615 119.628 21.2193 120.396 21.2193ZM125.062 18.5954C125.476 17.9679 126.126 17.6257 126.598 17.7968L134.515 21.3333C135.223 21.7326 135.342 22.9305 134.751 23.9572C134.101 24.984 132.979 25.4973 132.27 25.098L125.122 20.2496C124.708 19.9643 124.708 19.2228 125.062 18.5954ZM115.67 18.5954C116.024 19.2228 116.024 19.9643 115.61 20.3066L108.521 25.098C107.753 25.4973 106.69 25.041 106.04 23.9572C105.39 22.9305 105.509 21.7326 106.277 21.3333L114.193 17.7968C114.665 17.5686 115.315 17.9109 115.67 18.5954ZM136.818 24.3565H136.937C137.055 24.3565 137.114 24.4135 137.114 24.5276C137.114 24.6417 137.173 24.6988 137.173 24.7558H137.409C137.409 24.7558 137.35 24.6417 137.35 24.5276C137.35 24.4135 137.232 24.3565 137.173 24.2995C137.291 24.2995 137.35 24.1854 137.35 24.0713C137.35 23.9572 137.291 23.9002 137.291 23.8431C137.232 23.7861 137.114 23.7861 136.937 23.7861C136.759 23.7861 136.641 23.7861 136.582 23.8431V24.7558H136.818V24.3565ZM136.878 23.9572H136.996C137.114 23.9572 137.232 24.0143 137.232 24.1283C137.232 24.2424 137.114 24.2424 136.996 24.2424H136.878V23.9572ZM136.996 23.3298C136.464 23.3298 135.991 23.7291 135.991 24.2424C135.991 24.7558 136.405 25.2121 136.996 25.2121C137.586 25.2121 138 24.8128 138 24.2424C138 23.7291 137.586 23.3298 136.996 23.3298ZM136.996 23.5009C137.409 23.5009 137.764 23.8431 137.764 24.2424C137.764 24.6417 137.468 24.984 136.996 24.984C136.582 24.984 136.228 24.6417 136.228 24.2424C136.228 23.8431 136.582 23.5009 136.996 23.5009Z" fill="#929BB1"/>
</svg>
