<svg width="73" height="42" viewBox="0 0 73 42" fill="none" xmlns="http://www.w3.org/2000/svg">
<path d="M0 0.510267V18.6499H9.6433C13.4393 18.6499 16.9506 17.3347 16.9506 13.4825C16.9506 10.8809 15.0453 9.68789 12.9502 9.06981C14.2277 8.56674 15.6731 7.50308 15.6731 5.28234C15.6731 2.43635 12.8115 0.510267 8.9498 0.510267H0ZM5.9057 4.73614H8.0811C8.9644 4.73614 9.636 5.41889 9.636 6.10883C9.636 6.74846 8.9352 7.4384 8.0811 7.4384H5.9057V4.73614ZM5.9057 11.2043H8.7746C9.7747 11.2043 10.6142 11.9517 10.6142 12.807C10.6142 13.7125 9.8258 14.4671 8.5994 14.4671H5.9057V11.2043ZM4.7815 20.6263V38.7587H14.4248C18.2208 38.7587 21.7321 37.4435 21.7321 33.5914C21.7321 30.9897 19.8268 29.7967 17.7317 29.1786C19.0092 28.6756 20.4546 27.6119 20.4546 25.3912C20.4546 22.5452 17.593 20.6191 13.7313 20.6191H4.7815V20.6263ZM10.6872 24.845H12.8626C13.7459 24.845 14.4175 25.5277 14.4175 26.2177C14.4175 26.8573 13.7167 27.5472 12.8626 27.5472H10.6872V24.845ZM10.6872 31.3131H13.5561C14.5562 31.3131 15.3957 32.0606 15.3957 32.9158C15.3957 33.8214 14.6073 34.576 13.3809 34.576H10.6872V31.3131ZM17.4105 18.6427V0.510267H32.266V4.88706H23.3016V7.26591H30.5797V11.3696H23.3016V14.2803H32.266V18.6427H17.4105ZM40.3179 19.1602C44.5008 19.1602 47.8442 16.8101 47.8442 13.0082C47.8442 6.86345 39.7266 7.81211 39.7266 5.90041C39.7266 5.16016 40.515 4.77207 41.3253 4.77207C42.7196 4.77207 43.727 5.67762 43.727 5.67762L47.2164 2.4076C45.8221 1.09959 43.6175 0 40.6464 0C36.1861 0 33.2661 2.60883 33.2661 5.74949C33.2661 11.9661 41.2669 11.0678 41.2669 13.0154C41.2669 13.6982 40.5953 14.3881 39.3835 14.3881C38.0038 14.3881 36.9161 13.5688 36.0693 12.8788L32.558 16.1776C33.9669 17.5287 36.2372 19.1602 40.3179 19.1602ZM52.3921 18.6427V4.87269H47.523V0.510267H63.1596V4.87269H58.2905V18.6427H52.3921ZM21.9292 20.6119H27.8203V31.4784C27.8203 32.578 28.9372 33.5986 30.0979 33.5986C31.1929 33.5986 32.3025 32.6786 32.3025 31.4209V20.6119H38.179V31.3419C38.179 35.6037 34.5874 38.9959 29.9446 38.9959C25.2726 38.9959 21.9292 35.3018 21.9292 31.1119V20.6119ZM45.4425 38.7444V32.2618L38.5221 20.6047H44.4789L48.399 26.8501L52.3337 20.6047H58.3051L51.3555 32.3265V38.7372H45.4425V38.7444ZM58.2978 30.537L54.823 33.9579V38.5791L58.2978 42H73V30.537H58.2978ZM56.9473 37.0339C56.5166 37.0339 56.1662 36.6889 56.1662 36.2649C56.1662 35.8409 56.5166 35.4959 56.9473 35.4959C57.378 35.4959 57.7284 35.8409 57.7284 36.2649C57.7284 36.6889 57.378 37.0339 56.9473 37.0339Z" fill="#929BB1"/>
</svg>
