<svg width="109" height="32" viewBox="0 0 109 32" fill="none" xmlns="http://www.w3.org/2000/svg">
<path d="M67.6227 25.0182C61.2876 29.5669 52.1108 32 44.2009 32C33.1235 32 23.1322 27.9978 15.5844 21.3686C14.987 20.8397 15.5301 20.1344 16.236 20.5399C24.3811 25.1592 34.463 27.9273 44.8706 27.9273C51.8936 27.9273 59.6043 26.5168 66.6996 23.5725C67.7856 23.1317 68.6725 24.2601 67.6227 25.0182ZM70.2654 22.0915C69.4509 21.0865 64.9077 21.6154 62.8804 21.8446C62.265 21.9152 62.1564 21.3862 62.7175 21.016C66.3376 18.53 72.2745 19.2529 72.9804 20.0815C73.6682 20.9102 72.7994 26.7107 69.3965 29.4964C68.8716 29.9196 68.3829 29.6904 68.6001 29.1262C69.3603 27.2749 71.0799 23.0964 70.2654 22.0915ZM63.0071 3.49091V1.07548C63.0071 0.705234 63.2967 0.458402 63.6407 0.458402H74.7361C75.0981 0.458402 75.3696 0.705234 75.3696 1.07548V3.13829C75.3696 3.49091 75.0619 3.93168 74.537 4.65455L68.7811 12.659C70.917 12.6061 73.1795 12.9234 75.0981 13.9813C75.5325 14.2281 75.6592 14.5807 75.6954 14.9157V17.4898C75.6954 17.8424 75.2972 18.2479 74.8809 18.0364C71.4781 16.2909 66.9349 16.097 63.17 18.054C62.7899 18.2656 62.3736 17.8424 62.3736 17.5074V15.0567C62.3736 14.6689 62.3736 13.9989 62.7899 13.3994L69.4509 4.10799H63.6588C63.2967 4.10799 63.0071 3.86116 63.0071 3.49091ZM22.553 18.5477H19.1863C18.8605 18.53 18.6071 18.2832 18.589 17.9835V1.12837C18.589 0.793388 18.8786 0.528926 19.2406 0.528926H22.3901C22.7159 0.546556 22.9874 0.793388 23.0055 1.09311V3.29697H23.0598C23.8743 1.16364 25.4309 0.176309 27.4944 0.176309C29.6121 0.176309 30.9334 1.16364 31.8746 3.29697C32.6891 1.16364 34.5535 0.176309 36.5264 0.176309C37.9382 0.176309 39.4949 0.740496 40.4361 2.02755C41.504 3.43802 41.2868 5.50083 41.2868 7.3168V17.9658C41.2868 18.3008 40.9972 18.5829 40.6352 18.5829H37.2685C36.9246 18.5653 36.6531 18.3008 36.6531 17.9658V8.99174C36.6531 8.2865 36.7255 6.50578 36.5626 5.83581C36.3092 4.70744 35.549 4.39008 34.5716 4.39008C33.7571 4.39008 32.9063 4.91901 32.5624 5.76529C32.2185 6.61157 32.2547 8.03967 32.2547 8.99174V17.9306C32.2547 18.2656 31.9651 18.5477 31.6031 18.5477H28.2365C27.8926 18.53 27.6211 18.2656 27.6211 17.9306V8.99174C27.6211 7.10523 27.9469 4.33719 25.5395 4.33719C23.1141 4.33719 23.2046 7.03471 23.2046 8.99174V17.9306C23.2046 18.2832 22.915 18.5477 22.553 18.5477ZM84.9266 0.158678C89.9404 0.158678 92.6373 4.35482 92.6373 9.67934C92.6373 14.8275 89.6508 18.9003 84.9266 18.9003C80.0033 18.9003 77.3426 14.7041 77.3426 9.4854C77.3245 4.24904 80.0395 0.158678 84.9266 0.158678ZM84.9447 3.59669C82.465 3.59669 82.3021 6.89366 82.3021 8.95647C82.3021 11.0193 82.2659 15.427 84.9085 15.427C87.5149 15.427 87.6416 11.8832 87.6416 9.7146C87.6416 8.2865 87.5873 6.59394 87.1348 5.23636C86.7728 4.0551 86.0126 3.59669 84.9447 3.59669ZM99.1172 18.5477H95.7506C95.4067 18.53 95.1352 18.2656 95.1352 17.9306V1.05785C95.1714 0.740496 95.4429 0.511295 95.7868 0.511295H98.9181C99.2077 0.528926 99.4611 0.722865 99.5154 0.987328V3.56143H99.5697C100.511 1.25179 101.832 0.158678 104.167 0.158678C105.688 0.158678 107.154 0.687603 108.113 2.15096C109 3.50854 109 5.76529 109 7.40496V18.0187C108.964 18.3185 108.674 18.5477 108.348 18.5477H104.982C104.674 18.53 104.421 18.3008 104.384 18.0187V8.85069C104.384 6.99945 104.602 4.30193 102.267 4.30193C101.452 4.30193 100.692 4.83085 100.312 5.6595C99.8412 6.68209 99.7689 7.72231 99.7689 8.85069V17.9306C99.7869 18.2832 99.4792 18.5477 99.1172 18.5477ZM54.1742 10.4904V9.78512C51.7307 9.78512 49.1604 10.2964 49.1604 13.0997C49.1604 14.5102 49.9206 15.4799 51.2057 15.4799C52.147 15.4799 52.9977 14.9157 53.5407 13.9813C54.2104 12.8353 54.1742 11.7774 54.1742 10.4904ZM57.5771 18.4948C57.3598 18.6887 57.034 18.7063 56.7806 18.5653C55.6584 17.6661 55.4593 17.243 54.8439 16.3791C52.9977 18.2127 51.6763 18.7769 49.2871 18.7769C46.4454 18.7769 44.2371 17.0667 44.2371 13.6639C44.2371 11.0017 45.7214 9.18567 47.8391 8.2865C49.6672 7.49311 52.2375 7.3697 54.1923 7.1405V6.71736C54.1923 5.9416 54.2466 5.00716 53.776 4.33719C53.3597 3.73774 52.5814 3.47328 51.8755 3.47328C50.5903 3.47328 49.45 4.10799 49.1604 5.44793C49.1061 5.74766 48.8889 6.02975 48.5812 6.04738L45.305 5.7124C45.0335 5.6595 44.7258 5.4303 44.7982 5.02479C45.5585 1.16364 49.1242 0 52.3461 0C53.9932 0 56.129 0.423141 57.4322 1.63967C59.0794 3.13829 58.9165 5.13058 58.9165 7.29917V12.4121C58.9165 13.946 59.5681 14.6336 60.1835 15.4623C60.4007 15.762 60.455 16.1146 60.1654 16.3438C59.4776 16.8904 58.2649 17.9306 57.5771 18.4948ZM9.93706 10.4904V9.78512C7.49352 9.78512 4.92328 10.2964 4.92328 13.0997C4.92328 14.5102 5.68349 15.4799 6.96862 15.4799C7.90983 15.4799 8.76054 14.9157 9.30355 13.9813C9.97326 12.8353 9.93706 11.7774 9.93706 10.4904ZM13.3399 18.4948C13.1227 18.6887 12.7969 18.7063 12.5435 18.5653C11.4213 17.6661 11.2222 17.243 10.6068 16.3791C8.76054 18.2127 7.43922 18.7769 5.04998 18.7769C2.20824 18.7769 0 17.0667 0 13.6639C0 10.984 1.48422 9.16804 3.60196 8.2865C5.43009 7.49311 8.00033 7.3697 9.95516 7.1405V6.71736C9.95516 5.9416 10.0095 5.00716 9.53886 4.33719C9.12255 3.73774 8.34424 3.47328 7.63833 3.47328C6.35321 3.47328 5.21289 4.10799 4.92328 5.44793C4.86898 5.74766 4.65178 6.02975 4.34407 6.04738L1.06792 5.7124C0.796413 5.6595 0.488708 5.4303 0.561109 5.02479C1.32132 1.16364 4.90518 0 8.10893 0C9.75606 0 11.8919 0.423141 13.1951 1.63967C14.8422 3.13829 14.6793 5.13058 14.6793 7.29917V12.4121C14.6793 13.946 15.331 14.6336 15.9464 15.4623C16.1636 15.762 16.2179 16.1146 15.9283 16.3438C15.2586 16.8904 14.0277 17.9306 13.3399 18.4948Z" fill="#929BB1"/>
</svg>
