<svg width="198" height="38" viewBox="0 0 198 38" fill="none" xmlns="http://www.w3.org/2000/svg">
<path d="M19.6265 19.81C19.6265 22.7289 18.7465 25.1883 16.9817 27.1799C15.1392 29.266 12.747 30.3123 9.81654 30.3123C6.87951 30.3123 4.49388 29.2644 2.65142 27.1799C0.88656 25.1883 0 22.7289 0 19.81C0 16.8813 0.88656 14.4236 2.65142 12.4385C4.5137 10.3719 6.90757 9.33865 9.81654 9.33865C12.747 9.33865 15.1392 10.3719 16.9817 12.4385C18.7465 14.4236 19.6265 16.8813 19.6265 19.81ZM13.7937 19.81C13.7937 18.4882 13.4734 17.3718 12.8312 16.4689C12.113 15.4438 11.1076 14.9337 9.8182 14.9337C8.52715 14.9337 7.52338 15.4438 6.80356 16.4689C6.15474 17.3718 5.83446 18.4882 5.83446 19.81C5.83446 21.1252 6.15474 22.2547 6.80356 23.1837C7.52173 24.2088 8.52715 24.7205 9.8182 24.7205C11.1092 24.7205 12.113 24.2104 12.8312 23.1837C13.4717 22.2547 13.7937 21.1236 13.7937 19.81ZM40.7174 19.81C40.7174 22.5366 39.9216 24.921 38.3235 26.9582C36.6148 29.1894 34.4091 30.3123 31.7296 30.3123C29.8393 30.3123 28.2345 29.768 26.922 28.6939C26.922 28.9417 26.9501 29.5414 27.0062 30.4997C27.0624 31.4629 27.0888 32.2485 27.0888 32.8678C27.0888 36.292 26.0569 38 23.9916 38C23.1463 38 22.4562 37.7034 21.9048 37.1183C21.36 36.5267 21.0892 35.8161 21.0892 34.9768V12.7074C21.0892 11.8941 21.3682 11.1917 21.9263 10.6001C22.4843 10.015 23.176 9.71839 23.9982 9.71839C25.2397 9.71839 26.1461 10.3296 26.719 11.5503C27.939 10.0769 29.6081 9.33865 31.7213 9.33865C34.4074 9.33865 36.6049 10.4404 38.3218 12.652C39.915 14.699 40.7174 17.0817 40.7174 19.81ZM34.8846 19.81C34.8846 18.4882 34.5577 17.3718 33.9155 16.4689C33.1956 15.4438 32.1919 14.9337 30.9008 14.9337C29.6098 14.9337 28.606 15.4438 27.8862 16.4689C27.244 17.3718 26.9237 18.4882 26.9237 19.81C26.9237 21.1252 27.244 22.2547 27.8862 23.1837C28.6043 24.2088 29.6098 24.7205 30.9008 24.7205C32.1919 24.7205 33.1956 24.2104 33.9155 23.1837C34.5577 22.2547 34.8846 21.1236 34.8846 19.81ZM61.9403 19.1907C61.9403 20.1539 61.7092 20.8156 61.2486 21.1872C60.788 21.5522 60.0698 21.738 59.1007 21.738H48.5726C48.5726 22.8398 49.0959 23.6873 50.1426 24.2789C50.9863 24.7417 52.0198 24.9764 53.2398 24.9764C54.1891 24.9764 55.3266 24.6651 56.6589 24.054C57.9912 23.433 58.8497 23.1299 59.2196 23.1299C59.8964 23.1299 60.4677 23.3711 60.9431 23.8665C61.4104 24.3555 61.6481 24.9487 61.6481 25.63C61.6481 27.206 60.4545 28.4332 58.0688 29.3149C56.2478 29.975 54.3988 30.3139 52.5084 30.3139C49.4657 30.3139 47.0108 29.3149 45.1337 27.3249C43.2565 25.3333 42.3155 22.8332 42.3155 19.81C42.3155 16.9302 43.2912 14.4725 45.2459 12.4206C47.1924 10.367 49.6143 9.34191 52.5018 9.34191C55.1879 9.34191 57.4349 10.3133 59.2344 12.256C61.0339 14.1954 61.9403 16.5097 61.9403 19.1907ZM56.1092 17.7434C56.0811 16.8617 55.67 16.0631 54.8743 15.3395C54.0785 14.6175 53.2349 14.259 52.3417 14.259C51.4205 14.259 50.562 14.6159 49.7679 15.3395C48.9721 16.0631 48.5742 16.8617 48.5742 17.7434H56.1092ZM81.5387 26.9093C81.5387 27.7503 81.2663 28.4593 80.7232 29.0525C80.1718 29.6392 79.48 29.9342 78.6364 29.9342C76.5991 29.9342 75.5805 28.3354 75.5805 25.1475C75.5805 24.5347 75.6234 23.5699 75.7059 22.2416C75.7967 20.9183 75.8397 19.9485 75.8397 19.3357C75.8397 15.9539 74.7302 14.2606 72.518 14.2606C70.3057 14.2606 69.2045 15.9539 69.2045 19.3357C69.2045 19.9485 69.2392 20.9199 69.3019 22.2416C69.3712 23.5715 69.4059 24.5347 69.4059 25.1475C69.4059 28.337 68.4005 29.9342 66.3929 29.9342C65.5476 29.9342 64.8575 29.6376 64.3127 29.0525C63.7613 28.4593 63.4889 27.7519 63.4889 26.9093V12.7025C63.4889 11.8681 63.7613 11.1591 64.3127 10.5871C64.8575 10.0085 65.5542 9.72002 66.3995 9.72002C67.7946 9.72002 68.7637 10.3312 69.3085 11.5519C70.2512 10.0786 71.917 9.34028 74.3043 9.34028C76.5166 9.34028 78.2748 9.91885 79.5658 11.0679C80.885 12.3016 81.5404 13.9949 81.5404 16.1511V26.9093H81.5387ZM99.8395 26.2965C99.8395 27.5987 98.9827 28.6304 97.2657 29.3899C95.9053 30.0027 94.4277 30.3172 92.9336 30.3123C89.9949 30.3123 87.6093 29.2644 85.7685 27.1799C84.0036 25.1883 83.1171 22.7289 83.1171 19.81C83.1171 16.8829 84.0168 14.4105 85.8246 12.3847C87.6307 10.354 89.9966 9.34028 92.9352 9.34028C94.6308 9.34028 96.0886 9.58801 97.3036 10.0769C98.9975 10.7386 99.8412 11.7703 99.8412 13.1768C99.8412 13.8857 99.6183 14.5132 99.1709 15.0576C98.7251 15.5954 98.1522 15.8708 97.4555 15.8708C96.9801 15.8708 96.2966 15.7127 95.4034 15.4031C94.5103 15.0853 93.7987 14.9337 93.277 14.9337C91.8885 14.9337 90.8055 15.4226 90.0312 16.4005C89.3131 17.2822 88.9498 18.4116 88.9498 19.81C88.9498 21.1252 89.2701 22.2416 89.9206 23.1429C90.6371 24.1974 91.6508 24.7205 92.9402 24.7205C93.5131 24.7205 94.294 24.5559 95.2911 24.2169C96.29 23.8877 97.0081 23.715 97.4539 23.715C98.1027 23.715 98.6607 23.9904 99.1362 24.5266C99.6034 25.0709 99.8395 25.656 99.8395 26.2965ZM121.043 26.9093C121.043 27.7503 120.77 28.4593 120.227 29.0525C119.676 29.6392 118.979 29.9342 118.134 29.9342C116.864 29.9342 115.958 29.3214 115.413 28.1023C114.193 29.5773 112.524 30.3123 110.411 30.3123C107.705 30.3123 105.486 29.1894 103.769 26.9582C102.205 24.9194 101.419 22.5366 101.419 19.81C101.419 17.0834 102.207 14.699 103.769 12.6536C105.514 10.442 107.724 9.34028 110.411 9.34028C112.524 9.34028 114.193 10.0769 115.413 11.5519C115.958 10.3312 116.864 9.72002 118.134 9.72002C118.958 9.72002 119.649 10.015 120.207 10.6017C120.764 11.1933 121.043 11.8893 121.043 12.7025V26.9093ZM115.21 19.81C115.21 18.4882 114.89 17.3718 114.247 16.4689C113.501 15.4438 112.496 14.9337 111.234 14.9337C109.943 14.9337 108.94 15.4438 108.22 16.4689C107.571 17.3718 107.251 18.4882 107.251 19.81C107.251 21.1252 107.563 22.2547 108.183 23.1837C108.925 24.2088 109.943 24.7205 111.234 24.7205C112.524 24.7205 113.529 24.2104 114.247 23.1837C114.89 22.2547 115.21 21.1236 115.21 19.81ZM135.924 12.3228C135.924 13.5549 135.317 14.4024 134.103 14.8636C132.981 15.2368 131.863 15.6149 130.747 16.0077C129.525 16.6971 128.919 17.9781 128.919 19.8377V26.911C128.919 27.7519 128.64 28.4609 128.097 29.0541C127.544 29.6408 126.847 29.9358 126.004 29.9358C125.154 29.9358 124.455 29.6392 123.912 29.0541C123.359 28.4609 123.088 27.7536 123.088 26.911V12.7025C123.088 11.8681 123.361 11.1591 123.904 10.5871C124.455 10.0085 125.154 9.72002 125.997 9.72002C127.392 9.72002 128.361 10.3312 128.906 11.5519C130.154 10.0786 131.495 9.34028 132.939 9.34028C133.762 9.34028 134.467 9.63527 135.053 10.222C135.63 10.8136 135.924 11.516 135.924 12.3228ZM151.141 12.5835C151.141 13.8646 150.631 14.6697 149.621 15.0152C149.124 15.1863 148.084 15.2759 146.5 15.2759V26.9077C146.5 27.7487 146.221 28.4576 145.678 29.0509C145.125 29.6376 144.428 29.9326 143.585 29.9326C142.763 29.9326 142.063 29.636 141.505 29.0509C140.948 28.4576 140.669 27.7503 140.669 26.9077V15.2776C139.469 15.2776 138.597 15.126 138.046 14.831C137.293 14.4171 136.92 13.6674 136.92 12.5852C136.92 11.5046 137.305 10.768 138.079 10.3736C138.602 10.0835 139.467 9.93352 140.669 9.93352V7.46766C140.669 4.56828 141.638 3.12266 143.585 3.12266C145.525 3.12266 146.5 4.56828 146.5 7.46766V9.93352C148.084 9.93352 149.124 10.0232 149.621 10.1943C150.631 10.5382 151.141 11.3384 151.141 12.5835ZM198 9.08603C197.983 7.31772 194.675 6.51587 186.108 6.51587C166.008 6.51587 160.908 5.66838 155.452 0C157.748 3.40299 159.003 9.78847 180.249 9.47066C202.415 9.1333 188.892 15.113 184.958 21.8684C192.053 15.6166 197.979 11.4965 198 9.11374V9.08603ZM169.756 27.2402C169.756 28.883 168.385 30.2357 166.721 30.2357C165.039 30.2357 163.68 28.8928 163.68 27.2402V27.2385C163.68 25.5925 165.052 24.2381 166.719 24.2381C166.719 24.2381 166.719 24.2381 166.721 24.2381C168.397 24.2381 169.756 25.5811 169.756 27.2402ZM183.597 27.2402C183.597 28.883 182.227 30.2357 180.563 30.2357C178.882 30.2357 177.522 28.8928 177.522 27.2402V27.2385C177.522 25.5925 178.894 24.2381 180.561 24.2381C180.561 24.2381 180.561 24.2381 180.563 24.2381C182.238 24.2381 183.597 25.5811 183.597 27.2402Z" fill="#929BB1"/>
</svg>
