<svg width="135" height="50" viewBox="0 0 135 50" fill="none" xmlns="http://www.w3.org/2000/svg">
<path d="M133.898 24.5971L133.425 25.291C132.66 26.3653 131.986 27.2829 131.378 27.9991C130.771 28.7153 130.231 29.3196 129.736 29.7896C129.263 30.2596 128.814 30.6401 128.431 30.9087C128.274 31.0206 128.139 31.1101 128.004 31.1996C128.274 29.5434 128.521 27.9543 128.769 26.4772C128.881 25.761 129.016 25.0224 129.128 24.3062C129.263 23.5676 129.376 22.8738 129.511 22.2247C129.623 21.5756 129.736 20.9937 129.848 20.4566C129.961 19.9418 130.028 19.5389 130.096 19.248C130.141 19.0689 130.163 18.9346 130.163 18.8004C130.163 18.2184 129.871 17.9051 129.623 17.7484C129.083 17.4127 128.296 17.368 127.464 17.6365C127.104 17.7484 126.744 17.9275 126.406 18.1513C126.069 18.3751 125.777 18.6661 125.507 19.0018C125.237 19.3375 125.057 19.7404 124.944 20.188L123.729 25.3133C123.684 25.6714 123.594 26.1191 123.437 26.6338C123.279 27.171 123.077 27.6858 122.852 28.1782C122.605 28.6705 122.335 29.0734 122.02 29.4091C121.75 29.7001 121.457 29.8568 121.12 29.8568C120.94 29.8568 120.782 29.812 120.692 29.7225C120.557 29.6329 120.467 29.4987 120.377 29.342C120.287 29.1629 120.22 28.9615 120.197 28.7153C120.152 28.4691 120.13 28.2005 120.13 27.932C120.13 27.3948 120.175 26.7681 120.265 26.0519C120.355 25.3357 120.49 24.5971 120.625 23.8585C120.782 23.12 120.962 22.3814 121.165 21.6652C121.367 20.9714 121.57 20.3447 121.772 19.8299C121.84 19.6285 121.907 19.4494 121.93 19.2704C121.975 19.0913 121.975 18.9346 121.975 18.778C121.975 18.0842 121.66 17.7261 121.39 17.547C120.647 17.0322 119.545 17.0546 118.51 17.6365C117.948 17.9499 117.52 18.3975 117.205 18.9794C116.846 19.718 116.508 20.4566 116.238 21.1504C115.946 21.8666 115.721 22.6276 115.518 23.4109C115.338 24.1943 115.181 25 115.091 25.8505C115.046 26.1862 115.046 26.5891 115.023 26.9696V27.2381C114.978 27.2829 114.933 27.3053 114.888 27.3277C114.573 27.5291 114.258 27.7305 113.921 27.932C113.606 28.1334 113.269 28.3124 112.976 28.4467C112.684 28.6034 112.391 28.7153 112.121 28.8048C111.874 28.8944 111.649 28.9167 111.536 28.9391C111.536 28.9391 111.514 28.9167 111.469 28.872C111.379 28.7601 111.311 28.6258 111.221 28.4244C111.131 28.2229 111.064 27.9767 110.997 27.7305C110.929 27.4843 110.907 27.2158 110.907 26.9472V26.7681C110.929 26.5443 110.974 26.3205 111.041 26.0967C111.109 25.8505 111.154 25.6267 111.221 25.4252C111.266 25.2238 111.334 25.0224 111.401 24.8433C111.469 24.6867 111.514 24.5524 111.559 24.4405C112.076 23.4109 112.661 22.3366 113.269 21.2623C113.876 20.1656 114.483 19.0689 115.091 17.9275C115.698 16.8084 116.283 15.667 116.846 14.5255C117.408 13.3841 117.903 12.2202 118.33 11.0788C118.758 9.93733 119.095 8.7735 119.343 7.65443C119.59 6.51298 119.725 5.37153 119.725 4.27484C119.725 3.78245 119.68 3.26768 119.613 2.79767C119.523 2.30528 119.388 1.83527 119.185 1.43241C118.983 1.00716 118.668 0.671441 118.308 0.402865C117.925 0.134288 117.43 0 116.868 0C116.081 0 115.271 0.246195 114.528 0.716204C113.786 1.16383 113.089 1.81289 112.414 2.59624C111.761 3.37959 111.109 4.29722 110.524 5.34915C109.939 6.37869 109.377 7.52014 108.859 8.70636C108.364 9.89257 107.892 11.1683 107.487 12.4664C107.082 13.7645 106.745 15.0627 106.452 16.3384C106.16 17.6141 105.935 18.8899 105.777 20.0985C105.62 21.3071 105.552 22.4485 105.552 23.4781C105.552 24.8209 105.665 26.1415 105.89 27.3724C105.89 27.4172 105.912 27.462 105.912 27.5067L105.845 27.5739C105.575 27.7977 105.305 28.0215 105.057 28.2453C104.788 28.4467 104.54 28.6482 104.293 28.8048C104.045 28.9615 103.82 29.0958 103.618 29.1853C103.438 29.2748 103.28 29.2972 103.168 29.2972C103.078 29.2972 102.853 29.2972 102.673 28.8496C102.515 28.4243 102.425 27.8872 102.425 27.2158C102.425 26.8129 102.448 26.3429 102.493 25.8505C102.538 25.3581 102.605 24.8433 102.695 24.3286C102.785 23.8138 102.853 23.3214 102.965 22.829L103.235 21.4637C103.325 21.0385 103.393 20.6804 103.438 20.3894C103.483 20.0761 103.528 19.8299 103.528 19.6956C103.528 18.778 103.325 18.017 102.943 17.4799C102.538 16.8979 101.976 16.607 101.256 16.607C100.626 16.607 100.041 16.7413 99.5234 16.9875C98.9835 17.256 98.5111 17.7261 98.1062 18.4199C98.0162 18.5542 97.9037 18.778 97.7462 19.0689C97.5887 19.3599 97.4088 19.6956 97.2063 20.0761C97.0038 20.4566 96.8014 20.8371 96.5764 21.2399C96.3514 21.6428 96.1265 22.0457 95.9465 22.4038L95.5866 23.0752C95.5866 23.0304 95.6091 22.9857 95.6091 22.9185C95.6541 22.6052 95.7216 22.2471 95.7665 21.889L95.924 20.7923C95.969 20.4342 96.014 20.1209 96.059 19.8075C96.104 19.4942 96.104 19.248 96.104 19.0689C96.104 18.3751 95.969 17.7932 95.6766 17.3456C95.3616 16.8532 94.8217 16.607 94.0568 16.607C93.337 16.607 92.752 16.8308 92.3246 17.256C91.9197 17.6589 91.6272 18.1737 91.4923 18.7556C91.3348 19.427 91.1548 20.2775 90.9748 21.2399C90.8399 21.9338 90.7274 22.6723 90.6374 23.4333C90.2325 23.6795 89.8275 23.8809 89.4001 24.06C88.8827 24.2614 88.3878 24.3733 87.9154 24.3733C87.7804 24.3733 87.6454 24.3509 87.5329 24.3062C87.4204 24.2614 87.3305 24.1719 87.218 24.06C87.1055 23.9257 87.038 23.7466 86.9705 23.5228C86.903 23.2766 86.858 22.9633 86.858 22.5828C86.858 22.359 86.8805 22.068 86.948 21.7323C87.0155 21.3742 87.0605 20.9937 87.128 20.6132C87.1955 20.2328 87.263 19.8523 87.3305 19.4942C87.3979 19.1137 87.4204 18.8227 87.4204 18.6213C87.4204 18.308 87.3529 18.0394 87.2405 17.7932C87.128 17.547 86.9705 17.3232 86.768 17.1665C86.5881 16.9875 86.3631 16.8756 86.0932 16.786C85.8457 16.6965 85.5982 16.6517 85.3283 16.6517C84.6084 16.6517 83.9785 16.8532 83.4386 17.2337C82.9212 17.5918 82.4488 18.0394 82.0663 18.5542C81.6614 19.0689 81.324 19.6285 81.0315 20.2104C80.919 20.4118 80.829 20.6133 80.7165 20.8147C80.7165 20.5909 80.7165 20.3671 80.7165 20.1209V18.5765C80.7165 18.1961 80.7166 17.9051 80.6941 17.7037C80.6716 17.4351 80.6041 17.2113 80.4691 17.0322C80.3341 16.8532 80.1316 16.7189 79.8617 16.6741C79.6592 16.6517 79.4118 16.6294 79.0968 16.6294C78.8044 16.6294 78.5794 16.6517 78.3769 16.6741C78.152 16.7189 77.927 16.786 77.7695 16.9203C77.6121 17.0322 77.4771 17.1889 77.3421 17.3903C77.2296 17.5694 77.1396 17.7932 77.0272 18.0618C76.8697 18.4646 76.7122 18.957 76.5547 19.5613C76.3973 20.1432 76.2623 20.7923 76.1048 21.5085C75.9473 22.2247 75.8124 22.9633 75.6774 23.7466C75.5424 24.53 75.4299 25.291 75.3175 26.0519C75.25 26.5219 75.205 26.9472 75.16 27.3948V27.4172C74.9125 27.5962 74.5976 27.8424 74.2601 28.0439C73.8552 28.3124 73.4278 28.5363 73.0228 28.7601C72.6179 28.9615 72.258 29.1406 71.898 29.2525C71.3806 29.4315 70.9307 29.4763 70.7957 29.342C70.7282 29.2748 70.6607 29.1853 70.6382 29.051C70.5932 28.872 70.5482 28.6705 70.5482 28.4244C70.5482 28.1558 70.5257 27.8648 70.5257 27.5515C70.5257 27.4396 70.5482 27.2158 70.6157 26.6786C70.6832 26.231 70.7732 25.7162 70.8857 25.1343L71.2456 23.2319C71.3806 22.5604 71.4931 21.889 71.6056 21.2399C71.718 20.5909 71.808 20.009 71.8755 19.4718C71.943 18.9123 71.988 18.487 71.988 18.1513C71.988 17.838 71.8755 17.3903 71.2906 17.0322C70.8857 16.786 70.3458 16.6741 69.6934 16.6741C69.131 16.6741 68.5911 16.786 68.1411 16.9875C67.6237 17.2337 67.3088 17.547 67.2413 17.9499L65.5316 26.7234C65.4416 27.1486 65.3066 27.5291 65.1491 27.8648C64.9917 28.2005 64.7892 28.4691 64.5867 28.6929C64.3843 28.9167 64.1593 29.0734 63.9343 29.1853C63.6194 29.342 63.282 29.4091 63.0795 29.2748C62.9895 29.2077 62.922 29.1406 62.877 29.0286C62.8095 28.9167 62.7645 28.7601 62.7195 28.6258C62.6746 28.4691 62.6746 28.2901 62.6746 28.1334C62.6746 28.0886 62.6971 27.932 62.742 27.6186C62.787 27.2829 62.877 26.8129 62.967 26.2534L63.282 24.3286C63.3944 23.6124 63.5294 22.8738 63.6419 22.1128C63.7769 21.3518 63.8894 20.5909 64.0243 19.8523C64.1368 19.1137 64.2493 18.4199 64.3618 17.7484C64.3618 17.5022 64.2493 17.1665 63.7544 16.9203C63.4394 16.7637 62.967 16.6741 62.2471 16.6517C61.8197 16.6741 61.4148 16.786 61.0548 17.0098C60.7174 17.2113 60.4249 17.4799 60.1775 17.8156C59.9525 18.1289 59.7275 18.4646 59.5701 18.8451C59.4126 19.2032 59.2551 19.5837 59.1426 19.9418C59.0302 20.2999 58.9402 20.6356 58.8727 20.9266C58.8052 21.2399 58.7602 21.4637 58.7377 21.6428C58.4678 23.2319 58.2203 24.6195 58.0178 25.8953C57.9953 25.9176 57.9728 25.94 57.9503 25.9624C57.8829 26.0295 57.8379 26.0743 57.7704 26.1415C57.3429 26.4996 56.9155 26.8353 56.4431 27.1486C55.9932 27.462 55.5207 27.7753 55.0483 28.0439C54.5759 28.3124 54.126 28.5586 53.6986 28.7377C53.2711 28.9391 52.8887 29.0958 52.5512 29.1853C52.2138 29.2972 51.9438 29.342 51.7414 29.342C51.4039 29.342 51.089 29.2972 50.7965 29.1853C50.5266 29.0958 50.3241 28.9391 50.1441 28.7153C49.9642 28.4915 49.8067 28.1782 49.7167 27.7977C49.6042 27.3948 49.5592 26.9024 49.5592 26.3205C49.5592 26.0743 49.5592 25.8281 49.5592 25.5372C49.5592 25.2462 49.5817 24.9552 49.5817 24.6419L49.6492 22.7842C49.6717 22.1352 49.7167 21.4637 49.7617 20.7923C50.0317 20.4566 50.3241 20.0761 50.6391 19.6732C50.954 19.2704 51.2465 18.8675 51.5614 18.4646H58.0403C58.4228 18.4646 58.7827 18.2856 59.0752 17.9722C59.3676 17.6589 59.5251 17.2337 59.5251 16.7413C59.5251 16.3608 59.4576 16.0251 59.3226 15.7565C59.1651 15.4208 58.8727 15.2193 58.5128 15.197C58.3103 15.1746 58.0628 15.1746 57.7479 15.1522L56.7805 15.1074C56.4431 15.1074 56.0832 15.085 55.7007 15.0627C55.3183 15.0403 54.9808 15.0403 54.6659 15.0179C54.3959 15.0179 54.1485 14.9955 53.9235 14.9955C54.216 14.5031 54.5084 14.0107 54.8009 13.5184C55.1833 12.8469 55.5207 12.1531 55.7907 11.504C56.0832 10.8326 56.3081 10.1835 56.4656 9.53447C56.6231 8.88541 56.7131 8.23635 56.7131 7.65443C56.7131 6.96061 56.6231 6.28917 56.4656 5.64011C56.3081 4.99105 56.0607 4.40913 55.7457 3.91674C55.4308 3.42435 55.0483 2.9991 54.5984 2.70815C54.126 2.39481 53.6086 2.23814 53.0237 2.23814C52.1463 2.23814 51.3139 2.61862 50.5491 3.37959C49.8292 4.09579 49.1318 5.03581 48.5244 6.19964C47.917 7.34109 47.3771 8.68398 46.8822 10.1388C46.4323 11.5264 46.0498 12.9588 45.7349 14.436C45.6899 14.436 45.6449 14.436 45.5774 14.436H45.4199C45.105 14.436 44.7675 14.4136 44.3851 14.4136C44.1152 14.4136 43.8452 14.3912 43.5752 14.3912H43.1478C42.6979 14.3912 42.293 14.436 41.933 14.4808C41.5506 14.5479 41.2131 14.6374 40.9432 14.7941C40.6057 14.9731 40.4033 15.2865 40.4033 15.6446C40.4033 15.7565 40.4033 15.8908 40.4258 16.0474C40.4483 16.2489 40.4933 16.4279 40.5832 16.607C40.6732 16.786 40.8307 16.9651 41.0332 17.0994C41.2356 17.2337 41.4831 17.3232 41.843 17.3456C42.4729 17.4127 42.9453 17.4799 43.2603 17.5246C43.5752 17.5694 43.8452 17.6141 44.0702 17.6589C44.2726 17.7037 44.4751 17.7484 44.6776 17.7708C44.8125 17.7932 44.97 17.8156 45.15 17.8603C45.06 18.5094 44.9925 19.1808 44.9475 19.8523C44.88 20.6356 44.8575 21.3966 44.8575 22.0904C44.8575 23.2095 44.925 24.3286 45.0375 25.47C44.6101 25.8953 44.0702 26.3429 43.4403 26.8129C42.8104 27.2829 42.1355 27.7305 41.4156 28.1334C40.7182 28.5363 39.9758 28.872 39.2335 29.1406C38.5136 29.4091 37.8162 29.5434 37.1638 29.5434C36.9838 29.5434 36.8039 29.521 36.6239 29.4763C36.4664 29.4315 36.3314 29.3868 36.1965 29.2748C36.0615 29.1853 35.904 29.051 35.769 28.872C35.7016 28.7825 35.6116 28.6705 35.5216 28.5363C36.3764 28.2677 37.2088 27.9096 37.9512 27.4843C38.8285 26.9696 39.6159 26.3876 40.2683 25.7386C40.9207 25.0895 41.4381 24.3733 41.798 23.6124C42.1805 22.8514 42.3604 22.068 42.3604 21.3071C42.3604 20.6132 42.2255 19.9642 41.978 19.3823C41.7305 18.8004 41.3706 18.308 40.9207 17.9051C40.4708 17.5022 39.9533 17.1889 39.3459 16.9651C38.761 16.7413 38.1087 16.6294 37.4113 16.6294C36.5564 16.6294 35.7915 16.786 35.0942 17.077C34.3968 17.368 33.7669 17.7708 33.227 18.2856C32.6871 18.778 32.1921 19.3599 31.7872 20.0313C31.3823 20.6804 31.0448 21.3742 30.7749 22.068C30.5049 22.7842 30.3025 23.5004 30.1675 24.2614C30.0325 25 29.965 25.7162 29.965 26.3653C29.965 27.35 30.1 28.3124 30.3924 29.2077C30.4374 29.3868 30.5274 29.5434 30.5949 29.7001C30.235 29.9239 29.92 30.103 29.6276 30.2596C29.1551 30.4834 28.6827 30.6625 28.2553 30.7968C27.4229 31.043 26.6806 31.0877 26.2981 30.7073C26.0732 30.4834 25.8932 30.1701 25.7357 29.7896C25.5782 29.3868 25.4433 28.8944 25.3083 28.3348C25.1958 27.7529 25.0383 27.171 24.9034 26.5443C24.7459 25.9176 24.5659 25.2686 24.3409 24.6195C24.116 23.9481 23.8235 23.299 23.4411 22.6947C23.0587 22.0904 22.5862 21.5309 22.0013 21.0385C21.7314 20.8147 21.4389 20.5909 21.1015 20.3894C21.9338 20.2775 22.6987 20.1432 23.4186 19.9418C24.4984 19.6509 25.4883 19.2704 26.3431 18.8227C27.198 18.3751 27.9403 17.8603 28.5702 17.2784C29.1776 16.7189 29.6951 16.1146 30.1 15.4879C30.5049 14.8612 30.7974 14.2346 30.9998 13.5855C31.2023 12.9364 31.2923 12.3098 31.2923 11.7278C31.2923 10.8326 31.1348 10.0045 30.8424 9.22113C30.5499 8.46016 30.145 7.76634 29.6501 7.13966C29.1551 6.51298 28.5477 5.97583 27.8504 5.48344C27.1755 5.01343 26.4106 4.61056 25.6232 4.29722C24.8359 3.98389 23.981 3.73769 23.1036 3.55864C22.2263 3.40197 21.3264 3.31244 20.4491 3.31244C18.4694 3.31244 16.5572 3.58102 14.78 4.09579C13.0028 4.61056 11.3381 5.37153 9.83086 6.31155C8.32361 7.25157 6.95134 8.39302 5.73654 9.66876C4.52175 10.9669 3.48692 12.3993 2.63206 13.9436C1.7772 15.4879 1.12481 17.1441 0.674888 18.8675C0.224963 20.5909 0 22.4038 0 24.1943C0 25.2014 0.089985 26.231 0.247459 27.2381C0.404933 28.2677 0.652391 29.2525 0.967339 30.2149C1.28229 31.1773 1.68722 32.0725 2.15964 32.923C2.63206 33.7735 3.19447 34.5121 3.84686 35.1388C4.49925 35.7654 5.24163 36.2802 6.029 36.6607C6.83886 37.0412 7.76121 37.2202 8.72855 37.2202C10.0558 37.2202 11.2031 36.8174 12.148 36.034C13.0478 35.2731 13.8127 34.1316 14.3976 32.6992C14.9825 31.2892 15.4549 29.5434 15.7924 27.5291C16.1298 25.6267 16.3998 23.4333 16.6247 21.0385H17.3896C17.727 21.0385 17.997 21.1952 18.222 21.5085C18.4919 21.889 18.7394 22.4038 18.9418 23.0528C19.1668 23.7243 19.3468 24.4852 19.5267 25.3357C19.7067 26.2086 19.9092 27.1038 20.1116 28.0215C20.3141 28.9391 20.5616 29.8568 20.854 30.7296C21.1465 31.6249 21.5064 32.4306 21.9338 33.1244C22.3838 33.8406 22.9237 34.4226 23.5536 34.8702C24.206 35.3178 25.0158 35.564 25.9157 35.564C26.6806 35.564 27.4679 35.4745 28.2103 35.3178C28.9527 35.1611 29.6501 34.9373 30.3249 34.6911C30.9773 34.4449 31.6072 34.1764 32.1471 33.8854C32.6871 33.5944 33.1595 33.3483 33.5644 33.1021C33.6544 33.1692 33.7669 33.2363 33.8794 33.2811C34.7342 33.684 35.769 33.9078 36.8939 33.9078C37.6137 33.9078 38.3336 33.8183 39.031 33.6616C39.7284 33.5049 40.4033 33.2811 41.0557 33.0125C41.708 32.744 42.3154 32.4306 42.9004 32.0949C43.4853 31.7592 44.0252 31.4011 44.5426 31.0654C45.015 30.7296 45.5099 30.3491 46.0048 29.9239C46.0948 30.1477 46.1623 30.3939 46.2748 30.5953C46.7472 31.6473 47.3546 32.453 48.0745 33.0125C48.8169 33.5944 49.6717 33.8854 50.6391 33.8854C51.1115 33.8854 51.6289 33.7959 52.1913 33.6168C52.7312 33.4602 53.3611 33.1916 54.0585 32.8782C54.7334 32.5649 55.5207 32.1397 56.3981 31.6473C56.803 31.4235 57.253 31.1549 57.7254 30.8863C57.7704 31.1773 57.8154 31.4235 57.8829 31.6249C58.0403 32.162 58.2878 32.6097 58.5802 32.9454C58.8727 33.2811 59.2326 33.5497 59.6151 33.684C60.4474 33.9973 61.4148 33.9749 62.3821 33.5945C62.8995 33.393 63.4169 33.1244 63.9119 32.7663C64.4068 32.4306 64.9017 32.0054 65.3741 31.5354C65.6666 31.2444 65.9815 30.9087 66.2515 30.5953C66.3189 30.8639 66.4089 31.1101 66.4989 31.3563C66.6564 31.8263 66.8814 32.2292 67.1288 32.5649C67.3763 32.923 67.6912 33.1916 68.0512 33.393C68.7485 33.7735 69.7609 33.7735 70.8632 33.5049C71.3806 33.3706 71.9205 33.214 72.4604 33.0125C73.0003 32.8111 73.5178 32.5649 74.0577 32.2963C74.4401 32.0949 74.8 31.8935 75.1375 31.692C75.205 32.0054 75.295 32.2739 75.4074 32.5425C75.5874 32.9454 75.8574 33.2587 76.1948 33.5049C76.5547 33.7511 77.0047 33.863 77.5446 33.863C77.792 33.863 78.0395 33.8183 78.2645 33.7287C78.4894 33.6392 78.6919 33.4602 78.8944 33.2363C79.0518 33.0349 79.2318 32.7663 79.3893 32.453C79.5467 32.1397 79.7042 31.7592 79.8617 31.3115L82.6737 23.5228C82.7412 23.9481 82.8312 24.3733 82.9212 24.7986C83.0787 25.5372 83.3261 26.2086 83.6636 26.8129C84.001 27.4396 84.4734 27.932 85.0583 28.3348C85.6432 28.7153 86.4306 28.9167 87.3529 28.9167C87.8704 28.9167 88.3878 28.8496 88.9052 28.6929C89.3101 28.5586 89.715 28.4244 90.075 28.2453C90.03 28.872 90.0075 29.4315 90.0075 29.9239C90.0075 30.3939 90.03 30.8639 90.0975 31.3115C90.165 31.7816 90.2775 32.2068 90.4349 32.5873C90.6149 32.9902 90.8849 33.3035 91.2223 33.5497C91.5822 33.7959 92.0322 33.9078 92.5721 33.9078C93.022 33.9078 93.4269 33.7959 93.7644 33.5945C94.1243 33.393 94.4168 33.0125 94.6867 32.4754L98.6236 24.709C98.5786 25.1119 98.5111 25.4924 98.4886 25.8729C98.3986 26.6786 98.3536 27.462 98.3536 28.1558C98.3536 29.991 98.5786 31.3563 99.051 32.3411C99.5459 33.393 100.198 33.9302 100.986 33.9302C101.661 33.9302 102.313 33.8406 102.92 33.6392C103.528 33.4602 104.113 33.214 104.653 32.923C105.192 32.6321 105.732 32.2963 106.227 31.9382C106.542 31.7144 106.857 31.4906 107.15 31.2444C107.51 31.9606 107.915 32.5425 108.342 32.9902C108.949 33.6168 109.624 33.9302 110.344 33.9302C110.772 33.9302 111.221 33.863 111.694 33.7511C112.166 33.6392 112.639 33.4825 113.134 33.3035C113.629 33.1244 114.101 32.9006 114.573 32.6544C115.046 32.4082 115.496 32.1844 115.946 31.9382C115.946 31.9382 115.968 31.9382 115.968 31.9158C116.081 32.1397 116.216 32.3635 116.396 32.5425C116.823 32.9902 117.34 33.3483 117.925 33.5945C119.163 34.1092 120.467 34.0868 121.84 33.4154C122.222 33.2363 122.582 33.0125 122.965 32.744L122.852 33.1468C122.042 33.8183 121.232 34.5121 120.445 35.2283C119.635 35.9893 118.825 36.7502 118.083 37.5336C117.34 38.3169 116.621 39.1003 115.991 39.8836C115.338 40.667 114.776 41.4279 114.326 42.1665C113.854 42.9051 113.471 43.6213 113.201 44.2927C112.909 44.9866 112.774 45.6132 112.774 46.1952C112.774 47.0009 112.909 47.6723 113.201 48.1647C113.494 48.6571 113.854 49.06 114.281 49.3286C114.708 49.5971 115.181 49.7762 115.676 49.8657C116.148 49.9552 116.598 50 117.026 50C118.06 50 119.028 49.8209 119.883 49.4628C120.737 49.1047 121.525 48.6124 122.222 47.9633C122.92 47.3366 123.527 46.5756 124.067 45.6804C124.607 44.8075 125.079 43.8451 125.507 42.8156C125.912 41.786 126.294 40.667 126.586 39.4808C126.879 38.3617 127.126 37.1978 127.351 36.0116C128.431 35.3402 129.466 34.6464 130.411 33.9302C130.838 33.6168 131.266 33.2811 131.693 32.923C132.12 32.5649 132.548 32.2068 132.953 31.8263C133.358 31.4458 133.74 31.0654 134.078 30.6849C134.415 30.3044 134.708 29.9015 134.933 29.521L135 29.4091L133.898 24.5971ZM118.33 45.5685C117.948 45.8147 117.565 45.9266 117.16 45.9266C116.846 45.9266 116.823 45.8371 116.823 45.658C116.823 45.4342 116.891 45.1656 117.048 44.8075C117.205 44.427 117.453 44.0018 117.723 43.5542C118.015 43.1065 118.353 42.6141 118.758 42.1218C119.14 41.6294 119.568 41.137 120.018 40.667C120.445 40.197 120.895 39.7493 121.367 39.3465C121.547 39.1898 121.75 39.0331 121.93 38.8765C121.885 39.0779 121.817 39.2793 121.772 39.4808C121.615 40.0627 121.412 40.6446 121.187 41.2489C120.962 41.8532 120.692 42.4575 120.4 43.017C120.107 43.5765 119.793 44.0913 119.433 44.5389C119.095 44.9642 118.713 45.2999 118.33 45.5685ZM113.269 12.9364C112.751 14.145 112.189 15.3312 111.626 16.4727C111.311 17.0994 111.019 17.6813 110.704 18.2184C110.749 17.6141 110.817 16.9875 110.884 16.3832C111.041 15.2193 111.266 14.1003 111.536 13.0036C111.806 11.9069 112.121 10.8773 112.481 9.91495C112.819 8.95255 113.201 8.10206 113.584 7.38586C113.966 6.66965 114.326 6.11012 114.686 5.70725C114.911 5.46106 115.113 5.30439 115.293 5.21486C115.316 5.43867 115.316 5.70725 115.316 5.97583C115.226 6.98299 114.978 8.10206 114.596 9.28827C114.213 10.4969 113.764 11.7278 113.269 12.9364ZM52.6187 6.82632C52.7537 6.82632 52.8437 6.8487 52.9112 6.89346C52.9787 6.93823 53.0237 7.00537 53.0687 7.0949C53.1136 7.2068 53.1361 7.31871 53.1586 7.43062C53.1811 7.56491 53.1811 7.69919 53.1811 7.8111C53.1811 8.14682 53.0912 8.57207 52.9112 9.10922C52.7087 9.66876 52.4838 10.2954 52.1688 10.9445C51.8764 11.5936 51.5389 12.265 51.1565 12.9364C50.819 13.5407 50.5041 14.1003 50.1891 14.6374C50.0767 14.615 49.9867 14.615 49.8742 14.615C49.8292 14.615 49.8067 14.615 49.7617 14.5927C49.9417 13.7869 50.1441 12.9588 50.3466 12.1083C50.5941 11.1235 50.864 10.2283 51.134 9.42256C51.4039 8.61683 51.6964 7.96777 51.9888 7.453C52.2813 7.00537 52.5062 6.82632 52.6187 6.82632ZM34.9142 25.0448C34.9142 24.8881 34.9367 24.7314 34.9367 24.5524C34.9592 24.2167 35.0042 23.8585 35.0717 23.5004C35.1391 23.1423 35.2516 22.7842 35.3866 22.4261C35.5216 22.0904 35.7016 21.7771 35.904 21.5309C36.1065 21.2847 36.3764 21.0609 36.6689 20.9042C36.9613 20.7475 37.3438 20.6804 37.7712 20.6804C37.8162 20.6804 37.9737 20.6804 38.1536 20.9937C38.3111 21.2623 38.4011 21.6428 38.4011 22.0904C38.4011 22.3814 38.2886 22.6947 38.0412 23.0081C37.7712 23.3662 37.4338 23.7243 37.0513 24.0376C36.6464 24.3509 36.219 24.6195 35.769 24.7986C35.4541 24.9329 35.1616 25 34.9142 25.0448ZM17.6146 14.7941C17.7495 14.0555 17.817 13.4736 17.817 13.0036V12.8469C17.817 12.3545 17.7045 11.9517 17.4571 11.6383C17.1871 11.2802 16.7147 11.1012 15.9948 11.1012C15.4774 11.1012 15.05 11.2131 14.6901 11.4369C14.3526 11.6607 14.0377 11.9293 13.7902 12.2874C13.5427 12.6231 13.3628 13.0036 13.2053 13.4064C13.0703 13.7869 12.9578 14.1898 12.8904 14.5703C12.8229 14.9508 12.7779 15.3089 12.7329 15.6446C12.7104 15.9579 12.6879 16.2041 12.6654 16.4056C12.6429 16.4056 12.6429 16.4056 12.6204 16.4056C12.3954 16.3832 12.148 16.3384 11.9005 16.2936C11.6306 16.2489 11.3606 16.2265 11.1131 16.1817C10.8432 16.1594 10.6632 16.137 10.5732 16.137C10.3033 16.137 10.0558 16.2265 9.87585 16.3832C9.71838 16.5175 9.6059 16.6741 9.53841 16.8756C9.47092 17.0546 9.42593 17.2337 9.40343 17.4351C9.38094 17.6141 9.38094 17.7708 9.38094 17.8827C9.38094 18.487 9.67339 19.0018 10.2133 19.4494C10.6632 19.8075 11.2931 20.188 12.1255 20.5909C12.1255 20.8371 12.1255 21.128 12.103 21.5085C12.103 22.0009 12.058 22.5828 12.0355 23.2095C11.9905 23.8585 11.9455 24.53 11.878 25.2686C11.8105 25.9848 11.7205 26.7234 11.6081 27.4396C11.4956 28.1558 11.3606 28.8496 11.1806 29.4987C11.0232 30.1477 10.8207 30.7296 10.5957 31.222C10.3933 31.692 10.1458 32.0725 9.87585 32.3411C9.65089 32.5649 9.38094 32.6992 9.08849 32.6992C8.3911 32.6992 7.8287 32.4978 7.33378 32.0949C6.81636 31.6696 6.41143 31.0877 6.07399 30.3939C5.73654 29.6777 5.48909 28.8496 5.33161 27.9543C5.17414 27.0367 5.08415 26.1191 5.08415 25.2014C5.08415 24.0152 5.19663 22.7619 5.4216 21.4414C5.64656 20.1432 6.0065 18.8227 6.47892 17.547C6.97384 16.2713 7.60373 15.0403 8.3911 13.8765C9.15597 12.735 10.1233 11.7055 11.2256 10.8326C12.3279 9.95971 13.6102 9.26589 15.0725 8.75112C16.5347 8.23635 18.1995 7.96777 20.0667 7.96777C21.079 7.96777 21.9563 8.07968 22.6987 8.30349C23.4411 8.5273 24.071 8.81826 24.5659 9.19875C25.0608 9.55685 25.4208 9.98209 25.6682 10.4521C25.9157 10.9221 26.0282 11.4145 26.0282 11.9069C26.0282 12.4217 25.8932 12.9812 25.6232 13.5407C25.3533 14.1003 24.9034 14.615 24.2285 15.1074C23.5536 15.5998 22.6087 16.0027 21.4164 16.3384C20.3141 16.6517 18.9193 16.8308 17.2546 16.8756C17.4121 16.0698 17.5246 15.3984 17.6146 14.7941Z" fill="#929BB1"/>
</svg>
