<svg width="178" height="29" viewBox="0 0 178 29" fill="none" xmlns="http://www.w3.org/2000/svg">
<g opacity="0.8">
<path d="M21.6465 6.9542C20.9763 5.2747 19.3184 3.47145 16.2496 3.71895C12.3341 4.14325 11.0995 7.87351 11.6992 10.1011C10.1295 9.058 7.48394 8.59835 5.15584 10.5607C2.15752 13.5308 3.7625 17.5616 5.40276 18.5339C3.58613 18.3571 0.728917 19.577 0.093981 22.7592C-0.57623 26.7016 2.45736 28.9999 5.40276 28.9999H38.1725C41.5941 28.9999 43.4813 26.0828 43.2697 23.3072C42.9346 19.7007 39.6011 18.3218 37.7845 18.6223C39.3013 17.7737 41.3296 13.8313 38.2431 10.7375C35.7915 8.42156 32.6874 9.27015 31.5762 10.2602C32.1759 8.33316 31.2059 4.35539 27.2375 3.71895C26.9553 3.70127 26.7084 3.68359 26.4438 3.68359C23.4455 3.68359 22.0698 5.87579 21.6465 6.9542Z" fill="white"/>
<path d="M5.70262 11.1966C3.97418 12.7347 3.33925 16.2528 6.46102 18.3212L18.8952 26.7895L12.8809 13.0706C11.6111 9.83535 8.15418 9.14587 5.70262 11.1966Z" fill="#F37021"/>
<path d="M16.4083 4.5318C14.3976 4.56715 11.364 6.95381 12.7045 10.5957L18.948 25.1985L21.135 9.85316C21.6465 6.03451 18.7364 4.26661 16.4083 4.5318Z" fill="#CC004C"/>
<path d="M22.1052 9.25194H23.2869C23.2869 9.25194 23.9218 9.25194 24.01 9.55248C23.5514 9.92374 22.2815 9.97677 22.4579 11.9922L24.4333 25.1984L30.6239 10.5602C31.8938 7.28957 29.2306 4.56701 26.8672 4.47862C26.7614 4.47862 26.6379 4.46094 26.5321 4.46094C24.4156 4.46094 21.9993 5.99901 22.1052 9.25194Z" fill="#6460AA"/>
<path d="M30.3769 13.1936L24.5214 26.7357L36.9555 18.2321C39.8304 16.2167 39.3542 12.9992 37.7492 11.3904C37.079 10.6479 35.8444 10.0645 34.5392 10.0645C32.9872 10.0645 31.3293 10.8777 30.3769 13.1936Z" fill="#0089D0"/>
<path d="M35.5621 20.1598L23.8864 28.2568H38.2606C41.206 28.2568 43.1108 25.2337 42.2642 22.4581C41.6999 20.7255 40.0243 19.3643 38.0842 19.3643C37.2729 19.3643 36.4087 19.5941 35.5621 20.1598Z" fill="#0DB14B"/>
<path d="M5.36746 28.2564H19.5301L7.8543 20.1594C5.15582 18.4446 2.12223 19.4523 1.02873 22.2986C0.0939614 25.5692 2.42206 28.2564 5.36746 28.2564Z" fill="#FCB711"/>
<path d="M177.118 23.8726L173.273 19.9832C172.197 20.9732 171.121 21.7511 170.045 22.3345C168.969 22.9179 167.629 23.2008 166.059 23.2008C164.878 23.2008 163.802 22.971 162.832 22.5113C161.862 22.0517 161.015 21.4329 160.327 20.6373C159.639 19.8595 159.093 18.9402 158.705 17.8971C158.317 16.854 158.123 15.7403 158.123 14.5558V14.4851C158.123 13.3006 158.317 12.1868 158.705 11.1614C159.093 10.1184 159.639 9.21674 160.345 8.42118C161.05 7.64331 161.897 7.02455 162.867 6.58257C163.855 6.1406 164.913 5.91077 166.059 5.91077C167.435 5.91077 168.687 6.19363 169.798 6.74168C170.91 7.28973 172.003 8.04993 173.079 9.02227L176.924 4.56717C176.289 3.94841 175.619 3.365 174.878 2.85231C174.137 2.32194 173.343 1.87997 172.479 1.50871C171.615 1.13745 170.663 0.854588 169.604 0.64244C168.546 0.430293 167.382 0.324219 166.112 0.324219C163.996 0.324219 162.056 0.695477 160.31 1.45567C158.564 2.19819 157.047 3.22357 155.795 4.51413C154.542 5.8047 153.555 7.32509 152.849 9.03995C152.144 10.7548 151.791 12.5934 151.791 14.5558V14.6265C151.791 16.6065 152.144 18.4452 152.849 20.1777C153.555 21.9102 154.525 23.3953 155.795 24.6681C157.047 25.941 158.528 26.9487 160.257 27.6736C161.985 28.4161 163.855 28.7873 165.865 28.7873C167.206 28.7873 168.405 28.6636 169.481 28.4515C170.557 28.2216 171.544 27.9034 172.444 27.4614C173.343 27.0371 174.172 26.5068 174.931 25.9057C175.689 25.3046 176.412 24.6328 177.118 23.8726ZM150.927 20.7611V20.6904C150.927 18.8518 150.468 17.4198 149.551 16.3767C148.634 15.3513 147.382 14.5204 145.794 13.9193C146.288 13.6718 146.747 13.3536 147.188 12.9824C147.611 12.6111 147.999 12.1868 148.316 11.7095C148.651 11.2145 148.898 10.6841 149.11 10.083C149.304 9.46424 149.41 8.77476 149.41 7.99689V7.90849C149.41 5.73398 148.599 4.01912 146.994 2.72856C145.389 1.43799 143.166 0.801551 140.344 0.801551H127.61V28.31H140.662C142.214 28.31 143.607 28.1509 144.877 27.8327C146.147 27.5145 147.223 27.0548 148.122 26.4184C149.022 25.7996 149.71 25.0041 150.204 24.0671C150.68 23.1124 150.927 22.0163 150.927 20.7611ZM143.396 9.02227C143.396 10.03 143.008 10.7725 142.214 11.2321C141.438 11.6918 140.38 11.9216 139.039 11.9216H133.466V6.10524H139.427C140.715 6.10524 141.685 6.35275 142.373 6.83008C143.043 7.32509 143.396 8.01457 143.396 8.93387V9.02227ZM144.93 20.0186C144.93 21.044 144.542 21.7865 143.784 22.2815C143.025 22.7588 141.985 23.0063 140.644 23.0063H133.466V16.9601H140.45C142.02 16.9601 143.149 17.2253 143.854 17.7557C144.56 18.286 144.912 19.0286 144.912 19.9302V20.0186H144.93ZM123.924 28.31V0.801551H117.963V17.738L105.105 0.801551H99.5321V28.31H105.493V10.8255L118.792 28.31H123.924ZM97.1158 20.1777V20.0893C97.1158 18.8871 96.9218 17.8617 96.5514 16.9955C96.181 16.1292 95.6166 15.369 94.8583 14.7326C94.0999 14.0961 93.2004 13.5481 92.1069 13.0884C91.0134 12.6288 89.7964 12.2045 88.4031 11.8509C87.2214 11.5327 86.2513 11.2498 85.4753 11.02C84.6993 10.7902 84.0996 10.525 83.6587 10.2775C83.2178 10.0123 82.9003 9.71175 82.7416 9.39353C82.5652 9.05763 82.4946 8.66869 82.4946 8.22672V8.156C82.4946 7.46652 82.7945 6.90079 83.3765 6.44114C83.9585 5.98149 84.8404 5.75166 86.0221 5.75166C87.2037 5.75166 88.3678 5.99917 89.5495 6.4765C90.7312 6.97151 91.9305 7.62563 93.1651 8.45654L96.3045 3.91305C94.8935 2.78159 93.3415 1.91533 91.6659 1.31424C89.9728 0.713156 88.1385 0.412614 86.1102 0.412614C84.6993 0.412614 83.4118 0.607082 82.2301 0.996019C81.0484 1.38496 80.0431 1.95068 79.1965 2.6932C78.3499 3.41804 77.6797 4.28431 77.2211 5.30969C76.7449 6.31739 76.5156 7.44884 76.5156 8.70405V8.77476C76.5156 10.136 76.7273 11.2852 77.1682 12.2045C77.5915 13.1061 78.2088 13.884 78.9848 14.5027C79.7785 15.1038 80.7309 15.6342 81.8421 16.0408C82.9708 16.4651 84.2231 16.854 85.5988 17.1899C86.7452 17.4728 87.6799 17.7557 88.4031 18.0209C89.1262 18.2684 89.6906 18.5336 90.0786 18.7987C90.4842 19.0639 90.7664 19.3468 90.9075 19.6473C91.0486 19.9479 91.1192 20.2838 91.1192 20.6904V20.7611C91.1192 21.5743 90.7664 22.2108 90.0786 22.6704C89.3908 23.1301 88.4031 23.3599 87.1508 23.3599C85.5811 23.3599 84.1349 23.0594 82.8121 22.4583C81.4893 21.8572 80.2018 21.044 78.9496 20.0186L75.3869 24.2969C77.0271 25.7996 78.8614 26.8957 80.872 27.6205C82.8826 28.3454 84.9286 28.699 87.0274 28.699C88.5265 28.699 89.867 28.5045 91.1015 28.1332C92.3361 27.7443 93.3944 27.1962 94.2762 26.4714C95.1581 25.7642 95.8636 24.8626 96.3574 23.8019C96.8689 22.7411 97.1158 21.539 97.1158 20.1777ZM73.5173 28.31V0.801551H67.0092L59.7957 12.4343L52.5821 0.801551H46.074V28.31H52V10.4719L59.6369 22.1047H59.7957L67.5207 10.3482V28.31H73.5173Z" fill="black"/>
</g>
</svg>
