<svg width="466" height="520" viewBox="0 0 466 520" fill="none" xmlns="http://www.w3.org/2000/svg">
<g clip-path="url(#clip0_30_172)">
<path d="M149.671 211.949L67.2234 216.242L41.1958 129.48L122.896 115.82L149.671 211.949Z" fill="url(#paint0_linear_30_172)"/>
<path d="M172.671 92.8592L122.896 115.82L149.671 211.949L195.503 174.83L172.671 92.8592Z" fill="url(#paint1_linear_30_172)"/>
<path d="M41.1957 129.48L94.5069 98.3982L172.671 92.8595L125.42 124.881L41.1957 129.48Z" fill="white"/>
<path d="M59.1413 238.857L59.2008 238.847C59.2603 238.837 59.3197 238.827 59.4177 238.745C59.5366 238.724 59.6347 238.642 59.813 238.612C59.8725 238.602 59.9319 238.592 59.9705 238.519C60.0894 238.499 60.128 238.427 60.2469 238.407C60.3063 238.397 60.3658 238.387 60.4043 238.314C60.4638 238.304 60.5023 238.232 60.5618 238.222C60.6807 238.202 60.7193 238.129 60.8382 238.109C60.8976 238.099 60.9571 238.089 60.9956 238.017C61.0551 238.007 61.0937 237.934 61.1531 237.924C61.2511 237.842 61.3106 237.832 61.4086 237.749C61.468 237.739 61.468 237.739 61.5066 237.667C61.566 237.657 61.664 237.574 61.7026 237.502C61.8006 237.419 61.8601 237.409 61.9581 237.327C62.0175 237.317 62.0175 237.317 62.0561 237.244C62.0946 237.172 62.2135 237.152 62.2521 237.079C62.3501 236.997 62.3886 236.924 62.5076 236.904C62.5076 236.904 62.567 236.894 62.5461 236.832C62.5847 236.759 62.7036 236.739 62.7421 236.667C62.8401 236.584 62.8787 236.512 62.9767 236.429C62.9767 236.429 63.0361 236.419 63.0152 236.357C63.0538 236.284 63.1132 236.274 63.1518 236.202C63.2498 236.12 63.3478 236.037 63.4249 235.892C63.4844 235.882 63.4635 235.82 63.5229 235.81C63.5615 235.737 63.6209 235.727 63.6595 235.655C63.7575 235.572 63.8346 235.427 63.9326 235.345C63.9921 235.335 63.9712 235.272 64.0306 235.262C64.0901 235.252 64.0691 235.19 64.1077 235.117C64.1848 234.973 64.3214 234.818 64.4194 234.735C64.4579 234.663 64.5174 234.653 64.4965 234.59L64.535 234.518C64.7101 234.29 65.7676 232.727 65.9218 232.437C66.0584 232.282 66.1146 232.075 66.2511 231.92C66.2897 231.848 66.2897 231.848 66.3282 231.775C66.4053 231.63 66.4824 231.485 66.5804 231.403L66.619 231.33C66.7346 231.113 66.8888 230.823 66.9836 230.543C66.9627 230.481 67.0221 230.471 67.0012 230.409C67.1169 230.191 67.1731 229.984 67.2887 229.767L67.3272 229.694C67.3658 229.622 67.3658 229.622 67.3449 229.559C67.4396 229.279 67.5553 229.062 67.5906 228.792C67.6291 228.72 67.6082 228.657 67.6468 228.585C67.7415 228.305 67.8153 227.963 67.8892 227.621C67.9277 227.548 67.9068 227.486 67.9454 227.413C67.9807 227.144 68.0754 226.864 68.1107 226.594C68.1492 226.522 68.1283 226.459 68.1669 226.387C68.2407 226.045 68.2551 225.713 68.3289 225.37C68.3289 225.37 68.308 225.308 68.3675 225.298C68.3466 225.235 68.3851 225.163 68.3642 225.101C68.3609 224.903 68.4171 224.696 68.4139 224.499C68.4315 224.364 68.4106 224.301 68.4283 224.166C68.425 223.969 68.4217 223.772 68.4779 223.565C68.457 223.502 68.4956 223.43 68.4747 223.367C68.4537 223.305 68.4537 223.305 68.4923 223.232C68.4714 223.17 68.489 223.035 68.4681 222.973C68.4858 222.838 68.4825 222.641 68.4407 222.516C68.4198 222.453 68.4374 222.318 68.4165 222.256C68.3956 222.194 68.4342 222.121 68.4133 222.059C68.3923 221.996 68.3714 221.934 68.41 221.861C68.3858 221.602 68.3616 221.342 68.3375 221.082C68.3166 221.02 68.3551 220.947 68.3342 220.885L68.3133 220.822C68.2891 220.563 68.2649 220.303 68.1813 220.053C68.1604 219.991 68.1604 219.991 68.1395 219.929C68.0944 219.606 68.0703 219.347 67.9657 219.035C67.9239 218.91 67.903 218.847 67.9206 218.712C67.8579 218.525 67.8756 218.39 67.8128 218.203C67.8128 218.203 67.8128 218.203 67.7919 218.141C67.7501 218.016 67.7083 217.891 67.6665 217.766C67.6247 217.641 67.5829 217.516 67.5411 217.392C67.5411 217.392 67.5411 217.392 67.5201 217.329C67.4365 217.079 67.3529 216.83 67.2693 216.58C67.2693 216.58 67.2693 216.58 67.2483 216.518C67.1647 216.268 67.0811 216.018 66.9975 215.769C66.9766 215.706 66.9556 215.644 66.9347 215.581C66.9138 215.519 66.872 215.394 66.8511 215.332C66.8093 215.207 66.7884 215.144 66.7466 215.019C66.7048 214.895 66.642 214.707 66.5408 214.593C66.5199 214.53 66.4989 214.468 66.478 214.405L66.4571 214.343C66.3735 214.093 66.2304 213.854 66.1082 213.676L66.0873 213.614C66.0664 213.551 68.2806 213.049 68.2002 212.997C68.1584 212.872 68.0363 212.695 67.9945 212.57C67.9736 212.508 67.8723 212.393 67.8514 212.331C67.8305 212.268 67.7292 212.153 67.7083 212.091C67.6874 212.028 67.6665 211.966 67.5861 211.914C67.4848 211.799 67.4221 211.612 67.3208 211.497C67.2999 211.434 67.2196 211.382 67.1987 211.319L67.1777 211.257C67.0347 211.017 66.8321 210.788 66.689 210.548C66.6681 210.486 66.5878 210.433 66.4865 210.318C66.3643 210.141 66.263 210.026 66.1409 209.849C66.1409 209.849 66.1199 209.787 66.0605 209.797C65.9592 209.682 65.8579 209.567 65.7567 209.452C65.6554 209.338 65.5541 209.223 65.4738 209.17C65.4738 209.17 65.4529 209.108 65.3934 209.118C65.1909 208.888 64.9289 208.669 64.7263 208.439C64.7263 208.439 64.7054 208.377 64.6459 208.387C64.6459 208.387 64.6459 208.387 64.625 208.324C64.4434 208.157 64.2408 207.927 63.9998 207.77C63.9194 207.718 63.6019 203.961 63.5215 203.908C63.4412 203.856 63.6019 203.489 63.5215 203.437C63.9681 202.169 62.5133 204.537 62.3735 204.495C63.2345 202.3 62.2931 204.442 62.2128 204.39C61.9717 204.233 61.7901 204.065 61.549 203.908C61.4686 203.856 61.4686 203.856 61.3882 203.803C61.2275 203.699 61.0073 203.604 60.8257 203.437C60.7453 203.384 60.6859 203.394 60.6649 203.332C60.4239 203.175 60.2037 203.08 59.9835 202.985C59.9835 202.985 59.9031 202.933 59.8436 202.943C59.6235 202.848 59.4033 202.753 59.1831 202.659C59.1027 202.606 60.6576 200.061 58.9629 202.564C58.7427 202.469 58.4631 202.384 58.1834 202.3L43.7884 201.614C44.068 201.699 44.2882 201.794 44.5679 201.878C44.6482 201.931 44.7077 201.921 44.7881 201.973C45.0082 202.068 45.2284 202.163 45.4486 202.257C45.4486 202.257 45.529 202.31 45.5884 202.3C45.8086 202.394 46.0497 202.552 46.2699 202.646C46.3503 202.699 46.4097 202.689 46.4306 202.751C46.5914 202.856 46.8115 202.951 46.9932 203.118C47.0736 203.17 47.0735 203.17 47.1539 203.223C47.395 203.38 47.6361 203.537 47.8177 203.704C47.8981 203.757 47.8981 203.757 47.9785 203.809C48.1392 203.914 48.3208 204.081 48.5025 204.248C48.5828 204.301 48.6632 204.353 48.6841 204.415C48.8657 204.583 49.1068 204.74 49.3094 204.969C49.3094 204.969 49.3094 204.969 49.3303 205.032L49.4106 205.084C49.6132 205.314 49.8752 205.533 50.0777 205.763C50.179 205.878 50.2803 205.993 50.3816 206.107C50.4828 206.222 50.5841 206.337 50.6854 206.452C50.8076 206.629 50.9892 206.796 51.1114 206.974C51.1917 207.026 51.2126 207.088 51.3139 207.203C51.5165 207.433 51.6804 207.735 51.883 207.965C51.9039 208.027 51.9843 208.079 52.0052 208.142C52.1274 208.319 52.2705 208.559 52.3926 208.736C52.4135 208.798 52.5148 208.913 52.5357 208.976C52.6788 209.215 52.801 209.392 52.8846 209.642C52.9055 209.705 52.9264 209.767 53.0068 209.819C53.1708 210.121 53.2544 210.371 53.4184 210.673C53.4393 210.736 53.4602 210.798 53.4811 210.86C53.5647 211.11 53.7078 211.35 53.7915 211.599C53.8124 211.662 53.8542 211.787 53.8751 211.849C53.9796 212.161 54.0842 212.473 54.1887 212.785C54.2723 213.035 54.356 213.285 54.4605 213.597C54.5023 213.722 54.5441 213.847 54.5859 213.971C54.6278 214.096 54.6905 214.284 54.6728 214.418C54.7356 214.606 54.7179 214.741 54.7807 214.928C54.8225 215.053 54.8434 215.115 54.8257 215.25C54.8708 215.572 54.9544 215.822 54.9995 216.144C55.0204 216.206 55.0413 216.269 55.0028 216.341C55.0269 216.601 55.0511 216.861 55.0753 217.12C55.0962 217.183 55.0786 217.318 55.0995 217.38C55.1236 217.64 55.1478 217.9 55.172 218.159C55.1543 218.294 55.1961 218.419 55.1576 218.491C55.1785 218.554 55.1609 218.689 55.1818 218.751C55.1641 218.886 55.1674 219.083 55.2092 219.208C55.2301 219.271 55.2125 219.406 55.2334 219.468C55.2157 219.603 55.2366 219.665 55.219 219.8C55.2223 219.997 55.2255 220.195 55.1693 220.402C55.1517 220.537 55.1726 220.599 55.155 220.734C55.1582 220.931 55.102 221.139 55.1053 221.336C55.0667 221.409 55.1086 221.533 55.07 221.606C55.0556 221.938 54.9818 222.28 54.908 222.622C54.8694 222.695 54.8903 222.757 54.8518 222.83C54.8165 223.099 54.7217 223.379 54.6865 223.649C54.6479 223.721 54.6688 223.784 54.6303 223.856C54.5564 224.199 54.4617 224.478 54.3878 224.821C54.3493 224.893 54.3702 224.955 54.3317 225.028C54.2369 225.308 54.1422 225.587 54.086 225.795C54.0474 225.867 54.0089 225.94 53.9703 226.012C53.8547 226.229 53.7985 226.437 53.6828 226.654C53.7038 226.717 53.6443 226.727 53.6652 226.789C53.5705 227.069 53.4548 227.286 53.3006 227.576C53.2235 227.721 53.1464 227.866 53.0693 228.011C53.0308 228.083 53.0307 228.083 52.9922 228.156C52.8765 228.373 52.74 228.528 52.6838 228.735C52.5087 228.963 52.3545 229.252 52.1794 229.48C52.1408 229.552 52.1023 229.625 52.0043 229.707C51.9272 229.852 51.7906 230.007 51.6926 230.089C51.6541 230.162 51.5561 230.244 51.5175 230.317C51.4195 230.399 51.3424 230.544 51.2444 230.627C51.2059 230.699 51.1078 230.782 51.0693 230.854C50.9713 230.937 50.8733 231.019 50.7962 231.164C50.6982 231.246 50.6596 231.319 50.5616 231.401C50.4636 231.484 50.4251 231.556 50.3271 231.639C50.229 231.721 50.131 231.804 50.0925 231.876C49.9945 231.959 49.9559 232.031 49.837 232.051C49.739 232.134 49.641 232.216 49.543 232.299C49.445 232.381 49.3855 232.391 49.2875 232.474C49.1895 232.556 49.0915 232.639 48.9726 232.659C48.8746 232.741 48.8151 232.751 48.7171 232.834C48.6191 232.916 48.5002 232.936 48.4022 233.019C48.3042 233.101 48.2447 233.111 48.1258 233.131C48.0278 233.214 47.9089 233.234 47.8109 233.316C47.692 233.336 47.6534 233.409 47.5345 233.429C47.377 233.521 47.1987 233.552 47.0412 233.644C46.9223 233.664 46.8837 233.737 46.7648 233.757C46.5865 233.787 46.429 233.879 46.2506 233.909L46.1911 233.919C46.0128 233.949 45.7959 234.052 45.6175 234.082C45.558 234.092 45.4986 234.102 45.4986 234.102C45.3202 234.132 45.0824 234.172 44.904 234.202C44.904 234.202 44.904 234.202 44.8445 234.213C44.6067 234.253 44.3689 234.293 44.1905 234.323C44.1311 234.333 44.131 234.333 44.0716 234.343C43.8338 234.383 43.575 234.361 43.3372 234.401C43.2778 234.411 43.2183 234.421 43.2183 234.421C43.1588 234.431 43.0399 234.451 42.9596 234.399C42.9001 234.409 42.8406 234.419 42.7603 234.366C42.7008 234.376 42.561 234.334 42.5015 234.344C42.4421 234.354 42.3826 234.364 42.3023 234.312C42.103 234.279 41.9246 234.309 41.7848 234.267C41.7253 234.277 41.7253 234.277 41.645 234.225C41.5051 234.182 41.3862 234.202 41.1869 234.17C41.1275 234.18 41.0471 234.128 41.0471 234.128C40.9073 234.085 40.8479 234.095 40.708 234.053C40.6486 234.063 40.5682 234.011 40.5682 234.011C40.4284 233.968 40.2291 233.936 40.0893 233.894L52.2489 239.097C52.3887 239.139 52.588 239.171 52.7278 239.214C52.7873 239.204 52.8676 239.256 52.8676 239.256C53.0074 239.298 53.0669 239.288 53.2067 239.331L53.2662 239.321L53.3256 239.311C53.4655 239.353 53.6053 239.395 53.7837 239.365C53.8431 239.355 53.8431 239.355 53.9235 239.408C54.1228 239.44 54.3221 239.472 54.441 239.452C54.441 239.452 54.4409 239.452 54.5004 239.442C54.5599 239.432 54.5599 239.432 54.6193 239.422C54.6788 239.412 54.8186 239.454 54.8781 239.444C54.9375 239.434 54.997 239.424 55.0774 239.477C55.1368 239.467 55.2766 239.509 55.3361 239.499L55.3955 239.489L55.455 239.479C55.7137 239.501 55.9516 239.461 56.1894 239.421C56.1894 239.421 56.1894 239.421 56.2489 239.411L56.3083 239.401C56.5461 239.361 56.7245 239.331 56.9623 239.291C57.1407 239.261 57.3785 239.22 57.5569 239.19L57.6164 239.18L57.6758 239.17C57.8542 239.14 58.092 239.1 58.2495 239.008L58.3089 238.997C58.8055 238.98 58.963 238.887 59.1413 238.857ZM15.0768 230.859C15.0559 230.797 15.035 230.734 15.0141 230.672C14.8886 230.297 14.7841 229.985 14.6586 229.611C14.6168 229.486 14.5959 229.423 14.5541 229.299C14.5123 229.174 14.4914 229.111 14.4496 228.986C14.3659 228.737 14.2614 228.425 14.1778 228.175C14.1778 228.175 14.1778 228.175 14.1569 228.112C14.0523 227.8 13.9478 227.488 13.9027 227.166C13.8818 227.104 13.84 226.979 13.8191 226.916C13.7773 226.792 13.7564 226.729 13.7145 226.604C13.5891 226.23 13.5231 225.845 13.3977 225.471C13.3768 225.408 13.3768 225.408 13.3559 225.346C13.2899 224.961 13.1644 224.587 13.0775 224.14C13.0357 224.015 13.0148 223.953 13.0324 223.818C12.9906 223.693 12.9488 223.568 12.9665 223.433C12.9037 223.246 12.8796 222.986 12.8763 222.789C12.8554 222.726 12.8136 222.602 12.8521 222.529C12.7861 222.145 12.7411 221.822 12.6751 221.438C12.6542 221.375 12.6123 221.251 12.6509 221.178C12.6025 220.659 12.4947 220.149 12.4673 219.692C12.4255 219.567 12.4641 219.495 12.4222 219.37C12.4013 219.308 12.419 219.173 12.3981 219.11C12.3321 218.726 12.3465 218.394 12.3014 218.072C12.2805 218.009 12.319 217.937 12.2981 217.874C12.2707 217.417 12.2432 216.96 12.2158 216.503C12.1949 216.441 12.1949 216.441 12.2335 216.368C12.2302 216.171 12.206 215.911 12.2027 215.714C12.1577 215.392 12.193 215.122 12.2073 214.79C12.2041 214.593 12.1799 214.333 12.2361 214.126C12.2328 213.928 12.2296 213.731 12.2054 213.471C12.223 213.336 12.2021 213.274 12.2407 213.202C12.2583 213.067 12.2165 212.942 12.2341 212.807C12.2276 212.412 12.2805 212.008 12.274 211.613C12.3125 211.541 12.2916 211.478 12.3093 211.343C12.3413 210.876 12.3733 210.409 12.4053 209.942C12.423 209.807 12.4615 209.735 12.4197 209.61C12.4165 209.413 12.4341 209.278 12.4903 209.071C12.5079 208.936 12.5047 208.738 12.5818 208.594C12.5785 208.396 12.6556 208.251 12.6523 208.054C12.6667 207.722 12.7615 207.442 12.7759 207.11C12.7935 206.975 12.7902 206.778 12.8673 206.633C12.9797 206.218 13.0117 205.751 13.1241 205.337C13.1032 205.274 13.1627 205.264 13.1418 205.202C13.2332 204.725 13.3456 204.31 13.4371 203.833C13.4547 203.698 13.5319 203.553 13.5495 203.418C13.6442 203.138 13.7181 202.796 13.8128 202.516C13.8899 202.372 13.8866 202.174 13.9637 202.029C14.0585 201.75 14.1532 201.47 14.248 201.19C14.3251 201.045 14.3218 200.848 14.3989 200.703C14.4936 200.423 14.5884 200.143 14.6831 199.864C14.7602 199.719 14.7779 199.584 14.855 199.439C14.8935 199.366 14.8726 199.304 14.9321 199.294C15.0654 198.942 15.2196 198.652 15.3529 198.3C15.3914 198.227 15.3705 198.165 15.4091 198.092C15.5423 197.74 15.6966 197.45 15.8298 197.098C15.8684 197.026 15.9455 196.881 15.984 196.808C16.1768 196.446 16.3486 196.021 16.5414 195.659C16.5799 195.587 16.6185 195.514 16.6956 195.369C16.8498 195.079 17.0425 194.717 17.1967 194.427C17.2738 194.282 17.3509 194.138 17.4875 193.983C17.6626 193.755 17.7573 193.475 17.9324 193.248C17.971 193.176 18.0304 193.166 18.0095 193.103C18.2232 192.803 18.3774 192.513 18.5911 192.214C18.6682 192.069 18.7662 191.986 18.8433 191.841C18.9204 191.696 19.0569 191.542 19.134 191.397C19.232 191.314 19.2497 191.179 19.3477 191.097C19.4457 191.014 19.4842 190.942 19.5613 190.797C19.775 190.497 20.0481 190.187 20.2618 189.887C20.2618 189.887 20.2618 189.887 20.3212 189.877C20.5943 189.567 20.808 189.268 21.102 189.02C21.1406 188.948 21.2386 188.865 21.2771 188.793C21.3157 188.72 21.4137 188.638 21.4522 188.565C21.6273 188.338 21.8828 188.163 22.0579 187.936C22.1174 187.926 22.0965 187.863 22.1559 187.853C22.2925 187.698 22.4885 187.533 22.6251 187.378C22.7231 187.296 22.8805 187.203 22.9576 187.058C22.9962 186.986 23.0556 186.976 23.0942 186.903C23.3288 186.666 23.5842 186.491 23.7802 186.326C23.8188 186.254 23.8782 186.244 23.9762 186.161C24.0148 186.089 24.0742 186.079 24.1128 186.006C24.4068 185.759 24.6623 185.584 24.9563 185.336C24.9563 185.336 25.0158 185.326 25.0543 185.254C25.1138 185.244 25.1523 185.171 25.1523 185.171C25.4464 184.924 25.8207 184.729 26.1148 184.481C26.4682 184.224 26.7832 184.039 27.1576 183.844C27.217 183.834 27.2556 183.761 27.2556 183.761C27.315 183.751 27.315 183.751 27.3536 183.679C27.6685 183.494 27.9834 183.309 28.2598 183.196C28.3193 183.186 28.3578 183.114 28.4173 183.104C28.4767 183.094 28.5153 183.021 28.5747 183.011C28.8511 182.899 29.1661 182.714 29.4424 182.601C29.5019 182.591 29.5404 182.519 29.5999 182.508C29.7188 182.488 29.7574 182.416 29.8763 182.396C30.1526 182.283 30.429 182.171 30.7054 182.058C30.8629 181.966 31.0412 181.936 31.1987 181.843C31.3562 181.751 31.5345 181.72 31.7515 181.618C31.8109 181.608 31.8109 181.608 31.8704 181.598C32.1468 181.485 32.3846 181.445 32.661 181.333C32.7204 181.323 32.8393 181.302 32.8988 181.292C32.9583 181.282 33.0772 181.262 33.1366 181.252C33.4725 181.13 33.8292 181.07 34.186 181.009C34.6022 180.939 34.9975 180.806 35.4137 180.736C35.5326 180.716 35.6515 180.696 35.7704 180.676C35.8299 180.666 35.8893 180.656 35.8893 180.656C36.0677 180.626 36.1866 180.606 36.365 180.576C36.4839 180.556 36.5433 180.546 36.6623 180.526C36.8406 180.496 37.019 180.465 37.1379 180.445C37.1974 180.435 37.2568 180.425 37.3163 180.415C37.3163 180.415 37.3163 180.415 37.3757 180.405C37.6136 180.365 37.9318 180.377 38.1696 180.337C38.2291 180.327 38.2885 180.317 38.348 180.307C38.5263 180.277 38.7851 180.299 38.9634 180.269C39.0229 180.259 39.0229 180.259 39.0824 180.249C39.1418 180.239 39.1418 180.239 39.2013 180.229C39.5195 180.241 39.8377 180.254 40.1559 180.266C40.474 180.278 40.7922 180.29 41.051 180.313C41.1104 180.303 41.1104 180.303 41.1699 180.293C41.2294 180.283 41.2888 180.273 41.3097 180.335C41.4286 180.315 41.509 180.367 41.6279 180.347C41.7468 180.327 41.8867 180.37 41.9461 180.36C42.065 180.34 42.1454 180.392 42.2852 180.434C42.425 180.477 42.5439 180.457 42.6243 180.509C42.7641 180.551 42.8236 180.541 42.9634 180.584C43.1032 180.626 43.1627 180.616 43.3025 180.658C43.4423 180.701 43.5018 180.691 43.6416 180.733C43.7011 180.723 43.7814 180.775 43.8409 180.765C43.8409 180.765 43.9003 180.755 43.9213 180.818C44.2604 180.892 44.5995 180.967 44.9386 181.042C44.998 181.032 45.0784 181.084 45.0784 181.084C45.4175 181.159 45.7775 181.296 46.176 181.361L59.218 185.228C58.858 185.091 58.5189 185.016 58.1204 184.951C58.0609 184.961 57.9805 184.909 57.9805 184.909C57.6414 184.834 57.3023 184.759 56.9632 184.685C56.8829 184.632 56.764 184.652 56.7045 184.663C56.5647 184.62 56.5052 184.63 56.3654 184.588C56.2256 184.545 56.1661 184.555 56.0263 184.513C55.8865 184.471 55.827 184.481 55.6872 184.438C55.5474 184.396 55.4879 184.406 55.3481 184.364C55.2083 184.321 55.1488 184.331 55.0299 184.351C54.911 184.372 54.7712 184.329 54.7117 184.339C54.5928 184.359 54.5124 184.307 54.3935 184.327C54.3341 184.337 54.1942 184.295 54.1348 184.305C53.8166 184.292 53.4984 184.28 53.2397 184.258C52.9215 184.246 52.6033 184.233 52.2851 184.221C52.2256 184.231 52.1067 184.251 52.0264 184.199C51.848 184.229 51.5892 184.207 51.4109 184.237C51.3514 184.247 51.2919 184.257 51.2325 184.267C50.9947 184.307 50.6765 184.295 50.4386 184.335C50.3792 184.345 50.2603 184.365 50.2008 184.375C50.0224 184.405 49.8441 184.435 49.7252 184.455C49.6062 184.475 49.5468 184.485 49.4279 184.505C49.2495 184.535 49.1306 184.555 48.9522 184.585C48.7738 184.616 48.5955 184.646 48.4765 184.666C48.0603 184.736 47.6442 184.806 47.2489 184.939C46.8921 184.999 46.5563 185.122 46.1995 185.182C46.1401 185.192 46.0212 185.212 45.9617 185.222C45.6259 185.344 45.2691 185.405 44.9333 185.527C44.8738 185.537 44.8738 185.537 44.8144 185.547C44.4785 185.67 44.0832 185.803 43.7474 185.925C43.3521 186.058 42.9777 186.253 42.6419 186.375C42.5824 186.386 42.5439 186.458 42.4844 186.468C42.1695 186.653 41.7742 186.786 41.4593 186.971C41.3998 186.981 41.3613 187.053 41.3018 187.063C40.9869 187.248 40.6125 187.443 40.2976 187.628C40.2381 187.638 40.1996 187.711 40.1996 187.711C39.8252 187.906 39.5311 188.153 39.1568 188.348C38.8627 188.596 38.4884 188.791 38.1943 189.038C38.1349 189.048 38.0963 189.121 38.0963 189.121C37.8023 189.368 37.4874 189.553 37.1933 189.801C37.1548 189.873 37.0953 189.883 37.0568 189.956C36.7628 190.203 36.4687 190.451 36.1747 190.698C36.1362 190.771 36.0767 190.781 36.0382 190.853C35.7441 191.1 35.5096 191.338 35.2365 191.648C35.177 191.658 35.1979 191.72 35.1385 191.73C34.8444 191.978 34.5713 192.288 34.3577 192.587C34.3191 192.66 34.2211 192.742 34.1826 192.815C33.9094 193.125 33.6363 193.435 33.4227 193.734C33.4227 193.734 33.4227 193.734 33.3632 193.744C33.0901 194.054 32.8764 194.354 32.6628 194.654C32.5648 194.736 32.5262 194.809 32.4491 194.954C32.274 195.181 32.0989 195.409 31.9447 195.698C31.8676 195.843 31.7696 195.926 31.6925 196.071C31.4789 196.37 31.2652 196.67 31.111 196.96C31.0724 197.033 31.013 197.043 31.0339 197.105C30.8588 197.332 30.7046 197.622 30.5889 197.84C30.5118 197.985 30.4347 198.129 30.3576 198.274C30.144 198.574 30.0107 198.926 29.797 199.226C29.7585 199.299 29.7199 199.371 29.6428 199.516C29.4501 199.878 29.2573 200.241 29.0855 200.665C29.0469 200.738 28.9698 200.883 28.9313 200.955C28.798 201.307 28.6438 201.597 28.5105 201.949C28.4719 202.022 28.4929 202.084 28.4543 202.157C28.2616 202.519 28.1492 202.934 27.9564 203.296C27.8793 203.441 27.8617 203.576 27.7846 203.721C27.6898 204 27.5951 204.28 27.5003 204.56C27.4232 204.705 27.4265 204.902 27.3494 205.047C27.2547 205.327 27.1599 205.607 27.0652 205.886C26.9881 206.031 26.9914 206.229 26.9143 206.373C26.8195 206.653 26.7457 206.995 26.6509 207.275C26.6333 207.41 26.5562 207.555 26.5386 207.69C26.4471 208.167 26.3347 208.582 26.2432 209.059C26.2641 209.121 26.2047 209.131 26.2256 209.194C26.1132 209.608 26.0812 210.075 25.9688 210.49C25.9511 210.625 25.9544 210.822 25.8773 210.967C25.8035 211.309 25.7682 211.579 25.7538 211.911C25.7571 212.108 25.68 212.253 25.6832 212.451C25.6689 212.783 25.595 213.125 25.5806 213.457C25.563 213.592 25.5244 213.664 25.5663 213.789C25.5342 214.256 25.5022 214.723 25.4702 215.19C25.4316 215.263 25.4526 215.325 25.4349 215.46C25.4414 215.855 25.3885 216.259 25.395 216.654C25.3774 216.789 25.4192 216.914 25.4016 217.049C25.3872 217.381 25.4114 217.64 25.397 217.973C25.4002 218.17 25.4244 218.43 25.3682 218.637C25.3538 218.969 25.378 219.229 25.3637 219.561C25.3669 219.758 25.3911 220.018 25.3944 220.215C25.4427 220.735 25.4701 221.192 25.459 221.721C25.4799 221.784 25.4414 221.856 25.4623 221.919C25.4897 222.376 25.5172 222.833 25.604 223.28C25.6459 223.404 25.6073 223.477 25.6491 223.602C25.6975 224.121 25.7844 224.568 25.8327 225.088C25.9196 225.535 25.947 225.992 26.0339 226.438C26.0548 226.501 26.0967 226.626 26.0581 226.698C26.1032 227.02 26.1692 227.405 26.2737 227.717C26.3155 227.842 26.3364 227.904 26.3188 228.039C26.3848 228.424 26.4717 228.871 26.5971 229.245C26.618 229.308 26.618 229.308 26.6389 229.37C26.7049 229.755 26.8304 230.129 26.9558 230.504C26.9976 230.629 27.0185 230.691 27.0603 230.816C27.1858 231.19 27.2727 231.637 27.3981 232.012C27.3981 232.012 27.3981 232.012 27.419 232.074C27.5445 232.449 27.6699 232.823 27.7954 233.198C27.8372 233.323 27.8581 233.385 27.8999 233.51C28.0254 233.884 28.1299 234.197 28.2553 234.571C28.2762 234.634 28.2762 234.634 28.2971 234.696C28.4226 235.071 28.548 235.445 28.7538 235.872C28.7957 235.997 28.8166 236.059 28.8584 236.184C28.9629 236.496 29.106 236.736 29.2105 237.048C29.2524 237.173 29.2942 237.298 29.3954 237.412C29.5594 237.715 29.6849 238.089 29.8489 238.391C29.8698 238.454 29.8907 238.516 29.8907 238.516C30.0756 238.88 30.2814 239.307 30.4068 239.682C30.4487 239.807 30.5499 239.922 30.5708 239.984C30.7139 240.224 30.8185 240.536 30.9615 240.775C31.0243 240.963 31.1465 241.14 31.2686 241.317C31.4117 241.557 31.4744 241.744 31.6175 241.984C31.7397 242.161 31.8024 242.348 31.9246 242.525C32.0468 242.703 32.1304 242.952 32.2526 243.13C32.3957 243.369 32.5388 243.609 32.6818 243.849C32.804 244.026 32.8667 244.213 32.9889 244.39C33.132 244.63 33.2751 244.87 33.4182 245.109C33.5613 245.349 33.6835 245.526 33.8265 245.766C34.1127 246.245 34.378 246.662 34.6642 247.141C34.7654 247.256 34.8282 247.443 34.9294 247.558C35.0934 247.86 35.3169 248.152 35.46 248.392C35.6834 248.684 35.8474 248.986 36.0499 249.216C36.1721 249.393 36.3152 249.633 36.4374 249.81C36.6608 250.102 36.8843 250.394 37.0483 250.696C37.1705 250.873 37.2926 251.051 37.4148 251.228C37.7814 251.759 38.1865 252.219 38.553 252.75C38.6543 252.865 38.7555 252.98 38.8568 253.095C39.1606 253.439 39.4259 253.856 39.7297 254.201C39.831 254.315 39.9532 254.493 40.0544 254.607C40.5013 255.192 40.9868 255.703 41.4337 256.287C41.4546 256.35 41.4546 256.35 41.535 256.402C42.0413 256.976 43.0272 257.222 43.5126 257.734C43.6348 257.911 43.7955 258.016 43.9177 258.193C44.1203 258.422 44.4032 258.704 44.6057 258.934C44.7873 259.101 44.9095 259.278 45.0912 259.446C45.2937 259.675 45.5766 259.957 45.7791 260.187C45.9608 260.354 46.083 260.531 46.2437 260.636C46.5266 260.918 46.7886 261.138 47.0121 261.43C47.1728 261.535 47.295 261.712 47.4557 261.817C47.819 262.151 48.1019 262.433 48.4652 262.767C48.5455 262.82 48.6468 262.935 48.6677 262.997C48.9297 263.217 49.7378 262.548 49.9998 262.767C50.101 262.882 49.8776 263.32 49.9998 263.497C50.363 263.831 51.1563 263.913 51.5196 264.247C51.8619 264.519 52.2252 264.853 52.5885 265.188C52.6689 265.24 52.6898 265.303 52.7701 265.355C53.1125 265.627 53.4758 265.961 53.8181 266.233C53.8985 266.286 53.9788 266.338 53.9998 266.401C54.363 266.735 54.7054 267.007 55.1281 267.331C55.149 267.394 55.2085 267.384 55.2294 267.446C55.5718 267.718 55.6574 268.225 55.9998 268.497C56.0801 268.549 55.9194 268.945 55.9998 268.997C56.0801 269.049 57.9937 267.906 56.9998 268.997C57.1605 269.102 57.1393 268.695 57.3001 268.8C57.3804 268.852 57.4608 268.905 57.562 269.02C57.7228 269.124 57.9044 269.292 58.0651 269.396C58.1455 269.449 58.2259 269.501 58.3062 269.554C58.5473 269.711 58.8093 269.93 59.0504 270.087L59.1308 270.14C59.3719 270.297 59.5535 270.464 59.7946 270.621C59.875 270.674 59.9553 270.726 60.0357 270.779C60.1964 270.883 60.3781 271.051 60.5388 271.155C60.6192 271.208 60.6995 271.26 60.7799 271.313C60.9615 271.48 61.1817 271.574 61.3634 271.742C61.4437 271.794 61.5241 271.846 61.545 271.909C61.7861 272.066 61.7587 272.84 61.9998 272.997C62.0801 273.049 61.9403 273.507 61.9998 273.497C62.1814 273.664 62.3181 273.33 62.4998 273.497C62.5801 273.549 62.4998 273.997 62.4998 273.997C62.4998 273.997 63.0159 273.921 63.1766 274.025C63.2569 274.078 63.3373 274.13 63.4177 274.183C63.6588 274.34 63.8404 274.507 64.0606 274.602L64.141 274.654C64.3821 274.811 65.1222 274.916 65.3842 275.136C65.4645 275.188 65.5449 275.24 65.6253 275.293C65.786 275.398 65.9676 275.565 66.1878 275.659C66.2682 275.712 66.3485 275.764 66.4289 275.817C66.5896 275.921 66.7504 276.026 66.9706 276.121C67.0509 276.173 67.1313 276.226 67.2116 276.278C67.4527 276.435 67.6939 276.593 67.9349 276.75C67.9349 276.75 67.9349 276.75 68.0153 276.802C68.2564 276.959 68.4766 277.054 68.7177 277.211C68.798 277.264 68.8784 277.316 68.9588 277.368C69.1195 277.473 69.2802 277.578 69.441 277.683C69.5213 277.735 69.6017 277.787 69.682 277.84C69.8428 277.945 70.0035 278.049 70.2237 278.144C70.3041 278.197 70.3635 278.187 70.3844 278.249C70.6255 278.406 70.8457 278.501 71.0868 278.658C71.1672 278.71 71.1672 278.71 71.2475 278.763C71.4083 278.868 71.6284 278.962 71.7892 279.067C71.8695 279.12 71.9499 279.172 72.0094 279.162C72.1701 279.267 72.3099 279.309 72.4706 279.414C72.551 279.466 72.6314 279.519 72.6908 279.509C72.8515 279.613 73.0717 279.708 73.2325 279.813C73.2919 279.803 73.3128 279.865 73.3723 279.855C73.5925 279.95 72.1283 279.142 72.3099 279.309C72.3903 279.361 72.4497 279.351 72.4706 279.414C72.6314 279.519 72.7712 279.561 72.9319 279.666C73.0123 279.718 73.0717 279.708 73.1521 279.76C73.2919 279.803 73.4527 279.908 73.5925 279.95C73.6728 280.002 73.7323 279.992 73.7532 280.055C73.9734 280.15 73.6249 280.581 73.7532 280.737L62.0703 278.328C61.8501 278.233 61.6894 278.128 61.4901 278.096C61.4098 278.044 61.3503 278.054 61.3294 277.991C61.1896 277.949 61.0288 277.844 60.889 277.802C60.8087 277.749 60.7492 277.759 60.6688 277.707C60.529 277.665 60.3683 277.56 60.2075 277.455C60.1272 277.403 60.0677 277.413 60.0468 277.35C59.8266 277.256 59.6064 277.161 59.4248 276.994C59.3654 277.004 59.3444 276.941 59.285 276.951C59.1243 276.847 58.9041 276.752 58.7433 276.647C58.663 276.595 58.5826 276.542 58.5232 276.552C58.3624 276.447 58.2226 276.405 58.0619 276.3C57.9815 276.248 57.9011 276.196 57.8417 276.206C57.681 276.101 57.4608 276.006 57.3001 275.901C57.2197 275.849 57.2197 275.849 57.1393 275.796C56.8982 275.639 56.678 275.545 56.4369 275.387C56.3566 275.335 56.2971 275.345 56.2762 275.283C56.1155 275.178 55.9548 275.073 55.7346 274.978C55.6542 274.926 55.5738 274.873 55.4935 274.821C55.3327 274.716 55.172 274.612 55.0113 274.507C54.9309 274.454 54.8506 274.402 54.7702 274.35C54.5291 274.192 54.3089 274.098 54.0678 273.94C54.0678 273.94 54.0678 273.94 53.9874 273.888C53.7464 273.731 53.5053 273.574 53.2642 273.417C53.1838 273.364 53.1034 273.312 53.0231 273.259C52.8623 273.155 52.7016 273.05 52.4605 272.893C52.3802 272.84 52.2998 272.788 52.2194 272.736C52.0587 272.631 51.8176 272.474 51.6569 272.369C51.5765 272.316 51.4961 272.264 51.4158 272.212C51.1747 272.054 50.9336 271.897 50.6716 271.678L50.5912 271.625C50.3501 271.468 50.1685 271.301 49.9483 271.206C49.8679 271.154 49.7876 271.101 49.7072 271.049C49.5465 270.944 49.3649 270.777 49.2041 270.672C49.1238 270.62 49.0434 270.567 48.963 270.515C48.7814 270.348 48.5612 270.253 48.3796 270.086C48.2992 270.033 48.2783 269.971 48.2188 269.981C47.9777 269.824 47.7157 269.604 47.4747 269.447C47.3943 269.395 47.3734 269.332 47.3139 269.342C47.1323 269.175 46.9121 269.08 46.7305 268.913C46.6501 268.861 46.5697 268.808 46.4894 268.756C46.3286 268.651 46.147 268.484 45.9863 268.379C45.9059 268.327 45.8255 268.274 45.7452 268.222C45.5041 268.065 45.3225 267.898 45.0814 267.741L45.001 267.688C44.7599 267.531 44.4979 267.311 44.2568 267.154C44.1764 267.102 44.0961 267.049 44.0157 266.997C43.855 266.892 43.6734 266.725 43.5126 266.62C43.4323 266.568 43.3519 266.515 43.2506 266.401C43.0899 266.296 42.9082 266.129 42.7475 266.024C42.6671 265.972 42.5868 265.919 42.5064 265.867L42.4261 265.814C42.4051 265.752 42.3457 265.762 42.3248 265.7C41.9824 265.428 41.5597 265.103 41.2173 264.831C41.1964 264.769 41.137 264.779 41.116 264.716C40.7528 264.382 40.351 264.12 39.9877 263.786C39.9073 263.733 39.8269 263.681 39.806 263.618C39.4637 263.346 39.1004 263.012 38.758 262.74C38.6777 262.688 38.6568 262.625 38.5764 262.573C38.2131 262.238 37.8708 261.966 37.5075 261.632C37.1442 261.298 36.7006 260.911 36.3373 260.576C36.236 260.462 36.0753 260.357 35.974 260.242C35.712 260.022 35.4291 259.74 35.1671 259.521C35.0868 259.468 35.0658 259.406 34.9646 259.291C34.6013 258.957 34.3184 258.675 33.9551 258.34C33.7944 258.236 33.6722 258.058 33.5115 257.954C33.2286 257.672 32.9666 257.452 32.7431 257.16C32.5615 256.993 32.4393 256.815 32.2577 256.648C31.9957 256.429 31.7722 256.137 31.5697 255.907C31.388 255.74 31.2659 255.563 31.0842 255.395C30.8817 255.166 30.6197 254.946 30.3962 254.654C30.3159 254.602 30.2146 254.487 30.1937 254.424C30.1133 254.372 30.0924 254.31 30.012 254.257C29.5057 253.683 29.0202 253.172 28.5139 252.598C28.493 252.535 28.493 252.535 28.4126 252.483C27.9271 251.971 27.4802 251.387 27.0333 250.803C26.953 250.75 26.9112 250.626 26.8308 250.573C26.7504 250.521 26.7295 250.458 26.6283 250.344C26.3244 249.999 25.9997 249.592 25.7554 249.238C25.6541 249.123 25.5528 249.008 25.4515 248.893C25.1059 248.424 24.6799 247.902 24.3134 247.371L24.2925 247.308C24.1912 247.194 24.069 247.016 23.9677 246.901C23.7443 246.609 23.5208 246.317 23.3568 246.015C23.2347 245.838 23.0916 245.598 22.9694 245.421C22.7459 245.129 22.6029 244.889 22.3794 244.597C22.3585 244.535 22.2781 244.483 22.2572 244.42C22.1142 244.181 21.971 243.941 21.8489 243.764C21.7476 243.649 21.6849 243.462 21.5836 243.347C21.3183 242.93 21.0322 242.451 20.746 241.971C20.7042 241.846 20.6238 241.794 20.582 241.669C20.4807 241.554 20.4389 241.43 20.3376 241.315C20.1946 241.075 20.0515 240.835 19.9084 240.596C19.7862 240.419 19.7235 240.231 19.6013 240.054C19.4582 239.814 19.3151 239.575 19.172 239.335C19.1511 239.273 19.0499 239.158 19.029 239.095C18.9871 238.971 18.8859 238.856 18.8441 238.731C18.7219 238.554 18.6592 238.366 18.537 238.189C18.3939 237.95 18.3312 237.762 18.1881 237.523C18.0659 237.345 18.0032 237.158 17.881 236.981C17.8601 236.918 17.8392 236.856 17.7588 236.804C17.6366 236.626 17.553 236.377 17.4308 236.199C17.389 236.075 17.2877 235.96 17.2668 235.897C17.0819 235.533 16.897 235.168 16.7716 234.794C16.7507 234.731 16.7298 234.669 16.7298 234.669C16.5658 234.367 16.4403 233.992 16.2763 233.69C16.2345 233.565 16.1927 233.441 16.0914 233.326C16.0496 233.201 16.0078 233.076 15.8856 232.899C15.8438 232.774 15.7811 232.587 15.7393 232.462C15.6975 232.337 15.6766 232.275 15.6348 232.15C15.3277 231.608 15.2022 231.234 15.0768 230.859Z" fill="#7A43EE"/>
<path d="M24.0025 222.947C21.2654 204.602 28.9708 188.405 42.1144 183.092C43.6281 182.493 45.2446 182.009 46.9251 181.717C60.7466 179.176 75.5972 189.9 81.3751 206.707C84.5096 215.841 85.2393 225.192 84.7859 234.614C84.1929 246.078 81.9205 256.892 78.6156 267.282C77.1612 271.837 75.4626 276.233 73.8668 280.746C67.2228 277.802 56.1486 270.185 49.0759 263.888C42.6969 258.142 36.7472 251.784 31.9311 243.884C28.1288 237.488 25.1414 230.681 24.0025 222.947ZM59.0215 235.268C65.8913 232.459 69.1349 223.022 66.2272 214.184C63.3796 205.337 55.4908 200.391 48.5396 203.148C41.6698 205.957 38.4261 215.395 41.3552 224.295C44.2415 233.069 52.1303 238.014 59.0215 235.268Z" fill="url(#paint2_linear_30_172)"/>
<path d="M305.142 392.283L321.461 310.127L358.037 366.398L365.915 449.117L305.142 392.283Z" fill="#FB7354"/>
<path d="M358.038 366.173L321.517 520.019L145.501 488.226L178.138 329.653L358.038 366.173Z" fill="url(#paint3_linear_30_172)"/>
<path d="M317.466 464.817L310.094 495.879C309.194 499.649 305.536 502.068 301.71 501.337L264.233 494.584C260.182 493.853 257.593 489.97 258.381 485.975L264.965 453.9C265.753 449.961 269.635 447.429 273.518 448.217L311.782 455.982C315.89 456.826 318.422 460.822 317.466 464.817Z" fill="#F8BA55"/>
<path d="M178.138 329.653L145.501 488.226L129.745 420.194L158.725 275.802L178.138 329.653Z" fill="#FB7354"/>
<path d="M358.037 366.173L178.138 329.653L158.725 275.802L321.517 309.958L358.037 366.173Z" fill="url(#paint4_linear_30_172)"/>
<path d="M358.037 366.173L178.138 329.653L310.966 356.618L321.517 309.958L358.037 366.173Z" fill="#FB7354"/>
<path d="M103.691 313.503L158.837 275.802L177.969 329.822L114.946 372.588L103.691 313.503Z" fill="url(#paint5_linear_30_172)"/>
<mask id="mask0_30_172" style="mask-type:alpha" maskUnits="userSpaceOnUse" x="166" y="34" width="265" height="326">
<path d="M347.2 359.784L178.378 310.205L166.674 34.2988L430.137 76.7842L347.2 359.784Z" fill="url(#paint6_linear_30_172)"/>
</mask>
<g mask="url(#mask0_30_172)">
<g filter="url(#filter0_ii_30_172)">
<path d="M258.858 129.728C271.033 135.341 253.634 178.428 253.634 178.428C253.634 178.428 296.428 174.123 297.069 189.612C297.452 198.77 287.901 216.885 287.596 228.519C287.406 236.611 297.43 239.093 294.494 243.129C287.436 252.87 276.996 259.464 276.996 259.464L302.13 375.537L227.804 372.481C227.804 372.481 223.875 275.766 221.784 238.337C219.693 200.909 223.406 183.339 232.802 169.72C242.26 156.092 258.858 129.728 258.858 129.728Z" fill="white"/>
</g>
</g>
<path d="M302.422 41.9439L242.408 246.739C245.994 251.451 250.208 253.348 254.941 253.271L310.992 46.0774L302.422 41.9439Z" fill="url(#paint7_linear_30_172)"/>
<path d="M434.528 233.322C393.863 191.036 324.549 147.783 271.716 131.911C280.252 90.8734 288.737 50.193 297.101 9.87494C350.763 21.1756 421.768 60.5065 464.896 99.4371C454.953 143.846 444.777 188.449 434.528 233.322Z" fill="white"/>
<path d="M434.528 233.322C393.863 191.036 324.549 147.783 271.716 131.911C272.36 128.858 272.983 125.717 273.628 122.663C326.512 138.177 396.059 181.237 436.865 223.247C436.079 226.576 435.293 229.905 434.528 233.322ZM464.896 99.4371C421.768 60.5065 350.763 21.1756 297.101 9.87494C296.456 12.9287 295.812 15.9825 295.167 19.0363C348.778 30.6946 419.641 70.3007 462.627 109.507C463.414 106.178 464.11 102.766 464.896 99.4371ZM460.259 120.025C417.484 80.5396 346.742 40.5712 293.183 28.5553C292.538 31.6091 291.894 34.6629 291.249 37.7167C344.757 50.0902 415.426 90.3292 457.991 130.095C458.755 126.679 459.542 123.35 460.259 120.025ZM455.601 140.527C413.27 100.568 342.721 59.9668 289.265 47.2357C288.62 50.2895 287.976 53.3432 287.331 56.397C340.736 69.4857 411.143 110.362 453.332 150.596C454.119 147.267 454.905 143.938 455.601 140.527ZM450.986 161.202C409.008 120.688 338.721 79.4494 285.39 66.0901C284.746 69.1439 284.101 72.1977 283.478 75.3385C336.711 89.1472 406.903 130.57 448.67 171.364C449.413 167.86 450.2 164.531 450.986 161.202ZM446.281 181.795C404.655 140.726 334.653 98.9367 281.494 84.8575C280.849 87.9113 280.205 90.9651 279.582 94.106C332.69 108.543 402.572 150.695 444.033 191.952C444.729 188.541 445.516 185.211 446.281 181.795ZM441.597 202.475C400.346 160.938 330.606 118.511 277.55 103.717C276.905 106.77 276.283 109.911 275.638 112.965C328.574 128.122 398.241 170.819 439.281 212.637C440.045 209.221 440.832 205.892 441.597 202.475Z" fill="#CDD8F7"/>
<path d="M378.447 132.913C349.158 113.329 317.533 98.8331 284.94 90.4089C289.129 67.9151 293.363 45.5993 297.598 23.2836C330.421 30.1454 362.436 43.1568 392.298 61.4247C387.742 85.2191 383.117 109.019 378.447 132.913Z" fill="url(#paint8_linear_30_172)"/>
<path d="M303.663 37.1053C304.394 37.504 305.169 37.8072 305.9 38.2058C305.239 38.6269 304.602 39.1378 304.011 39.5533C303.944 40.3842 303.877 41.2152 303.788 41.9563C303.103 41.4622 302.418 40.9681 301.733 40.474C300.936 40.6312 300.138 40.7883 299.318 40.8557C299.544 40.1033 299.77 39.351 299.974 38.5088C299.516 37.8126 299.127 37.1107 298.67 36.4145C299.513 36.437 300.288 36.4651 301.109 36.3977C301.654 35.8026 302.132 35.2131 302.678 34.618C303.136 35.5893 303.388 36.3024 303.663 37.1053ZM319.077 39.2339C318.531 39.829 318.031 40.3287 317.485 40.9238C316.71 40.8957 315.843 40.7834 315.068 40.7553C315.48 41.5469 315.938 42.2432 316.35 43.0348C316.124 43.7872 315.92 44.6294 315.694 45.3817C316.515 45.3144 317.244 45.1628 318.064 45.0955C318.749 45.5896 319.389 46.1791 320.096 46.7631C320.163 45.9321 320.23 45.1012 320.296 44.2702C320.956 43.8491 321.548 43.4337 322.185 42.9228C321.455 42.5241 320.724 42.1255 319.971 41.6369C319.65 40.9295 319.352 40.0368 319.077 39.2339ZM335.091 44.7986C334.613 45.3881 334.045 45.8934 333.567 46.4829C332.769 46.365 331.971 46.247 331.196 46.2189C331.608 47.0106 332.02 47.8023 332.432 48.594C332.206 49.3463 332.003 50.1885 331.776 50.9408C332.528 50.8791 333.349 50.8118 334.101 50.75C334.74 51.3396 335.448 51.9236 336.088 52.5131C336.154 51.6822 336.221 50.8512 336.288 50.0202C336.879 49.6048 337.539 49.1837 338.131 48.7682C337.378 48.2797 336.625 47.7912 335.963 47.387C335.641 46.4044 335.366 45.6015 335.091 44.7986ZM350.97 51.1999C350.469 51.6996 349.923 52.2947 349.423 52.7944C348.625 52.6764 347.872 52.4631 347.074 52.3451C347.486 53.1368 347.921 54.0183 348.265 54.8156C348.039 55.5679 347.836 56.4101 347.609 57.1625C348.361 57.1008 349.136 57.1289 349.888 57.0671C350.528 57.6567 351.191 58.3361 351.853 59.0155C351.92 58.1845 351.986 57.3536 352.03 56.4328C352.621 56.0173 353.305 55.6861 353.896 55.2706C353.211 54.7765 352.435 54.1982 351.75 53.704C351.498 52.991 351.2 52.0982 350.97 51.1999ZM366.486 58.6399C365.986 59.1396 365.485 59.6393 364.94 60.2344C364.187 60.021 363.389 59.9031 362.636 59.6897C363.003 60.5768 363.438 61.4583 363.782 62.2556C363.555 63.0079 363.352 63.8501 363.126 64.6025C363.901 64.6306 364.608 64.6643 365.383 64.6924C366.045 65.3718 366.639 66.0568 367.302 66.7362C367.368 65.9052 367.412 64.9844 367.547 64.1479C368.162 63.8222 368.753 63.4068 369.368 63.0812C368.66 62.4972 367.975 62.0031 367.267 61.4192C367.014 60.431 366.784 59.5326 366.486 58.6399ZM381.799 66.9221C381.299 67.4218 380.799 67.9214 380.298 68.4211C379.546 68.2077 378.793 67.9943 378.04 67.781C378.407 68.6681 378.774 69.5552 379.163 70.5322C378.937 71.2845 378.734 72.1267 378.507 72.879C379.214 72.9128 380.012 73.0307 380.719 73.0644C381.313 73.7494 381.999 74.5187 382.593 75.2037C382.659 74.3727 382.771 73.4463 382.838 72.6153C383.452 72.2897 384.067 71.9641 384.659 71.5486C383.951 70.9647 383.311 70.3751 382.581 69.7013C382.282 68.8086 382.052 67.9103 381.799 66.9221ZM300.33 55.4481C299.785 56.0432 299.307 56.6327 298.761 57.2279C297.918 57.2054 297.143 57.1773 296.3 57.1548C296.689 57.8566 297.169 58.6427 297.558 59.3445C297.332 60.0969 297.105 60.8492 296.902 61.6914C297.7 61.5342 298.52 61.4669 299.249 61.3153C299.934 61.8094 300.619 62.3036 301.304 62.7977C301.37 61.9667 301.437 61.1357 301.527 60.3946C302.187 59.9736 302.755 59.4683 303.415 59.0472C302.685 58.6485 301.887 58.2555 301.179 57.9466C300.881 57.0539 300.606 56.251 300.33 55.4481ZM316.502 60.2661C315.956 60.8612 315.456 61.3609 314.91 61.956C314.135 61.9279 313.269 61.8156 312.494 61.7875C312.906 62.5792 313.295 63.281 313.775 64.0671C313.549 64.8194 313.346 65.6616 313.119 66.414C313.94 66.3466 314.692 66.2849 315.489 66.1277C316.197 66.7117 316.814 67.2114 317.522 67.7953C317.588 66.9644 317.655 66.1334 317.721 65.3025C318.381 64.8814 318.973 64.4659 319.633 64.0449C318.903 63.6462 318.15 63.1577 317.419 62.759C317.076 61.9617 316.777 61.069 316.502 60.2661ZM332.516 66.1059C332.016 66.6056 331.47 67.2008 330.97 67.7004C330.172 67.5825 329.374 67.4646 328.576 67.3466C328.988 68.1383 329.4 68.93 329.812 69.7216C329.586 70.474 329.382 71.3162 329.156 72.0685C329.908 72.0068 330.729 71.9395 331.504 71.9676C332.143 72.5571 332.851 73.1411 333.514 73.8205C333.58 72.9895 333.647 72.1585 333.713 71.3276C334.305 70.9121 334.965 70.4911 335.557 70.0756C334.804 69.5871 334.119 69.093 333.365 68.6045C333.09 67.8016 332.792 66.9088 332.516 66.1059ZM348.259 72.7936C347.759 73.2933 347.213 73.8884 346.713 74.3881C345.915 74.2701 345.162 74.0568 344.364 73.9388C344.799 74.8203 345.143 75.6176 345.578 76.4991C345.352 77.2515 345.148 78.0937 344.922 78.846C345.697 78.8741 346.449 78.8124 347.224 78.8405C347.887 79.5199 348.526 80.1094 349.189 80.7888C349.255 79.9579 349.322 79.1269 349.365 78.2061C349.957 77.7907 350.572 77.465 351.232 77.044C350.547 76.5499 349.771 75.9715 349.086 75.4774C348.788 74.5847 348.558 73.6863 348.259 72.7936ZM363.708 80.5143C363.208 81.014 362.707 81.5137 362.139 82.019C361.386 81.8056 360.565 81.5978 359.835 81.4743C360.202 82.3614 360.637 83.2429 361.004 84.13C360.777 84.8824 360.574 85.7245 360.348 86.4769C361.123 86.505 361.829 86.5387 362.605 86.5668C363.267 87.2462 363.861 87.9312 364.524 88.6106C364.59 87.7797 364.702 86.8533 364.769 86.0223C365.384 85.6967 365.975 85.2812 366.59 84.9556C365.882 84.3716 365.174 83.7877 364.466 83.2037C364.259 82.3952 364.006 81.407 363.708 80.5143ZM378.885 89.0828C378.385 89.5825 377.884 90.0822 377.384 90.5819C376.631 90.3685 375.856 90.0653 375.103 89.8519C375.47 90.739 375.859 91.716 376.226 92.6031C376 93.3554 375.796 94.1976 375.57 94.95C376.277 94.9837 377.075 95.1016 377.782 95.1353C378.399 95.9102 378.993 96.5952 379.61 97.37C379.654 96.4492 379.789 95.6127 379.855 94.7817C380.47 94.4561 381.085 94.1305 381.631 93.8104C380.923 93.2265 380.26 92.5471 379.553 91.9632C379.368 90.9694 379.138 90.071 378.885 89.0828ZM296.933 75.4472C296.387 76.0423 295.91 76.6318 295.341 77.1371C294.566 77.109 293.722 77.0865 292.947 77.0584C293.336 77.7603 293.817 78.5464 294.206 79.2482C293.979 80.0005 293.753 80.7529 293.55 81.5951C294.347 81.4379 295.099 81.3762 295.897 81.219C296.582 81.7131 297.29 82.2971 297.906 82.7968C297.973 81.9658 298.039 81.1349 298.106 80.3039C298.766 79.8828 299.335 79.3775 299.995 78.9565C299.265 78.5578 298.534 78.1591 297.736 77.7661C297.483 77.053 297.208 76.2501 296.933 75.4472ZM313.037 80.5459C312.491 81.1411 311.991 81.6407 311.445 82.2359C310.647 82.1179 309.872 82.0898 309.005 81.9775C309.417 82.7692 309.829 83.5609 310.241 84.3525C310.015 85.1049 309.812 85.9471 309.586 86.6994C310.338 86.6377 311.158 86.5703 311.91 86.5086C312.55 87.0982 313.258 87.6821 313.897 88.2717C313.964 87.4407 314.03 86.6098 314.097 85.7788C314.757 85.3577 315.349 84.9423 315.94 84.5268C315.187 84.0383 314.457 83.6396 313.703 83.1511C313.61 82.2416 313.312 81.3488 313.037 80.5459ZM328.983 86.6665C328.483 87.1662 327.937 87.7613 327.437 88.261C326.639 88.1431 325.841 88.0251 325.043 87.9072C325.455 88.6989 325.867 89.4905 326.302 90.3721C326.076 91.1244 325.872 91.9666 325.646 92.7189C326.398 92.6572 327.173 92.6853 327.925 92.6236C328.565 93.2131 329.227 93.8925 329.867 94.4821C329.933 93.6511 330 92.8202 330.066 91.9892C330.658 91.5738 331.318 91.1527 331.933 90.8271C331.18 90.3386 330.495 89.8444 329.741 89.3559C329.489 88.3678 329.259 87.4694 328.983 86.6665ZM344.658 93.6349C344.158 94.1346 343.612 94.7297 343.112 95.2294C342.291 95.0216 341.561 94.8981 340.74 94.6903C341.175 95.5718 341.519 96.3691 341.954 97.2506C341.728 98.0029 341.524 98.8451 341.298 99.5975C342.073 99.6256 342.825 99.5638 343.6 99.592C344.263 100.271 344.925 100.951 345.496 101.546C345.563 100.715 345.607 99.7942 345.741 98.9576C346.333 98.5421 346.948 98.2165 347.54 97.8011C346.832 97.2171 346.147 96.723 345.371 96.1447C345.187 95.426 344.888 94.5332 344.658 93.6349ZM360.039 101.636C359.539 102.136 359.039 102.636 358.538 103.135C357.786 102.922 357.033 102.709 356.212 102.501C356.579 103.388 357.014 104.269 357.38 105.157C357.154 105.909 356.951 106.751 356.724 107.503C357.499 107.532 358.206 107.565 358.981 107.593C359.575 108.278 360.261 109.048 360.855 109.733C360.922 108.902 361.034 107.975 361.1 107.144C361.715 106.819 362.307 106.403 362.921 106.078C362.213 105.494 361.505 104.91 360.866 104.32C360.522 103.523 360.269 102.535 360.039 101.636ZM375.08 110.491C374.58 110.991 374.08 111.491 373.579 111.99C372.827 111.777 372.051 111.474 371.367 111.255C371.733 112.142 372.123 113.119 372.49 114.006C372.263 114.758 372.06 115.6 371.834 116.353C372.563 116.476 373.27 116.51 374.068 116.628C374.685 117.403 375.279 118.088 375.897 118.863C375.94 117.942 376.075 117.105 376.119 116.184C376.733 115.859 377.28 115.539 377.894 115.213C377.232 114.534 376.524 113.95 375.884 113.36C375.586 112.468 375.333 111.479 375.08 110.491Z" fill="white"/>
<g filter="url(#filter1_i_30_172)">
<path d="M287.687 174.949C273.602 170.419 248.525 184.836 245.356 187.413C241.722 190.435 243.513 193.64 243.513 193.64C239.418 195.769 241.167 200.761 245.443 204.39C241.497 205.458 241.19 209.661 245.93 213.811C245.93 213.811 241.605 218.277 250.987 226.072C260.335 233.946 279.932 244.508 282.811 245.612C285.691 246.716 287.577 246.195 287.577 246.195C293.376 245.652 295.907 241.617 294.728 233.641C299.049 229.547 298.943 223.257 295.629 215.395C299.699 208.966 298.763 200.804 294.696 191.503C294.639 191.512 296.753 177.897 287.687 174.949Z" fill="white"/>
</g>
<path d="M295.305 235.37C295.191 235.39 295.077 235.41 294.939 235.357C293.53 234.906 260.478 224.795 245.743 215.02C245.283 214.712 244.992 213.985 245.138 213.491C245.283 212.998 245.83 212.823 246.29 213.131C260.807 222.789 294.58 233.083 294.993 233.244C295.52 233.384 295.902 234.018 295.917 234.638C295.84 234.963 295.648 235.309 295.305 235.37ZM295.858 216.184C295.801 216.194 295.687 216.214 295.606 216.151C295.297 216.127 261.582 210.965 245.286 205.207C244.759 205.066 244.377 204.433 244.419 203.802C244.403 203.182 244.847 202.869 245.397 203.083C261.579 208.862 295.076 213.907 295.385 213.93C295.888 213.997 296.361 214.536 296.434 215.147C296.506 215.757 296.257 216.113 295.858 216.184ZM288.227 194.008C276.295 196.124 252 195.758 243.368 194.016C242.864 193.95 242.425 193.326 242.353 192.716C242.28 192.106 242.7 191.719 243.203 191.786C256.987 194.562 291.891 193.203 293.297 189.837C293.248 189.3 293.587 188.851 294.091 188.917C294.594 188.984 295.067 189.523 295.14 190.133C295.212 190.744 295.067 191.237 294.727 191.687C293.843 192.701 291.481 193.431 288.227 194.008Z" fill="#CDD8F7"/>
</g>
<defs>
<filter id="filter0_ii_30_172" x="221.219" y="114.728" width="100.912" height="260.809" filterUnits="userSpaceOnUse" color-interpolation-filters="sRGB">
<feFlood flood-opacity="0" result="BackgroundImageFix"/>
<feBlend mode="normal" in="SourceGraphic" in2="BackgroundImageFix" result="shape"/>
<feColorMatrix in="SourceAlpha" type="matrix" values="0 0 0 0 0 0 0 0 0 0 0 0 0 0 0 0 0 0 127 0" result="hardAlpha"/>
<feOffset dx="20" dy="-15"/>
<feGaussianBlur stdDeviation="12"/>
<feComposite in2="hardAlpha" operator="arithmetic" k2="-1" k3="1"/>
<feColorMatrix type="matrix" values="0 0 0 0 0.803922 0 0 0 0 0.847059 0 0 0 0 0.968627 0 0 0 1 0"/>
<feBlend mode="normal" in2="shape" result="effect1_innerShadow_30_172"/>
<feColorMatrix in="SourceAlpha" type="matrix" values="0 0 0 0 0 0 0 0 0 0 0 0 0 0 0 0 0 0 127 0" result="hardAlpha"/>
<feOffset dx="4" dy="-4"/>
<feGaussianBlur stdDeviation="2"/>
<feComposite in2="hardAlpha" operator="arithmetic" k2="-1" k3="1"/>
<feColorMatrix type="matrix" values="0 0 0 0 0.803922 0 0 0 0 0.847059 0 0 0 0 0.968627 0 0 0 1 0"/>
<feBlend mode="normal" in2="effect1_innerShadow_30_172" result="effect2_innerShadow_30_172"/>
</filter>
<filter id="filter1_i_30_172" x="241.192" y="168.075" width="63.0625" height="78.2432" filterUnits="userSpaceOnUse" color-interpolation-filters="sRGB">
<feFlood flood-opacity="0" result="BackgroundImageFix"/>
<feBlend mode="normal" in="SourceGraphic" in2="BackgroundImageFix" result="shape"/>
<feColorMatrix in="SourceAlpha" type="matrix" values="0 0 0 0 0 0 0 0 0 0 0 0 0 0 0 0 0 0 127 0" result="hardAlpha"/>
<feOffset dx="6" dy="-6"/>
<feGaussianBlur stdDeviation="3.5"/>
<feComposite in2="hardAlpha" operator="arithmetic" k2="-1" k3="1"/>
<feColorMatrix type="matrix" values="0 0 0 0 0.803922 0 0 0 0 0.847059 0 0 0 0 0.968627 0 0 0 1 0"/>
<feBlend mode="normal" in2="shape" result="effect1_innerShadow_30_172"/>
</filter>
<linearGradient id="paint0_linear_30_172" x1="137.5" y1="186.795" x2="97.6579" y2="106.477" gradientUnits="userSpaceOnUse">
<stop stop-color="#CDD8F7"/>
<stop offset="1" stop-color="#E8F0FF"/>
</linearGradient>
<linearGradient id="paint1_linear_30_172" x1="170.5" y1="204.795" x2="173.289" y2="86.3608" gradientUnits="userSpaceOnUse">
<stop stop-color="#CDD8F7"/>
<stop offset="1" stop-color="white"/>
</linearGradient>
<linearGradient id="paint2_linear_30_172" x1="69.3255" y1="293.813" x2="112.437" y2="229.995" gradientUnits="userSpaceOnUse">
<stop stop-color="#7A43EE"/>
<stop offset="1" stop-color="#B565E6"/>
</linearGradient>
<linearGradient id="paint3_linear_30_172" x1="300.175" y1="357.347" x2="173.832" y2="513.814" gradientUnits="userSpaceOnUse">
<stop stop-color="#F8BA55"/>
<stop offset="1" stop-color="#FB7354"/>
</linearGradient>
<linearGradient id="paint4_linear_30_172" x1="261.508" y1="288.106" x2="247.12" y2="344.758" gradientUnits="userSpaceOnUse">
<stop stop-color="#F8BA55"/>
<stop offset="1" stop-color="#FB7354"/>
</linearGradient>
<linearGradient id="paint5_linear_30_172" x1="165.289" y1="287.206" x2="91.1021" y2="343.858" gradientUnits="userSpaceOnUse">
<stop stop-color="#F8BA55"/>
<stop offset="1" stop-color="#FB7354"/>
</linearGradient>
<linearGradient id="paint6_linear_30_172" x1="259.199" y1="279.012" x2="241.698" y2="329.765" gradientUnits="userSpaceOnUse">
<stop stop-color="#F8BA55"/>
<stop offset="1" stop-color="#FB7354"/>
</linearGradient>
<linearGradient id="paint7_linear_30_172" x1="261.774" y1="165.718" x2="276.992" y2="169.536" gradientUnits="userSpaceOnUse">
<stop stop-color="#7A43EE"/>
<stop offset="1" stop-color="#B565E6"/>
</linearGradient>
<linearGradient id="paint8_linear_30_172" x1="284.576" y1="96.704" x2="378.985" y2="56.0622" gradientUnits="userSpaceOnUse">
<stop stop-color="#7A43EE"/>
<stop offset="1" stop-color="#B565E6"/>
</linearGradient>
<clipPath id="clip0_30_172">
<rect width="466" height="520" fill="white" transform="translate(0 -0.000976562)"/>
</clipPath>
</defs>
</svg>
