<svg width="490" height="480" viewBox="0 0 490 480" fill="none" xmlns="http://www.w3.org/2000/svg">
<g filter="url(#filter0_i_1248_288)">
<path d="M148.145 444.266C148.145 449.612 149.213 454.638 151.135 459.128C153.057 463.619 155.834 467.575 159.251 470.783C162.668 473.99 166.726 476.449 171.318 478.053C175.803 479.657 180.822 480.298 185.948 479.871L340.042 466.826C344.741 466.399 349.119 465.009 353.177 462.87C357.235 460.732 360.759 457.738 363.856 454.21C366.846 450.681 369.409 446.618 371.117 442.235C372.826 437.851 373.787 433.04 373.894 428.014L378.058 51.3329C378.165 46.2007 377.204 41.3893 375.602 36.7917C374 32.3011 371.544 28.1312 368.554 24.6028C365.564 21.0744 361.934 18.0806 357.982 15.8353C353.924 13.6969 349.439 12.3069 344.741 11.8792L188.724 0.117959C183.492 -0.309724 178.473 0.438721 173.881 2.14945C169.289 3.86018 165.124 6.42628 161.6 9.74082C158.076 13.0554 155.193 17.2253 153.271 21.8228C151.242 26.4204 150.174 31.6595 150.174 37.1125L148.145 444.266Z" fill="white"/>
</g>
<g filter="url(#filter1_d_1248_288)">
<path d="M163.736 436.782C163.736 440.952 164.484 444.801 165.979 448.329C167.474 451.858 169.609 454.851 172.279 457.418C174.949 459.877 178.046 461.908 181.57 463.084C185.094 464.367 188.938 464.795 192.889 464.474L333.848 453.248C337.479 452.927 340.896 451.858 344.1 450.254C347.197 448.543 350.08 446.298 352.429 443.518C354.779 440.738 356.701 437.637 358.089 434.109C359.477 430.687 360.225 426.945 360.225 422.989L364.069 56.679C364.069 52.7229 363.428 48.8738 362.147 45.3454C360.866 41.817 358.943 38.6094 356.594 35.8295C354.245 33.0495 351.468 30.6973 348.265 29.0935C345.061 27.3827 341.644 26.3135 337.906 26.0997L195.452 16.1561C191.394 15.8353 187.55 16.4768 183.919 17.7599C180.395 19.0429 177.191 21.0744 174.415 23.6405C171.745 26.2066 169.503 29.4142 168.008 32.9426C166.513 36.5779 165.658 40.534 165.551 44.8108L163.736 436.782Z" fill="#E8F0FF"/>
</g>
<path d="M176.764 240.368L177.298 132.486C177.298 129.492 177.939 126.605 179.007 124.039C180.075 121.473 181.676 119.227 183.599 117.303C185.521 115.378 187.763 113.881 190.326 112.919C192.889 111.957 195.559 111.422 198.442 111.529L334.062 116.768C336.732 116.875 339.188 117.517 341.43 118.693C343.673 119.869 345.702 121.366 347.41 123.29C349.119 125.215 350.4 127.46 351.362 129.919C352.323 132.379 352.75 135.159 352.75 137.939L351.682 239.513C351.682 242.293 351.148 244.966 350.08 247.425C349.119 249.884 347.731 252.13 346.022 253.947C344.314 255.765 342.285 257.369 339.935 258.438C337.693 259.507 335.13 260.149 332.567 260.149L197.588 261.753C194.704 261.753 191.928 261.218 189.472 260.149C187.016 259.08 184.773 257.583 182.851 255.551C180.929 253.627 179.434 251.274 178.366 248.708C177.298 246.249 176.657 243.362 176.764 240.368Z" fill="url(#paint0_linear_1248_288)"/>
<path d="M176.337 315.961C176.337 312.968 176.978 310.188 178.046 307.515C179.113 304.949 180.715 302.596 182.637 300.565C184.56 298.533 186.802 296.929 189.365 295.753C191.821 294.577 194.598 293.936 197.481 293.829L332.46 290.728C335.13 290.621 337.586 291.156 339.829 292.118C342.071 293.08 344.1 294.577 345.809 296.395C347.517 298.213 348.799 300.351 349.76 302.703C350.721 305.055 351.148 307.728 351.148 310.615C351.148 313.395 350.614 316.068 349.546 318.527C348.585 320.987 347.197 323.232 345.488 325.157C343.78 327.081 341.751 328.578 339.508 329.754C337.266 330.823 334.703 331.572 332.14 331.679L197.267 336.704C194.384 336.811 191.714 336.276 189.152 335.314C186.695 334.352 184.453 332.855 182.531 330.93C180.609 329.006 179.113 326.76 178.046 324.194C176.871 321.842 176.337 318.955 176.337 315.961Z" fill="url(#paint1_linear_1248_288)"/>
<path d="M176.017 367.604C176.017 368.78 176.23 369.957 176.657 370.919C177.085 371.881 177.725 372.843 178.473 373.592C179.22 374.34 180.181 374.875 181.142 375.303C182.104 375.73 183.278 375.837 184.453 375.837L343.032 367.925C344.1 367.925 345.061 367.604 345.915 367.177C346.77 366.749 347.624 366.107 348.265 365.359C348.905 364.611 349.546 363.648 349.867 362.686C350.294 361.724 350.507 360.654 350.507 359.478C350.507 358.409 350.294 357.34 349.973 356.378C349.653 355.415 349.119 354.56 348.371 353.918C347.731 353.17 346.876 352.635 346.022 352.315C345.168 351.994 344.1 351.78 343.139 351.78L184.56 358.73C183.385 358.73 182.317 359.051 181.249 359.585C180.288 360.013 179.327 360.761 178.58 361.51C177.832 362.365 177.191 363.327 176.764 364.29C176.337 365.359 176.017 366.428 176.017 367.604ZM175.91 396.58C175.91 397.756 176.123 398.932 176.551 399.894C176.978 400.857 177.618 401.819 178.366 402.567C179.114 403.316 180.075 403.85 181.036 404.278C181.997 404.599 183.171 404.813 184.239 404.706L342.605 395.297C343.673 395.19 344.634 394.976 345.488 394.441C346.343 394.014 347.197 393.372 347.838 392.517C348.478 391.768 349.119 390.806 349.439 389.844C349.867 388.881 350.08 387.812 350.08 386.636C350.08 385.567 349.866 384.498 349.546 383.535C349.226 382.573 348.692 381.718 347.944 381.076C347.304 380.328 346.449 379.793 345.595 379.472C344.741 379.152 343.673 378.938 342.712 379.045L184.239 387.598C183.065 387.705 181.997 387.919 180.929 388.454C179.968 388.988 179.007 389.63 178.259 390.485C177.512 391.341 176.871 392.303 176.444 393.265C176.123 394.334 175.91 395.404 175.91 396.58ZM175.803 425.555C175.803 426.731 176.017 427.801 176.444 428.87C176.871 429.832 177.512 430.794 178.259 431.436C179.007 432.184 179.861 432.719 180.929 433.04C181.89 433.36 183.065 433.574 184.133 433.467L297.327 425.662C298.395 425.555 299.463 425.341 300.317 424.807C301.278 424.379 302.133 423.631 302.773 422.882C303.521 422.134 304.055 421.172 304.482 420.209C304.909 419.247 305.123 418.071 305.123 417.002C305.123 415.825 304.909 414.756 304.589 413.901C304.162 412.939 303.628 412.083 302.987 411.442C302.346 410.693 301.492 410.159 300.531 409.838C299.57 409.517 298.609 409.303 297.541 409.41L184.239 416.574C183.065 416.681 181.997 417.002 180.929 417.429C179.968 417.964 179.007 418.605 178.259 419.461C177.512 420.316 176.871 421.278 176.444 422.348C176.017 423.203 175.803 424.379 175.803 425.555Z" fill="#CDD8F7"/>
<path d="M229.837 49.5152C229.837 50.3705 229.944 51.119 230.265 51.8674C230.585 52.6159 230.905 53.2574 231.439 53.792C231.973 54.3266 232.507 54.8612 233.255 55.182C233.895 55.5027 234.643 55.7166 235.497 55.8235L348.371 62.2387C349.119 62.2387 349.76 62.1318 350.4 61.918C351.041 61.7041 351.575 61.2765 352.109 60.7418C352.536 60.2072 352.963 59.6726 353.284 59.0311C353.604 58.3896 353.711 57.6412 353.711 56.8927V56.465C353.711 55.7166 353.604 54.9681 353.284 54.2197C353.07 53.4712 352.643 52.9366 352.216 52.2951C351.789 51.7605 351.148 51.3328 350.614 51.0121C349.973 50.6913 349.333 50.4775 348.585 50.4775L235.711 43.5276C234.963 43.5276 234.216 43.6345 233.468 43.8484C232.828 44.0622 232.187 44.4899 231.653 45.0245C231.119 45.5591 230.692 46.0937 230.478 46.8422C230.158 47.4837 230.051 48.3391 230.051 49.0875L229.837 49.5152ZM229.731 70.2578C229.731 71.1132 229.837 71.8616 230.158 72.61C230.478 73.3585 230.799 74 231.333 74.5346C231.866 75.0692 232.4 75.6038 233.148 75.9246C233.789 76.2453 234.536 76.4592 235.39 76.4592L287.503 79.1322C288.25 79.1322 288.998 79.0253 289.638 78.8114C290.279 78.5976 290.92 78.1699 291.347 77.6353C291.881 77.1007 292.201 76.5661 292.522 75.8177C292.842 75.1761 292.949 74.4277 292.949 73.5723V73.1446C292.949 72.3962 292.842 71.5408 292.522 70.8993C292.201 70.1509 291.881 69.5093 291.347 68.9747C290.813 68.4401 290.279 68.0125 289.638 67.5848C288.998 67.264 288.25 67.0502 287.503 67.0502L235.39 64.1633C234.643 64.1633 233.895 64.2702 233.148 64.4841C232.507 64.6979 231.866 65.1256 231.333 65.6602C230.799 66.1948 230.371 66.8363 230.158 67.4779C229.837 68.1194 229.731 68.9747 229.731 69.7232V70.2578ZM177.725 56.1443C177.725 59.138 178.259 62.0249 179.327 64.8048C180.395 67.4779 181.89 69.937 183.812 71.9685C185.734 74 187.977 75.7107 190.433 76.9938C192.889 78.1699 195.666 78.9184 198.549 79.1322C201.432 79.2391 204.209 78.8114 206.665 77.8492C209.121 76.8869 211.363 75.39 213.285 73.5723C215.208 71.7547 216.703 69.5093 217.77 66.9432C218.838 64.3772 219.479 61.5972 219.479 58.6034C219.479 55.6097 218.945 52.7228 217.877 50.1567C216.809 47.4837 215.314 45.1314 213.499 42.993C211.684 40.9615 209.441 39.1439 206.878 37.9678C204.422 36.6847 201.646 35.9363 198.762 35.7224C195.879 35.5086 193.103 35.9363 190.54 36.8985C187.977 37.8608 185.734 39.2508 183.812 41.1754C181.89 42.993 180.288 45.3453 179.22 47.8045C178.259 50.2636 177.725 53.1505 177.725 56.1443Z" fill="#CDD8F7"/>
<g filter="url(#filter2_i_1248_288)">
<path d="M5.80762 148.109C5.80762 153.562 6.87549 158.801 8.90445 163.506C10.9334 168.21 13.9235 172.38 17.5542 175.909C21.185 179.437 25.5633 182.217 30.3687 184.035C35.1741 185.959 40.4067 186.921 45.9597 186.814L198.772 183.393L224.829 200.286C225.576 200.821 226.43 201.035 227.285 201.035C228.139 201.035 228.886 200.821 229.634 200.393C230.381 199.966 230.915 199.324 231.343 198.683C231.77 197.934 231.983 197.079 232.09 196.223C232.09 196.117 232.09 196.117 232.09 196.01C232.09 195.903 232.09 195.903 232.09 195.796C232.09 195.689 232.09 195.689 232.09 195.582C232.09 195.475 232.09 195.475 232.09 195.368L230.275 182.858C235.08 182.751 239.672 181.575 243.943 179.651C248.108 177.726 251.846 174.946 255.049 171.632C258.253 168.317 260.816 164.361 262.524 159.977C264.34 155.594 265.301 150.889 265.408 145.864L265.942 104.592C266.048 99.5672 265.087 94.7558 263.379 90.372C261.67 85.9883 259.214 82.0322 256.117 78.7177C253.02 75.4032 249.283 72.6232 245.225 70.6986C241.06 68.7741 236.468 67.7049 231.663 67.5979L46.9208 64.1765C41.3678 64.0696 36.1352 65.0319 31.3298 66.9564C26.5244 68.881 22.1461 71.6609 18.4085 75.1893C14.671 78.7177 11.6809 82.9945 9.65196 87.699C7.51622 92.4035 6.44834 97.6426 6.34155 103.096L5.80762 148.109Z" fill="white"/>
</g>
<path d="M197.491 118.492C197.491 118.706 197.491 118.813 197.491 119.027C197.491 119.241 197.598 119.348 197.598 119.561C197.704 119.668 197.704 119.882 197.811 119.989C197.918 120.096 198.025 120.31 198.132 120.417L205.5 128.008C205.607 128.115 205.713 128.222 205.82 128.436C205.927 128.543 206.034 128.757 206.034 128.864C206.141 129.077 206.141 129.184 206.141 129.398C206.141 129.612 206.141 129.719 206.141 129.933V130.04V130.147V130.254V130.36L204.218 141.053V141.159V141.266V141.373V141.48C204.218 141.908 204.325 142.442 204.539 142.763C204.752 143.191 205.073 143.512 205.393 143.726C205.713 143.939 206.141 144.046 206.568 144.153C206.995 144.153 207.422 144.046 207.849 143.832L217.14 138.7C217.353 138.593 217.567 138.486 217.674 138.486C217.887 138.486 218.101 138.38 218.314 138.38C218.528 138.38 218.742 138.38 218.955 138.486C219.169 138.486 219.382 138.593 219.489 138.7L228.566 143.619C228.993 143.832 229.42 143.939 229.847 143.939C230.275 143.939 230.702 143.726 231.022 143.512C231.342 143.298 231.663 142.977 231.876 142.549C232.09 142.122 232.197 141.694 232.197 141.266V141.159V141.053V140.946V140.839L230.595 130.254V130.147V130.04V129.933V129.826C230.595 129.612 230.595 129.505 230.702 129.291C230.702 129.077 230.808 128.97 230.808 128.757C230.808 128.543 230.915 128.436 231.022 128.329C231.129 128.222 231.236 128.008 231.342 127.901L238.711 120.417C238.818 120.31 238.924 120.096 239.031 119.989C239.138 119.882 239.245 119.668 239.245 119.561C239.245 119.455 239.351 119.241 239.351 119.027C239.351 118.813 239.351 118.706 239.351 118.492C239.351 118.172 239.351 117.851 239.245 117.637C239.138 117.316 239.031 117.102 238.818 116.888C238.604 116.675 238.39 116.461 238.177 116.247C237.963 116.14 237.643 115.926 237.323 115.926L227.178 114.322C226.964 114.322 226.751 114.215 226.644 114.109C226.43 114.002 226.323 113.895 226.11 113.788C225.896 113.681 225.789 113.467 225.683 113.36C225.576 113.146 225.469 113.039 225.362 112.825L220.877 103.203C220.664 102.668 220.343 102.347 219.916 102.133C219.489 101.92 219.062 101.813 218.635 101.706C218.208 101.706 217.78 101.813 217.353 102.026C216.926 102.24 216.606 102.668 216.392 103.096L211.694 112.719C211.587 112.932 211.48 113.039 211.373 113.253C211.266 113.467 211.053 113.574 210.946 113.681C210.732 113.788 210.626 113.895 210.412 114.002C210.199 114.109 209.985 114.109 209.771 114.215L199.413 115.712C199.093 115.712 198.772 115.926 198.452 116.033C198.132 116.247 197.918 116.354 197.704 116.675C197.491 116.888 197.384 117.209 197.277 117.423C197.491 117.851 197.491 118.172 197.491 118.492ZM145.913 118.492C145.913 118.706 145.913 118.813 145.913 119.027C145.913 119.241 146.019 119.348 146.019 119.561C146.126 119.775 146.126 119.882 146.233 119.989C146.34 120.096 146.446 120.31 146.553 120.417L154.242 128.115C154.349 128.222 154.455 128.436 154.562 128.543C154.669 128.65 154.776 128.864 154.776 128.97C154.883 129.184 154.883 129.291 154.883 129.505C154.883 129.719 154.883 129.826 154.883 130.04V130.147V130.254V130.36V130.467L152.96 141.373V141.48V141.587V141.694V141.801C152.96 142.336 153.067 142.763 153.281 143.084C153.494 143.512 153.815 143.832 154.135 144.046C154.455 144.26 154.883 144.367 155.417 144.474C155.844 144.474 156.378 144.367 156.805 144.153L166.416 139.021C166.629 138.914 166.843 138.807 167.056 138.807C167.27 138.807 167.484 138.7 167.697 138.7C167.911 138.7 168.124 138.7 168.338 138.807C168.551 138.807 168.765 138.914 168.979 139.021L178.376 144.046C178.803 144.26 179.23 144.367 179.764 144.367C180.191 144.367 180.618 144.153 181.046 143.939C181.366 143.726 181.686 143.405 181.9 142.977C182.113 142.549 182.22 142.122 182.22 141.694V141.587V141.48V141.373V141.266L180.512 130.574V130.467V130.36V130.254V130.147C180.512 129.933 180.512 129.826 180.618 129.612C180.618 129.398 180.725 129.291 180.725 129.077C180.725 128.864 180.832 128.757 180.939 128.65C181.046 128.543 181.152 128.329 181.259 128.222L188.948 120.631C189.055 120.524 189.161 120.31 189.268 120.203C189.375 120.096 189.482 119.882 189.482 119.775C189.589 119.668 189.589 119.455 189.589 119.241C189.589 119.027 189.589 118.92 189.589 118.706C189.589 118.385 189.589 118.065 189.482 117.851C189.375 117.53 189.268 117.316 189.055 116.995C188.841 116.782 188.627 116.568 188.414 116.354C188.094 116.14 187.88 116.033 187.453 116.033L176.988 114.429C176.774 114.429 176.56 114.322 176.347 114.215C176.133 114.109 175.92 114.002 175.813 113.895C175.599 113.788 175.493 113.574 175.386 113.467C175.279 113.253 175.172 113.146 175.065 112.932L170.474 103.096C170.26 102.561 169.94 102.24 169.513 101.92C169.085 101.706 168.658 101.492 168.124 101.492C167.697 101.492 167.163 101.599 166.736 101.813C166.309 102.026 165.989 102.454 165.668 102.882L160.863 112.719C160.756 112.932 160.649 113.146 160.542 113.253C160.436 113.467 160.222 113.574 160.115 113.681C159.902 113.788 159.795 113.895 159.581 114.002C159.368 114.109 159.154 114.109 158.941 114.215L148.262 115.819C147.941 115.819 147.621 116.033 147.301 116.14C146.98 116.354 146.767 116.568 146.553 116.782C146.34 116.995 146.233 117.316 146.126 117.637C145.913 117.851 145.913 118.172 145.913 118.492ZM92.412 118.492C92.412 118.706 92.412 118.813 92.412 119.027C92.412 119.241 92.5188 119.348 92.5188 119.561C92.6256 119.775 92.6256 119.882 92.7324 120.096C92.8392 120.203 92.946 120.417 93.0527 120.524L101.062 128.329C101.169 128.436 101.275 128.65 101.382 128.757C101.489 128.864 101.596 129.077 101.596 129.184C101.703 129.398 101.703 129.505 101.703 129.719C101.703 129.933 101.703 130.04 101.703 130.254V130.36V130.467V130.574V130.681L99.6736 141.694V141.801V141.908V142.015V142.122C99.6736 142.656 99.7803 143.084 99.9939 143.512C100.207 143.939 100.528 144.26 100.955 144.474C101.382 144.688 101.809 144.902 102.236 144.902C102.664 144.902 103.198 144.795 103.625 144.581L113.556 139.342C113.769 139.235 113.983 139.128 114.197 139.128C114.41 139.021 114.624 139.021 114.837 139.021C115.051 139.021 115.265 139.021 115.478 139.128C115.692 139.128 115.905 139.235 116.119 139.342L125.836 144.474C126.264 144.688 126.798 144.795 127.225 144.795C127.652 144.795 128.079 144.581 128.506 144.367C128.933 144.153 129.254 143.832 129.467 143.405C129.681 142.977 129.788 142.549 129.788 142.015V141.908V141.801V141.694V141.587L127.972 130.681V130.574V130.467V130.36V130.254C127.972 130.04 127.972 129.933 128.079 129.719C128.079 129.505 128.186 129.398 128.293 129.184C128.399 128.97 128.399 128.864 128.506 128.757C128.613 128.65 128.72 128.436 128.827 128.329L136.729 120.524C136.836 120.417 136.942 120.203 137.049 120.096C137.156 119.989 137.263 119.775 137.263 119.668C137.37 119.455 137.37 119.348 137.37 119.134C137.37 118.92 137.37 118.813 137.37 118.599C137.37 118.278 137.37 117.958 137.263 117.637C137.156 117.316 137.049 117.102 136.836 116.782C136.622 116.568 136.408 116.354 136.088 116.14C135.768 115.926 135.447 115.819 135.127 115.819L124.235 114.215C124.021 114.215 123.808 114.109 123.594 114.002C123.38 113.895 123.167 113.788 123.06 113.681C122.846 113.574 122.74 113.36 122.633 113.253C122.526 113.039 122.419 112.932 122.312 112.719L117.507 102.668C117.293 102.133 116.866 101.813 116.439 101.492C116.012 101.278 115.585 101.064 115.051 101.064C114.517 101.064 114.09 101.171 113.663 101.385C113.236 101.599 112.915 102.026 112.595 102.561L107.576 112.612C107.469 112.825 107.362 113.039 107.255 113.146C107.149 113.36 106.935 113.467 106.722 113.574C106.508 113.681 106.401 113.788 106.188 113.895C105.974 114.002 105.76 114.002 105.547 114.109L94.441 115.712C94.1206 115.712 93.6935 115.926 93.4799 116.033C93.1595 116.247 92.946 116.461 92.7324 116.675C92.5188 116.888 92.412 117.209 92.3052 117.53C92.412 117.851 92.412 118.172 92.412 118.492ZM36.8826 118.492C36.8826 118.706 36.8826 118.813 36.8826 119.027C36.8826 119.241 36.9894 119.348 36.9894 119.561C37.0961 119.775 37.0961 119.882 37.3097 120.096C37.4165 120.203 37.5233 120.417 37.7369 120.524L46.0663 128.543C46.1731 128.65 46.2799 128.864 46.3866 128.97C46.4934 129.077 46.6002 129.291 46.707 129.505C46.8138 129.719 46.8138 129.826 46.9206 130.04C46.9206 130.254 47.0274 130.36 47.0274 130.574V130.681V130.788V130.895V131.002L44.9984 142.229V142.336V142.442V142.549V142.656C44.9984 143.191 45.1052 143.619 45.3188 144.046C45.5323 144.474 45.8527 144.795 46.2799 145.009C46.707 145.222 47.1342 145.436 47.6681 145.436C48.202 145.436 48.6292 145.329 49.1631 145.116L59.4147 139.769C59.6283 139.663 59.8419 139.556 60.0554 139.556C60.269 139.449 60.4826 139.449 60.6962 139.449C60.9097 139.449 61.1233 139.449 61.3369 139.556C61.5505 139.556 61.764 139.663 61.9776 139.769L72.1224 145.009C72.5496 145.222 73.0835 145.329 73.5106 145.329C73.9378 145.329 74.4717 145.116 74.7921 144.902C75.2192 144.688 75.5396 144.367 75.7532 143.939C75.9668 143.512 76.1803 143.084 76.1803 142.549V142.442V142.336V142.229V142.122L74.3649 131.002V130.895V130.788V130.681V130.574C74.3649 130.36 74.3649 130.254 74.4717 130.04C74.4717 129.826 74.5785 129.719 74.6853 129.505C74.7921 129.291 74.8989 129.184 74.8989 129.077C75.0057 128.97 75.1125 128.757 75.2192 128.65L83.4419 120.738C83.5487 120.631 83.7622 120.417 83.869 120.31C83.9758 120.203 84.0826 119.989 84.0826 119.775C84.1894 119.561 84.1894 119.455 84.1894 119.241C84.1894 119.027 84.1894 118.92 84.2962 118.706C84.2962 118.385 84.2962 118.065 84.1894 117.744C84.0826 117.423 83.9758 117.209 83.7622 116.888C83.5487 116.675 83.3351 116.461 83.0147 116.247C82.6944 116.033 82.374 115.926 82.0536 115.926L70.7342 114.322C70.5206 114.322 70.307 114.215 70.0934 114.109C69.8799 114.002 69.6663 113.895 69.5595 113.788C69.3459 113.681 69.2391 113.467 69.0256 113.36C68.9188 113.146 68.7052 113.039 68.7052 112.825L63.6862 102.668C63.4726 102.133 63.0455 101.706 62.6183 101.492C62.1912 101.278 61.6572 101.064 61.1233 101.064C60.5894 101.064 60.1622 101.171 59.6283 101.492C59.2011 101.706 58.774 102.133 58.5604 102.668L53.4346 112.825C53.3278 113.039 53.221 113.253 53.0075 113.36C52.9007 113.574 52.6871 113.681 52.4735 113.788C52.26 113.895 52.0464 114.002 51.8328 114.109C51.6192 114.215 51.4057 114.215 51.1921 114.322L39.3387 115.712C38.9115 115.819 38.5912 115.926 38.2708 116.033C37.9504 116.247 37.7369 116.461 37.5233 116.675C37.3097 116.888 37.0961 117.209 36.9894 117.53C36.9894 117.851 36.8826 118.172 36.8826 118.492Z" fill="url(#paint2_linear_1248_288)"/>
<path d="M361.613 240.476C311.316 241.224 276.29 284.527 283.445 337.239C290.6 389.951 337.159 432.077 387.562 431.329C437.859 430.581 472.886 387.278 465.731 334.566C458.576 281.854 412.017 239.727 361.613 240.476Z" fill="url(#paint3_linear_1248_288)"/>
<path d="M373.36 227.645C323.063 228.394 288.037 271.697 295.191 324.409C302.346 377.12 348.905 419.247 399.309 418.499C449.606 417.75 484.632 374.447 477.477 321.735C470.323 269.024 423.763 226.897 373.36 227.645Z" fill="url(#paint4_linear_1248_288)"/>
<path d="M337.8 353.17C336.838 353.17 336.091 354.133 337.586 355.629C344.634 363.221 366.952 381.397 392.902 381.077C418.744 380.756 432.2 365.68 433.695 363.114C434.976 361.082 434.229 359.692 432.947 359.799C432.627 359.799 432.306 359.906 431.879 360.013C417.356 368.032 404.221 371.133 392.368 371.24C369.515 371.561 351.575 360.975 338.654 353.491C338.44 353.17 338.12 353.17 337.8 353.17ZM435.83 350.711C434.549 350.711 433.267 350.818 432.093 351.032C428.248 351.566 422.696 354.133 423.443 355.629C423.55 355.843 423.763 355.95 424.191 355.95C424.724 355.95 425.472 355.843 426.967 355.629C428.355 355.416 430.918 355.095 433.374 355.095C435.724 355.095 437.966 355.309 438.927 356.378C440.849 358.516 438.18 368.994 437.753 370.598C437.432 371.668 437.753 372.202 438.286 372.202C438.607 372.202 439.034 371.988 439.461 371.561C440.636 370.384 442.558 367.498 443.626 363.435C444.694 359.265 444.801 353.598 443.733 352.315C442.665 351.139 439.248 350.711 435.83 350.711ZM385.213 337.346C379.553 337.453 375.709 332.962 374.855 326.333C373.039 313.289 383.932 310.723 394.504 310.616L394.931 313.93C395.785 319.918 396.533 324.836 394.397 330.182C392.688 334.566 389.378 337.239 385.213 337.346ZM380.301 265.068C366.419 265.281 351.575 270.948 350.721 289.018C350.614 290.942 352.109 291.905 353.284 292.225L367.7 293.615C368.981 293.509 369.836 292.119 369.836 290.729C370.263 284.527 374.748 281.427 380.408 281.32C383.398 281.32 387.029 282.389 389.164 285.169C391.62 288.269 391.941 292.546 392.475 296.288L392.795 298.32C384.466 299.496 373.467 300.245 365.991 304.094C357.448 308.371 352.109 316.924 353.818 329.327C355.953 345.258 366.632 353.063 379.019 352.849C389.485 352.743 394.824 350.07 401.658 341.409C404.862 345.365 406.037 347.397 411.483 351.46C412.017 351.673 412.551 351.887 413.085 351.78C413.832 351.78 414.473 351.566 414.9 351.032C417.463 348.252 422.055 343.334 424.724 340.661C425.792 339.591 425.365 337.988 424.191 336.598C420.987 332.748 417.677 329.648 416.715 322.484L413.512 298.641C412.124 288.483 411.59 279.288 403.474 272.338C397.067 266.778 387.456 264.961 380.301 265.068Z" fill="url(#paint5_linear_1248_288)"/>
<path d="M87.1695 302.854C87.1695 302.747 87.1695 302.534 87.2763 302.427C87.3831 301.785 87.4899 301.251 87.4899 300.609C87.4899 300.395 87.5967 300.181 87.5967 299.861C87.7035 299.112 87.7035 298.257 87.8102 297.401C87.8102 296.867 87.8102 296.225 87.8102 295.691C87.8102 295.477 87.8102 295.263 87.8102 295.156C87.8102 294.835 87.8102 294.408 87.8102 294.087C87.8102 294.087 87.8102 294.087 87.8102 293.98C87.8102 293.873 87.8102 293.766 87.8102 293.659C87.8102 293.125 87.7035 292.59 87.7035 292.162C87.7035 291.948 87.7035 291.735 87.5967 291.521C87.5967 291.093 87.4899 290.665 87.3831 290.238C87.3831 290.131 87.3831 290.024 87.3831 289.917C87.3831 289.81 87.3831 289.703 87.3831 289.703C87.3831 289.382 87.2763 289.169 87.1695 288.848C87.1695 288.634 87.0627 288.42 87.0627 288.099C86.956 287.779 86.956 287.565 86.8492 287.244C86.8492 287.03 86.7424 286.923 86.7424 286.709V286.602C86.5288 285.854 86.2084 284.999 85.9949 284.25C85.9949 284.143 85.9949 284.143 85.8881 284.036C85.8881 283.929 85.8881 283.929 85.7813 283.823C85.4609 283.181 85.2474 282.433 84.927 281.791C84.927 281.791 84.927 281.684 84.8202 281.684C84.8202 281.577 84.7134 281.577 84.7134 281.47C84.3931 280.829 84.0727 280.187 83.6455 279.546C83.3252 279.011 82.898 278.37 82.4709 277.835C82.4709 277.728 82.3641 277.728 82.3641 277.621L82.2573 277.514C81.8302 276.98 81.403 276.445 80.9759 275.91C80.9759 275.91 80.9759 275.803 80.8691 275.803C80.6555 275.59 80.4419 275.269 80.1216 275.055L71.365 265.753C71.5786 266.074 71.8989 266.288 72.1125 266.608C72.5397 267.143 72.9668 267.677 73.3939 268.212C73.5007 268.319 73.6075 268.426 73.6075 268.533C74.0347 269.067 74.355 269.602 74.7822 270.244C75.1026 270.885 75.5297 271.527 75.8501 272.168C75.9568 272.275 75.9568 272.382 76.0636 272.489C76.384 273.13 76.7044 273.772 76.9179 274.52C76.9179 274.627 77.0247 274.734 77.0247 274.841C77.3451 275.59 77.5587 276.338 77.7722 277.193C77.879 277.407 77.879 277.621 77.9858 277.835C78.0926 278.156 78.0926 278.37 78.1994 278.69C78.3062 278.904 78.3062 279.118 78.3062 279.439C78.413 279.76 78.413 279.973 78.5197 280.294C78.5197 280.508 78.6265 280.722 78.6265 280.936C78.7333 281.363 78.7333 281.791 78.8401 282.219C78.8401 282.433 78.8401 282.646 78.9469 282.86C79.0537 283.395 79.0537 283.929 79.0537 284.464C79.0537 284.571 79.0537 284.678 79.0537 284.785C79.0537 285.106 79.0537 285.533 79.0537 285.854C79.0537 286.068 79.0537 286.175 79.0537 286.389C79.0537 286.923 79.0537 287.565 79.0537 288.099C79.0537 288.955 78.9469 289.703 78.8401 290.559C78.8401 290.772 78.7333 290.986 78.7333 291.307C78.6265 291.948 78.5197 292.483 78.5197 293.125C78.5197 293.338 78.413 293.552 78.413 293.766C78.3062 294.622 78.0926 295.477 77.879 296.332C77.7722 296.546 77.7722 296.76 77.6654 297.081C77.5587 297.508 77.4519 298.043 77.2383 298.471C77.1315 298.791 77.0247 299.005 77.0247 299.326C76.9179 299.754 76.7044 300.181 76.5976 300.609C76.4908 300.93 76.384 301.144 76.2772 301.464C76.1704 301.892 75.9569 302.32 75.7433 302.747C75.6365 302.961 75.5297 303.282 75.4229 303.496C75.2093 303.924 74.9958 304.351 74.7822 304.779C74.6754 304.993 74.5686 305.207 74.4618 305.527C74.1415 306.062 73.9279 306.704 73.6075 307.238C73.6075 307.345 73.5007 307.452 73.5007 307.559C73.1804 308.2 72.7532 308.842 72.4329 309.483C72.2193 309.911 72.0057 310.232 71.6854 310.66C71.5786 310.873 71.4718 310.98 71.365 311.194C71.0446 311.729 70.6175 312.263 70.2971 312.798C69.6564 313.653 69.1225 314.402 68.4817 315.257C68.3749 315.471 68.2682 315.578 68.0546 315.792C67.5206 316.54 66.8799 317.182 66.2392 317.93C66.1324 318.037 66.0256 318.144 65.9188 318.251C65.3849 318.786 64.851 319.32 64.317 319.855C64.1034 320.069 63.9967 320.176 63.7831 320.389C63.1424 321.031 62.5016 321.565 61.8609 322.207C61.2202 322.742 60.5795 323.383 59.832 323.918C59.6184 324.025 59.4048 324.239 59.298 324.345C58.7641 324.773 58.2301 325.201 57.6962 325.628C57.4826 325.735 57.3758 325.842 57.1623 325.949C56.4148 326.484 55.6672 326.912 54.9197 327.446C54.8129 327.553 54.5994 327.66 54.4926 327.767C53.8519 328.195 53.2111 328.622 52.4636 328.943C52.25 329.05 52.1433 329.157 51.9297 329.264C51.0754 329.691 50.2211 330.226 49.3668 330.654C49.0464 330.761 48.7261 330.975 48.4057 331.081C48.1921 331.188 47.8718 331.295 47.6582 331.402C47.231 331.616 46.8039 331.723 46.4835 331.937C46.27 332.044 46.0564 332.151 45.8428 332.151C45.6292 332.258 45.4157 332.364 45.0953 332.364C44.6681 332.578 44.1342 332.685 43.7071 332.899C43.3867 333.006 43.1731 333.113 42.8528 333.113C42.4256 333.22 41.9985 333.434 41.5713 333.541C41.1442 333.648 40.717 333.754 40.3966 333.861C40.1831 333.861 39.9695 333.968 39.7559 333.968C39.1152 334.075 38.4745 334.289 37.8337 334.396C28.4365 336.321 20.0003 334.824 13.4862 330.975C11.3505 329.691 9.32151 328.088 7.61292 326.27L16.3695 335.572C23.2039 342.843 34.0962 346.264 46.5903 343.698C47.231 343.591 47.8718 343.377 48.5125 343.27C48.7261 343.27 48.9396 343.163 49.1532 343.163C49.4736 343.057 49.7939 343.057 50.1143 342.95C50.2211 342.95 50.3279 342.843 50.4347 342.843C50.8618 342.736 51.289 342.629 51.7161 342.415C52.0365 342.308 52.25 342.201 52.5704 342.201C52.9976 342.094 53.5315 341.88 53.9586 341.667C54.1722 341.56 54.3858 341.56 54.4926 341.453H54.5994C54.8129 341.346 55.0265 341.239 55.2401 341.239C55.6672 341.025 56.0944 340.918 56.4148 340.704C56.6283 340.597 56.8419 340.49 57.1623 340.384C57.3758 340.277 57.6962 340.17 57.9098 340.063C58.0166 340.063 58.0166 339.956 58.1234 339.956C58.9777 339.528 59.832 339.1 60.6863 338.566C60.793 338.566 60.793 338.459 60.8998 338.459C61.0066 338.352 61.1134 338.352 61.2202 338.245C61.8609 337.817 62.6084 337.497 63.2492 337.069C63.3559 336.962 63.4627 336.962 63.5695 336.855L63.6763 336.748C64.4238 336.321 65.1713 335.786 65.812 335.251L65.9188 335.144C66.0256 335.037 66.1324 334.931 66.2392 334.931C66.7731 334.503 67.3071 334.075 67.841 333.648C67.9478 333.541 68.0546 333.434 68.1614 333.434C68.2682 333.327 68.2682 333.327 68.3749 333.22C69.0157 332.685 69.7632 332.151 70.4039 331.509C71.0446 330.975 71.6854 330.333 72.3261 329.691C72.4329 329.585 72.4329 329.585 72.5397 329.478C72.6464 329.371 72.7532 329.264 72.86 329.157C73.3939 328.622 73.9279 328.088 74.4618 327.553C74.5686 327.446 74.6754 327.339 74.6754 327.339C74.6754 327.339 74.6754 327.232 74.7822 327.232C75.4229 326.591 75.9568 325.842 76.5976 325.094C76.7044 324.987 76.7044 324.987 76.8112 324.88C76.9179 324.773 76.9179 324.666 77.0247 324.559C77.6654 323.811 78.3062 322.955 78.8401 322.1C79.2673 321.566 79.5876 321.031 79.908 320.496C80.0148 320.282 80.1216 320.176 80.2283 319.962C80.4419 319.641 80.6555 319.213 80.8691 318.892C80.8691 318.892 80.8691 318.786 80.9759 318.786C81.403 318.144 81.7234 317.503 82.0437 316.861C82.0437 316.754 82.1505 316.647 82.1505 316.54C82.4709 316.006 82.7912 315.364 83.0048 314.829C83.0048 314.723 83.1116 314.723 83.1116 314.616C83.2184 314.402 83.2184 314.295 83.3252 314.081C83.5388 313.653 83.7523 313.226 83.9659 312.798C84.0727 312.584 84.1795 312.263 84.2863 312.05C84.4998 311.622 84.6066 311.194 84.8202 310.767C84.927 310.446 85.0338 310.232 85.1406 309.911C85.2473 309.483 85.4609 309.056 85.5677 308.628C85.6745 308.307 85.7813 308.093 85.7813 307.773C85.8881 307.345 85.9949 306.917 86.2084 306.383C86.2084 306.169 86.3152 305.955 86.3152 305.848V305.741C86.5288 304.886 86.7424 304.031 86.8492 303.175C87.1695 303.068 87.1695 302.961 87.1695 302.854Z" fill="#7A43EE"/>
<path d="M41.251 258.055C19.3596 262.332 0.992145 283.074 0.0310584 304.138C-0.823241 325.201 16.0492 338.78 37.9406 334.396C59.7252 330.012 78.1994 309.377 79.0537 288.313C80.0148 267.143 63.0356 253.671 41.251 258.055Z" fill="#B565E5"/>
<path d="M40.8238 266.822C24.0581 270.244 9.85542 286.068 9.10791 302.32C8.36039 318.572 21.4952 328.943 38.2609 325.629C55.0265 322.207 69.2292 306.383 69.8699 290.131C70.6174 273.879 57.5894 263.401 40.8238 266.822Z" fill="url(#paint6_linear_1248_288)"/>
<path d="M444.801 179.852C444.907 179.852 445.014 179.959 445.121 179.959C445.655 180.173 446.189 180.28 446.616 180.493C446.83 180.6 447.043 180.6 447.257 180.707C447.897 180.921 448.645 181.028 449.286 181.242C449.82 181.349 450.247 181.456 450.781 181.563C450.994 181.563 451.101 181.563 451.315 181.67C451.635 181.67 451.955 181.776 452.276 181.776C452.276 181.776 452.276 181.776 452.382 181.776C452.489 181.776 452.489 181.776 452.596 181.776C453.023 181.776 453.45 181.883 453.984 181.883C454.198 181.883 454.305 181.883 454.518 181.883C454.945 181.883 455.266 181.883 455.693 181.883C455.8 181.883 455.906 181.883 456.013 181.883C456.12 181.883 456.12 181.883 456.227 181.883C456.44 181.883 456.761 181.883 456.974 181.883C457.188 181.883 457.401 181.883 457.615 181.883C457.829 181.883 458.149 181.883 458.363 181.776C458.469 181.776 458.683 181.776 458.79 181.776H458.897C459.644 181.67 460.285 181.563 461.032 181.456C461.139 181.456 461.139 181.456 461.246 181.456H461.353C461.993 181.349 462.634 181.135 463.168 180.921H463.275C463.382 180.921 463.382 180.921 463.488 180.814C464.129 180.6 464.663 180.386 465.304 180.173C465.838 179.959 466.372 179.745 466.906 179.424C467.012 179.424 467.012 179.317 467.119 179.317C467.119 179.317 467.226 179.317 467.226 179.21C467.76 178.89 468.294 178.676 468.721 178.355C468.721 178.355 468.828 178.355 468.828 178.248C469.041 178.141 469.362 177.927 469.575 177.713L478.759 171.405C478.439 171.619 478.225 171.726 477.905 171.94C477.371 172.261 476.944 172.581 476.41 172.795C476.303 172.902 476.196 172.902 476.089 173.009C475.555 173.223 475.021 173.544 474.487 173.757C473.954 173.971 473.313 174.185 472.672 174.399C472.565 174.399 472.458 174.506 472.352 174.506C471.711 174.72 471.177 174.827 470.536 175.04C470.43 175.04 470.323 175.04 470.216 175.147C469.575 175.254 468.828 175.361 468.08 175.468C467.867 175.468 467.76 175.468 467.546 175.575C467.333 175.575 467.012 175.575 466.799 175.682C466.585 175.682 466.372 175.682 466.158 175.682C465.944 175.682 465.624 175.682 465.411 175.682C465.197 175.682 465.09 175.682 464.877 175.682C464.449 175.682 464.129 175.682 463.702 175.682C463.488 175.682 463.382 175.682 463.168 175.682C462.741 175.682 462.314 175.575 461.78 175.575C461.673 175.575 461.566 175.575 461.459 175.575C461.139 175.575 460.819 175.468 460.498 175.468C460.285 175.468 460.178 175.468 459.964 175.361C459.43 175.254 459.003 175.147 458.469 175.04C457.829 174.934 457.081 174.72 456.44 174.506C456.227 174.399 456.013 174.399 455.8 174.292C455.266 174.185 454.732 173.971 454.305 173.757C454.091 173.65 453.984 173.65 453.771 173.544C453.023 173.33 452.382 173.009 451.635 172.688C451.421 172.581 451.208 172.474 451.101 172.474C450.674 172.261 450.354 172.154 449.926 171.94C449.713 171.833 449.499 171.726 449.286 171.619C448.965 171.405 448.538 171.298 448.218 171.084C448.004 170.977 447.791 170.871 447.577 170.657C447.257 170.443 446.936 170.229 446.509 170.015C446.296 169.908 446.082 169.801 445.868 169.587C445.548 169.374 445.121 169.16 444.801 168.946C444.587 168.839 444.373 168.732 444.267 168.518C443.839 168.198 443.306 167.877 442.878 167.556C442.772 167.449 442.772 167.449 442.665 167.342C442.131 166.914 441.597 166.487 441.17 166.059C440.849 165.845 440.529 165.525 440.315 165.311C440.209 165.204 439.995 165.097 439.888 164.99C439.461 164.562 439.034 164.241 438.607 163.814C437.966 163.172 437.325 162.531 436.792 161.889C436.685 161.782 436.578 161.568 436.471 161.462C435.937 160.82 435.403 160.178 434.869 159.644C434.763 159.537 434.656 159.43 434.656 159.323C434.229 158.789 433.801 158.254 433.481 157.719C433.374 157.505 433.268 157.399 433.161 157.185C432.734 156.543 432.306 155.902 431.879 155.26C431.452 154.619 431.025 153.977 430.705 153.336C430.598 153.122 430.491 153.015 430.384 152.801C430.064 152.266 429.85 151.732 429.53 151.197C429.423 151.09 429.316 150.876 429.316 150.769C428.996 150.128 428.676 149.379 428.355 148.631C428.249 148.524 428.249 148.31 428.142 148.203C427.821 147.562 427.608 146.92 427.394 146.279C427.287 146.065 427.287 145.958 427.181 145.744C426.86 144.889 426.647 144.14 426.326 143.285C426.22 142.964 426.113 142.643 426.113 142.323C426.006 142.109 426.006 141.895 425.899 141.681C425.792 141.36 425.686 140.933 425.579 140.612C425.579 140.398 425.472 140.184 425.472 140.077C425.472 139.864 425.365 139.65 425.365 139.436C425.258 139.008 425.152 138.581 425.152 138.153C425.152 137.939 425.045 137.618 425.045 137.404C424.938 136.977 424.938 136.656 424.831 136.228C424.831 135.907 424.725 135.48 424.725 135.159C424.725 134.945 424.725 134.838 424.725 134.624C424.725 134.09 424.618 133.448 424.618 132.914C424.297 124.574 426.754 117.41 431.025 112.278C432.413 110.567 434.122 109.07 435.937 107.894L426.754 114.203C419.492 119.121 415.007 128.102 415.434 139.222C415.434 139.757 415.541 140.398 415.541 140.933C415.541 141.147 415.541 141.254 415.541 141.467C415.541 141.788 415.541 142.002 415.648 142.323C415.648 142.43 415.648 142.537 415.648 142.643C415.648 143.071 415.754 143.392 415.861 143.82C415.861 144.033 415.968 144.354 415.968 144.568C416.075 144.996 416.075 145.423 416.182 145.851C416.182 146.065 416.288 146.172 416.288 146.386V146.493C416.288 146.706 416.395 146.92 416.395 147.027C416.502 147.455 416.609 147.776 416.716 148.203C416.822 148.417 416.822 148.631 416.929 148.845C417.036 149.059 417.036 149.379 417.143 149.593C417.143 149.7 417.143 149.7 417.249 149.807C417.463 150.663 417.783 151.411 418.104 152.266C418.104 152.373 418.104 152.373 418.211 152.48C418.211 152.587 418.317 152.694 418.317 152.801C418.531 153.442 418.851 154.084 419.065 154.726C419.065 154.832 419.172 154.939 419.172 155.046C419.172 155.046 419.172 155.153 419.278 155.153C419.599 155.902 419.919 156.543 420.239 157.292C420.239 157.292 420.239 157.399 420.346 157.399C420.453 157.505 420.453 157.612 420.56 157.719C420.88 158.254 421.094 158.789 421.414 159.323C421.521 159.43 421.521 159.537 421.628 159.644C421.628 159.751 421.734 159.751 421.734 159.858C422.162 160.499 422.482 161.141 422.909 161.782C423.336 162.424 423.763 163.065 424.191 163.707C424.191 163.814 424.297 163.814 424.297 163.921C424.404 164.028 424.404 164.135 424.511 164.241C424.938 164.776 425.258 165.311 425.686 165.845C425.792 165.952 425.792 166.059 425.899 166.059C425.899 166.059 425.899 166.059 426.006 166.166C426.54 166.808 427.074 167.449 427.608 167.984C427.715 168.091 427.715 168.091 427.715 168.198C427.821 168.304 427.821 168.304 427.928 168.411C428.569 169.053 429.103 169.694 429.744 170.336C430.171 170.764 430.598 171.191 431.025 171.512C431.132 171.619 431.239 171.726 431.452 171.833C431.773 172.047 431.986 172.367 432.306 172.581C432.306 172.581 432.413 172.581 432.413 172.688C432.947 173.116 433.374 173.544 433.908 173.971C434.015 174.078 434.015 174.078 434.122 174.185C434.549 174.506 434.976 174.827 435.51 175.147L435.617 175.254C435.724 175.361 435.937 175.468 436.044 175.575C436.364 175.789 436.685 176.003 437.112 176.217C437.325 176.323 437.539 176.43 437.753 176.644C438.073 176.858 438.393 177.072 438.82 177.286C439.034 177.393 439.248 177.5 439.461 177.713C439.782 177.927 440.102 178.034 440.529 178.248C440.743 178.355 440.956 178.462 441.17 178.569C441.49 178.783 441.917 178.89 442.344 179.103C442.451 179.21 442.665 179.21 442.772 179.317H442.878C443.626 179.638 444.267 179.852 445.014 180.173C444.694 179.852 444.694 179.852 444.801 179.852Z" fill="#CDD8F7"/>
<path d="M489.972 146.279C489.224 126.712 473.954 107.894 455.8 104.152C437.646 100.41 423.657 113.24 424.297 132.7C425.045 152.266 440.316 171.084 458.469 174.826C476.623 178.675 490.719 165.845 489.972 146.279Z" fill="white"/>
<path d="M482.496 144.782C481.963 129.813 470.216 115.272 456.227 112.385C442.238 109.498 431.452 119.335 431.986 134.41C432.52 149.379 444.267 163.921 458.256 166.807C472.138 169.587 483.03 159.751 482.496 144.782Z" fill="url(#paint7_linear_1248_288)"/>
<defs>
<filter id="filter0_i_1248_288" x="148.145" y="-6" width="235.921" height="486" filterUnits="userSpaceOnUse" color-interpolation-filters="sRGB">
<feFlood flood-opacity="0" result="BackgroundImageFix"/>
<feBlend mode="normal" in="SourceGraphic" in2="BackgroundImageFix" result="shape"/>
<feColorMatrix in="SourceAlpha" type="matrix" values="0 0 0 0 0 0 0 0 0 0 0 0 0 0 0 0 0 0 127 0" result="hardAlpha"/>
<feOffset dx="6" dy="-6"/>
<feGaussianBlur stdDeviation="3.5"/>
<feComposite in2="hardAlpha" operator="arithmetic" k2="-1" k3="1"/>
<feColorMatrix type="matrix" values="0 0 0 0 0.803922 0 0 0 0 0.847059 0 0 0 0 0.968627 0 0 0 1 0"/>
<feBlend mode="normal" in2="shape" result="effect1_innerShadow_1248_288"/>
</filter>
<filter id="filter1_d_1248_288" x="160.736" y="5.07434" width="214.333" height="462.502" filterUnits="userSpaceOnUse" color-interpolation-filters="sRGB">
<feFlood flood-opacity="0" result="BackgroundImageFix"/>
<feColorMatrix in="SourceAlpha" type="matrix" values="0 0 0 0 0 0 0 0 0 0 0 0 0 0 0 0 0 0 127 0" result="hardAlpha"/>
<feOffset dx="4" dy="-4"/>
<feGaussianBlur stdDeviation="3.5"/>
<feComposite in2="hardAlpha" operator="out"/>
<feColorMatrix type="matrix" values="0 0 0 0 0.803922 0 0 0 0 0.847059 0 0 0 0 0.968627 0 0 0 1 0"/>
<feBlend mode="normal" in2="BackgroundImageFix" result="effect1_dropShadow_1248_288"/>
<feBlend mode="normal" in="SourceGraphic" in2="effect1_dropShadow_1248_288" result="shape"/>
</filter>
<filter id="filter2_i_1248_288" x="5.80762" y="52.1685" width="264.142" height="148.866" filterUnits="userSpaceOnUse" color-interpolation-filters="sRGB">
<feFlood flood-opacity="0" result="BackgroundImageFix"/>
<feBlend mode="normal" in="SourceGraphic" in2="BackgroundImageFix" result="shape"/>
<feColorMatrix in="SourceAlpha" type="matrix" values="0 0 0 0 0 0 0 0 0 0 0 0 0 0 0 0 0 0 127 0" result="hardAlpha"/>
<feOffset dx="4" dy="-12"/>
<feGaussianBlur stdDeviation="9"/>
<feComposite in2="hardAlpha" operator="arithmetic" k2="-1" k3="1"/>
<feColorMatrix type="matrix" values="0 0 0 0 0.803922 0 0 0 0 0.847059 0 0 0 0 0.968627 0 0 0 1 0"/>
<feBlend mode="normal" in2="shape" result="effect1_innerShadow_1248_288"/>
</filter>
<linearGradient id="paint0_linear_1248_288" x1="265" y1="234" x2="332" y2="124" gradientUnits="userSpaceOnUse">
<stop stop-color="#7A43EE"/>
<stop offset="1" stop-color="#B565E6"/>
</linearGradient>
<linearGradient id="paint1_linear_1248_288" x1="351.148" y1="313.716" x2="176.337" y2="313.716" gradientUnits="userSpaceOnUse">
<stop offset="0.440625" stop-color="#F8BA55"/>
<stop offset="1" stop-color="#FB7354"/>
</linearGradient>
<linearGradient id="paint2_linear_1248_288" x1="239.351" y1="123.25" x2="36.8826" y2="123.25" gradientUnits="userSpaceOnUse">
<stop stop-color="#F8BA55"/>
<stop offset="1" stop-color="#FB7354"/>
</linearGradient>
<linearGradient id="paint3_linear_1248_288" x1="382" y1="231.5" x2="374.588" y2="431.339" gradientUnits="userSpaceOnUse">
<stop stop-color="#E8F0FF"/>
<stop offset="1" stop-color="#CDD8F7"/>
</linearGradient>
<linearGradient id="paint4_linear_1248_288" x1="422" y1="259.5" x2="328.5" y2="370.5" gradientUnits="userSpaceOnUse">
<stop stop-color="white"/>
<stop offset="1" stop-color="#E8F0FF"/>
</linearGradient>
<linearGradient id="paint5_linear_1248_288" x1="433" y1="265" x2="360" y2="338.5" gradientUnits="userSpaceOnUse">
<stop stop-color="#F8BA55"/>
<stop offset="1" stop-color="#FB7354"/>
</linearGradient>
<linearGradient id="paint6_linear_1248_288" x1="26.9999" y1="286.5" x2="99.4944" y2="333.625" gradientUnits="userSpaceOnUse">
<stop stop-color="#7A43EE"/>
<stop offset="1" stop-color="#B565E6"/>
</linearGradient>
<linearGradient id="paint7_linear_1248_288" x1="467.5" y1="118" x2="440" y2="167" gradientUnits="userSpaceOnUse">
<stop stop-color="#CDD8F7"/>
<stop offset="1" stop-color="#E8F0FF"/>
</linearGradient>
</defs>
</svg>
