<svg width="556" height="461" viewBox="0 0 556 461" fill="none" xmlns="http://www.w3.org/2000/svg">
<path d="M497.704 272.891L489.458 289.197C489.334 289.383 489.272 289.569 489.086 289.817C481.645 301.225 473.957 312.448 466.207 323.608C466.021 323.856 465.835 324.042 465.649 324.29C465.587 324.352 465.525 324.414 465.463 324.476C465.339 324.6 465.215 324.724 465.029 324.91C464.967 324.972 464.905 325.034 464.843 325.096C464.657 325.22 464.533 325.344 464.347 325.468C464.285 325.53 464.223 325.53 464.161 325.592C463.913 325.716 463.665 325.84 463.417 325.964C463.355 325.964 463.355 325.964 463.293 326.026C463.107 326.088 462.859 326.212 462.673 326.274C462.611 326.274 462.487 326.336 462.425 326.336C462.239 326.398 462.053 326.398 461.867 326.46C461.805 326.46 461.681 326.522 461.619 326.522C461.433 326.522 461.185 326.584 460.999 326.584C460.937 326.584 460.875 326.584 460.813 326.584C460.503 326.584 460.255 326.584 459.945 326.584C459.945 326.584 459.945 326.584 459.883 326.584C459.697 326.584 459.449 326.522 459.263 326.522C459.201 326.522 459.139 326.522 459.077 326.522C458.891 326.46 458.705 326.46 458.519 326.398C458.457 326.398 458.395 326.336 458.333 326.336C458.147 326.274 457.961 326.212 457.713 326.15C457.651 326.15 457.651 326.15 457.589 326.088C457.341 326.026 457.093 325.902 456.845 325.84C456.783 325.84 456.721 325.778 456.659 325.778C456.473 325.716 456.287 325.592 456.101 325.53C456.039 325.468 455.977 325.468 455.915 325.406C455.667 325.282 455.419 325.158 455.171 325.034C440.787 316.354 426.526 307.55 412.328 298.621C411.832 298.311 411.336 297.939 410.902 297.567C408.112 295.149 407.368 291.739 408.732 289.011L416.978 272.705C415.614 275.371 416.42 278.781 419.148 281.261C419.582 281.633 420.016 282.005 420.574 282.315C427.332 286.531 434.091 290.747 440.911 294.963C438.059 289.879 435.269 284.795 431.982 279.835C424.666 268.861 415.738 258.755 405.632 249.826C404.764 249.02 403.834 248.276 402.904 247.47C402.594 247.222 402.284 246.974 401.974 246.726C401.354 246.23 400.734 245.672 400.114 245.176C399.742 244.866 399.37 244.618 399.06 244.308C398.502 243.874 397.882 243.378 397.324 242.944C396.952 242.634 396.58 242.324 396.146 242.076C395.588 241.642 394.968 241.208 394.41 240.774C394.038 240.464 393.604 240.216 393.232 239.906C392.612 239.472 392.054 239.038 391.434 238.604C391.062 238.356 390.69 238.046 390.256 237.798C389.636 237.364 388.954 236.93 388.334 236.434C387.962 236.186 387.652 235.938 387.28 235.752C386.412 235.194 385.544 234.636 384.676 234.078C384.552 234.016 384.428 233.892 384.242 233.83C383.25 233.21 382.195 232.528 381.203 231.908C380.893 231.722 380.583 231.536 380.273 231.35C379.529 230.916 378.847 230.482 378.103 230.048C377.731 229.8 377.297 229.614 376.925 229.366C376.243 228.994 375.623 228.622 374.941 228.25C374.507 228.002 374.073 227.754 373.639 227.568C373.019 227.196 372.337 226.886 371.717 226.514C371.283 226.266 370.849 226.08 370.415 225.832C369.733 225.522 369.113 225.15 368.431 224.84C367.997 224.654 367.563 224.406 367.129 224.22C366.447 223.91 365.765 223.538 365.021 223.228C364.649 223.042 364.215 222.856 363.843 222.67C362.975 222.298 362.107 221.864 361.239 221.492C360.991 221.368 360.805 221.306 360.557 221.182C359.441 220.686 358.325 220.252 357.209 219.756C356.899 219.632 356.589 219.508 356.279 219.384C355.473 219.074 354.667 218.702 353.861 218.392C353.427 218.206 352.993 218.082 352.621 217.896C351.939 217.648 351.195 217.338 350.513 217.09C350.079 216.904 349.583 216.78 349.149 216.594C348.467 216.346 347.785 216.098 347.103 215.85C346.607 215.664 346.173 215.54 345.677 215.354C344.995 215.106 344.313 214.92 343.631 214.672C343.197 214.548 342.701 214.362 342.267 214.238C341.523 213.99 340.841 213.804 340.097 213.556C339.663 213.432 339.229 213.308 338.795 213.184C337.927 212.936 337.121 212.688 336.253 212.502C335.943 212.44 335.633 212.316 335.323 212.254C334.145 211.944 333.029 211.634 331.851 211.386C331.603 211.324 331.293 211.262 331.045 211.2C330.176 211.014 329.246 210.766 328.378 210.58C327.944 210.518 327.51 210.394 327.076 210.332C326.332 210.208 325.588 210.022 324.844 209.898C324.348 209.836 323.914 209.712 323.418 209.65C322.736 209.526 321.992 209.402 321.31 209.278C320.814 209.216 320.38 209.092 319.884 209.03C319.202 208.906 318.458 208.844 317.776 208.72C317.28 208.658 316.846 208.596 316.35 208.534C315.606 208.41 314.862 208.348 314.18 208.286C313.746 208.224 313.312 208.162 312.816 208.1C312.01 208.038 311.142 207.914 310.336 207.852C309.964 207.79 309.654 207.79 309.282 207.728C308.6 207.666 307.856 207.604 307.174 207.542C306.616 207.48 306.12 207.48 305.562 207.418C304.818 207.356 304.074 207.356 303.33 207.294C302.834 207.294 302.338 207.232 301.842 207.232C301.036 207.232 300.168 207.17 299.362 207.17C298.928 207.17 298.556 207.17 298.122 207.17C296.882 207.17 295.642 207.17 294.402 207.17C244.863 208.038 211.01 227.134 192.41 263.033C192.472 262.971 192.534 262.909 192.596 262.847C192.658 262.785 192.72 262.785 192.72 262.723C192.906 262.599 193.03 262.413 193.216 262.289C193.34 262.165 193.526 261.979 193.65 261.793C193.712 261.731 193.712 261.669 193.774 261.669C193.898 261.545 193.96 261.421 194.084 261.297C194.146 261.235 194.146 261.173 194.208 261.111C194.332 260.925 194.456 260.739 194.518 260.491L186.272 276.797C186.148 276.983 186.024 277.231 185.962 277.417C185.9 277.479 185.9 277.541 185.838 277.603C185.776 277.727 185.652 277.851 185.528 277.975C185.466 278.037 185.466 278.099 185.404 278.099C185.28 278.285 185.156 278.409 184.97 278.595C184.846 278.719 184.66 278.905 184.474 279.029C184.412 279.091 184.35 279.091 184.35 279.153C184.226 279.277 184.102 279.339 183.978 279.463C183.916 279.525 183.854 279.525 183.854 279.587C183.668 279.711 183.482 279.835 183.296 279.897C183.11 280.021 182.924 280.083 182.738 280.145C182.676 280.145 182.614 280.207 182.552 280.207C182.428 280.269 182.242 280.331 182.118 280.393C182.056 280.393 181.994 280.455 181.932 280.455C181.498 280.579 181.064 280.641 180.63 280.703C180.568 280.703 180.506 280.703 180.444 280.703C180.258 280.703 180.134 280.703 179.948 280.703C179.886 280.703 179.824 280.703 179.762 280.703C179.514 280.703 179.328 280.703 179.08 280.703C178.956 280.703 178.77 280.641 178.646 280.641C178.522 280.641 178.398 280.641 178.274 280.579C178.088 280.579 177.902 280.517 177.778 280.455C177.654 280.455 177.592 280.393 177.468 280.393C177.344 280.331 177.158 280.331 177.033 280.269C176.599 280.145 176.227 280.021 175.793 279.835C174.677 279.339 173.685 278.719 172.817 277.975C170.337 275.805 169.283 272.643 170.275 269.543C171.949 264.459 173.933 259.499 176.351 254.787L184.598 238.48C182.242 243.192 180.196 248.09 178.522 253.236C177.53 256.337 178.584 259.437 181.064 261.669C181.87 262.413 182.862 263.033 184.04 263.529C184.474 263.715 184.846 263.839 185.28 263.963C185.404 264.025 185.59 264.025 185.714 264.087C185.838 264.087 185.962 264.149 186.086 264.149C186.21 264.211 186.396 264.211 186.52 264.273C186.644 264.273 186.768 264.335 186.954 264.335C187.078 264.335 187.202 264.397 187.326 264.397C187.574 264.397 187.822 264.397 188.008 264.397C188.07 264.397 188.132 264.397 188.194 264.397C188.38 264.397 188.504 264.397 188.69 264.397C188.752 264.397 188.814 264.397 188.876 264.397C189.31 264.335 189.744 264.273 190.178 264.149C190.24 264.149 190.302 264.087 190.364 264.087C190.488 264.025 190.674 263.963 190.798 263.901C190.86 263.901 190.922 263.839 190.984 263.839C191.17 263.777 191.356 263.653 191.542 263.591C191.728 263.467 191.914 263.405 192.1 263.281C192.162 263.219 192.224 263.219 192.286 263.157C192.348 263.157 192.348 263.095 192.41 263.033L200.16 247.718C218.636 211.138 252.675 191.669 302.71 190.801C303.95 190.801 305.19 190.801 306.43 190.801C306.864 190.801 307.236 190.801 307.67 190.801C308.476 190.801 309.344 190.801 310.15 190.863C310.646 190.863 311.142 190.925 311.638 190.925C312.382 190.987 313.126 190.987 313.87 191.049C314.428 191.111 314.924 191.111 315.482 191.173C316.102 191.235 316.784 191.235 317.404 191.297C317.466 191.297 317.528 191.297 317.59 191.297C317.962 191.297 318.272 191.359 318.644 191.421C319.45 191.483 320.318 191.607 321.124 191.669C321.558 191.731 321.992 191.793 322.488 191.855C323.232 191.917 323.976 192.041 324.658 192.103C325.154 192.165 325.588 192.227 326.084 192.289C326.766 192.413 327.51 192.475 328.192 192.599C328.688 192.661 329.122 192.723 329.618 192.847C330.363 192.971 331.045 193.095 331.789 193.219C332.285 193.281 332.719 193.405 333.215 193.467C333.959 193.591 334.703 193.777 335.447 193.901C335.881 193.963 336.315 194.087 336.687 194.149C337.617 194.335 338.485 194.521 339.415 194.769C339.663 194.831 339.911 194.893 340.221 194.955C341.399 195.203 342.515 195.513 343.693 195.823C344.003 195.885 344.313 196.009 344.623 196.071C345.491 196.319 346.297 196.505 347.165 196.753C347.599 196.877 348.033 197.001 348.467 197.125C349.211 197.311 349.893 197.559 350.637 197.807C351.071 197.931 351.567 198.117 352.001 198.241C352.683 198.489 353.365 198.675 354.047 198.923C354.543 199.047 354.977 199.233 355.411 199.419C356.093 199.667 356.775 199.915 357.457 200.163C357.891 200.349 358.387 200.473 358.821 200.659C359.565 200.907 360.247 201.217 360.929 201.465C361.363 201.651 361.735 201.775 362.169 201.961C362.975 202.271 363.781 202.582 364.587 202.954C364.897 203.078 365.207 203.202 365.517 203.326C366.633 203.76 367.749 204.256 368.865 204.752C369.113 204.876 369.299 204.938 369.547 205.062C370.415 205.434 371.283 205.868 372.151 206.24C372.523 206.426 372.957 206.612 373.329 206.798C374.011 207.108 374.755 207.48 375.437 207.79C375.871 207.976 376.305 208.224 376.739 208.41C377.421 208.72 378.041 209.092 378.723 209.402C379.157 209.65 379.591 209.836 380.025 210.084C380.645 210.394 381.327 210.766 381.947 211.138C382.382 211.386 382.816 211.572 383.25 211.82C383.932 212.192 384.552 212.564 385.234 212.936C385.606 213.184 386.04 213.37 386.412 213.618C387.156 214.052 387.838 214.486 388.582 214.92C388.892 215.106 389.202 215.292 389.512 215.478C390.566 216.098 391.558 216.718 392.55 217.4C392.674 217.462 392.798 217.586 392.984 217.648C393.852 218.206 394.72 218.764 395.588 219.322C395.96 219.57 396.27 219.756 396.642 220.004C397.324 220.438 397.944 220.872 398.626 221.368C398.998 221.616 399.37 221.926 399.804 222.174C400.424 222.608 400.982 223.042 401.602 223.476C401.974 223.786 402.408 224.034 402.78 224.344C403.338 224.778 403.958 225.212 404.516 225.646C404.888 225.956 405.26 226.266 405.694 226.514C406.252 226.948 406.872 227.444 407.43 227.878C407.802 228.188 408.174 228.436 408.484 228.746C409.104 229.242 409.724 229.8 410.344 230.296C410.654 230.544 410.964 230.792 411.212 231.04C412.142 231.784 413.01 232.59 413.94 233.396C424.046 242.324 432.974 252.43 440.291 263.405C444.693 270.039 448.289 277.045 452.257 283.927L445.375 297.567C451.389 301.287 457.465 304.945 463.479 308.604C463.727 308.728 463.975 308.852 464.223 308.976C464.285 309.038 464.347 309.038 464.409 309.1C464.595 309.162 464.781 309.286 464.967 309.348C465.029 309.348 465.091 309.41 465.153 309.41C465.401 309.534 465.649 309.596 465.897 309.658C465.959 309.658 465.959 309.658 466.021 309.72C466.207 309.782 466.455 309.844 466.641 309.906C466.703 309.906 466.765 309.968 466.827 309.968C467.013 310.03 467.199 310.03 467.385 310.092C467.447 310.092 467.509 310.092 467.571 310.092C467.819 310.154 468.005 310.154 468.253 310.154C468.563 310.154 468.811 310.154 469.121 310.154C469.183 310.154 469.245 310.154 469.307 310.154C469.555 310.154 469.741 310.154 469.927 310.092C470.051 310.092 470.113 310.092 470.175 310.03C470.361 309.968 470.547 309.968 470.733 309.906C470.795 309.906 470.919 309.844 470.981 309.844C471.229 309.782 471.415 309.72 471.601 309.596C471.663 309.596 471.663 309.596 471.725 309.534C471.973 309.41 472.221 309.286 472.469 309.162C472.531 309.1 472.593 309.1 472.655 309.038C472.841 308.914 472.965 308.79 473.151 308.666C473.213 308.604 473.275 308.542 473.337 308.48C473.461 308.356 473.647 308.232 473.771 308.046C473.833 307.984 473.895 307.922 473.957 307.86C474.143 307.674 474.329 307.426 474.515 307.178C482.265 296.017 490.016 284.795 497.394 273.387C497.518 273.263 497.642 273.077 497.704 272.891ZM456.721 363.785C457.093 362.917 457.341 362.049 457.713 361.181C457.775 361.057 457.837 360.933 457.899 360.809L449.653 377.115C449.591 377.239 449.529 377.363 449.467 377.487C449.095 378.355 448.847 379.223 448.475 380.091C447.111 383.377 445.685 386.601 444.135 389.639L452.381 373.333C453.993 370.295 455.419 367.133 456.721 363.785ZM451.699 411.96C454.737 407.867 457.341 403.527 459.635 399.001L467.881 382.695C465.587 387.221 462.983 391.499 459.945 395.653L451.699 411.96Z" fill="#CDD8F7"/>
<path d="M413.94 233.272C383.622 206.487 342.701 190.119 302.834 190.801C248.273 191.731 212.746 214.858 195.634 258.135C195.386 258.693 195.2 259.313 195.014 259.871C193.34 264.025 188.876 265.513 184.226 263.529C183.11 263.033 182.118 262.413 181.25 261.669C178.769 259.499 177.715 256.336 178.707 253.236C182.924 240.154 189.558 228.374 198.61 217.958C219.938 193.591 249.141 179.579 285.97 176.169C335.261 171.581 387.528 190.739 425.162 224.034C440.663 237.736 453.621 253.794 462.921 271.589C464.967 275.495 466.827 279.401 469.121 284.051C473.647 277.355 477.739 271.217 481.831 265.141C483.319 262.909 485.427 261.421 488.776 261.607C491.318 261.731 493.674 262.785 495.348 264.273C498.138 266.753 499.316 270.411 497.332 273.449C489.892 284.857 482.203 296.079 474.453 307.239C472.159 310.526 467.695 311.084 463.417 308.48C449.033 299.799 434.773 290.995 420.574 282.067C420.078 281.757 419.582 281.385 419.148 281.013C416.172 278.409 415.49 274.689 417.288 271.961C419.396 268.675 424.108 267.869 428.51 270.411C435.145 274.255 441.655 278.409 448.227 282.439C449.281 283.059 450.335 283.617 451.389 284.237C451.699 284.113 451.947 283.927 452.257 283.803C448.289 276.983 444.693 269.977 440.291 263.281C432.974 252.306 424.046 242.262 413.94 233.272Z" fill="white"/>
<path d="M194.092 351.43C193.844 351.554 193.534 351.678 193.286 351.864L201.532 335.558C201.78 335.434 202.09 335.248 202.338 335.124C203.392 335.744 204.446 336.364 205.438 336.984C211.886 340.952 218.272 344.982 224.782 348.826C225.03 348.95 225.278 349.074 225.526 349.198C225.588 349.26 225.65 349.26 225.712 349.322C225.898 349.446 226.146 349.508 226.332 349.57C226.394 349.57 226.456 349.632 226.456 349.632C226.704 349.756 226.952 349.818 227.2 349.88C227.262 349.88 227.324 349.942 227.386 349.942C227.572 350.004 227.758 350.066 228.006 350.128C228.068 350.128 228.13 350.128 228.192 350.19C228.44 350.252 228.688 350.314 228.936 350.314C228.998 350.314 228.998 350.314 229.06 350.314C229.246 350.314 229.432 350.376 229.618 350.376C229.866 350.376 230.176 350.376 230.424 350.376C230.486 350.376 230.548 350.376 230.548 350.376C230.858 350.376 231.169 350.314 231.417 350.314C231.479 350.314 231.603 350.314 231.665 350.252C231.851 350.19 232.099 350.19 232.285 350.128C232.347 350.128 232.471 350.066 232.533 350.066C232.719 350.004 232.967 349.942 233.153 349.88C233.215 349.88 233.277 349.818 233.339 349.818C233.587 349.694 233.835 349.57 234.083 349.446C234.145 349.446 234.207 349.384 234.207 349.384C234.393 349.26 234.579 349.136 234.765 349.012C234.827 348.95 234.889 348.888 234.951 348.826C235.075 348.702 235.261 348.578 235.385 348.392C235.447 348.33 235.509 348.268 235.571 348.206C235.757 348.02 235.943 347.772 236.067 347.524C236.191 347.276 236.377 347.09 236.439 346.842L228.316 363.087C228.192 363.335 228.068 363.521 227.944 363.769C227.758 364.017 227.634 364.203 227.448 364.451C227.386 364.513 227.324 364.575 227.262 364.637C227.138 364.761 226.952 364.947 226.828 365.071C226.766 365.133 226.704 365.195 226.642 365.257C226.456 365.381 226.27 365.505 226.084 365.629C226.022 365.629 226.022 365.691 225.96 365.691C225.712 365.815 225.464 365.939 225.216 366.063C225.154 366.063 225.092 366.125 225.03 366.125C224.844 366.187 224.658 366.249 224.41 366.311C224.348 366.311 224.224 366.373 224.162 366.373C223.976 366.435 223.728 366.497 223.542 366.497C223.48 366.497 223.356 366.559 223.294 366.559C222.984 366.621 222.674 366.621 222.426 366.621C222.364 366.621 222.302 366.621 222.302 366.621C222.054 366.621 221.806 366.621 221.496 366.621C221.434 366.621 221.434 366.621 221.372 366.621C221.248 366.621 221.062 366.621 220.938 366.559C220.876 366.559 220.876 366.559 220.814 366.559C220.566 366.497 220.318 366.497 220.07 366.435C220.008 366.435 219.946 366.435 219.884 366.373C219.698 366.311 219.512 366.249 219.326 366.187C219.264 366.187 219.202 366.125 219.14 366.125C218.892 366.063 218.644 365.939 218.396 365.877C218.334 365.877 218.272 365.815 218.272 365.815C218.086 365.753 217.838 365.629 217.652 365.567C217.59 365.505 217.528 365.505 217.466 365.443C217.218 365.319 216.97 365.195 216.722 365.071C210.212 361.227 203.826 357.196 197.378 353.228C196.2 352.67 195.146 352.05 194.092 351.43ZM354.675 443.688C353.249 443.688 351.885 443.688 350.459 443.688C349.963 443.688 349.529 443.688 349.033 443.626C348.103 443.626 347.173 443.564 346.243 443.564C345.685 443.564 345.127 443.502 344.569 443.502C343.701 443.44 342.895 443.44 342.027 443.378C341.407 443.316 340.849 443.316 340.229 443.254C339.423 443.192 338.617 443.13 337.811 443.068C337.377 443.006 336.943 443.006 336.509 442.944C335.579 442.882 334.649 442.758 333.781 442.696C333.285 442.634 332.727 442.572 332.231 442.51C331.424 442.386 330.556 442.324 329.75 442.2C329.192 442.138 328.696 442.076 328.138 441.952C327.332 441.828 326.526 441.704 325.72 441.58C325.162 441.518 324.604 441.394 324.108 441.332C323.302 441.208 322.496 441.084 321.69 440.898C321.194 440.774 320.636 440.712 320.14 440.588C319.272 440.402 318.404 440.278 317.536 440.092C317.04 439.968 316.606 439.906 316.11 439.782C315.056 439.534 313.94 439.286 312.886 439.038C312.638 438.976 312.39 438.914 312.142 438.852C310.84 438.542 309.538 438.232 308.174 437.86C307.802 437.736 307.43 437.674 307.058 437.55C306.128 437.302 305.198 437.054 304.268 436.806C303.772 436.682 303.276 436.496 302.78 436.372C301.974 436.124 301.168 435.876 300.362 435.628C299.866 435.442 299.308 435.318 298.812 435.132C298.006 434.884 297.262 434.636 296.456 434.388C295.96 434.202 295.402 434.016 294.906 433.83C294.1 433.582 293.356 433.272 292.55 433.024C292.054 432.838 291.558 432.652 291 432.466C290.194 432.156 289.388 431.846 288.582 431.536C288.086 431.35 287.652 431.164 287.156 430.978C286.226 430.606 285.296 430.234 284.304 429.862C283.994 429.738 283.684 429.614 283.312 429.49C282.072 428.994 280.831 428.436 279.529 427.878C279.219 427.754 278.909 427.63 278.661 427.506C277.731 427.072 276.739 426.638 275.809 426.204C275.375 426.018 274.941 425.77 274.445 425.584C273.639 425.212 272.895 424.84 272.089 424.468C271.593 424.22 271.097 423.972 270.601 423.724C269.857 423.352 269.113 422.98 268.369 422.608C267.873 422.36 267.377 422.112 266.881 421.864C266.137 421.492 265.455 421.12 264.711 420.686C264.215 420.438 263.719 420.19 263.285 419.88C262.541 419.446 261.797 419.074 261.053 418.64C260.619 418.392 260.185 418.144 259.689 417.896C258.883 417.4 258.015 416.904 257.209 416.408C256.837 416.222 256.527 415.974 256.155 415.788C254.977 415.106 253.861 414.362 252.683 413.618C252.497 413.494 252.311 413.37 252.125 413.246C251.133 412.626 250.203 412.006 249.273 411.386C248.901 411.138 248.467 410.827 248.095 410.579C247.351 410.083 246.607 409.587 245.925 409.091C245.491 408.781 245.057 408.471 244.623 408.161C243.941 407.665 243.259 407.169 242.577 406.735C242.143 406.425 241.709 406.053 241.213 405.743C240.531 405.247 239.911 404.751 239.229 404.255C238.795 403.945 238.361 403.573 237.927 403.263C237.245 402.767 236.625 402.209 235.943 401.713C235.509 401.403 235.137 401.093 234.703 400.721C234.021 400.163 233.277 399.543 232.595 398.985C232.285 398.675 231.913 398.427 231.603 398.117C230.548 397.249 229.556 396.381 228.564 395.451C213.064 381.749 200.044 365.691 190.558 347.834C188.45 343.866 186.528 339.774 184.172 335.124C179.708 341.758 175.553 347.834 171.461 353.972C171.337 354.096 171.275 354.282 171.151 354.406C171.089 354.468 171.089 354.53 171.027 354.53C170.965 354.592 170.903 354.716 170.841 354.778C170.779 354.84 170.717 354.902 170.717 354.964C170.655 355.026 170.593 355.15 170.531 355.212C170.469 355.274 170.407 355.336 170.345 355.398C170.283 355.46 170.221 355.522 170.159 355.584C170.097 355.646 170.035 355.708 169.973 355.708C169.911 355.77 169.849 355.832 169.787 355.894C169.725 355.956 169.663 355.956 169.601 356.018C169.539 356.08 169.477 356.142 169.353 356.204C169.291 356.266 169.229 356.266 169.167 356.328C169.105 356.39 168.981 356.452 168.919 356.452C168.857 356.514 168.795 356.514 168.733 356.576C168.671 356.638 168.547 356.638 168.485 356.7C168.423 356.762 168.361 356.762 168.299 356.824C168.237 356.886 168.113 356.886 168.051 356.948C167.989 356.948 167.927 357.01 167.803 357.01C167.741 357.072 167.617 357.072 167.555 357.072C167.493 357.072 167.369 357.134 167.307 357.134C167.245 357.134 167.121 357.196 166.997 357.196C166.935 357.196 166.811 357.258 166.749 357.258C166.625 357.258 166.563 357.32 166.439 357.32C166.377 357.32 166.253 357.32 166.191 357.382C166.067 357.382 166.005 357.382 165.881 357.382C165.819 357.382 165.695 357.382 165.633 357.382C165.509 357.382 165.447 357.382 165.323 357.382C165.261 357.382 165.137 357.382 165.013 357.382C164.889 357.382 164.765 357.382 164.641 357.382C164.517 357.382 164.455 357.382 164.331 357.382C164.145 357.382 163.959 357.32 163.711 357.32C161.479 357.01 159.433 356.08 157.945 354.716C155.341 352.422 154.512 349.434 156 346.52L147.653 362.653C146.165 365.567 147.343 368.977 149.947 371.271C151.435 372.635 153.481 373.565 155.713 373.875C155.899 373.875 156.085 373.937 156.209 373.937H156.271C156.395 373.937 156.457 373.937 156.581 373.937C156.705 373.937 156.829 373.937 156.953 373.937C157.077 373.937 157.139 373.937 157.263 373.937C157.387 373.937 157.511 373.937 157.573 373.937C157.635 373.937 157.759 373.937 157.821 373.937C157.945 373.937 158.007 373.937 158.131 373.937C158.193 373.937 158.317 373.937 158.379 373.875C158.503 373.875 158.565 373.813 158.689 373.813C158.751 373.813 158.875 373.751 158.937 373.751C159.061 373.751 159.123 373.689 159.247 373.689C159.309 373.689 159.433 373.627 159.495 373.627C159.557 373.627 159.681 373.565 159.743 373.565C159.805 373.565 159.867 373.503 159.991 373.503C160.053 373.441 160.177 373.441 160.239 373.379C160.301 373.317 160.363 373.317 160.425 373.255C160.487 373.193 160.611 373.193 160.673 373.131C160.735 373.069 160.797 373.069 160.859 373.007C160.921 372.945 161.045 372.883 161.107 372.883C161.169 372.821 161.231 372.821 161.293 372.759C161.355 372.697 161.417 372.635 161.541 372.573C161.603 372.511 161.665 372.511 161.727 372.449C161.789 372.387 161.851 372.325 161.975 372.263C162.037 372.201 162.099 372.139 162.161 372.139C162.223 372.077 162.285 372.015 162.347 371.953C162.409 371.891 162.471 371.829 162.533 371.767C162.595 371.705 162.657 371.643 162.719 371.519C162.781 371.457 162.843 371.395 162.843 371.333C162.905 371.271 162.967 371.147 163.091 371.085C163.153 371.023 163.153 371.023 163.215 370.961C163.339 370.837 163.401 370.651 163.525 370.527C167.617 364.451 171.771 358.312 176.235 351.678C178.591 356.328 180.452 360.358 182.622 364.389C192.108 382.183 205.19 398.303 220.628 412.006C221.62 412.874 222.674 413.804 223.666 414.672C223.976 414.982 224.348 415.23 224.658 415.54C225.34 416.098 226.084 416.718 226.766 417.276C227.2 417.586 227.572 417.958 228.006 418.268C228.688 418.764 229.308 419.322 229.99 419.818C230.424 420.128 230.858 420.5 231.293 420.81C231.913 421.306 232.595 421.802 233.277 422.298C233.711 422.608 234.145 422.98 234.641 423.29C235.323 423.786 236.005 424.282 236.687 424.716C237.121 425.026 237.555 425.336 237.989 425.646C238.733 426.142 239.477 426.638 240.159 427.134C240.531 427.382 240.965 427.692 241.337 427.94C242.267 428.56 243.259 429.18 244.189 429.8C244.375 429.924 244.561 430.048 244.747 430.172C245.863 430.916 247.041 431.598 248.219 432.342C248.591 432.528 248.901 432.776 249.273 432.962C250.079 433.458 250.885 433.954 251.753 434.45C252.187 434.698 252.621 434.946 253.117 435.194C253.861 435.628 254.605 436.062 255.349 436.434C255.845 436.682 256.341 436.93 256.775 437.24C257.519 437.612 258.201 438.046 258.945 438.418C259.441 438.666 259.937 438.914 260.433 439.162C261.177 439.534 261.921 439.906 262.665 440.278C263.161 440.526 263.657 440.774 264.091 441.022C264.897 441.394 265.641 441.766 266.447 442.138C266.881 442.324 267.315 442.572 267.811 442.758C268.741 443.192 269.671 443.626 270.663 444.06C270.973 444.184 271.283 444.308 271.531 444.432C272.771 444.99 274.011 445.486 275.313 446.044C275.623 446.168 275.933 446.292 276.243 446.416C277.173 446.788 278.103 447.16 279.095 447.532C279.529 447.718 280.025 447.904 280.521 448.09C281.327 448.4 282.133 448.71 282.94 449.02C283.436 449.206 283.932 449.392 284.49 449.578C285.296 449.826 286.04 450.136 286.846 450.384C287.342 450.57 287.9 450.756 288.396 450.942C289.202 451.19 289.946 451.438 290.752 451.686C291.248 451.872 291.806 451.996 292.302 452.182C293.108 452.43 293.914 452.678 294.782 452.926C295.278 453.05 295.774 453.236 296.27 453.36C297.2 453.608 298.13 453.856 299.06 454.104C299.432 454.228 299.804 454.29 300.176 454.414C301.478 454.786 302.78 455.096 304.144 455.406C304.392 455.468 304.64 455.53 304.888 455.592C305.942 455.84 307.058 456.088 308.112 456.336C308.608 456.46 309.042 456.522 309.538 456.646C310.406 456.832 311.274 457.018 312.142 457.142C312.638 457.266 313.196 457.328 313.692 457.452C314.498 457.576 315.304 457.762 316.11 457.886C316.668 457.948 317.226 458.072 317.722 458.134C318.528 458.258 319.334 458.382 320.14 458.506C320.698 458.568 321.194 458.63 321.752 458.754C322.558 458.878 323.426 458.94 324.232 459.064C324.728 459.126 325.286 459.188 325.782 459.25C326.712 459.374 327.642 459.436 328.51 459.498C328.944 459.56 329.378 459.56 329.812 459.622C329.874 459.622 329.998 459.622 330.06 459.622C330.804 459.684 331.486 459.746 332.231 459.808C332.851 459.87 333.409 459.932 334.029 459.932C334.897 459.994 335.703 459.994 336.571 460.056C337.129 460.056 337.687 460.118 338.245 460.118C339.175 460.18 340.105 460.18 341.035 460.18C341.531 460.18 341.965 460.18 342.461 460.242C343.887 460.242 345.251 460.242 346.677 460.242C393.612 459.498 429.076 442.634 452.947 410.207L461.193 393.901C437.075 426.018 401.61 442.944 354.675 443.688Z" fill="#7A43EE"/>
<path d="M459.945 395.591C436.075 428.018 400.61 444.882 353.675 445.626C308.166 446.37 262.037 427.832 227.813 397.575C212.312 383.873 199.292 367.815 189.806 349.958C187.698 345.99 185.776 341.898 183.42 337.248C178.956 343.882 174.801 349.958 170.709 356.097C169.035 358.577 166.679 360.003 163.021 359.507C160.789 359.197 158.743 358.267 157.255 356.903C154.465 354.423 153.349 350.702 155.271 347.664C162.649 336.38 170.275 325.22 177.964 314.122C180.32 310.712 184.908 310.216 189.31 312.882C203.57 321.5 217.706 330.242 231.843 339.046C232.401 339.356 232.897 339.728 233.331 340.162C236.369 342.828 237.051 346.672 235.191 349.462C233.021 352.686 228.247 353.369 223.844 350.764C217.334 346.92 210.948 342.89 204.5 338.922C203.446 338.302 202.392 337.682 201.4 337.062C201.152 337.186 200.842 337.31 200.594 337.496C203.57 342.952 206.298 348.47 209.584 353.803C217.396 366.451 227.317 377.983 238.725 388.027C268.547 414.44 308.538 430.684 348.343 430.436C403.338 430.126 439.237 407.124 456.783 363.723C457.155 362.855 457.403 361.987 457.775 361.119C459.449 357.337 463.665 355.911 468.129 357.585C469.369 358.081 470.485 358.763 471.415 359.569C473.833 361.677 474.949 364.777 474.019 367.691C470.795 377.797 466.207 387.159 459.945 395.591Z" fill="url(#paint0_linear_1387_805)"/>
<path d="M220.434 147.338C219.07 145.416 214.978 145.354 211.382 146.904C207.724 148.454 195.696 162.28 191.728 168.729C187.822 175.177 184.598 187.329 194.952 204.813C205.306 222.36 226.014 238.852 235.315 246.664C244.615 254.476 255.155 268.737 255.155 268.737C255.155 268.737 258.193 283.431 259.619 288.949C261.045 294.467 268.547 316.105 280.823 336.318C293.038 356.53 302.276 363.226 318.644 373.891C335.013 384.555 354.357 386.477 362.355 385.485C370.353 384.493 380.521 382.819 387.838 373.395C392.24 367.814 397.262 354.36 397.386 352.996C397.82 349.276 394.844 340.162 394.844 340.162L261.231 195.451L220.434 147.338Z" fill="url(#paint1_linear_1387_805)"/>
<g filter="url(#filter0_i_1387_805)">
<path d="M233.083 118.693C227.44 126.134 210.452 153.6 207.972 159.986C205.492 166.372 206.856 187.515 221.736 202.581C236.617 217.647 254.659 237.984 260.487 246.416C266.315 254.786 273.321 288.825 282.436 306.247C291.612 323.669 302.958 341.588 323.914 355.166C342.763 367.38 352.063 370.666 365.145 369.86C378.227 369.054 390.07 363.35 392.488 358.576C394.844 353.802 396.084 348.594 396.828 342.332C397.572 336.07 385.172 299.241 374.569 282.749C363.967 266.256 344.809 220.127 341.647 214.981C338.485 209.835 331.168 172.945 330.114 168.356C329.06 163.768 308.104 152.732 308.104 152.732C308.104 152.732 282.87 119.685 276.297 115.221C269.663 110.695 242.817 107.843 233.083 118.693Z" fill="white"/>
</g>
<path d="M314.118 162.157C311.328 155.274 308.972 160.917 300.478 151.678C291.984 142.44 279.955 123.096 271.895 118.632C263.897 114.168 240.213 118.198 236.244 126.63C232.276 135.124 231.222 143.246 232.834 152.856C234.446 162.467 238.725 167.737 244.057 172.263C249.389 176.851 254.721 181.997 254.721 181.997L297.564 175.735L314.118 162.157Z" fill="#CDD8F7"/>
<g filter="url(#filter1_i_1387_805)">
<path d="M254.845 182.059C255.775 177.781 258.503 166.558 262.967 163.83C267.431 161.04 295.704 159.8 310.212 158.25C317.094 157.506 326.27 160.854 329.618 168.418C332.904 175.797 323.914 175.425 322.674 191.359C321.868 201.651 350.823 263.652 352.435 269.914C354.047 276.177 352.063 280.455 347.041 283.431C342.019 286.407 319.698 294.963 317.032 283.617C314.366 272.271 309.096 250.446 302.71 235.876C300.478 230.854 287.52 194.211 279.955 192.351C275.553 191.235 254.845 182.059 254.845 182.059Z" fill="#E8F0FF"/>
</g>
<g filter="url(#filter2_i_1387_805)">
<path d="M273.941 220.5C276.049 221.368 278.467 222.422 284.295 224.282C285.597 224.716 300.168 231.97 318.458 227.878C327.696 225.832 332.532 223.6 337.306 221.182C339.166 220.252 342.081 218.206 343.135 216.718C344.065 217.4 352.559 232.878 346.297 236.66C324.72 253.772 294.216 246.27 291.984 245.34C280.575 242.302 275.677 240.504 273.941 238.52C272.267 236.598 270.841 219.198 273.941 220.5ZM290.062 274.02C293.472 275.632 302.276 278.298 314.986 278.98C314.986 278.98 314.986 278.98 315.048 278.98C315.11 278.98 315.11 278.98 315.172 278.98C325.464 279.6 341.275 276.004 353.799 270.796C357.333 269.246 362.293 263.418 362.107 258.581C361.921 253.373 357.333 244.68 354.915 247.346C352.063 250.136 343.817 256.646 326.27 260.615C311.638 261.855 297.192 259.685 290.062 256.894C285.411 255.344 286.589 272.408 290.062 274.02ZM339.91 192.785C339.848 192.785 339.848 192.723 339.786 192.723C339.476 191.607 340.22 187.763 340.779 184.663C342.577 175.115 345.553 159.181 341.151 133.946C338.05 116.214 342.701 103.999 348.033 89.9252C354.915 71.8209 362.727 51.2985 354.977 16.0198L343.011 18.6238C349.955 50.3684 343.197 68.2868 336.624 85.5851C331.106 100.031 325.464 115.036 329.122 136.054C333.152 159.119 330.486 173.131 328.812 182.431C327.324 190.429 325.898 197.993 333.09 202.891L339.91 192.785ZM287.705 181.377C287.519 180.757 287.271 180.137 287.085 179.455C284.915 173.069 282.869 166.993 284.109 161.661C284.481 159.987 285.287 158.127 286.155 156.267C286.775 154.84 287.457 153.414 288.077 152.05C292.356 142.688 296.82 133.016 293.286 120.43C291.674 114.602 288.449 110.386 285.659 106.728C284.233 104.868 282.931 103.131 281.877 101.333C278.901 96.2493 278.715 86.8252 280.079 80.501C282.807 67.8528 281.009 57.4986 277.227 44.9123L265.509 48.4464C268.857 59.4206 270.345 67.7908 268.113 77.897C266.191 86.7012 266.439 99.2874 271.337 107.534C272.825 110.014 274.375 112.122 275.925 114.168C278.405 117.392 280.513 120.182 281.505 123.716C283.799 132.024 280.761 138.596 276.917 147.028C276.235 148.454 275.553 149.942 274.933 151.43C273.941 153.662 272.887 156.143 272.205 158.933C270.159 167.675 273.011 176.107 275.553 183.485C275.739 184.105 275.987 184.725 276.173 185.345C278.095 191.111 279.955 198.365 277.165 203.387L287.829 209.34C292.976 200.101 290.434 189.561 287.705 181.377Z" fill="#F8BA55"/>
</g>
<path d="M439.919 50.3451L436.818 50.0351C431.982 49.5391 428.51 45.261 428.944 40.4869L430.928 20.0265C431.424 15.1904 435.702 11.7183 440.477 12.1523L443.577 12.4623C448.413 12.9584 451.885 17.2364 451.451 22.0105L449.467 42.4709C449.033 47.307 444.693 50.8411 439.919 50.3451Z" fill="#7A43EE"/>
<g filter="url(#filter3_i_1387_805)">
<path d="M409.786 32.7986C407.678 43.4009 398.13 99.5119 398.13 104.286C398.13 109.06 396.022 118.546 411.894 122.266C427.766 125.986 508.74 139.751 521.45 140.805C534.16 141.859 541.538 139.751 544.763 121.212C547.925 102.674 554.311 67.2093 555.365 59.8312C556.419 52.453 552.699 46.0669 539.988 38.1307C527.278 30.1946 523.558 30.6906 521.45 29.6366C519.342 28.5826 516.18 23.3125 515.126 20.0884C514.072 16.9263 511.964 6.32412 505.082 4.21608C498.2 2.10804 482.451 0 477.057 0C472.841 0 466.455 4.21608 463.851 7.44015C461.681 9.9822 456.969 18.5384 446.925 18.0424C436.88 17.4843 428.944 19.0964 422.062 20.1504C415.18 21.2044 411.336 24.8625 409.786 32.7986Z" fill="white"/>
</g>
<path d="M539.989 38.1307C527.278 30.1946 523.558 30.6906 521.45 29.6366C519.342 28.5826 516.18 23.3125 515.126 20.0884C514.072 16.9263 511.964 6.32412 505.082 4.21608C498.2 2.10804 482.451 0 477.057 0C472.841 0 466.455 4.21608 463.851 7.44015C461.681 9.9822 456.969 18.5384 446.925 18.0424C436.88 17.4843 428.944 19.0964 422.062 20.1504C415.18 21.2044 411.46 24.9245 409.91 32.8606C409.414 35.3407 408.484 40.4248 407.368 46.7489C415.304 48.795 419.396 49.849 427.332 49.291C434.276 48.857 453.807 42.4088 470.733 45.5709C487.163 48.671 496.154 59.8312 508.306 62.0012C518.536 63.7993 541.601 69.1314 553.567 70.9914C554.435 65.8453 555.117 61.8772 555.365 59.8932C556.357 52.391 552.699 46.0669 539.989 38.1307Z" fill="url(#paint2_linear_1387_805)"/>
<path d="M463.417 46.0671C462.735 45.9431 462.053 45.8811 461.371 45.8191L447.173 44.5171L446.987 47.4931C434.525 51.7092 424.605 62.9314 422.249 77.3157C419.458 94.3661 428.139 110.486 442.337 117.183L442.213 119.105L450.521 119.849C450.831 119.911 451.079 119.973 451.389 120.035C453.373 120.345 455.357 120.469 457.341 120.469H457.403C474.454 120.221 489.582 107.076 492.558 88.848C495.844 68.3256 482.824 49.2292 463.417 46.0671Z" fill="url(#paint3_linear_1387_805)"/>
<path d="M482.093 87.623C485.421 67.2095 472.364 48.093 452.931 44.925C433.498 41.7569 415.046 55.7371 411.718 76.1506C408.391 96.5641 421.447 115.681 440.88 118.849C460.313 122.017 478.765 108.037 482.093 87.623Z" fill="url(#paint4_linear_1387_805)"/>
<path d="M470.439 85.3193C472.747 71.1583 463.687 57.8964 450.202 55.6981C436.716 53.4998 423.913 63.1975 421.605 77.3585C419.296 91.5195 428.357 104.781 441.842 106.98C455.327 109.178 468.13 99.4803 470.439 85.3193Z" fill="url(#paint5_radial_1387_805)"/>
<path d="M503.842 54.3132C503.718 54.3132 503.594 54.2512 503.408 54.2512L501.796 54.1272H501.734C501.424 54.0652 501.114 54.0652 500.742 54.0652H500.556C497.084 54.0652 493.984 56.7312 493.364 60.4513C492.682 64.6054 495.348 68.4495 499.254 69.0695C499.316 69.0695 499.44 69.0695 499.502 69.0695L501.176 69.1935C501.238 69.1935 501.3 69.1935 501.362 69.2555C501.796 69.3175 502.168 69.3795 502.54 69.3175C506.012 69.2555 509.05 66.5894 509.67 62.9314C510.414 58.8393 507.81 54.9332 503.842 54.3132Z" fill="url(#paint6_radial_1387_805)"/>
<path fill-rule="evenodd" clip-rule="evenodd" d="M74.9128 187.184L72.9555 195.485C72.9531 195.684 72.9507 195.882 72.8614 196.13C72.7744 196.179 72.8167 196.253 72.8167 196.253C72.8155 196.353 72.8466 196.458 72.8777 196.563C72.9088 196.669 72.9399 196.774 72.9387 196.874C72.981 196.948 73.0121 197.054 73.0433 197.159C73.0744 197.264 73.1055 197.37 73.1478 197.444L73.9511 198.86C73.9934 198.934 74.0575 198.996 74.1215 199.058C74.1855 199.121 74.2495 199.183 74.2918 199.257L74.3341 199.332C74.4187 199.481 74.5032 199.63 74.6748 199.729L74.717 199.804C74.8028 199.853 74.8668 199.916 74.9309 199.978C74.9949 200.04 75.0589 200.102 75.1447 200.152L75.187 200.226L75.7016 200.525L92.2835 211.303C92.4325 211.424 92.6239 211.521 92.7842 211.603C92.8538 211.638 92.9176 211.671 92.9696 211.701C93.0553 211.751 93.1628 211.788 93.2703 211.826C93.3779 211.863 93.4854 211.901 93.5711 211.951L93.7004 211.976C93.8511 211.959 93.9802 212.002 94.0883 212.038C94.1352 212.054 94.1782 212.069 94.2174 212.076L102.165 204.807C104.402 205.507 106.686 205.885 108.886 206.113L117.027 214.985C117.153 215.209 117.367 215.383 117.581 215.557C117.688 215.644 117.784 215.712 117.881 215.781C117.977 215.849 118.073 215.917 118.18 216.004L118.222 216.079C118.372 216.2 118.563 216.298 118.723 216.379C118.793 216.415 118.857 216.447 118.909 216.477C118.994 216.527 119.102 216.565 119.209 216.602C119.317 216.64 119.424 216.677 119.51 216.727L119.639 216.752C119.811 216.852 119.94 216.877 120.069 216.902C120.134 216.914 120.177 216.939 120.22 216.964C120.263 216.989 120.306 217.014 120.37 217.027L121.016 217.152C121.081 217.165 121.157 217.146 121.233 217.128C121.308 217.11 121.384 217.091 121.449 217.104C121.492 217.079 121.525 217.085 121.557 217.092C121.589 217.098 121.622 217.104 121.665 217.079C121.881 217.055 122.098 217.031 122.271 216.932L135.635 211.71C135.859 211.655 136.013 211.587 136.166 211.466L124.061 222.515C124.008 222.545 123.951 222.586 123.889 222.631C123.747 222.735 123.577 222.859 123.365 222.91L110.304 228.059C110.131 228.158 109.914 228.182 109.698 228.206C109.655 228.231 109.622 228.225 109.59 228.218C109.558 228.212 109.525 228.206 109.482 228.23C109.395 228.28 109.179 228.304 109.049 228.279L108.403 228.153C108.349 228.184 108.313 228.167 108.262 228.144C108.231 228.129 108.194 228.113 108.145 228.103L107.757 228.028L107.715 227.953L107.585 227.928C107.521 227.916 107.478 227.891 107.435 227.866C107.392 227.841 107.349 227.816 107.285 227.803C107.22 227.791 107.177 227.766 107.134 227.741C107.091 227.716 107.049 227.691 106.984 227.679C106.918 227.641 106.872 227.606 106.832 227.577C106.767 227.529 106.721 227.495 106.641 227.479C106.576 227.467 106.533 227.442 106.49 227.417C106.448 227.392 106.405 227.367 106.34 227.355L106.256 227.206C106.256 227.206 106.126 227.181 106.084 227.106C106.063 227.069 106.02 227.044 105.977 227.019C105.934 226.994 105.891 226.969 105.87 226.932C105.849 226.895 105.806 226.87 105.763 226.845C105.72 226.82 105.677 226.795 105.656 226.758C105.607 226.671 105.542 226.626 105.488 226.589C105.45 226.563 105.418 226.54 105.4 226.509C105.351 226.422 105.286 226.377 105.232 226.34C105.194 226.314 105.162 226.292 105.144 226.261L105.06 226.112L96.9187 217.24C95.323 217.062 93.6851 216.81 91.9626 216.409L85.1505 222.64C85.0189 222.813 84.9319 222.863 84.758 222.961L84.671 223.011C84.4548 223.035 84.3678 223.084 84.2809 223.134L84.1939 223.183C84.0858 223.195 84.01 223.213 83.9342 223.232C83.8584 223.25 83.7826 223.269 83.6745 223.281C83.6322 223.206 83.5453 223.256 83.5453 223.256C83.4806 223.243 83.3943 223.243 83.3079 223.243C83.2215 223.242 83.1352 223.242 83.0705 223.23L82.9413 223.205C82.8217 223.135 82.6804 223.126 82.562 223.118C82.5105 223.115 82.4634 223.112 82.4243 223.104C82.2951 223.079 82.2951 223.079 82.2951 223.079C82.0789 223.103 81.9496 223.078 81.7781 222.978C81.6911 223.028 81.6488 222.953 81.6488 222.953L81.2611 222.878C81.1956 222.84 81.1489 222.806 81.109 222.776C81.0446 222.729 80.9979 222.694 80.918 222.679C80.8525 222.641 80.8058 222.606 80.766 222.577C80.7015 222.53 80.6548 222.495 80.575 222.48C80.5103 222.467 80.4674 222.442 80.4246 222.417C80.3817 222.392 80.3388 222.367 80.2742 222.355L80.2319 222.28L63.65 211.503C63.6289 211.466 63.586 211.441 63.5431 211.416C63.5002 211.391 63.4573 211.366 63.4362 211.329C63.4362 211.329 63.3069 211.304 63.2647 211.229L63.2224 211.155C63.2012 211.118 63.1583 211.093 63.1155 211.068C63.0726 211.043 63.0297 211.018 63.0085 210.981C62.8793 210.956 62.837 210.881 62.7947 210.807L62.7524 210.732C62.7029 210.645 62.638 210.6 62.5843 210.563C62.5463 210.537 62.5139 210.514 62.4964 210.483L62.3272 210.186C62.198 210.16 62.1134 210.011 62.0711 209.937L61.2677 208.522C61.1832 208.373 61.0563 208.149 61.0587 207.951C61.0599 207.852 61.0394 207.765 61.0188 207.678C60.9983 207.591 60.9778 207.504 60.979 207.405L60.9367 207.331C61.0236 207.281 60.9814 207.207 60.9814 207.207C60.9602 207.17 60.9714 207.139 60.9826 207.108C60.9937 207.077 61.0049 207.046 60.9838 207.009C61.0061 206.947 61.0067 206.897 61.0073 206.847C61.0079 206.798 61.0085 206.748 61.0308 206.686L60.9885 206.612L62.9458 198.311C62.6909 197.963 62.4249 197.647 62.1588 197.33C61.8927 197.013 61.6267 196.696 61.3718 196.348C61.2002 196.249 61.158 196.174 61.1157 196.1C60.9441 196 60.8596 195.851 60.775 195.702C60.6844 195.543 60.5809 195.419 60.4849 195.303C60.4017 195.204 60.3241 195.111 60.2652 195.007C60.1806 194.858 60.0743 194.721 59.968 194.585C59.8617 194.448 59.7554 194.311 59.6708 194.162C59.6074 194.051 59.5223 193.951 59.4371 193.852C59.3519 193.752 59.2668 193.653 59.2033 193.541L59.0342 193.243C58.9543 193.103 58.8457 192.956 58.731 192.802C58.6027 192.629 58.4669 192.447 58.3553 192.25L47.6867 188.851C47.5998 188.9 47.5575 188.826 47.5575 188.826C47.4282 188.801 47.299 188.776 47.1274 188.676C47.1063 188.639 47.074 188.633 47.0417 188.626C47.0094 188.62 46.9771 188.614 46.9559 188.576C46.869 188.626 46.8267 188.551 46.8267 188.551L46.6974 188.526C46.6319 188.488 46.5852 188.454 46.5454 188.424C46.4809 188.377 46.4342 188.343 46.3544 188.327C46.3544 188.327 46.2251 188.302 46.1828 188.227L46.1405 188.153C46.1194 188.116 46.0765 188.091 46.0336 188.066C45.9908 188.041 45.9479 188.016 45.9267 187.979C45.9056 187.942 45.8627 187.917 45.8198 187.892C45.7769 187.867 45.7341 187.842 45.7129 187.805L45.6283 187.656C45.4991 187.631 45.4991 187.631 45.4568 187.556C45.4357 187.519 45.3928 187.494 45.3499 187.469C45.307 187.444 45.2641 187.419 45.243 187.382C45.1138 187.357 45.0715 187.282 45.0292 187.208C44.8999 187.183 44.8154 187.034 44.7731 186.959C44.6438 186.934 44.5593 186.785 44.517 186.711L43.7136 185.296C43.5868 185.072 43.5022 184.923 43.4623 184.65L39.9858 168.6C39.987 168.501 39.977 168.433 39.967 168.365C39.957 168.296 39.9471 168.228 39.9483 168.129L39.8637 167.98C39.8426 167.943 39.8432 167.893 39.8438 167.844C39.8444 167.794 39.845 167.744 39.8238 167.707L39.7393 167.558L39.7839 167.434C39.8709 167.385 39.8286 167.311 39.8286 167.311L39.8733 167.187C39.9603 167.137 39.918 167.063 39.918 167.063L39.8757 166.988L39.9204 166.865C39.9639 166.84 39.975 166.809 39.9862 166.778C39.9974 166.747 40.0085 166.716 40.052 166.691L40.139 166.642C40.0967 166.567 40.1837 166.518 40.1837 166.518L40.3576 166.419C40.4023 166.296 40.4023 166.295 40.4893 166.246L51.5371 156.134L48.8709 151.639L48.4903 150.969C48.472 150.844 48.4354 150.729 48.4014 150.622C48.3613 150.496 48.3247 150.382 48.326 150.274C48.3272 150.175 48.3172 150.107 48.3072 150.039C48.2973 149.97 48.2873 149.902 48.2885 149.803L48.2039 149.654C48.1828 149.617 48.1834 149.567 48.184 149.518C48.1846 149.468 48.1852 149.419 48.164 149.381L48.0795 149.232L48.1242 149.108C48.2111 149.059 48.1688 148.985 48.1688 148.985L48.3476 148.489C48.3923 148.365 48.3923 148.365 48.3923 148.365C48.4357 148.341 48.4469 148.31 48.4581 148.279C48.4693 148.248 48.4804 148.217 48.5239 148.192C48.4816 148.118 48.5686 148.068 48.5686 148.068L48.7425 147.97C48.7872 147.846 48.7872 147.846 48.8742 147.796L61.0537 136.957C61.0432 136.972 61.0373 136.989 61.0314 137.005C61.0203 137.036 61.0091 137.067 60.9656 137.091L60.8762 137.339C60.8316 137.463 60.8316 137.463 60.8316 137.463C60.8145 137.51 60.7913 137.547 60.7714 137.578C60.7393 137.628 60.7161 137.665 60.7422 137.711L60.6975 137.835C60.7187 137.872 60.7075 137.903 60.6963 137.934C60.6851 137.965 60.674 137.996 60.6951 138.033L60.6058 138.281C60.6269 138.318 60.6263 138.367 60.6257 138.417C60.6251 138.467 60.6245 138.516 60.6456 138.553C60.5587 138.603 60.601 138.677 60.601 138.677C60.6003 138.73 60.5966 138.778 60.5932 138.823C60.5839 138.944 60.5765 139.039 60.6384 139.148C60.6468 139.205 60.6532 139.259 60.6595 139.31C60.683 139.505 60.7024 139.666 60.8028 139.843L61.1833 140.513L67.0679 150.272C66.8046 150.619 66.6283 150.916 66.4073 151.337L66.3626 151.46C66.2744 151.609 66.1968 151.776 66.1192 151.943C66.0416 152.11 65.964 152.278 65.8759 152.426C65.8535 152.488 65.8206 152.531 65.7877 152.575C65.7548 152.618 65.7219 152.661 65.6995 152.723C65.5232 153.02 65.4339 153.268 65.2998 153.639C65.2563 153.664 65.2452 153.695 65.234 153.726C65.2228 153.757 65.2116 153.788 65.1682 153.813C64.9472 154.234 64.8131 154.605 64.7213 155.051L53.7182 165.04L55.5163 173.474C55.5797 173.586 55.6108 173.691 55.6419 173.797C55.673 173.902 55.7041 174.008 55.7676 174.119L56.5287 175.46C56.6356 175.547 56.7207 175.647 56.8059 175.746C56.8911 175.845 56.9762 175.945 57.0831 176.032C57.1677 176.181 57.3815 176.355 57.5953 176.529L57.6376 176.604C57.7445 176.691 57.8409 176.759 57.9372 176.827C58.0335 176.896 58.1299 176.964 58.2368 177.051C58.3226 177.101 58.4406 177.157 58.5587 177.213C58.6768 177.269 58.7949 177.325 58.8806 177.375C58.9676 177.326 59.0099 177.4 59.0099 177.4C59.0905 177.434 59.1618 177.465 59.228 177.495C59.4088 177.575 59.5515 177.638 59.7407 177.675L70.4092 181.074C70.5361 181.297 70.6847 181.508 70.8333 181.72C70.9818 181.931 71.1304 182.142 71.2573 182.365C71.3207 182.477 71.4059 182.576 71.491 182.676C71.5762 182.775 71.6614 182.875 71.7248 182.986C71.8094 183.135 71.9157 183.272 72.022 183.408C72.1283 183.545 72.2346 183.682 72.3192 183.831C72.4098 183.99 72.5133 184.114 72.6093 184.23C72.6925 184.329 72.7701 184.423 72.829 184.526C72.8924 184.638 72.9881 184.756 73.0839 184.874C73.1796 184.992 73.2753 185.11 73.3388 185.222C73.8486 185.917 74.3161 186.538 74.9128 187.184ZM54.6262 161.373L52.0445 157.027C52.0249 157.082 52.0302 157.141 52.0349 157.194C52.041 157.263 52.0463 157.322 51.9974 157.35L53.3472 163.576L53.4342 163.527C53.5682 163.155 53.7445 162.858 53.9209 162.561L53.9656 162.437C54.1866 162.016 54.3629 161.719 54.6262 161.373Z" fill="#CDD8F7"/>
<path d="M61.0973 136.918L61.0537 136.957C61.0632 136.943 61.0766 136.93 61.0973 136.918Z" fill="#CDD8F7"/>
<path d="M61.3302 136.711C61.3176 136.726 61.3056 136.742 61.2935 136.758C61.2606 136.801 61.2277 136.844 61.1842 136.869L61.0973 136.918L61.3302 136.711Z" fill="#CDD8F7"/>
<path d="M61.3302 136.711C61.3519 136.685 61.3753 136.662 61.4028 136.646L61.3302 136.711Z" fill="#CDD8F7"/>
<path d="M136.331 211.315C136.274 211.373 136.22 211.423 136.166 211.466L136.331 211.315Z" fill="#CDD8F7"/>
<path d="M87.7396 147.796C87.6973 147.721 87.7843 147.672 87.8712 147.622L99.9826 136.678C99.9762 136.691 99.9703 136.705 99.9651 136.719L95.2234 143.153L82.9532 154.354L87.6949 147.919C87.6526 147.845 87.7396 147.796 87.7396 147.796Z" fill="#CDD8F7"/>
<path d="M100.184 136.497C100.107 136.54 100.03 136.584 99.9826 136.678L100.184 136.497Z" fill="#CDD8F7"/>
<path d="M132.493 193.008L142.504 193.628C143.411 193.606 144.105 193.409 144.584 193.039L132.314 204.239C131.748 204.659 131.096 204.93 130.234 204.829L120.223 204.208L132.493 193.008Z" fill="#CDD8F7"/>
<path d="M96.2658 156.941C95.8358 156.791 95.3188 156.691 94.9311 156.616C89.7611 155.611 85.5589 156.716 82.8957 159.114L70.5385 170.364C73.2887 167.916 77.491 166.811 82.5739 167.865C83.0908 167.966 83.4788 168.041 83.9087 168.191C83.9581 168.201 83.9947 168.217 84.0261 168.232C84.0768 168.255 84.1135 168.272 84.1672 168.241C84.3822 168.316 84.619 168.379 84.8557 168.441C85.0925 168.504 85.3293 168.567 85.5443 168.641L85.932 168.717C86.0178 168.767 86.1253 168.804 86.2328 168.842C86.3403 168.879 86.4478 168.916 86.5336 168.966C86.5982 168.979 86.6734 169.01 86.7486 169.041C86.8238 169.072 86.899 169.104 86.9636 169.116C87.0493 169.166 87.1568 169.203 87.2643 169.241C87.3717 169.278 87.4794 169.316 87.5651 169.366C87.6298 169.378 87.6726 169.403 87.7155 169.428C87.7584 169.453 87.8013 169.478 87.8659 169.49C88.3382 169.715 88.8105 169.939 89.4121 170.188C89.4333 170.226 89.4761 170.251 89.519 170.275C89.5619 170.3 89.6048 170.325 89.6259 170.362C90.0982 170.587 90.4413 170.786 90.8266 171.06C90.8266 171.06 90.8689 171.134 90.9559 171.085C91.1486 171.222 91.3524 171.328 91.5563 171.433C91.7601 171.539 91.9639 171.645 92.1566 171.782C92.2365 171.798 92.2832 171.832 92.3476 171.88C92.3875 171.909 92.4342 171.943 92.4997 171.981C92.8427 172.181 93.1858 172.38 93.4419 172.628C93.463 172.666 93.4953 172.672 93.5277 172.678C93.56 172.684 93.5923 172.691 93.6134 172.728C93.7013 172.79 93.7869 172.849 93.8703 172.906C94.1528 173.099 94.4099 173.275 94.6402 173.524C94.6577 173.555 94.6902 173.577 94.7282 173.603C94.7819 173.64 94.8468 173.685 94.8963 173.772C95.0571 173.929 95.2521 174.065 95.4279 174.188C95.5322 174.261 95.6297 174.33 95.7093 174.394C95.7268 174.425 95.7593 174.448 95.7972 174.474C95.851 174.511 95.9159 174.556 95.9654 174.643C96.1146 174.805 96.2855 174.954 96.4565 175.103C96.6274 175.252 96.7983 175.401 96.9475 175.563C96.9898 175.637 97.0321 175.712 97.1613 175.737C97.2894 175.861 97.428 176.004 97.5666 176.147C97.7052 176.29 97.8438 176.433 97.9719 176.557C97.993 176.594 98.0465 176.638 98.0999 176.681C98.1534 176.725 98.2069 176.768 98.228 176.806C98.3772 176.967 98.5369 177.147 98.6967 177.328C98.8565 177.508 99.0162 177.688 99.1654 177.849L99.25 177.998C99.2931 178.049 99.3355 178.098 99.3772 178.146C99.6652 178.479 99.9213 178.776 100.143 179.166L100.227 179.315C100.61 179.787 100.993 180.259 101.289 180.78L101.416 181.004C101.501 181.153 101.617 181.308 101.734 181.463C101.851 181.618 101.968 181.774 102.053 181.923L102.729 183.115C102.983 183.562 103.194 183.934 103.361 184.43L103.403 184.505C103.625 184.895 103.748 185.266 103.886 185.684C103.907 185.745 103.927 185.807 103.948 185.87L104.075 186.093C104.137 186.304 104.21 186.534 104.283 186.763C104.356 186.993 104.428 187.222 104.491 187.433C104.533 187.508 104.575 187.582 104.531 187.706C104.548 187.765 104.566 187.826 104.585 187.887C104.699 188.266 104.827 188.69 104.859 189.095C104.941 189.442 105.024 189.79 105.019 190.186C105.04 190.224 105.039 190.273 105.039 190.323C105.038 190.372 105.038 190.422 105.059 190.459L105.178 191.278C105.199 191.315 105.199 191.365 105.198 191.414C105.198 191.464 105.197 191.513 105.218 191.551C105.238 191.687 105.248 191.805 105.257 191.923C105.266 192.04 105.276 192.158 105.296 192.295C105.317 192.332 105.306 192.363 105.294 192.394C105.283 192.425 105.272 192.456 105.293 192.493C105.27 192.654 105.268 192.803 105.266 192.951C105.264 193.1 105.262 193.249 105.239 193.41C105.238 193.509 105.226 193.59 105.214 193.67C105.202 193.751 105.191 193.832 105.189 193.931C105.232 194.005 105.187 194.129 105.187 194.129C105.142 194.253 105.13 194.383 105.118 194.513C105.105 194.643 105.093 194.773 105.048 194.897C105.001 195.219 104.867 195.591 104.733 195.962L104.644 196.21C104.611 196.43 104.519 196.639 104.435 196.828C104.396 196.915 104.359 196.999 104.331 197.077L104.286 197.201C104.242 197.325 104.186 197.43 104.131 197.535C104.076 197.641 104.021 197.746 103.976 197.87C103.932 197.894 103.921 197.925 103.91 197.956C103.899 197.987 103.888 198.018 103.844 198.043C103.756 198.192 103.679 198.309 103.602 198.427C103.525 198.544 103.448 198.662 103.36 198.81C103.32 198.863 103.276 198.927 103.228 198.996C103.118 199.157 102.986 199.348 102.833 199.503C102.746 199.553 102.702 199.676 102.702 199.676C102.57 199.85 102.351 200.072 102.177 200.171C102.09 200.22 102.046 200.344 102.046 200.344L114.316 189.144L114.49 189.045C114.556 188.959 114.654 188.878 114.752 188.798C114.85 188.718 114.948 188.637 115.014 188.551L115.188 188.452C115.407 188.229 115.538 188.056 115.715 187.759C115.868 187.603 115.958 187.434 116.059 187.245C116.101 187.165 116.146 187.08 116.199 186.992C116.199 186.992 116.286 186.942 116.244 186.868L116.288 186.744C116.333 186.62 116.388 186.515 116.443 186.41C116.499 186.304 116.554 186.199 116.599 186.075L116.643 185.951C116.764 185.748 116.824 185.534 116.879 185.339C116.904 185.249 116.928 185.163 116.956 185.084L117.045 184.837C117.113 184.651 117.158 184.478 117.203 184.304C117.248 184.131 117.294 183.957 117.361 183.771C117.426 183.59 117.445 183.435 117.469 183.239C117.477 183.167 117.487 183.09 117.499 183.003C117.457 182.929 117.502 182.805 117.502 182.805C117.524 182.743 117.536 182.662 117.548 182.582C117.56 182.501 117.571 182.421 117.594 182.359C117.617 182.198 117.619 182.049 117.621 181.9C117.623 181.751 117.624 181.603 117.648 181.442C117.627 181.404 117.638 181.373 117.649 181.342C117.66 181.311 117.671 181.281 117.65 181.243C117.63 181.107 117.621 180.989 117.612 180.871C117.602 180.753 117.593 180.636 117.573 180.499L117.531 180.425C117.488 180.35 117.488 180.35 117.533 180.226L117.413 179.408C117.392 179.371 117.393 179.321 117.393 179.272C117.394 179.222 117.395 179.172 117.374 179.135C117.332 178.961 117.313 178.775 117.294 178.589C117.274 178.403 117.255 178.217 117.214 178.044C117.152 177.833 117.101 177.591 117.05 177.349C116.999 177.107 116.948 176.865 116.885 176.655C116.843 176.58 116.801 176.506 116.845 176.382C116.783 176.171 116.71 175.941 116.638 175.712C116.565 175.482 116.492 175.253 116.43 175.042L116.303 174.818C116.22 174.57 116.125 174.353 116.031 174.136C115.936 173.919 115.841 173.702 115.758 173.453L115.716 173.379C115.615 173.201 115.524 172.995 115.429 172.78C115.325 172.544 115.217 172.297 115.084 172.063L114.407 170.871C114.238 170.573 114.027 170.201 113.771 169.952L113.686 169.804C113.495 169.567 113.325 169.319 113.155 169.071C112.986 168.822 112.816 168.574 112.624 168.338L112.497 168.115C112.454 168.064 112.412 168.015 112.37 167.967C112.082 167.633 111.826 167.337 111.605 166.947L111.478 166.724C111.329 166.562 111.169 166.382 111.009 166.202C110.849 166.022 110.69 165.841 110.54 165.68L110.456 165.531C110.414 165.456 110.371 165.382 110.284 165.431C110.156 165.307 110.018 165.164 109.879 165.021C109.74 164.878 109.602 164.735 109.474 164.611L109.347 164.388C109.198 164.226 109.027 164.077 108.856 163.928C108.685 163.778 108.514 163.629 108.365 163.468L108.323 163.393C108.28 163.319 108.151 163.294 108.151 163.294C107.895 163.045 107.639 162.796 107.338 162.672C107.296 162.597 107.253 162.523 107.166 162.572C107.166 162.572 107.124 162.498 107.037 162.547C106.845 162.41 106.684 162.28 106.524 162.149C106.363 162.018 106.203 161.888 106.01 161.751C105.968 161.677 105.968 161.677 105.881 161.726C105.71 161.626 105.56 161.514 105.41 161.402C105.26 161.29 105.11 161.179 104.939 161.079C104.918 161.042 104.886 161.035 104.853 161.029C104.821 161.023 104.789 161.017 104.767 160.979C104.746 160.942 104.714 160.936 104.682 160.93C104.649 160.923 104.617 160.917 104.596 160.88C104.211 160.606 103.825 160.332 103.395 160.182L103.353 160.108C103.075 159.911 102.775 159.778 102.452 159.635C102.326 159.58 102.197 159.523 102.065 159.46C102.044 159.423 102.012 159.417 101.979 159.41C101.947 159.404 101.915 159.398 101.894 159.36C101.894 159.36 101.851 159.286 101.764 159.335C101.639 159.276 101.51 159.211 101.378 159.144C101.015 158.961 100.629 158.766 100.218 158.637L100.089 158.612C100.068 158.575 100.036 158.569 100.003 158.562C99.9709 158.556 99.9386 158.55 99.9175 158.513C99.8317 158.463 99.7242 158.425 99.6167 158.388C99.5092 158.35 99.4017 158.313 99.3159 158.263C99.2513 158.25 99.1761 158.219 99.1009 158.188C99.0257 158.157 98.9505 158.126 98.8859 158.113C98.8001 158.063 98.6926 158.026 98.5851 157.988C98.4776 157.951 98.3701 157.914 98.2843 157.864C98.2197 157.851 98.1768 157.826 98.1339 157.801C98.0911 157.776 98.0482 157.752 97.9836 157.739L97.8543 157.714C97.4243 157.564 96.9943 157.414 96.4773 157.314C96.421 157.076 96.4033 157.001 96.3563 156.969C96.3346 156.955 96.3067 156.949 96.2658 156.941Z" fill="#CDD8F7"/>
<path d="M99.9229 136.644C100.844 135.432 102.917 135.437 104.889 136.682L121.513 147.534C122.97 148.48 123.989 149.871 124.233 151.111C124.358 151.533 124.395 152.004 124.261 152.375L122.304 160.676C124.007 162.664 125.494 164.676 126.895 166.737L137.563 170.136C139.542 170.786 141.377 172.6 141.743 174.461L145.219 190.511C145.586 192.371 144.49 193.683 142.549 193.504L132.538 192.884C132.041 194.643 131.331 196.228 130.32 197.688L136.205 207.447C136.459 207.894 136.625 208.39 136.75 208.812C137.036 210.126 136.547 211.291 135.419 211.734L122.271 216.932C120.753 217.498 118.474 216.724 116.94 215.034L108.799 206.162C106.599 205.934 104.315 205.556 102.078 204.856L97.336 211.291C96.4145 212.503 94.3417 212.498 92.328 211.179L75.7461 200.401C74.2893 199.455 73.2697 198.064 73.0256 196.824C72.9012 196.402 72.8637 195.931 72.9977 195.56L74.955 187.259C73.2517 185.271 71.7646 183.259 70.3645 181.198L59.6959 177.799C57.7173 177.149 55.8823 175.335 55.5162 173.474L52.0396 157.424C51.6735 155.564 52.7689 154.252 54.6678 154.356L64.679 154.977C65.1753 153.218 65.8854 151.633 66.8963 150.172L61.0117 140.414C60.758 139.967 60.5913 139.471 60.4668 139.049C60.1804 137.734 60.6695 136.57 61.7977 136.126L74.8584 130.978C76.3766 130.411 78.656 131.186 80.1902 132.875L88.3311 141.747C90.5307 141.976 92.8149 142.354 95.052 143.054L99.9229 136.644ZM117.306 177.597C115.219 168.047 105.184 158.674 94.8442 156.665C84.5044 154.655 77.8215 160.911 79.9084 170.461C81.9953 180.012 92.0725 189.459 102.37 191.394C112.668 193.329 119.393 187.148 117.306 177.597Z" fill="white"/>
<defs>
<filter id="filter0_i_1387_805" x="206.984" y="99.189" width="193.876" height="270.786" filterUnits="userSpaceOnUse" color-interpolation-filters="sRGB">
<feFlood flood-opacity="0" result="BackgroundImageFix"/>
<feBlend mode="normal" in="SourceGraphic" in2="BackgroundImageFix" result="shape"/>
<feColorMatrix in="SourceAlpha" type="matrix" values="0 0 0 0 0 0 0 0 0 0 0 0 0 0 0 0 0 0 127 0" result="hardAlpha"/>
<feOffset dx="4" dy="-12"/>
<feGaussianBlur stdDeviation="9"/>
<feComposite in2="hardAlpha" operator="arithmetic" k2="-1" k3="1"/>
<feColorMatrix type="matrix" values="0 0 0 0 0.803922 0 0 0 0 0.847059 0 0 0 0 0.968627 0 0 0 1 0"/>
<feBlend mode="normal" in2="shape" result="effect1_innerShadow_1387_805"/>
</filter>
<filter id="filter1_i_1387_805" x="248.845" y="152.149" width="104.138" height="137.18" filterUnits="userSpaceOnUse" color-interpolation-filters="sRGB">
<feFlood flood-opacity="0" result="BackgroundImageFix"/>
<feBlend mode="normal" in="SourceGraphic" in2="BackgroundImageFix" result="shape"/>
<feColorMatrix in="SourceAlpha" type="matrix" values="0 0 0 0 0 0 0 0 0 0 0 0 0 0 0 0 0 0 127 0" result="hardAlpha"/>
<feOffset dx="-6" dy="-6"/>
<feGaussianBlur stdDeviation="3.5"/>
<feComposite in2="hardAlpha" operator="arithmetic" k2="-1" k3="1"/>
<feColorMatrix type="matrix" values="0 0 0 0 0.803922 0 0 0 0 0.847059 0 0 0 0 0.968627 0 0 0 1 0"/>
<feBlend mode="normal" in2="shape" result="effect1_innerShadow_1387_805"/>
</filter>
<filter id="filter2_i_1387_805" x="265.509" y="10.0198" width="102.603" height="269.03" filterUnits="userSpaceOnUse" color-interpolation-filters="sRGB">
<feFlood flood-opacity="0" result="BackgroundImageFix"/>
<feBlend mode="normal" in="SourceGraphic" in2="BackgroundImageFix" result="shape"/>
<feColorMatrix in="SourceAlpha" type="matrix" values="0 0 0 0 0 0 0 0 0 0 0 0 0 0 0 0 0 0 127 0" result="hardAlpha"/>
<feOffset dx="6" dy="-6"/>
<feGaussianBlur stdDeviation="3.5"/>
<feComposite in2="hardAlpha" operator="arithmetic" k2="-1" k3="1"/>
<feColorMatrix type="matrix" values="0 0 0 0 0.984314 0 0 0 0 0.45098 0 0 0 0 0.329412 0 0 0 1 0"/>
<feBlend mode="normal" in2="shape" result="effect1_innerShadow_1387_805"/>
</filter>
<filter id="filter3_i_1387_805" x="384.037" y="-14" width="171.497" height="155.026" filterUnits="userSpaceOnUse" color-interpolation-filters="sRGB">
<feFlood flood-opacity="0" result="BackgroundImageFix"/>
<feBlend mode="normal" in="SourceGraphic" in2="BackgroundImageFix" result="shape"/>
<feColorMatrix in="SourceAlpha" type="matrix" values="0 0 0 0 0 0 0 0 0 0 0 0 0 0 0 0 0 0 127 0" result="hardAlpha"/>
<feOffset dx="-14" dy="-14"/>
<feGaussianBlur stdDeviation="16"/>
<feComposite in2="hardAlpha" operator="arithmetic" k2="-1" k3="1"/>
<feColorMatrix type="matrix" values="0 0 0 0 0.803922 0 0 0 0 0.847059 0 0 0 0 0.968627 0 0 0 1 0"/>
<feBlend mode="normal" in2="shape" result="effect1_innerShadow_1387_805"/>
</filter>
<linearGradient id="paint0_linear_1387_805" x1="500" y1="407.52" x2="307.54" y2="232.378" gradientUnits="userSpaceOnUse">
<stop stop-color="#7A43EE"/>
<stop offset="1" stop-color="#B565E6"/>
</linearGradient>
<linearGradient id="paint1_linear_1387_805" x1="355" y1="370.52" x2="150.357" y2="232.337" gradientUnits="userSpaceOnUse">
<stop stop-color="#B565E6"/>
<stop offset="0.418938" stop-color="#7A43EE"/>
<stop offset="0.832698" stop-color="#9251EB"/>
<stop offset="1" stop-color="#7A43EE"/>
</linearGradient>
<linearGradient id="paint2_linear_1387_805" x1="496.5" y1="2.51978" x2="484.5" y2="64.0198" gradientUnits="userSpaceOnUse">
<stop stop-color="#F8BA55"/>
<stop offset="0.354285" stop-color="#FA9055"/>
<stop offset="0.506973" stop-color="#F8BA55"/>
<stop offset="1" stop-color="#FB7354"/>
</linearGradient>
<linearGradient id="paint3_linear_1387_805" x1="458.874" y1="105.786" x2="424.734" y2="59.1943" gradientUnits="userSpaceOnUse">
<stop stop-color="#7A43EE"/>
<stop offset="1" stop-color="#B565E6"/>
</linearGradient>
<linearGradient id="paint4_linear_1387_805" x1="432" y1="137.02" x2="427.207" y2="82.8869" gradientUnits="userSpaceOnUse">
<stop stop-color="#7A43EE"/>
<stop offset="1" stop-color="#B565E6"/>
</linearGradient>
<radialGradient id="paint5_radial_1387_805" cx="0" cy="0" r="1" gradientUnits="userSpaceOnUse" gradientTransform="translate(449.5 78.0198) rotate(140.042) scale(24.135 24.3883)">
<stop stop-color="#B565E6"/>
<stop offset="1" stop-color="#7A43EE"/>
</radialGradient>
<radialGradient id="paint6_radial_1387_805" cx="0" cy="0" r="1" gradientUnits="userSpaceOnUse" gradientTransform="translate(499 60.0197) rotate(54.4623) scale(8.60233 9.08142)">
<stop stop-color="#B565E6"/>
<stop offset="1" stop-color="#7A43EE"/>
</radialGradient>
</defs>
</svg>
