<svg width="490" height="608" viewBox="0 0 490 608" fill="none" xmlns="http://www.w3.org/2000/svg">
<g filter="url(#filter0_i_1248_368)">
<path d="M110.407 401.428C110.407 417.981 96.9875 431.4 80.4342 431.4C79.5882 431.4 78.7504 431.365 77.9221 431.296C76.0179 443.186 65.7131 452.271 53.2865 452.271C39.5066 452.271 28.3357 441.1 28.3357 427.32C28.3357 414.488 38.0221 403.919 50.4816 402.525C50.4685 402.161 50.4619 401.795 50.4619 401.428C50.4619 384.875 63.881 371.456 80.4342 371.456C96.9875 371.456 110.407 384.875 110.407 401.428Z" fill="white"/>
<path d="M201.893 447.877C221.826 447.877 237.985 431.718 237.985 411.785C237.985 391.851 221.826 375.692 201.893 375.692C181.959 375.692 165.8 391.851 165.8 411.785C165.8 431.718 181.959 447.877 201.893 447.877Z" fill="white"/>
</g>
<g filter="url(#filter1_i_1248_368)">
<path d="M144.616 462C172.782 462 195.616 439.167 195.616 411C195.616 382.833 172.782 360 144.616 360C116.449 360 93.6157 382.833 93.6157 411C93.6157 439.167 116.449 462 144.616 462Z" fill="white"/>
</g>
<g filter="url(#filter2_i_1248_368)">
<path d="M93.6158 456.978C107.396 456.978 118.567 445.808 118.567 432.028C118.567 418.248 107.396 407.077 93.6158 407.077C79.8359 407.077 68.665 418.248 68.665 432.028C68.665 445.808 79.8359 456.978 93.6158 456.978Z" fill="white"/>
</g>
<g filter="url(#filter3_i_1248_368)">
<path d="M418.252 248.832C420.152 259 429.935 265.701 440.103 263.8C440.622 263.703 441.133 263.586 441.634 263.448C444.168 270.533 451.541 274.929 459.173 273.502C467.637 271.92 473.216 263.776 471.634 255.313C470.16 247.431 462.997 242.052 455.185 242.626C455.151 242.401 455.113 242.175 455.071 241.95C453.17 231.783 443.387 225.081 433.22 226.982C423.053 228.882 416.351 238.665 418.252 248.832Z" fill="white"/>
<path d="M397.393 275.866C385.149 278.155 373.369 270.085 371.08 257.842C368.792 245.598 376.862 233.818 389.105 231.529C401.348 229.241 413.129 237.311 415.417 249.554C417.706 261.797 409.636 273.578 397.393 275.866Z" fill="white"/>
</g>
<g filter="url(#filter4_i_1248_368)">
<path d="M425.643 276.735C443.243 276.735 457.51 262.467 457.51 244.868C457.51 227.268 443.243 213 425.643 213C408.043 213 393.775 227.268 393.775 244.868C393.775 262.467 408.043 276.735 425.643 276.735Z" fill="white"/>
</g>
<path d="M237.396 585.099L86.4781 536.692L1.9317 554.317C-0.502457 554.804 -0.664749 558.134 1.60713 559.028L132.565 605.81C137.676 607.678 143.275 607.922 148.549 606.622L237.396 585.099Z" fill="white"/>
<path d="M237.396 585.099L86.4781 536.692L1.9317 554.317C-0.502457 554.804 -0.664749 558.134 1.60713 559.028L132.565 605.81C137.676 607.678 143.275 607.922 148.549 606.622L237.396 585.099Z" fill="url(#paint0_linear_1248_368)"/>
<path d="M331.598 596.632L176.217 550.175L256.869 511.271L418.01 557.403L331.598 596.632Z" fill="url(#paint1_linear_1248_368)"/>
<path d="M237.396 585.099L331.598 596.632L176.217 550.175L86.4781 536.692L237.396 585.099Z" fill="#CDD8F7"/>
<path d="M418.01 557.403L256.95 511.271L360.97 526.946C361.7 527.027 362.43 527.19 363.079 527.433L489.412 563.495C490.386 563.738 490.061 565.2 489.088 565.119L418.01 557.403Z" fill="#CDD8F7"/>
<path d="M232.987 296.806L243.514 288.518L277.461 261.76L314.839 276.678L320.989 279.165L321.581 279.401L327.258 281.651L367.947 297.872L336.839 322.381L333.764 324.867L333.172 325.341L328.086 329.248L323.118 333.155L289.644 359.559L249.192 343.338L243.278 340.97L242.686 340.733L236.772 338.365L199.277 323.328L232.987 296.806Z" fill="url(#paint2_linear_1248_368)"/>
<path d="M289.881 359.558L302.064 444.57L335.656 418.403L335.775 418.285L341.689 413.667L343.7 412.128L346.183 410.115L349.377 407.629L380.485 383.239L368.066 297.872L333.882 324.749L331.398 326.88L329.387 328.419L323.355 333.155L289.881 359.558Z" fill="url(#paint3_linear_1248_368)"/>
<path d="M237.009 338.364L240.203 339.667L242.568 340.614L243.041 340.851L243.633 341.088L249.429 343.456L289.763 359.677L302.064 444.57L261.73 428.586L254.751 425.862L252.386 424.915L249.192 423.613L211.578 408.694L199.277 323.328L237.009 338.364Z" fill="#FB7354"/>
<path d="M240.202 361.098L236.89 338.247L249.428 343.219L252.149 365.834C249.074 365.005 241.03 361.216 240.202 361.098Z" fill="#F8BA55"/>
<path d="M305.021 284.493L315.075 276.56L321.226 279.046L321.817 279.283L327.495 281.533L313.538 292.662C311.408 289.702 308.333 286.624 305.021 284.493Z" fill="#F8BA55"/>
<path d="M254.16 324.63C257.353 327.235 261.257 329.248 265.278 330.787L249.428 343.338L243.514 340.97L242.923 340.733L237.009 338.365L254.16 324.63Z" fill="#F8BA55"/>
<path d="M239.493 291.715L252.386 291.952L281.365 292.544V294.675L258.063 294.202L236.772 293.846L239.493 291.715Z" fill="white"/>
<path d="M281.339 290.277L286.391 292.299L283.669 299.116L278.616 297.094L281.339 290.277Z" fill="white"/>
<path d="M277.462 286.979C278.053 286.506 278.763 286.151 279.354 286.032C279.945 285.914 280.419 285.914 281.01 286.151L285.032 287.808C285.978 288.163 286.688 289.229 286.924 290.887C287.161 292.426 286.924 294.202 286.214 295.859C285.978 296.57 285.623 297.28 285.268 297.872C284.677 298.819 283.967 299.648 283.139 300.359C281.838 301.306 280.655 301.661 279.591 301.187L275.569 299.53C275.096 299.293 274.623 298.938 274.386 298.464C274.031 297.991 273.795 297.28 273.676 296.451C273.203 293.255 274.978 288.992 277.462 286.979ZM282.784 296.688C282.903 296.57 283.139 296.451 283.257 296.215C283.73 295.741 284.085 294.912 284.204 294.202C284.322 293.728 284.322 293.255 284.322 292.899C284.204 292.307 283.967 291.834 283.494 291.715C283.376 291.597 283.139 291.597 283.021 291.715C282.784 291.715 282.548 291.834 282.193 292.071C281.483 292.663 280.892 293.728 280.773 294.675C280.773 294.794 280.773 294.794 280.773 294.912C280.773 295.267 280.773 295.504 280.773 295.741C280.773 295.741 280.773 295.741 280.773 295.859C280.773 296.096 280.892 296.333 281.01 296.451C281.01 296.57 281.128 296.57 281.128 296.688C281.128 296.688 281.128 296.807 281.247 296.807C281.365 296.925 281.483 297.043 281.601 297.043C281.72 297.28 282.193 297.162 282.784 296.688Z" fill="white"/>
<path d="M329.387 328.419L341.807 414.378L343.818 412.72L331.398 326.762L329.387 328.419ZM281.365 292.307L281.601 292.544L284.085 294.32L286.214 295.859L331.28 326.88L329.269 328.419L285.268 297.753L283.139 296.214L280.537 294.438L280.064 294.083L281.365 292.307ZM281.128 294.083L280.655 294.675C280.655 294.438 280.773 294.083 280.892 293.846L281.128 294.083ZM275.451 289.229C275.214 289.702 274.859 290.176 274.741 290.531L143.339 159.107L142.985 156.857L275.451 289.229ZM280.655 294.557L369.711 116.364L371.013 117.193L281.72 295.149L280.655 294.557ZM280.655 294.557L302.118 174.499L303.656 174.854L281.956 294.793L280.655 294.557ZM280.892 293.728L281.246 294.32L280.655 294.793C280.655 294.557 280.773 294.201 280.892 293.965C280.892 293.846 280.892 293.728 280.892 293.728ZM219.567 186.339L276.87 287.571C276.515 287.926 276.16 288.4 275.805 288.755L218.266 187.167L219.567 186.339Z" fill="white"/>
<path d="M187.465 140.5L196.465 135C194.798 130.833 191.265 122.2 190.465 121C189.465 119.5 210.465 80.5 212.465 79C214.065 77.8 228.798 51.1667 235.965 38L242.965 68C246.298 100.167 253.165 164.9 253.965 166.5C254.765 168.1 231.298 184.833 219.465 193L198.965 183.5L187.465 140.5Z" fill="url(#paint4_radial_1248_368)"/>
<path d="M111.967 104.816C112.729 84.1161 122.959 62.6537 143.312 43.915C152.345 35.6351 162.794 28.3358 174.004 22.3437C187.282 15.2622 201.757 9.81495 216.886 6.00185C223.416 4.36766 230.164 3.06031 236.803 2.0798C237.565 1.97085 238.327 1.8619 239.089 1.75296C244.748 0.990337 250.408 0.445607 256.176 0.227715C261.509 0.00982364 266.842 -0.0991223 272.175 0.11877C272.284 0.11877 272.393 0.11877 272.502 0.11877C278.379 0.336661 284.147 0.772445 289.807 1.53507C272.393 2.29769 254.435 11.3402 245.51 17.2233C244.748 17.1143 244.095 17.1143 243.333 17.1143C242.68 17.1143 242.027 17.1143 241.265 17.1143C240.939 17.1143 240.504 17.1143 240.177 17.2233C239.415 17.3322 238.544 17.4412 237.783 17.5501C237.347 17.6591 236.803 17.768 236.368 17.877C235.932 17.9859 235.497 18.0948 235.062 18.2038H234.953C234.626 18.3127 234.191 18.4217 233.864 18.5306C233.756 18.5306 233.647 18.5306 233.538 18.6396C233.211 18.7485 232.885 18.8575 232.558 18.9664C232.45 18.9664 232.341 19.0754 232.232 19.0754C231.579 19.4022 230.926 19.729 230.273 20.0559C230.273 20.0559 230.273 20.0559 230.382 20.0559C229.511 20.6006 228.64 21.1453 227.878 21.6901C222.545 25.83 222.763 31.1683 227.987 34.2188H227.878C228.423 34.5457 228.967 34.7636 229.62 35.0904C230.708 35.5262 231.905 35.853 233.103 36.0709H233.211C235.279 36.5067 237.456 36.6156 239.742 36.3978C228.967 49.7981 220.26 98.1701 217.648 138.153C220.369 98.279 228.967 49.907 239.742 36.3978C241.048 36.2888 242.354 36.0709 243.66 35.853C266.733 51.977 311.248 160.051 305.915 180.751C263.577 196.875 213.185 198.291 173.024 182.494C169.433 181.078 165.95 179.553 162.467 177.81C128.183 160.814 110.878 133.577 111.967 104.816ZM141.026 49.4713C141.462 49.1444 141.897 48.9265 142.332 48.5997C141.897 48.9265 141.462 49.2534 141.026 49.4713ZM145.815 46.4208C146.468 45.985 147.121 45.5492 147.774 45.2224C147.23 45.6582 146.577 46.0939 145.815 46.4208ZM152.128 42.8256C152.563 42.6077 153.107 42.2808 153.543 42.0629C152.998 42.2808 152.563 42.6077 152.128 42.8256ZM164.862 36.5067C165.079 36.3978 165.188 36.2888 165.406 36.2888C165.188 36.2888 164.97 36.3978 164.862 36.5067ZM183.69 29.2073C183.799 29.2073 183.908 29.0984 184.017 29.0984C183.908 29.2073 183.799 29.2073 183.69 29.2073ZM168.78 129.982C168.997 128.784 169.215 127.585 169.433 126.387C169.106 127.585 168.997 128.784 168.78 129.982ZM169.759 124.426C169.868 123.881 169.977 123.228 170.086 122.683C169.977 123.337 169.868 123.881 169.759 124.426ZM170.63 120.831C170.739 120.286 170.956 119.632 171.065 119.088C170.956 119.632 170.739 120.177 170.63 120.831ZM171.501 117.562C171.718 116.8 171.936 116.146 172.154 115.384C171.936 116.146 171.718 116.909 171.501 117.562ZM175.419 106.123C175.637 105.578 175.854 105.143 175.963 104.598C175.745 105.143 175.637 105.687 175.419 106.123ZM178.575 98.8237C178.793 98.388 178.902 97.9522 179.119 97.6253C178.902 97.9522 178.684 98.388 178.575 98.8237ZM180.208 95.2285C180.425 94.7928 180.643 94.357 180.861 94.0301C180.643 94.4659 180.425 94.9017 180.208 95.2285ZM182.167 91.4154C182.276 91.0886 182.493 90.8707 182.602 90.5439C182.493 90.8707 182.384 91.1975 182.167 91.4154ZM184.126 87.9292C184.235 87.7113 184.452 87.3844 184.561 87.1665C184.343 87.3844 184.235 87.7113 184.126 87.9292ZM186.085 84.6608C186.194 84.4429 186.411 84.1161 186.52 83.8982C186.411 84.1161 186.194 84.3339 186.085 84.6608ZM188.262 81.0656C188.37 80.8477 188.479 80.6298 188.588 80.4119C188.479 80.7387 188.37 80.9566 188.262 81.0656ZM192.724 74.4199C192.833 74.3109 192.833 74.202 192.942 74.093C192.833 74.202 192.724 74.3109 192.724 74.4199ZM195.118 71.1515C195.118 71.0425 195.227 71.0425 195.227 70.9336C195.118 71.0425 195.118 71.0425 195.118 71.1515ZM216.886 166.37C216.886 163.864 216.777 161.25 216.886 158.526C216.886 161.25 216.886 163.864 216.886 166.37ZM216.886 155.802C216.886 155.149 216.886 154.495 216.886 153.732C216.995 154.386 216.886 155.04 216.886 155.802ZM217.212 147.196C217.212 146.324 217.321 145.344 217.321 144.363C217.321 145.235 217.212 146.215 217.212 147.196ZM217.43 177.156C217.43 177.374 217.43 177.701 217.539 177.918C217.539 177.701 217.43 177.374 217.43 177.156ZM217.648 178.899C217.648 179.226 217.757 179.662 217.757 179.988C217.648 179.553 217.648 179.226 217.648 178.899ZM218.083 182.712C218.192 183.584 218.41 184.455 218.518 185.327C218.41 184.564 218.192 183.693 218.083 182.712ZM219.063 187.941C219.063 188.05 219.171 188.268 219.171 188.377C219.171 188.268 219.171 188.05 219.063 187.941ZM219.498 189.358C219.498 189.467 219.607 189.576 219.607 189.685C219.607 189.576 219.607 189.467 219.498 189.358ZM219.933 190.665C219.933 190.774 219.933 190.774 220.042 190.883C220.042 190.883 220.042 190.774 219.933 190.665ZM123.068 144.145C124.265 145.997 125.571 147.958 126.986 149.701C128.401 151.554 129.925 153.297 131.557 155.04C129.925 153.297 128.401 151.445 126.986 149.701C125.68 147.958 124.374 145.997 123.068 144.145C121.218 141.313 119.585 138.371 118.279 135.43C119.694 138.371 121.327 141.313 123.068 144.145ZM115.776 129.329C115.014 127.259 114.47 125.189 113.926 123.119C114.47 125.298 115.123 127.368 115.776 129.329ZM249.864 33.6741C280.447 39.993 321.696 70.171 338.348 105.469C347.382 124.644 350.32 141.748 350.32 155.911C352.824 153.95 355.218 151.88 357.612 149.701C368.061 140.114 375.788 129.764 381.013 119.197C397.882 84.9876 387.76 48.055 352.715 24.1958C321.152 11.776 283.385 10.0328 248.013 17.6591C248.993 17.877 249.972 18.2038 250.843 18.5306C257.047 21.0364 258.462 26.1568 254.217 30.5147C253.782 30.9505 253.238 31.3862 252.693 31.822C251.931 32.4757 250.952 33.1294 249.864 33.6741Z" fill="url(#paint5_radial_1248_368)"/>
<g filter="url(#filter5_i_1248_368)">
<path d="M345.967 21.6899H346.076C346.687 21.9041 347.307 22.1269 347.931 22.3511C349.528 22.925 351.15 23.5077 352.715 23.9778C348.253 20.9273 343.464 18.2036 338.239 15.5889C337.532 15.2621 336.797 14.9353 336.063 14.6084C335.328 14.2816 334.593 13.9547 333.886 13.6279C333.451 13.41 332.988 13.2194 332.526 13.0287C332.063 12.8381 331.6 12.6474 331.165 12.4295H331.056C318.213 7.09115 304.282 3.38699 289.807 1.53491C272.502 2.40648 254.435 11.34 245.51 17.2231H245.945C246.272 17.2776 246.626 17.3321 246.979 17.3865C247.333 17.441 247.687 17.4955 248.013 17.55C250.081 17.1142 252.149 16.6784 254.217 16.3516C254.544 16.2971 254.897 16.2426 255.251 16.1881C255.605 16.1337 255.958 16.0792 256.285 16.0247C256.992 15.9158 257.673 15.8068 258.353 15.6979C259.033 15.5889 259.713 15.48 260.421 15.371L263.033 15.0442C263.631 14.9897 264.257 14.908 264.883 14.8263C265.509 14.7446 266.135 14.6629 266.733 14.6084C267.223 14.554 267.685 14.4995 268.148 14.4451C268.61 14.3906 269.073 14.3361 269.563 14.2816C270.162 14.2271 270.733 14.1726 271.305 14.1182C271.876 14.0637 272.447 14.0092 273.046 13.9547C273.536 13.9003 274.025 13.873 274.515 13.8458C275.005 13.8186 275.495 13.7913 275.985 13.7369C276.529 13.6824 277.073 13.6551 277.617 13.6279C278.161 13.6007 278.705 13.5734 279.25 13.519L279.522 13.4916C280.503 13.3925 281.409 13.3011 282.406 13.3011C283.385 13.1921 284.256 13.1921 285.236 13.1921C288.065 13.0832 290.895 13.0832 293.616 13.0832H294.378C295.793 13.0832 297.208 13.0832 298.623 13.1921C299.276 13.3011 299.82 13.3011 300.473 13.3011L304.718 13.6279C305.044 13.6279 305.343 13.6551 305.643 13.6824C305.942 13.7096 306.241 13.7369 306.568 13.7369C307.275 13.7913 307.983 13.873 308.69 13.9547C309.398 14.0365 310.105 14.1182 310.812 14.1726C311.041 14.2298 311.3 14.257 311.572 14.2857C311.819 14.3116 312.078 14.3388 312.336 14.3905C313.751 14.4995 315.275 14.7174 316.799 14.9353C317.032 14.9353 317.234 14.9665 317.421 14.9956C317.584 15.0207 317.735 15.0442 317.887 15.0442C327.573 16.4605 337.042 18.6394 345.967 21.6899Z" fill="url(#paint6_radial_1248_368)"/>
<path d="M249.864 33.6741C248.013 34.6546 245.945 35.4172 243.769 35.853C266.842 51.868 311.357 159.942 306.024 180.751C322.349 174.541 337.369 166.261 350.32 155.911C350.32 141.748 347.382 124.644 338.348 105.469C321.696 70.171 280.447 39.9929 249.864 33.6741Z" fill="url(#paint7_radial_1248_368)"/>
<path d="M216.886 6.00171C227.552 9.05219 237.238 15.0442 237.674 17.55C237.239 17.6589 236.803 17.7679 236.477 17.8768L235.171 18.2037H235.062C235.007 18.2037 234.926 18.2309 234.844 18.2581C234.762 18.2854 234.681 18.3126 234.626 18.3126C234.504 18.3738 234.382 18.4006 234.24 18.4317C234.13 18.4559 234.008 18.4827 233.865 18.5305C233.756 18.5305 233.647 18.5305 233.538 18.6394L232.558 18.9663C232.504 18.9663 232.45 18.9935 232.395 19.0207C232.341 19.048 232.286 19.0752 232.232 19.0752C232.186 19.0752 232.159 19.0752 232.135 19.0836C232.104 19.0949 232.077 19.1215 232.014 19.1841C219.607 15.0442 195.118 15.9158 173.895 22.2346C187.282 15.1532 201.758 9.70587 216.886 6.00171Z" fill="url(#paint8_radial_1248_368)"/>
<path d="M159.637 70.8248C131.449 96.7539 117.191 130.418 131.666 155.149C138.199 166.208 164.321 178.456 170.284 181.252C171.077 181.623 171.513 181.828 171.501 181.841C167.474 168.222 165.406 151.009 168.671 130.091C174.657 91.5245 205.676 50.9966 233.211 36.18C232.014 35.9621 230.817 35.6352 229.729 35.1994C229.502 35.0861 229.289 34.9859 229.084 34.8897C228.698 34.7084 228.343 34.5414 227.987 34.3279C219.063 36.7247 210.356 40.211 201.213 44.0241C185.976 50.3429 171.827 59.6033 159.637 70.8248Z" fill="url(#paint9_radial_1248_368)"/>
</g>
<path d="M224.069 19.729C231.035 13.3012 243.551 11.4491 252.04 15.698C260.53 19.9469 261.836 28.5536 254.87 35.0903C247.905 41.5181 235.388 43.3702 226.899 39.1213C218.301 34.8724 216.995 26.1568 224.069 19.729Z" fill="url(#paint10_linear_1248_368)"/>
<path d="M129.7 508.415H129.784C129.869 508.415 129.954 508.415 130.123 508.329C130.292 508.329 130.461 508.244 130.715 508.244C130.799 508.244 130.884 508.244 130.968 508.159C131.137 508.159 131.222 508.073 131.391 508.073C131.476 508.073 131.56 508.073 131.645 507.988C131.729 507.988 131.814 507.902 131.899 507.902C132.068 507.902 132.152 507.817 132.321 507.817C132.406 507.817 132.491 507.817 132.575 507.732C132.66 507.732 132.744 507.646 132.829 507.646C132.998 507.561 133.083 507.561 133.252 507.476C133.336 507.476 133.336 507.476 133.421 507.39C133.505 507.39 133.674 507.305 133.759 507.22C133.928 507.134 134.013 507.134 134.182 507.049C134.266 507.049 134.266 507.049 134.351 506.963C134.436 506.878 134.605 506.878 134.689 506.793C134.858 506.707 134.943 506.622 135.112 506.622C135.112 506.622 135.197 506.622 135.197 506.537C135.281 506.451 135.45 506.451 135.535 506.366C135.704 506.28 135.789 506.195 135.958 506.11C135.958 506.11 136.042 506.11 136.042 506.024C136.127 505.939 136.211 505.939 136.296 505.854C136.465 505.768 136.634 505.683 136.803 505.512C136.888 505.512 136.888 505.427 136.973 505.427C137.057 505.341 137.142 505.341 137.226 505.256C137.395 505.171 137.565 505 137.734 504.915C137.818 504.915 137.818 504.829 137.903 504.829C137.987 504.829 137.987 504.744 138.072 504.659C138.241 504.488 138.495 504.317 138.664 504.232C138.748 504.146 138.833 504.146 138.833 504.061L138.918 503.976C139.256 503.72 141.384 501.927 141.723 501.585C141.976 501.415 142.146 501.159 142.399 500.988C142.484 500.902 142.484 500.902 142.568 500.817C142.738 500.646 142.907 500.476 143.076 500.39L143.16 500.305C143.414 500.049 143.752 499.707 144.006 499.366C144.006 499.28 144.091 499.28 144.091 499.195C144.344 498.939 144.513 498.683 144.767 498.427L144.852 498.341C144.936 498.256 144.936 498.256 144.936 498.171C145.19 497.829 145.444 497.573 145.613 497.232C145.697 497.146 145.697 497.061 145.782 496.976C146.036 496.634 146.289 496.207 146.543 495.78C146.628 495.695 146.628 495.61 146.712 495.524C146.881 495.183 147.135 494.841 147.304 494.5C147.389 494.415 147.389 494.329 147.473 494.244C147.727 493.817 147.896 493.39 148.15 492.963C148.15 492.963 148.15 492.878 148.234 492.878C148.234 492.793 148.319 492.707 148.319 492.622C148.403 492.366 148.573 492.11 148.657 491.854C148.742 491.683 148.742 491.598 148.826 491.427C148.911 491.171 148.995 490.915 149.165 490.659C149.165 490.573 149.249 490.488 149.249 490.402C149.249 490.317 149.249 490.317 149.334 490.232C149.334 490.146 149.418 489.976 149.418 489.89C149.503 489.72 149.587 489.463 149.587 489.293C149.587 489.207 149.672 489.037 149.672 488.951C149.672 488.866 149.757 488.78 149.757 488.695C149.757 488.61 149.757 488.524 149.841 488.439C149.926 488.098 150.01 487.756 150.095 487.415C150.095 487.329 150.179 487.244 150.179 487.159V487.073C150.264 486.732 150.348 486.39 150.348 486.049C150.348 485.963 150.348 485.963 150.348 485.878C150.433 485.451 150.518 485.11 150.518 484.683C150.518 484.512 150.518 484.427 150.602 484.256C150.602 484 150.687 483.829 150.687 483.573C150.687 483.573 150.687 483.573 150.687 483.488C150.687 483.317 150.687 483.146 150.687 482.976C150.687 482.805 150.687 482.634 150.687 482.463C150.687 482.463 150.687 482.463 150.687 482.378C150.687 482.037 150.687 481.695 150.687 481.354C150.687 481.354 150.687 481.354 150.687 481.268C150.687 480.927 150.687 480.585 150.687 480.244C150.687 480.159 150.687 480.073 150.687 479.988C150.687 479.902 150.687 479.732 150.687 479.646C150.687 479.476 150.687 479.39 150.687 479.22C150.687 479.049 150.687 478.793 150.602 478.622C150.602 478.537 150.602 478.451 150.602 478.366V478.28C150.602 477.939 150.518 477.598 150.433 477.341V477.256C150.433 477.171 150.433 477.085 150.348 477C150.348 476.829 150.264 476.573 150.264 476.402C150.264 476.317 150.179 476.146 150.179 476.061C150.179 475.976 150.095 475.805 150.095 475.72C150.095 475.634 150.095 475.549 150.01 475.463C149.926 475.293 149.926 475.037 149.841 474.866C149.841 474.78 149.757 474.695 149.757 474.61V474.524C149.672 474.183 149.503 473.841 149.418 473.5C149.418 473.415 149.334 473.329 149.249 473.159C149.165 472.902 149.08 472.732 148.995 472.476C148.995 472.476 148.995 472.39 148.911 472.39C148.826 472.22 148.742 472.049 148.657 471.878C148.573 471.707 148.488 471.537 148.403 471.451C148.403 471.451 148.403 471.366 148.319 471.366C148.15 471.024 147.896 470.683 147.727 470.341C147.727 470.341 147.727 470.256 147.642 470.256C147.642 470.256 147.642 470.256 147.642 470.171C147.473 469.915 147.304 469.573 147.05 469.317C146.966 469.232 148.076 468.037 147.991 467.951C147.906 467.866 147.822 467.781 147.737 467.695C147.653 467.61 147.568 467.439 147.399 467.354C147.314 467.268 147.314 467.268 147.23 467.183C146.976 466.927 146.807 466.671 146.553 466.415C146.469 466.329 146.469 466.329 146.384 466.244C146.215 466.073 145.961 465.902 145.792 465.646C145.708 465.561 145.623 465.561 145.623 465.476C145.369 465.22 145.116 465.049 144.862 464.878C144.862 464.878 144.777 464.793 144.693 464.793C144.439 464.622 144.186 464.451 143.932 464.281C143.847 464.195 143.763 464.195 143.678 464.11C143.424 463.939 143.086 463.768 142.748 463.598L125.824 456.854C126.162 457.024 126.416 457.195 126.754 457.366C126.839 457.451 126.924 457.451 127.008 457.537C127.262 457.707 127.516 457.878 127.769 458.049C127.769 458.049 127.854 458.134 127.938 458.134C128.192 458.305 128.446 458.561 128.699 458.732C128.784 458.817 128.869 458.817 128.869 458.902C129.038 459.073 129.291 459.244 129.461 459.5C129.545 459.585 129.545 459.585 129.63 459.671C129.883 459.927 130.137 460.183 130.306 460.439C130.391 460.524 130.391 460.524 130.475 460.61C130.644 460.78 130.814 461.037 130.983 461.293C131.067 461.378 131.152 461.463 131.152 461.549C131.321 461.805 131.575 462.061 131.744 462.402C131.744 462.402 131.744 462.402 131.744 462.488L131.828 462.573C131.998 462.915 132.251 463.256 132.42 463.598C132.505 463.768 132.59 463.939 132.674 464.11C132.759 464.281 132.843 464.451 132.928 464.622C133.012 464.878 133.181 465.134 133.266 465.39C133.351 465.476 133.351 465.561 133.435 465.732C133.604 466.073 133.689 466.5 133.858 466.841C133.858 466.927 133.943 467.012 133.943 467.098C134.027 467.354 134.112 467.695 134.196 467.951C134.196 468.037 134.281 468.207 134.281 468.293C134.365 468.634 134.45 468.89 134.45 469.232C134.45 469.317 134.45 469.402 134.535 469.488C134.619 469.915 134.619 470.256 134.704 470.683C134.704 470.768 134.704 470.854 134.704 470.939C134.704 471.281 134.788 471.622 134.788 471.963C134.788 472.049 134.788 472.22 134.788 472.305C134.788 472.732 134.788 473.159 134.788 473.585C134.788 473.927 134.788 474.268 134.788 474.695C134.788 474.866 134.788 475.037 134.788 475.207C134.788 475.378 134.788 475.634 134.704 475.805C134.704 476.061 134.619 476.232 134.619 476.488C134.619 476.659 134.619 476.744 134.535 476.915C134.45 477.341 134.45 477.683 134.365 478.11C134.365 478.195 134.365 478.28 134.281 478.366C134.196 478.707 134.112 479.049 134.027 479.39C134.027 479.476 133.943 479.646 133.943 479.732C133.858 480.073 133.773 480.415 133.689 480.756C133.604 480.927 133.604 481.098 133.52 481.183C133.52 481.268 133.435 481.439 133.435 481.524C133.351 481.695 133.266 481.951 133.266 482.122C133.266 482.207 133.181 482.378 133.181 482.463C133.097 482.634 133.097 482.72 133.012 482.89C132.928 483.146 132.843 483.402 132.674 483.659C132.59 483.829 132.59 483.915 132.505 484.085C132.42 484.341 132.251 484.598 132.167 484.854C132.082 484.939 132.082 485.11 131.998 485.195C131.828 485.622 131.575 486.049 131.321 486.476C131.236 486.561 131.236 486.646 131.152 486.732C130.983 487.073 130.729 487.415 130.56 487.756C130.475 487.841 130.475 487.927 130.391 488.012C130.137 488.439 129.883 488.78 129.63 489.207C129.545 489.293 129.545 489.378 129.461 489.463C129.207 489.805 128.953 490.146 128.784 490.402C128.699 490.488 128.615 490.573 128.53 490.659C128.277 490.915 128.107 491.171 127.854 491.427C127.854 491.512 127.769 491.512 127.769 491.598C127.516 491.939 127.262 492.195 126.924 492.537C126.754 492.707 126.585 492.878 126.416 493.049C126.332 493.134 126.332 493.134 126.247 493.22C125.993 493.476 125.74 493.646 125.57 493.902C125.232 494.159 124.894 494.5 124.556 494.756C124.471 494.841 124.387 494.927 124.217 495.012C124.048 495.183 123.795 495.354 123.625 495.439C123.541 495.524 123.372 495.61 123.287 495.695C123.118 495.781 122.949 495.951 122.78 496.037C122.695 496.122 122.526 496.207 122.442 496.293C122.272 496.378 122.103 496.463 121.934 496.634C121.765 496.72 121.68 496.805 121.511 496.89C121.342 496.976 121.258 497.061 121.088 497.146C120.919 497.232 120.75 497.317 120.666 497.402C120.496 497.488 120.412 497.573 120.243 497.573C120.074 497.659 119.905 497.744 119.735 497.829C119.566 497.915 119.482 497.915 119.313 498C119.143 498.085 118.974 498.171 118.805 498.171C118.636 498.256 118.551 498.256 118.382 498.341C118.213 498.427 118.044 498.427 117.875 498.512C117.706 498.598 117.621 498.598 117.452 498.598C117.283 498.683 117.114 498.683 116.945 498.768C116.776 498.768 116.691 498.854 116.522 498.854C116.268 498.939 116.014 498.939 115.761 499.024C115.592 499.024 115.507 499.11 115.338 499.11C115.084 499.11 114.831 499.195 114.577 499.195H114.492C114.239 499.195 113.9 499.28 113.647 499.28C113.562 499.28 113.477 499.28 113.477 499.28C113.224 499.28 112.886 499.28 112.632 499.28C112.632 499.28 112.632 499.28 112.547 499.28C112.209 499.28 111.871 499.28 111.617 499.28C111.532 499.28 111.532 499.28 111.448 499.28C111.11 499.28 110.771 499.195 110.433 499.195C110.348 499.195 110.264 499.195 110.264 499.195C110.179 499.195 110.01 499.195 109.926 499.11C109.841 499.11 109.757 499.11 109.672 499.024C109.587 499.024 109.418 498.939 109.334 498.939C109.249 498.939 109.165 498.939 109.08 498.854C108.826 498.768 108.573 498.768 108.403 498.683C108.319 498.683 108.319 498.683 108.234 498.598C108.065 498.512 107.896 498.512 107.642 498.427C107.558 498.427 107.473 498.341 107.473 498.341C107.304 498.256 107.22 498.256 107.05 498.171C106.966 498.171 106.881 498.085 106.881 498.085C106.712 498 106.458 497.915 106.289 497.829L120.313 507.22C120.482 507.305 120.736 507.39 120.905 507.476C120.99 507.476 121.074 507.561 121.074 507.561C121.243 507.646 121.328 507.646 121.497 507.732H121.581H121.666C121.835 507.817 122.004 507.902 122.258 507.902C122.343 507.902 122.343 507.902 122.427 507.988C122.681 508.073 122.935 508.159 123.104 508.159C123.104 508.159 123.104 508.159 123.188 508.159C123.273 508.159 123.273 508.159 123.357 508.159C123.442 508.159 123.611 508.244 123.696 508.244C123.78 508.244 123.865 508.244 123.949 508.329C124.034 508.329 124.203 508.415 124.288 508.415H124.372H124.457C124.795 508.5 125.133 508.5 125.472 508.5C125.472 508.5 125.472 508.5 125.556 508.5H125.641C125.979 508.5 126.233 508.5 126.571 508.5C126.825 508.5 127.163 508.5 127.417 508.5H127.501H127.586C127.839 508.5 128.178 508.5 128.431 508.415H128.516C129.192 508.5 129.446 508.415 129.7 508.415ZM73.9849 488.439C73.9849 488.354 73.9849 488.268 73.9849 488.183C73.9849 487.671 73.9849 487.244 73.9849 486.732C73.9849 486.561 73.9849 486.476 73.9849 486.305C73.9849 486.134 73.9849 486.049 73.9849 485.878C73.9849 485.537 73.9849 485.11 73.9849 484.768C73.9849 484.768 73.9849 484.768 73.9849 484.683C73.9849 484.256 73.9849 483.829 74.0694 483.402C74.0694 483.317 74.0694 483.146 74.0694 483.061C74.0694 482.89 74.0694 482.805 74.0694 482.634C74.0694 482.122 74.154 481.61 74.154 481.098C74.154 481.012 74.154 481.012 74.154 480.927C74.2386 480.415 74.2386 479.902 74.3231 479.305C74.3231 479.134 74.3231 479.049 74.4077 478.878C74.4077 478.707 74.4077 478.537 74.4923 478.366C74.4923 478.11 74.5768 477.768 74.6614 477.512C74.6614 477.427 74.6614 477.256 74.746 477.171C74.8305 476.659 74.9151 476.232 74.9997 475.72C74.9997 475.634 74.9996 475.463 75.0842 475.378C75.2533 474.695 75.3379 474.012 75.507 473.415C75.507 473.244 75.5916 473.159 75.5916 472.988C75.5916 472.902 75.6762 472.732 75.6762 472.646C75.7608 472.134 75.9299 471.707 76.0145 471.28C76.0145 471.195 76.099 471.11 76.099 471.024C76.2682 470.427 76.4373 469.829 76.6064 469.232C76.6064 469.146 76.6064 469.146 76.691 469.061C76.7756 468.805 76.8601 468.463 76.9447 468.207C77.0293 467.78 77.1984 467.439 77.3675 467.012C77.4521 466.756 77.5367 466.415 77.7058 466.159C77.7904 465.902 77.8749 465.646 77.9595 465.305C78.0441 465.134 78.0441 465.049 78.1286 464.963C78.2132 464.793 78.2132 464.622 78.2978 464.451C78.4669 463.939 78.7206 463.427 78.8897 462.915C78.9743 462.829 78.9743 462.744 79.0589 462.573C79.3126 461.976 79.5663 461.378 79.82 460.78C79.9045 460.61 79.9891 460.524 79.9891 460.354C80.0737 460.098 80.1582 459.927 80.3274 459.671C80.4119 459.5 80.4965 459.244 80.6656 459.073C80.7502 458.817 80.9193 458.646 81.0039 458.39C81.173 457.963 81.4267 457.622 81.5959 457.195C81.6804 457.024 81.765 456.768 81.9341 456.598C82.2724 456.085 82.5261 455.488 82.8644 454.976C82.8644 454.89 82.9489 454.89 82.9489 454.805C83.2872 454.207 83.6254 453.695 83.9637 453.098C84.0483 452.927 84.2174 452.756 84.302 452.585C84.5557 452.244 84.8094 451.817 85.0631 451.476C85.2322 451.305 85.3168 451.049 85.4859 450.878C85.7396 450.537 85.9933 450.195 86.247 449.854C86.4162 449.683 86.5007 449.427 86.6699 449.256C86.9236 448.915 87.1772 448.573 87.4309 448.232C87.6001 448.061 87.6846 447.89 87.8538 447.72C87.9383 447.634 87.9384 447.549 88.0229 447.549C88.3612 447.122 88.6994 446.78 89.0377 446.354C89.1223 446.268 89.1223 446.183 89.2068 446.098C89.5451 445.671 89.8834 445.329 90.2217 444.902C90.3062 444.817 90.4753 444.646 90.5599 444.561C90.9827 444.134 91.4056 443.622 91.8284 443.195C91.913 443.11 91.9975 443.024 92.1667 442.854C92.5049 442.512 92.9278 442.085 93.266 441.744C93.4352 441.573 93.6043 441.402 93.858 441.232C94.1963 440.976 94.45 440.634 94.7882 440.378C94.8728 440.293 94.9574 440.293 94.9574 440.207C95.3802 439.866 95.7185 439.524 96.1413 439.183C96.3105 439.012 96.4796 438.927 96.6487 438.756C96.8178 438.585 97.0715 438.415 97.2407 438.244C97.4098 438.159 97.4944 437.988 97.6635 437.902C97.8326 437.817 97.9172 437.732 98.0863 437.561C98.5092 437.22 99.0166 436.878 99.4394 436.537C99.4394 436.537 99.4394 436.537 99.524 436.537C100.031 436.195 100.454 435.854 100.962 435.598C101.046 435.512 101.215 435.427 101.3 435.341C101.384 435.256 101.554 435.171 101.638 435.085C101.976 434.829 102.399 434.659 102.738 434.402C102.822 434.402 102.822 434.317 102.907 434.317C103.16 434.146 103.499 433.976 103.752 433.805C103.921 433.72 104.175 433.634 104.344 433.463C104.429 433.378 104.513 433.378 104.598 433.293C105.021 433.037 105.444 432.866 105.782 432.695C105.866 432.61 105.951 432.61 106.12 432.524C106.205 432.439 106.289 432.439 106.374 432.354C106.881 432.098 107.304 431.927 107.811 431.671C107.811 431.671 107.896 431.671 107.981 431.585C108.065 431.585 108.15 431.5 108.15 431.5C108.657 431.244 109.249 431.073 109.757 430.817C110.348 430.561 110.856 430.39 111.448 430.22C111.532 430.22 111.617 430.134 111.617 430.134C111.702 430.134 111.702 430.134 111.786 430.049C112.294 429.878 112.801 429.707 113.224 429.622C113.308 429.622 113.393 429.537 113.477 429.537C113.562 429.537 113.647 429.451 113.731 429.451C114.154 429.366 114.661 429.195 115.084 429.11C115.169 429.11 115.253 429.024 115.338 429.024C115.507 429.024 115.592 428.939 115.761 428.939C116.184 428.854 116.606 428.768 117.029 428.683C117.283 428.598 117.537 428.598 117.79 428.512C118.044 428.427 118.298 428.427 118.636 428.341C118.721 428.341 118.721 428.341 118.805 428.341C119.228 428.256 119.566 428.256 119.989 428.171C120.074 428.171 120.243 428.171 120.327 428.171C120.412 428.171 120.581 428.171 120.666 428.171C121.173 428.085 121.68 428.085 122.188 428.085C122.78 428.085 123.372 428 123.964 428C124.133 428 124.302 428 124.471 428C124.556 428 124.64 428 124.64 428C124.894 428 125.063 428 125.317 428C125.486 428 125.57 428 125.74 428C125.993 428 126.247 428 126.416 428C126.501 428 126.585 428 126.67 428C126.67 428 126.67 428 126.754 428C127.093 428 127.516 428.085 127.854 428.085C127.938 428.085 128.023 428.085 128.107 428.085C128.361 428.085 128.699 428.171 128.953 428.171C129.038 428.171 129.038 428.171 129.122 428.171C129.207 428.171 129.207 428.171 129.291 428.171C129.714 428.256 130.137 428.341 130.56 428.427C130.983 428.512 131.406 428.598 131.744 428.683C131.828 428.683 131.828 428.683 131.913 428.683C131.998 428.683 132.082 428.683 132.082 428.768C132.251 428.768 132.336 428.854 132.505 428.854C132.674 428.854 132.843 428.939 132.928 428.939C133.097 428.939 133.181 429.024 133.351 429.11C133.52 429.195 133.689 429.195 133.773 429.28C133.943 429.366 134.027 429.366 134.196 429.451C134.365 429.537 134.45 429.537 134.619 429.622C134.788 429.707 134.873 429.707 135.042 429.793C135.127 429.793 135.211 429.878 135.296 429.878C135.296 429.878 135.38 429.878 135.38 429.963C135.803 430.134 136.226 430.305 136.649 430.476C136.733 430.476 136.818 430.561 136.818 430.561C137.241 430.732 137.664 430.988 138.171 431.159L153.985 439.012C153.562 438.756 153.139 438.585 152.632 438.415C152.547 438.415 152.463 438.329 152.463 438.329C152.04 438.159 151.617 437.988 151.194 437.817C151.11 437.732 150.94 437.732 150.856 437.732C150.687 437.646 150.602 437.646 150.433 437.561C150.264 437.476 150.179 437.476 150.01 437.39C149.841 437.305 149.757 437.305 149.587 437.22C149.418 437.134 149.334 437.134 149.165 437.049C148.995 436.963 148.911 436.963 148.742 436.963C148.573 436.963 148.403 436.878 148.319 436.878C148.15 436.878 148.065 436.793 147.896 436.793C147.811 436.793 147.642 436.707 147.558 436.707C147.135 436.622 146.712 436.537 146.374 436.451C145.951 436.366 145.528 436.28 145.105 436.195C145.021 436.195 144.852 436.195 144.767 436.11C144.513 436.11 144.175 436.024 143.921 436.024C143.837 436.024 143.752 436.024 143.668 436.024C143.329 436.024 142.907 435.939 142.568 435.939C142.484 435.939 142.315 435.939 142.23 435.939C141.976 435.939 141.723 435.939 141.554 435.939C141.384 435.939 141.3 435.939 141.131 435.939C140.877 435.939 140.708 435.939 140.454 435.939C140.201 435.939 139.947 435.939 139.778 435.939C139.186 435.939 138.594 435.939 138.002 436.024C137.494 436.024 136.987 436.11 136.48 436.11C136.395 436.11 136.226 436.11 136.141 436.11C135.634 436.195 135.127 436.195 134.619 436.28C134.535 436.28 134.535 436.28 134.45 436.28C133.943 436.366 133.351 436.451 132.843 436.537C132.251 436.622 131.659 436.793 131.152 436.878C131.067 436.878 130.983 436.963 130.898 436.963C130.391 437.134 129.799 437.22 129.291 437.39C129.207 437.39 129.122 437.476 129.038 437.476C128.53 437.646 127.938 437.817 127.431 437.988C127.346 437.988 127.262 438.073 127.262 438.073C126.67 438.244 126.162 438.5 125.57 438.671C125.063 438.927 124.471 439.098 123.964 439.354C123.879 439.354 123.795 439.439 123.795 439.439C123.287 439.695 122.78 439.866 122.272 440.122C122.188 440.207 122.103 440.207 122.019 440.293C121.511 440.549 121.004 440.805 120.496 441.061C120.412 441.146 120.327 441.146 120.243 441.232C119.735 441.488 119.313 441.744 118.805 442.085C118.721 442.085 118.721 442.171 118.636 442.171C118.129 442.427 117.621 442.768 117.198 443.11C117.114 443.195 116.945 443.28 116.86 443.366C116.353 443.707 115.845 444.049 115.422 444.39C115.422 444.39 115.422 444.39 115.338 444.39C114.831 444.732 114.408 445.073 113.985 445.415C113.816 445.5 113.731 445.585 113.562 445.756C113.224 446.012 112.885 446.268 112.547 446.61C112.378 446.781 112.209 446.866 112.04 447.037C111.617 447.378 111.194 447.72 110.856 448.061C110.771 448.146 110.687 448.146 110.687 448.232C110.348 448.488 110.01 448.829 109.757 449.085C109.587 449.256 109.418 449.427 109.249 449.598C108.826 449.939 108.488 450.366 108.065 450.707C107.981 450.793 107.896 450.878 107.727 451.049C107.304 451.476 106.881 451.902 106.458 452.415C106.374 452.5 106.205 452.671 106.12 452.756C105.782 453.183 105.444 453.524 105.105 453.951C105.021 454.037 105.021 454.122 104.936 454.207C104.513 454.634 104.175 455.146 103.752 455.573C103.583 455.744 103.499 455.915 103.329 456.085C103.076 456.427 102.822 456.768 102.568 457.11C102.399 457.28 102.315 457.537 102.146 457.707C101.892 458.049 101.638 458.39 101.384 458.732C101.215 458.902 101.131 459.159 100.962 459.329C100.708 459.671 100.454 460.098 100.201 460.439C100.116 460.61 99.9468 460.78 99.8622 460.951C99.524 461.549 99.1857 462.061 98.8474 462.659C98.8474 462.744 98.7629 462.744 98.7629 462.829C98.4246 463.341 98.1709 463.939 97.8326 464.451C97.7481 464.622 97.6635 464.878 97.4944 465.049C97.2407 465.476 97.0715 465.817 96.9024 466.244C96.8178 466.5 96.6487 466.671 96.5642 466.927C96.395 467.354 96.1413 467.78 95.9722 468.207C95.8876 468.378 95.803 468.463 95.803 468.634C95.5493 469.232 95.2956 469.829 95.0419 470.427C94.9574 470.512 94.9574 470.598 94.8728 470.768C94.7037 471.28 94.45 471.793 94.2808 472.305C94.1963 472.476 94.1963 472.646 94.1117 472.817C93.9426 473.244 93.858 473.585 93.6889 474.012C93.6043 474.268 93.5197 474.61 93.3506 474.866C93.1815 475.293 93.0969 475.634 92.9278 476.061C92.8432 476.317 92.7587 476.659 92.6741 476.915C92.505 477.598 92.3358 478.195 92.0821 478.878C92.0821 478.963 91.9975 479.049 91.9975 479.134C91.8284 479.732 91.6593 480.329 91.5747 480.927C91.5747 481.098 91.4902 481.183 91.4902 481.354C91.321 482.037 91.2365 482.634 91.0673 483.317C90.9828 483.915 90.8136 484.512 90.729 485.11C90.729 485.195 90.7291 485.366 90.6445 485.451C90.5599 485.878 90.4753 486.39 90.4753 486.817C90.4753 486.988 90.4753 487.073 90.3908 487.244C90.3062 487.756 90.2217 488.354 90.2217 488.866C90.2217 488.951 90.2217 488.951 90.2217 489.037C90.1371 489.549 90.1371 490.061 90.1371 490.573C90.1371 490.744 90.1371 490.829 90.1371 491C90.1371 491.512 90.0525 492.11 90.0525 492.622C90.0525 492.622 90.0525 492.622 90.0525 492.707C90.0525 493.22 90.0525 493.732 90.0525 494.244C90.0525 494.415 90.0525 494.5 90.0525 494.671C90.0525 495.183 90.0525 495.61 90.0525 496.122C90.0525 496.207 90.0525 496.207 90.0525 496.293C90.0525 496.805 90.0525 497.317 90.1371 497.915C90.1371 498.085 90.1371 498.171 90.1371 498.341C90.1371 498.768 90.2217 499.11 90.2217 499.537C90.2217 499.707 90.2216 499.878 90.3062 500.049C90.3908 500.476 90.3908 500.988 90.4753 501.415C90.4753 501.5 90.4753 501.585 90.4753 501.585C90.5599 502.098 90.6445 502.695 90.6445 503.207C90.6445 503.378 90.729 503.549 90.729 503.634C90.8136 503.976 90.8136 504.402 90.8982 504.744C90.8982 505 90.9828 505.256 91.0673 505.512C91.1519 505.854 91.1519 506.11 91.2364 506.451C91.321 506.707 91.321 506.963 91.4056 507.22C91.4902 507.476 91.4901 507.817 91.5747 508.073C91.6593 508.415 91.7439 508.756 91.8284 509.098C91.913 509.354 91.913 509.61 91.9975 509.866C92.0821 510.207 92.1667 510.549 92.2513 510.89C92.3358 511.232 92.4204 511.488 92.5049 511.829C92.6741 512.512 92.8432 513.11 93.0123 513.793C93.0969 513.963 93.0969 514.22 93.1815 514.39C93.2661 514.817 93.4352 515.244 93.5197 515.585C93.6889 516.012 93.7734 516.439 93.9426 516.78C94.0271 517.037 94.1117 517.378 94.1963 517.634C94.3654 518.061 94.5345 518.488 94.6191 518.915C94.7037 519.171 94.7882 519.427 94.8728 519.683C95.1265 520.451 95.4648 521.134 95.7185 521.902C95.8031 522.073 95.8876 522.244 95.9722 522.415C96.2259 522.927 96.395 523.524 96.6487 524.037C96.7333 524.207 96.8178 524.463 96.9024 524.634C97.2407 525.488 97.6635 526.256 98.0018 527.11C98.0018 527.195 98.0018 527.195 98.0863 527.281C98.5092 528.134 98.932 528.988 99.3548 529.756C99.4394 530.012 99.6085 530.183 99.6931 530.439C99.8622 530.78 100.116 531.207 100.285 531.549C100.454 531.805 100.539 532.061 100.708 532.317C100.877 532.659 101.131 533.085 101.3 533.427C101.469 533.683 101.554 533.939 101.723 534.11C101.976 534.537 102.23 534.878 102.399 535.305C102.568 535.476 102.653 535.732 102.822 535.902C103.16 536.415 103.414 536.841 103.752 537.354C103.837 537.439 103.921 537.61 103.921 537.695C104.175 538.037 104.429 538.463 104.683 538.805C104.767 538.976 104.936 539.146 105.021 539.402C105.359 539.915 105.782 540.512 106.12 541.024C106.458 541.451 106.797 541.963 107.135 542.476C107.22 542.561 107.22 542.646 107.304 542.732C107.642 543.159 107.981 543.671 108.319 544.098C108.403 544.183 108.488 544.268 108.488 544.354C108.826 544.866 109.165 545.293 109.587 545.805C109.587 545.89 109.672 545.89 109.672 545.976C110.01 546.402 110.433 546.915 110.771 547.341C110.856 547.427 110.856 547.512 110.94 547.598C111.025 547.683 111.11 547.768 111.194 547.854C111.363 548.024 111.532 548.28 111.702 548.451C111.786 548.537 111.871 548.622 111.955 548.793C112.124 548.963 112.294 549.22 112.463 549.39C112.547 549.476 112.632 549.561 112.716 549.646C112.97 549.902 113.224 550.244 113.477 550.5L113.562 550.585C113.816 550.841 113.985 551.098 114.239 551.354C114.323 551.439 114.408 551.524 114.492 551.61C114.661 551.781 114.831 552.037 115 552.207C115.084 552.293 115.169 552.378 115.253 552.463C115.422 552.72 115.676 552.89 115.845 553.146C115.93 553.232 116.014 553.317 116.014 553.402C116.268 553.659 116.522 554 116.776 554.256C116.86 554.341 116.86 554.427 116.945 554.427C117.114 554.683 117.368 554.854 117.537 555.11C117.621 555.195 117.706 555.281 117.79 555.366C117.959 555.537 118.129 555.793 118.298 555.963C118.382 556.049 118.467 556.134 118.551 556.22C118.805 556.476 118.974 556.732 119.228 556.902L119.313 556.988C119.566 557.244 119.82 557.5 120.074 557.841C120.158 557.927 120.243 558.012 120.327 558.098C120.496 558.268 120.666 558.524 120.919 558.695C121.004 558.781 121.088 558.866 121.173 558.951C121.342 559.122 121.511 559.293 121.765 559.463C121.85 559.549 121.934 559.634 122.019 559.72C122.272 559.976 122.526 560.232 122.78 560.488C122.78 560.488 122.78 560.488 122.864 560.573C123.118 560.829 123.372 561 123.625 561.256C123.71 561.341 123.795 561.427 123.879 561.512C124.048 561.683 124.217 561.854 124.387 562.024C124.471 562.11 124.556 562.195 124.64 562.281C124.809 562.451 124.979 562.622 125.232 562.793C125.317 562.878 125.401 562.878 125.401 562.963C125.655 563.22 125.909 563.39 126.162 563.646C126.247 563.732 126.247 563.732 126.332 563.817C126.501 563.988 126.754 564.159 126.924 564.329C127.008 564.415 127.093 564.5 127.177 564.5C127.346 564.671 127.516 564.756 127.685 564.927C127.769 565.012 127.854 565.098 127.938 565.098C128.107 565.268 128.361 565.439 128.53 565.61C128.615 565.61 128.615 565.695 128.699 565.695C128.953 565.866 129.207 566.037 129.376 566.293C129.461 566.378 129.545 566.378 129.545 566.463C129.714 566.634 129.883 566.72 130.053 566.89C130.137 566.976 130.222 566.976 130.306 567.061C130.475 567.146 130.644 567.317 130.814 567.402C130.898 567.488 130.983 567.488 130.983 567.573C131.236 567.744 131.406 567.915 131.659 568L115.845 560.146C115.592 559.976 115.423 559.805 115.169 559.72C115.084 559.634 115 559.634 115 559.549C114.831 559.463 114.661 559.293 114.492 559.207C114.408 559.122 114.323 559.122 114.239 559.037C114.069 558.951 113.9 558.78 113.731 558.61C113.647 558.524 113.562 558.524 113.562 558.439C113.308 558.268 113.055 558.098 112.885 557.841C112.801 557.841 112.801 557.756 112.716 557.756C112.547 557.585 112.294 557.415 112.124 557.244C112.04 557.159 111.955 557.073 111.871 557.073C111.702 556.902 111.532 556.817 111.363 556.646C111.279 556.561 111.194 556.476 111.11 556.476C110.94 556.305 110.687 556.134 110.518 555.963C110.433 555.878 110.433 555.878 110.348 555.793C110.095 555.537 109.841 555.366 109.587 555.11C109.503 555.024 109.418 555.024 109.418 554.939C109.249 554.768 109.08 554.598 108.826 554.427C108.742 554.341 108.657 554.256 108.573 554.171C108.403 554 108.234 553.829 108.065 553.659C107.981 553.573 107.896 553.488 107.811 553.402C107.558 553.146 107.304 552.976 107.05 552.72C107.05 552.72 107.05 552.72 106.966 552.634C106.712 552.378 106.458 552.122 106.205 551.866C106.12 551.78 106.036 551.695 105.951 551.61C105.782 551.439 105.613 551.268 105.359 551.012C105.275 550.927 105.19 550.841 105.105 550.756C104.936 550.585 104.683 550.329 104.513 550.159C104.429 550.073 104.344 549.988 104.26 549.902C104.006 549.646 103.752 549.39 103.499 549.049L103.414 548.963C103.16 548.707 102.991 548.451 102.738 548.28C102.653 548.195 102.568 548.11 102.484 548.024C102.315 547.854 102.146 547.598 101.976 547.427C101.892 547.341 101.807 547.256 101.723 547.171C101.554 546.915 101.3 546.744 101.131 546.488C101.046 546.402 101.046 546.317 100.962 546.317C100.708 546.061 100.454 545.72 100.201 545.463C100.116 545.378 100.116 545.293 100.031 545.293C99.8622 545.037 99.6085 544.866 99.4394 544.61C99.3548 544.524 99.2703 544.439 99.1857 544.354C99.0166 544.183 98.8475 543.927 98.6783 543.756C98.5938 543.671 98.5092 543.585 98.4246 543.5C98.1709 543.244 98.0018 542.988 97.7481 542.732L97.6635 542.646C97.4098 542.39 97.1561 542.049 96.9024 541.793C96.8178 541.707 96.7333 541.622 96.6487 541.537C96.4796 541.366 96.3105 541.11 96.1413 540.939C96.0568 540.854 95.9722 540.768 95.8876 540.598C95.7185 540.427 95.5493 540.171 95.3802 540C95.2956 539.915 95.2111 539.829 95.1265 539.744L95.0419 539.659C95.0419 539.573 94.9574 539.573 94.9574 539.488C94.6191 539.061 94.1963 538.549 93.858 538.122C93.858 538.037 93.7734 538.037 93.7734 537.951C93.4352 537.439 93.0124 537.012 92.6741 536.5C92.5895 536.415 92.5049 536.329 92.5049 536.244C92.1667 535.817 91.8284 535.305 91.4902 534.878C91.4056 534.793 91.4056 534.707 91.321 534.622C90.9827 534.11 90.6445 533.683 90.3062 533.171C89.9679 532.659 89.5451 532.061 89.2068 531.549C89.1223 531.378 88.9531 531.207 88.8686 531.037C88.6149 530.695 88.3612 530.268 88.1075 529.927C88.0229 529.841 88.0229 529.756 87.9383 529.585C87.6001 529.073 87.3464 528.646 87.0081 528.134C86.839 527.963 86.7544 527.707 86.5853 527.537C86.3316 527.11 86.0779 526.768 85.9088 526.341C85.7396 526.085 85.6551 525.829 85.4859 525.573C85.2322 525.232 85.0631 524.805 84.8939 524.463C84.7248 524.207 84.6403 523.951 84.4711 523.695C84.302 523.354 84.0483 523.012 83.8792 522.585C83.7946 522.5 83.71 522.329 83.71 522.244C83.6255 522.159 83.6254 522.073 83.5409 521.988C83.118 521.134 82.6952 520.366 82.2724 519.512C82.2724 519.427 82.2724 519.427 82.1878 519.341C81.765 518.573 81.4267 517.72 81.0884 516.866C81.0039 516.78 81.0039 516.61 80.9193 516.524C80.8348 516.439 80.8348 516.354 80.7502 516.183C80.4965 515.671 80.2428 515.073 80.0737 514.561C79.9891 514.39 79.9045 514.22 79.82 514.049C79.5663 513.366 79.228 512.598 78.9743 511.829V511.744C78.8897 511.573 78.8052 511.317 78.7206 511.146C78.5515 510.72 78.3823 510.293 78.2978 509.866C78.2132 509.61 78.1286 509.268 78.044 509.012C77.8749 508.585 77.7904 508.244 77.6212 507.817C77.6212 507.732 77.5367 507.646 77.5367 507.561C77.4521 507.22 77.3675 506.878 77.283 506.622C77.1984 506.451 77.1984 506.195 77.1138 506.024C76.9447 505.427 76.7756 504.744 76.6064 504.061C76.6064 503.89 76.5219 503.805 76.5219 503.634C76.4373 503.463 76.4373 503.293 76.3527 503.122C76.2682 502.78 76.1836 502.439 76.099 502.098C76.0145 501.841 76.0145 501.585 75.9299 501.329C75.8453 500.988 75.7608 500.646 75.6762 500.305C75.6762 500.22 75.5916 500.049 75.5916 499.963C75.5916 499.793 75.507 499.622 75.507 499.451C75.4225 499.195 75.4225 498.939 75.3379 498.683C75.2534 498.341 75.2533 498.085 75.1688 497.744C75.0842 497.488 75.0842 497.232 74.9997 496.976C74.9997 496.89 74.9997 496.805 74.9151 496.72C74.8305 496.463 74.8305 496.122 74.746 495.866C74.746 495.695 74.6614 495.524 74.6614 495.439C74.5768 494.927 74.4923 494.415 74.4923 493.902C74.4923 493.817 74.4923 493.732 74.4923 493.732C74.4077 493.305 74.4077 492.793 74.3231 492.366C74.3231 492.195 74.3231 492.024 74.2385 491.854C74.2385 491.683 74.2386 491.512 74.154 491.256C74.154 491.085 74.154 490.829 74.154 490.659C74.154 490.488 74.154 490.402 74.154 490.232C73.9849 489.463 73.9849 488.951 73.9849 488.439Z" fill="#7A43EE"/>
<path d="M88.8353 482.966C93.4873 458.82 111.32 439.763 131.565 435.882C133.891 435.451 136.303 435.192 138.715 435.192C158.615 435.02 173.863 452.094 174.035 474.946C174.122 487.364 170.848 499.523 165.938 511.509C159.907 526.083 151.895 539.449 142.678 552.039C138.629 557.558 134.321 562.818 130.1 568.251C122.433 562.991 110.889 550.745 104.17 541.087C98.1393 532.291 92.9704 522.806 90.0414 511.595C87.8016 502.541 86.8539 493.141 88.8353 482.966ZM130.703 506.594C141.299 504.524 150 493.141 150.086 481.155C150.259 469.168 141.816 461.062 131.134 463.046C120.538 465.115 111.837 476.498 111.751 488.571C111.664 500.471 120.107 508.577 130.703 506.594Z" fill="url(#paint11_linear_1248_368)"/>
<path d="M373.789 517.613H373.734C373.679 517.613 373.624 517.613 373.514 517.555C373.404 517.555 373.294 517.497 373.129 517.497C373.075 517.497 373.02 517.497 372.965 517.439C372.855 517.439 372.8 517.381 372.69 517.381C372.635 517.381 372.58 517.381 372.525 517.323C372.47 517.323 372.415 517.265 372.36 517.265C372.25 517.265 372.195 517.207 372.086 517.207C372.031 517.207 371.976 517.207 371.921 517.149C371.866 517.149 371.811 517.092 371.756 517.092C371.646 517.034 371.591 517.034 371.481 516.976C371.426 516.976 371.426 516.976 371.371 516.918C371.316 516.918 371.207 516.86 371.152 516.802C371.042 516.744 370.987 516.744 370.877 516.686C370.822 516.686 370.822 516.686 370.767 516.628C370.712 516.57 370.602 516.57 370.547 516.512C370.437 516.454 370.382 516.396 370.273 516.396C370.273 516.396 370.218 516.396 370.218 516.338C370.163 516.28 370.053 516.28 369.998 516.222C369.888 516.164 369.833 516.106 369.723 516.048C369.723 516.048 369.668 516.048 369.668 515.99C369.613 515.932 369.558 515.932 369.503 515.874C369.394 515.816 369.284 515.758 369.174 515.642C369.119 515.642 369.119 515.584 369.064 515.584C369.009 515.526 368.954 515.526 368.899 515.468C368.789 515.41 368.679 515.294 368.569 515.236C368.515 515.236 368.515 515.178 368.46 515.178C368.405 515.178 368.405 515.12 368.35 515.062C368.24 514.946 368.075 514.83 367.965 514.772C367.91 514.714 367.855 514.715 367.855 514.657L367.8 514.599C367.581 514.425 366.198 513.207 365.978 512.975C365.813 512.859 365.703 512.685 365.538 512.569C365.484 512.511 365.484 512.511 365.429 512.453C365.319 512.337 365.209 512.222 365.099 512.164L365.044 512.106C364.879 511.932 364.659 511.7 364.495 511.468C364.495 511.41 364.44 511.41 364.44 511.352C364.275 511.178 364.165 511.004 364 510.83L363.945 510.772C363.89 510.714 363.89 510.714 363.89 510.656C363.725 510.424 363.561 510.25 363.451 510.018C363.396 509.96 363.396 509.903 363.341 509.845C363.176 509.613 363.011 509.323 362.846 509.033C362.791 508.975 362.791 508.917 362.737 508.859C362.627 508.627 362.462 508.395 362.352 508.163C362.297 508.105 362.297 508.047 362.242 507.989C362.077 507.699 361.967 507.41 361.803 507.12C361.803 507.12 361.803 507.062 361.748 507.062C361.748 507.004 361.693 506.946 361.693 506.888C361.638 506.714 361.528 506.54 361.473 506.366C361.418 506.25 361.418 506.192 361.363 506.076C361.308 505.902 361.253 505.728 361.143 505.554C361.143 505.496 361.088 505.438 361.088 505.38C361.088 505.322 361.088 505.322 361.033 505.264C361.033 505.206 360.978 505.09 360.978 505.033C360.924 504.917 360.869 504.743 360.869 504.627C360.869 504.569 360.814 504.453 360.814 504.395C360.814 504.337 360.759 504.279 360.759 504.221C360.759 504.163 360.759 504.105 360.704 504.047C360.649 503.815 360.594 503.583 360.539 503.351C360.539 503.293 360.484 503.235 360.484 503.177V503.119C360.429 502.887 360.374 502.656 360.374 502.424C360.374 502.366 360.374 502.366 360.374 502.308C360.319 502.018 360.264 501.786 360.264 501.496C360.264 501.38 360.264 501.322 360.209 501.206C360.209 501.032 360.154 500.916 360.154 500.742C360.154 500.742 360.154 500.742 360.154 500.684C360.154 500.568 360.154 500.452 360.154 500.336C360.154 500.221 360.154 500.105 360.154 499.989C360.154 499.989 360.154 499.989 360.154 499.931C360.154 499.699 360.154 499.467 360.154 499.235C360.154 499.235 360.154 499.235 360.154 499.177C360.154 498.945 360.154 498.713 360.154 498.481C360.154 498.423 360.154 498.365 360.154 498.307C360.154 498.249 360.154 498.133 360.154 498.075C360.154 497.959 360.154 497.901 360.154 497.786C360.154 497.67 360.154 497.496 360.209 497.38C360.209 497.322 360.209 497.264 360.209 497.206V497.148C360.209 496.916 360.264 496.684 360.319 496.51V496.452C360.319 496.394 360.319 496.336 360.374 496.278C360.374 496.162 360.429 495.988 360.429 495.872C360.429 495.814 360.484 495.698 360.484 495.64C360.484 495.582 360.539 495.466 360.539 495.409C360.539 495.351 360.539 495.293 360.594 495.235C360.649 495.119 360.649 494.945 360.704 494.829C360.704 494.771 360.759 494.713 360.759 494.655V494.597C360.814 494.365 360.924 494.133 360.978 493.901C360.978 493.843 361.033 493.785 361.088 493.669C361.143 493.495 361.198 493.379 361.253 493.205C361.253 493.205 361.253 493.147 361.308 493.147C361.363 493.032 361.418 492.916 361.473 492.8C361.528 492.684 361.583 492.568 361.638 492.51C361.638 492.51 361.638 492.452 361.693 492.452C361.803 492.22 361.967 491.988 362.077 491.756C362.077 491.756 362.077 491.698 362.132 491.698C362.132 491.698 362.132 491.698 362.132 491.64C362.242 491.466 362.352 491.234 362.517 491.06C362.572 491.002 361.851 490.191 361.906 490.133C361.961 490.075 362.016 490.017 362.071 489.959C362.125 489.901 362.18 489.785 362.29 489.727C362.345 489.669 362.345 489.669 362.4 489.611C362.565 489.437 362.675 489.263 362.84 489.089C362.895 489.031 362.895 489.031 362.95 488.973C363.059 488.857 363.224 488.741 363.334 488.567C363.389 488.509 363.444 488.509 363.444 488.451C363.609 488.278 363.774 488.162 363.938 488.046C363.938 488.046 363.993 487.988 364.048 487.988C364.213 487.872 364.378 487.756 364.543 487.64C364.598 487.582 364.653 487.582 364.708 487.524C364.872 487.408 365.092 487.292 365.312 487.176L376.307 482.596C376.087 482.712 375.922 482.828 375.702 482.944C375.647 483.002 375.592 483.002 375.537 483.06C375.373 483.176 375.208 483.292 375.043 483.408C375.043 483.408 374.988 483.465 374.933 483.465C374.768 483.581 374.603 483.755 374.439 483.871C374.384 483.929 374.329 483.929 374.329 483.987C374.219 484.103 374.054 484.219 373.944 484.393C373.889 484.451 373.889 484.451 373.834 484.509C373.67 484.683 373.505 484.857 373.395 485.031C373.34 485.089 373.34 485.089 373.285 485.147C373.175 485.263 373.065 485.437 372.955 485.611C372.9 485.669 372.845 485.727 372.845 485.785C372.736 485.958 372.571 486.132 372.461 486.364C372.461 486.364 372.461 486.364 372.461 486.422L372.406 486.48C372.296 486.712 372.131 486.944 372.021 487.176C371.966 487.292 371.911 487.408 371.857 487.524C371.802 487.64 371.747 487.756 371.692 487.872C371.637 488.046 371.527 488.22 371.472 488.393C371.417 488.451 371.417 488.509 371.362 488.625C371.252 488.857 371.197 489.147 371.087 489.379C371.087 489.437 371.032 489.495 371.032 489.553C370.977 489.727 370.923 489.959 370.868 490.133C370.868 490.191 370.813 490.307 370.813 490.365C370.758 490.597 370.703 490.77 370.703 491.002C370.703 491.06 370.703 491.118 370.648 491.176C370.593 491.466 370.593 491.698 370.538 491.988C370.538 492.046 370.538 492.104 370.538 492.162C370.538 492.394 370.483 492.626 370.483 492.858C370.483 492.916 370.483 493.032 370.483 493.089C370.483 493.379 370.483 493.669 370.483 493.959C370.483 494.191 370.483 494.423 370.483 494.713C370.483 494.829 370.483 494.945 370.483 495.061C370.483 495.177 370.483 495.351 370.538 495.466C370.538 495.64 370.593 495.756 370.593 495.93C370.593 496.046 370.593 496.104 370.648 496.22C370.703 496.51 370.703 496.742 370.758 497.032C370.758 497.09 370.758 497.148 370.813 497.206C370.868 497.438 370.923 497.67 370.977 497.901C370.977 497.959 371.032 498.075 371.032 498.133C371.087 498.365 371.142 498.597 371.197 498.829C371.252 498.945 371.252 499.061 371.307 499.119C371.307 499.177 371.362 499.293 371.362 499.351C371.417 499.467 371.472 499.641 371.472 499.757C371.472 499.815 371.527 499.931 371.527 499.989C371.582 500.105 371.582 500.163 371.637 500.279C371.692 500.452 371.747 500.626 371.857 500.8C371.911 500.916 371.911 500.974 371.966 501.09C372.021 501.264 372.131 501.438 372.186 501.612C372.241 501.67 372.241 501.786 372.296 501.844C372.406 502.134 372.571 502.424 372.736 502.713C372.79 502.771 372.79 502.829 372.845 502.887C372.955 503.119 373.12 503.351 373.23 503.583C373.285 503.641 373.285 503.699 373.34 503.757C373.505 504.047 373.67 504.279 373.834 504.569C373.889 504.627 373.889 504.685 373.944 504.743C374.109 504.975 374.274 505.206 374.384 505.38C374.439 505.438 374.494 505.496 374.549 505.554C374.713 505.728 374.823 505.902 374.988 506.076C374.988 506.134 375.043 506.134 375.043 506.192C375.208 506.424 375.373 506.598 375.592 506.83C375.702 506.946 375.812 507.062 375.922 507.178C375.977 507.236 375.977 507.236 376.032 507.294C376.197 507.468 376.362 507.583 376.471 507.757C376.691 507.931 376.911 508.163 377.131 508.337C377.186 508.395 377.241 508.453 377.35 508.511C377.46 508.627 377.625 508.743 377.735 508.801C377.79 508.859 377.9 508.917 377.955 508.975C378.065 509.033 378.175 509.149 378.284 509.207C378.339 509.265 378.449 509.323 378.504 509.381C378.614 509.439 378.724 509.497 378.834 509.613C378.944 509.671 378.999 509.729 379.109 509.787C379.218 509.845 379.273 509.902 379.383 509.96C379.493 510.018 379.603 510.076 379.658 510.134C379.768 510.192 379.823 510.25 379.933 510.25C380.042 510.308 380.152 510.366 380.262 510.424C380.372 510.482 380.427 510.482 380.537 510.54C380.647 510.598 380.757 510.656 380.867 510.656C380.976 510.714 381.031 510.714 381.141 510.772C381.251 510.83 381.361 510.83 381.471 510.888C381.581 510.946 381.636 510.946 381.746 510.946C381.856 511.004 381.965 511.004 382.075 511.062C382.185 511.062 382.24 511.12 382.35 511.12C382.515 511.178 382.68 511.178 382.844 511.236C382.954 511.236 383.009 511.294 383.119 511.294C383.284 511.294 383.449 511.352 383.614 511.352H383.669C383.833 511.352 384.053 511.41 384.218 511.41C384.273 511.41 384.328 511.41 384.328 511.41C384.493 511.41 384.712 511.41 384.877 511.41C384.877 511.41 384.877 511.41 384.932 511.41C385.152 511.41 385.372 511.41 385.536 511.41C385.591 511.41 385.591 511.41 385.646 511.41C385.866 511.41 386.086 511.352 386.306 511.352C386.361 511.352 386.415 511.352 386.415 511.352C386.47 511.352 386.58 511.352 386.635 511.294C386.69 511.294 386.745 511.294 386.8 511.236C386.855 511.236 386.965 511.178 387.02 511.178C387.075 511.178 387.13 511.178 387.185 511.12C387.349 511.062 387.514 511.062 387.624 511.004C387.679 511.004 387.679 511.004 387.734 510.946C387.844 510.888 387.954 510.888 388.119 510.83C388.174 510.83 388.228 510.772 388.228 510.772C388.338 510.714 388.393 510.714 388.503 510.656C388.558 510.656 388.613 510.598 388.613 510.598C388.723 510.54 388.888 510.482 388.998 510.424L379.887 516.802C379.777 516.86 379.612 516.918 379.502 516.976C379.448 516.976 379.393 517.034 379.393 517.034C379.283 517.091 379.228 517.092 379.118 517.149H379.063H379.008C378.898 517.207 378.788 517.265 378.623 517.265C378.568 517.265 378.568 517.265 378.514 517.323C378.349 517.381 378.184 517.439 378.074 517.439C378.074 517.439 378.074 517.439 378.019 517.439C377.964 517.439 377.964 517.439 377.909 517.439C377.854 517.439 377.744 517.497 377.689 517.497C377.635 517.497 377.58 517.497 377.525 517.555C377.47 517.555 377.36 517.613 377.305 517.613H377.25H377.195C376.975 517.671 376.755 517.671 376.536 517.671C376.536 517.671 376.536 517.671 376.481 517.671H376.426C376.206 517.671 376.041 517.671 375.822 517.671C375.657 517.671 375.437 517.671 375.272 517.671H375.217H375.162C374.997 517.671 374.778 517.671 374.613 517.613H374.558C374.118 517.671 373.954 517.613 373.789 517.613ZM409.985 504.047C409.985 503.989 409.985 503.931 409.985 503.873C409.985 503.525 409.985 503.235 409.985 502.887C409.985 502.771 409.985 502.713 409.985 502.598C409.985 502.482 409.985 502.424 409.985 502.308C409.985 502.076 409.985 501.786 409.985 501.554C409.985 501.554 409.985 501.554 409.985 501.496C409.985 501.206 409.985 500.916 409.93 500.626C409.93 500.568 409.93 500.452 409.93 500.394C409.93 500.278 409.93 500.221 409.93 500.105C409.93 499.757 409.875 499.409 409.875 499.061C409.875 499.003 409.875 499.003 409.875 498.945C409.82 498.597 409.82 498.249 409.765 497.844C409.765 497.728 409.765 497.67 409.71 497.554C409.71 497.438 409.71 497.322 409.655 497.206C409.655 497.032 409.6 496.8 409.545 496.626C409.545 496.568 409.545 496.452 409.49 496.394C409.435 496.046 409.38 495.756 409.325 495.409C409.325 495.351 409.325 495.235 409.27 495.177C409.16 494.713 409.106 494.249 408.996 493.843C408.996 493.727 408.941 493.669 408.941 493.553C408.941 493.495 408.886 493.379 408.886 493.321C408.831 492.974 408.721 492.684 408.666 492.394C408.666 492.336 408.611 492.278 408.611 492.22C408.501 491.814 408.391 491.408 408.281 491.002C408.281 490.944 408.281 490.944 408.227 490.886C408.172 490.712 408.117 490.481 408.062 490.307C408.007 490.017 407.897 489.785 407.787 489.495C407.732 489.321 407.677 489.089 407.567 488.915C407.512 488.741 407.457 488.567 407.402 488.335C407.347 488.22 407.347 488.162 407.293 488.104C407.238 487.988 407.238 487.872 407.183 487.756C407.073 487.408 406.908 487.06 406.798 486.712C406.743 486.654 406.743 486.596 406.688 486.48C406.523 486.074 406.359 485.669 406.194 485.263C406.139 485.147 406.084 485.089 406.084 484.973C406.029 484.799 405.974 484.683 405.864 484.509C405.809 484.393 405.754 484.219 405.644 484.103C405.589 483.929 405.48 483.813 405.425 483.639C405.315 483.35 405.15 483.118 405.04 482.828C404.985 482.712 404.93 482.538 404.82 482.422C404.601 482.074 404.436 481.668 404.216 481.32C404.216 481.262 404.161 481.262 404.161 481.204C403.941 480.799 403.721 480.451 403.502 480.045C403.447 479.929 403.337 479.813 403.282 479.697C403.117 479.465 402.952 479.175 402.787 478.943C402.678 478.827 402.623 478.654 402.513 478.538C402.348 478.306 402.183 478.074 402.018 477.842C401.908 477.726 401.854 477.552 401.744 477.436C401.579 477.204 401.414 476.972 401.249 476.74C401.139 476.624 401.084 476.508 400.974 476.392C400.92 476.334 400.92 476.276 400.865 476.276C400.645 475.987 400.425 475.755 400.205 475.465C400.15 475.407 400.15 475.349 400.095 475.291C399.876 475.001 399.656 474.769 399.436 474.479C399.381 474.421 399.271 474.305 399.216 474.247C398.942 473.957 398.667 473.61 398.392 473.32C398.337 473.262 398.282 473.204 398.173 473.088C397.953 472.856 397.678 472.566 397.458 472.334C397.348 472.218 397.239 472.102 397.074 471.986C396.854 471.812 396.689 471.58 396.469 471.407C396.414 471.349 396.36 471.349 396.36 471.291C396.085 471.059 395.865 470.827 395.59 470.595C395.481 470.479 395.371 470.421 395.261 470.305C395.151 470.189 394.986 470.073 394.876 469.957C394.766 469.899 394.711 469.783 394.601 469.725C394.492 469.667 394.437 469.609 394.327 469.493C394.052 469.261 393.722 469.029 393.448 468.798C393.448 468.798 393.448 468.798 393.393 468.798C393.063 468.566 392.788 468.334 392.459 468.16C392.404 468.102 392.294 468.044 392.239 467.986C392.184 467.928 392.074 467.87 392.019 467.812C391.8 467.638 391.525 467.522 391.305 467.348C391.25 467.348 391.25 467.29 391.195 467.29C391.03 467.174 390.811 467.058 390.646 466.942C390.536 466.884 390.371 466.826 390.261 466.71C390.206 466.652 390.151 466.652 390.096 466.595C389.822 466.421 389.547 466.305 389.327 466.189C389.272 466.131 389.217 466.131 389.108 466.073C389.053 466.015 388.998 466.015 388.943 465.957C388.613 465.783 388.338 465.667 388.009 465.493C388.009 465.493 387.954 465.493 387.899 465.435C387.844 465.435 387.789 465.377 387.789 465.377C387.459 465.203 387.075 465.087 386.745 464.913C386.361 464.739 386.031 464.623 385.646 464.507C385.591 464.507 385.536 464.449 385.536 464.449C385.482 464.449 385.482 464.449 385.427 464.391C385.097 464.275 384.767 464.16 384.493 464.102C384.438 464.102 384.383 464.044 384.328 464.044C384.273 464.044 384.218 463.986 384.163 463.986C383.888 463.928 383.559 463.812 383.284 463.754C383.229 463.754 383.174 463.696 383.119 463.696C383.009 463.696 382.954 463.638 382.844 463.638C382.57 463.58 382.295 463.522 382.02 463.464C381.856 463.406 381.691 463.406 381.526 463.348C381.361 463.29 381.196 463.29 380.976 463.232C380.922 463.232 380.922 463.232 380.867 463.232C380.592 463.174 380.372 463.174 380.097 463.116C380.043 463.116 379.933 463.116 379.878 463.116C379.823 463.116 379.713 463.116 379.658 463.116C379.328 463.058 378.999 463.058 378.669 463.058C378.284 463.058 377.9 463 377.515 463C377.405 463 377.296 463 377.186 463C377.131 463 377.076 463 377.076 463C376.911 463 376.801 463 376.636 463C376.526 463 376.471 463 376.362 463C376.197 463 376.032 463 375.922 463C375.867 463 375.812 463 375.757 463C375.757 463 375.757 463 375.702 463C375.483 463 375.208 463.058 374.988 463.058C374.933 463.058 374.878 463.058 374.823 463.058C374.658 463.058 374.439 463.116 374.274 463.116C374.219 463.116 374.219 463.116 374.164 463.116C374.109 463.116 374.109 463.116 374.054 463.116C373.779 463.174 373.505 463.232 373.23 463.29C372.955 463.348 372.681 463.406 372.461 463.464C372.406 463.464 372.406 463.464 372.351 463.464C372.296 463.464 372.241 463.464 372.241 463.522C372.131 463.522 372.076 463.58 371.966 463.58C371.856 463.58 371.747 463.638 371.692 463.638C371.582 463.638 371.527 463.696 371.417 463.754C371.307 463.812 371.197 463.812 371.142 463.87C371.032 463.928 370.977 463.928 370.868 463.986C370.758 464.044 370.703 464.044 370.593 464.102C370.483 464.16 370.428 464.16 370.318 464.217C370.263 464.217 370.208 464.275 370.153 464.275C370.153 464.275 370.098 464.275 370.098 464.333C369.824 464.449 369.549 464.565 369.274 464.681C369.219 464.681 369.164 464.739 369.164 464.739C368.89 464.855 368.615 465.029 368.285 465.145L358.012 470.479C358.286 470.305 358.561 470.189 358.891 470.073C358.946 470.073 359.001 470.015 359.001 470.015C359.275 469.899 359.55 469.783 359.825 469.667C359.88 469.609 359.99 469.609 360.044 469.609C360.154 469.551 360.209 469.551 360.319 469.493C360.429 469.435 360.484 469.435 360.594 469.377C360.704 469.319 360.759 469.319 360.869 469.261C360.978 469.203 361.033 469.203 361.143 469.145C361.253 469.087 361.308 469.087 361.418 469.087C361.528 469.087 361.638 469.029 361.693 469.029C361.803 469.029 361.857 468.972 361.967 468.972C362.022 468.972 362.132 468.914 362.187 468.914C362.462 468.856 362.737 468.798 362.956 468.74C363.231 468.682 363.506 468.624 363.78 468.566C363.835 468.566 363.945 468.566 364 468.508C364.165 468.508 364.385 468.45 364.55 468.45C364.604 468.45 364.659 468.45 364.714 468.45C364.934 468.45 365.209 468.392 365.429 468.392C365.484 468.392 365.593 468.392 365.648 468.392C365.813 468.392 365.978 468.392 366.088 468.392C366.198 468.392 366.253 468.392 366.363 468.392C366.527 468.392 366.637 468.392 366.802 468.392C366.967 468.392 367.132 468.392 367.242 468.392C367.626 468.392 368.011 468.392 368.395 468.45C368.725 468.45 369.055 468.508 369.384 468.508C369.439 468.508 369.549 468.508 369.604 468.508C369.934 468.566 370.263 468.566 370.593 468.624C370.648 468.624 370.648 468.624 370.703 468.624C371.032 468.682 371.417 468.74 371.747 468.798C372.131 468.856 372.516 468.972 372.845 469.029C372.9 469.029 372.955 469.087 373.01 469.087C373.34 469.203 373.724 469.261 374.054 469.377C374.109 469.377 374.164 469.435 374.219 469.435C374.549 469.551 374.933 469.667 375.263 469.783C375.318 469.783 375.373 469.841 375.373 469.841C375.757 469.957 376.087 470.131 376.471 470.247C376.801 470.421 377.186 470.537 377.515 470.711C377.57 470.711 377.625 470.769 377.625 470.769C377.955 470.943 378.284 471.059 378.614 471.233C378.669 471.291 378.724 471.291 378.779 471.349C379.109 471.522 379.438 471.696 379.768 471.87C379.823 471.928 379.878 471.928 379.933 471.986C380.262 472.16 380.537 472.334 380.867 472.566C380.922 472.566 380.922 472.624 380.976 472.624C381.306 472.798 381.636 473.03 381.91 473.262C381.965 473.32 382.075 473.378 382.13 473.436C382.46 473.668 382.789 473.899 383.064 474.131C383.064 474.131 383.064 474.131 383.119 474.131C383.449 474.363 383.723 474.595 383.998 474.827C384.108 474.885 384.163 474.943 384.273 475.059C384.493 475.233 384.712 475.407 384.932 475.639C385.042 475.755 385.152 475.813 385.262 475.929C385.536 476.161 385.811 476.392 386.031 476.624C386.086 476.682 386.141 476.682 386.141 476.74C386.361 476.914 386.58 477.146 386.745 477.32C386.855 477.436 386.965 477.552 387.075 477.668C387.349 477.9 387.569 478.19 387.844 478.422C387.899 478.48 387.954 478.538 388.064 478.653C388.338 478.943 388.613 479.233 388.888 479.581C388.943 479.639 389.053 479.755 389.108 479.813C389.327 480.103 389.547 480.335 389.767 480.625C389.822 480.683 389.822 480.741 389.877 480.799C390.151 481.088 390.371 481.436 390.646 481.726C390.756 481.842 390.811 481.958 390.921 482.074C391.085 482.306 391.25 482.538 391.415 482.77C391.525 482.886 391.58 483.06 391.69 483.176C391.855 483.408 392.019 483.639 392.184 483.871C392.294 483.987 392.349 484.161 392.459 484.277C392.624 484.509 392.788 484.799 392.953 485.031C393.008 485.147 393.118 485.263 393.173 485.379C393.393 485.785 393.613 486.132 393.832 486.538C393.832 486.596 393.887 486.596 393.887 486.654C394.107 487.002 394.272 487.408 394.492 487.756C394.547 487.872 394.601 488.046 394.711 488.162C394.876 488.451 394.986 488.683 395.096 488.973C395.151 489.147 395.261 489.263 395.316 489.437C395.426 489.727 395.59 490.017 395.7 490.307C395.755 490.423 395.81 490.481 395.81 490.597C395.975 491.002 396.14 491.408 396.305 491.814C396.36 491.872 396.36 491.93 396.414 492.046C396.524 492.394 396.689 492.742 396.799 493.089C396.854 493.205 396.854 493.321 396.909 493.437C397.019 493.727 397.074 493.959 397.184 494.249C397.239 494.423 397.294 494.655 397.403 494.829C397.513 495.119 397.568 495.351 397.678 495.64C397.733 495.814 397.788 496.046 397.843 496.22C397.953 496.684 398.063 497.09 398.228 497.554C398.228 497.612 398.282 497.67 398.282 497.728C398.392 498.133 398.502 498.539 398.557 498.945C398.557 499.061 398.612 499.119 398.612 499.235C398.722 499.699 398.777 500.105 398.887 500.568C398.942 500.974 399.052 501.38 399.107 501.786C399.107 501.844 399.107 501.96 399.161 502.018C399.216 502.308 399.271 502.656 399.271 502.945C399.271 503.061 399.271 503.119 399.326 503.235C399.381 503.583 399.436 503.989 399.436 504.337C399.436 504.395 399.436 504.395 399.436 504.453C399.491 504.801 399.491 505.148 399.491 505.496C399.491 505.612 399.491 505.67 399.491 505.786C399.491 506.134 399.546 506.54 399.546 506.888C399.546 506.888 399.546 506.888 399.546 506.946C399.546 507.294 399.546 507.641 399.546 507.989C399.546 508.105 399.546 508.163 399.546 508.279C399.546 508.627 399.546 508.917 399.546 509.265C399.546 509.323 399.546 509.323 399.546 509.381C399.546 509.729 399.546 510.076 399.491 510.482C399.491 510.598 399.491 510.656 399.491 510.772C399.491 511.062 399.436 511.294 399.436 511.584C399.436 511.7 399.436 511.816 399.381 511.932C399.326 512.222 399.326 512.569 399.271 512.859C399.271 512.917 399.271 512.975 399.271 512.975C399.216 513.323 399.161 513.729 399.161 514.077C399.161 514.193 399.107 514.309 399.107 514.367C399.052 514.599 399.052 514.888 398.997 515.12C398.997 515.294 398.942 515.468 398.887 515.642C398.832 515.874 398.832 516.048 398.777 516.28C398.722 516.454 398.722 516.628 398.667 516.802C398.612 516.976 398.612 517.207 398.557 517.381C398.502 517.613 398.447 517.845 398.392 518.077C398.337 518.251 398.337 518.425 398.282 518.599C398.228 518.831 398.173 519.063 398.118 519.295C398.063 519.526 398.008 519.7 397.953 519.932C397.843 520.396 397.733 520.802 397.623 521.266C397.568 521.382 397.568 521.556 397.513 521.672C397.458 521.961 397.348 522.251 397.294 522.483C397.184 522.773 397.129 523.063 397.019 523.295C396.964 523.469 396.909 523.701 396.854 523.875C396.744 524.165 396.634 524.454 396.579 524.744C396.524 524.918 396.469 525.092 396.414 525.266C396.25 525.788 396.03 526.252 395.865 526.773C395.81 526.889 395.755 527.005 395.7 527.121C395.535 527.469 395.426 527.875 395.261 528.223C395.206 528.339 395.151 528.513 395.096 528.629C394.876 529.208 394.601 529.73 394.382 530.31C394.382 530.368 394.382 530.368 394.327 530.426C394.052 531.006 393.777 531.585 393.503 532.107C393.448 532.281 393.338 532.397 393.283 532.571C393.173 532.803 393.008 533.093 392.898 533.325C392.788 533.499 392.734 533.673 392.624 533.847C392.514 534.078 392.349 534.368 392.239 534.6C392.129 534.774 392.074 534.948 391.964 535.064C391.8 535.354 391.635 535.586 391.525 535.876C391.415 535.992 391.36 536.166 391.25 536.282C391.03 536.629 390.866 536.919 390.646 537.267C390.591 537.325 390.536 537.441 390.536 537.499C390.371 537.731 390.206 538.021 390.042 538.253C389.987 538.369 389.877 538.485 389.822 538.659C389.602 539.006 389.327 539.412 389.108 539.76C388.888 540.05 388.668 540.398 388.448 540.746C388.393 540.804 388.393 540.862 388.338 540.92C388.119 541.209 387.899 541.557 387.679 541.847C387.624 541.905 387.569 541.963 387.569 542.021C387.349 542.369 387.13 542.659 386.855 543.007C386.855 543.065 386.8 543.065 386.8 543.123C386.58 543.413 386.306 543.76 386.086 544.05C386.031 544.108 386.031 544.166 385.976 544.224C385.921 544.282 385.866 544.34 385.811 544.398C385.701 544.514 385.591 544.688 385.482 544.804C385.427 544.862 385.372 544.92 385.317 545.036C385.207 545.152 385.097 545.326 384.987 545.442C384.932 545.5 384.877 545.558 384.822 545.616C384.657 545.79 384.493 546.021 384.328 546.195L384.273 546.253C384.108 546.427 383.998 546.601 383.833 546.775C383.778 546.833 383.723 546.891 383.669 546.949C383.559 547.065 383.449 547.239 383.339 547.355C383.284 547.413 383.229 547.471 383.174 547.529C383.064 547.703 382.899 547.819 382.789 547.993C382.735 548.051 382.68 548.109 382.68 548.167C382.515 548.341 382.35 548.572 382.185 548.746C382.13 548.804 382.13 548.862 382.075 548.862C381.965 549.036 381.801 549.152 381.691 549.326C381.636 549.384 381.581 549.442 381.526 549.5C381.416 549.616 381.306 549.79 381.196 549.906C381.141 549.964 381.086 550.022 381.031 550.08C380.867 550.254 380.757 550.428 380.592 550.544L380.537 550.602C380.372 550.775 380.207 550.949 380.042 551.181C379.988 551.239 379.933 551.297 379.878 551.355C379.768 551.471 379.658 551.645 379.493 551.761C379.438 551.819 379.383 551.877 379.328 551.935C379.218 552.051 379.109 552.167 378.944 552.283C378.889 552.341 378.834 552.399 378.779 552.457C378.614 552.631 378.449 552.805 378.284 552.979C378.284 552.979 378.284 552.979 378.229 553.037C378.065 553.21 377.9 553.326 377.735 553.5C377.68 553.558 377.625 553.616 377.57 553.674C377.46 553.79 377.35 553.906 377.241 554.022C377.186 554.08 377.131 554.138 377.076 554.196C376.966 554.312 376.856 554.428 376.691 554.544C376.636 554.602 376.581 554.602 376.581 554.66C376.416 554.834 376.252 554.95 376.087 555.124C376.032 555.182 376.032 555.182 375.977 555.24C375.867 555.356 375.702 555.472 375.592 555.588C375.537 555.645 375.483 555.703 375.428 555.703C375.318 555.819 375.208 555.877 375.098 555.993C375.043 556.051 374.988 556.109 374.933 556.109C374.823 556.225 374.658 556.341 374.549 556.457C374.494 556.457 374.494 556.515 374.439 556.515C374.274 556.631 374.109 556.747 373.999 556.921C373.944 556.979 373.889 556.979 373.889 557.037C373.779 557.153 373.67 557.211 373.56 557.327C373.505 557.385 373.45 557.385 373.395 557.443C373.285 557.501 373.175 557.617 373.065 557.675C373.01 557.733 372.955 557.733 372.955 557.791C372.79 557.907 372.681 558.022 372.516 558.08L382.789 552.747C382.954 552.631 383.064 552.515 383.229 552.457C383.284 552.399 383.339 552.399 383.339 552.341C383.449 552.283 383.559 552.167 383.669 552.109C383.723 552.051 383.778 552.051 383.833 551.993C383.943 551.935 384.053 551.819 384.163 551.703C384.218 551.645 384.273 551.645 384.273 551.587C384.438 551.471 384.602 551.355 384.712 551.181C384.767 551.181 384.767 551.123 384.822 551.123C384.932 551.007 385.097 550.891 385.207 550.775C385.262 550.718 385.317 550.66 385.372 550.66C385.482 550.544 385.591 550.486 385.701 550.37C385.756 550.312 385.811 550.254 385.866 550.254C385.976 550.138 386.141 550.022 386.251 549.906C386.306 549.848 386.306 549.848 386.361 549.79C386.525 549.616 386.69 549.5 386.855 549.326C386.91 549.268 386.965 549.268 386.965 549.21C387.075 549.094 387.185 548.978 387.349 548.862C387.404 548.804 387.459 548.746 387.514 548.688C387.624 548.572 387.734 548.456 387.844 548.341C387.899 548.283 387.954 548.225 388.009 548.167C388.174 547.993 388.338 547.877 388.503 547.703C388.503 547.703 388.503 547.703 388.558 547.645C388.723 547.471 388.888 547.297 389.053 547.123C389.108 547.065 389.162 547.007 389.217 546.949C389.327 546.833 389.437 546.717 389.602 546.543C389.657 546.485 389.712 546.427 389.767 546.369C389.877 546.253 390.042 546.079 390.151 545.964C390.206 545.906 390.261 545.848 390.316 545.79C390.481 545.616 390.646 545.442 390.811 545.21L390.866 545.152C391.03 544.978 391.14 544.804 391.305 544.688C391.36 544.63 391.415 544.572 391.47 544.514C391.58 544.398 391.69 544.224 391.8 544.108C391.855 544.05 391.909 543.992 391.964 543.934C392.074 543.76 392.239 543.644 392.349 543.471C392.404 543.413 392.404 543.355 392.459 543.355C392.624 543.181 392.788 542.949 392.953 542.775C393.008 542.717 393.008 542.659 393.063 542.659C393.173 542.485 393.338 542.369 393.448 542.195C393.503 542.137 393.558 542.079 393.613 542.021C393.722 541.905 393.832 541.731 393.942 541.615C393.997 541.557 394.052 541.499 394.107 541.441C394.272 541.267 394.382 541.094 394.547 540.92L394.601 540.862C394.766 540.688 394.931 540.456 395.096 540.282C395.151 540.224 395.206 540.166 395.261 540.108C395.371 539.992 395.481 539.818 395.59 539.702C395.645 539.644 395.7 539.586 395.755 539.47C395.865 539.354 395.975 539.18 396.085 539.064C396.14 539.006 396.195 538.948 396.25 538.89L396.305 538.832C396.305 538.774 396.36 538.774 396.36 538.717C396.579 538.427 396.854 538.079 397.074 537.789C397.074 537.731 397.129 537.731 397.129 537.673C397.348 537.325 397.623 537.035 397.843 536.687C397.898 536.629 397.953 536.571 397.953 536.513C398.173 536.224 398.392 535.876 398.612 535.586C398.667 535.528 398.667 535.47 398.722 535.412C398.942 535.064 399.161 534.774 399.381 534.426C399.601 534.078 399.876 533.673 400.095 533.325C400.15 533.209 400.26 533.093 400.315 532.977C400.48 532.745 400.645 532.455 400.81 532.223C400.865 532.165 400.865 532.107 400.92 531.991C401.139 531.643 401.304 531.354 401.524 531.006C401.634 530.89 401.689 530.716 401.799 530.6C401.963 530.31 402.128 530.078 402.238 529.788C402.348 529.614 402.403 529.44 402.513 529.266C402.678 529.035 402.787 528.745 402.897 528.513C403.007 528.339 403.062 528.165 403.172 527.991C403.282 527.759 403.447 527.527 403.557 527.237C403.612 527.179 403.667 527.063 403.667 527.005C403.721 526.947 403.721 526.889 403.776 526.831C404.051 526.252 404.326 525.73 404.601 525.15C404.601 525.092 404.6 525.092 404.655 525.034C404.93 524.512 405.15 523.933 405.37 523.353C405.425 523.295 405.425 523.179 405.48 523.121C405.534 523.063 405.534 523.005 405.589 522.889C405.754 522.541 405.919 522.135 406.029 521.788C406.084 521.672 406.139 521.556 406.194 521.44C406.359 520.976 406.578 520.454 406.743 519.932V519.874C406.798 519.758 406.853 519.584 406.908 519.469C407.018 519.179 407.128 518.889 407.183 518.599C407.238 518.425 407.293 518.193 407.347 518.019C407.457 517.729 407.512 517.497 407.622 517.207C407.622 517.149 407.677 517.092 407.677 517.034C407.732 516.802 407.787 516.57 407.842 516.396C407.897 516.28 407.897 516.106 407.952 515.99C408.062 515.584 408.172 515.12 408.281 514.657C408.281 514.541 408.336 514.483 408.336 514.367C408.391 514.251 408.391 514.135 408.446 514.019C408.501 513.787 408.556 513.555 408.611 513.323C408.666 513.149 408.666 512.975 408.721 512.801C408.776 512.569 408.831 512.337 408.886 512.106C408.886 512.048 408.941 511.932 408.941 511.874C408.941 511.758 408.996 511.642 408.996 511.526C409.051 511.352 409.051 511.178 409.106 511.004C409.16 510.772 409.16 510.598 409.215 510.366C409.27 510.192 409.27 510.018 409.325 509.845C409.325 509.787 409.325 509.729 409.38 509.671C409.435 509.497 409.435 509.265 409.49 509.091C409.49 508.975 409.545 508.859 409.545 508.801C409.6 508.453 409.655 508.105 409.655 507.757C409.655 507.699 409.655 507.641 409.655 507.641C409.71 507.352 409.71 507.004 409.765 506.714C409.765 506.598 409.765 506.482 409.82 506.366C409.82 506.25 409.82 506.134 409.875 505.96C409.875 505.844 409.875 505.67 409.875 505.554C409.875 505.438 409.875 505.38 409.875 505.264C409.985 504.743 409.985 504.395 409.985 504.047Z" fill="#CDD8F7"/>
<path d="M400.337 500.33C397.315 483.932 385.729 470.989 372.577 468.353C371.066 468.06 369.499 467.885 367.932 467.885C355.004 467.768 345.098 479.363 344.986 494.883C344.93 503.317 347.056 511.574 350.246 519.715C354.164 529.612 359.369 538.69 365.357 547.241C367.988 550.989 370.786 554.561 373.529 558.251C378.51 554.678 386.009 546.362 390.375 539.803C394.292 533.829 397.65 527.387 399.553 519.773C401.008 513.624 401.624 507.241 400.337 500.33ZM373.137 516.377C366.253 514.971 360.6 507.241 360.544 499.1C360.432 490.959 365.917 485.454 372.857 486.801C379.741 488.207 385.394 495.937 385.45 504.137C385.506 512.219 380.021 517.724 373.137 516.377Z" fill="url(#paint12_linear_1248_368)"/>
<defs>
<filter id="filter0_i_1248_368" x="28.3357" y="357.456" width="223.649" height="94.8152" filterUnits="userSpaceOnUse" color-interpolation-filters="sRGB">
<feFlood flood-opacity="0" result="BackgroundImageFix"/>
<feBlend mode="normal" in="SourceGraphic" in2="BackgroundImageFix" result="shape"/>
<feColorMatrix in="SourceAlpha" type="matrix" values="0 0 0 0 0 0 0 0 0 0 0 0 0 0 0 0 0 0 127 0" result="hardAlpha"/>
<feOffset dx="14" dy="-14"/>
<feGaussianBlur stdDeviation="16"/>
<feComposite in2="hardAlpha" operator="arithmetic" k2="-1" k3="1"/>
<feColorMatrix type="matrix" values="0 0 0 0 0.803922 0 0 0 0 0.847059 0 0 0 0 0.968627 0 0 0 1 0"/>
<feBlend mode="normal" in2="shape" result="effect1_innerShadow_1248_368"/>
</filter>
<filter id="filter1_i_1248_368" x="93.6157" y="346" width="116" height="116" filterUnits="userSpaceOnUse" color-interpolation-filters="sRGB">
<feFlood flood-opacity="0" result="BackgroundImageFix"/>
<feBlend mode="normal" in="SourceGraphic" in2="BackgroundImageFix" result="shape"/>
<feColorMatrix in="SourceAlpha" type="matrix" values="0 0 0 0 0 0 0 0 0 0 0 0 0 0 0 0 0 0 127 0" result="hardAlpha"/>
<feOffset dx="14" dy="-14"/>
<feGaussianBlur stdDeviation="16"/>
<feComposite in2="hardAlpha" operator="arithmetic" k2="-1" k3="1"/>
<feColorMatrix type="matrix" values="0 0 0 0 0.803922 0 0 0 0 0.847059 0 0 0 0 0.968627 0 0 0 1 0"/>
<feBlend mode="normal" in2="shape" result="effect1_innerShadow_1248_368"/>
</filter>
<filter id="filter2_i_1248_368" x="62.665" y="401.077" width="55.9015" height="55.9016" filterUnits="userSpaceOnUse" color-interpolation-filters="sRGB">
<feFlood flood-opacity="0" result="BackgroundImageFix"/>
<feBlend mode="normal" in="SourceGraphic" in2="BackgroundImageFix" result="shape"/>
<feColorMatrix in="SourceAlpha" type="matrix" values="0 0 0 0 0 0 0 0 0 0 0 0 0 0 0 0 0 0 127 0" result="hardAlpha"/>
<feOffset dx="-6" dy="-6"/>
<feGaussianBlur stdDeviation="8"/>
<feComposite in2="hardAlpha" operator="arithmetic" k2="-1" k3="1"/>
<feColorMatrix type="matrix" values="0 0 0 0 0.803922 0 0 0 0 0.847059 0 0 0 0 0.968627 0 0 0 1 0"/>
<feBlend mode="normal" in2="shape" result="effect1_innerShadow_1248_368"/>
</filter>
<filter id="filter3_i_1248_368" x="370.692" y="220.659" width="107.21" height="55.5947" filterUnits="userSpaceOnUse" color-interpolation-filters="sRGB">
<feFlood flood-opacity="0" result="BackgroundImageFix"/>
<feBlend mode="normal" in="SourceGraphic" in2="BackgroundImageFix" result="shape"/>
<feColorMatrix in="SourceAlpha" type="matrix" values="0 0 0 0 0 0 0 0 0 0 0 0 0 0 0 0 0 0 127 0" result="hardAlpha"/>
<feOffset dx="6" dy="-6"/>
<feGaussianBlur stdDeviation="13"/>
<feComposite in2="hardAlpha" operator="arithmetic" k2="-1" k3="1"/>
<feColorMatrix type="matrix" values="0 0 0 0 0.803922 0 0 0 0 0.847059 0 0 0 0 0.968627 0 0 0 1 0"/>
<feBlend mode="normal" in2="shape" result="effect1_innerShadow_1248_368"/>
</filter>
<filter id="filter4_i_1248_368" x="393.775" y="199" width="77.735" height="77.7351" filterUnits="userSpaceOnUse" color-interpolation-filters="sRGB">
<feFlood flood-opacity="0" result="BackgroundImageFix"/>
<feBlend mode="normal" in="SourceGraphic" in2="BackgroundImageFix" result="shape"/>
<feColorMatrix in="SourceAlpha" type="matrix" values="0 0 0 0 0 0 0 0 0 0 0 0 0 0 0 0 0 0 127 0" result="hardAlpha"/>
<feOffset dx="14" dy="-14"/>
<feGaussianBlur stdDeviation="16"/>
<feComposite in2="hardAlpha" operator="arithmetic" k2="-1" k3="1"/>
<feColorMatrix type="matrix" values="0 0 0 0 0.803922 0 0 0 0 0.847059 0 0 0 0 0.968627 0 0 0 1 0"/>
<feBlend mode="normal" in2="shape" result="effect1_innerShadow_1248_368"/>
</filter>
<filter id="filter5_i_1248_368" x="121.934" y="-10.4651" width="230.781" height="192.306" filterUnits="userSpaceOnUse" color-interpolation-filters="sRGB">
<feFlood flood-opacity="0" result="BackgroundImageFix"/>
<feBlend mode="normal" in="SourceGraphic" in2="BackgroundImageFix" result="shape"/>
<feColorMatrix in="SourceAlpha" type="matrix" values="0 0 0 0 0 0 0 0 0 0 0 0 0 0 0 0 0 0 127 0" result="hardAlpha"/>
<feOffset dx="-4" dy="-12"/>
<feGaussianBlur stdDeviation="9"/>
<feComposite in2="hardAlpha" operator="arithmetic" k2="-1" k3="1"/>
<feColorMatrix type="matrix" values="0 0 0 0 0.803922 0 0 0 0 0.847059 0 0 0 0 0.968627 0 0 0 1 0"/>
<feBlend mode="normal" in2="shape" result="effect1_innerShadow_1248_368"/>
</filter>
<linearGradient id="paint0_linear_1248_368" x1="111.877" y1="536.564" x2="96.0275" y2="635.666" gradientUnits="userSpaceOnUse">
<stop stop-color="white"/>
<stop offset="1" stop-color="#E8F0FF"/>
</linearGradient>
<linearGradient id="paint1_linear_1248_368" x1="290.166" y1="511.116" x2="260.044" y2="606.504" gradientUnits="userSpaceOnUse">
<stop stop-color="white"/>
<stop offset="1" stop-color="#CDD8F7"/>
</linearGradient>
<linearGradient id="paint2_linear_1248_368" x1="296.975" y1="261.597" x2="288.825" y2="400.162" gradientUnits="userSpaceOnUse">
<stop stop-color="#E8F0FF"/>
<stop offset="0.344222" stop-color="#F8BA55"/>
<stop offset="1" stop-color="#FB7354"/>
</linearGradient>
<linearGradient id="paint3_linear_1248_368" x1="289.911" y1="303.982" x2="364.356" y2="432.765" gradientUnits="userSpaceOnUse">
<stop stop-color="#F8BA55"/>
<stop offset="1" stop-color="#FB7354"/>
</linearGradient>
<radialGradient id="paint4_radial_1248_368" cx="0" cy="0" r="1" gradientUnits="userSpaceOnUse" gradientTransform="translate(241.985 27) rotate(81.1193) scale(97.1648 131.121)">
<stop stop-color="#B565E6"/>
<stop offset="1" stop-color="#7A43EE"/>
</radialGradient>
<radialGradient id="paint5_radial_1248_368" cx="0" cy="0" r="1" gradientUnits="userSpaceOnUse" gradientTransform="translate(241.985 27) rotate(81.1193) scale(97.1648 131.121)">
<stop stop-color="#B565E6"/>
<stop offset="1" stop-color="#7A43EE"/>
</radialGradient>
<radialGradient id="paint6_radial_1248_368" cx="0" cy="0" r="1" gradientUnits="userSpaceOnUse" gradientTransform="translate(238.985 49) rotate(82.346) scale(127.637 155.552)">
<stop stop-color="white"/>
<stop offset="1" stop-color="#CDD8F7"/>
</radialGradient>
<radialGradient id="paint7_radial_1248_368" cx="0" cy="0" r="1" gradientUnits="userSpaceOnUse" gradientTransform="translate(238.985 49) rotate(82.346) scale(127.637 155.552)">
<stop stop-color="white"/>
<stop offset="1" stop-color="#CDD8F7"/>
</radialGradient>
<radialGradient id="paint8_radial_1248_368" cx="0" cy="0" r="1" gradientUnits="userSpaceOnUse" gradientTransform="translate(238.985 49) rotate(82.346) scale(127.637 155.552)">
<stop stop-color="white"/>
<stop offset="1" stop-color="#CDD8F7"/>
</radialGradient>
<radialGradient id="paint9_radial_1248_368" cx="0" cy="0" r="1" gradientUnits="userSpaceOnUse" gradientTransform="translate(238.985 49) rotate(82.346) scale(127.637 155.552)">
<stop stop-color="white"/>
<stop offset="1" stop-color="#CDD8F7"/>
</radialGradient>
<linearGradient id="paint10_linear_1248_368" x1="238.604" y1="35.9969" x2="238.989" y2="14.9726" gradientUnits="userSpaceOnUse">
<stop stop-color="#CDD8F7"/>
<stop offset="1" stop-color="white"/>
</linearGradient>
<linearGradient id="paint11_linear_1248_368" x1="117.985" y1="584" x2="199.573" y2="505.555" gradientUnits="userSpaceOnUse">
<stop stop-color="#7A43EE"/>
<stop offset="1" stop-color="#B565E6"/>
</linearGradient>
<linearGradient id="paint12_linear_1248_368" x1="379.358" y1="571.857" x2="341.834" y2="501.107" gradientUnits="userSpaceOnUse">
<stop stop-color="#CDD8F7"/>
<stop offset="1" stop-color="white"/>
</linearGradient>
</defs>
</svg>
