<svg width="118" height="37" viewBox="0 0 118 37" fill="none" xmlns="http://www.w3.org/2000/svg">
<path d="M87.3957 34.7417L97.1679 23.7164L87.3957 12.6912H97.7079L102.545 18.0435L107.199 12.6912H117.153L107.427 23.6706L117.283 34.7417H106.932L102.141 29.3436L97.3885 34.7417H87.3957ZM87.3957 7.74357H76.3307V12.6912H87.3957V20.1355H76.3307V26.9767H87.3957V34.7417H69V0.00146484H87.3957V7.74357Z" fill="#31225C"/>
<path d="M68.2011 0.00146484V34.7417H60.102V32.4893H60.0108C58.5354 34.6958 56.1095 36.0015 53.4706 36.0015C47.3412 36.0015 42.8847 31.0386 42.1851 25.2816H26.1542C26.1542 27.8471 28.2835 30.0078 30.7551 30.0078C32.8844 30.0078 33.6905 29.5574 34.7552 28.0303H42.6262C40.5653 33.1154 36.664 35.9022 30.7551 35.9022C23.7206 35.9022 18.2071 30.8172 18.2071 23.5713C18.2071 22.3574 18.3516 21.2121 18.6254 20.1355H9.4692V34.7417H0.282593V0.00146484H20.7167V7.74356H9.4692V12.6912H19.7737V17.2418C21.827 13.5769 25.7663 11.3321 30.7551 11.3321C36.8921 11.3321 41.0292 14.5771 42.6414 19.8683C44.0483 15.0657 48.056 11.4314 53.3794 11.4314C55.9802 11.4314 58.216 12.1491 60.0108 14.2182H60.102V0.00146484H68.2011ZM35.1354 20.2424C34.7096 17.99 33.0973 16.5928 30.7551 16.5928C28.6257 16.5928 26.9222 18.0358 26.4127 20.2424C26.4127 20.2424 35.318 20.2424 35.1354 20.2424ZM59.8663 23.7393C59.8663 20.6242 58.5354 17.6235 55.1893 17.6235C51.9573 17.6235 50.3451 20.6242 50.3451 23.7393C50.3451 26.656 52.2006 29.4505 55.1893 29.4505C58.4518 29.4505 59.8663 26.7018 59.8663 23.7393Z" fill="#31225C"/>
</svg>
