<svg width="151" height="34" viewBox="0 0 151 34" fill="none" xmlns="http://www.w3.org/2000/svg">
<path d="M131.64 27.95H130.94V23.75H131.64C132.69 23.75 133.69 24.5 133.69 25.85C133.69 27.2 132.64 27.95 131.64 27.95ZM8.98965 23.7H8.48965V25.6H8.98965C9.58965 25.6 10.1396 25.4 10.1396 24.65C10.1896 24 9.63965 23.7 8.98965 23.7ZM17.3396 23.6C16.0896 23.6 15.6396 24.75 15.6396 25.85C15.6396 26.95 16.1396 28.1 17.3396 28.1C18.6396 28.1 19.1396 26.95 19.1396 25.85C19.1396 24.75 18.6396 23.6 17.3396 23.6ZM140.89 24L139.99 26.6H141.79L140.89 24ZM106.04 24L105.09 26.6H106.94L106.04 24ZM123.44 24L122.54 26.6H124.39L123.44 24ZM97.2896 6.6H96.7896V8.5H97.2896C97.8896 8.5 98.4397 8.3 98.4397 7.55C98.4397 6.9 97.8896 6.6 97.2896 6.6ZM150.39 0V16.5H89.6897C89.3896 8.9 83.0896 2.85 75.3896 2.85C67.6897 2.85 61.4396 8.9 61.1896 16.5H0.389648V0H150.39ZM8.38965 8.7C8.38965 7.45 9.18965 6.45 10.4896 6.45C10.8896 6.45 11.3896 6.5 11.8396 6.8L11.8896 5.8C11.3896 5.6 10.8396 5.55 10.4396 5.55C8.33965 5.55 7.03965 6.7 7.03965 8.9C7.03965 11 8.48965 11.95 10.4396 11.95C10.9396 11.95 11.3896 11.9 11.8896 11.8V10.7C11.6396 10.85 10.9896 10.95 10.5396 10.95C9.23965 10.95 8.38965 10 8.38965 8.7ZM20.7896 11.85L18.3396 5.6H16.8896L14.4896 11.85H15.7896L16.3396 10.4H18.8896L19.4396 11.85H20.7896ZM28.9396 5.6H27.6896V10.3L25.2896 5.6H23.7896V11.85H24.9396V7.2L27.3396 11.85H28.8896V5.6H28.9396ZM38.2396 11.85L35.7896 5.6H34.3396L31.8896 11.85H33.1896L33.7396 10.4H36.2896L36.8396 11.85H38.2396ZM46.5896 8.7C46.5896 6.25 44.8896 5.55 42.9396 5.55H41.2396V11.8H42.9396C44.8896 11.85 46.5896 11.15 46.5896 8.7ZM55.5896 11.85L53.1396 5.6H51.7896L49.3396 11.85H50.6396L51.1896 10.4H53.7396L54.2896 11.85H55.5896ZM99.7396 7.5C99.7396 6 98.4896 5.6 97.1396 5.6H95.5896V11.85H96.8396V9.45H97.3896C98.7396 9.45 99.7396 8.9 99.7396 7.5ZM108.69 8.7C108.69 6.8 107.59 5.5 105.59 5.5C103.59 5.5 102.59 6.8 102.59 8.7C102.59 10.6 103.64 11.9 105.59 11.9C107.64 11.9 108.69 10.65 108.69 8.7ZM115.99 10.1C115.99 8 113.24 8.45 113.24 7.35C113.24 6.65 113.79 6.45 114.19 6.45C114.59 6.45 115.09 6.6 115.49 6.7L115.54 5.7C115.14 5.55 114.59 5.5 114.04 5.5C112.94 5.5 111.94 6 111.94 7.4C111.94 9.45 114.69 8.95 114.69 10.15C114.69 10.7 113.99 10.95 113.54 10.95C113.04 10.95 112.59 10.8 112.19 10.55L112.04 11.7C112.64 11.85 112.94 11.9 113.59 11.9C114.89 11.9 115.99 11.45 115.99 10.1ZM123.49 5.6H118.69V6.6H120.49V11.85H121.74V6.6H123.54V5.6H123.49ZM130.29 5.6H126.59V11.85H130.29V10.85H127.84V9.15H130.09V8.15H127.84V6.65H130.29V5.6ZM137.59 10.1C137.59 8 134.84 8.45 134.84 7.35C134.84 6.65 135.39 6.45 135.89 6.45C136.29 6.45 136.79 6.6 137.14 6.7L137.29 5.7C136.79 5.55 136.34 5.5 135.79 5.5C134.69 5.5 133.59 6 133.59 7.4C133.59 9.45 136.34 8.95 136.34 10.15C136.34 10.7 135.74 10.95 135.24 10.95C134.74 10.95 134.29 10.8 133.79 10.55L133.74 11.7C134.34 11.85 134.64 11.9 135.29 11.9C136.59 11.9 137.59 11.45 137.59 10.1ZM52.3896 6.9L51.4896 9.5H53.3396L52.4396 6.9H52.3896ZM105.64 6.45C104.39 6.45 103.94 7.6 103.94 8.7C103.94 9.8 104.44 10.95 105.64 10.95C106.94 10.95 107.44 9.8 107.44 8.7C107.39 7.65 106.89 6.45 105.64 6.45ZM89.6897 17.4H150.39V34H0.389648V17.4H61.1896C61.3896 25.05 67.6897 31.2 75.3896 31.2C83.1396 31.2 89.4897 25.05 89.6897 17.4ZM11.4896 24.6C11.4896 23.1 10.2396 22.7 8.88965 22.7H7.33965V28.95H8.58965V26.55H9.13965C10.4396 26.55 11.4896 26.05 11.4896 24.6ZM20.4396 25.8C20.4396 23.9 19.3396 22.6 17.3396 22.6C15.3396 22.6 14.3396 23.9 14.3396 25.8C14.3396 27.7 15.3896 29 17.3396 29C19.3396 29 20.4396 27.75 20.4396 25.8ZM27.6896 27.2C27.6896 25.1 24.9396 25.55 24.9396 24.5C24.9396 23.8 25.4896 23.6 25.8896 23.6C26.3896 23.6 26.7896 23.75 27.1896 23.85L27.2396 22.85C26.8396 22.7 26.2896 22.65 25.7896 22.65C24.6896 22.65 23.5896 23.15 23.5896 24.55C23.5896 26.6 26.3396 26.1 26.3396 27.3C26.3396 27.85 25.6396 28.1 25.1896 28.1C24.6896 28.1 24.2396 27.95 23.8396 27.7L23.6896 28.85C24.2896 29 24.6396 29.05 25.3396 29.05C26.5896 29 27.6896 28.55 27.6896 27.2ZM35.2396 22.7H30.4396V23.7H32.2396V28.95H33.4896V23.7H35.2896V22.7H35.2396ZM137.74 28.95H139.04L139.59 27.5H142.14L142.69 28.95H144.14L141.69 22.7H140.24L137.74 28.95ZM129.64 28.95H131.34C133.34 28.95 134.99 28.25 134.99 25.8C134.99 23.35 133.34 22.65 131.34 22.65H129.64V28.95ZM120.34 28.95H121.64L122.19 27.5H124.74L125.29 28.95H126.64L124.19 22.7H122.74L120.34 28.95ZM112.19 28.95H113.44V24.3L115.84 28.95H117.34V22.7H116.19V27.4H116.14L113.79 22.7H112.24V28.95H112.19ZM102.89 28.95H104.19L104.74 27.5H107.29L107.84 28.95H109.19L106.74 22.7H105.39L102.89 28.95ZM95.4896 25.95C95.4896 28.05 96.9396 29 98.9896 29C99.4896 29 99.9396 28.95 100.34 28.85V27.75C99.9896 27.9 99.4396 28 98.9896 28C97.6396 28 96.8896 27.05 96.8896 25.75C96.8896 24.5 97.6396 23.5 98.9397 23.5C99.4397 23.5 99.8397 23.55 100.29 23.85L100.34 22.85C99.9396 22.65 99.3896 22.6 98.9896 22.6C96.8896 22.6 95.4896 23.8 95.4896 25.95ZM43.2396 6.6H42.4896V10.8H43.2396C44.2896 10.8 45.2896 10.05 45.2896 8.7C45.2896 7.35 44.2396 6.6 43.2396 6.6ZM17.5396 6.9L16.6396 9.5H18.4896L17.5896 6.9H17.5396ZM34.1396 9.45H35.8896L34.9896 6.85L34.1396 9.45Z" fill="#31225C"/>
<path d="M71.0895 18.9501L72.0895 17.9001L83.7896 17.3501L84.2896 16.9001H72.8395L66.5396 9.6001L87.4396 16.5501L80.5396 23.5001H66.5396L67.9396 22.1001L79.6395 21.5501L80.0895 21.0501H69.0396L70.0396 20.0501L81.6896 19.5001L82.2395 18.9501H71.0895Z" fill="#31225C"/>
</svg>
