<svg width="50" height="59" viewBox="0 0 50 59" fill="none" xmlns="http://www.w3.org/2000/svg">
<path d="M1.66235 17.5983L1.87447 41.9497L7.28193 48.7078L23.5043 57.3972L43.4372 47.5292L47.5719 37.5522L47.1477 5.26415L32.0936 4.83496L16.4031 7.41008L2.0866 15.7759L1.66235 17.5983Z" fill="#E8F0FF"/>
<path d="M24.888 0.00146484C34.3421 0.00146484 42.5822 1.85357 49.3896 5.50166V34.6831C49.3896 40.8237 47.1085 45.9608 42.7976 49.5329C38.8554 52.8047 26.3272 58.3643 24.888 58.9982C23.3705 58.3313 10.9859 52.8575 6.98172 49.5329C2.67077 45.9575 0.389648 40.8237 0.389648 34.6831V5.50166C7.19711 1.85357 15.4372 0.00146484 24.888 0.00146484ZM38.8782 5.65353C26.6666 5.49176 13.4922 7.92492 2.63813 17.9943V34.6864C2.63813 40.1238 4.62555 44.6633 8.4013 47.7766C11.7332 50.5267 21.9934 55.2246 24.8848 56.5155C27.7402 55.2411 37.9743 50.6026 41.3649 47.7766C45.1635 44.6105 47.1314 40.1767 47.1314 34.6864V6.11573C44.4619 5.86482 41.6945 5.68984 38.8782 5.65353ZM25.5276 18.955C30.612 18.955 33.412 22.8606 33.412 29.1499C33.412 35.449 30.6936 39.764 25.9649 39.764C25.0903 39.764 24.4736 39.6451 24.0461 39.5197V48.5986H19.7808V20.4869C21.3244 19.48 23.2008 18.955 25.5276 18.955ZM40.0955 18.955C42.4353 18.8824 44.0213 19.7738 44.7719 20.3581V24.1086C43.881 23.1875 42.4419 22.3522 40.9538 22.339C39.7463 22.3291 38.4899 22.8672 38.4475 24.3991C38.405 25.9673 39.6614 26.5879 41.2507 27.5322C44.8144 29.6484 45.4997 31.5533 45.4181 34.0657C45.3365 36.8257 43.4568 39.8366 39.2437 39.8366C37.5598 39.8366 35.8955 39.3051 34.5607 38.4995V34.5279C35.6507 35.5084 37.2759 36.2711 38.6367 36.2843C40.1999 36.2909 41.2279 35.383 41.192 33.8775C41.1593 32.5239 40.4055 31.791 38.529 30.6751C35.0144 28.5886 34.3878 26.8719 34.378 24.5774C34.3584 21.0911 37.2922 19.0343 40.0955 18.955ZM4.81809 19.3908H9.07683V33.138C9.07683 34.3595 9.36727 36.172 11.322 36.172C12.1869 36.172 12.8754 35.9673 13.3388 35.6438V19.3908H17.5943V38.1001C15.9659 39.2192 13.7827 39.83 11.1719 39.83C6.95562 39.83 4.81809 37.5157 4.81809 32.9465V19.3908ZM25.5537 22.4281C24.9761 22.4281 24.3887 22.5668 24.0428 22.7385V35.9871C24.3463 36.1027 24.8489 36.248 25.4265 36.248C27.8806 36.248 29.0521 33.97 29.0521 29.2555C29.0521 24.4255 28.0274 22.4281 25.5537 22.4281Z" fill="#31225C"/>
</svg>
