<svg width="146" height="21" viewBox="0 0 146 21" fill="none" xmlns="http://www.w3.org/2000/svg">
<path d="M46.8574 7.53735C46.1962 8.35663 45.1219 9.83133 44.5434 10.7325C44.2129 11.1422 43.6344 11.9614 45.6178 11.9614C47.6838 11.9614 55.9479 11.9614 55.9479 11.9614C55.9479 11.9614 57.6007 9.7494 59.0056 7.86506C60.9063 5.3253 59.1709 0 52.3943 0C46.2789 0 25.6187 0 25.6187 0L20.9908 6.22651C20.9908 6.22651 45.0393 6.22651 46.2789 6.22651C47.4359 6.22651 47.4359 6.71807 46.8574 7.53735ZM39.2544 13.5181C37.271 13.5181 37.8495 12.6988 38.1801 12.2892C38.8412 11.388 39.9155 9.99518 40.5767 9.09398C41.2378 8.2747 41.2378 7.78313 39.9155 7.78313C38.6759 7.78313 28.3458 7.78313 28.3458 7.78313L19.0074 20.4C19.0074 20.4 35.6182 20.4 41.7336 20.4C49.254 20.4 53.386 15.3205 54.7082 13.6C54.7082 13.5181 41.3204 13.5181 39.2544 13.5181ZM54.0471 20.4H67.3523L72.3934 13.6H59.0882C59.0882 13.5181 54.0471 20.4 54.0471 20.4ZM88.4257 0L83.302 6.88193H77.3518L82.4756 0H69.1704L60.2452 12.0434H92.8883L101.731 0H88.4257ZM73.3024 20.4H86.6076L91.6487 13.6H78.3435C78.3435 13.5181 73.3024 20.4 73.3024 20.4ZM0 16.2217V17.6964H18.5942L19.6685 16.2217H0ZM21.6519 13.5181H0V14.9928H20.5776L21.6519 13.5181ZM0 20.4H16.6108L17.6851 18.9253H0V20.4ZM125.697 17.6964H145.283V16.2217H126.771L125.697 17.6964ZM123.713 20.4H145.283V18.9253H124.788L123.713 20.4ZM128.754 13.5181L127.68 14.9928H145.283V13.5181H128.754ZM111.317 12.0434L120.16 0H106.028L97.103 12.0434H111.317ZM96.0287 13.5181C96.0287 13.5181 95.037 14.8289 94.5411 15.4843C92.8883 17.6964 94.3759 20.3181 99.8302 20.3181C106.111 20.3181 121.234 20.3181 121.234 20.3181L126.275 13.5181H96.0287V13.5181Z" fill="#31225C"/>
</svg>
