<svg width="72" height="72" viewBox="0 0 72 72" fill="none" xmlns="http://www.w3.org/2000/svg">
<path d="M72 56.481C72 59.4589 72 62.4179 72 65.3957C71.569 66.2816 70.988 66.9789 69.9011 66.9789C67.2775 66.9789 64.6538 66.9978 62.0302 66.9789C60.7933 66.9601 59.95 66.0742 59.9125 64.8115C59.8938 64.4722 59.9125 64.1141 59.9125 63.7184C59.594 63.7184 59.3316 63.7184 59.088 63.7184C55.8084 63.7184 52.5289 63.7184 49.2493 63.7184C47.3941 63.7184 46.6445 62.9645 46.6445 61.1175C46.6445 56.3868 46.6445 51.6562 46.6445 46.9067C46.6445 46.624 46.6445 46.3601 46.6445 46.0963C43.7397 46.0963 40.9474 46.0963 38.1739 46.0963C38.1739 49.0364 38.1739 51.92 38.1739 54.879C38.7361 54.879 39.2421 54.8602 39.748 54.879C41.0973 54.9167 41.9219 55.7649 41.9219 57.1219C41.9407 59.6662 41.9407 62.2106 41.9219 64.7549C41.9219 66.1119 41.0786 66.9789 39.7293 66.9789C37.1806 66.9978 34.632 66.9978 32.0645 66.9789C30.734 66.9601 29.8719 66.1119 29.8532 64.7549C29.8345 62.2106 29.8345 59.6662 29.8532 57.1219C29.8719 55.7272 30.7153 54.8979 32.1208 54.879C32.7017 54.8602 33.2827 54.879 33.8261 54.879C33.8261 51.8635 33.8261 48.961 33.8261 46.0774C31.0338 46.0774 28.2978 46.0774 25.5242 46.0774C25.5242 46.4167 25.5242 46.6805 25.5242 46.9632C25.5242 51.675 25.5242 56.3868 25.5242 61.0986C25.5242 62.9079 24.7371 63.6995 22.9755 63.6995C19.6023 63.6995 16.229 63.6995 12.8558 63.6995C12.6122 63.6995 12.3686 63.6995 12.0687 63.6995C12.0687 63.9634 12.0687 64.133 12.0687 64.2838C12.05 66.2816 11.3378 66.9789 9.33264 66.9789C7.14003 66.9789 4.92868 66.9224 2.73607 66.9978C1.443 67.0355 0.524727 66.602 0 65.3957C0 62.4179 0 59.4589 0 56.481C0.487246 55.2371 1.40552 54.8036 2.71733 54.8413C4.96616 54.8979 7.21499 54.8602 9.46382 54.8602C11.3378 54.8602 12.0875 55.6141 12.0875 57.5365C12.0875 58.1584 12.0875 58.7804 12.0875 59.4024C15.2171 59.4024 18.253 59.4024 21.2889 59.4024C21.2889 54.9356 21.2889 50.5254 21.2889 46.0209C21.0078 46.0209 20.7454 46.0209 20.5018 46.0209C17.8969 46.0209 15.3108 46.0397 12.7059 46.0209C7.25247 45.9832 2.41749 42.4399 0.712129 37.2193C0.393545 36.2769 0.243623 35.278 0.0187402 34.298C0.0187402 33.4875 0.0187402 32.6959 0.0187402 31.8855C0.0562207 31.8101 0.112441 31.7159 0.131182 31.6405C0.955752 26.1937 3.99167 22.5939 9.18272 20.8222C9.4076 20.7469 9.63248 20.5018 9.72618 20.2757C11.7501 15.7901 15.7605 13.3022 20.6892 13.5095C21.2139 13.5284 21.5138 13.4153 21.8136 12.9253C28.2041 2.38973 43.7397 2.35203 50.2051 12.8499C50.5237 13.3588 50.8235 13.5284 51.4232 13.4907C56.3144 13.3022 60.3061 15.7901 62.3113 20.2191C62.4237 20.483 62.7611 20.728 63.0609 20.8222C67.3337 22.33 70.1822 25.2136 71.494 29.5862C71.7189 30.3212 71.8313 31.0939 72 31.8478C72 32.6959 72 33.5441 72 34.3922C71.9625 34.543 71.9063 34.6937 71.8688 34.8634C70.8568 41.4222 65.6096 45.9643 59.013 45.9832C56.558 45.9832 54.1031 45.9832 51.6294 45.9832C51.3857 45.9832 51.1234 45.9832 50.8797 45.9832C50.8797 50.5065 50.8797 54.9167 50.8797 59.3647C53.8969 59.3647 56.8766 59.3647 59.9125 59.3647C59.9125 58.6296 59.9125 57.9511 59.9125 57.2726C59.9125 55.6518 60.7371 54.8225 62.33 54.8225C64.6163 54.8225 66.9214 54.8602 69.2077 54.8037C70.5383 54.8037 71.4753 55.2183 72 56.481ZM50.861 41.7426C51.1046 41.7614 51.2546 41.7803 51.4232 41.7803C54.0656 41.7803 56.708 41.7991 59.3691 41.7803C63.7168 41.7426 67.3524 38.3124 67.7834 33.921C68.1957 29.6804 65.1973 25.5529 60.9995 24.7424C59.7064 24.4974 59.013 23.8566 58.6382 22.5939C57.6262 19.1825 54.1593 17.1659 50.7111 17.8821C48.6497 18.3156 48.1999 18.0894 47.2629 16.2047C44.8829 11.361 39.5044 8.5339 34.2009 9.38202C29.8157 10.0982 26.6486 12.4918 24.6622 16.4685C23.9688 17.8632 23.1817 18.2967 21.8136 17.9575C17.9344 17.034 14.4675 19.0129 13.3243 22.8577C13.0057 23.9132 12.3686 24.4597 11.3191 24.6671C6.93389 25.534 3.86049 29.5485 4.29151 33.8645C4.74128 38.4255 8.39563 41.7614 12.9308 41.7803C15.292 41.7803 17.6533 41.7803 20.0333 41.7803C20.4456 41.7803 20.8579 41.7803 21.3451 41.7803C21.3451 41.4599 21.3451 41.196 21.3451 40.951C21.3451 39.3678 21.3264 37.7847 21.3639 36.2204C21.4014 35.1272 22.2634 34.3168 23.3129 34.2603C24.4185 34.2037 25.3181 34.9199 25.5055 36.0319C25.5617 36.4088 25.5617 36.7858 25.5617 37.1627C25.5617 38.6893 25.5617 40.216 25.5617 41.7426C28.3915 41.7426 31.1275 41.7426 33.9198 41.7426C33.9198 39.9144 33.9011 38.1616 33.9198 36.39C33.9386 35.1649 34.8381 34.2791 36 34.2603C37.1994 34.2414 38.0989 35.1649 38.1176 36.4088C38.1364 37.8224 38.1176 39.2359 38.1176 40.6494C38.1176 41.0075 38.1176 41.3845 38.1176 41.7426C41.0036 41.7426 43.7772 41.7426 46.6257 41.7426C46.6257 41.4599 46.6257 41.196 46.6257 40.951C46.6257 39.4244 46.607 37.8789 46.6445 36.3523C46.6632 35.1461 47.544 34.2791 48.6684 34.2414C49.849 34.2037 50.7673 35.0518 50.8235 36.2769C50.8797 37.2004 50.8423 38.1051 50.8423 39.0286C50.861 39.9333 50.861 40.8191 50.861 41.7426ZM4.29151 59.1385C4.29151 60.3259 4.29151 61.4944 4.29151 62.6629C5.50963 62.6629 6.67153 62.6629 7.85216 62.6629C7.85216 61.4567 7.85216 60.307 7.85216 59.1385C6.65278 59.1385 5.49089 59.1385 4.29151 59.1385ZM37.6866 59.1008C36.5809 59.1008 35.569 59.082 34.5383 59.1197C34.3883 59.1197 34.1072 59.3081 34.1072 59.4212C34.0698 60.5143 34.0885 61.6075 34.0885 62.6818C35.3628 62.6818 36.506 62.6818 37.6866 62.6818C37.6866 61.4755 37.6866 60.3447 37.6866 59.1008ZM64.1666 59.1385C64.1666 60.3447 64.1666 61.4944 64.1666 62.6629C65.3847 62.6629 66.5466 62.6629 67.7272 62.6629C67.7272 61.4567 67.7272 60.3259 67.7272 59.1385C66.5466 59.1385 65.3847 59.1385 64.1666 59.1385Z" fill="#7A43EE"/>
</svg>
