<svg width="72" height="72" viewBox="0 0 72 72" fill="none" xmlns="http://www.w3.org/2000/svg">
<path d="M56.9941 72C39.1788 72 21.3636 72 3.54834 72C2.55964 71.4938 2 70.7812 2 69.5813C2.01865 50.5688 2.01865 31.5375 2.01865 12.5062C2.01865 10.9687 2.83946 10.125 4.3878 10.125C7.44718 10.125 10.4879 10.125 13.5473 10.125C13.7898 10.125 14.0323 10.125 14.3308 10.125C14.3308 9.46875 14.3308 8.90625 14.3308 8.34375C14.3308 6.35625 15.0396 5.625 16.9984 5.625C18.7706 5.625 20.5428 5.625 22.315 5.625C22.6508 5.625 23.0052 5.625 23.341 5.625C23.7327 3.54375 24.7401 1.96875 26.5123 0.95625C27.2398 0.54375 28.098 0.31875 28.8814 0C29.5344 0 30.1873 0 30.8402 0C31.0081 0.05625 31.176 0.13125 31.3625 0.16875C33.6944 0.7875 35.28 2.25 36.1008 4.51875C36.2314 4.85625 36.306 5.23125 36.3993 5.625C38.2275 5.625 40.0183 5.68125 41.8092 5.60625C44.8312 5.475 45.5588 6.2625 45.3909 9.1875C45.3722 9.4875 45.3909 9.76875 45.3909 10.125C45.7267 10.125 45.9878 10.125 46.2303 10.125C49.1964 10.125 52.1439 10.125 55.11 10.125C56.9381 10.125 57.6843 10.8938 57.6843 12.7313C57.6843 22.5938 57.6843 32.4562 57.6843 42.3375C57.6843 42.6188 57.6843 42.8812 57.6843 43.1625C57.9268 43.2188 58.1134 43.275 58.2999 43.3125C64.8851 44.5687 69.8472 50.4 69.9964 57.0562C70.1457 64.05 65.5753 70.05 58.8969 71.625C58.2626 71.7562 57.6284 71.8688 56.9941 72ZM6.23462 67.7437C19.2743 67.7437 32.2766 67.7437 45.3722 67.7437C42.2569 64.4437 40.9324 60.5812 41.2122 56.1187C40.8764 56.1187 40.6153 56.1187 40.3728 56.1187C38.0409 56.1187 35.7091 56.1562 33.3772 56.0813C32.7989 56.0625 32.146 55.7812 31.6983 55.4062C31.0454 54.8625 30.9335 54.0187 31.2693 53.2125C31.6237 52.35 32.3139 51.9 33.2467 51.9C36.0449 51.8812 38.8431 51.8812 41.6413 51.9C42.1076 51.9 42.3688 51.8063 42.5927 51.3188C43.8798 48.5438 45.8572 46.3313 48.5622 44.925C50.0919 44.1188 51.7708 43.6125 53.4684 42.9375C53.4684 33.5625 53.4684 23.9812 53.4684 14.3812C50.7634 14.3812 48.0958 14.3812 45.3909 14.3812C45.3909 15.1312 45.3909 15.825 45.3909 16.5187C45.3722 17.9625 44.5328 18.825 43.0777 18.825C34.2727 18.825 25.449 18.825 16.644 18.825C15.1889 18.825 14.3494 17.9625 14.3308 16.5C14.3308 15.7875 14.3308 15.075 14.3308 14.3625C11.5699 14.3625 8.9209 14.3625 6.25328 14.3625C6.23462 32.175 6.23462 49.9312 6.23462 67.7437ZM55.595 47.25C49.9613 47.25 45.3722 51.8625 45.3909 57.525C45.3909 63.15 49.9613 67.7625 55.5764 67.7812C61.2101 67.8 65.8178 63.1875 65.8178 57.525C65.8178 51.8625 61.2287 47.25 55.595 47.25ZM41.1562 9.84375C40.8578 9.84375 40.5966 9.84375 40.3541 9.84375C38.3767 9.84375 36.3993 9.8625 34.4032 9.84375C33.1347 9.825 32.258 8.94375 32.2393 7.66875C32.2206 7.275 32.258 6.8625 32.2206 6.46875C32.146 5.175 31.0827 4.2 29.8142 4.21875C28.583 4.2375 27.557 5.2125 27.4823 6.46875C27.4637 6.825 27.4823 7.1625 27.4823 7.51875C27.4637 8.9625 26.6242 9.825 25.1692 9.825C23.2104 9.825 21.2517 9.825 19.2929 9.825C19.0504 9.825 18.8079 9.825 18.584 9.825C18.584 11.475 18.584 13.0312 18.584 14.5687C26.1392 14.5687 33.6384 14.5687 41.1562 14.5687C41.1562 13.0125 41.1562 11.475 41.1562 9.84375ZM17.4648 40.35C16.047 40.35 14.6292 40.35 13.2115 40.35C11.8497 40.3312 10.9729 39.4688 10.9729 38.1188C10.9543 35.1938 10.9543 32.2687 10.9729 29.3438C10.9729 28.0312 11.8683 27.15 13.1742 27.15C16.0843 27.1313 18.9944 27.1313 21.9046 27.15C23.2104 27.15 24.1058 28.0312 24.1058 29.3438C24.1245 32.2687 24.1245 35.1938 24.1058 38.1188C24.1058 39.4688 23.2291 40.35 21.8673 40.35C20.4122 40.3687 18.9385 40.35 17.4648 40.35ZM19.8899 31.4062C18.2856 31.4062 16.7372 31.4062 15.2262 31.4062C15.2262 33.0187 15.2262 34.5563 15.2262 36.0938C16.8118 36.0938 18.3415 36.0938 19.8899 36.0938C19.8899 34.5375 19.8899 33 19.8899 31.4062ZM24.1245 54.075C24.1245 55.5 24.1245 56.925 24.1245 58.35C24.1058 59.7188 23.2477 60.6 21.9046 60.6C19.0131 60.6188 16.1216 60.6 13.2488 60.6C11.8497 60.6 10.9916 59.7188 10.9916 58.3125C10.9916 55.425 10.9916 52.5562 10.9916 49.6687C10.9916 48.2625 11.8497 47.3812 13.2488 47.3812C16.1403 47.3812 19.0318 47.3812 21.9046 47.3812C23.2477 47.3812 24.1245 48.2625 24.1245 49.6313C24.1245 51.1313 24.1245 52.5938 24.1245 54.075ZM19.8712 56.3625C19.8712 54.75 19.8712 53.1938 19.8712 51.675C18.2856 51.675 16.7372 51.675 15.2075 51.675C15.2075 53.2688 15.2075 54.8063 15.2075 56.3625C16.7745 56.3625 18.2856 56.3625 19.8712 56.3625ZM46.2303 35.85C47.6481 35.85 48.5995 35.0062 48.5995 33.75C48.5995 32.4938 47.6481 31.6312 46.249 31.6312C41.9957 31.6312 37.7238 31.6312 33.4705 31.6312C32.0714 31.6312 31.12 32.5125 31.12 33.7688C31.1387 34.9875 32.0901 35.85 33.4519 35.85C35.5971 35.85 37.7424 35.85 39.8691 35.85C41.9771 35.85 44.1037 35.8687 46.2303 35.85ZM53.6549 56.9438C52.7595 56.175 51.5283 56.2125 50.7448 57.0188C49.9613 57.825 49.924 59.0625 50.7261 59.9438C51.4723 60.75 52.2372 61.5375 53.0393 62.2688C53.9347 63.0938 55.1286 63.075 55.9868 62.1938C57.5164 60.6188 59.0088 59.0063 60.4825 57.3938C60.9862 56.85 61.1728 56.175 60.9676 55.4438C60.5199 53.7938 58.5984 53.325 57.3672 54.5813C56.3785 55.5938 55.4271 56.6437 54.4198 57.7125C54.1586 57.4312 53.9161 57.1688 53.6549 56.9438Z" fill="#FB7354"/>
</svg>
