<svg width="72" height="72" viewBox="0 0 72 72" fill="none" xmlns="http://www.w3.org/2000/svg">
<g clip-path="url(#clip0_1248_275)">
<path d="M0 52.7437C0 40.0875 0 27.4313 0 14.775C0.01875 14.7375 0.05625 14.7 0.075 14.6625C1.05 10.8375 3.35625 9.0375 7.33125 9.0375C7.875 9.0375 8.4375 9.0375 9.01875 9.0375C9.01875 6.84375 9.05625 4.7625 9 2.7C8.98125 1.36875 9.45 0.46875 10.6875 0C23.0625 0 35.4375 0 47.8125 0C49.0312 0.50625 49.4625 1.425 49.4062 2.7375C49.3312 4.425 49.3875 6.1125 49.3875 7.8C49.3875 8.19375 49.3875 8.5875 49.3875 9.0375C49.7625 9.0375 50.025 9.0375 50.3062 9.0375C55.2562 9.0375 60.1875 9.01875 65.1375 9.0375C68.2125 9.0375 70.7063 10.8 71.6438 13.575C71.775 13.9688 71.8875 14.3813 72 14.775C72 27.4313 72 40.0875 72 52.7437C71.9812 52.7812 71.925 52.8187 71.925 52.8562C70.9688 56.6625 68.6438 58.4625 64.7063 58.4625C59.1562 58.4625 53.6063 58.4625 48.0375 58.4625C47.7563 58.4625 47.4938 58.4625 47.175 58.4625C47.175 61.6125 47.175 64.6687 47.175 67.7812C47.4375 67.7812 47.6813 67.7812 47.9062 67.7812C49.2 67.7812 50.4938 67.7625 51.7688 67.7812C52.8188 67.8 53.6625 68.4563 53.8687 69.4125C54.0937 70.425 53.6063 71.3625 52.6125 71.8313C52.5188 71.8875 52.4062 71.9437 52.3125 72C41.4375 72 30.5625 72 19.6875 72C19.6313 71.9625 19.575 71.9062 19.5187 71.8875C18.4125 71.3812 17.9062 70.5 18.1312 69.4312C18.3375 68.4375 19.2 67.8 20.3625 67.7812C21.3 67.7812 22.2375 67.7812 23.175 67.7812C23.7188 67.7812 24.2812 67.7812 24.825 67.7812C24.825 64.6125 24.825 61.575 24.825 58.4625C24.5062 58.4625 24.2438 58.4625 23.9625 58.4625C18.3 58.4625 12.6187 58.4625 6.95625 58.4625C4.0125 58.4625 1.8375 57.15 0.5625 54.4688C0.31875 53.9062 0.1875 53.3062 0 52.7437ZM22.6125 31.35C22.2375 31.35 21.9937 31.35 21.7313 31.35C18.3563 31.35 14.9813 31.35 11.6063 31.35C9.825 31.35 9.0375 30.5438 9.0375 28.7812C9.0375 23.9062 9.0375 19.0312 9.0375 14.1562C9.0375 13.875 9.0375 13.6125 9.0375 13.2562C8.2875 13.2562 7.6125 13.2562 6.9375 13.2562C5.2125 13.275 4.2375 14.2312 4.2375 15.9562C4.2375 27.8062 4.2375 39.675 4.2375 51.525C4.2375 53.25 5.19375 54.225 6.9375 54.225C26.325 54.225 45.6938 54.225 65.0813 54.225C66.8625 54.225 67.8 53.25 67.8 51.4688C67.8 39.6562 67.8 27.8438 67.8 16.0312C67.8 14.175 66.8625 13.2375 64.9875 13.2375C60.075 13.2375 55.1437 13.2375 50.2312 13.2375C49.9875 13.2375 49.7437 13.2563 49.4812 13.275C49.4812 14.9063 49.4812 16.4625 49.4812 18.075C49.8187 18.075 50.1 18.075 50.3625 18.075C53.7188 18.075 57.0563 18.075 60.4125 18.075C62.2125 18.075 63 18.8625 63 20.625C63 29.3625 63 38.1 63 46.8562C63 48.6 62.2125 49.3875 60.4688 49.3875C48.675 49.3875 36.9 49.3875 25.1062 49.3875C23.4 49.3875 22.6312 48.6188 22.6312 46.8938C22.6312 42.0188 22.6312 37.1438 22.6312 32.2688C22.6125 31.9875 22.6125 31.7062 22.6125 31.35ZM45.1312 27.075C45.1312 19.4437 45.1312 11.85 45.1312 4.25625C34.5 4.25625 23.9062 4.25625 13.275 4.25625C13.275 11.8875 13.275 19.4625 13.275 27.075C23.9062 27.075 34.4813 27.075 45.1312 27.075ZM26.8688 45.1312C37.5187 45.1312 48.1125 45.1312 58.7063 45.1312C58.7063 37.5187 58.7063 29.9437 58.7063 22.35C55.5938 22.35 52.5375 22.35 49.3875 22.35C49.3875 22.65 49.3875 22.8937 49.3875 23.1562C49.3875 25.0125 49.3875 26.85 49.3875 28.7063C49.3875 30.6 48.6375 31.35 46.7625 31.35C40.4062 31.35 34.0688 31.35 27.7125 31.35C27.4313 31.35 27.1687 31.35 26.85 31.35C26.8687 35.9813 26.8688 40.5187 26.8688 45.1312ZM29.1188 67.725C33.7313 67.725 38.3063 67.725 42.8625 67.725C42.8625 64.6125 42.8625 61.5562 42.8625 58.4812C38.25 58.4812 33.7125 58.4812 29.1188 58.4812C29.1188 61.5938 29.1188 64.65 29.1188 67.725Z" fill="#7A43EE"/>
</g>
<defs>
<clipPath id="clip0_1248_275">
<rect width="72" height="72" fill="white"/>
</clipPath>
</defs>
</svg>
