<svg width="72" height="72" viewBox="0 0 72 72" fill="none" xmlns="http://www.w3.org/2000/svg">
<g clip-path="url(#clip0_1248_279)">
<path d="M14.34 71.9813C13.1216 71.4189 12.7654 70.4629 12.7654 69.1507C12.8029 61.1091 12.7842 53.0862 12.7842 45.0445C12.7842 43.2075 13.5527 42.4577 15.3897 42.4577C18.6139 42.4577 21.8568 42.4577 25.081 42.4577C26.918 42.4577 27.6678 43.2262 27.6678 45.0633C27.6678 45.2882 27.6678 45.5319 27.6678 45.9443C29.2424 45.307 30.7607 44.7821 32.1854 44.0698C33.1039 43.6199 33.5538 42.7014 33.8537 41.7266C34.8284 38.6712 35.8219 35.6345 36.7967 32.579C37.8839 29.1861 40.8456 27.9677 44.0323 29.5798C47.3689 31.2856 49.0747 35.1096 48.0625 38.7274C47.6313 40.2833 47.1065 41.8016 46.6004 43.4324C47.2002 43.4324 47.7251 43.4324 48.2499 43.4324C50.1619 43.4324 52.0927 43.4887 54.0047 43.4137C58.9159 43.2262 62.4212 47.5751 61.5402 52.1302C60.7342 56.3291 60.0968 60.5655 59.2908 64.7831C58.4848 68.9071 55.0732 71.7376 50.8742 71.7938C46.0942 71.85 41.3142 71.85 36.5342 71.7938C34.2473 71.7751 32.2416 70.894 30.592 69.3007C29.786 68.5322 28.8675 68.026 27.649 67.9136C27.6116 69.4694 28.0052 71.194 26.0932 72C22.213 71.9813 18.2765 71.9813 14.34 71.9813ZM27.724 63.6584C30.1234 63.8084 32.0916 64.7831 33.76 66.414C34.6222 67.2575 35.7094 67.5949 36.9091 67.5949C41.5204 67.5949 46.1317 67.6136 50.7618 67.5949C53.0862 67.5949 54.867 66.0765 55.2794 63.7709C56.0104 59.6657 56.704 55.5605 57.435 51.4553C57.8099 49.2997 56.479 47.6688 54.2671 47.6501C50.893 47.6501 47.5189 47.6501 44.1448 47.6501C42.1953 47.6501 41.2768 46.3942 41.8578 44.5571C42.5889 42.2702 43.3575 39.9833 44.051 37.6777C44.5759 35.9156 43.6761 34.0224 42.0453 33.2913C41.3517 32.9727 41.1643 33.0664 40.9206 33.7974C39.9271 36.8716 38.9336 39.9458 37.9401 43.0013C37.0404 45.7943 35.2221 47.6876 32.4291 48.6623C30.8545 49.2059 29.2986 49.787 27.724 50.3494C27.724 54.7732 27.724 59.1783 27.724 63.6584ZM17.0581 46.7128C17.0581 53.761 17.0581 60.7529 17.0581 67.7074C19.2325 67.7074 21.3319 67.7074 23.4314 67.7074C23.4314 60.678 23.4314 53.7048 23.4314 46.7128C21.3132 46.7128 19.2137 46.7128 17.0581 46.7128ZM36.553 0C37.3028 0.356157 37.7902 0.937256 38.2026 1.64957C38.8774 2.83051 39.5897 3.99271 40.3395 5.11742C40.5269 5.41734 40.9018 5.67977 41.2205 5.7735C42.7389 6.18589 44.2572 6.5233 45.7756 6.8982C47.5564 7.34809 48.1187 9.09138 46.9378 10.4785C45.9255 11.6782 44.8946 12.8592 43.9011 14.0776C43.6949 14.34 43.5637 14.7524 43.5824 15.0711C43.6574 16.6082 43.7886 18.1453 43.9198 19.7011C44.0698 21.5944 42.6077 22.6816 40.8269 21.9693C39.3835 21.3882 37.9401 20.7508 36.478 20.1885C36.1968 20.076 35.7844 20.076 35.5033 20.1885C34.0411 20.7508 32.5978 21.3694 31.1544 21.9693C29.3736 22.6816 27.9115 21.5944 28.0614 19.7011C28.1927 18.164 28.3239 16.6269 28.3989 15.0711C28.4176 14.7337 28.2864 14.34 28.0802 14.0776C27.1054 12.8779 26.0932 11.7157 25.081 10.5348C23.8438 9.07264 24.4249 7.32934 26.2807 6.87946C27.7803 6.5233 29.2799 6.18589 30.7795 5.7735C31.1169 5.67977 31.4731 5.39859 31.6605 5.11742C32.4103 3.99271 33.1226 2.83051 33.7974 1.64957C34.1911 0.937256 34.6785 0.337412 35.4283 0C35.8032 0 36.1781 0 36.553 0ZM30.4046 10.2348C30.9107 10.8534 31.3231 11.397 31.8105 11.9032C32.5978 12.7092 32.8789 13.609 32.6915 14.7149C32.579 15.371 32.579 16.0458 32.5228 16.8144C33.3101 16.4957 33.9849 16.2708 34.641 15.9521C35.5595 15.5022 36.4218 15.5022 37.3403 15.9521C37.9964 16.2708 38.6899 16.5145 39.4585 16.8331C39.4022 16.0271 39.4022 15.371 39.2898 14.7337C39.1023 13.6277 39.3835 12.7092 40.1708 11.9219C40.6582 11.4345 41.0706 10.8722 41.5954 10.2536C40.7331 10.0474 39.9833 9.85993 39.2335 9.69123C38.3525 9.50378 37.6964 9.07264 37.2653 8.2666C36.8904 7.57303 36.4593 6.93569 35.9906 6.18589C35.5407 6.91695 35.1284 7.51679 34.7909 8.15413C34.3223 9.05389 33.61 9.56001 32.6165 9.72872C31.9042 9.82244 31.2106 10.0286 30.4046 10.2348ZM0 16.7394C0.431138 15.7084 1.25592 15.2585 2.30565 15.0523C3.67404 14.7712 5.04244 14.4337 6.39209 14.0588C6.69201 13.9839 7.01067 13.7402 7.17938 13.4777C8.02291 12.1843 8.81021 10.8534 9.61625 9.54127C10.6472 7.87295 12.4655 7.87295 13.4965 9.52252C14.3025 10.8159 15.0711 12.1281 15.8959 13.4028C16.0833 13.7027 16.4582 13.9651 16.7956 14.0588C18.314 14.4712 19.8323 14.8086 21.3507 15.1835C23.1315 15.6334 23.6751 17.358 22.5129 18.7639C21.5194 19.9448 20.4884 21.107 19.5324 22.3067C19.3075 22.6066 19.1388 23.0565 19.1575 23.4314C19.2325 24.8748 19.3637 26.3181 19.4949 27.7803C19.7011 29.8985 18.2203 31.0232 16.2708 30.2171C14.8649 29.636 13.4777 29.0362 12.0531 28.4926C11.7719 28.3801 11.3595 28.3801 11.0784 28.4926C9.63499 29.0549 8.22911 29.6735 6.80448 30.2546C4.9862 30.9857 3.56157 29.9922 3.6553 28.0614C3.74902 26.4869 3.89898 24.931 3.99271 23.3752C4.01146 23.0752 3.89898 22.6816 3.71153 22.4379C2.90549 21.4257 2.04322 20.4697 1.21843 19.4762C0.787295 18.9513 0.412393 18.4077 0 17.8641C0 17.4892 0 17.1143 0 16.7394ZM15.0336 25.1185C14.9773 24.2187 14.9586 23.4501 14.8461 22.6816C14.7337 21.8006 14.9586 21.0695 15.5397 20.4322C16.0833 19.8323 16.5894 19.2137 17.1705 18.5202C16.2895 18.314 15.5397 18.1078 14.7899 17.9578C13.9089 17.7704 13.2528 17.3205 12.8217 16.5332C12.4468 15.8396 12.0156 15.2023 11.547 14.4525C11.0409 15.2585 10.591 15.9896 10.1411 16.7394C9.76621 17.358 9.26009 17.7329 8.54777 17.9016C7.70424 18.089 6.87946 18.314 5.9422 18.5389C6.44832 19.1388 6.86071 19.7199 7.36683 20.1885C8.15413 20.957 8.39781 21.8756 8.2666 22.944C8.17287 23.6188 8.15413 24.3124 8.09789 25.1185C9.0164 24.7436 9.78495 24.4436 10.5535 24.1062C11.2471 23.8063 11.9031 23.825 12.5967 24.1062C13.384 24.4436 14.1526 24.7623 15.0336 25.1185ZM71.9813 17.8641C70.8003 19.3075 69.6381 20.7696 68.4384 22.1942C68.0823 22.6066 67.9136 23.0003 67.9885 23.5814C68.1572 25.0997 68.2697 26.6181 68.3447 28.1364C68.4384 29.9734 66.9763 30.9857 65.2705 30.2734C63.8271 29.6923 62.3838 29.0549 60.9216 28.4926C60.6405 28.3801 60.2281 28.3801 59.9469 28.4926C58.4848 29.0549 57.0414 29.6923 55.598 30.2734C53.7985 31.0044 52.3176 29.8797 52.4863 27.9302C52.6175 26.4306 52.7675 24.9498 52.8425 23.4501C52.8612 23.0752 52.7113 22.6254 52.4676 22.3442C51.5116 21.1445 50.4619 19.9823 49.4871 18.8014C48.2874 17.358 48.8685 15.6522 50.7055 15.2023C52.2052 14.8461 53.7048 14.5087 55.2044 14.0963C55.5418 14.0026 55.8979 13.7402 56.1041 13.4402C56.9289 12.1656 57.6975 10.8534 58.5035 9.56001C59.5345 7.8917 61.3528 7.8917 62.3838 9.56001C63.1898 10.8722 63.9771 12.2031 64.8206 13.4965C64.9893 13.7589 65.308 13.9839 65.6079 14.0588C66.9763 14.4337 68.3634 14.7712 69.7693 15.0523C70.8003 15.2585 71.5876 15.7272 72 16.7206C71.9813 17.1143 71.9813 17.4892 71.9813 17.8641ZM63.8646 25.1185C63.7896 24.2374 63.7709 23.5064 63.6772 22.7566C63.5647 21.7818 63.8271 20.9758 64.5207 20.2635C65.0268 19.7386 65.4767 19.1575 66.0016 18.5202C65.0643 18.2952 64.277 18.089 63.4897 17.9203C62.7024 17.7516 62.1401 17.3392 61.7464 16.6457C61.334 15.9146 60.8841 15.221 60.4155 14.4525C59.9281 15.2398 59.4783 15.9333 59.0846 16.6269C58.691 17.3205 58.1286 17.7516 57.3413 17.9203C56.5353 18.089 55.7292 18.314 54.6233 18.5952C57.0601 20.2822 57.66 22.4566 56.8165 25.1934C57.8287 24.781 58.616 24.4811 59.3845 24.1437C60.0968 23.825 60.7717 23.825 61.484 24.125C62.1963 24.4436 62.9649 24.7436 63.8646 25.1185Z" fill="#7A43EE"/>
</g>
<defs>
<clipPath id="clip0_1248_279">
<rect width="72" height="72" fill="white"/>
</clipPath>
</defs>
</svg>
