<svg width="72" height="72" viewBox="0 0 72 72" fill="none" xmlns="http://www.w3.org/2000/svg">
<path d="M72 21.0803C72 33.8216 72 46.5628 72 59.304C71.8688 59.7504 71.7751 60.1968 71.6252 60.6246C70.557 63.9355 67.6148 66.0001 63.923 66.0001C45.3139 66.0001 26.7048 66.0001 8.07704 66.0001C7.88964 66.0001 7.70224 66.0001 7.51484 66.0001C4.46018 65.8141 2.19261 64.3819 0.80583 61.6662C0.431025 60.9408 0.262363 60.1038 0 59.304C0.0374805 46.5628 0.0374805 33.8216 0.0374805 21.0803C0.074961 21.0245 0.112441 20.9687 0.131182 20.8943C0.712129 17.8439 2.47371 15.8164 5.39719 14.7562C5.58459 14.6818 5.77199 14.3656 5.77199 14.161C5.80947 13.0264 5.77199 11.8918 5.79073 10.7386C5.84695 8.50652 7.45861 6.47908 9.6887 6.18148C11.3004 5.97687 12.9682 5.97687 14.5799 6.18148C16.7725 6.47908 18.3654 8.48792 18.4404 10.7014C18.4779 11.743 18.4404 12.7846 18.4591 13.8448C18.4591 14.0122 18.4966 14.1982 18.5154 14.3842C19.5086 14.3842 20.4456 14.3656 21.3826 14.3842C21.7574 14.4028 21.9073 14.254 22.0198 13.9192C22.4133 12.7102 22.8069 11.4826 23.2379 10.2921C24.1749 7.6695 26.4612 6.03267 29.2723 6.01407C33.7699 5.99547 38.2676 5.99547 42.7652 6.01407C45.5763 6.01407 47.8626 7.6509 48.8183 10.2735C49.2119 11.3896 49.6054 12.5056 49.9427 13.6402C50.1114 14.1982 50.355 14.3842 50.9547 14.3842C55.3774 14.347 59.8001 14.347 64.2228 14.3656C67.6897 14.3842 70.5945 16.5047 71.6439 19.7225C71.7751 20.1875 71.8876 20.6525 72 21.0803ZM35.9813 61.8151C45.2952 61.8151 54.6278 61.8151 63.9417 61.8151C66.303 61.8151 67.7647 60.3828 67.7647 58.0578C67.7647 46.1536 67.7647 34.2494 67.7647 22.3452C67.7647 20.0201 66.303 18.5879 63.9417 18.5879C58.9943 18.5879 54.0656 18.5879 49.1182 18.5879C47.5815 18.5879 47.0005 18.1787 46.532 16.7465C45.9885 15.1096 45.4451 13.4914 44.8829 11.8546C44.4893 10.6828 43.8147 10.1991 42.5778 10.1991C38.1926 10.1991 33.8261 10.1991 29.4409 10.1991C28.2041 10.1991 27.5481 10.6828 27.1546 11.8546C26.6299 13.417 26.1052 14.9794 25.5804 16.5419C25.0182 18.1973 24.5122 18.5693 22.7694 18.5693C17.9531 18.5693 13.1182 18.5693 8.30193 18.5693C5.64081 18.5693 4.27277 19.9271 4.27277 22.5498C4.27277 34.3052 4.27277 46.0792 4.27277 57.8346C4.27277 60.42 5.65955 61.8151 8.2457 61.8151C17.4846 61.8151 26.7236 61.8151 35.9813 61.8151ZM10.026 14.347C11.469 14.347 12.8371 14.347 14.2426 14.347C14.2426 13.1938 14.2426 12.0778 14.2426 10.9618C14.2426 10.4596 13.9427 10.1991 13.4368 10.1991C12.5747 10.1991 11.7126 10.1991 10.8506 10.1991C10.3446 10.1991 10.0448 10.4596 10.0448 10.9618C10.0073 12.0778 10.026 13.1752 10.026 14.347ZM36.1124 19.9643C46.5508 20.0201 55.0213 28.5019 54.9839 38.8622C54.9464 49.2598 46.3821 57.6858 35.9063 57.63C25.4492 57.5742 16.9599 49.0552 17.0349 38.6576C17.1098 28.3159 25.6741 19.9271 36.1124 19.9643ZM36 24.1494C27.8855 24.1494 21.2514 30.7153 21.2514 38.7878C21.2514 46.8604 27.8667 53.4263 35.9813 53.4449C44.1333 53.4635 50.786 46.8604 50.7673 38.7692C50.7673 30.7153 44.1333 24.1494 36 24.1494ZM10.7382 22.773C9.53878 22.8102 8.63925 23.703 8.62051 24.8376C8.60177 25.9722 9.5013 26.9208 10.6819 26.9394C12.1062 26.9766 13.5305 26.9766 14.9547 26.9394C16.1353 26.9208 17.0349 25.9908 17.0349 24.8376C17.0349 23.703 16.1166 22.7916 14.936 22.7544C14.2426 22.7358 13.5305 22.7544 12.8371 22.7544C12.1249 22.7544 11.4315 22.7544 10.7382 22.773ZM59.2192 24.819C59.2004 25.9536 60.1374 26.9208 61.2618 26.958C62.4237 26.9952 63.417 26.028 63.4357 24.8748C63.4357 23.7402 62.4987 22.7916 61.3555 22.773C60.2124 22.7544 59.2379 23.6844 59.2192 24.819ZM25.4867 38.7878C25.4867 33.0217 30.228 28.3345 36.0375 28.3531C41.847 28.3531 46.5695 33.0589 46.5695 38.825C46.5695 44.5911 41.8282 49.2784 36.0187 49.2784C30.2093 49.2598 25.468 44.5539 25.4867 38.7878ZM42.3342 38.825C42.3342 35.384 39.5232 32.5567 36.075 32.5195C32.5705 32.5009 29.7033 35.3096 29.7033 38.7692C29.7033 42.2103 32.5143 45.0376 35.9625 45.0748C39.4669 45.112 42.3342 42.2847 42.3342 38.825Z" fill="#7A43EE"/>
</svg>
