<svg width="72" height="72" viewBox="0 0 72 72" fill="none" xmlns="http://www.w3.org/2000/svg">
<g clip-path="url(#clip0_211_1604)">
<path d="M0 70.4442C0 47.4814 0 24.5186 0 1.55584C0.337412 0.84353 0.84353 0.337412 1.55584 0C11.8094 0 22.0817 0 32.3353 0C32.4103 0.0562354 32.4665 0.112471 32.5603 0.149961C34.0599 0.899766 34.3223 2.45561 33.1789 3.69279C32.9539 3.93648 32.7102 4.16142 32.4853 4.38636C30.6483 6.22338 28.8112 8.0604 26.918 9.93491C27.1992 10.0849 27.4054 10.2161 27.6303 10.3286C29.2236 11.1159 30.7982 11.9406 32.3916 12.7092C33.4038 13.1966 33.8912 13.9651 33.8724 15.1086C33.8349 17.5642 33.8537 20.0198 33.8724 22.4754C33.8724 22.6628 33.8912 22.869 33.9099 23.169C37.5277 20.4509 41.0518 17.8079 44.5946 15.1461C44.4822 15.0523 44.4447 15.0148 44.4072 14.9961C42.7951 14.1901 41.183 13.384 39.5897 12.578C37.8464 11.697 37.584 10.1786 38.9711 8.79146C41.4455 6.29836 43.9198 3.824 46.4317 1.34965C46.9378 0.84353 47.5376 0.449883 48.0812 0C55.5418 0 62.9836 0 70.4442 0C71.1377 0.337412 71.6626 0.84353 72 1.55584C72 24.5186 72 47.4814 72 70.4442C71.6626 71.1377 71.1565 71.6626 70.4442 72C47.4814 72 24.5186 72 1.55584 72C0.84353 71.6438 0.337412 71.1377 0 70.4442ZM43.7886 9.9724C45.6256 10.8909 47.3689 11.7719 49.131 12.653C51.1554 13.6652 51.3429 15.3897 49.5433 16.7394C44.1448 20.7883 38.7462 24.8373 33.3663 28.8862C32.579 29.4861 31.773 29.7672 30.8357 29.2799C29.936 28.8112 29.6735 28.024 29.6735 27.0492C29.6923 23.5814 29.6735 20.1135 29.6923 16.6457C29.6923 16.2145 29.5611 15.9896 29.1674 15.7834C26.9742 14.7149 24.7998 13.6277 22.6441 12.5217C21.032 11.697 20.7696 10.1411 22.0443 8.8477C23.4127 7.46056 24.7998 6.09216 26.1682 4.72377C26.2994 4.59255 26.4119 4.42385 26.5618 4.25514C19.0825 4.25514 11.6595 4.25514 4.25514 4.25514C4.25514 25.4371 4.25514 46.5629 4.25514 67.7074C25.4371 67.7074 46.5629 67.7074 67.7261 67.7074C67.7261 46.5254 67.7261 25.3809 67.7261 4.25514C67.6136 4.2364 67.5574 4.21765 67.4824 4.21765C61.6339 4.21765 55.7667 4.21765 49.9182 4.21765C49.7121 4.21765 49.4496 4.31138 49.2997 4.46134C47.4814 6.26087 45.6819 8.07915 43.7886 9.9724ZM23.3752 34.0224C31.5105 34.0411 38.1088 40.6769 38.0901 48.7935C38.0901 56.9477 31.4168 63.5647 23.2627 63.5272C15.0898 63.5085 8.39781 56.7977 8.4353 48.6811C8.47279 40.6207 15.221 34.0036 23.3752 34.0224ZM23.3564 38.24C17.4892 38.24 12.6717 42.9451 12.653 48.7373C12.6342 54.567 17.433 59.3283 23.3189 59.3283C29.1299 59.3283 33.8724 54.6045 33.8724 48.7935C33.8912 42.9826 29.1674 38.24 23.3564 38.24ZM53.1799 55.1106C51.8677 55.1106 50.9305 55.9729 50.9117 57.1726C50.893 58.4098 51.849 59.3096 53.1799 59.3096C55.8979 59.3096 58.5972 59.3096 61.3153 59.3096C62.6087 59.3096 63.546 58.4098 63.5647 57.2101C63.5647 56.0104 62.6274 55.1106 61.334 55.1106C59.9844 55.0919 58.616 55.1106 57.2663 55.1106C55.9167 55.1106 54.5296 55.1106 53.1799 55.1106ZM17.7141 51.4366C17.1518 51.999 16.8894 52.6738 17.0768 53.4798C17.4704 55.1106 19.3637 55.6543 20.6196 54.4921C21.5381 53.6298 22.3817 52.7113 23.3002 51.774C23.5439 51.999 23.7126 52.1489 23.8813 52.3176C24.6123 53.0487 25.3247 53.7985 26.0745 54.4921C27.3304 55.6543 29.2049 55.1106 29.6173 53.4798C29.8235 52.655 29.5236 51.9615 28.9425 51.3804C28.0802 50.5368 27.2367 49.6746 26.2807 48.7373C26.8055 48.2499 27.2554 47.8375 27.7053 47.4251C28.1364 47.0128 28.5676 46.5629 28.9987 46.1317C29.5611 45.5506 29.8235 44.8758 29.636 44.0885C29.2424 42.4577 27.3491 41.9141 26.0932 43.095C25.1747 43.9573 24.3312 44.8758 23.3939 45.8318C22.5691 44.9883 21.8193 44.2197 21.0508 43.4699C19.8511 42.2702 18.6326 42.1203 17.6766 43.0575C16.7206 43.9948 16.8519 45.2507 18.0515 46.4317C18.8201 47.1815 19.5886 47.9313 20.4322 48.7748C19.4387 49.7308 18.5764 50.5743 17.7141 51.4366Z" fill="#7A43EE"/>
</g>
<defs>
<clipPath id="clip0_211_1604">
<rect width="72" height="72" fill="white"/>
</clipPath>
</defs>
</svg>
