<svg width="72" height="72" viewBox="0 0 72 72" fill="none" xmlns="http://www.w3.org/2000/svg">
<g clip-path="url(#clip0_211_1616)">
<path d="M70.4531 72C47.4891 72 24.5109 72 1.54688 72C0.857812 71.6625 0.3375 71.1422 0 70.4531C0 51.7078 0 32.9484 0 14.2031C0.5625 12.9937 1.51875 12.6141 2.82656 12.6422C5.93438 12.6984 9.04219 12.6562 12.1641 12.6562C12.4172 12.6562 12.6703 12.6562 12.9234 12.6562C12.9797 12.4172 13.0219 12.2344 13.0641 12.0516C14.4422 5.90625 18.1687 2.025 24.2437 0.39375C24.8766 0.225 25.5234 0.126562 26.1562 0C27.0984 0 28.0266 0 28.9688 0C29.0953 0.0421875 29.2359 0.0984375 29.3625 0.1125C35.5781 1.08281 39.6562 4.58437 41.6953 10.5047C41.9344 11.1797 42.0469 11.8969 42.2297 12.6422C42.4969 12.6422 42.75 12.6422 43.0031 12.6422C46.1672 12.6422 49.3312 12.6422 52.4953 12.6422C54.1828 12.6422 54.9844 13.4437 54.9844 15.1312C54.9844 19.7016 54.9844 24.2719 54.9844 28.8422C54.9844 29.0953 54.9844 29.3484 54.9844 29.6578C55.3078 29.6578 55.5609 29.6578 55.8141 29.6578C60.2719 29.6578 64.7156 29.6859 69.1734 29.6438C70.4812 29.6297 71.4516 29.9953 72 31.2047C72 44.2828 72 57.3609 72 70.4391C71.6625 71.1422 71.1422 71.6625 70.4531 72ZM17.0437 21.0938C17.7328 21.0938 18.3516 21.0938 18.9844 21.0938C20.2922 21.1078 21.2344 21.9937 21.2203 23.2031C21.2203 24.4125 20.2781 25.2984 18.9703 25.3125C16.2562 25.3266 13.5281 25.3266 10.8141 25.3125C9.50625 25.3125 8.56406 24.4125 8.56406 23.2031C8.56406 21.9937 9.50625 21.1078 10.8 21.0938C11.4469 21.0797 12.0938 21.0938 12.7125 21.0938C12.7125 19.6313 12.7125 18.2672 12.7125 16.9172C9.85781 16.9172 7.04531 16.9172 4.24688 16.9172C4.24688 31.0781 4.24688 45.1828 4.24688 59.2875C11.3344 59.2875 18.3656 59.2875 25.4391 59.2875C25.4391 58.95 25.4391 58.6688 25.4391 58.3875C25.4391 49.6688 25.4391 40.95 25.4391 32.2313C25.4391 30.4453 26.2125 29.6719 27.9984 29.6719C35.2828 29.6719 42.5812 29.6719 49.8656 29.6719C50.1328 29.6719 50.4141 29.6719 50.7094 29.6719C50.7094 25.3687 50.7094 21.15 50.7094 16.9312C47.8969 16.9312 45.1125 16.9312 42.3563 16.9312C42.3563 18.3375 42.3563 19.6875 42.3563 21.0938C43.0453 21.0938 43.6922 21.0797 44.3391 21.0938C45.5906 21.1219 46.5187 22.0078 46.5328 23.1891C46.5469 24.3703 45.6188 25.2984 44.3672 25.3125C41.5969 25.3266 38.8406 25.3266 36.0703 25.3125C34.8187 25.3125 33.8906 24.3984 33.8766 23.2312C33.8625 22.0219 34.8047 21.1219 36.0984 21.1078C36.7453 21.0938 37.3922 21.1078 38.0391 21.1078C38.0391 19.6594 38.0391 18.2812 38.0391 16.9172C31.0078 16.9172 24.0328 16.9172 17.0297 16.9172C17.0437 18.2953 17.0437 19.6453 17.0437 21.0938ZM67.7531 59.3016C67.7531 50.8359 67.7531 42.4125 67.7531 33.9328C55.0406 33.9328 42.3703 33.9328 29.7281 33.9328C29.7281 42.4266 29.7281 50.8641 29.7281 59.3016L29.7 63.5906C29.7 64.9828 29.7 66.3328 29.7 67.725C42.4125 67.725 55.0828 67.725 67.725 67.725C67.725 66.3047 67.725 64.9406 67.725 63.5906L67.7531 59.3016ZM17.3109 12.6281C24.1734 12.6281 30.9937 12.6281 37.8141 12.6281C37.5891 8.4375 32.6812 4.33125 27.8297 4.21875C21.8672 4.10625 17.8734 8.71875 17.3109 12.6281ZM4.24688 67.725C11.3484 67.725 18.3797 67.725 25.4109 67.725C25.4109 66.3187 25.4109 64.9828 25.4109 63.5906C18.3375 63.5906 11.3063 63.5906 4.24688 63.5906C4.24688 64.9828 4.24688 66.3328 4.24688 67.725Z" fill="#7A43EE"/>
</g>
<defs>
<clipPath id="clip0_211_1616">
<rect width="72" height="72" fill="white"/>
</clipPath>
</defs>
</svg>
