<svg width="72" height="72" viewBox="0 0 72 72" fill="none" xmlns="http://www.w3.org/2000/svg">
<g clip-path="url(#clip0_211_1619)">
<path d="M72 64.4062C72 65.0625 72 65.7188 72 66.375C71.9625 66.4313 71.9062 66.4875 71.8875 66.5437C71.25 69.4687 69.4687 71.25 66.5437 71.8875C66.4875 71.9062 66.4313 71.9625 66.375 72C56.2875 72 46.2187 72 36.1312 72C35.9812 71.9437 35.8313 71.8875 35.6813 71.85C32.3063 71.1188 30.0938 68.0062 30.4875 64.575C30.6375 63.2812 31.2375 62.175 31.875 61.0875C32.4375 60.15 32.9625 59.1937 33.5437 58.1812C33.1875 58.2 32.9625 58.2 32.7375 58.2375C27.2438 58.9313 21.9938 58.125 17.025 55.725C8.475 51.5813 2.9625 44.925 0.7125 35.6438C0.375 34.275 0.225 32.8875 0 31.5C0 30.0938 0 28.6875 0 27.2812C0.0375 27.1312 0.09375 26.9625 0.1125 26.8125C0.6 20.85 2.71875 15.525 6.4875 10.8937C10.9875 5.34375 16.7812 1.85625 23.8312 0.525C24.975 0.3 26.1375 0.16875 27.2812 0C28.7438 0 30.1875 0 31.65 0C32.0625 0.05625 32.475 0.1125 32.8875 0.16875C39.8812 1.06875 45.825 4.10625 50.4937 9.3375C57.6562 17.3625 60.1687 26.625 57.3375 37.1625C57.1875 37.6875 57.2438 38.0812 57.5063 38.5312C61.6125 45.6187 65.7 52.7062 69.8062 59.8125C70.6687 61.2938 71.625 62.7 72 64.4062ZM6.6 39.8438C6.99375 39.6187 7.35 39.4312 7.6875 39.225C8.83125 38.5875 10.0875 38.8688 10.6875 39.9C11.325 40.95 10.9312 42.1875 9.76875 42.9C9.43125 43.1063 9.09375 43.3125 8.71875 43.5188C10.4437 45.9563 12.4687 48.0188 14.9437 49.725C15.1875 49.3125 15.375 48.975 15.5812 48.6375C16.2562 47.5312 17.4938 47.1562 18.525 47.7562C19.575 48.375 19.8563 49.6125 19.2188 50.7563C19.0312 51.1125 18.825 51.4687 18.6188 51.825C20.7188 52.9687 25.0313 54.1312 27.1125 54.075C27.1125 53.6812 27.1125 53.2875 27.1125 52.8938C27.1313 51.5438 27.9375 50.6438 29.175 50.625C30.4313 50.6062 31.2938 51.5062 31.3313 52.875C31.35 53.2875 31.3313 53.7 31.3313 54.225C32.85 53.925 34.2188 53.6437 35.5875 53.4C36.1875 53.2875 36.5438 52.9688 36.8625 52.4438C39.6938 47.5125 42.5437 42.6 45.375 37.6687C46.3875 35.8875 47.8875 34.725 49.875 34.4062C51.0563 34.2188 52.3125 34.3875 53.6812 34.4062C53.8125 33.5438 53.9812 32.475 54.15 31.35C53.55 31.35 53.0813 31.3875 52.6313 31.35C51.4125 31.2562 50.5875 30.3563 50.625 29.175C50.6625 28.0313 51.5063 27.2063 52.725 27.15C53.175 27.1313 53.6437 27.15 54.15 27.15C53.85 24.1125 53.1563 21.3188 51.8625 18.6375C51.3938 18.9 51.0187 19.125 50.625 19.3312C49.5563 19.875 48.3187 19.5375 47.7562 18.5438C47.1937 17.55 47.5312 16.3125 48.5625 15.675C48.9375 15.45 49.3125 15.225 49.7625 14.9813C48.0562 12.5063 45.9938 10.4625 43.5563 8.75625C43.2938 9.20625 43.0688 9.61875 42.8063 9.99375C42.1688 10.9875 40.9687 11.2875 39.975 10.7437C38.9812 10.1812 38.625 8.94375 39.1687 7.875C39.375 7.4625 39.6187 7.06875 39.8812 6.61875C37.1437 5.34375 34.3688 4.575 31.3313 4.35C31.3313 4.9875 31.3875 5.53125 31.3125 6.05625C31.1438 7.18125 30.225 7.89375 29.1375 7.8375C27.975 7.7625 27.1875 6.95625 27.15 5.79375C27.1313 5.325 27.15 4.875 27.15 4.35C24.1125 4.6125 21.3188 5.34375 18.6375 6.6375C18.9 7.0875 19.1062 7.44375 19.3125 7.81875C19.8937 8.90625 19.575 10.125 18.6 10.7062C17.5875 11.3062 16.3312 10.9875 15.675 9.9375C15.45 9.5625 15.225 9.1875 14.9813 8.75625C12.5063 10.4813 10.4625 12.525 8.75625 14.9813C9.16875 15.225 9.50625 15.4313 9.84375 15.6375C10.9688 16.3313 11.3437 17.5312 10.7437 18.5812C10.1437 19.6312 8.8875 19.9313 7.74375 19.2938C7.3875 19.0875 7.03125 18.9 6.61875 18.675C5.3625 21.4125 4.59375 24.1687 4.36875 27.1875C4.8375 27.1875 5.2125 27.1875 5.60625 27.1875C6.95625 27.2063 7.8375 28.0313 7.85625 29.2688C7.85625 30.4875 6.95625 31.35 5.625 31.3875C5.2125 31.4062 4.8 31.3875 4.35 31.3875C4.575 34.3687 5.325 37.1438 6.6 39.8438ZM51.1313 67.7812C55.725 67.7812 60.3188 67.7063 64.9125 67.8188C67.0875 67.875 68.5875 65.8313 67.2375 63.75C65.9625 61.7812 64.875 59.7188 63.7125 57.6938C60.3 51.7688 56.8875 45.8625 53.475 39.9375C53.0813 39.2625 52.5937 38.7188 51.8062 38.55C50.6062 38.2688 49.6688 38.7188 48.975 39.9563C44.3625 47.9438 39.75 55.9312 35.1562 63.9C33.9938 65.9062 35.0812 67.8 37.3875 67.8C41.9625 67.7813 46.5563 67.7812 51.1313 67.7812ZM28.7063 27.975C27.3 26.5687 25.8938 25.1625 24.4875 23.7562C23.5125 22.8 22.2188 22.7438 21.3563 23.6063C20.475 24.4688 20.5312 25.7625 21.4875 26.7375C23.5125 28.7813 25.5562 30.825 27.6 32.85C28.6312 33.8812 29.8125 33.8625 30.8812 32.8313C31.725 32.0063 32.5312 31.1812 33.375 30.3562C36.2063 27.525 39.0375 24.6937 41.8688 21.8625C42.4875 21.2437 42.8062 20.5125 42.5625 19.65C42.1125 18.0188 40.1813 17.5875 38.925 18.8438C35.8875 21.8625 32.8688 24.9 29.8313 27.9375C29.6438 28.125 29.4563 28.2937 29.25 28.4812C29.025 28.2937 28.8563 28.1437 28.7063 27.975ZM53.3062 48.45C53.2875 47.25 52.3875 46.3313 51.2437 46.3125C50.1187 46.2937 49.125 47.1937 49.1062 48.375C49.0687 49.9688 49.0687 51.5625 49.1062 53.1375C49.1437 54.375 50.0625 55.2 51.2437 55.1812C52.425 55.1625 53.2687 54.3187 53.3062 53.0625C53.325 52.2938 53.3062 51.525 53.3062 50.7563C53.3062 50.0063 53.325 49.2187 53.3062 48.45ZM53.3062 60.825C53.2687 59.7375 52.5 58.8938 51.4688 58.7812C50.3438 58.6687 49.3313 59.325 49.1625 60.45C49.05 61.125 49.0687 61.8563 49.2 62.5312C49.4062 63.6 50.4562 64.2188 51.525 64.05C52.7437 63.8438 53.2875 63.0375 53.2875 61.4625C53.3063 61.2375 53.3062 61.0312 53.3062 60.825Z" fill="#7A43EE"/>
</g>
<defs>
<clipPath id="clip0_211_1619">
<rect width="72" height="72" fill="white"/>
</clipPath>
</defs>
</svg>
