<svg width="72" height="72" viewBox="0 0 72 72" fill="none" xmlns="http://www.w3.org/2000/svg">
<g clip-path="url(#clip0_211_1613)">
<path d="M70.4535 72C47.4845 72 24.5331 72 1.56407 72C0.351477 71.4376 0 70.4711 0 69.1706C0.0351477 52.7039 0.0175738 36.2372 0.0175738 19.753C0.0175738 18.8391 0.263607 18.0835 0.82597 17.3629C4.86795 12.0205 8.89236 6.67806 12.8992 1.30046C13.567 0.386624 14.3754 0 15.5001 0C29.1726 0.0175738 42.8274 0.0175738 56.4823 0C57.6422 0 58.4681 0.386624 59.1535 1.33561C63.0901 6.62534 67.0793 11.8975 71.051 17.1872C71.4025 17.6617 71.6837 18.2065 72 18.7337C72 35.9736 72 53.2311 72 70.4711C71.4904 70.9631 70.9631 71.4904 70.4535 72ZM67.7471 21.2995C46.5531 21.2995 25.4118 21.2995 4.28802 21.2995C4.28802 36.8172 4.28802 52.2997 4.28802 67.7471C25.4645 67.7471 46.5882 67.7471 67.7471 67.7471C67.7471 52.247 67.7471 36.7996 67.7471 21.2995ZM33.8648 4.28802C33.7418 4.27044 33.6715 4.25287 33.6012 4.25287C27.8721 4.25287 22.1255 4.23529 16.3964 4.27044C16.1328 4.27044 15.7989 4.4989 15.6407 4.72736C12.6883 8.61118 9.7359 12.5126 6.80107 16.4315C6.67806 16.5897 6.57261 16.7654 6.41445 16.9939C15.6231 16.9939 24.7264 16.9939 33.8648 16.9939C33.8648 12.741 33.8648 8.54088 33.8648 4.28802ZM65.6207 17.0115C65.445 16.7479 65.3219 16.5721 65.1989 16.414C62.2641 12.5301 59.3468 8.62875 56.4296 4.72736C56.1484 4.34074 55.8496 4.21772 55.3927 4.21772C49.8745 4.23529 44.3388 4.23529 38.8206 4.23529C38.5921 4.23529 38.3813 4.23529 38.1704 4.23529C38.1704 8.55846 38.1704 12.7762 38.1704 17.0115C47.3263 17.0115 56.3944 17.0115 65.6207 17.0115ZM55.0237 54.7952C55.0237 56.2538 55.0237 57.6949 55.0237 59.2062C55.7091 59.2062 56.3593 59.1887 57.0095 59.2062C58.2748 59.2414 59.1887 60.1025 59.2062 61.28C59.2238 62.4926 58.2924 63.4064 56.9919 63.4064C54.2504 63.424 51.5089 63.424 48.7674 63.4064C47.5021 63.4064 46.5882 62.5101 46.5531 61.3327C46.5355 60.1201 47.4669 59.2238 48.7674 59.1887C49.4 59.1711 50.0327 59.1887 50.7181 59.1887C50.7181 57.7125 50.7181 56.289 50.7181 54.7601C50.4369 54.6898 50.103 54.6019 49.7691 54.4965C45.4108 53.1257 42.4408 49.1716 42.3354 44.62C42.3002 43.1965 42.3178 41.7554 42.3354 40.3319C42.3529 38.9612 43.2141 38.1001 44.5848 38.1001C50.1206 38.0825 55.6388 38.0825 61.1745 38.1001C62.5453 38.1001 63.4415 38.9788 63.4064 40.3495C63.3712 42.3881 63.547 44.4618 63.1604 46.4301C62.352 50.6654 59.6983 53.3542 55.5685 54.6019C55.3927 54.6722 55.217 54.7249 55.0237 54.7952ZM46.5004 42.3529C46.5531 43.4249 46.5531 44.4442 46.6761 45.4284C47.1857 49.5231 51.9834 52.001 55.6563 50.0854C58.679 48.5214 59.5577 45.7095 59.1184 42.3354C54.9534 42.3529 50.806 42.3529 46.5004 42.3529ZM33.3903 63.424C34.2338 63.424 35.0774 63.4415 35.9209 63.424C37.1862 63.4064 38.1001 62.5101 38.1176 61.3327C38.1352 60.1201 37.2038 59.2414 35.8858 59.2062C35.6749 59.2062 35.464 59.2062 35.2531 59.2062C28.0127 59.2062 20.7723 59.2062 13.5319 59.2062C12.6004 59.2062 11.6515 59.1887 10.72 59.2062C9.78862 59.2238 9.10325 59.6807 8.75177 60.5419C8.15426 61.9829 9.22626 63.4064 10.8958 63.424C15.0432 63.4415 19.1906 63.424 23.3381 63.424C26.6947 63.424 30.0337 63.424 33.3903 63.424ZM17.6441 45.9204C18.5755 46.7464 19.7881 46.7464 20.6141 45.938C21.4577 45.0945 21.4752 43.8467 20.579 42.9153C19.2258 41.527 17.855 40.1386 16.4491 38.7854C15.5177 37.8892 14.3402 37.8716 13.4264 38.7503C11.9854 40.1386 10.5794 41.5445 9.20869 42.968C8.34757 43.8643 8.38272 45.112 9.22626 45.938C10.0522 46.764 11.2648 46.7464 12.1962 45.9204C12.372 45.7623 12.5477 45.6041 12.8113 45.3581C12.8113 47.9238 12.8113 50.3139 12.8113 52.7039C12.8113 53.6353 13.1628 54.3383 14.0063 54.7601C15.4298 55.463 17.0115 54.4437 17.0115 52.7742C17.029 50.3666 17.0115 47.9414 17.0115 45.3756C17.3102 45.6217 17.4684 45.7798 17.6441 45.9204ZM29.6822 46.2016C29.6822 48.328 29.6822 50.472 29.6822 52.5985C29.6822 54.0395 30.5257 54.9885 31.7735 54.9885C33.0212 54.9885 33.8824 54.0395 33.8824 52.6161C33.8824 50.4369 33.8824 48.2577 33.8824 46.0786C33.8824 45.8853 33.9175 45.692 33.9351 45.4108C34.146 45.6041 34.2865 45.7271 34.4096 45.8501C35.3937 46.764 36.6239 46.7815 37.485 45.9204C38.3461 45.0593 38.311 43.8116 37.3795 42.845C36.0439 41.4918 34.7083 40.1386 33.3551 38.8206C32.5116 37.9946 31.3341 37.8189 30.4906 38.5921C28.8914 40.0683 27.3625 41.6148 25.8863 43.2141C25.1833 43.9697 25.3415 45.1472 26.062 45.9029C26.8001 46.6585 27.9424 46.764 28.8035 46.1137C29.0671 45.9204 29.2956 45.692 29.6646 45.3581C29.6822 45.7447 29.6822 45.9731 29.6822 46.2016Z" fill="#7A43EE"/>
</g>
<defs>
<clipPath id="clip0_211_1613">
<rect width="72" height="72" fill="white"/>
</clipPath>
</defs>
</svg>
