<svg width="72" height="72" viewBox="0 0 72 72" fill="none" xmlns="http://www.w3.org/2000/svg">
<g clip-path="url(#clip0_211_1610)">
<path d="M35.4713 0C35.8476 0 36.2238 0 36.6001 0C36.7694 0.1125 36.9575 0.20625 37.1269 0.31875C41.4162 3.16875 45.7056 6 49.9574 8.86875C50.9357 9.525 51.105 10.8 50.4654 11.7375C49.8257 12.675 48.6217 12.9375 47.587 12.3375C47.2859 12.15 46.9849 11.9438 46.6275 11.7188C46.6275 13.5 46.6275 15.15 46.6275 16.875C46.8909 16.875 47.1166 16.875 47.3424 16.875C49.1108 16.875 50.8604 16.875 52.6289 16.875C54.228 16.875 55.037 17.7 55.0558 19.3125C55.0558 21.975 55.0558 24.6562 55.0558 27.3187C55.0558 27.5625 55.0558 27.825 55.0558 28.125C57.0876 28.125 59.0442 28.125 60.9819 28.125C62.7315 28.125 63.5217 28.9125 63.5217 30.6562C63.5217 35.4188 63.5217 40.1625 63.5029 44.925C63.5029 45.3938 63.6157 45.7313 63.9732 46.0875C65.5911 47.6437 66.3625 49.575 66.3248 51.825C66.306 53.2312 65.8545 54.525 65.1208 55.7625C65.3277 55.8562 65.4971 55.95 65.6664 56.025C68.921 57.5625 71.0657 60.0375 71.7054 63.5625C72.0252 65.3812 71.8747 67.2937 71.9876 69.1687C72.0816 70.4812 71.6489 71.4375 70.4261 72C47.4741 72 24.5221 72 1.57003 72C0.347179 71.4375 -0.0667099 70.4812 0.00854264 69.1687C0.0837952 67.9313 0.00854264 66.6937 0.0273558 65.4375C0.0837952 62.8875 0.968012 60.6375 2.66119 58.7063C3.8088 57.3938 5.21978 56.4562 6.85652 55.7812C6.78127 55.6125 6.72483 55.5 6.64958 55.3687C4.89996 52.0875 5.46435 48.5438 8.117 45.9C8.32395 45.6938 8.45564 45.3 8.45564 44.9812C8.47445 40.1625 8.45564 35.325 8.49327 30.5062C8.49327 29.9625 8.6814 29.3438 8.98241 28.875C9.43392 28.1625 10.2241 28.0687 11.0519 28.0687C12.9896 28.0875 14.9462 28.0687 16.9404 28.0687C16.9404 27.75 16.9404 27.4875 16.9404 27.2438C16.9404 24.5438 16.9404 21.8625 16.9404 19.1625C16.9404 17.6625 17.8058 16.8187 19.3108 16.8187C20.4584 16.8187 21.606 16.8187 22.7724 16.8187C23.6378 16.8187 24.5032 16.8187 25.3686 16.8187C25.3686 15.075 25.3686 13.4062 25.3686 11.6812C25.0112 11.9062 24.7102 12.1125 24.4092 12.2812C23.3933 12.8625 22.1704 12.6 21.5496 11.6625C20.9099 10.6875 21.1169 9.43125 22.1328 8.75625C26.5915 5.85 31.0314 2.925 35.4713 0ZM42.3381 35.1188C42.3569 34.9875 42.3757 34.9312 42.3757 34.8562C42.3757 26.325 42.3757 17.8125 42.3569 9.28125C42.3569 9.0375 42.15 8.71875 41.943 8.5875C40.137 7.35 38.3121 6.16875 36.506 4.95C36.1674 4.725 35.9228 4.70625 35.5842 4.95C33.8157 6.15 32.0473 7.33125 30.2412 8.49375C29.8085 8.775 29.658 9.05625 29.6769 9.5625C29.6957 17.85 29.6957 26.1375 29.6957 34.425C29.6957 34.65 29.7145 34.875 29.7333 35.1375C33.9286 35.1187 38.1051 35.1188 42.3381 35.1188ZM12.7827 43.875C15.9621 43.8 18.4642 44.9625 20.101 47.6438C21.7189 50.325 21.5684 53.0625 20.0257 55.8C21.9447 56.55 23.4873 57.7313 24.7666 59.3438C26.0459 57.675 27.6262 56.55 29.4699 55.8C26.9866 50.775 28.5292 46.5187 33.59 44.2875C33.7217 44.2313 33.9098 44.0438 33.9098 43.9125C33.9286 42.4125 33.9286 40.9313 33.9286 39.375C33.6088 39.375 33.3454 39.375 33.1008 39.375C28.6045 39.375 24.127 39.375 19.6306 39.375C17.7493 39.375 16.9968 38.625 16.9968 36.7312C16.9968 35.2875 16.9968 33.8438 16.9968 32.4C15.5482 32.4 14.1748 32.4 12.7638 32.4C12.7638 36.1313 12.7638 39.8062 12.7638 43.4812C12.745 43.575 12.7638 43.6875 12.7827 43.875ZM52.0457 55.8C48.6969 50.1375 52.9299 43.4437 59.2699 43.8187C59.2699 40.0125 59.2699 36.2062 59.2699 32.3812C57.8589 32.3812 56.5044 32.3812 55.0746 32.3812C55.0746 33.9188 55.0746 35.4188 55.0746 36.9C55.0746 38.55 54.2656 39.3562 52.6101 39.3562C48.0573 39.3562 43.4857 39.3562 38.9329 39.3562C38.6883 39.3562 38.4438 39.3562 38.1428 39.3562C38.1428 40.8 38.1616 42.15 38.1239 43.5188C38.1051 43.9875 38.2556 44.1938 38.7072 44.3625C41.943 45.5625 43.9936 48.6188 43.7303 52.0312C43.6362 53.3063 43.1282 54.5438 42.7896 55.875C44.464 56.55 46.0255 57.7125 47.3048 59.3438C48.6029 57.7125 50.1455 56.55 52.0457 55.8ZM22.6219 67.7437C22.6219 67.0312 22.6219 66.3937 22.6219 65.775C22.5843 62.1 19.8376 59.3625 16.1502 59.3438C14.363 59.325 12.5757 59.3438 10.7885 59.3438C6.78127 59.325 3.48897 62.6062 4.392 67.7437C10.4498 67.7437 16.4888 67.7437 22.6219 67.7437ZM26.7608 67.725C33.0256 67.725 39.1022 67.725 45.1977 67.725C45.1977 66.9375 45.2165 66.1875 45.1977 65.4375C45.1036 62.4938 42.9401 59.7937 40.0053 59.5125C37.409 59.25 34.7376 59.25 32.1414 59.5125C29.5263 59.775 27.8144 61.4812 27.1371 64.0125C26.8173 65.1937 26.8737 66.45 26.7608 67.725ZM67.7734 67.7437C67.7734 66.9562 67.7923 66.225 67.7734 65.475C67.6982 62.4938 65.5347 59.8125 62.5434 59.4937C60.0224 59.2312 57.4262 59.325 54.8865 59.4563C53.9458 59.5125 52.9299 60 52.1209 60.5437C49.5811 62.2875 49.2237 64.8938 49.5059 67.725C55.5637 67.7438 61.6027 67.7437 67.7734 67.7437ZM25.4063 35.1375C25.4063 30.4312 25.4063 25.7812 25.4063 21.15C23.9953 21.15 22.6219 21.15 21.2674 21.15C21.2674 25.8563 21.2674 30.4875 21.2674 35.1375C22.6596 35.1375 24.0141 35.1375 25.4063 35.1375ZM50.804 35.1562C50.804 30.4312 50.804 25.7812 50.804 21.15C49.393 21.15 48.0197 21.15 46.6463 21.15C46.6463 25.8375 46.6463 30.4687 46.6463 35.1375C46.7968 35.1562 46.9097 35.1562 47.0226 35.1562C48.2642 35.1562 49.5059 35.1562 50.804 35.1562ZM13.4787 55.125C15.4165 55.1063 16.9968 53.5125 16.978 51.5625C16.9592 49.65 15.3789 48.0938 13.4599 48.0938C11.5034 48.0938 9.92306 49.6687 9.92306 51.6187C9.94188 53.55 11.541 55.1437 13.4787 55.125ZM39.5537 51.6187C39.5537 49.6687 37.9734 48.0938 36.0169 48.0938C34.0979 48.0938 32.5176 49.65 32.4988 51.5625C32.48 53.5125 34.0603 55.1063 35.9981 55.125C37.9546 55.125 39.5537 53.55 39.5537 51.6187ZM58.5738 55.125C60.5304 55.1437 62.1295 53.5687 62.1295 51.6187C62.1295 49.7062 60.5868 48.1125 58.6679 48.0938C56.7113 48.0563 55.0934 49.6125 55.0746 51.5625C55.0558 53.4938 56.6361 55.1063 58.5738 55.125ZM38.1428 13.35C38.1051 12.15 37.1833 11.25 36.0357 11.25C34.8881 11.25 33.9474 12.15 33.9286 13.3312C33.9098 14.2875 33.9098 15.2438 33.9286 16.2C33.9662 17.3625 34.8693 18.2437 35.9981 18.2625C37.1457 18.2812 38.0863 17.3813 38.1428 16.2C38.1616 15.7313 38.1428 15.2625 38.1428 14.7938C38.1428 14.325 38.1616 13.8375 38.1428 13.35ZM33.9286 27.4875C33.9851 28.6313 34.9069 29.5125 36.0169 29.5312C37.1269 29.55 38.0863 28.6688 38.1428 27.525C38.1804 26.5312 38.1804 25.5187 38.1428 24.5062C38.1051 23.3625 37.1457 22.4813 36.0169 22.5C34.8881 22.5187 33.9851 23.4 33.9286 24.5437C33.9098 25.0312 33.9286 25.5187 33.9286 26.0062C33.9098 26.5125 33.891 27 33.9286 27.4875Z" fill="#7A43EE"/>
</g>
<defs>
<clipPath id="clip0_211_1610">
<rect width="72" height="72" fill="white"/>
</clipPath>
</defs>
</svg>
