<svg width="72" height="72" viewBox="0 0 72 72" fill="none" xmlns="http://www.w3.org/2000/svg">
<path d="M72 6.4569C72 22.5768 72 38.7151 72 54.8535C70.8563 57.6264 69.8437 58.2919 66.7312 58.2919C60.975 58.2919 55.2 58.2919 49.4438 58.2919C49.1625 58.2919 48.525 58.2919 48.525 58.2919L48.5625 64.7436C48.5625 64.7436 51.4312 64.8175 51.6375 64.8175C52.875 64.836 54.1125 64.8175 55.3687 64.836C56.4 64.8545 57.2438 65.6309 57.3938 66.6292C57.5438 67.6089 56.9063 68.5887 55.9125 68.866C55.5375 68.9769 55.125 68.9954 54.7312 68.9954C42.2625 68.9954 29.7938 68.9954 17.325 68.9954C17.1 68.9954 16.8562 69.0139 16.6312 68.9769C15.4875 68.866 14.625 67.9417 14.6625 66.8325C14.7 65.7233 15.6 64.8545 16.7625 64.836C17.5313 64.8175 18.3 64.836 19.0875 64.836C20.9438 64.836 23.475 64.836 23.475 64.836L23.5312 58.2919C23.5312 58.2919 22.8937 58.2919 22.6125 58.2919C16.5938 58.2919 10.575 58.2919 4.5375 58.2919C2.94375 58.2919 1.65 57.7373 0.76875 56.4063C0.45 55.9442 0.28125 55.3711 0.0375 54.8535C0 38.7151 0 22.5953 0 6.4569C1.0875 3.70247 2.1375 3 5.175 3C25.8 3 46.4062 3 67.0312 3C67.3313 3 67.65 3 67.95 3.01849C69.15 3.09243 70.2187 3.51761 70.95 4.4604C71.4 5.05196 71.6625 5.7914 72 6.4569ZM67.7437 7.21483C46.5375 7.21483 25.3875 7.21483 4.275 7.21483C4.275 20.0996 4.275 32.929 4.275 45.7584C25.4625 45.7584 46.5937 45.7584 67.7437 45.7584C67.7437 32.892 67.7437 20.0812 67.7437 7.21483ZM4.2375 54.0586C25.4437 54.0586 46.5937 54.0586 67.7437 54.0586C67.7437 52.6722 67.7437 51.3412 67.7437 50.0102C46.5562 50.0102 25.4063 50.0102 4.2375 50.0102C4.2375 51.3781 4.2375 52.6906 4.2375 54.0586ZM43.9875 64.8175V58.2734C43.9875 58.2734 43.8187 58.2734 43.3875 58.2734C38.475 58.2919 33.5437 58.2919 28.6312 58.2734C28.125 58.2734 27.825 58.3289 27.825 58.3289L27.8438 64.8175H43.9875ZM36.0188 12.2061C44.1938 12.2246 50.7938 18.7871 50.7563 26.8471C50.7188 34.8516 44.0625 41.3587 35.925 41.3217C27.75 41.2662 21.1687 34.7221 21.225 26.6622C21.2812 18.6947 27.9375 12.1691 36.0188 12.2061ZM41.85 35.3507C41.625 35.1658 41.4188 35.0364 41.2688 34.8885C39.0938 32.7441 36.9375 30.5997 34.7438 28.4738C34.1625 27.9008 33.8812 27.2538 33.8812 26.4404C33.9 23.4087 33.8812 20.3954 33.8812 17.3637C33.8812 17.1234 33.8812 16.8831 33.8812 16.6243C29.6812 17.4376 26.3625 20.8021 25.6125 24.906C24.8438 29.1024 26.7375 33.3172 30.4125 35.591C33.8812 37.7169 38.6625 37.6614 41.85 35.3507ZM44.7562 32.4668C48.9937 26.2185 45.15 17.8998 38.1 16.6243C38.1 18.0477 38.1 19.4526 38.1 20.8576C38.1 22.5398 38.1187 24.222 38.1375 25.9043C39.3187 27.0874 40.5 28.2705 41.7 29.4536C42.7125 30.4519 43.725 31.4316 44.7562 32.4668ZM14.7562 15.4781C15.9187 15.4411 16.8188 14.5908 16.8563 13.4816C16.8938 12.3909 16.0313 11.3927 14.8875 11.3557C13.3875 11.3003 11.8875 11.3003 10.3875 11.3557C9.28125 11.3927 8.4375 12.3909 8.45625 13.4446C8.475 14.5538 9.375 15.4411 10.5187 15.4781C11.2125 15.4966 11.925 15.4781 12.6188 15.4781C13.35 15.4781 14.0625 15.4966 14.7562 15.4781ZM61.4062 15.4781C62.6063 15.4596 63.525 14.5538 63.525 13.4262C63.5437 12.317 62.625 11.3557 61.425 11.3372C60.0188 11.3003 58.6125 11.3003 57.2063 11.3372C56.025 11.3742 55.1062 12.317 55.125 13.4262C55.1438 14.5538 56.0437 15.4411 57.2437 15.4781C57.9187 15.4966 58.5938 15.4781 59.2875 15.4781C60 15.4781 60.6938 15.4966 61.4062 15.4781ZM14.6813 23.7969C15.9375 23.7784 16.8562 22.891 16.875 21.7449C16.875 20.6173 15.975 19.6929 14.7938 19.656C13.3875 19.619 11.9813 19.619 10.575 19.656C9.39375 19.6929 8.475 20.6357 8.49375 21.7449C8.5125 22.8726 9.43125 23.7599 10.6313 23.7969C11.325 23.8153 12.0375 23.7969 12.7313 23.7969C13.3688 23.7969 14.025 23.8153 14.6813 23.7969ZM61.3875 23.7969C62.5875 23.7784 63.5063 22.8726 63.5063 21.7449C63.525 20.6357 62.6063 19.6745 61.4062 19.656C60 19.619 58.5938 19.619 57.1875 19.656C56.0062 19.6929 55.0875 20.6357 55.1062 21.7449C55.125 22.8726 56.025 23.7784 57.225 23.7969C57.9 23.8153 58.575 23.7969 59.2688 23.7969C60 23.7969 60.6937 23.8153 61.3875 23.7969Z" fill="#7A43EE"/>
</svg>
