<svg width="72" height="72" viewBox="0 0 72 72" fill="none" xmlns="http://www.w3.org/2000/svg">
<g clip-path="url(#clip0_158_418)">
<path d="M72 5.6322C72 21.8902 72 38.1658 72 54.4238C71.9648 54.4941 71.9297 54.5468 71.9121 54.6171C71.4726 57.7984 68.7126 60.1888 65.2319 60.0482C64.8978 60.0306 64.5638 60.0482 64.2474 60.0482C64.8627 60.8743 65.5483 61.5246 66.2163 62.1749C67.3766 63.3349 67.359 64.4774 66.1987 65.655C64.4935 67.3599 62.8059 69.0823 61.0831 70.7697C60.6084 71.2266 60.0283 71.5957 59.5009 72C59.1669 72 58.8505 72 58.5164 72C57.9891 71.5957 57.4089 71.2442 56.9343 70.7697C54.1215 67.9926 51.3264 65.1804 48.5312 62.3858C48.3554 62.21 48.1621 62.0343 47.8808 61.7706C47.1776 62.5088 46.5272 63.2295 45.824 63.9149C45.5075 64.2137 45.1384 64.5125 44.734 64.6531C43.4859 65.1101 42.2905 64.3192 41.9565 62.8428C41.7455 61.9112 41.5697 60.9797 41.3588 60.0482C40.9896 60.0482 40.7083 60.0482 40.427 60.0482C29.1761 60.0482 17.9252 60.0482 6.69179 60.0482C2.75396 60.0482 0.0291268 57.359 0.0115472 53.4571C-0.00603236 37.8318 -0.00603236 22.2066 0.0291268 6.58132C0.0291268 5.57947 0.275241 4.50732 0.697152 3.61094C1.89256 1.07996 4.05485 0.00781165 6.77969 0.00781165C23.533 0.00781165 40.2864 0.00781165 57.0398 0.00781165C59.8349 0.00781165 62.6125 -0.00976457 65.4077 0.00781165C67.6051 0.0253879 69.4861 0.781165 70.7167 2.62667C71.3144 3.52306 71.5957 4.63036 72 5.6322ZM40.427 55.8299C40.3743 55.5135 40.3391 55.2674 40.2864 55.0214C39.6535 51.9983 39.0031 48.9752 38.3702 45.952C37.9835 44.1241 39.1965 42.8938 41.0247 43.2805C44.945 44.089 48.8477 44.9326 52.7679 45.7763C54.5259 46.1454 56.3014 46.4969 58.0594 46.9187C59.4306 47.2351 60.1689 48.36 59.7646 49.5727C59.624 50.0121 59.29 50.434 58.9735 50.7855C58.3231 51.5061 57.6023 52.174 56.8815 52.8946C57.7957 53.8086 58.6395 54.6698 59.5185 55.4784C59.747 55.6893 60.1162 55.8299 60.4326 55.8475C62.0324 55.8826 63.6145 55.865 65.2143 55.865C67.0601 55.865 67.8161 55.1093 67.8161 53.2637C67.8161 42.8059 67.8161 32.3656 67.8161 21.9078C67.8161 21.6617 67.8161 21.4156 67.8161 21.1696C46.5799 21.1696 25.4316 21.1696 4.24823 21.1696C4.24823 21.4332 4.24823 21.6441 4.24823 21.8551C4.24823 32.3481 4.24823 42.8411 4.24823 53.3516C4.24823 55.0917 5.03931 55.865 6.79727 55.865C17.7669 55.865 28.7366 55.865 39.7063 55.865C39.8997 55.8299 40.1282 55.8299 40.427 55.8299ZM67.7809 16.8634C67.7809 16.6173 67.7809 16.424 67.7809 16.2482C67.7809 13.0669 67.7809 9.86807 67.7809 6.68677C67.7809 5.05219 66.9547 4.2261 65.3198 4.2261C45.7712 4.2261 26.2403 4.2261 6.69179 4.2261C5.03931 4.2261 4.21307 5.05219 4.21307 6.68677C4.21307 9.86807 4.21307 13.0669 4.21307 16.2482C4.21307 16.4592 4.23065 16.6525 4.24823 16.881C25.4316 16.8634 46.5623 16.8634 67.7809 16.8634ZM43.0991 48.0436C43.8551 51.5764 44.5758 54.9511 45.3493 58.5718C45.6658 58.1851 45.8591 57.9039 46.0877 57.6754C47.3886 56.3747 48.4609 56.3747 49.7618 57.6754C52.6449 60.5579 55.5279 63.4404 58.411 66.3229C58.5868 66.4986 58.6922 66.7623 58.7977 66.9029C59.9228 65.778 60.8897 64.8113 61.9621 63.7568C61.8038 63.6337 61.5929 63.5107 61.3995 63.3173C58.5868 60.5052 55.7565 57.693 52.9437 54.8808C51.3967 53.3341 51.3967 52.3849 52.9261 50.8558C53.1019 50.68 53.2777 50.5043 53.5063 50.2582C50.0079 49.5024 46.6326 48.7818 43.0991 48.0436ZM21.7751 43.2102C23.0408 44.089 23.41 44.8799 23.0936 45.9169C22.8123 46.8133 22.0212 47.3933 21.0895 47.3933C20.1578 47.3933 19.3843 46.8133 19.0854 45.9169C18.7514 44.8975 19.1381 44.089 20.439 43.1926C19.982 43.1926 19.6128 43.1926 19.2436 43.1926C17.89 43.175 17.1692 42.6301 16.8352 41.2943C15.9914 37.9549 15.1652 34.6154 14.3213 31.2935C14.2686 31.065 14.1983 30.8365 14.128 30.5377C13.0204 30.5377 11.8954 30.5377 10.7703 30.5377C9.34631 30.5377 8.39702 29.6765 8.39702 28.411C8.41459 27.1806 9.36389 26.3194 10.7351 26.3194C12.3348 26.3018 13.917 26.3018 15.5168 26.3194C16.8001 26.337 17.5208 26.8818 17.8724 28.1122C18.0482 28.6922 18.224 29.2898 18.3119 29.8874C18.3998 30.485 18.6987 30.5553 19.226 30.5553C23.955 30.5377 28.7014 30.5553 33.4304 30.5377C34.3445 30.5377 35.1532 30.8013 35.5223 31.6626C35.7333 32.1371 35.8212 32.7699 35.6981 33.2796C35.0828 35.9863 34.3797 38.6931 33.6941 41.3822C33.3776 42.6126 32.6393 43.175 31.3735 43.1926C31.0044 43.1926 30.6176 43.1926 30.3891 43.1926C30.7583 43.7023 31.2505 44.2296 31.5142 44.8447C31.813 45.5654 31.5142 46.286 30.9516 46.8309C30.0902 47.6745 28.6663 47.5866 27.8928 46.6727C26.9786 45.5829 27.3127 44.3175 28.8069 43.2453C26.4864 43.2102 24.1659 43.2102 21.7751 43.2102ZM19.5952 34.756C19.9292 36.0918 20.2281 37.3573 20.5621 38.6228C20.5973 38.7634 20.8961 38.9391 21.0543 38.9391C23.8846 38.9567 26.715 38.9567 29.5453 38.9391C29.7211 38.9391 30.0023 38.8161 30.0375 38.6931C30.3891 37.3924 30.6879 36.0918 31.022 34.756C27.1896 34.756 23.4451 34.756 19.5952 34.756ZM61.1182 38.9567C61.4171 38.9567 61.7335 38.9567 62.0148 38.8688C63.0168 38.6052 63.6673 37.6385 63.5442 36.6366C63.4212 35.5293 62.5246 34.756 61.294 34.7384C55.8092 34.7208 50.3244 34.7384 44.8395 34.7384C43.4156 34.7384 42.4487 35.6172 42.4663 36.8651C42.4663 38.1131 43.4156 38.9567 44.8571 38.9567C47.5819 38.9567 50.2892 38.9567 53.014 38.9567C55.7213 38.9567 58.411 38.9567 61.1182 38.9567ZM61.2764 30.5201C62.6477 30.5026 63.5794 29.6237 63.5618 28.3934C63.5442 27.1982 62.6125 26.3194 61.294 26.3018C58.6043 26.2843 55.8971 26.2843 53.2074 26.3018C51.8538 26.3018 50.9045 27.2158 50.9221 28.4461C50.9396 29.6589 51.8714 30.5026 53.1898 30.5201C54.5435 30.5377 55.9147 30.5201 57.2683 30.5201C58.6043 30.5201 59.9404 30.5377 61.2764 30.5201ZM42.4663 28.4286C42.4839 29.5886 43.4332 30.5201 44.5934 30.5201C45.7537 30.5201 46.6854 29.5534 46.6854 28.411C46.6678 27.2685 45.7009 26.3018 44.5582 26.3194C43.4156 26.3194 42.4663 27.2861 42.4663 28.4286ZM10.5593 8.46197C9.41663 8.46197 8.44975 9.41109 8.44975 10.5535C8.44975 11.7136 9.39905 12.6627 10.5417 12.6627C11.702 12.6627 12.6513 11.7311 12.6513 10.5711C12.6513 9.42866 11.702 8.46197 10.5593 8.46197ZM19.0151 8.46197C17.8724 8.4444 16.9055 9.39351 16.888 10.536C16.8704 11.696 17.8197 12.6451 18.9624 12.6627C20.1226 12.6803 21.0719 11.7487 21.0895 10.5887C21.1071 9.44624 20.1578 8.47955 19.0151 8.46197ZM27.4533 8.46197C26.3106 8.4444 25.3437 9.39351 25.3262 10.536C25.3086 11.696 26.2403 12.6451 27.4006 12.6627C28.5608 12.6803 29.5101 11.7487 29.5277 10.5887C29.5453 9.44624 28.596 8.47955 27.4533 8.46197Z" fill="#7A43EE"/>
</g>
<defs>
<clipPath id="clip0_158_418">
<rect width="72" height="72" fill="white"/>
</clipPath>
</defs>
</svg>
