<svg width="72" height="72" viewBox="0 0 72 72" fill="none" xmlns="http://www.w3.org/2000/svg">
<path d="M72 35.7241C72 40.6115 72 45.4988 72 50.3861C71.9625 50.4436 71.9063 50.5011 71.8875 50.5586C71.1377 53.2419 69.4319 54.5452 66.6951 54.5643C65.8516 54.5643 65.0081 54.5643 64.2208 54.5643C62.9274 58.3784 60.4718 60.7741 56.5353 60.9849C52.0739 61.2149 49.2434 58.8 47.7626 54.5835C40.302 54.5835 32.8414 54.5835 25.3621 54.5835C24.0125 58.5317 21.4069 60.9658 17.2268 60.9849C12.9716 61.0233 10.2911 58.6084 8.90393 54.5452C7.53554 54.5452 6.18589 54.5643 4.8175 54.5452C2.73679 54.5068 0.937256 53.1269 0.262432 51.1144C0.187451 50.8653 0.0937256 50.6353 0 50.3861C0.0187451 38.6565 0.0187451 26.9078 0.0187451 15.1782C0.0562354 15.1207 0.112471 15.0632 0.131216 15.0057C0.862275 12.3608 2.58683 11 5.24863 11C18.239 11 31.2481 11 44.2385 11C47.2752 11 49.3559 13.1274 49.3746 16.2132C49.3746 16.8456 49.3746 17.4781 49.3746 18.1873C49.7308 18.1873 49.9745 18.1873 50.2369 18.1873C53.4423 18.1873 56.6478 18.1873 59.8532 18.1873C61.8776 18.1873 63.1148 19.1647 63.6022 21.158C64.0146 22.9021 64.427 24.6462 64.8394 26.3903C65.2892 28.3452 65.7579 30.281 66.2265 32.2743C66.8264 32.2743 67.3887 32.2551 67.9511 32.2743C69.6381 32.3509 70.8753 33.1751 71.6251 34.7467C71.7563 35.0725 71.8688 35.3983 72 35.7241ZM8.94142 50.252C9.0164 50.0603 9.07264 49.8687 9.12887 49.6962C10.3098 46.1696 13.459 43.8122 17.0393 43.7739C20.6759 43.7355 23.9 46.0546 25.081 49.6003C25.2684 50.137 25.4934 50.2711 26.0182 50.2711C32.1291 50.252 38.24 50.252 44.351 50.252C44.5946 50.252 44.8383 50.252 45.1382 50.252C45.1382 49.907 45.1382 49.677 45.1382 49.447C45.1382 38.484 45.1382 27.5019 45.1382 16.539C45.1382 15.4273 45.007 15.3124 43.9198 15.3124C31.0794 15.3124 18.2577 15.3124 5.41734 15.3124C4.34887 15.3124 4.21765 15.4657 4.21765 16.5581C4.21765 23.7454 4.21765 30.9326 4.21765 38.1199C4.21765 38.3691 4.21765 38.6182 4.21765 38.9057C5.04244 38.9057 5.7735 38.9057 6.50456 38.9057C7.23562 38.9057 7.96668 38.8865 8.67899 38.9057C10.3286 38.9632 11.3033 40.6306 10.5535 42.0681C10.1411 42.8539 9.46628 43.2181 8.60401 43.2181C7.16063 43.2181 5.71726 43.2181 4.2364 43.2181C4.2364 45.3646 4.2364 47.4154 4.2364 49.4853C4.2364 49.9645 4.51757 50.252 4.9862 50.252C6.29836 50.252 7.61052 50.252 8.94142 50.252ZM49.4121 46.9746C51.774 44.368 54.5296 43.2564 57.8474 44.023C61.1466 44.7897 63.1898 46.9938 64.2208 50.2711C65.0456 50.2711 65.8329 50.2711 66.6389 50.2711C67.6324 50.2711 67.8011 50.0986 67.8011 49.1212C67.8011 45.173 67.8011 41.2248 67.8011 37.2574C67.8011 37.0466 67.7823 36.8549 67.7636 36.6441C61.6152 36.6441 55.5418 36.6441 49.4309 36.6441C49.4121 40.0557 49.4121 43.4289 49.4121 46.9746ZM49.4309 22.5379C49.4309 25.7962 49.4309 29.016 49.4309 32.2551C53.5923 32.2551 57.6975 32.2551 61.8589 32.2551C61.0903 28.9969 60.3405 25.777 59.5907 22.5379C56.1791 22.5379 52.805 22.5379 49.4309 22.5379ZM17.1143 56.7109C19.4574 56.7109 21.3694 54.756 21.3694 52.3794C21.3694 50.0028 19.4762 48.0862 17.1705 48.0862C14.7712 48.1054 12.9341 49.9837 12.9341 52.3986C12.9529 54.7943 14.8086 56.7109 17.1143 56.7109ZM60.2093 52.4369C60.2281 50.022 58.3723 48.1245 55.9917 48.1054C53.7048 48.0862 51.7928 50.022 51.774 52.3794C51.774 54.7752 53.6673 56.7109 56.0104 56.7109C58.3161 56.7301 60.1906 54.8135 60.2093 52.4369ZM21.9505 34.0375C21.2382 33.2134 20.5259 32.3701 19.8136 31.546C18.8951 30.4727 17.5642 30.3193 16.6457 31.1818C15.7272 32.0251 15.7272 33.3284 16.6269 34.3825C17.7891 35.7625 18.9701 37.1233 20.1323 38.5032C21.1632 39.7107 22.3817 39.8065 23.5439 38.6949C24.9872 37.3341 26.4119 35.9541 27.8552 34.5742C29.4861 33.0217 31.0982 31.4693 32.7102 29.8977C33.3288 29.3035 33.5913 28.5561 33.3476 27.6744C33.1226 26.8695 32.5978 26.3711 31.8105 26.1603C30.9857 25.9495 30.3109 26.2753 29.711 26.8503C27.1992 29.2844 24.6686 31.6993 22.1005 34.1525C22.0255 34.095 21.9693 34.0759 21.9505 34.0375Z" fill="#7A43EE"/>
</svg>
