<svg width="471" height="694" viewBox="0 0 471 694" fill="none" xmlns="http://www.w3.org/2000/svg">
<g filter="url(#filter0_i_158_683)">
<path d="M324.993 377.56L99.6587 294.266C90.6752 290.955 81.1415 294.775 78.8709 302.727L32.4598 466.628C30.2959 474.225 35.8642 482.499 44.7236 485.09L279.176 551.58C287.958 554.049 296.663 549.969 298.593 542.396L335.886 395.299C337.683 388.171 332.94 380.545 324.993 377.56Z" fill="white"/>
</g>
<path d="M314.51 382.257L105.884 305.286C97.6262 302.203 88.7444 305.74 86.7141 312.891L44.4443 462.599C42.4673 469.572 47.6774 477.149 55.8111 479.511L272.791 541.095C280.951 543.368 288.977 539.66 290.721 532.71L324.664 398.302C326.22 391.975 321.836 385.047 314.51 382.257Z" fill="#E8F0FF"/>
<path d="M286.725 560.931L36.8978 486.96C32.8224 485.832 29.8577 497.824 32.372 501.034L90.8295 573.943C95.818 580.129 102.854 584.492 110.686 586.318L391.124 651.034C393.78 651.62 398.061 640.139 395.994 638.399L299.025 567.339C295.419 564.353 291.215 562.185 286.725 560.931Z" fill="#CDD8F7"/>
<path d="M289.585 551.627L39.7634 484.883C35.6879 483.755 32.6457 488.387 35.2636 491.629L93.7211 564.538C98.7096 570.724 105.746 575.087 113.577 576.913L393.984 641.731C396.64 642.316 398.344 639.055 396.277 637.315L301.885 558.035C298.279 555.049 294.075 552.881 289.585 551.627Z" fill="url(#paint0_linear_158_683)"/>
<path d="M281.289 593.76L183.979 569.479C182.911 569.265 182.186 570.488 182.961 571.279L204.156 593.494C204.331 593.659 204.539 593.722 204.746 593.785L305.043 616.865C306.112 617.079 306.868 615.755 305.958 615.034L281.671 593.987C281.6 593.854 281.496 593.823 281.289 593.76Z" fill="#E8F0FF"/>
<path d="M160.642 543.368L182.618 548.953C183.655 549.269 184.378 548.048 183.708 547.29L175.943 538.385C175.767 538.221 175.591 538.056 175.384 537.993L153.232 532.243C152.196 531.928 151.472 533.148 152.143 533.907L160.155 543.109C160.259 543.14 160.435 543.305 160.642 543.368ZM119.139 523.3L142.152 529.201C142.359 529.264 142.567 529.327 142.71 529.593L150.827 538.826C151.497 539.585 150.774 540.805 149.737 540.49L127.004 534.784C126.796 534.721 126.589 534.658 126.445 534.392L118.082 524.862C117.276 524.173 118.103 522.984 119.139 523.3ZM110.5 516.456L106.582 511.937C105.911 511.179 106.635 509.958 107.671 510.274L130.828 516.441C131.035 516.504 131.242 516.567 131.386 516.833L135.161 521.086C135.831 521.844 135.108 523.065 134.071 522.749L111.09 516.747C110.883 516.684 110.676 516.621 110.5 516.456ZM80.0085 513.043L108.131 520.39C108.338 520.453 108.545 520.516 108.689 520.782L117.125 530.445C117.795 531.203 117.072 532.424 116.035 532.108L87.9532 524.995C87.7459 524.932 87.5386 524.869 87.3948 524.604L78.919 514.706C78.145 513.916 78.9722 512.727 80.0085 513.043ZM250.433 557.528L271.963 563.088C272.171 563.152 272.274 563.183 272.45 563.347L280.987 571.601C281.761 572.391 281.038 573.611 279.97 573.397L258.304 567.906C258.097 567.843 257.889 567.78 257.818 567.647L249.447 559.223C248.538 558.502 249.397 557.212 250.433 557.528ZM71.6804 506.294L67.618 501.51C66.9477 500.752 67.6711 499.531 68.7075 499.847L96.6628 507.364C96.8701 507.427 97.0773 507.491 97.2211 507.756L101.243 512.306C101.914 513.065 101.19 514.285 100.154 513.97L72.3423 506.718C71.9278 506.591 71.7523 506.427 71.6804 506.294ZM144.625 525.299L140.954 521.077C140.283 520.319 141.007 519.098 142.043 519.414L164.339 525.429C164.546 525.492 164.754 525.555 164.897 525.821L168.393 529.878C169.063 530.637 168.34 531.857 167.304 531.542L145.152 525.792C144.976 525.627 144.8 525.463 144.625 525.299ZM186.424 540.802L205.643 545.769C205.85 545.832 206.057 545.895 206.129 546.028L214.404 554.756C215.178 555.546 214.351 556.735 213.283 556.52L193.618 551.528C193.411 551.465 193.204 551.402 193.06 551.136L185.367 542.364C184.664 541.707 185.388 540.486 186.424 540.802ZM217.273 548.868L238.15 554.341C238.357 554.404 238.564 554.467 238.636 554.6L247.182 563.188C247.956 563.978 247.232 565.199 246.164 564.984L224.81 559.588C224.602 559.525 224.395 559.462 224.219 559.297L216.152 550.633C215.409 549.742 216.237 548.553 217.273 548.868ZM312.364 581.602L292.389 576.515C292.181 576.452 291.974 576.388 291.902 576.256L283.54 568.167C282.766 567.377 283.49 566.156 284.558 566.37L303.123 571.249C303.33 571.313 303.434 571.344 303.506 571.477L313.278 579.774C314.188 580.494 313.432 581.816 312.364 581.602ZM324.207 589.089L333.876 597.354C334.786 598.074 333.999 599.497 332.962 599.182L309.958 593.616C309.751 593.552 309.544 593.489 309.472 593.357L301.11 585.267C300.336 584.477 301.059 583.257 302.127 583.471L323.793 588.962C323.928 588.893 324.136 588.956 324.207 589.089ZM177.889 533.99L174.465 530.065C173.795 529.307 174.518 528.086 175.555 528.402L193.881 533.319C194.088 533.382 194.295 533.445 194.367 533.578L197.926 537.433C198.7 538.223 197.873 539.412 196.805 539.198L178.344 534.35C178.136 534.287 177.961 534.123 177.889 533.99ZM158.169 547.27L166.357 556.636C167.028 557.395 166.304 558.615 165.268 558.3L142.678 552.86C142.471 552.796 142.263 552.733 142.12 552.468L133.684 542.805C133.014 542.046 133.737 540.826 134.773 541.141L157.507 546.847C157.818 546.941 157.993 547.106 158.169 547.27ZM124.395 538.756L132.935 548.451C133.605 549.209 132.881 550.43 131.845 550.114L103.46 543.242C103.253 543.179 103.046 543.115 102.902 542.85L94.3544 532.82C93.684 532.061 94.4075 530.841 95.4438 531.157L123.733 538.333C124.044 538.427 124.22 538.592 124.395 538.756ZM197.861 566.232L176.132 560.944C175.925 560.881 175.718 560.818 175.574 560.552L167.458 551.318C166.787 550.56 167.511 549.339 168.547 549.655L190.524 555.241L233.44 566.096L255.52 571.713C255.727 571.777 255.935 571.84 256.007 571.972L264.552 580.561C265.326 581.351 264.603 582.571 263.535 582.357L241.08 576.847L197.861 566.232ZM208.012 541.835L204.525 538.113C203.751 537.323 204.578 536.134 205.646 536.349L225.766 541.701C225.973 541.764 226.18 541.827 226.252 541.96L229.875 545.613C230.649 546.403 229.925 547.623 228.857 547.409L208.706 542.158C208.363 542.164 208.188 542 208.012 541.835ZM290.123 580.48L298.66 588.733C299.434 589.523 298.711 590.744 297.643 590.529L275.499 585.115C275.292 585.051 275.085 584.988 275.013 584.856L266.642 576.431C265.868 575.641 266.592 574.421 267.66 574.635L289.74 580.252C289.844 580.284 289.947 580.316 290.123 580.48ZM240.519 550.407L236.968 546.887C236.194 546.097 236.918 544.876 237.986 545.091L259.142 550.759C259.349 550.822 259.452 550.854 259.628 551.018L263.107 554.405C263.881 555.195 263.157 556.416 262.089 556.201L241.005 550.666C240.798 550.603 240.622 550.438 240.519 550.407ZM274.229 559.123L270.926 555.9C270.152 555.11 270.907 553.788 271.943 554.104L288.269 558.523C288.476 558.586 288.579 558.617 288.651 558.75L292.505 562.03C293.414 562.75 292.627 564.173 291.487 563.826L274.684 559.483C274.476 559.42 274.405 559.287 274.229 559.123Z" fill="#CDD8F7"/>
<path d="M161.277 541.3L183.254 546.886C184.29 547.201 185.013 545.981 184.343 545.222L176.578 536.317C176.402 536.153 176.227 535.989 176.019 535.926L153.867 530.176C152.831 529.86 152.108 531.081 152.778 531.839L160.791 541.041C160.894 541.073 161.07 541.237 161.277 541.3ZM119.775 521.232L142.787 527.133C142.995 527.196 143.202 527.26 143.346 527.525L151.462 536.759C152.132 537.517 151.409 538.738 150.372 538.422L127.639 532.717C127.432 532.653 127.224 532.59 127.081 532.325L118.717 522.794C117.911 522.105 118.738 520.916 119.775 521.232ZM111.136 514.389L107.217 509.87C106.547 509.111 107.27 507.891 108.306 508.206L131.463 514.373C131.67 514.436 131.877 514.499 132.021 514.765L135.796 519.018C136.466 519.777 135.743 520.997 134.707 520.682L111.726 514.679C111.518 514.616 111.311 514.553 111.136 514.389ZM80.6437 510.975L108.766 518.322C108.973 518.385 109.181 518.449 109.325 518.714L117.76 528.377C118.431 529.136 117.707 530.356 116.671 530.041L88.5884 522.928C88.3812 522.865 88.1739 522.802 88.0301 522.536L79.5543 512.639C78.7803 511.849 79.6074 510.66 80.6437 510.975ZM251.068 555.46L272.599 561.021C272.806 561.084 272.91 561.116 273.085 561.28L281.622 569.533C282.396 570.323 281.673 571.544 280.605 571.329L258.939 565.838C258.732 565.775 258.525 565.712 258.453 565.579L250.083 557.155C249.173 556.435 250.032 555.145 251.068 555.46ZM72.3156 504.227L68.2533 499.442C67.5829 498.684 68.3064 497.463 69.3427 497.779L97.298 505.297C97.5053 505.36 97.7126 505.423 97.8564 505.688L101.879 510.239C102.549 510.997 101.825 512.218 100.789 511.902L72.9776 504.65C72.563 504.524 72.3875 504.359 72.3156 504.227ZM145.26 523.231L141.589 519.009C140.919 518.251 141.642 517.03 142.678 517.346L164.974 523.361C165.182 523.425 165.389 523.488 165.533 523.753L169.028 527.811C169.699 528.569 168.975 529.79 167.939 529.474L145.787 523.724C145.611 523.56 145.436 523.396 145.26 523.231ZM187.059 538.734L206.278 543.702C206.485 543.765 206.693 543.828 206.764 543.961L215.039 552.688C215.813 553.478 214.986 554.667 213.918 554.453L194.253 549.46C194.046 549.397 193.839 549.334 193.695 549.069L186.002 540.296C185.3 539.639 186.023 538.419 187.059 538.734ZM217.908 546.801L238.785 552.273C238.992 552.336 239.199 552.399 239.271 552.532L247.817 561.12C248.591 561.91 247.867 563.131 246.799 562.916L225.445 557.52C225.238 557.457 225.03 557.394 224.855 557.23L216.787 548.565C216.045 547.674 216.872 546.485 217.908 546.801ZM313 579.534L293.024 574.447C292.817 574.384 292.609 574.321 292.537 574.188L284.176 566.099C283.402 565.309 284.125 564.088 285.193 564.303L303.758 569.182C303.965 569.245 304.069 569.277 304.141 569.409L313.913 577.706C314.823 578.427 314.068 579.749 313 579.534ZM324.843 587.021L334.512 595.286C335.421 596.007 334.634 597.43 333.598 597.114L310.593 591.548C310.386 591.485 310.179 591.422 310.107 591.289L301.745 583.2C300.971 582.41 301.695 581.189 302.763 581.404L324.428 586.895C324.564 586.825 324.771 586.888 324.843 587.021ZM178.524 531.922L175.1 527.998C174.43 527.239 175.153 526.019 176.19 526.334L194.516 531.251C194.723 531.315 194.93 531.378 195.002 531.51L198.561 535.366C199.335 536.156 198.508 537.345 197.44 537.13L178.979 532.283C178.772 532.219 178.596 532.055 178.524 531.922ZM158.804 545.202L166.992 554.569C167.663 555.327 166.939 556.548 165.903 556.232L143.313 550.792C143.106 550.729 142.899 550.666 142.755 550.4L134.319 540.737C133.649 539.978 134.372 538.758 135.409 539.074L158.142 544.779C158.453 544.874 158.629 545.038 158.804 545.202ZM125.031 536.688L133.57 546.383C134.24 547.142 133.517 548.362 132.48 548.047L104.096 541.174C103.888 541.111 103.681 541.048 103.537 540.782L94.9896 530.752C94.3192 529.994 95.0427 528.773 96.079 529.089L124.369 536.265C124.68 536.36 124.855 536.524 125.031 536.688ZM198.497 564.165L176.768 558.876C176.56 558.813 176.353 558.75 176.209 558.484L168.093 549.251C167.423 548.492 168.146 547.272 169.182 547.588L191.159 553.173L234.075 564.029L256.155 569.646C256.363 569.709 256.57 569.772 256.642 569.905L265.188 578.493C265.962 579.283 265.238 580.504 264.17 580.289L241.716 574.78L198.497 564.165ZM208.647 539.768L205.16 536.045C204.386 535.255 205.213 534.066 206.281 534.281L226.401 539.633C226.608 539.697 226.815 539.76 226.887 539.892L230.51 543.545C231.284 544.335 230.56 545.556 229.492 545.341L209.341 540.09C208.998 540.096 208.823 539.932 208.647 539.768ZM290.758 578.412L299.295 586.666C300.069 587.456 299.346 588.676 298.278 588.462L276.134 583.047C275.927 582.984 275.72 582.921 275.648 582.788L267.278 574.364C266.504 573.574 267.227 572.353 268.295 572.568L290.375 578.185C290.479 578.216 290.583 578.248 290.758 578.412ZM241.154 548.339L237.603 544.819C236.829 544.029 237.553 542.809 238.621 543.023L259.777 548.691C259.984 548.754 260.088 548.786 260.263 548.95L263.742 552.338C264.516 553.128 263.793 554.348 262.724 554.134L241.641 548.598C241.433 548.535 241.258 548.371 241.154 548.339ZM274.864 557.056L271.561 553.833C270.787 553.043 271.542 551.721 272.579 552.036L288.904 556.455C289.111 556.518 289.215 556.55 289.287 556.682L293.14 559.962C294.049 560.682 293.262 562.105 292.122 561.758L275.319 557.416C275.112 557.353 275.04 557.22 274.864 557.056Z" fill="white"/>
<path d="M184.726 209.332L163.355 105.338L219.777 129.756L241.148 233.75L184.726 209.332Z" fill="#CDD8F7"/>
<path d="M241.149 233.749L219.778 129.755L318.654 89.8597L340.067 194.027L241.149 233.749Z" fill="url(#paint1_linear_158_683)"/>
<path d="M266.986 154.239L258.145 112.85L285.471 102L294.311 141.38L266.986 154.239Z" fill="#E8F0FF"/>
<path d="M318.652 89.8606L219.777 129.756L163.355 105.339L262.418 65.5811L318.652 89.8606Z" fill="url(#paint2_linear_158_683)"/>
<path d="M285.5 103.292L259 114.292L229 99.9999L255.5 90.5L285.5 103.292Z" fill="#CDD8F7"/>
<g filter="url(#filter1_i_158_683)">
<path d="M422.299 347.86L222.056 251.048C214.134 247.178 204.812 250.237 201.938 257.619L142.014 412.182C139.215 419.38 143.553 427.757 151.435 430.858L361.858 512.085C369.777 515.095 378.261 511.791 380.823 504.6L430.605 365.53C432.906 358.981 429.32 351.351 422.299 347.86Z" fill="url(#paint3_linear_158_683)"/>
</g>
<path d="M209.885 31.1632C210.629 34.788 208.409 38.5848 205.706 40.8949C200.705 45.248 194.674 42.1481 188.739 42.1783C170.36 42.3452 153.805 54.3649 142.671 68.1112C137.711 74.2281 132.553 81.661 130.47 89.3261C130.175 90.4316 130.199 90.2279 131.018 90.9131C131.942 91.6886 132.818 92.4373 133.741 93.2128C135.899 95.0345 138.067 96.893 140.261 98.7047C142.881 100.914 144.119 103.143 142.952 106.733C142.136 109.281 140.361 111.064 138.552 113.014C134.388 117.535 130.187 122.065 125.966 126.522C122.828 129.858 117.393 136.853 111.989 132.992C107.816 130.02 104.037 126.31 100.173 123.017C103.614 124.018 105.445 120.248 108.135 117.744C113.467 112.71 112.735 108.253 120.511 104.924C117.995 102.804 119.36 100.383 116.854 98.301C116.128 97.6692 115.107 97.1175 114.831 96.2455C114.575 95.447 114.884 94.101 114.936 93.4162C115.894 83.0582 119.691 73.2328 125.382 64.5509C137.448 46.055 159.793 28.2062 183.334 32.3211C185.828 32.7501 187.972 33.3525 190.393 32.3417C192.464 31.5044 194.279 29.8686 195.572 28.0588C197.498 25.3675 199.04 20.5315 196.006 17.961C198.936 20.4412 201.914 22.9481 204.844 25.4283C206.748 27.0428 209.335 28.5507 209.885 31.1632ZM128.145 100.488C130.408 98.0211 132.41 93.4158 130.145 90.3214C128.958 93.8382 128.116 97.4587 127.6 101.109C127.745 100.912 127.926 100.705 128.145 100.488Z" fill="#7A43EE"/>
<path d="M191.236 70.259C193.929 72.4485 197.585 71.0241 200.018 69.1816C201.59 67.9665 202.896 66.3505 204.251 64.9182C206.461 62.5444 206.082 62.6076 208.333 64.4828C211.735 67.3875 215.164 70.2455 218.566 73.1501C215.674 76.2217 211.728 81.9851 206.679 81.7752C204.674 81.6873 203.55 80.611 202.034 79.4043C198.381 76.4494 194.835 73.3075 191.236 70.259ZM247.325 64.0567C247.274 63.2817 247.096 62.1859 246.749 61.4909C245.278 58.6942 241.312 55.9028 239.072 53.6301C236.982 51.4744 234.927 49.1517 232.719 47.1462C228.776 43.5598 224.55 40.2471 220.442 36.7842C221.472 44.8285 226.737 46.1241 230.577 50.6458C231.8 52.0895 234.615 51.3662 234.916 53.0599C235.296 55.0477 234.639 57.1584 233.726 58.905C231.484 63.0625 225.991 66.9177 221.402 64.019C217.588 79.924 212.922 93.8509 202.966 107.12C193.626 119.591 181.555 130.318 167.493 137.204C161.16 140.301 154.712 141.219 147.658 140.921C134.85 140.447 131.259 141.814 124.967 142.138C128.152 144.826 131.383 147.54 134.568 150.227C139.081 154.014 143.947 154.866 149.922 154.982C163.998 155.311 178 149.663 189.617 141.94C204.294 132.204 216.431 118.502 224.479 102.87C229.223 93.616 231.043 84.2472 233.743 74.3243C239.985 78.3529 247.784 70.2835 247.325 64.0567Z" fill="#7A43EE"/>
<path fill-rule="evenodd" clip-rule="evenodd" d="M194.412 29.4778C194.576 29.3543 194.694 29.204 194.812 29.0538C197.345 26.119 198.325 22.4217 197.246 19.7554C196.673 18.3722 195.673 17.4597 194.228 17.1015C176.127 12.7356 157.076 18.1734 137.095 33.4881C135.327 34.8492 133.626 36.3966 131.922 37.948C131.034 38.7557 130.146 39.5643 129.246 40.3484L128.369 41.0594C127.387 42.1144 126.411 43.1578 125.436 44.2011C124.461 45.2444 123.485 46.2878 122.503 47.3428C121.83 48.2237 121.14 49.0991 120.45 49.9753C119.19 51.5735 117.929 53.1742 116.762 54.8155C107.406 67.9615 101.842 81.5004 99.9761 95.3788C99.9568 95.5139 99.9212 95.6535 99.8811 95.8106C99.8359 95.9876 99.7849 96.187 99.7452 96.4276C99.6443 96.3344 99.5653 96.2582 99.4979 96.1932C99.3888 96.088 99.3098 96.0119 99.2168 95.9396C96.8587 93.8171 92.8833 94.4997 89.4074 97.611C89.2846 97.7429 89.1594 97.8656 89.0341 97.9883C88.9089 98.111 88.7836 98.2337 88.6609 98.3656C86.051 101.163 84.8729 105.151 85.9079 107.948C85.9428 108.076 85.9893 108.212 86.0359 108.347C86.0825 108.482 86.129 108.618 86.1639 108.746L100.147 123.064C100.301 123.121 100.462 123.166 100.623 123.211C100.783 123.257 100.944 123.302 101.098 123.359C103.664 124.202 106.994 123.182 109.577 120.43C112.842 116.982 116.108 113.533 119.327 110.057C122.283 106.929 125.229 103.764 128.128 100.572C131.236 97.1263 131.957 92.4735 129.891 90.1141C127.692 87.5541 123.442 87.956 119.932 91.2343C119.267 91.8486 118.648 92.4896 118.039 93.1674C117.695 93.5437 117.348 93.9298 116.994 94.324C116.312 95.0836 115.603 95.873 114.83 96.6797C114.818 96.517 114.805 96.3736 114.793 96.2445C114.76 95.8835 114.737 95.6357 114.76 95.3969C115.552 82.0859 120.849 69.1714 131.01 56.9511C132.117 55.6256 133.234 54.3368 134.371 53.1216C149.774 36.5616 169.127 28.8726 185.486 32.8033C188.579 33.5432 191.748 32.3691 194.412 29.4778ZM231.908 61.4092C234.71 58.4411 235.777 54.4833 234.554 51.5798C234.478 51.4428 234.465 51.2491 234.553 50.9886L220.57 36.6706C220.412 36.6739 220.292 36.6671 220.161 36.6236C217.207 35.3727 213.73 36.433 210.592 39.7684L210.591 39.7693C207.545 43.0008 204.498 46.2323 201.461 49.5006C198.606 52.5622 195.75 55.6238 192.942 58.7121C189.632 62.2912 188.714 66.8002 190.514 69.35C192.391 72.0367 196.425 72.0088 200.082 69.1247C200.987 68.3998 201.819 67.5159 202.648 66.6353C202.773 66.5023 202.898 66.3693 203.024 66.2369C203.237 66.0015 203.453 65.7753 203.669 65.5491C203.886 65.3229 204.102 65.0967 204.315 64.8614C204.961 64.1736 205.607 63.4858 206.343 62.6946C206.353 62.8831 206.366 63.0473 206.378 63.1962C206.4 63.4775 206.417 63.7047 206.403 63.9406C205.888 76.6639 201.159 89.1878 191.736 101.208C189.997 103.415 188.254 105.465 186.444 107.415C175.796 118.86 163.672 125.735 150.219 127.999C144.912 128.884 140.055 128.504 135.507 127.369C132.488 126.609 129.074 128.047 126.619 130.685C125.418 131.957 124.428 133.566 123.866 135.296C122.629 139.064 123.81 142.254 126.839 143.051C137.307 145.856 148.834 144.824 161.366 139.89C172.222 135.647 182.337 128.962 191.694 119.918C191.913 119.701 192.178 119.51 192.444 119.32C193 118.72 193.559 118.117 194.12 117.512C195.628 115.884 197.147 114.244 198.672 112.623C198.73 112.536 198.787 112.448 198.845 112.358C199.012 112.098 199.183 111.832 199.386 111.601C211.098 97.5008 218.138 82.5364 220.747 66.721C220.839 66.1046 220.997 65.4869 221.151 64.8872C221.233 64.5672 221.314 64.2523 221.382 63.9455C221.443 63.9805 221.525 64.0327 221.616 64.0916C221.734 64.1676 221.869 64.2546 222.001 64.3299C224.72 65.8814 228.512 64.8145 231.626 61.683C231.726 61.6162 231.817 61.5127 231.908 61.4092Z" fill="url(#paint4_linear_158_683)"/>
<path d="M402.213 363.382L358.12 347.13C358.031 346.42 357.942 345.665 357.809 344.955C357.676 344.2 357.543 343.489 357.365 342.734C357.188 341.98 356.966 341.225 356.744 340.47C356.522 339.715 356.255 338.96 355.944 338.205C354.523 334.609 352.525 331.278 350.172 328.215C347.774 325.195 344.977 322.487 341.868 320.133C338.76 317.824 335.386 315.87 331.833 314.405C328.281 312.94 324.551 311.919 320.777 311.43L305.813 272L291.382 298.642L305.102 336.607C308.699 337.006 312.207 337.939 315.582 339.315C318.956 340.692 322.153 342.512 325.084 344.733C328.015 346.953 330.634 349.528 332.899 352.414C335.119 355.301 336.984 358.498 338.272 361.961C338.538 362.672 338.805 363.426 339.027 364.137C339.249 364.847 339.426 365.558 339.604 366.313C339.782 367.023 339.915 367.734 340.004 368.444C340.048 368.799 340.092 369.154 340.137 369.51C340.181 369.865 340.226 370.22 340.226 370.575L382.054 385.673L402.213 363.382Z" fill="#FB7354"/>
<path d="M304.57 313.206L289.65 338.516C288.318 339.049 287.031 339.671 285.832 340.425C284.633 341.136 283.523 341.935 282.501 342.823C281.48 343.711 280.503 344.688 279.66 345.709C278.816 346.731 278.017 347.841 277.351 349.04L291.782 323.907C292.492 322.708 293.247 321.554 294.179 320.488C295.068 319.423 296.044 318.446 297.11 317.558C298.176 316.67 299.33 315.826 300.574 315.116C301.861 314.361 303.193 313.739 304.57 313.206Z" fill="#7A43EE"/>
<path d="M386.449 402.368L366.335 423.238C364.337 425.325 362.161 427.234 359.852 429.01C357.498 430.786 354.967 432.429 352.303 433.895C349.595 435.36 346.708 436.648 343.689 437.758C340.625 438.868 337.428 439.756 334.053 440.466C323.663 442.598 312.873 442.464 302.261 440.333C291.559 438.202 281.125 434.028 271.622 428.255C262.076 422.439 253.55 415.068 246.534 406.453C239.607 397.883 234.279 388.204 231.126 377.769C229.883 373.639 229.039 369.599 228.507 365.602C228.018 361.65 227.885 357.743 228.107 353.969C228.329 350.239 228.862 346.598 229.706 343.09C230.549 339.626 231.704 336.296 233.125 333.099L245.025 306.679C243.559 309.965 247.378 312.903 246.534 316.5C245.691 320.141 246.712 323.137 246.534 327C246.357 330.907 245.957 333.87 246.534 338C247.112 342.174 247.126 346.193 248.503 350.5C251.966 361.423 258.043 370.942 265.503 380C273.007 389.103 279.335 396.196 289.503 402.368C299.627 408.54 308.68 414.846 320.003 417.199C331.237 419.552 336.58 418.131 347.503 416C351.011 415.334 357.306 413.61 360.503 412.5C363.656 411.39 365.706 409.739 368.503 408.274C371.3 406.764 374.061 406.865 376.503 405C378.901 403.224 384.407 404.5 386.449 402.368Z" fill="#7A43EE"/>
<path d="M305.812 272C315.27 272.177 324.684 273.909 333.697 276.884C342.667 279.859 351.326 284.166 359.274 289.495C367.222 294.823 374.504 301.217 380.721 308.499C386.982 315.782 392.177 323.996 395.951 332.877C397.061 335.452 397.994 338.028 398.793 340.603C399.592 343.178 400.258 345.754 400.747 348.285C401.279 350.86 401.635 353.391 401.857 355.878C402.079 358.409 402.167 360.895 402.123 363.338L358.119 347.13C358.031 346.42 357.942 345.665 357.809 344.955C357.675 344.2 357.542 343.489 357.364 342.734C357.187 341.98 356.965 341.225 356.743 340.47C356.521 339.715 356.254 338.96 355.944 338.205C354.523 334.609 352.525 331.278 350.171 328.215C347.773 325.195 344.976 322.487 341.868 320.133C338.759 317.824 335.385 315.87 331.833 314.405C328.28 312.94 324.55 311.919 320.776 311.43L305.812 272Z" fill="url(#paint5_linear_158_683)"/>
<path d="M336.007 374.838C338.271 374.483 340.403 373.906 342.356 373.151C344.31 372.396 346.131 371.419 347.729 370.309C349.328 369.199 350.793 367.911 352.081 366.49C353.324 365.069 354.434 363.515 355.322 361.872L400.081 378.168C398.704 383.23 396.662 388.026 393.997 392.466C391.289 396.951 387.959 401.081 384.007 404.677C380.01 408.363 375.392 411.515 370.242 414.091C365.002 416.666 359.185 418.664 352.835 419.863C341.912 421.95 330.545 421.684 319.311 419.33C307.988 416.933 296.932 412.492 286.808 406.32C276.684 400.192 267.537 392.333 260.032 383.23C252.617 374.172 246.845 364.004 243.381 353.036C240.184 342.956 239.252 333.232 240.273 324.218C241.25 315.338 244.092 307.212 248.488 300.107C252.839 293.18 258.656 287.275 265.76 282.657C272.687 278.128 280.858 274.931 289.96 273.243L304.613 313.162C301.372 314.405 298.575 316.181 296.221 318.357C293.868 320.533 292.003 323.197 290.715 326.128C289.427 329.103 288.673 332.344 288.584 335.852C288.495 339.36 289.072 343.045 290.404 346.864C292.003 351.393 294.445 355.567 297.598 359.297C300.75 363.027 304.525 366.224 308.699 368.799C312.872 371.375 317.402 373.24 322.064 374.305C326.682 375.327 331.433 375.593 336.007 374.838Z" fill="url(#paint6_linear_158_683)"/>
<path d="M336.007 374.838C338.272 374.483 340.403 373.906 342.357 373.151C344.311 372.396 346.131 371.419 347.73 370.309C349.328 369.199 350.793 367.911 352.081 366.49C353.324 365.069 354.435 363.515 355.323 361.872L400.081 378.168C398.705 383.23 396.662 388.026 393.998 392.466C391.289 396.951 387.959 401.08 384.007 404.677C380.011 408.363 375.393 411.515 370.242 414.091C365.002 416.666 359.186 418.664 352.836 419.863C341.913 421.95 330.545 421.684 319.311 419.33C307.989 416.932 296.932 412.492 286.808 406.32C276.684 400.192 267.537 392.333 260.033 383.23C252.618 374.172 246.845 364.004 243.382 353.036C240.185 342.956 239.252 333.232 240.273 324.218C241.25 315.338 244.092 307.212 248.488 300.107C252.84 293.18 258.656 287.275 265.761 282.657C272.688 278.128 280.858 274.93 289.961 273.243L304.614 313.162C301.372 314.405 298.575 316.181 296.222 318.357C293.868 320.533 292.003 323.197 290.716 326.128C289.428 329.103 288.673 332.344 288.584 335.852C288.495 339.36 289.073 343.045 290.405 346.864C292.003 351.393 294.446 355.567 297.598 359.297C300.751 363.027 304.525 366.224 308.699 368.799C312.873 371.375 317.402 373.24 322.064 374.305C326.682 375.327 331.434 375.593 336.007 374.838Z" fill="url(#paint7_linear_158_683)"/>
<path d="M127.414 621.12L127.497 621.094C127.581 621.068 127.664 621.042 127.802 620.911C127.968 620.859 128.107 620.728 128.356 620.651C128.439 620.625 128.522 620.599 128.578 620.493C128.744 620.442 128.799 620.336 128.965 620.285C129.048 620.259 129.132 620.233 129.187 620.128C129.27 620.102 129.325 619.996 129.408 619.971C129.575 619.919 129.63 619.814 129.796 619.762C129.879 619.736 129.962 619.71 130.018 619.605C130.101 619.579 130.156 619.474 130.239 619.448C130.377 619.317 130.461 619.291 130.599 619.16C130.682 619.134 130.682 619.134 130.737 619.028C130.82 619.002 130.959 618.871 131.014 618.766C131.152 618.635 131.236 618.609 131.374 618.478C131.457 618.452 131.457 618.452 131.512 618.347C131.567 618.241 131.734 618.19 131.789 618.084C131.927 617.953 131.983 617.848 132.149 617.796C132.149 617.796 132.232 617.77 132.204 617.691C132.259 617.585 132.426 617.534 132.481 617.428C132.619 617.297 132.674 617.192 132.813 617.061C132.813 617.061 132.896 617.035 132.868 616.955C132.923 616.85 133.006 616.824 133.062 616.719C133.2 616.588 133.338 616.457 133.449 616.246C133.532 616.22 133.504 616.141 133.587 616.115C133.642 616.01 133.726 615.984 133.781 615.878C133.919 615.747 134.03 615.537 134.168 615.405C134.251 615.38 134.223 615.3 134.306 615.274C134.39 615.248 134.362 615.169 134.417 615.064C134.527 614.853 134.721 614.617 134.859 614.485C134.915 614.38 134.998 614.354 134.97 614.275L135.025 614.169C135.274 613.828 136.78 611.508 137.001 611.087C137.195 610.851 137.278 610.561 137.471 610.324C137.526 610.219 137.526 610.219 137.582 610.114C137.692 609.903 137.803 609.692 137.941 609.561L137.996 609.456C138.162 609.14 138.383 608.719 138.521 608.323C138.493 608.244 138.576 608.218 138.548 608.139C138.714 607.823 138.796 607.533 138.962 607.217L139.017 607.112C139.073 607.006 139.073 607.006 139.045 606.927C139.182 606.531 139.348 606.216 139.403 605.846C139.458 605.741 139.43 605.661 139.485 605.556C139.623 605.161 139.733 604.686 139.843 604.211C139.898 604.106 139.871 604.026 139.926 603.921C139.98 603.552 140.118 603.156 140.173 602.787C140.228 602.682 140.2 602.602 140.256 602.497C140.365 602.022 140.392 601.573 140.502 601.098C140.502 601.098 140.474 601.019 140.557 600.993C140.53 600.914 140.585 600.808 140.557 600.729C140.556 600.465 140.639 600.175 140.638 599.911C140.666 599.726 140.638 599.646 140.665 599.462C140.665 599.197 140.664 598.933 140.747 598.643C140.719 598.564 140.774 598.459 140.746 598.379C140.718 598.3 140.718 598.3 140.774 598.194C140.746 598.115 140.773 597.93 140.745 597.851C140.772 597.666 140.772 597.402 140.716 597.243C140.688 597.164 140.716 596.979 140.688 596.899C140.66 596.82 140.715 596.715 140.687 596.635C140.659 596.556 140.631 596.476 140.687 596.371C140.658 596.027 140.63 595.684 140.601 595.34C140.573 595.261 140.629 595.156 140.601 595.076L140.573 594.997C140.544 594.653 140.516 594.309 140.404 593.992C140.377 593.912 140.377 593.912 140.349 593.833C140.292 593.41 140.264 593.066 140.124 592.669C140.069 592.51 140.041 592.431 140.068 592.246C139.984 592.008 140.012 591.823 139.928 591.585C139.928 591.585 139.928 591.585 139.9 591.505C139.844 591.346 139.789 591.188 139.733 591.029C139.677 590.87 139.621 590.711 139.566 590.552C139.566 590.552 139.566 590.552 139.538 590.473C139.426 590.155 139.315 589.837 139.203 589.519C139.203 589.519 139.203 589.519 139.175 589.44C139.064 589.122 138.952 588.805 138.84 588.487C138.813 588.407 138.785 588.328 138.757 588.249C138.729 588.169 138.673 588.01 138.645 587.931C138.589 587.772 138.562 587.692 138.506 587.534C138.45 587.375 138.366 587.136 138.227 587.003C138.2 586.924 138.172 586.845 138.144 586.765L138.116 586.686C138.004 586.368 137.81 586.076 137.643 585.864L137.615 585.784C137.587 585.705 137.559 585.625 137.448 585.572C137.392 585.413 137.226 585.201 137.17 585.042C137.142 584.962 137.003 584.829 136.975 584.75C136.947 584.67 136.808 584.537 136.78 584.458C136.752 584.379 136.725 584.299 136.614 584.246C136.475 584.113 136.391 583.874 136.252 583.741C136.224 583.662 136.113 583.608 136.085 583.529L136.057 583.449C135.863 583.158 135.585 582.892 135.39 582.6C135.362 582.52 135.251 582.467 135.112 582.334C134.946 582.121 134.807 581.988 134.64 581.776C134.64 581.776 134.612 581.696 134.529 581.722C134.39 581.589 134.251 581.456 134.112 581.323C133.973 581.19 133.834 581.057 133.723 581.004C133.723 581.004 133.695 580.924 133.612 580.95C133.334 580.684 132.974 580.444 132.696 580.178C132.696 580.178 132.668 580.099 132.585 580.125C132.585 580.125 132.585 580.125 132.557 580.045C132.307 579.859 132.029 579.593 131.696 579.432C131.585 579.378 132.285 577.927 132.174 577.873C132.063 577.82 131.952 577.766 131.841 577.713C131.73 577.659 131.591 577.526 131.397 577.498C131.286 577.445 131.286 577.445 131.175 577.391C130.842 577.231 130.592 577.044 130.259 576.883C130.148 576.83 130.148 576.83 130.037 576.776C129.815 576.669 129.51 576.588 129.26 576.401C129.149 576.348 129.066 576.374 129.038 576.294C128.705 576.133 128.4 576.052 128.095 575.971C128.095 575.971 127.984 575.917 127.9 575.943C127.595 575.862 127.29 575.781 126.985 575.699C126.874 575.646 126.791 575.672 126.68 575.618C126.375 575.537 125.986 575.482 125.598 575.426L106.759 574.328C107.147 574.384 107.452 574.465 107.841 574.52C107.952 574.574 108.035 574.548 108.146 574.602C108.451 574.683 108.756 574.764 109.061 574.845C109.061 574.845 109.172 574.899 109.256 574.873C109.561 574.954 109.894 575.115 110.199 575.196C110.31 575.25 110.393 575.224 110.421 575.303C110.643 575.41 110.948 575.492 111.198 575.678C111.309 575.732 111.309 575.732 111.42 575.785C111.753 575.946 112.086 576.107 112.336 576.293C112.447 576.347 112.447 576.347 112.558 576.4C112.78 576.508 113.03 576.694 113.28 576.881C113.391 576.934 113.502 576.988 113.53 577.067C113.78 577.254 114.113 577.415 114.391 577.68C114.391 577.68 114.391 577.68 114.419 577.76L114.53 577.813C114.808 578.079 115.168 578.32 115.446 578.586C115.585 578.719 115.724 578.852 115.863 578.985C116.002 579.118 116.141 579.251 116.28 579.384C116.447 579.596 116.696 579.783 116.863 579.995C116.974 580.049 117.002 580.128 117.141 580.261C117.419 580.527 117.641 580.898 117.919 581.164C117.947 581.244 118.058 581.297 118.086 581.377C118.253 581.589 118.448 581.881 118.614 582.093C118.642 582.173 118.781 582.306 118.809 582.385C119.004 582.677 119.171 582.889 119.282 583.207C119.31 583.287 119.338 583.366 119.449 583.42C119.671 583.791 119.783 584.109 120.006 584.48C120.033 584.559 120.061 584.639 120.089 584.718C120.201 585.036 120.396 585.328 120.507 585.646C120.535 585.725 120.591 585.884 120.619 585.963C120.758 586.36 120.898 586.758 121.037 587.155C121.149 587.472 121.26 587.79 121.4 588.187C121.455 588.346 121.511 588.505 121.567 588.664C121.623 588.823 121.706 589.061 121.679 589.246C121.763 589.484 121.735 589.669 121.819 589.907C121.875 590.066 121.903 590.146 121.875 590.33C121.932 590.753 122.043 591.071 122.1 591.494C122.127 591.573 122.155 591.653 122.1 591.758C122.129 592.102 122.157 592.445 122.185 592.789C122.213 592.868 122.186 593.053 122.214 593.133C122.242 593.476 122.271 593.82 122.299 594.163C122.272 594.348 122.328 594.507 122.272 594.612C122.3 594.692 122.273 594.876 122.301 594.956C122.273 595.141 122.274 595.405 122.33 595.564C122.358 595.643 122.33 595.828 122.358 595.907C122.331 596.092 122.359 596.171 122.331 596.356C122.332 596.62 122.332 596.885 122.25 597.175C122.222 597.359 122.25 597.439 122.223 597.623C122.224 597.888 122.141 598.178 122.142 598.442C122.086 598.547 122.142 598.706 122.087 598.811C122.06 599.26 121.95 599.735 121.84 600.21C121.785 600.315 121.813 600.395 121.758 600.5C121.703 600.869 121.565 601.265 121.51 601.634C121.455 601.739 121.483 601.819 121.428 601.924C121.318 602.399 121.18 602.794 121.07 603.269C121.015 603.374 121.043 603.454 120.988 603.559C120.85 603.954 120.712 604.35 120.629 604.64C120.574 604.745 120.519 604.85 120.464 604.956C120.298 605.272 120.215 605.562 120.05 605.878C120.077 605.957 119.994 605.983 120.022 606.062C119.884 606.458 119.719 606.774 119.498 607.195C119.387 607.405 119.277 607.616 119.166 607.827C119.111 607.932 119.111 607.932 119.056 608.037C118.89 608.353 118.697 608.59 118.614 608.88C118.365 609.221 118.144 609.643 117.895 609.984C117.84 610.09 117.785 610.195 117.646 610.326C117.536 610.537 117.342 610.773 117.204 610.904C117.149 611.01 117.01 611.141 116.955 611.246C116.817 611.377 116.706 611.588 116.568 611.719C116.513 611.824 116.374 611.956 116.319 612.061C116.181 612.192 116.042 612.323 115.932 612.534C115.794 612.665 115.738 612.77 115.6 612.902C115.462 613.033 115.406 613.138 115.268 613.269C115.13 613.4 114.991 613.532 114.936 613.637C114.798 613.768 114.742 613.873 114.576 613.925C114.438 614.056 114.299 614.187 114.161 614.319C114.023 614.45 113.94 614.476 113.801 614.607C113.663 614.738 113.524 614.869 113.358 614.921C113.22 615.052 113.137 615.078 112.998 615.209C112.86 615.34 112.694 615.392 112.555 615.523C112.417 615.654 112.334 615.68 112.168 615.732C112.029 615.863 111.863 615.915 111.725 616.046C111.558 616.098 111.503 616.203 111.337 616.255C111.115 616.412 110.866 616.489 110.645 616.647C110.478 616.698 110.423 616.804 110.257 616.855C110.007 616.933 109.786 617.09 109.537 617.168L109.453 617.193C109.204 617.271 108.899 617.454 108.65 617.532C108.567 617.557 108.484 617.583 108.484 617.583C108.234 617.661 107.902 617.764 107.652 617.842C107.652 617.842 107.652 617.842 107.569 617.868C107.237 617.971 106.904 618.075 106.655 618.152C106.572 618.178 106.572 618.178 106.489 618.204C106.156 618.308 105.796 618.332 105.463 618.435C105.38 618.461 105.297 618.487 105.297 618.487C105.214 618.513 105.048 618.565 104.937 618.511C104.853 618.537 104.77 618.563 104.659 618.509C104.576 618.535 104.382 618.507 104.299 618.533C104.216 618.559 104.133 618.585 104.022 618.531C103.744 618.53 103.495 618.607 103.301 618.58C103.218 618.605 103.218 618.605 103.107 618.552C102.913 618.524 102.746 618.576 102.469 618.574C102.386 618.6 102.275 618.546 102.275 618.546C102.081 618.519 101.998 618.545 101.804 618.517C101.72 618.543 101.609 618.489 101.609 618.489C101.415 618.462 101.138 618.46 100.944 618.432L117.797 622.879C117.991 622.907 118.268 622.909 118.462 622.937C118.545 622.911 118.656 622.964 118.656 622.964C118.851 622.992 118.934 622.966 119.128 622.994L119.211 622.968L119.294 622.942C119.488 622.97 119.682 622.997 119.932 622.92C120.015 622.894 120.015 622.894 120.126 622.948C120.403 622.949 120.68 622.951 120.847 622.899C120.847 622.899 120.847 622.899 120.93 622.874C121.013 622.848 121.013 622.848 121.096 622.822C121.179 622.796 121.373 622.824 121.457 622.798C121.54 622.772 121.623 622.746 121.734 622.8C121.817 622.774 122.011 622.801 122.094 622.776L122.177 622.75L122.26 622.724C122.621 622.7 122.953 622.596 123.286 622.493C123.286 622.493 123.286 622.493 123.369 622.467L123.452 622.441C123.785 622.338 124.034 622.26 124.367 622.156C124.616 622.079 124.948 621.975 125.198 621.898L125.281 621.872L125.364 621.846C125.613 621.768 125.946 621.665 126.167 621.508L126.251 621.482C126.943 621.354 127.165 621.197 127.414 621.12ZM66.1211 619.577C66.0932 619.498 66.0653 619.418 66.0374 619.339C65.8701 618.862 65.7307 618.465 65.5633 617.988C65.5075 617.83 65.4796 617.75 65.4239 617.591C65.3681 617.432 65.3402 617.353 65.2844 617.194C65.1729 616.876 65.0334 616.479 64.9218 616.161C64.9218 616.161 64.9218 616.161 64.894 616.082C64.7545 615.685 64.6151 615.288 64.5587 614.865C64.5308 614.785 64.4751 614.626 64.4472 614.547C64.3914 614.388 64.3635 614.309 64.3077 614.15C64.1404 613.673 64.0562 613.171 63.8888 612.694C63.8609 612.615 63.8609 612.615 63.8331 612.535C63.7488 612.033 63.5815 611.556 63.4694 610.974C63.4136 610.815 63.3857 610.736 63.4131 610.551C63.3573 610.392 63.3015 610.234 63.3289 610.049C63.2452 609.81 63.2167 609.467 63.2162 609.203C63.1883 609.123 63.1325 608.964 63.1878 608.859C63.1036 608.357 63.0472 607.934 62.963 607.431C62.9351 607.352 62.8793 607.193 62.9346 607.088C62.8777 606.4 62.7377 605.739 62.7087 605.131C62.653 604.972 62.7082 604.867 62.6524 604.708C62.6245 604.629 62.6519 604.444 62.624 604.365C62.5398 603.862 62.5666 603.413 62.5103 602.99C62.4824 602.911 62.5376 602.805 62.5097 602.726C62.4808 602.118 62.4518 601.511 62.4228 600.903C62.3949 600.823 62.3949 600.823 62.4502 600.718C62.4496 600.454 62.4212 600.11 62.4206 599.846C62.3643 599.423 62.419 599.054 62.4458 598.605C62.4453 598.341 62.4168 597.997 62.4994 597.707C62.4989 597.443 62.4983 597.179 62.4699 596.835C62.4973 596.65 62.4694 596.571 62.5246 596.465C62.5519 596.281 62.4962 596.122 62.5235 595.937C62.5224 595.409 62.6044 594.855 62.6034 594.326C62.6586 594.221 62.6307 594.142 62.6581 593.957C62.7122 593.323 62.7664 592.689 62.8205 592.056C62.8479 591.871 62.9031 591.766 62.8473 591.607C62.8468 591.343 62.8741 591.158 62.9567 590.868C62.9841 590.683 62.9835 590.419 63.094 590.209C63.0935 589.944 63.2039 589.734 63.2034 589.47C63.2302 589.021 63.368 588.625 63.3948 588.176C63.4222 587.992 63.4216 587.728 63.5321 587.517C63.6973 586.937 63.7514 586.303 63.9166 585.723C63.8887 585.644 63.9718 585.618 63.944 585.538C64.0812 584.879 64.2464 584.299 64.3837 583.639C64.411 583.455 64.5215 583.244 64.5489 583.059C64.6867 582.664 64.7966 582.189 64.9344 581.794C65.0449 581.583 65.0444 581.319 65.1548 581.108C65.2927 580.713 65.4305 580.318 65.5683 579.922C65.6788 579.712 65.6782 579.448 65.7887 579.237C65.9265 578.842 66.0644 578.446 66.2022 578.051C66.3127 577.84 66.34 577.656 66.4505 577.445C66.5057 577.34 66.4778 577.26 66.5609 577.234C66.754 576.734 66.9749 576.313 67.168 575.812C67.2232 575.707 67.1954 575.627 67.2506 575.522C67.4437 575.021 67.6646 574.6 67.8577 574.099C67.9129 573.994 68.0234 573.783 68.0786 573.678C68.3548 573.152 68.6031 572.546 68.8793 572.019C68.9345 571.914 68.9898 571.809 69.1002 571.598C69.3212 571.177 69.5974 570.65 69.8183 570.229C69.9288 570.018 70.0393 569.808 70.2329 569.571C70.4817 569.23 70.6196 568.834 70.8684 568.492C70.9236 568.387 71.0068 568.361 70.9789 568.282C71.2829 567.835 71.5039 567.414 71.808 566.966C71.9185 566.756 72.0568 566.625 72.1673 566.414C72.2778 566.203 72.4714 565.967 72.5818 565.756C72.7202 565.625 72.7476 565.44 72.8859 565.309C73.0243 565.178 73.0795 565.073 73.19 564.862C73.4941 564.415 73.8813 563.942 74.1854 563.495C74.1854 563.495 74.1854 563.495 74.2685 563.469C74.6557 562.996 74.9598 562.549 75.3749 562.156C75.4301 562.05 75.5685 561.919 75.6237 561.814C75.6789 561.709 75.8173 561.577 75.8726 561.472C76.1214 561.13 76.4812 560.842 76.7301 560.5C76.8132 560.474 76.7853 560.395 76.8685 560.369C77.0621 560.133 77.3388 559.87 77.5324 559.634C77.6708 559.503 77.8922 559.346 78.0027 559.135C78.0579 559.03 78.1411 559.004 78.1963 558.899C78.5283 558.531 78.8881 558.243 79.1649 557.98C79.2201 557.875 79.3032 557.849 79.4416 557.718C79.4968 557.613 79.58 557.587 79.6352 557.481C80.0503 557.088 80.4102 556.8 80.8253 556.406C80.8253 556.406 80.9084 556.38 80.9636 556.275C81.0468 556.249 81.102 556.144 81.102 556.144C81.5171 555.75 82.0432 555.41 82.4583 555.017C82.9565 554.597 83.3995 554.283 83.9256 553.943C84.0087 553.918 84.064 553.812 84.064 553.812C84.1471 553.786 84.1471 553.786 84.2024 553.681C84.6453 553.367 85.0883 553.053 85.4761 552.844C85.5592 552.818 85.6144 552.713 85.6976 552.687C85.7807 552.661 85.8359 552.556 85.919 552.53C86.3068 552.321 86.7498 552.007 87.1375 551.798C87.2207 551.773 87.2759 551.667 87.359 551.641C87.5253 551.59 87.5805 551.484 87.7468 551.433C88.1345 551.224 88.5223 551.015 88.91 550.806C89.1315 550.649 89.3809 550.572 89.6024 550.414C89.8239 550.257 90.0733 550.18 90.3779 549.997C90.461 549.971 90.461 549.971 90.5441 549.945C90.9319 549.736 91.2644 549.633 91.6521 549.424C91.7353 549.398 91.9015 549.347 91.9846 549.321C92.0678 549.295 92.234 549.243 92.3172 549.217C92.788 548.983 93.2868 548.827 93.7856 548.672C94.3675 548.491 94.9215 548.23 95.5034 548.049C95.6696 547.998 95.8359 547.946 96.0021 547.894C96.0853 547.868 96.1684 547.842 96.1684 547.842C96.4178 547.765 96.584 547.713 96.8334 547.635C96.9997 547.584 97.0828 547.558 97.249 547.506C97.4984 547.428 97.7478 547.351 97.9141 547.299C97.9972 547.273 98.0803 547.247 98.1634 547.221C98.1634 547.221 98.1634 547.221 98.2466 547.196C98.5791 547.092 99.0226 547.042 99.3551 546.939C99.4383 546.913 99.5214 546.887 99.6045 546.861C99.8539 546.783 100.214 546.759 100.464 546.682C100.547 546.656 100.547 546.656 100.63 546.63C100.713 546.604 100.713 546.604 100.796 546.578C101.24 546.528 101.683 546.478 102.127 546.429C102.57 546.379 103.014 546.329 103.374 546.305C103.457 546.279 103.457 546.279 103.54 546.253C103.624 546.227 103.707 546.201 103.735 546.281C103.901 546.229 104.012 546.282 104.178 546.231C104.344 546.179 104.539 546.207 104.622 546.181C104.788 546.129 104.899 546.183 105.093 546.21C105.287 546.238 105.454 546.186 105.565 546.24C105.759 546.268 105.842 546.242 106.036 546.269C106.23 546.297 106.313 546.271 106.507 546.299C106.702 546.327 106.785 546.301 106.979 546.328C107.062 546.302 107.173 546.356 107.256 546.33C107.256 546.33 107.339 546.304 107.367 546.384C107.838 546.413 108.31 546.443 108.781 546.472C108.864 546.446 108.975 546.5 108.975 546.5C109.447 546.529 109.946 546.638 110.501 546.642L128.611 549.112C128.112 549.003 127.641 548.974 127.086 548.97C127.003 548.996 126.892 548.942 126.892 548.942C126.421 548.913 125.949 548.883 125.478 548.854C125.367 548.8 125.201 548.852 125.117 548.878C124.923 548.85 124.84 548.876 124.646 548.848C124.452 548.821 124.369 548.846 124.175 548.819C123.98 548.791 123.897 548.817 123.703 548.789C123.509 548.762 123.426 548.787 123.232 548.76C123.038 548.732 122.954 548.758 122.788 548.81C122.622 548.861 122.428 548.834 122.345 548.86C122.178 548.911 122.067 548.858 121.901 548.909C121.818 548.935 121.624 548.908 121.541 548.934C121.097 548.983 120.654 549.033 120.293 549.057C119.85 549.107 119.406 549.157 118.963 549.207C118.88 549.233 118.713 549.285 118.602 549.231C118.353 549.309 117.993 549.333 117.743 549.41C117.66 549.436 117.577 549.462 117.494 549.488C117.161 549.592 116.718 549.642 116.385 549.745C116.302 549.771 116.136 549.823 116.053 549.848C115.803 549.926 115.554 550.004 115.388 550.055C115.221 550.107 115.138 550.133 114.972 550.185C114.723 550.262 114.556 550.314 114.307 550.392C114.058 550.469 113.808 550.547 113.642 550.599C113.06 550.78 112.478 550.961 111.924 551.221C111.425 551.377 110.955 551.611 110.456 551.767C110.373 551.792 110.206 551.844 110.123 551.87C109.652 552.105 109.154 552.26 108.683 552.495C108.6 552.52 108.6 552.52 108.517 552.546C108.046 552.781 107.492 553.041 107.021 553.276C106.467 553.537 105.941 553.877 105.47 554.111C105.387 554.137 105.331 554.242 105.248 554.268C104.805 554.582 104.251 554.843 103.808 555.157C103.725 555.183 103.67 555.288 103.587 555.314C103.144 555.628 102.618 555.968 102.175 556.282C102.092 556.308 102.036 556.413 102.036 556.413C101.51 556.753 101.095 557.147 100.569 557.487C100.154 557.88 99.6278 558.22 99.2128 558.614C99.1296 558.64 99.0744 558.745 99.0744 558.745C98.6593 559.139 98.2163 559.453 97.8012 559.846C97.746 559.951 97.6628 559.977 97.6076 560.083C97.1925 560.476 96.7774 560.87 96.3623 561.263C96.3071 561.368 96.224 561.394 96.1687 561.5C95.7536 561.893 95.4216 562.261 95.0344 562.734C94.9513 562.76 94.9792 562.839 94.8961 562.865C94.481 563.258 94.0938 563.731 93.7897 564.179C93.7345 564.284 93.5961 564.415 93.5409 564.52C93.1537 564.993 92.7664 565.466 92.4624 565.913C92.4624 565.913 92.4624 565.913 92.3792 565.939C91.992 566.412 91.6879 566.859 91.3839 567.306C91.2455 567.437 91.1903 567.543 91.0798 567.753C90.831 568.095 90.5821 568.437 90.3612 568.858C90.2507 569.069 90.1123 569.2 90.0019 569.411C89.6978 569.858 89.3937 570.305 89.1728 570.726C89.1175 570.831 89.0344 570.857 89.0623 570.937C88.8134 571.278 88.5925 571.7 88.4268 572.015C88.3163 572.226 88.2058 572.437 88.0954 572.647C87.7913 573.094 87.5982 573.595 87.2941 574.042C87.2389 574.147 87.1836 574.253 87.0732 574.463C86.797 574.99 86.5208 575.516 86.2725 576.122C86.2173 576.228 86.1068 576.438 86.0516 576.543C85.8585 577.044 85.6375 577.465 85.4445 577.966C85.3892 578.071 85.4171 578.151 85.3619 578.256C85.0857 578.782 84.9206 579.363 84.6444 579.889C84.5339 580.1 84.5065 580.284 84.3961 580.495C84.2582 580.89 84.1204 581.286 83.9826 581.681C83.8721 581.892 83.8727 582.156 83.7622 582.366C83.6244 582.762 83.4865 583.157 83.3487 583.552C83.2382 583.763 83.2388 584.027 83.1283 584.238C82.9905 584.633 82.8806 585.108 82.7427 585.503C82.7154 585.688 82.6049 585.899 82.5776 586.083C82.4403 586.743 82.2751 587.323 82.1378 587.982C82.1657 588.062 82.0826 588.088 82.1105 588.167C81.9453 588.747 81.8912 589.381 81.726 589.961C81.6987 590.146 81.6992 590.41 81.5887 590.621C81.4788 591.095 81.4241 591.465 81.3973 591.914C81.3978 592.178 81.2874 592.388 81.2879 592.653C81.2611 593.101 81.1512 593.576 81.1244 594.025C81.097 594.21 81.0418 594.315 81.0975 594.474C81.0434 595.108 80.9892 595.741 80.9351 596.375C80.8798 596.48 80.9077 596.56 80.8804 596.744C80.8815 597.273 80.7994 597.827 80.8005 598.355C80.7732 598.54 80.8289 598.699 80.8016 598.884C80.7748 599.333 80.8032 599.676 80.7764 600.125C80.777 600.389 80.8054 600.733 80.7228 601.023C80.696 601.472 80.7244 601.815 80.6976 602.264C80.6982 602.528 80.7266 602.872 80.7272 603.136C80.784 603.823 80.813 604.431 80.7867 605.144C80.8146 605.224 80.7594 605.329 80.7873 605.408C80.8162 606.016 80.8452 606.624 80.9573 607.206C81.0131 607.365 80.9579 607.47 81.0137 607.629C81.0705 608.316 81.1826 608.898 81.2395 609.585C81.3516 610.167 81.3806 610.775 81.4927 611.357C81.5206 611.436 81.5764 611.595 81.5211 611.7C81.5774 612.123 81.6616 612.626 81.8011 613.023C81.8569 613.182 81.8848 613.261 81.8574 613.446C81.9416 613.949 82.0537 614.53 82.2211 615.007C82.249 615.086 82.249 615.086 82.2769 615.166C82.3611 615.668 82.5284 616.145 82.6958 616.622C82.7515 616.78 82.7794 616.86 82.8352 617.019C83.0025 617.495 83.1146 618.077 83.282 618.554C83.282 618.554 83.282 618.554 83.3099 618.633C83.4772 619.11 83.6446 619.586 83.8119 620.063C83.8677 620.222 83.8956 620.301 83.9513 620.46C84.1187 620.937 84.2581 621.334 84.4255 621.811C84.4534 621.89 84.4534 621.89 84.4813 621.969C84.6486 622.446 84.8159 622.923 85.0943 623.453C85.1501 623.612 85.178 623.691 85.2337 623.85C85.3732 624.247 85.5679 624.539 85.7073 624.936C85.7631 625.095 85.8189 625.254 85.9578 625.387C86.1804 625.758 86.3477 626.235 86.5703 626.606C86.5982 626.685 86.6261 626.765 86.6261 626.765C86.8766 627.216 87.1549 627.746 87.3223 628.222C87.378 628.381 87.5169 628.514 87.5448 628.594C87.7395 628.885 87.879 629.283 88.0737 629.574C88.1573 629.813 88.3241 630.025 88.4909 630.238C88.6856 630.53 88.7693 630.768 88.964 631.06C89.1308 631.272 89.2144 631.51 89.3812 631.723C89.548 631.935 89.6596 632.253 89.8264 632.465C90.0211 632.757 90.2158 633.049 90.4105 633.341C90.5773 633.553 90.6609 633.792 90.8277 634.004C91.0224 634.296 91.2171 634.588 91.4118 634.88C91.6065 635.172 91.7733 635.384 91.968 635.676C92.3573 636.26 92.7188 636.764 93.1082 637.348C93.2471 637.481 93.3308 637.719 93.4697 637.852C93.6923 638.223 93.998 638.569 94.1927 638.86C94.4984 639.206 94.7209 639.577 94.9988 639.843C95.1656 640.056 95.3602 640.347 95.527 640.56C95.8327 640.905 96.1384 641.251 96.361 641.622C96.5278 641.834 96.6946 642.047 96.8614 642.259C97.3618 642.896 97.9175 643.428 98.4178 644.066C98.5568 644.199 98.6957 644.332 98.8346 644.465C99.2513 644.864 99.6128 645.368 100.029 645.767C100.168 645.9 100.335 646.112 100.474 646.245C101.086 646.936 101.752 647.522 102.364 648.213C102.391 648.292 102.391 648.292 102.502 648.346C103.197 649.011 103.892 649.676 104.558 650.261C104.725 650.474 104.947 650.581 105.114 650.793C105.392 651.059 105.781 651.379 106.058 651.645C106.308 651.831 106.475 652.044 106.725 652.23C107.003 652.496 107.392 652.816 107.669 653.082C107.919 653.268 108.086 653.481 108.308 653.588C108.697 653.907 109.058 654.147 109.364 654.493C109.586 654.6 109.753 654.812 109.975 654.92C110.474 655.293 110.863 655.612 111.363 655.985C111.474 656.039 111.613 656.172 111.641 656.251C112.002 656.491 112.391 656.811 112.752 657.051C112.891 657.184 113.113 657.291 113.279 657.504C113.779 657.877 114.39 658.303 114.89 658.677C115.362 658.97 115.862 659.343 116.362 659.716C116.473 659.77 116.5 659.849 116.611 659.903C117.083 660.197 117.583 660.57 118.055 660.863C118.166 660.917 118.277 660.971 118.305 661.05C118.805 661.423 119.277 661.717 119.86 662.064C119.888 662.143 119.971 662.118 119.999 662.197C120.471 662.491 121.054 662.838 121.526 663.132C121.637 663.185 121.665 663.265 121.776 663.318C121.887 663.372 121.998 663.425 122.109 663.479C122.331 663.586 122.581 663.773 122.803 663.88C122.914 663.933 123.025 663.987 123.164 664.12C123.386 664.227 123.636 664.413 123.858 664.521C123.969 664.574 124.08 664.628 124.191 664.681C124.524 664.842 124.885 665.082 125.218 665.243L125.329 665.296C125.662 665.457 125.912 665.644 126.245 665.804C126.356 665.858 126.467 665.911 126.578 665.965C126.8 666.072 127.05 666.259 127.272 666.366C127.383 666.419 127.494 666.473 127.605 666.526C127.855 666.713 128.16 666.794 128.41 666.981C128.521 667.034 128.632 667.088 128.66 667.167C128.993 667.328 129.354 667.568 129.687 667.729C129.798 667.782 129.826 667.862 129.909 667.836C130.159 668.023 130.464 668.104 130.714 668.29C130.825 668.344 130.936 668.397 131.047 668.451C131.269 668.558 131.519 668.745 131.741 668.852C131.852 668.905 131.963 668.959 132.074 669.013C132.407 669.173 132.657 669.36 132.962 669.441L133.073 669.495C133.406 669.655 133.739 669.816 134.1 670.056C134.211 670.11 134.322 670.163 134.433 670.217C134.655 670.324 134.905 670.51 135.211 670.592C135.322 670.645 135.433 670.699 135.544 670.752C135.766 670.859 135.988 670.967 136.293 671.048C136.404 671.101 136.515 671.155 136.626 671.209C136.959 671.369 137.292 671.53 137.625 671.691C137.625 671.691 137.625 671.691 137.736 671.744C138.069 671.905 138.374 671.986 138.707 672.147C138.818 672.2 138.929 672.254 139.04 672.307C139.262 672.415 139.484 672.522 139.706 672.629C139.817 672.682 139.928 672.736 140.039 672.79C140.262 672.897 140.484 673.004 140.789 673.085C140.9 673.139 140.983 673.113 141.011 673.192C141.344 673.353 141.649 673.434 141.982 673.595C142.093 673.648 142.093 673.648 142.204 673.702C142.426 673.809 142.731 673.89 142.953 673.997C143.064 674.051 143.175 674.104 143.258 674.079C143.48 674.186 143.675 674.213 143.897 674.321C144.008 674.374 144.119 674.428 144.202 674.402C144.424 674.509 144.729 674.59 144.951 674.697C145.034 674.671 145.062 674.751 145.145 674.725C145.45 674.806 144.136 675.265 144.386 675.451C144.497 675.505 144.58 675.479 144.608 675.558C144.83 675.665 145.024 675.693 145.246 675.8C145.357 675.854 145.44 675.828 145.551 675.882C145.745 675.909 145.967 676.016 146.162 676.044C146.273 676.098 146.356 676.072 146.384 676.151C146.689 676.232 147.18 676.493 147.356 676.674L130.697 673.494C130.392 673.413 130.17 673.306 129.893 673.304C129.781 673.25 129.698 673.276 129.67 673.197C129.476 673.169 129.254 673.062 129.06 673.034C128.949 672.981 128.866 673.007 128.755 672.953C128.561 672.925 128.339 672.818 128.117 672.711C128.006 672.658 127.923 672.684 127.895 672.604C127.59 672.523 127.284 672.442 127.034 672.255C126.951 672.281 126.923 672.201 126.84 672.227C126.618 672.12 126.313 672.039 126.091 671.932C125.98 671.878 125.869 671.825 125.786 671.851C125.564 671.743 125.37 671.716 125.148 671.609C125.037 671.555 124.926 671.502 124.843 671.527C124.621 671.42 124.315 671.339 124.093 671.232C123.982 671.178 123.982 671.178 123.871 671.125C123.538 670.964 123.233 670.883 122.9 670.722C122.789 670.669 122.706 670.694 122.678 670.615C122.456 670.508 122.234 670.401 121.929 670.32C121.818 670.266 121.707 670.212 121.596 670.159C121.374 670.052 121.152 669.945 120.93 669.837C120.819 669.784 120.708 669.73 120.597 669.677C120.263 669.516 119.958 669.435 119.625 669.274C119.625 669.274 119.625 669.274 119.514 669.221C119.181 669.06 118.848 668.899 118.515 668.739C118.404 668.685 118.293 668.631 118.182 668.578C117.96 668.471 117.738 668.364 117.405 668.203C117.294 668.149 117.183 668.096 117.072 668.042C116.85 667.935 116.517 667.774 116.295 667.667C116.184 667.614 116.073 667.56 115.962 667.507C115.629 667.346 115.296 667.185 114.935 666.945L114.824 666.892C114.491 666.731 114.241 666.544 113.935 666.463C113.824 666.41 113.713 666.356 113.602 666.302C113.38 666.195 113.13 666.009 112.908 665.902C112.797 665.848 112.686 665.794 112.575 665.741C112.325 665.554 112.02 665.473 111.77 665.287C111.659 665.233 111.631 665.154 111.548 665.179C111.215 665.019 110.854 664.779 110.521 664.618C110.41 664.564 110.382 664.485 110.299 664.511C110.049 664.324 109.744 664.243 109.494 664.056C109.383 664.003 109.272 663.949 109.161 663.896C108.939 663.789 108.689 663.602 108.467 663.495C108.356 663.441 108.245 663.388 108.134 663.334C107.801 663.174 107.551 662.987 107.218 662.826L107.107 662.773C106.774 662.612 106.413 662.372 106.08 662.211C105.969 662.158 105.858 662.104 105.747 662.051C105.525 661.944 105.275 661.757 105.053 661.65C104.942 661.596 104.831 661.543 104.692 661.41C104.47 661.303 104.22 661.116 103.998 661.009C103.887 660.955 103.776 660.902 103.665 660.848L103.554 660.795C103.526 660.715 103.443 660.741 103.415 660.662C102.943 660.368 102.36 660.021 101.888 659.727C101.86 659.648 101.777 659.674 101.749 659.594C101.249 659.221 100.694 658.953 100.194 658.58C100.083 658.526 99.9724 658.473 99.9445 658.393C99.4726 658.1 98.9727 657.727 98.5008 657.433C98.3897 657.379 98.3618 657.3 98.2508 657.246C97.751 656.873 97.279 656.58 96.7792 656.207C96.2793 655.833 95.6684 655.407 95.1686 655.034C95.0297 654.901 94.8076 654.794 94.6687 654.661C94.3078 654.42 93.919 654.101 93.558 653.861C93.447 653.807 93.4191 653.728 93.2802 653.595C92.7803 653.222 92.3915 652.902 91.8917 652.529C91.6696 652.422 91.5028 652.209 91.2808 652.102C90.892 651.783 90.531 651.543 90.2253 651.197C89.9754 651.011 89.8086 650.798 89.5587 650.612C89.1977 650.372 88.892 650.026 88.6142 649.76C88.3643 649.574 88.1975 649.361 87.9476 649.175C87.6697 648.909 87.3088 648.669 87.0031 648.323C86.8921 648.27 86.7532 648.137 86.7253 648.057C86.6143 648.004 86.5864 647.924 86.4753 647.871C85.7808 647.206 85.1142 646.62 84.4196 645.955C84.3917 645.876 84.3917 645.876 84.2807 645.822C83.6141 645.237 83.0026 644.546 82.3912 643.855C82.2802 643.801 82.2245 643.642 82.1134 643.589C82.0024 643.535 81.9745 643.456 81.8356 643.323C81.4189 642.924 80.9743 642.445 80.6407 642.021C80.5018 641.888 80.3629 641.755 80.224 641.622C79.7514 641.064 79.1679 640.452 78.6675 639.815L78.6396 639.736C78.5007 639.603 78.3339 639.39 78.195 639.257C77.8893 638.912 77.5836 638.566 77.361 638.195C77.1942 637.983 76.9995 637.691 76.8327 637.478C76.527 637.133 76.3324 636.841 76.0266 636.496C75.9988 636.416 75.8878 636.363 75.8599 636.283C75.6652 635.991 75.4705 635.7 75.3037 635.487C75.1648 635.354 75.0811 635.116 74.9422 634.983C74.5807 634.479 74.1913 633.895 73.802 633.311C73.7462 633.152 73.6352 633.099 73.5794 632.94C73.4405 632.807 73.3847 632.648 73.2458 632.515C73.0511 632.223 72.8564 631.931 72.6617 631.639C72.4949 631.427 72.4112 631.189 72.2444 630.976C72.0498 630.684 71.8551 630.393 71.6604 630.101C71.6325 630.021 71.4936 629.888 71.4657 629.809C71.4099 629.65 71.271 629.517 71.2152 629.358C71.0484 629.146 70.9648 628.907 70.798 628.695C70.6033 628.403 70.5196 628.165 70.3249 627.873C70.1581 627.661 70.0745 627.422 69.9077 627.21C69.8798 627.13 69.8519 627.051 69.7409 626.997C69.5741 626.785 69.4625 626.467 69.2957 626.255C69.2399 626.096 69.101 625.963 69.0731 625.884C68.8226 625.433 68.5722 624.982 68.4049 624.505C68.377 624.426 68.3491 624.347 68.3491 624.347C68.1265 623.975 67.9591 623.499 67.7366 623.127C67.6808 622.969 67.625 622.81 67.4861 622.677C67.4303 622.518 67.3746 622.359 67.2078 622.147C67.152 621.988 67.0683 621.749 67.0125 621.591C66.9567 621.432 66.9289 621.352 66.8731 621.193C66.4558 620.53 66.2885 620.054 66.1211 619.577Z" fill="#FB7354"/>
<path d="M78.4479 609.807C75.1306 585.96 86.3905 562.821 104.965 553.044C107.104 551.935 109.384 550.959 111.748 550.223C131.195 543.995 151.708 555.206 159.332 576.38C163.467 587.887 164.225 600.18 163.323 612.811C162.167 628.186 158.675 643.044 153.748 657.549C151.58 663.91 149.075 670.109 146.71 676.443C137.48 673.894 122.172 666.04 112.436 659.118C103.657 652.786 95.4967 645.552 88.9692 636.032C83.8203 628.304 79.8254 619.862 78.4479 609.807ZM127.188 618.988C136.897 613.835 141.712 600.609 137.886 589.449C134.145 578.263 123.226 573.307 113.404 578.407C103.695 583.56 98.8806 596.786 102.734 608.026C106.532 619.106 117.45 624.061 127.188 618.988Z" fill="url(#paint8_linear_158_683)"/>
<defs>
<filter id="filter0_i_158_683" x="31.9927" y="291.072" width="307.273" height="261.228" filterUnits="userSpaceOnUse" color-interpolation-filters="sRGB">
<feFlood flood-opacity="0" result="BackgroundImageFix"/>
<feBlend mode="normal" in="SourceGraphic" in2="BackgroundImageFix" result="shape"/>
<feColorMatrix in="SourceAlpha" type="matrix" values="0 0 0 0 0 0 0 0 0 0 0 0 0 0 0 0 0 0 127 0" result="hardAlpha"/>
<feOffset dx="3" dy="-2"/>
<feGaussianBlur stdDeviation="3.5"/>
<feComposite in2="hardAlpha" operator="arithmetic" k2="-1" k3="1"/>
<feColorMatrix type="matrix" values="0 0 0 0 0.803922 0 0 0 0 0.847059 0 0 0 0 0.968627 0 0 0 1 0"/>
<feBlend mode="normal" in2="shape" result="effect1_innerShadow_158_683"/>
</filter>
<filter id="filter1_i_158_683" x="141.161" y="243.365" width="296.138" height="269.831" filterUnits="userSpaceOnUse" color-interpolation-filters="sRGB">
<feFlood flood-opacity="0" result="BackgroundImageFix"/>
<feBlend mode="normal" in="SourceGraphic" in2="BackgroundImageFix" result="shape"/>
<feColorMatrix in="SourceAlpha" type="matrix" values="0 0 0 0 0 0 0 0 0 0 0 0 0 0 0 0 0 0 127 0" result="hardAlpha"/>
<feOffset dx="6" dy="-6"/>
<feGaussianBlur stdDeviation="3.5"/>
<feComposite in2="hardAlpha" operator="arithmetic" k2="-1" k3="1"/>
<feColorMatrix type="matrix" values="0 0 0 0 0.803922 0 0 0 0 0.847059 0 0 0 0 0.968627 0 0 0 1 0"/>
<feBlend mode="normal" in2="shape" result="effect1_innerShadow_158_683"/>
</filter>
<linearGradient id="paint0_linear_158_683" x1="264.967" y1="531.743" x2="232.842" y2="617.674" gradientUnits="userSpaceOnUse">
<stop stop-color="#E8F0FF"/>
<stop offset="1" stop-color="white"/>
</linearGradient>
<linearGradient id="paint1_linear_158_683" x1="331.5" y1="171.5" x2="227.934" y2="135.824" gradientUnits="userSpaceOnUse">
<stop stop-color="white"/>
<stop offset="1" stop-color="#E8F0FF"/>
</linearGradient>
<linearGradient id="paint2_linear_158_683" x1="264.5" y1="121.5" x2="252.951" y2="62.8046" gradientUnits="userSpaceOnUse">
<stop stop-color="#E8F0FF"/>
<stop offset="1" stop-color="#CDD8F7"/>
</linearGradient>
<linearGradient id="paint3_linear_158_683" x1="342.53" y1="299.73" x2="154.985" y2="420.698" gradientUnits="userSpaceOnUse">
<stop stop-color="white"/>
<stop offset="1" stop-color="#E8F0FF"/>
</linearGradient>
<linearGradient id="paint4_linear_158_683" x1="221.5" y1="27" x2="100" y2="132.5" gradientUnits="userSpaceOnUse">
<stop stop-color="#B565E5"/>
<stop offset="1" stop-color="#7A43EE"/>
</linearGradient>
<linearGradient id="paint5_linear_158_683" x1="321.006" y1="272" x2="321.006" y2="421.275" gradientUnits="userSpaceOnUse">
<stop stop-color="#F8BA55"/>
<stop offset="1" stop-color="#FB7354"/>
</linearGradient>
<linearGradient id="paint6_linear_158_683" x1="321.006" y1="272" x2="321.006" y2="421.275" gradientUnits="userSpaceOnUse">
<stop stop-color="#F8BA55"/>
<stop offset="1" stop-color="#FB7354"/>
</linearGradient>
<linearGradient id="paint7_linear_158_683" x1="269.503" y1="482.5" x2="295.738" y2="323.008" gradientUnits="userSpaceOnUse">
<stop stop-color="#7A43EE"/>
<stop offset="1" stop-color="#B565E6"/>
</linearGradient>
<linearGradient id="paint8_linear_158_683" x1="139.974" y1="694.766" x2="190.038" y2="594.866" gradientUnits="userSpaceOnUse">
<stop stop-color="#FB7354"/>
<stop offset="1" stop-color="#F8BA55"/>
</linearGradient>
</defs>
</svg>
