<svg width="443" height="355" viewBox="0 0 443 355" fill="none" xmlns="http://www.w3.org/2000/svg">
<path d="M323.6 302.264L326 127.81L243.073 174.392L241.45 354.997L323.6 302.264Z" fill="#7A43EE"/>
<path d="M241.45 354.996L243.073 174.392L54.0001 151.278L54.2824 328.842L241.45 354.996Z" fill="url(#paint0_linear_162_329)"/>
<path d="M221.477 321.067L221.83 284.593C221.901 279.857 218.372 275.828 213.643 275.262L174.332 270.455C168.757 269.748 163.887 274.131 163.887 279.715L163.958 315.553C163.958 320.219 167.416 324.106 172.003 324.743L210.891 330.185C216.466 330.963 221.477 326.651 221.477 321.067Z" fill="#B565E5"/>
<path d="M54 151.278L243.073 174.393L326 127.81L142.291 106.392L54 151.278Z" fill="url(#paint1_linear_162_329)"/>
<path d="M221.618 260.983L221.83 241.262C221.83 238.717 219.924 236.526 217.383 236.243L196.14 233.628C193.105 233.274 190.494 235.607 190.494 238.646V258.015C190.494 260.559 192.329 262.68 194.87 263.033L215.901 266.002C218.936 266.356 221.618 264.023 221.618 260.983Z" fill="#7A43EE"/>
<path d="M179.978 255.329L180.19 235.607C180.19 233.062 178.284 230.871 175.744 230.588L170.027 230.094C166.992 229.74 164.381 232.073 164.381 235.112V254.48C164.381 257.025 166.216 259.146 168.757 259.499L174.262 260.347C177.296 260.701 179.978 258.368 179.978 255.329Z" fill="#7A43EE"/>
<path d="M127.893 104.766C127.964 108.089 131.916 110.138 134.527 111.34C138.127 113.037 141.938 114.097 145.82 115.016C154.43 117.066 163.322 118.055 172.215 118.621C181.39 119.186 190.635 119.257 199.81 118.833C208.703 118.409 217.595 117.561 226.417 115.935C230.793 115.157 235.239 114.097 239.474 112.683C241.521 111.976 243.567 111.199 245.473 110.28C247.308 109.361 249.284 108.23 250.625 106.533C251.26 105.685 251.754 104.696 251.754 103.635C251.754 104.696 251.754 105.756 251.754 106.887C251.754 109.856 251.825 112.825 251.825 115.793C251.825 120.247 251.966 117.207 251.966 121.731C251.966 124.771 252.037 127.81 252.037 130.85C252.037 132.051 252.107 133.253 252.037 134.384C251.966 136.787 250.272 138.696 248.508 140.11C246.179 141.877 243.497 143.22 240.815 144.28C235.592 146.33 230.158 147.673 224.653 148.733C214.702 150.642 204.539 151.561 194.446 151.773C183.648 152.056 172.85 151.631 162.193 150.147C156.829 149.44 151.536 148.451 146.314 146.966C142.15 145.764 137.986 144.351 134.316 142.018C132.975 141.17 131.634 140.11 130.646 138.766C129.517 137.211 129.446 135.656 129.446 133.748C129.305 127.103 127.964 111.411 127.893 104.766Z" fill="url(#paint2_linear_162_329)"/>
<path d="M160.5 117.56C168.122 118.479 176.238 118.974 184.354 119.045C192.471 119.116 200.587 118.833 208.209 118.197C215.831 117.56 223.03 116.571 229.311 115.298C235.522 114.026 240.886 112.4 244.767 110.492C248.72 108.654 250.837 106.675 251.472 104.695C252.037 102.787 251.049 100.878 248.649 99.0406C246.249 97.2734 242.438 95.5769 237.286 94.1632C232.205 92.7495 225.853 91.5478 218.372 90.6289C210.891 89.7806 202.986 89.2858 195.082 89.2151C187.177 89.1445 179.273 89.3565 171.792 89.9927C164.311 90.6289 157.253 91.5478 151.042 92.8202C144.832 94.0925 139.468 95.6476 135.445 97.4855C131.352 99.3233 129.023 101.232 128.246 103.14C127.47 105.049 128.246 107.028 130.505 108.795C132.763 110.633 136.504 112.33 141.515 113.814C146.455 115.44 152.877 116.642 160.5 117.56Z" fill="#E8F0FF"/>
<path d="M148.36 102.08C148.36 102.08 151.889 111.269 190.353 111.269C228.817 111.269 232.346 102.08 232.346 102.08V84.0551C232.346 60.7992 213.572 41.9966 190.353 41.9966C167.133 41.9966 148.36 60.7992 148.36 84.0551V102.08Z" fill="url(#paint3_linear_162_329)"/>
<path d="M181.884 97.8389C175.842 97.8389 170.945 90.8765 170.945 82.2879C170.945 73.6993 175.842 66.7368 181.884 66.7368C187.926 66.7368 192.823 73.6993 192.823 82.2879C192.823 90.8765 187.926 97.8389 181.884 97.8389Z" fill="#FB7354"/>
<path d="M193.882 99.9595C187.84 99.9595 182.943 92.9971 182.943 84.4085C182.943 75.8199 187.84 68.8574 193.882 68.8574C199.924 68.8574 204.821 75.8199 204.821 84.4085C204.821 92.9971 199.924 99.9595 193.882 99.9595Z" fill="#F8BA55"/>
<path d="M409.203 117.622C414.836 122.034 420.818 129.316 424.838 136.036C426.22 138.416 427.045 141.01 425.173 142.985L363.546 209.233C360.451 212.521 363.212 217.865 367.66 217.324L371.032 216.914C371.965 216.801 372.933 216.975 373.711 217.39L377.069 213.268C380.399 214.902 383.487 224.138 378.553 227.868C378.553 227.868 303.297 289.22 290.382 290.789C277.467 292.359 298.549 272.322 301.514 267.957L330.618 224.666C330.925 224.192 331.159 223.726 331.305 223.126L347.381 159.502C347.618 158.454 348.302 157.497 349.165 156.81L398.987 119.228C400.721 117.925 407.442 116.307 409.203 117.622Z" fill="#FB7354"/>
<path d="M359.892 105.486L300.832 189.26C299.03 191.809 299.664 195.227 302.213 197.029L320.325 209.462C322.713 211.138 323.464 214.323 321.949 216.837L282.428 283.456C279.29 288.789 285.958 294.531 290.715 290.531L375.506 219.575C378.284 217.271 378.12 212.922 375.177 210.877L356.352 197.366C353.722 195.501 353.269 191.77 355.366 189.258L410.363 124.762C412.982 121.75 411.537 117.047 407.757 115.905L365.969 103.364C363.703 102.693 361.262 103.572 359.892 105.486Z" fill="url(#paint4_linear_162_329)"/>
<path d="M26.489 10.8521C29.8107 8.53203 34.7443 6.49818 39.0487 5.43339C40.5664 5.07933 42.1076 5.06197 42.8672 6.40234L68.5408 50.7418C69.8093 52.9623 73.16 52.3517 73.6036 49.8532L73.9399 47.9592C74.0329 47.4353 74.2871 46.9401 74.6407 46.5872L72.9647 44.0865C74.4008 42.554 79.9133 42.4104 81.1167 45.7001C81.1167 45.7001 101.883 96.609 100.595 103.863C99.3069 111.116 91.9463 96.3829 90.0733 94.055L71.4476 71.1277C71.2416 70.8833 71.0284 70.6791 70.7275 70.501L38.9344 51.2633C38.406 50.9616 38.0012 50.4325 37.7718 49.8514L25.6673 16.6505C25.2489 15.4954 25.4853 11.5884 26.489 10.8521Z" fill="#FB7354"/>
<path d="M11.7549 35.5462L47.3444 81.3968C48.4265 82.7944 50.3823 83.0169 51.7799 81.9348L61.5111 74.185C62.8138 73.1692 64.663 73.2897 65.7737 74.5261L95.3077 106.956C97.6759 109.538 101.889 106.877 100.511 103.639L76.1218 45.9767C75.3342 44.091 72.9521 43.4602 71.3575 44.7151L60.9243 52.6729C59.4792 53.7881 57.3837 53.4161 56.3706 51.8644L30.5483 11.406C29.3507 9.48908 26.5648 9.49329 25.3205 11.3508L11.6117 31.9043C10.8732 33.0202 10.9451 34.4879 11.7549 35.5462Z" fill="url(#paint5_linear_162_329)"/>
<path d="M336.068 30.2482C338.079 31.8847 340.197 34.5634 341.608 37.025C342.093 37.8968 342.374 38.8421 341.683 39.545L318.908 63.1317C317.765 64.3024 318.729 66.257 320.344 66.0911L321.569 65.9653C321.908 65.9305 322.257 66 322.536 66.1556L323.781 64.685C324.976 65.2994 326.033 68.6664 324.22 69.9847C324.22 69.9847 296.541 91.7056 291.851 92.1873C287.161 92.6689 294.934 85.5516 296.038 83.9901L306.874 68.5014C306.989 68.3317 307.077 68.1646 307.134 67.9482L313.387 45.0051C313.48 44.6269 313.734 44.2848 314.051 44.0416L332.355 30.7611C332.993 30.3007 335.438 29.7599 336.068 30.2482Z" fill="#CDD8F7"/>
<path d="M318.283 25.5192L296.321 55.4732C295.651 56.3846 295.857 57.6272 296.769 58.2971L303.247 62.9239C304.101 63.5471 304.352 64.7062 303.786 65.6068L289.018 89.4771C287.845 91.3879 290.223 93.5134 291.973 92.0962L323.172 66.9597C324.194 66.1438 324.163 64.5671 323.111 63.8064L316.381 58.7841C315.441 58.0907 315.302 56.7359 316.079 55.8399L336.439 32.8434C337.409 31.7697 336.917 30.0561 335.555 29.6167L320.499 24.7914C319.683 24.5329 318.792 24.835 318.283 25.5192Z" fill="url(#paint6_linear_162_329)"/>
<defs>
<linearGradient id="paint0_linear_162_329" x1="174" y1="381.997" x2="127" y2="203.997" gradientUnits="userSpaceOnUse">
<stop stop-color="#7A43EE"/>
<stop offset="1" stop-color="#B565E6"/>
</linearGradient>
<linearGradient id="paint1_linear_162_329" x1="223.5" y1="207.997" x2="203.5" y2="112.997" gradientUnits="userSpaceOnUse">
<stop stop-color="#7A43EE"/>
<stop offset="1" stop-color="#B565E6"/>
</linearGradient>
<linearGradient id="paint2_linear_162_329" x1="128" y1="127.998" x2="252" y2="127.998" gradientUnits="userSpaceOnUse">
<stop stop-color="white"/>
<stop offset="1" stop-color="#CDD8F7"/>
</linearGradient>
<linearGradient id="paint3_linear_162_329" x1="148.36" y1="76.633" x2="232.346" y2="76.633" gradientUnits="userSpaceOnUse">
<stop stop-color="#F8BA55"/>
<stop offset="1" stop-color="#FB7354"/>
</linearGradient>
<linearGradient id="paint4_linear_162_329" x1="354.604" y1="134.458" x2="386.074" y2="279.472" gradientUnits="userSpaceOnUse">
<stop offset="0.197713" stop-color="#F8BA55"/>
<stop offset="1" stop-color="#FB7354"/>
</linearGradient>
<linearGradient id="paint5_linear_162_329" x1="26.5685" y1="43.2058" x2="110.307" y2="50.1687" gradientUnits="userSpaceOnUse">
<stop stop-color="#F8BA55"/>
<stop offset="1" stop-color="#FB7354"/>
</linearGradient>
<linearGradient id="paint6_linear_162_329" x1="316.172" y1="35.9803" x2="326.597" y2="88.732" gradientUnits="userSpaceOnUse">
<stop stop-color="#E8F0FF"/>
<stop offset="1" stop-color="#CDD8F7"/>
</linearGradient>
</defs>
</svg>
