<svg width="429" height="425" viewBox="0 0 429 425" fill="none" xmlns="http://www.w3.org/2000/svg">
<path d="M38.3071 417.796L76.6459 371.28C77.1582 369.975 78.2852 369.035 79.6171 368.722L151.231 354L141.498 406.728L42.9174 423.434C39.7414 424.113 37.0776 420.876 38.3071 417.796Z" fill="#E8F0FF"/>
<path d="M221.411 370.706L151.231 354L141.498 406.728L221.411 425V370.706Z" fill="#636363"/>
<path d="M221.411 370.706L151.231 354L141.498 406.728L221.411 425V370.706Z" fill="url(#paint0_linear_158_472)"/>
<path d="M294.151 354L303.372 407.25L221.41 425V370.706L294.151 354Z" fill="#E8F0FF"/>
<path d="M367.251 369.192L294.151 354L303.372 407.25L402.26 423.538C405.385 424.165 408.049 421.085 406.922 418.004L370.273 371.854C369.761 370.497 368.634 369.505 367.251 369.192Z" fill="url(#paint1_linear_158_472)"/>
<g filter="url(#filter0_i_158_472)">
<path d="M307.384 129.696L34.1132 129C29.3296 129 24.807 129.957 20.7192 131.696C16.6315 133.436 12.8916 135.958 9.84752 139.089C6.80344 142.22 4.28121 145.873 2.62871 150.048C0.976209 154.135 0.106473 158.745 0.193446 163.442L1.23713 202.493C1.3241 207.189 2.45476 211.712 4.36818 215.8C6.2816 219.887 8.89081 223.453 12.1088 226.497C15.3269 229.541 19.1537 231.89 23.3284 233.542C27.5032 235.195 32.0258 235.978 36.8093 235.891L308.515 229.541C312.603 229.455 316.603 228.498 320.082 226.758C323.648 225.106 326.779 222.671 329.475 219.8C332.085 216.93 334.259 213.451 335.738 209.625C337.216 205.798 337.999 201.71 337.912 197.361L337.564 161.441C337.477 157.092 336.607 152.918 335.129 149.178C333.563 145.351 331.389 141.959 328.693 139.089C325.997 136.219 322.692 133.871 319.126 132.305C315.473 130.566 311.472 129.696 307.384 129.696Z" fill="#E8F0FF"/>
</g>
<path d="M301.383 166.747L110.302 168.138C108.388 168.138 106.649 168.573 104.996 169.269C103.344 169.965 101.952 171.008 100.735 172.226C99.5169 173.531 98.5602 175.009 97.8644 176.662C97.1686 178.314 96.8207 180.141 96.9077 182.054C96.9077 183.967 97.3425 185.794 98.1253 187.446C98.8211 189.099 99.8648 190.577 101.169 191.795C102.474 193.013 103.953 194.056 105.605 194.665C107.258 195.361 109.084 195.709 110.997 195.709L301.817 193.013C303.557 193.013 305.122 192.578 306.601 191.882C308.08 191.186 309.384 190.229 310.515 189.012C311.645 187.794 312.515 186.403 313.124 184.837C313.733 183.272 314.081 181.532 313.994 179.706C313.994 177.879 313.646 176.14 312.95 174.661C312.341 173.096 311.385 171.704 310.254 170.486C309.123 169.269 307.732 168.399 306.253 167.703C304.775 167.094 303.122 166.747 301.383 166.747Z" fill="#CDD8F7"/>
<path d="M277.389 167L110.302 168.137C108.388 168.137 106.649 168.572 104.996 169.268C103.344 169.964 101.952 171.007 100.735 172.225C99.5169 173.53 98.5602 175.008 97.8644 176.661C97.1686 178.313 96.8207 180.14 96.9077 182.053C96.9077 183.966 97.3425 185.793 98.1253 187.445C98.8211 189.098 99.8648 190.576 101.169 191.794C102.474 193.012 103.953 194.055 105.605 194.664C107.258 195.36 109.084 195.708 110.997 195.708L277.824 193.266C279.563 193.266 281.129 192.831 282.607 192.135C284.086 191.44 285.39 190.483 286.521 189.265C287.652 188.048 288.521 186.656 289.13 185.091C289.739 183.525 290.087 181.786 290 179.959C290 178.133 289.652 176.393 288.956 174.915C288.348 173.349 287.391 171.957 286.26 170.74C285.129 169.522 283.738 168.652 282.259 167.957C280.781 167.348 279.128 167 277.389 167Z" fill="url(#paint2_linear_158_472)"/>
<path d="M65.5104 190.056C65.4234 190.056 65.3364 190.056 65.1625 190.056C65.0755 190.056 64.9885 190.056 64.8146 189.969C64.7276 189.969 64.6407 189.882 64.4667 189.882C64.3797 189.882 64.2058 189.795 64.1188 189.708C63.51 189.447 62.9012 189.099 62.2054 188.838C61.5966 188.577 60.9878 188.229 60.292 187.968C59.6832 187.707 59.0743 187.359 58.3786 187.099C57.7697 186.838 57.1609 186.49 56.4651 186.229C56.2042 186.142 56.0303 186.055 55.7693 185.881C55.5084 185.794 55.3345 185.707 55.0736 185.533C54.8126 185.446 54.6387 185.359 54.3778 185.185C54.1168 185.098 53.9429 185.011 53.682 184.837C53.4211 184.75 53.1601 184.576 52.9862 184.402C52.8122 184.228 52.6383 184.054 52.4643 183.881C52.2904 183.707 52.2034 183.446 52.1165 183.185C52.3774 183.011 52.3774 182.663 52.3774 182.402C52.3774 181.358 52.2904 180.315 52.2904 179.271C52.2904 178.227 52.2034 177.184 52.2034 176.14C52.2034 175.096 52.1165 174.053 52.1165 173.009C52.1165 171.965 52.0295 170.921 52.0295 169.878C52.0295 169.53 52.1165 169.095 52.2034 168.834C52.2904 168.486 52.4643 168.225 52.7253 167.964C52.9862 167.703 53.2471 167.53 53.508 167.443C53.8559 167.269 54.1168 167.269 54.5517 167.269C54.8996 167.269 55.2475 167.356 55.5954 167.443C55.9433 167.53 56.2042 167.79 56.4651 167.964C56.726 168.225 56.9 168.486 56.987 168.834C57.1609 169.182 57.1609 169.53 57.2479 169.878C57.2479 170.313 57.2479 170.748 57.2479 171.182C57.2479 171.617 57.2479 172.052 57.2479 172.487C57.2479 172.922 57.2479 173.357 57.2479 173.792C57.2479 174.226 57.2479 174.661 57.2479 175.096C57.2479 175.531 57.2479 175.966 57.2479 176.401C57.2479 176.836 57.2479 177.271 57.2479 177.705C57.2479 178.14 57.2479 178.575 57.2479 179.01C57.2479 179.445 57.2479 179.88 57.2479 180.315C57.2479 180.402 57.2479 180.489 57.2479 180.576C57.2479 180.663 57.3349 180.75 57.3349 180.75C57.3349 180.836 57.4218 180.836 57.5088 180.923C57.5958 181.01 57.6828 181.01 57.7697 181.097C58.4655 181.445 59.1613 181.793 59.8571 182.141C60.5529 182.489 61.2487 182.837 61.9445 183.185C62.6403 183.533 63.336 183.881 64.0318 184.228C64.7276 184.576 65.4234 184.924 66.1192 185.272C66.3801 185.446 66.641 185.533 66.815 185.794C66.9889 185.968 67.1629 186.229 67.3368 186.403C67.5108 186.664 67.5978 186.838 67.5978 187.099C67.6847 187.359 67.6847 187.62 67.5978 187.881C67.5978 188.229 67.4238 188.577 67.3368 188.838C67.1629 189.099 66.9889 189.36 66.815 189.534C66.5541 189.708 66.3801 189.882 66.0322 189.969C66.1192 190.056 65.7713 190.056 65.5104 190.056ZM54.2908 156.832C54.2038 156.832 54.2038 156.832 54.2908 156.832C50.7249 156.832 47.3329 157.615 44.2019 158.919C41.1578 160.224 38.3746 162.137 36.1133 164.485C33.852 166.834 31.9386 169.617 30.7209 172.748C29.5033 175.879 28.8075 179.271 28.8945 182.837C28.9815 186.403 29.7642 189.795 31.1558 192.839C32.5474 195.883 34.5478 198.666 36.8961 200.927C39.3313 203.189 42.1145 205.102 45.2455 206.32C48.3766 207.537 51.7686 208.233 55.2475 208.233C58.8134 208.146 62.2924 207.363 65.3364 206.059C68.3805 204.754 71.1637 202.841 73.425 200.493C75.6863 198.144 77.5127 195.361 78.7304 192.317C79.948 189.273 80.5568 185.881 80.5568 182.315C80.4698 178.749 79.6871 175.444 78.2955 172.4C76.9039 169.356 74.9905 166.573 72.6422 164.311C70.2939 161.963 67.4238 160.137 64.2928 158.832C61.2487 157.528 57.8567 156.745 54.2908 156.832Z" fill="url(#paint3_linear_158_472)"/>
<g filter="url(#filter1_i_158_472)">
<path d="M378.354 245.547L107.083 253.809C102.387 253.983 97.8643 255.027 93.7765 256.853C89.6887 258.68 86.0358 261.289 82.9918 264.507C79.9477 267.725 77.5124 271.465 75.8599 275.553C74.2074 279.64 73.3377 284.163 73.5116 288.86L74.5553 327.389C74.6423 332.086 75.773 336.434 77.5994 340.435C79.4258 344.349 82.122 347.915 85.3401 350.785C88.5581 353.655 92.2979 355.916 96.4727 357.395C100.647 358.873 105.17 359.569 109.867 359.308L379.572 344.175C383.66 343.914 387.573 342.87 391.052 341.044C394.531 339.304 397.749 336.782 400.358 333.825C402.968 330.868 405.142 327.389 406.534 323.649C408.012 319.822 408.795 315.735 408.708 311.473L408.36 275.988C408.273 271.639 407.49 267.638 405.925 263.898C404.359 260.245 402.185 256.94 399.489 254.157C396.793 251.374 393.575 249.2 390.009 247.721C386.443 246.156 382.529 245.373 378.354 245.547Z" fill="#E8F0FF"/>
</g>
<path d="M372.527 282.336L182.751 289.903C180.837 289.99 179.098 290.425 177.445 291.208C175.793 291.991 174.401 293.034 173.184 294.339C171.966 295.643 171.009 297.122 170.314 298.774C169.618 300.427 169.357 302.253 169.357 304.167C169.357 306.08 169.792 307.82 170.575 309.472C171.27 311.038 172.314 312.516 173.619 313.647C174.923 314.865 176.402 315.734 178.054 316.343C179.707 316.952 181.533 317.213 183.36 317.126L372.875 308.255C374.615 308.168 376.18 307.733 377.659 307.037C379.137 306.341 380.442 305.297 381.573 304.08C382.703 302.862 383.573 301.384 384.182 299.818C384.791 298.253 385.138 296.513 385.051 294.774C385.051 292.947 384.704 291.295 384.008 289.816C383.399 288.338 382.442 286.946 381.312 285.815C380.181 284.685 378.876 283.815 377.398 283.206C375.832 282.597 374.18 282.249 372.527 282.336Z" fill="#CDD8F7"/>
<path d="M281 286L182.751 289.908C180.837 289.995 179.098 290.43 177.445 291.213C175.793 291.995 174.401 293.039 173.184 294.344C171.966 295.648 171.009 297.127 170.314 298.779C169.618 300.432 169.357 302.258 169.357 304.172C169.357 306.085 169.792 307.825 170.575 309.477C171.27 311.043 172.314 312.521 173.619 313.652C174.923 314.87 176.402 315.739 178.054 316.348C179.707 316.957 181.533 317.218 183.36 317.131L281.848 312.418C283.588 312.331 285.153 311.896 286.632 311.2C288.11 310.505 289.415 309.461 290.546 308.243C291.676 307.026 292.546 305.547 293.155 303.982C293.764 302.416 294.112 300.677 294.025 298.937C294.025 297.111 293.677 295.458 292.981 293.98C292.372 292.501 291.415 291.109 290.285 289.979C289.154 288.848 287.479 287.609 286 287C284.435 286.391 282.653 285.913 281 286Z" fill="url(#paint4_linear_158_472)"/>
<path d="M127.523 289.555C125.261 289.642 123.087 290.164 121.087 291.121C119.086 291.99 117.347 293.295 115.868 294.861C114.39 296.426 113.259 298.253 112.389 300.166C111.607 302.166 111.172 304.341 111.259 306.602C111.346 308.863 111.78 310.951 112.737 312.951C113.607 314.864 114.912 316.604 116.39 317.996C117.956 319.387 119.782 320.518 121.782 321.301C123.783 322.083 125.957 322.431 128.218 322.257C130.48 322.17 132.654 321.561 134.568 320.692C136.481 319.735 138.22 318.517 139.699 316.952C141.178 315.386 142.308 313.647 143.091 311.646C143.874 309.646 144.309 307.472 144.222 305.297C144.135 303.036 143.7 300.949 142.83 299.035C141.96 297.122 140.743 295.382 139.177 293.991C137.612 292.599 135.872 291.469 133.872 290.686C132.045 289.816 129.784 289.468 127.523 289.555ZM128.392 325.127C125.696 325.214 123.087 324.866 120.739 323.997C118.39 323.127 116.216 321.822 114.39 320.17C112.563 318.517 111.085 316.517 110.041 314.169C108.997 311.907 108.389 309.385 108.302 306.689C108.215 303.993 108.736 301.471 109.693 299.122C110.65 296.774 112.041 294.6 113.781 292.773C115.52 290.947 117.608 289.468 119.956 288.338C122.304 287.294 124.827 286.598 127.523 286.511C130.219 286.424 132.828 286.859 135.176 287.729C137.525 288.598 139.612 289.99 141.438 291.643C143.265 293.295 144.656 295.295 145.7 297.557C146.744 299.818 147.353 302.34 147.353 304.949C147.44 307.559 146.918 310.168 145.961 312.516C145.004 314.864 143.7 316.952 141.96 318.778C140.221 320.605 138.22 322.083 135.872 323.214C133.611 324.345 131.089 325.04 128.392 325.127ZM128.914 280.423C128.653 280.423 128.392 280.423 128.132 280.423C127.871 280.423 127.61 280.423 127.349 280.423C127.088 280.423 126.827 280.423 126.566 280.423C126.305 280.423 126.044 280.423 125.783 280.423C125.522 280.423 125.348 280.51 125.087 280.51C124.827 280.51 124.653 280.597 124.392 280.597C124.131 280.597 123.957 280.684 123.696 280.684C123.435 280.684 123.261 280.771 123 280.858C121.174 281.293 119.434 281.814 117.869 282.51C116.216 283.206 114.738 284.076 113.346 285.033C111.954 285.989 110.65 287.12 109.432 288.424C108.215 289.729 107.084 291.121 106.127 292.686C105.518 293.643 104.997 294.6 104.562 295.556C104.127 296.513 103.692 297.557 103.344 298.513C102.996 299.557 102.735 300.601 102.561 301.644C102.387 302.688 102.213 303.732 102.213 304.862V304.949V305.036V305.123V305.21C102.213 305.471 102.213 305.732 102.213 305.993C102.213 306.254 102.213 306.515 102.213 306.776C102.213 307.037 102.213 307.298 102.213 307.559C102.213 307.82 102.213 308.081 102.213 308.341C102.213 308.602 102.3 308.776 102.3 309.037C102.3 309.298 102.387 309.472 102.387 309.733C102.387 309.994 102.474 310.168 102.474 310.429C102.474 310.69 102.561 310.864 102.648 311.125C102.996 312.69 103.431 314.169 104.04 315.56C104.649 316.952 105.344 318.256 106.127 319.561C106.91 320.779 107.867 321.996 108.91 323.127C109.954 324.258 111.172 325.214 112.389 326.171C113.433 326.867 114.39 327.563 115.52 328.084C116.564 328.606 117.695 329.128 118.825 329.563C119.956 329.998 121.087 330.259 122.304 330.52C123.522 330.781 124.74 330.868 125.957 330.955C126.044 330.955 126.131 330.955 126.218 330.955C126.305 330.955 126.392 330.955 126.479 330.955C126.566 330.955 126.653 330.955 126.74 330.955C126.827 330.955 126.914 330.955 127.001 330.955C127.262 330.955 127.523 330.955 127.784 330.955C128.045 330.955 128.305 330.955 128.566 330.955C128.827 330.955 129.088 330.955 129.349 330.955C129.61 330.955 129.871 330.955 130.132 330.955C130.393 330.868 130.567 330.868 130.828 330.868C131.089 330.868 131.263 330.781 131.523 330.781C131.784 330.781 131.958 330.694 132.219 330.607C132.48 330.52 132.654 330.52 132.915 330.433C134.828 329.998 136.655 329.389 138.307 328.606C139.96 327.824 141.525 326.954 143.004 325.823C144.483 324.779 145.787 323.475 147.005 322.17C148.222 320.779 149.266 319.213 150.223 317.561C150.745 316.691 151.18 315.821 151.527 314.951C151.875 314.082 152.223 313.125 152.484 312.255C152.745 311.299 152.919 310.429 153.093 309.472C153.267 308.515 153.354 307.559 153.441 306.602V306.515V306.428V306.341V306.254C153.441 305.993 153.441 305.732 153.441 305.471C153.441 305.21 153.441 304.949 153.441 304.689C153.441 304.428 153.441 304.167 153.441 303.906C153.441 303.645 153.441 303.384 153.441 303.123C153.441 302.862 153.354 302.688 153.354 302.427C153.354 302.166 153.267 301.992 153.267 301.731C153.267 301.471 153.18 301.297 153.18 301.036C153.18 300.775 153.093 300.601 153.093 300.34C152.832 298.948 152.397 297.557 151.875 296.252C151.353 294.948 150.745 293.73 150.049 292.512C149.353 291.295 148.57 290.251 147.614 289.207C146.744 288.164 145.7 287.12 144.57 286.25C143.613 285.467 142.656 284.772 141.699 284.163C140.656 283.554 139.612 282.945 138.568 282.51C137.525 282.075 136.394 281.641 135.176 281.293C134.046 280.945 132.828 280.771 131.61 280.597C131.35 280.597 131.176 280.51 130.915 280.51C130.654 280.51 130.48 280.51 130.219 280.423C129.958 280.423 129.784 280.423 129.523 280.336C129.349 280.51 129.175 280.51 128.914 280.423Z" fill="url(#paint5_linear_158_472)"/>
<path d="M362.406 14.8598L282.208 10.785C276.651 10.4763 271.342 11.4642 266.403 13.5015C261.525 15.4772 257.018 18.5023 253.129 22.2684C249.301 26.0344 246.029 30.6031 243.621 35.6656C241.213 40.8517 239.608 46.4699 239.053 52.5203L234.422 102.096C233.867 108.085 234.36 113.95 235.78 119.445C237.2 124.939 239.546 130.002 242.572 134.509C245.659 139.016 249.486 142.844 253.87 145.807C258.315 148.771 263.316 150.87 268.811 151.734L347.712 164.452C353.886 165.44 359.998 165.069 365.678 163.526C371.42 161.983 376.791 159.204 381.422 155.438C386.114 151.672 390.065 146.918 393.09 141.424C396.115 135.867 398.091 129.632 398.77 122.84L404.326 66.7818C405.006 59.9906 404.326 53.3846 402.474 47.2725C400.622 41.2221 397.659 35.6656 393.769 30.9735C389.941 26.2814 385.188 22.4536 379.878 19.6754C374.569 16.8354 368.703 15.2302 362.406 14.8598Z" fill="url(#paint6_linear_158_472)"/>
<path d="M285.789 105.615C285.295 105.553 284.801 105.368 284.369 105.121C283.937 104.874 283.566 104.504 283.257 104.072C282.949 103.64 282.702 103.146 282.578 102.652C282.455 102.096 282.393 101.54 282.455 100.985C282.517 100.429 282.702 99.8735 282.887 99.3796C283.134 98.8856 283.443 98.4535 283.813 98.1448C284.183 97.7744 284.616 97.5274 285.11 97.3422C285.603 97.157 286.097 97.0952 286.591 97.157C287.085 97.2187 287.579 97.4039 288.011 97.6509C288.443 97.8978 288.814 98.2683 289.123 98.7004C289.431 99.1326 289.678 99.6265 289.802 100.12C289.925 100.676 289.987 101.232 289.925 101.787C289.863 102.405 289.74 102.899 289.493 103.393C289.246 103.886 288.937 104.319 288.567 104.627C288.196 104.936 287.764 105.245 287.27 105.368C286.776 105.615 286.283 105.677 285.789 105.615ZM287.085 91.5388C285.912 91.4153 284.739 91.5388 283.628 91.9092C282.517 92.2796 281.529 92.897 280.664 93.6379C279.8 94.4405 279.059 95.3666 278.504 96.4778C277.948 97.5891 277.577 98.8239 277.392 100.182C277.269 101.54 277.33 102.837 277.639 104.072C277.948 105.306 278.504 106.418 279.183 107.467C279.862 108.455 280.726 109.319 281.776 109.999C282.763 110.678 283.937 111.11 285.171 111.295H285.233H285.295H285.356H285.418C286.591 111.419 287.764 111.295 288.814 110.925C289.925 110.554 290.913 109.937 291.777 109.196C292.642 108.393 293.444 107.406 294 106.294C294.556 105.183 294.988 103.886 295.111 102.528C295.296 101.17 295.173 99.8735 294.864 98.6387C294.556 97.4039 294 96.2309 293.259 95.2431C292.518 94.2553 291.654 93.3909 290.666 92.7118C289.678 92.0944 288.505 91.6005 287.332 91.477H287.27H287.209C287.147 91.5388 287.147 91.5388 287.085 91.5388ZM341.23 112.468C340.674 112.406 340.18 112.221 339.686 111.974C339.254 111.727 338.822 111.357 338.513 110.925C338.205 110.492 337.958 109.999 337.772 109.443C337.587 108.887 337.525 108.332 337.587 107.714C337.649 107.097 337.772 106.541 338.019 106.047C338.266 105.553 338.575 105.06 339.007 104.751C339.378 104.38 339.872 104.072 340.365 103.886C340.859 103.701 341.415 103.64 342.032 103.64C342.032 103.64 342.032 103.64 342.094 103.64C342.156 103.64 342.094 103.64 342.156 103.64C342.218 103.64 342.156 103.64 342.218 103.64C342.279 103.64 342.218 103.64 342.279 103.64C342.835 103.701 343.329 103.886 343.761 104.133C344.193 104.38 344.625 104.751 344.996 105.183C345.305 105.615 345.613 106.109 345.737 106.665C345.922 107.22 345.984 107.776 345.922 108.393C345.86 109.011 345.737 109.566 345.49 110.06C345.243 110.554 344.872 111.048 344.502 111.357C344.07 111.727 343.638 112.036 343.082 112.159C342.588 112.345 342.032 112.406 341.415 112.345C341.415 112.345 341.415 112.345 341.353 112.345C341.292 112.345 341.353 112.345 341.292 112.345C341.292 112.468 341.292 112.468 341.23 112.468ZM342.712 97.7744C341.353 97.6509 340.057 97.7744 338.884 98.1448C337.711 98.5152 336.599 99.1943 335.673 99.9969C334.747 100.8 333.945 101.849 333.327 103.022C332.71 104.195 332.339 105.492 332.154 106.912C332.031 108.332 332.154 109.69 332.463 110.986C332.833 112.283 333.389 113.456 334.192 114.505C334.994 115.555 335.92 116.419 337.032 117.099C338.143 117.778 339.378 118.21 340.674 118.395C341.971 118.58 343.267 118.457 344.502 118.086C345.737 117.716 346.848 117.098 347.836 116.234C348.824 115.432 349.626 114.382 350.244 113.209C350.861 112.036 351.293 110.678 351.417 109.258C351.54 107.838 351.417 106.418 351.046 105.121C350.676 103.825 350.058 102.59 349.256 101.602C348.453 100.553 347.465 99.6883 346.354 99.0091C345.243 98.33 344.008 97.8978 342.712 97.7744ZM333.142 79.0059C332.586 78.9441 332.031 78.8824 331.475 78.8206C330.919 78.7589 330.364 78.6972 329.808 78.6354C329.253 78.5737 328.697 78.512 328.141 78.4502C327.586 78.3885 327.03 78.3267 326.474 78.265C326.042 78.2033 325.672 78.0798 325.301 77.8946C324.931 77.7094 324.622 77.4007 324.375 77.092C324.128 76.7833 323.881 76.4128 323.758 75.9807C323.573 75.5485 323.511 75.1163 323.511 74.6842C323.449 73.8198 323.449 72.8938 323.387 72.0294C323.326 71.1651 323.326 70.239 323.264 69.3747C323.202 68.5103 323.202 67.5842 323.202 66.7199C323.202 65.8556 323.14 64.9295 323.14 64.0651C323.14 64.0034 323.14 63.9417 323.14 63.8799C323.14 63.8182 323.14 63.7565 323.14 63.6947C323.14 63.633 323.14 63.5712 323.14 63.5095C323.14 63.4478 323.14 63.386 323.14 63.2625C323.449 63.2625 323.758 63.3243 324.067 63.3243C324.375 63.3243 324.684 63.386 324.993 63.386C325.301 63.386 325.61 63.4478 325.919 63.4478C326.227 63.4478 326.536 63.5095 326.845 63.5095C327.03 63.5095 327.215 63.5712 327.4 63.5712C327.586 63.5712 327.771 63.633 327.956 63.633C328.141 63.633 328.326 63.6947 328.512 63.6947C328.697 63.6947 328.882 63.7565 329.067 63.7565C329.808 63.8182 330.426 64.0034 331.105 64.2504C331.722 64.4973 332.339 64.806 332.895 65.1764C333.451 65.5469 333.945 65.979 334.439 66.4729C334.932 66.9669 335.303 67.5842 335.735 68.2016C336.229 69.066 336.723 69.9303 337.217 70.7946C337.711 71.659 338.205 72.5233 338.699 73.4494C339.192 74.3137 339.686 75.2398 340.18 76.1042C340.674 76.9685 341.168 77.8946 341.662 78.7589C341.724 78.8206 341.724 78.8824 341.785 78.9441C341.847 79.0059 341.847 79.0676 341.909 79.1911C341.971 79.2528 341.971 79.3763 342.032 79.438C342.094 79.5615 342.156 79.6232 342.218 79.7467C341.415 79.685 340.674 79.6232 339.872 79.4998C339.131 79.438 338.328 79.3763 337.587 79.2528C336.846 79.1911 336.044 79.1293 335.303 79.0059C334.686 79.1293 333.945 79.0676 333.142 79.0059ZM325.116 57.5826C324.622 57.5209 324.067 57.5209 323.573 57.4591C323.079 57.3974 322.523 57.3974 322.029 57.3357C321.535 57.2739 320.98 57.2739 320.486 57.2122C319.992 57.1504 319.436 57.1504 318.942 57.0887C317.46 56.9652 316.041 56.8417 314.559 56.7183C313.139 56.5948 311.657 56.4713 310.237 56.3478C308.817 56.2244 307.335 56.1009 305.915 55.9774C304.495 55.8539 303.075 55.7305 301.655 55.607C299.742 55.4218 297.766 55.2983 295.852 55.1131C293.938 54.9279 292.024 54.8044 290.11 54.6192C288.196 54.4339 286.283 54.3105 284.43 54.1253C282.517 53.94 280.664 53.8166 278.75 53.6313C278.75 53.6313 278.75 53.6313 278.689 53.6313C278.627 53.6313 278.689 53.6313 278.627 53.6313C278.627 53.6313 278.627 53.6313 278.565 53.6313C278.504 53.6313 278.565 53.6313 278.504 53.6313C278.442 53.6313 278.318 53.6313 278.257 53.6313C278.195 53.6313 278.071 53.6313 278.01 53.6313C277.948 53.6313 277.824 53.6313 277.763 53.6313C277.701 53.6313 277.577 53.6313 277.516 53.6313C277.145 53.6931 276.837 53.7548 276.528 53.94C276.219 54.1253 275.972 54.3105 275.787 54.5574C275.602 54.8044 275.417 55.1131 275.293 55.4835C275.17 55.8539 275.108 56.2244 275.108 56.5948C275.108 56.9035 275.17 57.2122 275.231 57.5209C275.293 57.7678 275.417 58.0148 275.602 58.2617C275.787 58.4469 275.972 58.6322 276.157 58.8174C276.343 59.0026 276.59 59.1261 276.837 59.2495C276.837 59.3113 276.837 59.3113 276.837 59.373C276.837 59.4348 276.837 59.4348 276.837 59.4348V59.4965V59.5582C276.528 60.9165 276.219 62.2747 275.849 63.633C275.54 64.9912 275.231 66.3495 274.861 67.7077C274.552 69.066 274.244 70.4242 273.873 71.7825C273.564 73.1407 273.256 74.4989 272.885 75.7955C272.762 76.2894 272.638 76.7833 272.515 77.3389C272.391 77.8328 272.268 78.3267 272.144 78.8824C272.021 79.3763 271.898 79.8702 271.774 80.4258C271.651 80.9198 271.527 81.4137 271.404 81.9693C271.28 83.2658 271.157 84.5623 271.033 85.8588C270.91 87.1553 270.786 88.4519 270.663 89.7484C270.539 91.0449 270.416 92.3414 270.292 93.6379C270.169 94.9344 270.045 96.2309 269.922 97.5274C270.045 97.9596 270.231 98.33 270.416 98.6387C270.601 98.9474 270.848 99.1943 271.095 99.3796C271.342 99.5648 271.651 99.6883 271.898 99.75C272.206 99.8117 272.515 99.8735 272.824 99.9352C272.947 99.9352 273.132 99.9352 273.256 99.9969C273.379 99.9969 273.564 99.9969 273.688 99.9969C273.811 99.9969 273.997 99.9969 274.12 99.9969C274.244 99.9969 274.429 99.9969 274.552 100.059C274.799 98.083 275.417 96.2926 276.219 94.8109C277.022 93.3292 278.071 92.0944 279.183 91.1683C280.356 90.2423 281.652 89.5631 282.949 89.131C284.307 88.6988 285.665 88.5753 286.962 88.6988C286.962 88.6988 286.962 88.6988 287.023 88.6988C287.085 88.6988 287.023 88.6988 287.085 88.6988C287.085 88.6988 287.085 88.6988 287.147 88.6988C287.147 88.6988 287.147 88.6988 287.209 88.6988C288.629 88.884 290.049 89.3162 291.345 90.057C292.642 90.7979 293.815 91.8475 294.802 93.0822C295.79 94.317 296.593 95.7987 297.087 97.4039C297.581 99.0709 297.828 100.861 297.642 102.775C300.235 103.084 302.828 103.393 305.422 103.701C308.015 104.01 310.608 104.319 313.262 104.627C315.917 104.936 318.51 105.245 321.165 105.553C323.82 105.862 326.536 106.171 329.191 106.541C329.438 104.566 330.055 102.775 330.858 101.232C331.722 99.6882 332.833 98.4535 334.068 97.4039C335.365 96.4161 336.785 95.6753 338.266 95.1813C339.748 94.7492 341.292 94.564 342.835 94.7492C342.835 94.7492 342.835 94.7492 342.897 94.7492C342.897 94.7492 342.897 94.7492 342.958 94.7492C342.958 94.7492 342.958 94.7492 343.02 94.7492C343.02 94.7492 343.02 94.7492 343.082 94.7492C344.502 94.9344 345.984 95.4283 347.342 96.1692C348.7 96.91 349.935 97.9596 351.046 99.1943C352.096 100.429 352.96 101.973 353.578 103.701C354.133 105.43 354.442 107.406 354.318 109.505C354.504 109.505 354.627 109.566 354.812 109.566C354.997 109.566 355.121 109.628 355.306 109.628C355.491 109.628 355.615 109.69 355.8 109.69C355.985 109.69 356.109 109.752 356.294 109.752C356.664 109.813 357.035 109.813 357.344 109.813C357.714 109.813 358.023 109.752 358.331 109.628C358.64 109.505 358.949 109.319 359.257 109.073C359.566 108.826 359.813 108.455 360.06 108.023C360.122 107.097 360.245 106.109 360.307 105.183C360.369 104.257 360.492 103.269 360.554 102.343C360.616 101.417 360.739 100.491 360.801 99.503C360.863 98.577 360.986 97.6509 361.048 96.6631C361.048 96.6013 361.048 96.5396 360.986 96.4778C360.986 96.4161 360.986 96.3544 360.924 96.2926C360.924 96.2309 360.924 96.1692 360.863 96.1074C360.863 96.0457 360.863 95.9839 360.863 95.9222C360.801 94.9961 360.616 94.1318 360.43 93.2057C360.245 92.3414 359.937 91.477 359.628 90.6744C359.319 89.8718 358.887 89.0692 358.455 88.3284C357.961 87.5875 357.467 86.9084 356.85 86.2293C356.356 85.7354 355.862 85.2414 355.368 84.7475C354.874 84.2536 354.38 83.7597 353.824 83.2658C353.331 82.7719 352.775 82.3397 352.281 81.8458C351.787 81.3519 351.231 80.9198 350.676 80.4876C350.244 80.1172 349.75 79.685 349.318 79.2528C348.885 78.8206 348.453 78.3885 348.083 77.9563C347.712 77.5241 347.342 77.0302 346.971 76.5363C346.601 76.0424 346.292 75.4868 346.045 74.9311C345.613 74.0668 345.119 73.2024 344.687 72.3381C344.193 71.4738 343.761 70.6712 343.267 69.8068C342.773 68.9425 342.279 68.1399 341.847 67.2756C341.353 66.4729 340.859 65.6086 340.365 64.806C339.81 63.8182 339.192 62.9539 338.513 62.1513C337.834 61.3487 337.093 60.6695 336.291 60.1139C335.488 59.4965 334.624 59.0643 333.698 58.6322C332.772 58.2617 331.784 57.953 330.734 57.8296C330.24 57.7678 329.808 57.7061 329.314 57.6443C328.82 57.5826 328.326 57.5209 327.894 57.4591C327.4 57.3974 326.906 57.3357 326.474 57.3357C326.104 57.6443 325.61 57.6443 325.116 57.5826Z" fill="url(#paint7_linear_158_472)"/>
<path d="M399.017 0.598032C394.139 -0.328045 389.324 -0.14283 384.755 0.906724C380.248 1.95628 375.988 3.87017 372.16 6.52493C368.394 9.17968 365.122 12.5136 362.468 16.4031C359.874 20.2926 357.961 24.7378 356.911 29.6151C355.861 34.4925 355.8 39.3698 356.602 43.9384C357.405 48.5688 359.072 52.9523 361.418 56.8418C363.826 60.793 366.913 64.2504 370.617 67.0286C374.321 69.8069 378.705 71.906 383.52 73.079C388.336 74.252 393.213 74.3138 397.844 73.5112C402.536 72.6468 406.981 70.9182 410.932 68.3251C414.945 65.7321 418.464 62.3982 421.304 58.3235C424.144 54.3105 426.182 49.6184 427.293 44.4941C428.404 39.3698 428.404 34.2455 427.478 29.4299C426.552 24.6143 424.7 20.1074 422.107 16.0944C419.514 12.1431 416.18 8.68577 412.229 6.03102C408.401 3.438 403.894 1.52411 399.017 0.598032Z" fill="url(#paint8_linear_158_472)"/>
<path d="M407.166 26.0341C406.796 25.9724 406.487 25.9106 406.117 25.9106C405.746 25.9106 405.438 25.9724 405.067 26.0341C404.697 26.0959 404.388 26.2193 404.018 26.3428C403.709 26.4663 403.339 26.6515 403.03 26.8985C401.733 27.7628 400.499 28.6271 399.202 29.4915C397.906 30.3558 396.671 31.2202 395.374 32.0228C394.078 32.8871 392.843 33.7514 391.608 34.554C390.374 35.4184 389.077 36.221 387.842 37.0853L387.78 37.147L387.719 37.2088C387.719 37.2088 387.657 37.2705 387.657 37.3323C387.657 37.394 387.595 37.394 387.534 37.4557C387.472 37.394 387.472 37.3323 387.472 37.2705C387.472 37.2088 387.41 37.2088 387.41 37.147C387.41 37.0853 387.348 37.0853 387.348 37.0236C387.348 36.9618 387.287 36.9618 387.287 36.9618C387.04 36.5297 386.731 36.0975 386.484 35.6653C386.237 35.2332 385.928 34.801 385.681 34.3688C385.434 33.9366 385.126 33.5045 384.879 33.0723C384.632 32.6401 384.323 32.208 384.076 31.7758C383.891 31.4671 383.706 31.2202 383.459 30.9732C383.212 30.7262 382.965 30.4793 382.718 30.2941C382.471 30.1089 382.162 29.9236 381.854 29.8002C381.545 29.6767 381.236 29.5532 380.928 29.4915H380.866H380.804H380.742H380.681C380.187 29.368 379.631 29.368 379.137 29.4297C378.643 29.4915 378.149 29.615 377.655 29.8002C377.161 29.9854 376.729 30.2323 376.359 30.6028C375.927 30.9115 375.618 31.3436 375.309 31.7758C375.001 32.208 374.754 32.7019 374.568 33.2575C374.383 33.7514 374.322 34.3071 374.26 34.8627C374.26 35.4184 374.322 35.9123 374.445 36.4679C374.568 36.9618 374.815 37.5175 375.062 37.9496C375.556 38.814 376.112 39.6166 376.606 40.4809C377.1 41.3453 377.655 42.2096 378.211 43.0122C378.767 43.8765 379.261 44.7409 379.816 45.5435C380.372 46.4078 380.866 47.2722 381.421 48.0748C381.607 48.3835 381.854 48.6921 382.101 48.9391C382.348 49.186 382.594 49.433 382.903 49.6182C383.212 49.8034 383.459 49.9886 383.829 50.1121C384.138 50.2356 384.447 50.3591 384.817 50.4208C385.126 50.4826 385.496 50.5443 385.805 50.5443C386.114 50.5443 386.484 50.5443 386.793 50.4826C387.101 50.4208 387.472 50.2973 387.78 50.1739C388.089 50.0504 388.46 49.8652 388.768 49.68C390.435 48.5687 392.102 47.4574 393.831 46.3461C395.498 45.2348 397.226 44.1235 398.893 42.9505C400.622 41.8392 402.289 40.6661 404.018 39.5548C405.746 38.4436 407.413 37.2705 409.142 36.0975C409.821 35.6653 410.377 35.0479 410.809 34.3688C411.241 33.6897 411.488 32.9488 411.55 32.208C411.673 31.4671 411.612 30.6645 411.426 29.9236C411.241 29.1828 410.871 28.4419 410.315 27.8245C410.13 27.5776 409.883 27.3306 409.636 27.1454C409.389 26.9602 409.142 26.775 408.895 26.5898C408.648 26.4663 408.339 26.2811 408.092 26.2193C407.784 26.2193 407.475 26.0959 407.166 26.0341Z" fill="url(#paint9_linear_158_472)"/>
<defs>
<filter id="filter0_i_158_472" x="0.1875" y="117" width="341.731" height="118.897" filterUnits="userSpaceOnUse" color-interpolation-filters="sRGB">
<feFlood flood-opacity="0" result="BackgroundImageFix"/>
<feBlend mode="normal" in="SourceGraphic" in2="BackgroundImageFix" result="shape"/>
<feColorMatrix in="SourceAlpha" type="matrix" values="0 0 0 0 0 0 0 0 0 0 0 0 0 0 0 0 0 0 127 0" result="hardAlpha"/>
<feOffset dx="4" dy="-12"/>
<feGaussianBlur stdDeviation="9"/>
<feComposite in2="hardAlpha" operator="arithmetic" k2="-1" k3="1"/>
<feColorMatrix type="matrix" values="0 0 0 0 0.803922 0 0 0 0 0.847059 0 0 0 0 0.968627 0 0 0 1 0"/>
<feBlend mode="normal" in2="shape" result="effect1_innerShadow_158_472"/>
</filter>
<filter id="filter1_i_158_472" x="73.4897" y="233.523" width="339.225" height="125.839" filterUnits="userSpaceOnUse" color-interpolation-filters="sRGB">
<feFlood flood-opacity="0" result="BackgroundImageFix"/>
<feBlend mode="normal" in="SourceGraphic" in2="BackgroundImageFix" result="shape"/>
<feColorMatrix in="SourceAlpha" type="matrix" values="0 0 0 0 0 0 0 0 0 0 0 0 0 0 0 0 0 0 127 0" result="hardAlpha"/>
<feOffset dx="4" dy="-12"/>
<feGaussianBlur stdDeviation="9"/>
<feComposite in2="hardAlpha" operator="arithmetic" k2="-1" k3="1"/>
<feColorMatrix type="matrix" values="0 0 0 0 0.803922 0 0 0 0 0.847059 0 0 0 0 0.968627 0 0 0 1 0"/>
<feBlend mode="normal" in2="shape" result="effect1_innerShadow_158_472"/>
</filter>
<linearGradient id="paint0_linear_158_472" x1="213.5" y1="378.048" x2="209.006" y2="450.577" gradientUnits="userSpaceOnUse">
<stop stop-color="white"/>
<stop offset="0.670324" stop-color="#E8F0FF"/>
</linearGradient>
<linearGradient id="paint1_linear_158_472" x1="310" y1="359.726" x2="346.552" y2="419.689" gradientUnits="userSpaceOnUse">
<stop stop-color="white"/>
<stop offset="1" stop-color="#E8F0FF"/>
</linearGradient>
<linearGradient id="paint2_linear_158_472" x1="97" y1="181" x2="286" y2="177.5" gradientUnits="userSpaceOnUse">
<stop stop-color="#7A43EE"/>
<stop offset="1" stop-color="#B565E6"/>
</linearGradient>
<linearGradient id="paint3_linear_158_472" x1="80.5568" y1="182.529" x2="28.8872" y2="182.529" gradientUnits="userSpaceOnUse">
<stop stop-color="#F8BA55"/>
<stop offset="1" stop-color="#FB7354"/>
</linearGradient>
<linearGradient id="paint4_linear_158_472" x1="173.5" y1="302" x2="291" y2="299" gradientUnits="userSpaceOnUse">
<stop stop-color="#7A43EE"/>
<stop offset="1" stop-color="#B565E6"/>
</linearGradient>
<linearGradient id="paint5_linear_158_472" x1="153.441" y1="305.645" x2="102.213" y2="305.645" gradientUnits="userSpaceOnUse">
<stop stop-color="#F8BA55"/>
<stop offset="1" stop-color="#FB7354"/>
</linearGradient>
<linearGradient id="paint6_linear_158_472" x1="404.584" y1="87.8648" x2="234.199" y2="87.8648" gradientUnits="userSpaceOnUse">
<stop stop-color="#F8BA55"/>
<stop offset="1" stop-color="#FB7354"/>
</linearGradient>
<linearGradient id="paint7_linear_158_472" x1="319.5" y1="49.5" x2="267" y2="114.5" gradientUnits="userSpaceOnUse">
<stop stop-color="white"/>
<stop offset="1" stop-color="#FBDCAA"/>
</linearGradient>
<linearGradient id="paint8_linear_158_472" x1="393.596" y1="59.7332" x2="397.654" y2="11.5034" gradientUnits="userSpaceOnUse">
<stop stop-color="#7A43EE"/>
<stop offset="1" stop-color="#B565E6"/>
</linearGradient>
<linearGradient id="paint9_linear_158_472" x1="392.937" y1="25.9106" x2="383.5" y2="51" gradientUnits="userSpaceOnUse">
<stop stop-color="white"/>
<stop offset="1" stop-color="#CDD8F7"/>
</linearGradient>
</defs>
</svg>
