<svg width="72" height="72" viewBox="0 0 72 72" fill="none" xmlns="http://www.w3.org/2000/svg">
<g clip-path="url(#clip0_158_450)">
<path d="M45.5487 0C46.4867 0 47.4247 0 48.3627 0C48.494 0.0375 48.6253 0.1125 48.7566 0.13125C54.1219 0.9375 57.9864 3.80625 60.3314 8.6625C61.5508 11.1938 61.8885 13.875 61.5133 16.6875C61.7009 16.7438 61.851 16.8188 62.001 16.8375C64.4586 17.2688 66.9349 17.7375 69.3924 18.1312C70.5367 18.3187 71.5122 18.675 72 19.8187C72 24.75 72 29.6625 72 34.5938C71.6998 35.0625 71.3997 35.5312 71.0808 35.9812C68.8484 39.1312 66.6159 42.2812 64.3835 45.45C64.1959 45.7125 64.0271 46.0125 63.9896 46.3313C63.6894 48.4875 63.4268 50.6438 63.1454 52.8C62.9578 54.3188 62.2074 54.975 60.6691 54.975C58.5117 54.975 56.3544 54.975 54.197 54.975C53.9531 54.975 53.7092 54.975 53.4278 54.975C53.4278 56.1188 53.3903 57.1875 53.4466 58.2375C53.4841 59.175 53.1464 59.8875 52.4898 60.5437C49.0943 63.8812 45.7363 67.2563 42.3596 70.5938C41.8343 71.1187 41.2152 71.5312 40.6524 72C40.2772 72 39.902 72 39.5268 72C39.3392 71.9062 39.1704 71.7938 38.9828 71.7188C34.9495 70.0125 30.9161 68.3062 26.8828 66.6187C25.3445 65.9625 24.9317 64.8187 25.6821 63.3375C26.7327 61.275 27.802 59.2125 28.89 57.1687C29.0964 56.7562 29.1527 56.4188 28.9838 55.9875C27.8583 53.1563 26.7702 50.325 25.6446 47.4938C25.532 47.1938 25.3445 46.9125 25.1193 46.6875C22.0803 43.6313 19.0224 40.575 15.9646 37.5563C15.7394 37.3313 15.3267 37.1625 15.0078 37.1625C10.9557 37.1437 6.9036 37.1062 2.83273 37.1625C1.51954 37.1812 0.562793 36.8063 0 35.5875C0 31.65 0 27.7125 0 23.775C0.431475 23.2688 0.80667 22.7062 1.29442 22.2562C2.68265 20.9625 4.10839 19.7062 5.49661 18.4125C5.72173 18.2062 5.87181 17.8313 5.89057 17.5312C5.92809 15.6188 5.90933 13.6875 5.90933 11.775C5.90933 10.125 6.716 9.31875 8.36686 9.31875C11.2183 9.31875 14.0886 9.31875 16.9401 9.31875C17.184 9.31875 17.4278 9.31875 17.6529 9.31875C17.6905 9.16875 17.7092 9.13125 17.7092 9.09375C17.7092 7.875 17.7092 6.65625 17.7092 5.4375C17.7092 3.6375 18.4784 2.85 20.2606 2.85C23.3747 2.85 26.4888 2.86875 29.6217 2.83125C30.3908 2.83125 31.0287 3 31.6665 3.45C32.8108 4.25625 33.9739 5.04375 35.1558 5.85C35.3059 5.68125 35.4184 5.56875 35.5122 5.4375C37.2006 3.39375 39.283 1.8375 41.7968 0.975C42.9786 0.525 44.2731 0.31875 45.5487 0ZM60.3689 20.8312C60.2751 21.0187 60.2001 21.15 60.1438 21.3C58.7556 24.6562 56.9359 27.75 54.7222 30.6188C53.1464 32.6438 51.4768 34.575 49.2069 35.8688C47.6686 36.75 46.1115 36.825 44.6107 35.8688C43.6915 35.2875 42.7535 34.65 41.9844 33.8812C38.1574 30.1125 35.3809 25.6312 33.3924 20.6625C31.9666 17.1375 31.6477 13.5563 32.9046 9.88125C32.9609 9.7125 32.8108 9.35625 32.642 9.24375C31.5727 8.475 30.5597 7.51875 29.359 7.10625C28.2897 6.75 26.9953 7.0125 25.7947 7.0125C24.7254 7.0125 23.6373 7.0125 22.568 7.0125C22.3616 7.0125 22.1553 7.03125 21.9677 7.05C21.9302 7.14375 21.9114 7.18125 21.9114 7.21875C21.9114 8.475 21.9114 9.75 21.8927 11.0063C21.8927 12.6563 21.086 13.4625 19.4351 13.4625C16.5836 13.4625 13.7134 13.4625 10.8619 13.4625C10.618 13.4625 10.3742 13.4625 10.0928 13.4625C10.0928 15.2438 10.074 16.9313 10.1115 18.6188C10.1303 19.5188 9.7926 20.1938 9.13601 20.775C7.61647 22.125 6.09693 23.4937 4.59614 24.8812C4.37103 25.0875 4.20219 25.4625 4.20219 25.7625C4.16467 27.9375 4.18343 30.1125 4.18343 32.3063C4.18343 32.4938 4.22095 32.6625 4.23971 32.8875C4.53986 32.8875 4.8025 32.8875 5.04638 32.8875C8.72329 32.8875 12.4002 32.9062 16.0959 32.8875C16.9213 32.8875 17.5779 33.15 18.1595 33.75C21.6113 37.2188 25.0818 40.6875 28.5524 44.1562C28.8338 44.4375 29.0964 44.7563 29.2277 45.1125C30.6347 48.675 32.0229 52.2562 33.4299 55.8375C33.7113 56.55 33.5987 57.2063 33.2611 57.8625C32.3981 59.4938 31.5539 61.1437 30.7097 62.7937C30.5972 63.0187 30.4846 63.2438 30.3533 63.5063C33.3549 64.7813 36.3189 66.0188 39.283 67.2375C39.4518 67.3125 39.8082 67.1625 39.9583 67.0125C42.9411 64.0875 45.9052 61.1437 48.8504 58.2C49.0568 57.9937 49.2069 57.6 49.2069 57.3C49.2444 55.9125 49.2256 54.5438 49.2256 53.1562C49.2256 51.6375 50.0698 50.7937 51.5706 50.7937C53.1089 50.7937 54.666 50.7937 56.2043 50.7937C57.1798 50.7937 58.1553 50.7937 59.1683 50.7937C59.3372 49.5375 59.5435 48.375 59.6185 47.175C59.7499 45.3563 60.2939 43.7625 61.4382 42.2812C63.5206 39.5437 65.4528 36.6938 67.4414 33.8625C67.6477 33.5625 67.7791 33.15 67.7978 32.775C67.8166 29.475 67.8166 26.175 67.8166 22.8563C67.8166 22.6313 67.7978 22.4062 67.779 22.1625C65.2652 21.7125 62.864 21.2812 60.3689 20.8312ZM57.555 14.5875C57.2548 7.78125 50.9703 2.94375 44.3669 4.51875C38.6264 5.8875 35.0995 11.7937 36.7879 17.475C38.3262 22.6687 41.1589 27.15 45.0047 30.9375C46.9369 32.8313 46.8244 32.8125 48.7566 30.9375C52.5086 27.2812 55.1912 22.9125 56.8421 17.9437C57.1985 16.8562 57.3299 15.7125 57.555 14.5875ZM53.2027 14.7562C53.2215 18.225 50.4075 21.075 46.9369 21.0938C43.4289 21.1125 40.5774 18.2813 40.5586 14.775C40.5399 11.3063 43.3726 8.45625 46.8244 8.4375C50.3512 8.41875 53.1839 11.25 53.2027 14.7562ZM48.9818 14.7938C49.0005 13.6313 48.0625 12.675 46.9182 12.6562C45.7738 12.6375 44.7983 13.575 44.7983 14.7375C44.7796 15.8812 45.7176 16.8562 46.8619 16.875C48.0063 16.8938 48.963 15.9563 48.9818 14.7938Z" fill="#7A43EE"/>
</g>
<defs>
<clipPath id="clip0_158_450">
<rect width="72" height="72" fill="white"/>
</clipPath>
</defs>
</svg>
