<svg width="72" height="72" viewBox="0 0 72 72" fill="none" xmlns="http://www.w3.org/2000/svg">
<g clip-path="url(#clip0_158_462)">
<path d="M0.0374707 63.5769C0.430913 61.1944 1.92974 59.5435 3.57845 57.9302C8.11241 53.4653 12.5902 48.9255 17.1054 44.4231C18.4169 43.11 19.466 43.11 20.7775 44.4231C21.3958 45.061 22.0141 45.6988 22.5761 46.2991C23.6628 45.2298 24.6745 44.2355 25.7049 43.2037C23.2693 40.3147 21.5082 37.013 20.4778 33.3361C16.637 19.9229 24.2623 5.59041 37.5269 1.3507C39.4567 0.731631 41.4988 0.506514 43.4848 0.112559C43.6721 0.0750391 43.8407 0.0375195 44.0281 0C45.2084 0 46.37 0 47.5504 0C48.4871 0.131318 49.4426 0.262637 50.3794 0.412715C60.4778 2.06357 69.1148 10.2616 71.2881 20.2606C71.5878 21.6488 71.7564 23.0558 72 24.4627C72 25.6821 72 26.9015 72 28.1209C71.7752 29.5091 71.644 30.9161 71.2881 32.248C68.5152 42.6785 61.9016 49.3757 51.4098 51.8332C43.2225 53.7467 35.7471 51.7957 29.1335 46.5618C29.0211 46.468 28.9087 46.3929 28.8337 46.3366C27.822 47.3497 26.8103 48.3627 25.7237 49.4508C26.3981 50.0886 27.1101 50.7452 27.8033 51.4393C28.8525 52.4898 28.8525 53.6717 27.8033 54.7035C22.8009 59.7124 17.7986 64.7024 12.815 69.7301C11.5597 70.987 10.0234 71.6623 8.3185 72C7.70023 72 7.1007 72 6.48244 72C6.35129 71.9625 6.23888 71.8874 6.08899 71.8687C3.12881 71.3059 0.805621 69.0547 0.168618 66.1282C0.131148 65.9218 0.0562061 65.7342 0 65.5279C0.0374707 64.89 0.0374707 64.2335 0.0374707 63.5769ZM23.719 26.2637C23.7377 38.4763 33.5738 48.3064 45.7518 48.2689C57.9485 48.2501 67.7658 38.4012 67.7658 26.2262C67.7471 14.0135 57.8735 4.16467 45.6581 4.20219C33.5363 4.23971 23.7002 14.1261 23.719 26.2637ZM14.6698 61.7196C17.555 58.8306 20.459 55.9229 23.3255 53.0526C21.8829 51.6081 20.4028 50.1261 18.9602 48.6628C16.0749 51.5518 13.171 54.4596 10.3044 57.3299C11.7471 58.7744 13.2459 60.2939 14.6698 61.7196ZM7.1007 60.4252C6.42623 61.0818 5.67682 61.7572 5.02108 62.5076C3.95316 63.7082 4.00937 65.4904 5.03981 66.691C6.08899 67.8916 7.88759 68.2105 9.16159 67.2725C10.0796 66.5972 10.8665 65.7155 11.6534 64.9838C10.0796 63.408 8.59953 61.926 7.1007 60.4252ZM57.9485 26.2262C57.9485 29.5091 57.9485 32.7921 57.9485 36.075C57.9485 37.6884 57.1241 38.495 55.5316 38.495C48.993 38.495 42.4731 38.495 35.9344 38.495C34.3607 38.495 33.5176 37.6509 33.5176 36.0563C33.5176 29.5091 33.5176 22.9807 33.5176 16.4336C33.5176 14.8577 34.3419 14.0323 35.8782 14.0135C42.4543 14.0135 49.0304 14.0135 55.6066 14.0135C57.1429 14.0135 57.9297 14.839 57.9297 16.3773C57.9485 19.6602 57.9485 22.9432 57.9485 26.2262ZM37.7892 18.2533C37.7892 23.6186 37.7892 28.9276 37.7892 34.2178C43.1288 34.2178 48.4122 34.2178 53.6956 34.2178C53.6956 28.8713 53.6956 23.581 53.6956 18.272C51.7471 18.272 49.8361 18.272 47.8501 18.272C47.8501 19.1725 47.8689 20.0354 47.8501 20.8984C47.8314 21.8927 47.2693 22.643 46.3888 22.9057C45.0211 23.3372 43.7096 22.3616 43.6534 20.8421C43.6159 19.9792 43.6534 19.135 43.6534 18.2533C41.63 18.2533 39.7377 18.2533 37.7892 18.2533Z" fill="#7A43EE"/>
</g>
<defs>
<clipPath id="clip0_158_462">
<rect width="72" height="72" fill="white"/>
</clipPath>
</defs>
</svg>
