<svg width="72" height="72" viewBox="0 0 72 72" fill="none" xmlns="http://www.w3.org/2000/svg">
<g clip-path="url(#clip0_158_454)">
<path d="M28.4028 72C19.4473 72 10.5105 72 1.55504 72C0.861827 71.6625 0.337237 71.1563 0 70.4438C0 70.0688 0 69.6938 0 69.3188C0.562061 68.1 1.51756 67.7437 2.82904 67.7437C10.9227 67.7812 19.0351 67.7625 27.1288 67.7625C29.6019 67.7625 31.4754 66.6563 32.7494 64.5375C32.918 64.2563 33.0304 63.9187 33.1991 63.5437C32.8244 63.5437 32.5621 63.5437 32.3185 63.5437C25.9297 63.5437 19.541 63.5437 13.1335 63.5437C11.5035 63.5437 10.5293 62.775 10.5293 61.4438C10.5105 60.1313 11.5035 59.325 13.1148 59.325C14.9696 59.325 16.8056 59.325 18.6604 59.325C19.9719 59.325 20.9087 58.4437 20.9274 57.2437C20.9461 56.0062 19.9906 55.125 18.6417 55.1062C17.3302 55.1062 16.0187 55.125 14.7073 55.1062C10.6042 55.0312 6.93208 56.25 3.67213 58.7812C2.62295 59.6063 1.36768 59.4937 0.599532 58.5562C-0.168618 57.5812 0.0187353 56.3062 1.08665 55.4625C3.24122 53.7562 5.62061 52.4813 8.28103 51.7688C9.68618 51.375 11.1475 51.15 12.6464 50.8313C12.6464 50.6063 12.6464 50.325 12.6464 50.0437C12.6464 42.6562 12.6464 35.2875 12.6464 27.9C12.6464 26.25 13.452 25.4437 15.1007 25.4437C18.9789 25.4437 22.8759 25.4437 26.7541 25.4437C26.9977 25.4437 27.2412 25.4437 27.5222 25.4437C27.5222 25.0875 27.5222 24.825 27.5222 24.5813C27.5222 20.0438 27.5222 15.4875 27.5222 10.95C27.5222 9.24375 28.3279 8.4375 29.9953 8.4375C33.8173 8.4375 37.6206 8.45625 41.4426 8.41875C41.8361 8.41875 42.3232 8.23125 42.6042 7.96875C46.7635 4.3125 51.4848 1.85625 56.8618 0.7125C58.3607 0.39375 59.897 0.225 61.4333 0C64.4309 0 67.4286 0 70.4262 0C71.1194 0.3375 71.644 0.84375 71.9813 1.55625C71.9813 1.93125 71.9813 2.30625 71.9813 2.68125C71.4192 3.9 70.4637 4.29375 69.1522 4.2375C67.2037 4.1625 65.274 4.21875 63.3255 4.21875C59.8407 4.21875 56.4871 4.85625 53.2834 6.20625C51.8782 6.7875 50.548 7.5375 49.1803 8.2125C49.1991 8.2875 49.2365 8.3625 49.2553 8.41875C49.4801 8.41875 49.7049 8.41875 49.9485 8.41875C52.3091 8.41875 54.6698 8.41875 57.0492 8.41875C57.8923 8.41875 58.548 8.79375 58.9415 9.525C59.3536 10.275 59.2974 11.0063 58.8103 11.7C58.5855 12.0188 58.3419 12.3562 58.1171 12.675C57.0867 14.0437 56.0749 15.4125 55.0445 16.7812C54.6698 17.2687 54.4637 17.7937 54.6511 18.4125C54.8571 19.0687 55.2693 19.5188 55.9625 19.65C56.7307 19.8 57.3302 19.5 57.7986 18.8812C59.0164 17.2125 60.2529 15.5812 61.4333 13.8937C62.0515 13.0125 62.8197 12.5813 63.9063 12.6188C65.6674 12.675 67.4286 12.6938 69.171 12.6188C70.4824 12.5625 71.4379 12.9562 72 14.175C72 14.55 72 14.925 72 15.3C71.1382 17.3437 69.2834 16.7625 67.6347 16.8563C67.6347 17.175 67.6347 17.4562 67.6347 17.7375C67.6347 23.6437 67.6347 29.55 67.6347 35.4563C67.6347 37.1438 66.829 37.95 65.1241 37.95C60.6089 37.95 56.0937 37.95 51.5597 37.95C51.3162 37.95 51.0539 37.95 50.7541 37.95C50.7541 38.3062 50.7541 38.5875 50.7541 38.8688C50.7541 46.275 50.7541 53.6812 50.7541 61.0875C50.7541 62.7375 49.9297 63.5437 48.2998 63.5437C45.0023 63.5437 41.7049 63.5437 38.3888 63.5437C38.1452 63.5437 37.8829 63.5437 37.6393 63.5437C37.5644 63.8062 37.5082 64.0125 37.4333 64.2C36.2904 68.025 33.7799 70.4812 29.9578 71.6062C29.452 71.7937 28.9274 71.8875 28.4028 72ZM16.9368 29.7C16.9368 36.7875 16.9368 43.8188 16.9368 50.925C19.3724 50.7375 21.6393 50.9437 23.4005 52.8375C25.1241 54.6937 25.555 56.8687 24.8618 59.3062C32.1124 59.3062 39.2881 59.3062 46.5012 59.3062C46.5012 49.425 46.5012 39.5625 46.5012 29.7188C43.6909 29.7188 40.918 29.7188 38.1077 29.7188C38.1077 33.15 38.1077 36.525 38.1077 39.8812C38.1077 41.475 37.2834 42.3187 35.6909 42.3187C33.0867 42.3187 30.5012 42.3187 27.897 42.3187C26.3045 42.3187 25.4614 41.4938 25.4614 39.9C25.4614 36.7688 25.4614 33.6188 25.4614 30.4875C25.4614 30.2438 25.4614 29.9812 25.4614 29.7C22.5761 29.7 19.7845 29.7 16.9368 29.7ZM52.7775 12.7125C45.733 12.7125 38.7822 12.7125 31.8314 12.7125C31.8314 16.9875 31.8314 21.2063 31.8314 25.425C34.3981 25.425 36.9274 25.425 39.4567 25.425C38.7635 22.0875 39.5878 19.2375 42.1546 17.025C44.7213 14.8313 47.6628 14.4562 50.7354 15.5812C51.4286 14.6062 52.0843 13.6875 52.7775 12.7125ZM55.9438 23.9437C55.5129 27.2062 53.9391 29.5687 51.0164 30.975C50.8852 31.0312 50.7541 31.2375 50.7541 31.3875C50.7354 32.1562 50.7354 32.925 50.7354 33.6937C54.9883 33.6937 59.1663 33.6937 63.3255 33.6937C63.3255 28.6125 63.3255 23.5687 63.3255 18.4125C62.7073 19.2375 62.1639 19.9313 61.6768 20.6813C60.3279 22.725 58.5667 24.0187 55.9438 23.9437ZM50.3794 26.3438C51.9719 24.975 52.178 22.575 50.8852 20.8312C49.63 19.125 47.2319 18.675 45.4145 19.8C43.6159 20.9062 42.8852 23.3437 43.8595 25.0687C43.9532 25.2562 44.2904 25.4062 44.5152 25.4062C45.6393 25.4438 46.7635 25.4438 47.8876 25.4062C48.8431 25.425 49.7424 25.5 50.3794 26.3438ZM33.8361 38.0813C33.8361 35.25 33.8361 32.475 33.8361 29.7375C32.4122 29.7375 31.0632 29.7375 29.7143 29.7375C29.7143 32.55 29.7143 35.3063 29.7143 38.0813C31.082 38.0813 32.4309 38.0813 33.8361 38.0813Z" fill="#7A43EE"/>
</g>
<defs>
<clipPath id="clip0_158_454">
<rect width="72" height="72" fill="white"/>
</clipPath>
</defs>
</svg>
