<svg width="72" height="72" viewBox="0 0 72 72" fill="none" xmlns="http://www.w3.org/2000/svg">
<g clip-path="url(#clip0_158_591)">
<path d="M71.9813 13.9313C71.4939 15.1688 70.5566 15.5812 69.2632 15.5812C64.8581 15.5437 60.453 15.5625 56.0479 15.5625C55.7667 15.5625 55.4856 15.5625 55.1481 15.5625C55.1481 18.7312 55.1481 21.8438 55.1481 25.05C55.673 25.05 56.1791 25.0313 56.6852 25.05C57.9037 25.0875 58.7847 25.9875 58.7847 27.15C58.7847 28.3125 57.9037 29.25 56.704 29.25C54.2296 29.2688 51.7365 29.2688 49.2622 29.25C48.0625 29.2312 47.1627 28.2937 47.1815 27.1312C47.1815 25.9687 48.0812 25.0688 49.2997 25.0312C49.8058 25.0125 50.3119 25.0312 50.893 25.0312C50.893 24.6938 50.893 24.4125 50.893 24.1312C50.893 17.0062 50.9117 9.88125 50.8743 2.75625C50.8743 1.4625 51.2492 0.54375 52.4488 0C58.4473 0 64.4457 0 70.4442 0C71.1565 0.31875 71.6438 0.8625 72 1.55625C72 1.93125 72 2.30625 72 2.68125C70.7816 4.44375 69.5631 6.20625 68.326 7.9875C68.5696 8.30625 68.8321 8.625 69.057 8.94375C70.0318 10.275 71.0253 11.6062 72 12.9562C71.9813 13.275 71.9813 13.5938 71.9813 13.9313ZM65.5142 11.2875C65.0268 10.65 64.5957 10.1063 64.1833 9.54375C63.3585 8.45625 63.3398 7.65 64.1271 6.54375C64.6519 5.8125 65.1768 5.08125 65.7391 4.275C62.1401 4.275 58.6347 4.275 55.1481 4.275C55.1481 6.6375 55.1481 8.94375 55.1481 11.2875C58.5785 11.2875 61.9901 11.2875 65.5142 11.2875ZM0 49.9312C0.131216 49.4062 0.243687 48.9 0.393647 48.375C1.76204 43.4625 6.27962 40.3125 11.4158 40.65C16.2333 40.9688 20.301 44.8125 20.9758 49.725C21.3694 52.7063 20.7508 55.5938 19.9073 58.4438C18.4452 63.2813 15.8396 67.4625 12.3155 71.0813C11.9594 71.4375 11.5095 71.7 11.1159 72C10.741 72 10.3661 72 9.99115 72C9.63499 71.7563 9.24134 71.55 8.94142 71.2312C5.00495 67.2375 2.21192 62.5875 0.84353 57.1125C0.487373 55.7063 0.281177 54.2812 0.0187451 52.875C0 51.9 0 50.9062 0 49.9312ZM10.5348 66.75C10.6847 66.6 10.7972 66.4875 10.8909 66.375C12.6717 64.2375 14.0963 61.8937 15.1273 59.3062C16.177 56.6437 16.9081 53.8875 16.8519 50.9812C16.7769 47.1375 13.1591 44.25 9.3913 44.9812C5.92346 45.6562 3.86149 48.675 4.25514 52.4438C4.6113 55.8188 5.60479 58.9875 7.19813 61.9688C8.11664 63.6562 9.20385 65.25 10.5348 66.75ZM32.6915 33.0563C33.9849 33.0563 35.2971 33.0563 36.6092 33.0563C40.7331 33.0563 44.8571 33.0563 48.981 33.0563C54.5295 33.0563 58.9534 36.0562 61.0529 41.1937C61.1466 41.4375 61.4465 41.7 61.7089 41.7937C64.3332 42.7312 66.0578 45.1125 66.0578 47.8313C66.0578 50.55 64.3332 52.9125 61.6902 53.8687C61.409 53.9625 61.1091 54.2625 61.0154 54.5437C59.0846 59.4 54.6045 62.5312 49.3746 62.6062C47.1065 62.6437 44.8383 62.625 42.5514 62.6062C42.1203 62.6062 41.9141 62.7188 41.7079 63.1125C40.5457 65.4938 38.6149 66.8062 35.9719 66.8062C33.3101 66.8062 31.3981 65.4938 30.2359 63.1125C30.0484 62.7375 29.8797 62.6062 29.4673 62.6062C27.9677 62.625 26.4681 62.625 24.9685 62.6062C23.6376 62.6062 22.6628 61.6688 22.6816 60.4688C22.7003 59.2687 23.6563 58.4062 24.9685 58.4062C26.4681 58.4062 27.9677 58.3875 29.4673 58.4062C29.8235 58.4062 30.0297 58.3313 30.2171 57.975C31.3606 55.5563 33.2913 54.2063 35.9906 54.2063C38.6712 54.2063 40.6019 55.5375 41.7641 57.9563C41.9141 58.275 42.064 58.4062 42.4202 58.4062C44.8008 58.3875 47.2002 58.4625 49.5808 58.3687C52.73 58.2375 55.0732 56.7187 56.629 53.9812C56.704 53.85 56.7602 53.7 56.8165 53.55C52.2426 50.925 52.2989 44.7563 56.8352 42.15C55.9167 40.1438 54.4358 38.7 52.3739 37.9313C51.4366 37.575 50.3681 37.35 49.3746 37.3313C43.9573 37.275 38.5587 37.3125 33.1414 37.2937C32.729 37.2937 32.5415 37.4438 32.3541 37.8C31.1919 40.1625 29.2611 41.4375 26.6368 41.4375C24.0312 41.4375 22.0817 40.1625 20.9196 37.8C20.7321 37.4063 20.5072 37.2937 20.076 37.2562C13.3653 36.6937 8.41656 31.3312 8.39781 24.6C8.39781 22.5562 8.34158 20.5125 8.54777 18.4875C9.11013 12.9562 13.9651 8.15625 19.5324 7.7625C22.7566 7.5375 25.9995 7.65 29.2236 7.63125C29.7485 7.63125 30.0297 7.51875 30.2734 6.99375C31.4356 4.66875 33.3663 3.4125 35.9531 3.43125C38.54 3.43125 40.4707 4.6875 41.6329 7.0125C41.8766 7.48125 42.1015 7.66875 42.6264 7.63125C43.3762 7.575 44.126 7.59375 44.8758 7.63125C46.1692 7.66875 47.0877 8.5875 47.0502 9.80625C47.0128 10.9875 46.113 11.8313 44.8196 11.85C43.9948 11.85 43.17 11.8312 42.364 11.8687C42.1578 11.8875 41.8391 12.075 41.7454 12.2625C40.5644 14.6625 38.6712 16.0312 35.9906 16.05C33.2351 16.0687 31.3043 14.7 30.1047 12.225C30.0297 12.0562 29.786 11.8687 29.6173 11.8687C26.3556 11.8875 23.094 11.7375 19.8511 12C16.0458 12.2625 12.9529 15.6 12.7092 19.5C12.578 21.675 12.578 23.8688 12.8217 26.025C13.2341 29.7188 16.4957 32.6812 20.2072 33C20.4134 33.0188 20.7321 32.8312 20.8258 32.6625C22.0255 30.1687 23.975 28.7812 26.768 28.8187C29.5611 28.8562 31.4731 30.3187 32.579 32.85C32.5978 32.8875 32.6352 32.9438 32.6915 33.0563ZM35.9531 58.3687C34.8097 58.3875 33.8724 59.3438 33.8724 60.4875C33.8724 61.6313 34.8472 62.5875 35.9719 62.5875C37.1341 62.5875 38.1088 61.5937 38.0901 60.4312C38.0713 59.2875 37.0966 58.35 35.9531 58.3687ZM35.9906 11.8312C37.1528 11.8312 38.0901 10.9125 38.0901 9.75C38.1088 8.5875 37.0966 7.59375 35.9531 7.6125C34.8284 7.63125 33.8724 8.60625 33.8724 9.75C33.8912 10.8937 34.8284 11.8312 35.9906 11.8312ZM61.8589 47.7937C61.8589 46.65 60.9029 45.6937 59.7594 45.6937C58.5972 45.6937 57.6225 46.6687 57.6412 47.85C57.66 48.9937 58.6347 49.9313 59.7782 49.9125C60.9029 49.8938 61.8589 48.9375 61.8589 47.7937ZM24.5749 35.1188C24.5749 36.2813 25.5309 37.2188 26.6743 37.2188C27.799 37.2188 28.7738 36.225 28.7738 35.1C28.7738 33.9562 27.8178 33.0188 26.6556 33.0188C25.4934 33.0188 24.5749 33.9375 24.5749 35.1188ZM8.4353 51.1875C8.4353 52.3125 9.41005 53.2875 10.5348 53.2875C11.697 53.2875 12.6717 52.2938 12.6342 51.1313C12.6155 49.9875 11.6595 49.0687 10.4973 49.0875C9.37256 49.0875 8.4353 50.0438 8.4353 51.1875Z" fill="#7A43EE"/>
</g>
<defs>
<clipPath id="clip0_158_591">
<rect width="72" height="72" fill="white"/>
</clipPath>
</defs>
</svg>
