<svg width="72" height="72" viewBox="0 0 72 72" fill="none" xmlns="http://www.w3.org/2000/svg">
<path d="M0 54.8524C0 39.4569 0 24.0614 0 8.66588C1.35 4.98229 2.75625 4 6.69375 4C26.4 4 46.0875 4 65.7937 4C66.0937 4 66.4125 4 66.7125 4C69.0937 4.09445 71.1 5.70012 71.775 8.00472C71.8312 8.23141 71.925 8.4392 72 8.66588C72 24.0614 72 39.4569 72 54.8524C71.9625 54.8902 71.925 54.9091 71.9062 54.9469C70.9875 58.1015 69.1687 59.4805 65.9062 59.4805C59.775 59.4805 53.625 59.4805 47.4938 59.4805C47.1938 59.4805 46.9125 59.5183 46.6125 59.5183C46.6125 60.954 46.6125 62.3141 46.6125 63.7686C47.5125 63.7686 48.375 63.7686 49.2188 63.7686C50.5875 63.7875 51.5063 64.6564 51.5063 65.9032C51.4875 67.1311 50.5688 68 49.2563 68C40.425 68 31.5938 68 22.7625 68C21.4313 68 20.5125 67.1122 20.5125 65.9032C20.4938 64.6376 21.4312 63.7686 22.8 63.7686C23.6625 63.7686 24.525 63.7686 25.4062 63.7686C25.4062 62.3141 25.4062 60.9351 25.4062 59.4805C25.0875 59.4805 24.8063 59.4805 24.525 59.4805C18.4875 59.4805 12.4312 59.4805 6.39375 59.4805C2.8125 59.4805 1.18125 58.3093 0.075 54.8902C0.0375 54.8713 0.01875 54.8713 0 54.8524ZM67.7812 46.6541C67.7812 46.3329 67.7812 46.0874 67.7812 45.8229C67.7812 33.9032 67.7812 21.9835 67.7812 10.0638C67.7812 8.6281 67.4062 8.2503 66 8.2503C45.9938 8.2503 25.9875 8.2503 5.9625 8.2503C4.59375 8.2503 4.21875 8.64699 4.21875 10.026C4.21875 21.9646 4.21875 33.9221 4.21875 45.8607C4.21875 46.1063 4.21875 46.3707 4.21875 46.6541C25.425 46.6541 46.5563 46.6541 67.7812 46.6541ZM4.2375 50.9799C4.2375 52.0378 4.1625 53.0767 4.275 54.0968C4.3125 54.4557 4.70625 54.8713 5.04375 55.0791C5.325 55.2491 5.775 55.2113 6.13125 55.2113C26.0437 55.2113 45.9562 55.2113 65.8687 55.2113C66.15 55.2113 66.4312 55.2302 66.7125 55.1736C67.35 55.0602 67.7437 54.6635 67.7625 54.0401C67.8 53.039 67.7812 52.0189 67.7812 50.961C46.575 50.9799 25.4437 50.9799 4.2375 50.9799ZM29.7 59.5183C29.7 60.954 29.7 62.3329 29.7 63.7308C33.9187 63.7308 38.1 63.7308 42.3187 63.7308C42.3187 62.3141 42.3187 60.9351 42.3187 59.5183C38.1 59.5183 33.9375 59.5183 29.7 59.5183ZM50.8125 27.4994C50.7937 35.7544 44.1375 42.4227 35.9437 42.4038C27.7875 42.366 21.1875 35.6789 21.2062 27.4616C21.225 19.2255 27.8438 12.5573 36 12.5573C44.175 12.5384 50.8125 19.2444 50.8125 27.4994ZM25.4062 27.4805C25.4062 33.3743 30.15 38.1535 36 38.1535C41.85 38.1535 46.5937 33.3743 46.575 27.4805C46.575 21.5868 41.8312 16.7887 35.9812 16.8076C30.15 16.7887 25.4062 21.5868 25.4062 27.4805ZM35.5875 31.1452C37.5 29.8985 39.375 28.6328 41.2688 27.3483C42.3938 26.5738 42.675 25.2893 41.9812 24.2692C41.2875 23.2491 40.0125 23.0791 38.8688 23.8347C37.95 24.4392 37.0313 25.0626 36.1125 25.686C35.625 26.0071 35.1188 26.6116 34.65 26.5738C34.1625 26.536 33.7313 25.8937 33.3 25.4782C32.3625 24.6281 31.1062 24.5903 30.2625 25.4404C29.4375 26.2904 29.4562 27.575 30.3187 28.4817C31.125 29.3129 31.9125 30.1629 32.775 30.9185C33.1688 31.2775 33.7313 31.4475 34.2188 31.7119C34.7437 31.5041 35.1938 31.3908 35.5875 31.1452Z" fill="#7A43EE"/>
</svg>
