<svg width="728" height="938" viewBox="0 0 728 938" fill="none" xmlns="http://www.w3.org/2000/svg">
<g clip-path="url(#clip0_158_685)">
<mask id="mask0_158_685" style="mask-type:alpha" maskUnits="userSpaceOnUse" x="-1192" y="-1" width="1920" height="939">
<rect x="-1192" y="-1" width="1920" height="939" fill="#31225C"/>
</mask>
<g mask="url(#mask0_158_685)">
<path d="M21.9997 177.5C110.576 -17.8347 18.0252 -203.536 114.661 -207.615C401.72 -219.732 666.031 -146.252 796.518 -61.5881C927.004 23.0762 939.464 190.791 974.694 414.433C1009.93 638.076 1033.21 550.362 933.451 837.948C833.69 1125.53 701.427 1228.85 574.381 1168.63C447.335 1108.41 117.769 1047.81 207 698C247.787 538.103 -72.9995 387 21.9997 177.5Z" fill="url(#paint0_linear_158_685)"/>
<path d="M625.5 676.001C549.384 856.23 848.131 983.16 830.163 1031.46C776.79 1174.95 695.978 1223.62 637.977 1199.94C579.976 1176.26 361.915 1146.37 283.706 931.717C214.858 742.76 521.748 503.461 273.777 375.851C47.4996 259.405 80.233 25.8642 207.741 -130.791C245.352 -177 335.559 64.0958 486.5 141C621.688 209.879 712.5 470 625.5 676.001Z" fill="url(#paint1_linear_158_685)"/>
</g>
</g>
<defs>
<linearGradient id="paint0_linear_158_685" x1="1.50001" y1="-65" x2="613.81" y2="1165.08" gradientUnits="userSpaceOnUse">
<stop stop-color="#7A43EE" stop-opacity="0"/>
<stop offset="1" stop-color="#7A43EE"/>
</linearGradient>
<linearGradient id="paint1_linear_158_685" x1="666.688" y1="1044.56" x2="1051.01" y2="111.693" gradientUnits="userSpaceOnUse">
<stop stop-color="#31225C" stop-opacity="0"/>
<stop offset="1" stop-color="#31225C"/>
</linearGradient>
<clipPath id="clip0_158_685">
<rect width="728" height="938" fill="white"/>
</clipPath>
</defs>
</svg>
