<svg width="72" height="72" viewBox="0 0 72 72" fill="none" xmlns="http://www.w3.org/2000/svg">
<g clip-path="url(#clip0_158_446)">
<path d="M70.4437 72C51.1312 72 31.8188 72 12.5063 72C12.3938 71.9625 12.3 71.8875 12.1875 71.8875C6.50625 71.119 1.96875 67.2012 0.4875 61.7464C0.28125 61.0154 0.15 60.2468 0 59.497C0 58.2223 0 56.9664 0 55.6917C0.0375 55.4106 0.09375 55.1481 0.13125 54.867C0.3 53.4423 0.4125 52.0177 0.65625 50.6118C2.34375 40.9956 6.73125 32.804 13.7438 25.9995C14.25 25.5121 14.7188 25.0247 15.2438 24.4999C13.1438 22.7378 12.15 20.5634 12.675 17.8828C13.2 15.2023 14.925 13.5527 17.5125 12.6904C16.9312 11.5095 16.35 10.4035 15.825 9.24134C14.2125 5.69852 16.0312 1.55584 19.6875 0.337412C20.0625 0.206196 20.4375 0.112471 20.8125 0C21.4312 0 22.0312 0 22.65 0C25.0125 0.412393 26.6063 1.98698 28.2188 3.84275C28.4062 3.56157 28.5187 3.35538 28.6687 3.18667C30 1.63083 31.5375 0.393647 33.6187 0C34.2375 0 34.8375 0 35.4562 0C35.5875 0.0374902 35.7188 0.112471 35.85 0.131216C39.3 0.881021 41.6063 4.08644 40.9125 7.55428C40.65 8.94142 39.8625 10.2348 39.3 11.5657C39.15 11.9406 38.9437 12.2968 38.775 12.6717C41.4375 13.5527 43.125 15.2398 43.6125 17.9391C44.1187 20.6196 43.0875 22.7753 40.8562 24.6498C42.075 25.7745 43.2562 26.8055 44.3438 27.949C45.4313 29.0924 46.4062 30.3483 47.4375 31.548C52.6875 25.9807 60.5062 25.962 65.625 29.9922C68.1375 31.9792 69.7875 34.5473 70.4437 37.6964C71.3625 42.1578 70.2 46.113 67.1625 49.6371C67.9312 49.6371 68.55 49.6746 69.1687 49.6371C70.4812 49.5246 71.4375 49.9745 72 51.1929C72 57.6225 72 64.0333 72 70.4629C71.6438 71.1565 71.1375 71.6626 70.4437 72ZM42.8812 67.7823C42.8812 67.4262 42.8812 67.145 42.8812 66.8638C42.8812 61.8964 42.8812 56.9289 42.8812 51.9615C42.8812 50.4994 43.7438 49.6558 45.1875 49.6371C45.9375 49.6371 46.7062 49.6371 47.475 49.6371C47.4562 49.5246 47.475 49.4871 47.4562 49.4871C47.3438 49.3372 47.2313 49.1872 47.1 49.0372C44.0062 45.1382 43.2188 40.8269 44.7562 36.1031C44.9062 35.6532 44.8687 35.3533 44.6062 34.9596C42.3 31.5855 39.3187 28.83 36.45 25.9807C36.3 25.8308 36 25.7558 35.7562 25.7558C30.6562 25.737 25.5375 25.737 20.4375 25.7558C20.2125 25.7558 19.8938 25.8308 19.7438 25.9807C17.3625 28.4738 14.8313 30.8357 12.6938 33.4975C7.8375 39.5709 5.15625 46.6004 4.40625 54.3234C4.21875 56.2166 4.125 58.2036 4.4625 60.0594C5.30625 64.6332 9.28125 67.7636 13.95 67.7636C23.3438 67.7823 32.7375 67.7636 42.1312 67.7636C42.3375 67.7823 42.5438 67.7823 42.8812 67.7823ZM48.225 40.452C48.2062 45.4757 52.275 49.6183 57.2812 49.6558C62.3438 49.6933 66.4875 45.6069 66.5062 40.5832C66.525 35.5595 62.4562 31.4168 57.45 31.3981C52.3875 31.3418 48.2437 35.4283 48.225 40.452ZM28.1812 16.7581C25.2562 16.7581 22.3312 16.7581 19.4062 16.7581C17.7938 16.7581 16.7063 17.7516 16.725 19.1763C16.7438 20.5634 17.8313 21.5381 19.3875 21.5381C25.2 21.5381 31.0125 21.5381 36.8062 21.5381C38.4187 21.5381 39.5062 20.5446 39.4875 19.12C39.4688 17.7141 38.4 16.7581 36.825 16.7581C33.9375 16.7394 31.0687 16.7581 28.1812 16.7581ZM67.725 62.9086C60.8062 62.9086 53.9625 62.9086 47.1187 62.9086C47.1187 64.5394 47.1187 66.1328 47.1187 67.7449C54 67.7449 60.8437 67.7449 67.725 67.7449C67.725 66.114 67.725 64.5394 67.725 62.9086ZM67.725 53.911C60.8062 53.911 53.9625 53.911 47.1187 53.911C47.1187 55.5043 47.1187 57.0414 47.1187 58.5972C54 58.5972 60.8437 58.5972 67.725 58.5972C67.725 57.0227 67.725 55.5043 67.725 53.911ZM28.0875 12.5217C29.8875 12.5217 31.6875 12.503 33.4875 12.5405C33.9187 12.5405 34.1625 12.4468 34.35 12.0344C35.025 10.591 35.7562 9.18511 36.45 7.76048C37.05 6.54205 36.7687 5.34236 35.775 4.64879C34.7812 3.97397 33.6187 4.12393 32.6812 5.07993C31.7062 6.07342 30.7687 7.06691 29.7937 8.0604C28.7062 9.16636 27.5062 9.16636 26.4187 8.07915C25.4437 7.1044 24.5063 6.09216 23.5312 5.09867C22.5562 4.12393 21.3562 3.95522 20.3625 4.66753C19.4062 5.3611 19.1438 6.54205 19.725 7.74173C20.4375 9.18511 21.1687 10.6285 21.8625 12.0906C22.0312 12.428 22.2188 12.5592 22.6125 12.5592C24.45 12.5217 26.2687 12.5217 28.0875 12.5217ZM31.1625 38.6149C30.6375 38.3713 30.1687 38.1838 30.0187 37.4715C29.8312 36.6655 28.9688 36.1593 28.125 36.1593C27.2625 36.1406 26.5125 36.6655 26.1375 37.4715C26.025 37.7152 25.8375 38.0151 25.6125 38.1276C23.6062 39.1586 22.575 40.8081 22.5 43.02C22.4438 45.1945 23.5687 46.6941 25.4812 47.6313C26.6625 48.2124 27.8812 48.6623 29.0812 49.1872C30.0937 49.6183 30.3937 50.4431 29.9062 51.4179C29.5875 52.0365 29.1 52.4488 28.3875 52.5051C27.2812 52.6175 26.2687 52.4488 25.3125 51.8303C24.2812 51.1554 22.9875 51.5116 22.3875 52.5238C21.7875 53.5173 22.0875 54.7732 23.1188 55.3918C23.85 55.823 24.6562 56.1979 25.4625 56.479C25.8375 56.6103 26.0812 56.7602 26.25 57.1539C26.6063 57.9786 27.3188 58.391 28.2188 58.3723C29.0812 58.3536 29.7937 57.7725 30.1312 56.9664C30.2625 56.6665 30.5062 56.3478 30.8062 56.1979C33.2062 54.9232 34.4812 52.955 34.3312 50.2182C34.2 47.6313 32.7 46.038 30.3375 45.157C29.2875 44.7633 28.275 44.276 27.2625 43.8073C26.6437 43.5262 26.6625 43.0388 26.9062 42.5139C27.225 41.8578 27.825 41.8391 28.425 41.9891C28.8937 42.1203 29.325 42.3827 29.775 42.5514C31.1625 43.1138 32.6437 42.139 32.6437 40.6582C32.625 39.7022 32.1937 39.0836 31.1625 38.6149Z" fill="#7A43EE"/>
</g>
<defs>
<clipPath id="clip0_158_446">
<rect width="72" height="72" fill="white"/>
</clipPath>
</defs>
</svg>
