<svg width="72" height="72" viewBox="0 0 72 72" fill="none" xmlns="http://www.w3.org/2000/svg">
<g clip-path="url(#clip0_158_595)">
<path d="M36.9938 0C37.4438 0.1125 37.8937 0.225 38.325 0.375C42.8625 1.8 45.0375 6.975 42.9 11.2313C42.7875 11.4375 42.675 11.6438 42.5813 11.85C42.6188 11.9063 42.6375 11.9625 42.675 11.9813C45.1125 13.2375 46.5188 15.2438 47.0813 17.9062C47.4 19.3875 47.8125 20.85 48.1687 22.3312C48.7125 24.6562 47.1188 26.7188 44.7375 26.7375C38.925 26.7563 33.1125 26.7563 27.3187 26.7375C24.9375 26.7375 23.3438 24.6562 23.9062 22.3312C24.3188 20.625 24.75 18.9188 25.1813 17.2313C25.7625 14.925 27.1125 13.2187 29.2312 12.1125C29.3062 12.075 29.3812 12.0187 29.3812 12.0187C29.0437 10.9687 28.6125 9.975 28.425 8.94375C27.7125 4.9125 30.5437 0.9375 34.5938 0.1875C34.7438 0.15 34.8937 0.09375 35.0437 0.05625C35.6812 0 36.3375 0 36.9938 0ZM28.1438 22.4625C33.4313 22.4625 38.6063 22.4625 43.8375 22.4625C43.425 20.85 43.0687 19.275 42.6 17.7375C42.1687 16.3687 40.875 15.4875 39.4313 15.4875C37.1438 15.4687 34.8375 15.4687 32.55 15.4875C31.1063 15.5062 29.8125 16.3875 29.3812 17.7562C28.9125 19.275 28.575 20.85 28.1438 22.4625ZM36 11.25C37.9313 11.25 39.525 9.65625 39.525 7.725C39.525 5.8125 37.9688 4.2375 36.0563 4.21875C34.1063 4.2 32.5125 5.775 32.4938 7.70625C32.475 9.65625 34.05 11.25 36 11.25ZM0 67.7812C0.43125 66.1125 0.9 64.4437 1.3125 62.775C1.9125 60.3 3.2625 58.4625 5.55 57.3C5.60625 57.2625 5.6625 57.2062 5.71875 57.1687C3.3375 53.0437 4.9125 49.0312 7.40625 47.0062C10.2 44.7375 14.1188 44.7 16.9688 46.8562C19.3875 48.6937 21.3187 52.725 18.8438 57.1687C19.2375 57.4125 19.65 57.6375 20.025 57.9C21.5438 58.95 22.575 60.375 23.0438 62.1562C23.5313 63.9563 23.9812 65.775 24.4125 67.5938C24.8625 69.5062 23.85 71.2313 21.975 71.8313C21.8625 71.8688 21.7688 71.925 21.6562 71.9625C15.375 71.9625 9.09375 71.9625 2.8125 71.9625C1.3875 71.5125 0.45 70.575 0 69.15C0 68.7187 0 68.25 0 67.7812ZM20.1 67.7625C19.7062 66.225 19.3687 64.7625 18.975 63.3188C18.5625 61.8 17.2688 60.7875 15.7313 60.7688C13.4063 60.7313 11.1 60.7313 8.775 60.7688C7.425 60.7875 6.28125 61.425 5.8125 62.6625C5.19375 64.2938 4.8375 66.0187 4.36875 67.7437C9.69375 67.7625 14.8687 67.7625 20.1 67.7625ZM15.7687 53.0063C15.7687 51.0563 14.1938 49.4812 12.2438 49.5C10.3313 49.5188 8.775 51.075 8.75625 52.9875C8.7375 54.9 10.35 56.5312 12.2625 56.5312C14.1938 56.5312 15.7687 54.9563 15.7687 53.0063ZM50.3438 72C50.2312 71.9625 50.1375 71.9062 50.025 71.8687C48.15 71.2687 47.1375 69.5438 47.5875 67.6313C48.0188 65.8125 48.4688 63.9938 48.9563 62.1938C49.5188 60.15 50.7562 58.6312 52.575 57.5437C52.7812 57.4312 52.9688 57.3188 53.175 57.2063C51.2813 52.8188 51.9375 49.2563 55.05 46.8938C57.9188 44.7188 61.8188 44.7563 64.6125 47.025C67.0875 49.0313 68.6813 53.0437 66.3 57.1875C66.6938 57.4312 67.1062 57.6562 67.4812 57.9187C69.075 59.025 70.0875 60.525 70.575 62.3813C71.025 64.0875 71.4188 65.7937 71.85 67.4812C71.8688 67.5937 71.9437 67.6875 72 67.7812C72 68.25 72 68.7188 72 69.1875C71.55 70.6125 70.6125 71.55 69.1875 72C62.9062 72 56.625 72 50.3438 72ZM67.6313 67.7625C67.1438 66 66.7687 64.2562 66.15 62.625C65.6812 61.4062 64.5375 60.8063 63.225 60.7875C60.9 60.75 58.5938 60.7313 56.2688 60.7875C54.7688 60.825 53.6437 61.5938 53.1562 63.0188C52.65 64.5563 52.3125 66.1687 51.8813 67.7812C57.1313 67.7625 62.3063 67.7625 67.6313 67.7625ZM56.2312 53.0437C56.25 54.9937 57.8437 56.55 59.7937 56.5312C61.6875 56.5125 63.2625 54.9187 63.2625 53.025C63.2625 51.0937 61.65 49.5 59.7188 49.5188C57.7688 49.5188 56.2312 51.0937 56.2312 53.0437ZM65.1 32.025C63.675 27.0188 61.1062 22.6687 57.45 18.975C56.5687 18.075 55.2937 18.0562 54.4312 18.8812C53.6062 19.6875 53.5875 20.9437 54.3938 21.8625C54.6188 22.1062 54.8438 22.3313 55.0688 22.575C57.6 25.3125 59.475 28.425 60.675 31.9688C61.575 34.6312 62.0062 37.3687 62.0437 40.1625C62.0625 41.4187 62.9813 42.3375 64.1625 42.3187C65.3438 42.3 66.2437 41.3625 66.2625 40.125C66.2625 39.9 66.2625 39.6563 66.2625 39.5813C66.1312 36.9188 65.775 34.4438 65.1 32.025ZM5.775 40.275C5.8125 41.3813 6.69375 42.2813 7.78125 42.3375C8.86875 42.3938 9.825 41.5688 9.975 40.4625C10.0125 40.1625 9.99375 39.8625 9.99375 39.5437C10.0875 36.675 10.6125 33.8813 11.625 31.1813C12.9375 27.6938 14.925 24.6375 17.5312 21.975C18.45 21.0187 18.45 19.7438 17.5875 18.9C16.725 18.0563 15.4313 18.0938 14.5125 19.0312C8.9625 24.7125 6.09375 31.5188 5.75625 39.3C5.775 39.7125 5.75625 39.9938 5.775 40.275ZM30.4688 42.7875C29.6063 41.9437 28.3125 41.9437 27.4875 42.7312C26.6625 43.5375 26.6062 44.8312 27.45 45.6937C28.7062 46.9875 29.9813 48.2625 31.275 49.5188C32.1188 50.3438 33.3563 50.3438 34.1813 49.5188C37.65 46.0875 41.0812 42.6375 44.5125 39.1875C45.0375 38.6625 45.225 37.9875 45.0563 37.2375C44.6438 35.5875 42.6938 35.0625 41.4563 36.3C38.8688 38.85 36.3187 41.4187 33.75 44.0062C33.4312 44.3437 33.15 44.7188 32.7562 45.1875C31.9312 44.3063 31.2188 43.5187 30.4688 42.7875ZM41.9062 69.9C43.1625 69.7125 43.9125 68.625 43.7063 67.4812C43.5 66.3187 42.45 65.55 41.2125 65.775C37.7438 66.4125 34.2937 66.4125 30.825 65.775C29.5687 65.55 28.5375 66.2813 28.3125 67.4438C28.0875 68.6063 28.8375 69.6937 30.15 69.9C32.0813 70.2 34.05 70.3875 36.0188 70.6313C37.9688 70.4063 39.9375 70.2 41.9062 69.9Z" fill="#7A43EE"/>
</g>
<defs>
<clipPath id="clip0_158_595">
<rect width="72" height="72" fill="white"/>
</clipPath>
</defs>
</svg>
