<svg width="72" height="72" viewBox="0 0 72 72" fill="none" xmlns="http://www.w3.org/2000/svg">
<g clip-path="url(#clip0_158_603)">
<path d="M72 6.75176C72 26.2568 72 45.7619 72 65.267C71.9437 65.417 71.8875 65.5671 71.8687 65.7171C71.1937 68.6991 69.4125 70.6872 66.525 71.6624C66.1125 71.8125 65.6812 71.8875 65.25 72C45.75 72 26.25 72 6.75 72C6.6375 71.9625 6.54375 71.9062 6.43125 71.8687C3.39375 71.2873 1.3875 69.5056 0.375 66.5986C0.225 66.1672 0.13125 65.7171 0 65.267C0 45.7619 0 26.2568 0 6.75176C0.0375 6.62047 0.1125 6.48919 0.13125 6.35791C0.525 4.2386 1.59375 2.4944 3.43125 1.36911C4.425 0.750195 5.625 0.450117 6.75 0C26.25 0 45.75 0 65.25 0C65.3625 0.0375098 65.4563 0.112529 65.5688 0.131284C67.725 0.506382 69.4875 1.57541 70.6313 3.43214C71.25 4.42615 71.55 5.62647 72 6.75176ZM4.21875 21.1368C4.21875 21.3993 4.21875 21.6244 4.21875 21.8494C4.21875 35.8593 4.21875 49.888 4.21875 63.8979C4.21875 66.3548 5.64375 67.7989 8.08125 67.7989C26.6812 67.7989 45.3 67.7989 63.9 67.7989C66.3375 67.7989 67.7812 66.3548 67.7812 63.9166C67.7812 49.9067 67.7812 35.8781 67.7812 21.8682C67.7812 21.6244 67.7812 21.3806 67.7812 21.1368C46.5375 21.1368 25.4062 21.1368 4.21875 21.1368ZM38.1375 16.8419C48.0375 16.8419 57.8813 16.8419 67.7812 16.8419C67.7812 13.9161 67.7812 11.0466 67.7812 8.15837C67.7812 5.64522 66.375 4.2386 63.8813 4.21985C55.5563 4.21985 47.25 4.21985 38.925 4.21985C38.6813 4.21985 38.4187 4.21985 38.1375 4.21985C38.1375 8.45845 38.1375 12.622 38.1375 16.8419ZM33.8812 4.21985C33.6562 4.21985 33.5062 4.21985 33.3562 4.21985C24.8437 4.21985 16.35 4.21985 7.8375 4.21985C5.75625 4.21985 4.2375 5.72024 4.21875 7.80203C4.2 10.634 4.21875 13.466 4.21875 16.3167C4.21875 16.4855 4.25625 16.6731 4.25625 16.8231C14.1562 16.8231 24 16.8231 33.8625 16.8231C33.8813 12.622 33.8812 8.47721 33.8812 4.21985ZM15.6188 25.3191C13.9875 25.3191 12.3375 25.3003 10.7062 25.3191C9.6 25.3378 8.71875 26.1443 8.60625 27.1946C8.49375 28.2449 9.20625 29.2389 10.275 29.4639C10.575 29.5202 10.875 29.5202 11.175 29.5202C27.7313 29.5202 44.3063 29.5202 60.8625 29.5202C61.0688 29.5202 61.2937 29.5389 61.5 29.5202C62.9813 29.3889 63.8625 27.8322 63.225 26.5194C62.775 25.6192 62.0062 25.3003 61.0312 25.3003C52.6875 25.3191 44.3438 25.3003 36.0188 25.3003C29.1938 25.3191 22.4063 25.3191 15.6188 25.3191ZM24.0375 41.4483C24.0375 43.2488 24.0375 45.0492 24.0375 46.8497C24.0375 48.3501 23.1937 49.2128 21.6937 49.2128C18.0937 49.2128 14.475 49.2128 10.875 49.2128C9.43125 49.2128 8.56875 48.3501 8.56875 46.8872C8.56875 43.2863 8.56875 39.6666 8.56875 36.0656C8.56875 34.6028 9.43125 33.74 10.875 33.74C14.5125 33.74 18.1312 33.74 21.7687 33.74C23.175 33.74 24.0375 34.6215 24.0375 36.0281C24.0562 37.8474 24.0375 39.6478 24.0375 41.4483ZM12.8438 38.0162C12.8438 40.3793 12.8438 42.6861 12.8438 44.993C15.1875 44.993 17.475 44.993 19.7812 44.993C19.7812 42.6486 19.7812 40.3605 19.7812 38.0162C17.4563 38.0162 15.1687 38.0162 12.8438 38.0162ZM43.725 41.4858C43.725 43.2863 43.725 45.0867 43.725 46.8872C43.725 48.3501 42.8625 49.2128 41.4187 49.2128C37.7812 49.2128 34.1625 49.2128 30.525 49.2128C29.1188 49.2128 28.2562 48.3313 28.2562 46.9247C28.2562 43.2863 28.2562 39.6666 28.2562 36.0281C28.2562 34.6215 29.1188 33.74 30.525 33.74C34.1813 33.74 37.8375 33.74 41.475 33.74C42.8437 33.74 43.7063 34.6215 43.7063 35.9906C43.7438 37.8474 43.725 39.6666 43.725 41.4858ZM39.4875 38.0349C37.125 38.0349 34.8188 38.0349 32.55 38.0349C32.55 40.3793 32.55 42.6861 32.55 44.9742C34.8938 44.9742 37.1813 44.9742 39.4875 44.9742C39.4875 42.6486 39.4875 40.3605 39.4875 38.0349ZM55.6125 49.2316C53.8313 49.2316 52.05 49.2316 50.2688 49.2316C48.8063 49.2316 47.9437 48.3688 47.9437 46.9247C47.9437 43.2863 47.9437 39.6666 47.9437 36.0281C47.9437 34.6215 48.825 33.7588 50.2312 33.7588C53.8687 33.7588 57.4875 33.7588 61.125 33.7588C62.5312 33.7588 63.4125 34.6215 63.4125 36.0281C63.4125 39.6666 63.4125 43.2863 63.4125 46.9247C63.4125 48.3688 62.55 49.2316 61.0875 49.2316C59.2687 49.2316 57.4313 49.2316 55.6125 49.2316ZM52.2 44.9555C54.5625 44.9555 56.8688 44.9555 59.175 44.9555C59.175 42.6111 59.175 40.323 59.175 38.0162C56.8313 38.0162 54.5437 38.0162 52.2 38.0162C52.2 40.3418 52.2 42.6299 52.2 44.9555ZM10.9688 53.4514C9.54375 53.4514 8.5875 54.2954 8.56875 55.552C8.55 56.8085 9.525 57.6713 10.9312 57.6713C14.5125 57.6713 18.0937 57.6713 21.675 57.6713C23.0812 57.6713 24.0562 56.7898 24.0375 55.552C24.0187 54.2954 23.0625 53.4702 21.6375 53.4702C19.8563 53.4702 18.075 53.4702 16.3125 53.4702C14.55 53.4702 12.75 53.4514 10.9688 53.4514ZM30.6 53.4514C29.2312 53.4514 28.275 54.3141 28.275 55.5332C28.2563 56.7523 29.2125 57.6525 30.5625 57.6525C34.1812 57.6525 37.8188 57.6525 41.4375 57.6525C42.7875 57.6525 43.7437 56.7523 43.725 55.5332C43.7062 54.3141 42.7688 53.4514 41.4 53.4514C39.6 53.4514 37.8 53.4514 36 53.4514C34.2 53.4514 32.4 53.4514 30.6 53.4514ZM61.1438 57.6713C62.4563 57.6713 63.3938 56.7898 63.4125 55.5895C63.4313 54.3517 62.475 53.4514 61.125 53.4514C57.5063 53.4514 53.8687 53.4514 50.25 53.4514C48.9 53.4514 47.9437 54.3329 47.9437 55.5707C47.9437 56.7898 48.9 57.6713 50.2688 57.6713C52.0688 57.6713 53.8687 57.6713 55.6687 57.6713C57.5062 57.6713 59.325 57.6713 61.1438 57.6713ZM12.7875 10.5778C12.8062 9.43371 11.8688 8.47721 10.725 8.4397C9.5625 8.42094 8.56875 9.3962 8.56875 10.559C8.56875 11.703 9.525 12.6595 10.6688 12.6595C11.8125 12.6595 12.7875 11.7218 12.7875 10.5778ZM21.225 10.5778C21.2437 9.43371 20.3062 8.45845 19.1625 8.4397C18 8.42094 17.0062 9.3962 17.0062 10.559C17.0062 11.703 17.9625 12.6595 19.1063 12.6595C20.25 12.6595 21.2062 11.7218 21.225 10.5778ZM27.5437 8.4397C26.4 8.45845 25.4625 9.41495 25.4625 10.5402C25.4625 11.703 26.4563 12.6783 27.6188 12.6408C28.7625 12.6033 29.7 11.628 29.6813 10.5027C29.6438 9.37744 28.6875 8.4397 27.5437 8.4397Z" fill="#7A43EE"/>
</g>
<defs>
<clipPath id="clip0_158_603">
<rect width="72" height="72" fill="white"/>
</clipPath>
</defs>
</svg>
