<svg width="72" height="72" viewBox="0 0 72 72" fill="none" xmlns="http://www.w3.org/2000/svg">
<g clip-path="url(#clip0_158_599)">
<path d="M71.9813 38.25C71.7938 39.5625 71.6438 40.8938 71.4189 42.2063C70.7066 46.4438 69.2257 50.4188 67.07 54.1313C66.3952 55.2938 65.1393 55.6688 64.0708 55.05C63.0398 54.45 62.7399 53.1938 63.4147 52.05C66.4702 46.7625 67.9323 41.0813 67.7449 34.9875C67.5387 28.6688 65.6267 22.9125 61.9901 17.7188C61.9151 17.6062 61.8214 17.4937 61.6339 17.2687C61.5215 18.3375 61.4465 19.275 61.334 20.2125C61.259 20.9063 60.9029 21.45 60.303 21.7875C59.5907 22.1812 58.8784 22.1812 58.1661 21.75C57.4725 21.3188 57.0976 20.6625 57.1726 19.8563C57.3788 17.1938 57.585 14.5313 57.8662 11.8875C57.9974 10.5938 58.8972 9.8625 60.1906 9.95625C62.7587 10.1437 65.3267 10.3687 67.8948 10.6125C69.2632 10.7437 70.1442 11.7562 69.9943 12.9375C69.8443 14.175 68.8696 14.9063 67.4824 14.7938C66.6951 14.7375 65.9078 14.6813 65.0268 14.6063C65.1768 14.85 65.2705 15.0188 65.3642 15.15C69.207 20.5875 71.4002 26.625 71.8875 33.2812C71.9063 33.4875 71.9625 33.6937 72 33.8812C71.9813 35.3437 71.9813 36.7875 71.9813 38.25ZM38.1088 72C38.2963 71.9625 38.465 71.9062 38.6524 71.8875C45.307 71.4 51.3429 69.225 56.779 65.3813C56.9477 65.2688 57.1164 65.175 57.3038 65.0625C57.3413 65.1562 57.3601 65.1937 57.3601 65.25C57.3038 66.0187 57.2476 66.7875 57.1726 67.5562C57.0789 68.8687 57.8287 69.8625 59.0471 69.9937C60.1718 70.125 61.2028 69.3 61.334 68.0063C61.5965 65.3813 61.8214 62.7375 62.0088 60.0938C62.1026 58.9125 61.3903 58.0125 60.2093 57.8813C57.4913 57.6 54.7545 57.3562 52.0177 57.1687C50.9117 57.0937 49.9745 58.0125 49.8995 59.1C49.8245 60.15 50.5556 61.125 51.6428 61.3125C52.0739 61.3875 52.5238 61.4063 52.9737 61.4438C53.4986 61.5 54.0422 61.5563 54.7357 61.6313C54.3421 61.9125 54.0984 62.1188 53.8547 62.2688C42.9638 69.1875 31.7917 69.6187 20.3759 63.6562C20.0198 63.4688 19.6824 63.2438 19.3075 63.1313C18.2765 62.8313 17.2268 63.375 16.8144 64.3313C16.3832 65.3438 16.7769 66.4312 17.8079 67.0312C21.5194 69.2063 25.4934 70.6687 29.7298 71.4C31.0607 71.625 32.4103 71.775 33.7412 71.9625C35.2033 72 36.6467 72 38.1088 72ZM33.8912 0C33.7037 0.0375 33.535 0.09375 33.3476 0.1125C26.6743 0.6 20.6196 2.79375 15.1648 6.65625C15.0148 6.75 14.8649 6.84375 14.6212 6.99375C14.6962 6.05625 14.7712 5.23125 14.8274 4.3875C14.9211 3.1125 14.1526 2.15625 12.9529 2.00625C11.8469 1.875 10.7972 2.68125 10.666 3.9C10.4035 6.58125 10.1599 9.2625 9.9724 11.9438C9.89742 13.0688 10.6285 13.9125 11.7532 14.1C12.2968 14.1937 12.8779 14.2125 13.4215 14.2687C15.521 14.4562 17.6204 14.6438 19.7199 14.8125C20.5821 14.8875 21.2757 14.5687 21.7443 13.8187C22.1755 13.125 22.1755 12.3937 21.7818 11.6812C21.4257 11.0437 20.8633 10.7063 20.1323 10.6313C19.2325 10.5375 18.314 10.4438 17.3205 10.35C17.4705 10.2188 17.5079 10.1625 17.5642 10.125C24.8185 5.04375 32.8414 3.2625 41.5579 4.725C45.307 5.34375 48.8123 6.69375 52.1114 8.60625C53.2174 9.24375 54.4546 8.90625 55.0544 7.9125C55.673 6.88125 55.2981 5.60625 54.1921 4.95C50.4806 2.775 46.5066 1.29375 42.2702 0.58125C40.9393 0.35625 39.5897 0.20625 38.2588 0.01875C36.7967 0 35.3345 0 33.8912 0ZM0 38.1188C0.0374902 38.3438 0.0937256 38.5687 0.112471 38.7937C0.618589 45.3562 2.77428 51.3375 6.56079 56.7375C6.69201 56.925 6.80448 57.1125 6.93569 57.3188C6.84197 57.3563 6.80448 57.3938 6.76699 57.3938C5.97969 57.3375 5.17365 57.2625 4.38636 57.2063C3.13043 57.1125 2.15569 57.9 2.00573 59.0813C1.87451 60.1875 2.68055 61.2375 3.89898 61.3687C6.57954 61.65 9.26009 61.875 11.9406 62.0625C13.0466 62.1375 13.8901 61.425 14.0776 60.3375C14.1901 59.7562 14.2088 59.175 14.265 58.5938C14.4525 56.475 14.6399 54.3562 14.8086 52.2188C14.8836 51.3187 14.49 50.625 13.6839 50.1938C12.8966 49.7813 12.0906 49.8187 11.4533 50.4C11.0596 50.775 10.7597 51.3375 10.6472 51.8813C10.4598 52.7625 10.441 53.7 10.3473 54.75C10.1973 54.5625 10.1599 54.5062 10.1036 54.45C5.22989 47.475 3.41161 39.75 4.57381 31.3313C5.13616 27.2438 6.54205 23.4563 8.60401 19.875C9.24134 18.7875 8.90393 17.5313 7.91044 16.9313C6.86071 16.3313 5.58605 16.6875 4.94871 17.8125C2.77428 21.4875 1.31216 25.4437 0.581099 29.6625C0.337412 31.0125 0.187451 32.3812 0 33.75C0 35.2125 0 36.6563 0 38.1188ZM51.1554 52.1625C52.7113 52.1625 53.5548 51.3187 53.5548 49.7812C53.5548 42.9375 53.5548 36.0938 53.5548 29.25C53.5548 28.8375 53.4798 28.4062 53.3486 28.0125C52.4863 25.3687 51.6053 22.725 50.7243 20.0812C50.3119 18.8812 49.6371 18.3937 48.3624 18.3937C40.1146 18.3937 31.8667 18.3937 23.6188 18.3937C22.3067 18.3937 21.6506 18.8625 21.2195 20.1375C20.3572 22.6875 19.5137 25.2375 18.6889 27.8063C18.5202 28.3313 18.4265 28.8938 18.4265 29.4563C18.4077 36.1875 18.4077 42.9 18.4077 49.6313C18.4077 51.375 19.195 52.1625 20.9383 52.1625C25.9432 52.1625 30.9669 52.1625 35.9719 52.1625C41.0331 52.1625 46.0942 52.1813 51.1554 52.1625ZM49.2997 31.1062C49.2997 36.7125 49.2997 42.2812 49.2997 47.8875C40.452 47.8875 31.5855 47.8875 22.6816 47.8875C22.6816 42.3187 22.6816 36.7312 22.6816 31.1062C24.9872 31.1062 27.2741 31.1062 29.6735 31.1062C29.6735 31.3125 29.6735 31.5375 29.6735 31.7625C29.6735 33.5625 29.6735 35.3625 29.6735 37.1813C29.6735 38.6438 30.5358 39.5062 31.9792 39.5062C34.641 39.5062 37.3215 39.5062 39.9833 39.5062C41.4642 39.5062 42.3077 38.6438 42.3077 37.125C42.3077 35.1375 42.3077 33.15 42.3077 31.0875C44.6884 31.1063 46.9753 31.1062 49.2997 31.1062ZM24.7248 23.025C24.856 22.6125 25.0997 22.6312 25.4184 22.6312C28.2489 22.6312 31.0794 22.6312 33.9287 22.6312C38.1276 22.6312 42.3077 22.65 46.5066 22.6125C46.994 22.6125 47.2002 22.7625 47.3502 23.2125C47.7063 24.3938 48.1187 25.5562 48.5311 26.7937C40.1708 26.7937 31.8854 26.7937 23.4876 26.7937C23.9 25.5187 24.3312 24.2813 24.7248 23.025ZM38.0526 31.1062C38.0526 32.475 38.0526 33.8438 38.0526 35.25C36.7029 35.25 35.3345 35.25 33.9287 35.25C33.9287 33.8812 33.9287 32.55 33.9287 31.1062C35.2971 31.1062 36.6467 31.1062 38.0526 31.1062Z" fill="#7A43EE"/>
</g>
<defs>
<clipPath id="clip0_158_599">
<rect width="72" height="72" fill="white"/>
</clipPath>
</defs>
</svg>
