<svg width="427" height="389" viewBox="0 0 427 389" fill="none" xmlns="http://www.w3.org/2000/svg">
<g filter="url(#filter0_i_163_439)">
<path d="M42.0435 361.317C42.5351 365.317 43.8701 368.975 45.8541 372.151C47.8382 375.327 50.4714 378.021 53.5594 380.094C56.6475 382.168 60.1904 383.62 64.0911 384.381C67.9045 385.152 72.0658 385.152 76.2162 384.342L200.967 359.852C204.769 359.083 208.219 357.624 211.339 355.637C214.46 353.649 217.065 351.072 219.271 348.136C221.391 345.21 223.112 341.926 224.106 338.482C225.099 335.039 225.442 331.348 225.067 327.578L193.832 45.3548C193.448 41.5048 192.22 37.9968 190.488 34.7101C188.765 31.5034 186.374 28.6184 183.606 26.2644C180.838 23.9104 177.595 22.0176 174.159 20.7154C170.645 19.5034 166.851 18.8922 162.972 19.0213L34.3682 25.1361C30.052 25.3163 26.0184 26.3561 22.4226 28.075C18.8267 29.7939 15.6586 32.1119 13.083 34.9286C10.5074 37.7454 8.5342 41.1408 7.38588 44.7644C6.15027 48.3981 5.75922 52.42 6.26066 56.4998L42.0435 361.317Z" fill="#E8F0FF"/>
</g>
<g filter="url(#filter1_d_163_439)">
<path d="M54.1249 354.205C54.5082 357.324 55.4728 360.132 57.0187 362.629C58.5646 365.126 60.5849 367.161 63.0021 368.826C65.4094 370.41 68.1265 371.634 71.114 372.177C74.1112 372.8 77.2917 372.752 80.4905 372.135L194.632 350.263C197.569 349.676 200.263 348.549 202.733 347.043C205.106 345.468 207.256 343.512 208.92 341.208C210.584 338.904 211.869 336.401 212.679 333.628C213.499 330.936 213.766 328.065 213.402 325.106L182.87 50.707C182.506 47.7475 181.629 44.9293 180.257 42.4122C178.886 39.8952 177.021 37.6794 174.845 35.8243C172.67 33.9692 170.186 32.4749 167.421 31.5813C164.646 30.6078 161.755 30.1345 158.682 30.3318L41.3727 36.5093C38.0276 36.6572 34.9455 37.5046 32.0969 38.8114C29.3355 40.1081 26.9046 41.934 24.872 44.1191C22.9265 46.2939 21.3891 48.9078 20.4919 51.6903C19.6045 54.5527 19.2702 57.5938 19.5761 60.8034L54.1249 354.205Z" fill="url(#paint0_linear_163_439)"/>
</g>
<path d="M72.8117 58.3959C72.8908 59.0419 73.0478 59.5969 73.3802 60.1312C73.7126 60.6656 74.0352 61.1192 74.5234 61.4714C75.0115 61.8237 75.4997 62.1759 76.1436 62.346C76.6997 62.5265 77.3337 62.6158 78.0456 62.6142L171.389 56.567C172.003 56.4949 172.52 56.3523 173.026 56.129C173.533 55.9056 173.932 55.5311 174.321 55.0758C174.623 54.6308 174.925 54.1859 175.129 53.6704C175.332 53.155 175.351 52.5794 175.282 52.0141L175.242 51.6911C175.173 51.1259 175.016 50.5709 174.684 50.0365C174.439 49.4919 174.039 49.1293 173.628 48.686C173.228 48.3235 172.662 48.0623 172.194 47.8716C171.637 47.6911 171.091 47.5915 170.477 47.6636L77.0844 53.307C76.4701 53.3791 75.8658 53.532 75.2713 53.7656C74.7646 53.9889 74.2776 54.3738 73.8883 54.8291C73.499 55.2844 73.1974 55.7294 73.0911 56.3152C72.8872 56.8307 72.8785 57.487 72.9477 58.0523L72.8117 58.3959ZM74.6416 74.0723C74.7207 74.7183 74.8776 75.2733 75.2101 75.8076C75.5425 76.342 75.8651 76.7956 76.3532 77.1478C76.8414 77.5001 77.3295 77.8523 77.9734 78.0224C78.5296 78.2029 79.1636 78.2922 79.8656 78.2098L122.934 75.1998C123.548 75.1277 124.152 74.9748 124.659 74.7514C125.166 74.5281 125.653 74.1433 125.954 73.6983C126.344 73.243 126.558 72.8083 126.752 72.2121C126.956 71.6967 126.974 71.1211 126.895 70.4751L126.855 70.1521C126.786 69.5868 126.619 68.9511 126.297 68.4975C125.964 67.9631 125.642 67.5095 125.154 67.1573C124.666 66.8051 124.187 66.5336 123.621 66.2724C123.065 66.092 122.431 66.0026 121.817 66.0747L78.7288 68.9232C78.1146 68.9953 77.5103 69.1482 76.9158 69.3818C76.4091 69.6052 75.9221 69.99 75.5328 70.4453C75.1435 70.9006 74.8518 71.4263 74.7356 71.9315C74.5317 72.4469 74.523 73.1032 74.5922 73.6685L74.6416 74.0723ZM30.6034 68.4314C30.8802 70.6925 31.5858 72.8213 32.7203 74.8178C33.8449 76.7336 35.3007 78.4466 37.068 79.7954C38.8352 81.1442 40.8361 82.2199 42.9729 82.9519C45.0999 83.6032 47.4505 83.9005 49.8395 83.7838C52.2186 83.5863 54.4605 82.9954 56.3898 82.0316C58.319 81.0678 60.0233 79.7209 61.4348 78.1626C62.8462 76.6043 63.8671 74.7642 64.5074 72.7231C65.1476 70.682 65.4171 68.5205 65.1403 66.2595C64.8636 63.9984 64.158 61.8696 63.0432 60.0346C61.9186 58.1188 60.4727 56.4865 58.7833 55.0466C57.1038 53.6875 55.093 52.5311 52.8783 51.8901C50.7415 51.1581 48.3908 50.8608 46.0019 50.9775C43.6129 51.0942 41.371 51.6852 39.354 52.6592C37.337 53.6333 35.6228 54.8995 34.2212 56.5386C32.8098 58.0969 31.711 60.028 31.0609 61.9884C30.4985 63.9384 30.3266 66.1703 30.6034 68.4314Z" fill="#CDD8F7"/>
<path d="M385.98 295.597C385.462 295.597 384.944 295.628 384.425 295.689L376.317 295.597L376.378 298.493C368.513 303.492 363.057 314.436 363.057 327.148C363.057 340.347 368.94 351.656 377.323 356.351L377.353 358.698H385.98C398.631 358.698 408.904 344.584 408.904 327.148C408.904 309.742 398.631 295.597 385.98 295.597Z" fill="#CDD8F7"/>
<path d="M376.317 358.698C388.977 358.698 399.241 344.572 399.241 327.148C399.241 309.723 388.977 295.597 376.317 295.597C363.657 295.597 353.394 309.723 353.394 327.148C353.394 344.572 363.657 358.698 376.317 358.698Z" fill="#CDD8F7"/>
<path d="M145.313 323.49L81.6797 313.156C81.6797 313.156 86.8765 273.04 113.824 273.649C140.771 274.289 138.302 302.365 145.313 323.49Z" fill="#7A43EE"/>
<path d="M257.157 341.566L320.502 338.731L302.852 297.396L261.821 299.835L250.817 317.789L257.157 341.566Z" fill="#7A43EE"/>
<path d="M290.934 311.693C290.415 311.693 289.928 311.723 289.41 311.784L281.423 311.693L281.484 314.558C273.741 319.496 268.376 330.287 268.376 342.847C268.376 355.894 274.168 367.05 282.398 371.684L282.429 374.001H290.934C303.401 374.001 313.491 360.039 313.491 342.847C313.491 325.624 303.401 311.693 290.934 311.693Z" fill="#CDD8F7"/>
<path d="M281.423 374.001C293.881 374.001 303.981 360.053 303.981 342.847C303.981 325.641 293.881 311.693 281.423 311.693C268.965 311.693 258.865 325.641 258.865 342.847C258.865 360.053 268.965 374.001 281.423 374.001Z" fill="url(#paint1_linear_163_439)"/>
<path d="M278.252 360.344C285.256 360.344 290.933 352.51 290.933 342.847C290.933 333.183 285.256 325.349 278.252 325.349C271.249 325.349 265.571 333.183 265.571 342.847C265.571 352.51 271.249 360.344 278.252 360.344Z" fill="white"/>
<path d="M196.037 283.526C195.61 283.526 195.184 283.556 194.787 283.587L188.172 283.526C177.838 283.526 169.456 296.146 169.456 311.693C169.456 327.239 177.838 339.859 188.172 339.859C188.447 339.859 188.721 339.859 188.995 339.829V339.859H196.037C206.371 339.859 214.754 327.239 214.754 311.693C214.754 296.116 206.371 283.526 196.037 283.526Z" fill="#CDD8F7"/>
<path d="M71.2082 283.983C71.8789 291.726 72.5495 298.432 73.0982 303.34C73.0982 303.462 73.1287 303.584 73.1287 303.706C73.2201 304.559 73.4031 305.382 73.6774 306.145C74.9882 309.894 78.2499 312.698 82.3347 313.369L84.9867 313.796L86.9682 314.131C86.9682 313.339 86.9682 312.546 86.9682 311.784C86.9986 309.498 87.1206 307.364 87.334 305.413C88.4618 295.75 92.1198 290.232 99.3749 287.946C101.905 287.153 104.862 286.757 108.307 286.696C113.367 286.635 117.482 288.281 120.805 290.933C127.328 296.115 130.834 304.986 132.693 311.936C133.333 314.284 133.76 316.387 134.034 318.064C134.187 318.978 134.309 319.74 134.4 320.38C134.522 321.386 134.583 321.965 134.583 321.965C134.583 322.118 148.453 324.404 166.804 327.422C168.846 327.757 170.95 328.093 173.084 328.458C173.754 328.58 174.394 328.672 175.065 328.794C177.229 329.159 179.455 329.525 181.71 329.861C186.222 330.592 190.825 331.354 195.458 332.086C197.105 332.36 198.781 332.635 200.427 332.878C201.067 332.97 201.738 333.092 202.378 333.183C204.055 333.458 205.731 333.732 207.377 334.006C232.374 338.03 254.23 341.536 254.23 341.536L254.2 341.078L257.126 341.505C257.126 341.505 257.126 341.414 257.126 341.261C257.157 340.164 257.309 335.622 258.285 330.074C259.352 323.855 261.455 316.387 265.448 311.235C267.978 307.974 271.24 305.626 275.538 305.078C276.727 304.925 277.916 304.834 279.074 304.834C279.318 304.834 279.593 304.834 279.867 304.834C280.111 304.834 280.385 304.864 280.629 304.864C280.66 304.864 280.72 304.864 280.751 304.864C280.934 304.864 281.117 304.895 281.3 304.895C281.605 304.925 281.909 304.956 282.245 304.986C282.458 305.017 282.702 305.047 282.946 305.078C283.494 305.139 284.013 305.26 284.531 305.352C284.775 305.413 285.049 305.474 285.293 305.535C285.476 305.565 285.659 305.626 285.842 305.657C286.055 305.718 286.268 305.779 286.482 305.84C286.604 305.87 286.726 305.901 286.848 305.962C287.061 306.023 287.305 306.114 287.518 306.175C287.762 306.266 288.006 306.358 288.25 306.419C288.951 306.663 289.622 306.937 290.292 307.272C290.506 307.364 290.719 307.455 290.902 307.577C291.024 307.638 291.146 307.699 291.268 307.76C291.451 307.852 291.634 307.943 291.816 308.065C291.969 308.156 292.152 308.248 292.304 308.339C292.426 308.431 292.579 308.492 292.731 308.583C293.127 308.797 293.524 309.04 293.889 309.315C294.103 309.437 294.316 309.589 294.499 309.742C294.651 309.833 294.773 309.924 294.926 310.046C295.17 310.229 295.413 310.382 295.657 310.595C295.84 310.748 296.023 310.9 296.237 311.022C296.419 311.174 296.602 311.327 296.785 311.479C297.151 311.784 297.517 312.119 297.883 312.424C298.248 312.759 298.614 313.095 298.95 313.461C299.163 313.674 299.407 313.918 299.62 314.131C299.651 314.162 299.681 314.192 299.712 314.223C300.047 314.558 300.352 314.924 300.657 315.29C300.9 315.594 301.175 315.869 301.419 316.174C301.845 316.692 302.242 317.21 302.638 317.728C303.553 318.978 304.406 320.289 305.199 321.691C305.473 322.148 305.717 322.636 305.961 323.124C306.205 323.611 306.479 324.099 306.692 324.617C306.723 324.648 306.723 324.678 306.753 324.709C306.967 325.166 307.18 325.654 307.393 326.142C307.515 326.385 307.607 326.66 307.729 326.934C308.156 328.001 308.552 329.068 308.948 330.196C309.131 330.745 309.314 331.324 309.497 331.903C309.68 332.482 309.832 333.061 309.985 333.671C310.137 334.281 310.289 334.921 310.442 335.561C310.625 336.445 310.808 337.359 310.99 338.304C311.021 338.548 311.082 338.762 311.112 339.006C311.143 339.097 311.143 339.188 311.143 339.249C311.295 340.194 311.417 341.17 311.539 342.145C311.631 342.786 311.692 343.456 311.722 344.127C311.753 344.462 311.783 344.797 311.814 345.133C311.844 345.468 311.844 345.803 311.874 346.169C311.905 346.505 311.905 346.84 311.935 347.206C311.935 347.206 311.966 347.206 312.027 347.206C312.118 347.206 312.271 347.328 312.484 347.358C312.698 347.389 312.941 347.541 313.246 347.541C313.368 347.541 313.521 347.449 313.673 347.48C313.917 347.51 314.161 347.48 314.435 347.51C314.709 347.541 315.014 347.541 315.35 347.541C315.441 347.541 315.502 347.541 315.593 347.541C315.837 347.571 316.112 347.571 316.386 347.602C316.508 347.602 316.66 347.632 316.782 347.632C316.813 347.632 316.874 347.632 316.904 347.632C317.087 347.632 317.27 347.663 317.453 347.663C317.666 347.663 317.91 347.693 318.154 347.693C318.246 347.693 318.306 347.693 318.398 347.724C318.52 347.724 318.642 347.724 318.764 347.754C320.075 347.846 321.568 347.907 323.214 347.968C323.519 347.968 323.793 347.998 324.098 347.998C324.434 347.998 324.769 348.029 325.104 348.029C326.11 348.059 327.177 348.09 328.305 348.12H328.336C329.677 348.151 331.079 348.181 332.542 348.181C334.036 348.181 335.621 348.181 337.267 348.181H337.572C337.846 348.181 338.121 348.151 338.426 348.12C339.614 348.09 340.834 348.059 342.114 348.029C342.144 348.029 342.205 348.029 342.236 348.029C342.876 347.998 343.547 347.998 344.217 347.968C344.614 347.968 344.979 347.937 345.376 347.937C345.406 347.937 345.437 347.937 345.467 347.937C345.711 347.937 345.985 347.907 346.229 347.907C346.869 347.876 347.54 347.846 348.211 347.815C348.272 347.815 348.302 347.815 348.363 347.815C349.278 347.785 350.223 347.724 351.198 347.663C351.259 347.663 351.32 347.663 351.381 347.663C352.387 347.602 353.423 347.541 354.49 347.48C354.826 347.449 355.161 347.449 355.496 347.419C356.472 347.358 357.447 347.267 358.453 347.206C359.246 347.145 360.038 347.084 360.861 347.023C361.258 346.992 361.684 346.962 362.081 346.931C362.782 346.87 363.483 346.809 364.184 346.748C365.342 346.626 366.501 346.535 367.69 346.413C368.299 346.352 368.909 346.291 369.519 346.23C369.762 346.2 370.037 346.2 370.281 346.139C370.921 346.078 371.591 345.986 372.262 345.925C372.414 345.925 372.536 345.895 372.689 345.895C373.207 345.834 373.695 345.773 374.213 345.712C374.457 345.681 374.701 345.651 374.945 345.62C377.597 345.316 380.31 344.95 383.084 344.554C385.035 344.279 387.016 343.974 389.028 343.67C389.516 343.578 390.003 343.517 390.491 343.426C391.253 343.304 392.015 343.182 392.808 343.06C393.539 342.938 394.241 342.816 394.972 342.694C395.49 342.603 395.978 342.511 396.496 342.42C396.862 342.359 397.197 342.298 397.563 342.237C397.716 342.206 397.868 342.176 398.021 342.145C398.965 341.962 399.941 341.81 400.916 341.627C401.252 341.566 401.618 341.505 401.953 341.444C402.258 341.383 402.593 341.322 402.898 341.261C404.087 341.048 405.276 340.835 406.464 340.621C406.769 340.56 407.044 340.499 407.348 340.499C407.501 340.499 407.653 340.438 407.806 340.408C407.897 340.377 407.958 340.347 408.05 340.316C408.354 340.255 408.659 340.164 408.964 340.103C409.086 340.073 409.177 340.042 409.299 340.042C409.726 339.951 410.153 339.859 410.58 339.768C411.647 339.554 412.744 339.31 413.841 339.067C413.841 339.067 414.024 339.036 414.36 338.945C414.39 338.945 414.451 338.914 414.512 338.914C414.573 338.884 414.634 338.884 414.695 338.853C414.756 338.823 414.847 338.823 414.908 338.792C414.969 338.762 415 338.762 415.061 338.731C415.091 338.731 415.152 338.701 415.183 338.701C415.335 338.64 415.518 338.579 415.701 338.518C416.128 338.335 416.615 338.152 417.134 337.878C417.225 337.817 417.347 337.786 417.438 337.725C417.743 337.573 418.079 337.39 418.383 337.207C418.81 336.963 419.267 336.658 419.725 336.323C420.182 335.988 420.639 335.622 421.096 335.226C421.218 335.134 421.31 335.012 421.432 334.921C421.584 334.768 421.767 334.616 421.919 334.433C422.255 334.098 422.56 333.732 422.895 333.366C423.047 333.183 423.2 332.756 423.352 332.756C423.505 332.756 423.657 332.391 423.809 332.177C423.901 332.055 423.992 331.933 424.084 331.781C424.267 331.507 424.45 331.232 424.632 330.927C424.754 330.684 424.907 330.44 425.029 330.196C425.151 329.952 425.273 329.678 425.425 329.434V329.403C425.425 329.373 425.456 329.373 425.456 329.342C425.577 329.098 425.669 328.824 425.791 328.55L425.669 327.3L424.632 313.186V313.156L423.901 302.304V302.151L422.925 288.068C422.925 287.824 422.895 287.611 422.864 287.367C422.864 287.275 422.834 287.153 422.834 287.031C422.803 286.849 422.773 286.696 422.743 286.513C422.743 286.483 422.743 286.452 422.743 286.452C422.712 286.208 422.651 285.965 422.56 285.721C422.468 285.446 422.377 285.141 422.285 284.867C422.224 284.654 422.133 284.471 422.041 284.257C422.041 284.227 422.011 284.196 422.011 284.166C421.706 283.465 421.31 282.764 420.853 282.124C420.182 281.148 419.359 280.264 418.383 279.502L382.139 250.787L381.925 250.604C381.925 250.604 381.834 250.512 381.681 250.299C381.529 250.086 381.285 249.781 380.98 249.384C380.919 249.323 380.889 249.232 380.797 249.171C380.706 249.049 380.584 248.897 380.462 248.714C380.401 248.653 380.34 248.561 380.279 248.47C379.791 247.83 379.212 247.068 378.511 246.214C378.42 246.092 378.328 246.001 378.267 245.879C376.56 243.684 374.365 240.88 371.835 237.679C371.652 237.435 371.469 237.222 371.287 236.978C370.982 236.612 370.707 236.246 370.403 235.88C370.159 235.575 369.915 235.271 369.671 234.966C367.872 232.71 365.952 230.302 363.971 227.894C363.483 227.314 362.995 226.705 362.507 226.126C362.111 225.638 361.715 225.181 361.319 224.693C360.892 224.144 360.434 223.626 360.008 223.108C357.203 219.724 354.399 216.401 351.686 213.292C351.411 212.987 351.168 212.682 350.893 212.378C350.619 212.073 350.375 211.768 350.101 211.463C349.826 211.158 349.582 210.884 349.308 210.579C348.973 210.213 348.668 209.878 348.363 209.543C347.662 208.75 346.961 207.988 346.26 207.256C346.229 207.226 346.229 207.226 346.199 207.195C345.467 206.433 344.797 205.702 344.126 205.001C343.913 204.757 343.669 204.543 343.455 204.3C343.242 204.086 343.028 203.842 342.785 203.629C342.358 203.202 341.931 202.775 341.535 202.41C340.712 201.617 339.95 200.916 339.249 200.337C338.852 200.032 338.517 199.727 338.151 199.483C338.151 199.483 335.194 195.124 316.569 192.746C316.538 192.746 181.497 173.267 159.762 176.072C138.241 178.815 82.9443 183.022 82.9443 185.004C82.9443 185.004 83.0358 185.004 83.1882 185.034C80.4752 185.339 78.2499 186.955 76.4514 189.698C66.4224 204.726 68.5562 252.768 71.2082 283.983Z" fill="url(#paint2_linear_163_439)"/>
<path d="M113.947 290.964C113.551 290.964 113.155 290.994 112.758 291.025L106.57 290.964L106.601 293.402C100.626 297.579 96.4497 306.724 96.4497 317.332C96.4497 328.367 100.961 337.817 107.332 341.719L107.363 343.67H113.947C123.61 343.67 131.445 331.872 131.445 317.301C131.475 302.761 123.641 290.964 113.947 290.964Z" fill="#CDD8F7"/>
<path d="M106.57 343.7C116.234 343.7 124.068 331.895 124.068 317.332C124.068 302.769 116.234 290.964 106.57 290.964C96.9066 290.964 89.0728 302.769 89.0728 317.332C89.0728 331.895 96.9066 343.7 106.57 343.7Z" fill="url(#paint3_linear_163_439)"/>
<path d="M104.131 332.147C109.569 332.147 113.977 325.514 113.977 317.332C113.977 309.15 109.569 302.517 104.131 302.517C98.6934 302.517 94.2852 309.15 94.2852 317.332C94.2852 325.514 98.6934 332.147 104.131 332.147Z" fill="white"/>
<path opacity="0.6" d="M208.048 303.218C208.688 309.802 209.541 316.478 210.73 323.276C211.005 324.861 211.279 326.446 211.584 328.032C212.376 332.116 215.76 335.287 220.028 335.927L254.23 341.139L257.157 341.597C257.157 341.597 257.218 336.536 258.315 330.165C259.382 323.947 261.485 316.478 265.479 311.327C268.009 308.065 271.27 305.718 275.568 305.169C293.737 302.761 310.899 318.978 312.057 347.358C312.057 347.358 352.204 352.479 414.054 339.158C414.054 339.158 418.017 338.365 421.675 334.982C421.828 334.829 422.011 334.677 422.163 334.494C422.498 334.159 422.803 333.823 423.139 333.427C423.443 333.061 423.779 332.665 424.053 332.238C424.815 331.171 425.486 329.982 426.034 328.58L423.2 288.098C423.169 287.854 423.169 287.641 423.139 287.397C423.139 287.306 423.108 287.184 423.108 287.062C423.078 286.879 423.047 286.727 423.017 286.544C423.017 286.513 423.017 286.483 422.986 286.483C422.956 286.239 422.895 285.995 422.803 285.751C422.712 285.477 422.62 285.172 422.529 284.898C422.468 284.684 422.376 284.501 422.285 284.288C422.285 284.257 422.255 284.227 422.255 284.196C421.95 283.495 421.553 282.794 421.096 282.154L419.267 284.044C420.06 304.864 424.937 312.18 384.15 316.387C343.973 320.533 345.193 288.952 345.193 288.952L293.523 268.284L251.182 205.366C242.86 199.148 228.411 197.837 218.656 197.746C216.644 199.209 215.15 201.312 214.602 203.781C211.127 218.932 203.75 258.194 208.048 303.218Z" fill="url(#paint4_linear_163_439)"/>
<path d="M270.386 209.451L299.04 256.518C300.412 258.743 302.942 259.962 305.503 259.657L371.408 251.579L381.711 250.329C381.559 250.116 381.315 249.811 381.01 249.415C380.949 249.354 380.919 249.263 380.827 249.202C380.736 249.08 380.614 248.927 380.492 248.744C380.431 248.683 380.37 248.592 380.309 248.5C379.821 247.86 379.242 247.098 378.541 246.245C378.45 246.123 378.358 246.031 378.297 245.909C376.59 243.715 374.395 240.91 371.865 237.709C371.682 237.465 371.499 237.252 371.316 237.008C371.012 236.642 370.737 236.277 370.432 235.911C370.189 235.606 369.945 235.301 369.701 234.996C367.902 232.741 365.982 230.332 364 227.924C363.513 227.345 363.025 226.735 362.537 226.156C362.141 225.668 361.745 225.211 361.348 224.723C360.922 224.175 360.464 223.656 360.038 223.138C357.233 219.755 354.429 216.432 351.716 213.323C351.441 213.018 351.197 212.713 350.923 212.408C350.649 212.103 350.405 211.798 350.13 211.494C349.856 211.189 349.612 210.914 349.338 210.61C349.003 210.244 348.698 209.908 348.393 209.573C347.692 208.781 346.991 208.019 346.29 207.287C346.259 207.256 346.259 207.256 346.229 207.226C345.497 206.464 344.826 205.732 344.156 205.031C343.942 204.787 343.698 204.574 343.485 204.33C343.272 204.117 343.058 203.873 342.814 203.659C342.388 203.233 341.961 202.806 341.565 202.44C340.742 201.647 339.98 200.946 339.278 200.367L280.75 203.873L273.038 204.33C270.538 204.513 269.075 207.287 270.386 209.451Z" fill="#7A43EE"/>
<path d="M416.464 287.489C416.372 286.757 415.762 286.208 415.061 286.239C395.278 286.422 370.403 290.567 362.173 292.061C360.618 292.335 359.612 293.86 359.947 295.384C361.563 302.243 364.215 306.906 366.196 309.589C367.538 311.418 369.58 312.576 371.836 312.759C378.054 313.247 391.863 314.07 398.539 312.485C404.484 311.083 410.184 308.248 413.263 306.571C415.031 305.596 416.311 303.858 416.616 301.846C417.378 296.999 416.768 290.263 416.464 287.489Z" fill="#7A43EE"/>
<path d="M319.678 289.409C319.13 288.281 319.648 286.909 320.837 286.483C322.574 285.843 324.983 285.08 326.354 285.263C328.183 285.477 343.608 289.47 350.65 291.33C352.814 291.909 354.338 293.921 354.186 296.176C353.881 300.962 352.052 308.583 343.821 309.437C332.39 310.595 325.165 300.505 319.678 289.409Z" fill="#F8BA55"/>
<path d="M393.814 317.789C363.819 321.965 357.722 311.692 357.722 311.692C350.619 312.759 340.529 311.357 334.798 310.351C332.604 309.985 330.5 311.022 329.281 312.851C328.366 314.223 326.72 315.625 323.702 316.143C318.764 316.997 310.381 315.107 306.296 314.07C312.271 322.27 316.447 332.909 316.996 347.267C316.996 347.267 356.381 352.51 414.817 339.127C414.817 339.127 422.651 337.451 425.974 328.611L424.267 302.182C421.249 306.846 413.232 315.076 393.814 317.789Z" fill="#7A43EE"/>
<path d="M227.252 213.719L237.983 215.944C241.488 216.676 244.567 218.627 246.64 221.462L273.496 258.499C275.325 261.029 272.947 264.504 269.777 263.895L223.503 255.298C221.644 254.963 220.302 253.439 220.241 251.64C219.967 245.239 219.662 230.088 222.223 217.011C222.65 214.755 224.936 213.262 227.252 213.719Z" fill="#7A43EE"/>
<path d="M83.036 204.3C86.9073 204.178 183.997 212.53 201.555 214.024C203.019 214.146 204.085 215.395 203.964 216.828L201.007 248.927C200.915 249.872 200.458 250.756 199.696 251.366C198.934 251.976 197.989 252.28 197.013 252.189L83.3408 242.831C81.1155 242.648 79.4084 240.819 79.4084 238.563C79.378 228.808 79.6218 204.391 83.036 204.3Z" fill="#7A43EE"/>
<path d="M208.048 303.218L120.835 290.964C127.358 296.146 130.864 305.017 132.723 311.967L210.73 323.246L258.315 330.135C259.382 323.916 261.485 316.448 265.479 311.296L208.048 303.218Z" fill="#7A43EE"/>
<path d="M71.2075 283.983C71.8782 291.726 72.5488 298.432 73.0975 303.34L74.835 303.584L85.87 305.169L87.3332 305.382C88.4611 295.719 92.1191 290.202 99.3742 287.915L91.7228 286.848L84.5592 285.873L71.2075 283.983Z" fill="#7A43EE"/>
<path d="M266.647 48.836L280.008 45.1568C280.004 45.0749 280.001 44.9929 279.957 44.9125C279.773 43.4416 279.59 41.9707 279.408 40.5408C279.404 40.4588 279.403 40.4178 279.399 40.3358C279.27 39.1913 279.1 38.0483 278.93 36.9053C278.451 33.2289 277.973 29.5934 277.494 25.917C277.069 22.5668 275.154 20.7936 272.13 20.9518C266.328 21.2588 260.542 20.9494 254.672 19.6168C245.784 17.58 237.619 13.2161 230.183 6.64803C228.866 5.50844 227.437 4.61954 226.046 3.64707C225.433 3.67084 224.821 3.7356 224.208 3.75937L201.413 10.0212C200.47 11.002 199.358 11.8252 198.543 12.9243C198.117 13.5155 197.689 14.0659 197.262 14.6162C197.107 14.8274 196.909 14.9993 196.754 15.2106C196.481 15.5496 196.209 15.8887 195.936 16.2277C195.74 16.4405 195.544 16.6534 195.389 16.8647C195.115 17.1627 194.84 17.4608 194.566 17.7588C194.37 17.9717 194.133 18.1861 193.937 18.399C193.661 18.656 193.428 18.9525 193.152 19.2095C192.956 19.4224 192.719 19.6368 192.521 19.8087C192.245 20.0658 191.969 20.3228 191.734 20.5782C191.536 20.7501 191.339 20.922 191.141 21.0939C190.865 21.3509 190.548 21.6095 190.272 21.8666C190.034 22.04 189.795 22.2135 189.599 22.4264C189.321 22.6424 189.045 22.8995 188.768 23.1155C188.529 23.289 188.33 23.4199 188.091 23.5933C187.773 23.811 187.495 24.027 187.176 24.2446C186.938 24.4181 186.697 24.5506 186.459 24.7241C186.181 24.9401 185.861 25.1167 185.583 25.3328C185.345 25.5063 185.064 25.6403 184.825 25.8138C184.546 25.9888 184.225 26.1655 183.946 26.3405C183.747 26.4714 183.546 26.5613 183.346 26.6922C182.98 26.7475 182.615 26.8437 182.292 26.9384C182.333 26.9368 182.372 26.8942 182.413 26.8926L159.452 33.1198C159.29 33.1672 159.088 33.2161 158.927 33.3044C158.888 33.347 158.847 33.3486 158.807 33.3502C158.686 33.3959 158.565 33.4416 158.445 33.5284C158.406 33.571 158.365 33.5725 158.326 33.6151C158.207 33.7018 158.047 33.7902 157.927 33.8769C157.808 33.9636 157.691 34.0914 157.571 34.1781C157.53 34.1797 157.491 34.2223 157.452 34.2648C157.374 34.35 157.295 34.4351 157.217 34.5203C157.178 34.5628 157.179 34.6038 157.14 34.6464C157.063 34.7726 156.987 34.8987 156.91 35.0248C156.835 35.192 156.76 35.3591 156.724 35.4837C156.726 35.5246 156.687 35.5672 156.688 35.6082C156.653 35.7328 156.617 35.8573 156.581 35.9819C156.583 36.0229 156.542 36.0245 156.544 36.0654C156.545 36.1064 156.545 36.1064 156.547 36.1474C156.513 36.313 156.48 36.5195 156.448 36.726C156.416 36.9326 156.424 37.1375 156.432 37.3425C156.436 37.4245 156.438 37.4655 156.441 37.5474C156.448 37.7114 156.454 37.8754 156.463 38.0803C156.466 38.1623 156.468 38.2033 156.471 38.2853C156.481 38.5312 156.492 38.7771 156.543 39.0215L156.544 39.0625C156.786 40.9417 156.986 42.8225 157.227 44.7017C157.357 45.8463 157.486 46.9908 157.615 48.1354C157.752 49.4849 157.931 50.8328 158.067 52.1414C158.199 53.3679 158.374 54.6339 158.507 55.8604C158.578 56.5966 158.689 57.2903 158.76 58.0265C158.887 59.1301 159.015 60.2337 159.185 61.3767C159.186 61.4177 159.188 61.4586 159.19 61.4996C159.191 61.5406 159.193 61.5816 159.195 61.6226C159.502 64.1151 159.851 66.606 160.198 69.0559C161.977 81.4269 164.811 93.5517 169.872 105.056C176.38 119.872 185.899 131.245 198.351 139.302C204.704 143.407 211.379 146.392 218.19 148.715C218.854 148.935 219.513 149.033 220.127 149.009C220.372 149 220.656 148.947 220.9 148.897L244.552 141.601C245.407 140.066 244.18 136.948 243.551 139.597C242.937 139.621 242.716 138.815 242.051 138.594C235.199 136.274 231.919 135.671 225.566 131.565C224.81 131.102 225.782 130.569 225.065 130.063L241.266 125.445C241.51 125.394 241.711 125.304 241.951 125.172C249.029 121.038 254.363 116.356 258.55 110.652C258.86 110.229 259.131 109.849 259.442 109.426C259.518 109.3 259.595 109.174 259.713 109.046C259.905 108.752 260.098 108.457 260.29 108.162C260.367 108.036 260.483 107.867 260.56 107.741C260.75 107.405 260.943 107.11 261.134 106.774C261.211 106.648 261.248 106.565 261.325 106.438C261.594 106.017 261.821 105.557 262.047 105.097C262.085 105.013 262.162 104.887 262.199 104.803C262.388 104.427 262.579 104.091 262.768 103.714C262.843 103.547 262.92 103.421 262.995 103.253C263.145 102.919 263.295 102.585 263.445 102.251C263.52 102.084 263.597 101.957 263.631 101.792C263.818 101.374 264.006 100.956 264.153 100.54C264.19 100.456 264.188 100.415 264.226 100.332C264.41 99.832 264.596 99.3732 264.78 98.8734C264.816 98.7488 264.891 98.5817 264.927 98.4572C265.075 98.0819 265.184 97.7492 265.291 97.3756C265.366 97.2084 265.4 97.0429 265.475 96.8757C265.583 96.5021 265.69 96.1284 265.839 95.7532C265.873 95.5876 265.909 95.4631 265.984 95.2959C266.125 94.7567 266.268 94.2585 266.41 93.7193C266.447 93.6357 266.444 93.5537 266.482 93.4702C266.586 93.0145 266.69 92.5589 266.835 92.1016C266.869 91.9361 266.901 91.7296 266.935 91.564C266.968 91.3575 267.041 91.1494 267.075 90.9838C267.109 90.8183 267.143 90.6527 267.177 90.4872C267.208 90.2396 267.281 90.0315 267.312 89.784C267.379 89.4119 267.445 89.0398 267.514 88.7087C267.544 88.4612 267.577 88.2547 267.648 88.0056C267.713 87.5925 267.778 87.1794 267.845 86.8073C267.877 86.6008 267.909 86.3943 267.944 86.2287C268.041 85.6091 268.097 84.9911 268.195 84.3715C269.037 76.9898 269.063 69.6809 268.281 62.6496C267.763 58.0303 267.245 53.4111 266.647 48.836ZM245.355 90.553C245.299 91.171 245.201 91.7906 245.104 92.4102C245.072 92.6167 245.039 92.8233 245.005 92.9888C244.94 93.4019 244.875 93.815 244.809 94.187C244.778 94.4346 244.746 94.6411 244.674 94.8902C244.607 95.2623 244.541 95.6344 244.473 95.9655C244.442 96.213 244.369 96.4211 244.338 96.6686C244.271 97.0407 244.164 97.4144 244.097 97.7865C244.063 97.952 244.031 98.1586 243.997 98.3241C243.893 98.7798 243.789 99.2354 243.644 99.6926C243.606 99.7762 243.61 99.8582 243.572 99.9417C243.431 100.481 243.289 101.02 243.146 101.518C243.112 101.684 243.076 101.808 243.001 101.976C242.893 102.349 242.786 102.723 242.638 103.098C242.563 103.265 242.529 103.431 242.454 103.598C242.346 103.972 242.198 104.347 242.089 104.68C242.053 104.804 241.978 104.971 241.942 105.096C241.758 105.596 241.574 106.095 241.388 106.554C241.349 106.597 241.352 106.679 241.313 106.721C241.125 107.139 240.979 107.555 240.791 107.973C240.716 108.14 240.64 108.267 240.606 108.432C240.456 108.766 240.306 109.101 240.156 109.435C240.081 109.602 240.004 109.728 239.929 109.895C239.74 110.272 239.549 110.608 239.36 110.985C239.322 111.068 239.245 111.195 239.208 111.278C238.981 111.739 238.712 112.159 238.485 112.62C238.409 112.746 238.371 112.83 238.294 112.956C238.103 113.292 237.913 113.627 237.72 113.922C237.643 114.048 237.527 114.217 237.451 114.343C237.258 114.638 237.066 114.933 236.873 115.228C236.796 115.354 236.72 115.48 236.602 115.608C236.333 116.029 236.023 116.451 235.711 116.833C234.472 118.564 233.105 120.177 231.613 121.713C229.979 120.832 228.426 119.907 226.912 118.939C217.111 112.627 209.915 103.956 204.854 92.4512C204.629 91.9673 204.445 91.4817 204.219 90.9568C204.171 90.7944 204.085 90.6746 204.037 90.5122C203.899 90.148 203.72 89.7855 203.582 89.4213C203.535 89.2589 203.446 89.0981 203.399 88.9358C203.217 88.4912 203.033 88.0057 202.849 87.5201C202.847 87.4791 202.805 87.4397 202.801 87.3577C202.616 86.8312 202.43 86.3047 202.245 85.7781C202.197 85.6158 202.149 85.4534 202.103 85.332C201.964 84.9268 201.826 84.5627 201.727 84.156C201.68 83.9936 201.632 83.8312 201.544 83.6704C201.402 83.2243 201.259 82.7371 201.118 82.291C201.074 82.2106 201.07 82.1286 201.024 82.0072C200.837 81.4397 200.693 80.9116 200.546 80.3425C200.499 80.1801 200.451 80.0177 200.405 79.8963C200.306 79.4896 200.165 79.0435 200.066 78.6367C200.019 78.4744 199.97 78.271 199.922 78.1086C199.781 77.6625 199.679 77.1738 199.578 76.726C199.532 76.6046 199.527 76.4817 199.481 76.3603C199.335 75.7912 199.187 75.1811 199.039 74.571C198.991 74.4086 198.984 74.2446 198.939 74.1233C198.838 73.6755 198.736 73.1868 198.636 72.7391C198.586 72.5357 198.537 72.3323 198.53 72.1684C198.428 71.6797 198.326 71.191 198.224 70.7022C198.176 70.5399 198.171 70.4169 198.124 70.2545C198.025 69.8478 197.967 69.4395 197.909 69.0311C197.857 68.7458 197.804 68.4604 197.75 68.1341C197.692 67.7258 197.591 67.2781 197.532 66.8288C197.479 66.5434 197.427 66.2581 197.374 65.9727C197.272 65.484 197.211 64.9937 197.149 64.5034C197.098 64.259 197.09 64.0541 197.039 63.8097C196.927 63.0751 196.813 62.2994 196.701 61.5648C195.949 56.2566 195.281 50.9863 194.646 45.5095C194.641 45.3865 194.636 45.2635 194.631 45.1405C194.629 45.0995 194.627 45.0586 194.626 45.0176C194.622 44.9356 194.619 44.8536 194.616 44.7716C194.614 44.7306 194.612 44.6896 194.611 44.6487C194.607 44.5667 194.605 44.5257 194.643 44.4421C194.641 44.4011 194.64 44.3601 194.677 44.2766C194.674 44.1946 194.713 44.152 194.71 44.07C194.708 44.029 194.708 44.029 194.747 43.9865C194.783 43.8619 194.819 43.7374 194.856 43.6538C194.854 43.6128 194.894 43.5702 194.894 43.5702C194.929 43.4457 195.006 43.3195 195.042 43.195L195.081 43.1524C195.117 43.0278 195.195 42.9427 195.233 42.8591C195.231 42.8181 195.272 42.8166 195.27 42.7756C195.347 42.6494 195.425 42.5643 195.502 42.4381L195.541 42.3956C195.62 42.3104 195.698 42.2253 195.776 42.1401C195.816 42.0975 195.816 42.0975 195.855 42.055C195.933 41.9698 196.052 41.8831 196.173 41.8373C196.173 41.8373 196.173 41.8373 196.214 41.8357C196.254 41.7932 196.294 41.7916 196.334 41.749L200.342 40.6494C200.301 40.6509 200.262 40.6935 200.18 40.6967L200.301 40.6509C204.836 39.4077 209.104 37.6411 213.147 35.3906C218.721 38.5 224.548 40.7786 230.541 42.1475C233.435 42.8154 236.403 43.2751 239.445 43.5678C241.129 43.7078 242.589 45.3345 242.833 47.2957C243.783 54.4436 244.696 61.6752 245.438 68.7491C246.225 75.9033 246.197 83.1713 245.355 90.553ZM180.721 27.574C180.762 27.5725 180.76 27.5315 180.801 27.5299C180.762 27.5725 180.682 27.6166 180.643 27.6592C180.682 27.6166 180.682 27.6166 180.721 27.574ZM181.241 27.2665C181.201 27.3091 181.12 27.3123 181.08 27.3548L181.12 27.3123C181.161 27.3107 181.2 27.2681 181.241 27.2665ZM224.799 4.18808C224.84 4.18649 224.84 4.18649 224.881 4.18491C224.84 4.18649 224.799 4.18808 224.799 4.18808ZM233.546 26.6351C233.628 26.6319 233.67 26.6713 233.752 26.6681C234.082 26.7374 234.413 26.8067 234.742 26.835C234.866 26.8713 234.948 26.8681 235.072 26.9043C235.525 26.9689 235.937 27.035 236.39 27.0996C236.472 27.0964 236.556 27.1342 236.678 27.1295C237.009 27.1988 237.378 27.2255 237.707 27.2538C237.831 27.2901 237.995 27.2837 238.119 27.32C238.448 27.3483 238.777 27.3766 239.106 27.4049C239.187 27.4017 239.271 27.4396 239.353 27.4364C239.393 27.4348 239.434 27.4332 239.475 27.4316C239.804 27.4599 240.092 27.4898 240.421 27.5182C240.502 27.515 240.584 27.5118 240.668 27.5496C241.078 27.5748 241.448 27.6015 241.858 27.6267C241.981 27.6219 242.063 27.6187 242.187 27.655C242.475 27.6849 242.761 27.6738 243.049 27.7037C243.212 27.6973 243.335 27.6926 243.5 27.7272C243.746 27.7177 243.993 27.7492 244.238 27.7397C244.401 27.7334 244.565 27.727 244.689 27.7633C244.935 27.7538 245.182 27.7852 245.427 27.7757C245.59 27.7694 245.754 27.763 245.877 27.7583C246.122 27.7488 246.367 27.7393 246.612 27.7298C246.776 27.7234 246.899 27.7187 247.062 27.7123C247.348 27.7013 247.594 27.6917 247.88 27.6807C248.002 27.6759 248.125 27.6711 248.248 27.6664C248.657 27.6505 249.025 27.6363 249.433 27.6204C252.457 27.4622 254.371 29.1945 254.798 32.5856C254.973 33.8515 255.105 35.078 255.28 36.344C254.66 36.2038 254.042 36.1046 253.422 35.9644C245.527 34.1766 237.936 30.8168 230.819 26.0428C231.192 26.1515 231.606 26.2586 231.977 26.3264C232.473 26.4303 232.928 26.5359 233.423 26.6398C233.423 26.6398 233.505 26.6366 233.546 26.6351ZM183.509 44.4188C183.445 43.8465 183.572 43.4895 183.507 42.9172C183.067 39.1982 181.938 37.6242 181.498 33.9052C183.196 33.9074 181.045 32.9668 181.035 32.7209C181.033 32.6799 181.031 32.6389 181.03 32.5979C181.028 32.5569 181.026 32.5159 181.025 32.475C181.018 32.311 181.011 32.147 181.006 32.0241L181.004 31.9831C181.001 31.9011 180.998 31.8191 180.996 31.7781C180.991 31.6552 181.025 31.4896 181.02 31.3666C181.016 31.2847 181.054 31.2011 181.051 31.1191C181.086 30.9946 181.081 30.8716 181.117 30.747C181.115 30.706 181.153 30.6225 181.151 30.5815L181.15 30.5405C181.185 30.4159 181.223 30.3324 181.259 30.2078C181.257 30.1668 181.296 30.1243 181.294 30.0833C184.169 31.7823 184.604 31.8222 181.769 30.6986C184.483 31.2843 182.257 29.8829 182.296 29.8403L191.235 26.3454L195.967 24.9303C196.291 24.8356 196.574 24.7426 196.898 24.6479C197.18 24.5548 197.424 24.5043 197.707 24.4113C198.151 24.2709 198.555 24.132 198.959 23.9932C199.16 23.9033 199.403 23.8528 199.645 23.7613C200.209 23.5342 200.814 23.3055 201.378 23.0783C201.419 23.0768 201.499 23.0326 201.54 23.031C202.143 22.7613 202.787 22.49 203.39 22.2203C203.591 22.1304 203.79 21.9995 203.991 21.9096C204.393 21.7298 204.794 21.509 205.196 21.3292C205.436 21.1967 205.676 21.0642 205.917 20.9318C206.278 20.7535 206.596 20.5359 206.957 20.3577C207.198 20.2252 207.436 20.0517 207.717 19.9177C208.036 19.7 208.356 19.5234 208.675 19.3058C208.913 19.1323 209.152 18.9588 209.433 18.8248C209.752 18.6071 210.07 18.3895 210.348 18.1735C210.586 18 210.825 17.8265 211.104 17.6515C211.382 17.4354 211.701 17.2178 211.978 17.0018C212.358 17.2744 212.781 17.5865 213.16 17.8592C213.201 17.8576 213.203 17.8986 213.244 17.897C213.833 18.2847 214.424 18.7134 215.012 19.0602C215.18 19.1768 215.349 19.2934 215.517 19.4101C215.938 19.6811 216.4 19.9506 216.82 20.2217C216.989 20.3384 217.198 20.4534 217.365 20.5291C217.91 20.8364 218.455 21.1437 219.041 21.4494C219.084 21.4888 219.125 21.4873 219.208 21.5251C219.835 21.8292 220.422 22.176 221.047 22.4391C221.214 22.5148 221.422 22.5888 221.591 22.7055C222.051 22.934 222.509 23.1215 222.969 23.35C223.093 23.3862 223.178 23.465 223.302 23.5013C223.427 23.5375 223.553 23.6147 223.677 23.651C223.802 23.6872 223.928 23.7644 224.052 23.8007C224.51 23.9882 224.926 24.1363 225.384 24.3238C225.425 24.3223 225.467 24.3617 225.467 24.3617C225.551 24.3995 225.592 24.3979 225.675 24.4357L204.944 30.1249C198.084 37.5345 192.716 41.2701 183.509 44.4188ZM181.561 27.0899L181.602 27.0883C181.643 27.0867 181.682 27.0441 181.764 27.041C181.682 27.0441 181.643 27.0867 181.561 27.0899Z" fill="url(#paint5_linear_163_439)"/>
<path d="M263.256 36.3789C264.941 36.5189 266.4 38.1453 266.644 40.1062C267.594 47.253 268.506 54.4833 269.248 61.556C270.029 68.5861 269.963 75.8954 269.162 83.2743C267.961 93.8704 264.837 102.489 259.566 109.671C255.38 115.375 250.048 120.097 242.971 124.189C242.571 124.41 242.168 124.549 241.718 124.566C241.268 124.584 240.815 124.519 240.4 124.371C235.78 122.539 231.684 120.481 227.941 118.081C218.143 111.77 210.949 103.1 205.889 91.597C202.05 82.8792 199.434 73.0468 197.697 60.7173C196.946 55.41 196.279 50.1406 195.643 44.6646C195.397 42.6628 196.472 40.9381 198.095 40.5878C210.064 37.9893 220.299 32.051 228.682 22.9005C236.665 28.8715 245.266 32.9303 254.316 35.0014C257.289 35.625 260.256 36.0847 263.256 36.3789Z" fill="#F8BA55"/>
<path d="M278.561 25.2782C279.353 31.5692 280.225 37.816 281.017 44.1069C281.74 49.7438 282.423 55.3821 283.024 61.0237C283.955 69.6902 283.862 78.3553 282.902 86.8487C281.429 99.7544 277.522 111.236 270.467 120.827C263.684 130.08 255.062 136.408 245.52 141.293C245.04 141.558 244.514 141.701 243.982 141.722C243.369 141.746 242.71 141.648 242.046 141.428C235.195 139.107 228.563 136.121 222.212 132.016C209.762 123.96 200.246 112.589 193.74 97.776C188.68 86.273 185.847 74.15 184.067 61.7809C183.719 59.2904 183.371 56.7998 183.065 54.3487C182.105 46.9559 181.307 39.5158 180.429 32.1198C179.938 28.157 181.214 26.3424 184.596 25.965C187.897 25.5908 191.197 25.2166 194.443 24.516C205.723 22.0673 215.091 15.9572 222.462 6.0659C223.082 5.22087 223.831 4.53502 224.622 3.84758C225.094 3.37774 225.737 3.10649 226.391 3.08114L227.207 3.00847C228.6 4.02177 230.068 4.86797 231.343 6.00898C238.819 12.5745 246.941 16.9393 255.826 18.9758C261.654 20.3098 267.48 20.6176 273.28 20.3106C276.223 20.1966 278.137 21.9286 278.561 25.2782ZM269.291 61.5561C268.508 54.4848 267.594 47.2134 266.687 40.1059C266.442 38.145 264.983 36.5185 263.299 36.3785C260.258 36.0859 257.291 35.6262 254.398 34.9584C245.347 32.8874 236.746 28.8284 228.763 22.8573C220.379 32.0079 210.144 37.9464 198.216 40.5434C196.552 40.8952 195.478 42.6609 195.723 44.6218C196.358 50.0979 197.026 55.3674 197.777 60.6748C199.555 73.0029 202.13 82.8371 205.969 91.555C211.029 103.058 218.223 111.728 228.022 118.039C231.764 120.439 235.863 122.538 240.481 124.33C240.898 124.519 241.351 124.583 241.799 124.525C242.249 124.507 242.652 124.369 243.053 124.148C250.128 120.015 255.462 115.334 259.648 109.63C264.919 102.447 268.043 93.8285 269.244 83.2322C270.005 75.8958 270.031 68.5879 269.291 61.5561Z" fill="url(#paint6_linear_163_439)"/>
<defs>
<filter id="filter0_i_163_439" x="6.04834" y="13.0044" width="225.167" height="371.95" filterUnits="userSpaceOnUse" color-interpolation-filters="sRGB">
<feFlood flood-opacity="0" result="BackgroundImageFix"/>
<feBlend mode="normal" in="SourceGraphic" in2="BackgroundImageFix" result="shape"/>
<feColorMatrix in="SourceAlpha" type="matrix" values="0 0 0 0 0 0 0 0 0 0 0 0 0 0 0 0 0 0 127 0" result="hardAlpha"/>
<feOffset dx="6" dy="-6"/>
<feGaussianBlur stdDeviation="3.5"/>
<feComposite in2="hardAlpha" operator="arithmetic" k2="-1" k3="1"/>
<feColorMatrix type="matrix" values="0 0 0 0 0.803922 0 0 0 0 0.847059 0 0 0 0 0.968627 0 0 0 1 0"/>
<feBlend mode="normal" in2="shape" result="effect1_innerShadow_163_439"/>
</filter>
<filter id="filter1_d_163_439" x="16.4653" y="19.2877" width="208.096" height="356.334" filterUnits="userSpaceOnUse" color-interpolation-filters="sRGB">
<feFlood flood-opacity="0" result="BackgroundImageFix"/>
<feColorMatrix in="SourceAlpha" type="matrix" values="0 0 0 0 0 0 0 0 0 0 0 0 0 0 0 0 0 0 127 0" result="hardAlpha"/>
<feOffset dx="4" dy="-4"/>
<feGaussianBlur stdDeviation="3.5"/>
<feComposite in2="hardAlpha" operator="out"/>
<feColorMatrix type="matrix" values="0 0 0 0 0.803922 0 0 0 0 0.847059 0 0 0 0 0.968627 0 0 0 1 0"/>
<feBlend mode="normal" in2="BackgroundImageFix" result="effect1_dropShadow_163_439"/>
<feBlend mode="normal" in="SourceGraphic" in2="effect1_dropShadow_163_439" result="shape"/>
</filter>
<linearGradient id="paint0_linear_163_439" x1="161.898" y1="98.1037" x2="45.7945" y2="414.057" gradientUnits="userSpaceOnUse">
<stop stop-color="#E8F0FF"/>
<stop offset="1" stop-color="#CDD8F7"/>
</linearGradient>
<linearGradient id="paint1_linear_163_439" x1="303.981" y1="342.847" x2="258.865" y2="342.847" gradientUnits="userSpaceOnUse">
<stop stop-color="#E8F0FF"/>
<stop offset="1" stop-color="#CDD8F7"/>
</linearGradient>
<linearGradient id="paint2_linear_163_439" x1="75.6872" y1="339.43" x2="308.002" y2="182.249" gradientUnits="userSpaceOnUse">
<stop stop-color="#7A43EE"/>
<stop offset="1" stop-color="#B565E6"/>
</linearGradient>
<linearGradient id="paint3_linear_163_439" x1="124.068" y1="317.332" x2="89.0728" y2="317.332" gradientUnits="userSpaceOnUse">
<stop stop-color="#E8F0FF"/>
<stop offset="1" stop-color="#CDD8F7"/>
</linearGradient>
<linearGradient id="paint4_linear_163_439" x1="330.588" y1="319.149" x2="255.916" y2="248.624" gradientUnits="userSpaceOnUse">
<stop stop-color="#7A43EE"/>
<stop offset="1" stop-color="#B565E6"/>
</linearGradient>
<linearGradient id="paint5_linear_163_439" x1="283.923" y1="90.6002" x2="177.515" y2="76.2923" gradientUnits="userSpaceOnUse">
<stop stop-color="#F8BA55"/>
<stop offset="1" stop-color="#FB7354"/>
</linearGradient>
<linearGradient id="paint6_linear_163_439" x1="279.851" y1="24.0195" x2="195.77" y2="139.732" gradientUnits="userSpaceOnUse">
<stop stop-color="#F8BA55"/>
<stop offset="1" stop-color="#FB7354"/>
</linearGradient>
</defs>
</svg>
