<svg width="72" height="72" viewBox="0 0 72 72" fill="none" xmlns="http://www.w3.org/2000/svg">
<path d="M71.9859 19.9506C71.6766 21.4176 71.2689 22.8419 70.3269 24.0383C69.9754 24.4798 69.6098 24.9213 69.2162 25.3201C55.8453 38.8651 42.4745 52.41 29.1037 65.9549C25.6169 69.4729 20.5835 69.9999 16.7452 67.2368C16.2109 66.8522 15.7188 66.4107 15.2548 65.9407C11.0931 61.7391 6.94552 57.5089 2.76977 53.3073C1.34974 51.8688 0.379613 50.2166 0.0984183 48.1941C0.0843585 48.1372 0.0281195 48.0802 0 48.009C0 47.2968 0 46.5847 0 45.8725C0.492091 44.6334 0.787346 43.2661 1.50439 42.1694C4.41476 37.7399 10.5167 37.1417 14.2847 40.8591C16.7733 43.3088 19.1916 45.8156 21.652 48.3081C21.8207 48.479 21.9473 48.6784 22.2566 49.1057C22.5097 48.7069 22.6503 48.4078 22.8612 48.1941C34.3902 36.515 45.9192 24.8216 57.4482 13.1568C60.0352 10.5218 63.5501 9.72423 66.7979 11.12C69.5958 12.3164 71.2548 14.4813 71.8594 17.4866C71.8875 17.6432 71.9438 17.7999 72 17.9566C71.9859 18.626 71.9859 19.2812 71.9859 19.9506ZM67.6555 18.683C67.6555 17.2302 66.6292 15.6777 64.9982 15.108C63.2408 14.4813 61.7504 14.9798 60.4569 16.2902C48.3515 28.5675 36.246 40.8306 24.1265 53.0937C22.7346 54.5037 21.6661 54.5179 20.2882 53.1221C17.3357 50.1311 14.3831 47.1544 11.4446 44.1634C10.2917 42.9955 8.91388 42.554 7.33919 42.9812C4.21793 43.8216 3.3181 47.6102 5.65202 50.003C9.89807 54.3328 14.1582 58.6341 18.4183 62.9355C18.7276 63.2488 19.0791 63.5479 19.4446 63.79C21.5395 65.1431 24.1125 64.8013 25.9824 62.907C33.5185 55.2728 41.0545 47.6387 48.5905 40.0045C54.4675 34.051 60.3445 28.0832 66.2355 22.1297C67.1213 21.2609 67.6555 20.2497 67.6555 18.683ZM18.4042 28.8381C18.348 27.6132 17.3779 26.659 16.225 26.6732C15.0861 26.6874 14.1301 27.599 14.0879 28.7954C14.0457 29.8209 14.0457 30.8321 14.0879 31.8576C14.1441 33.0682 15.0861 33.9655 16.225 33.9798C17.3919 33.994 18.348 33.054 18.4042 31.8291C18.4323 31.3306 18.4042 30.8321 18.4042 30.3336C18.4042 29.8351 18.4323 29.3366 18.4042 28.8381ZM46.9174 14.8232C47.4798 14.8232 48.0422 14.8516 48.6046 14.8089C49.6731 14.7377 50.5026 13.8262 50.5729 12.7437C50.6432 11.7182 49.8981 10.6358 48.8717 10.5361C47.6204 10.4221 46.341 10.4079 45.0896 10.5361C44.007 10.6358 43.2759 11.7182 43.3603 12.7864C43.4446 13.9116 44.3163 14.7662 45.4271 14.8232C45.9332 14.8516 46.4253 14.8232 46.9174 14.8232ZM14.0738 19.8366C14.1301 21.0758 15.0721 21.9873 16.2531 21.9873C17.4341 21.9731 18.362 21.0615 18.3902 19.8082C18.4183 18.8396 18.4183 17.8569 18.3902 16.8884C18.362 15.6492 17.406 14.7092 16.2531 14.695C15.1002 14.6807 14.1301 15.6208 14.0738 16.8456C14.0457 17.3441 14.0738 17.8426 14.0738 18.3411C14.0738 18.8396 14.0598 19.3381 14.0738 19.8366ZM42.6151 6.6905C42.6151 6.16352 42.6292 5.65078 42.6151 5.12379C42.5729 3.95588 41.6872 3.04434 40.5765 3.00161C39.4517 2.95888 38.4394 3.77072 38.355 4.93864C38.2707 6.09231 38.2847 7.26022 38.3691 8.41389C38.4534 9.53907 39.4376 10.3224 40.5624 10.2797C41.6731 10.2512 42.5589 9.3824 42.6292 8.25722C42.6432 7.74447 42.6151 7.21749 42.6151 6.6905ZM33.9402 14.8232C34.4745 14.8232 35.0228 14.8516 35.5571 14.8232C36.6538 14.7519 37.4974 13.8831 37.5536 12.8149C37.6239 11.704 36.935 10.6643 35.8524 10.5503C34.6292 10.4221 33.3779 10.4221 32.1406 10.5361C31.0158 10.6358 30.2847 11.704 30.3691 12.8149C30.4394 13.9116 31.3392 14.7804 32.464 14.8232C32.9561 14.8516 33.4482 14.8232 33.9402 14.8232ZM11.2619 26.5165C12.4148 26.4738 13.3005 25.5765 13.3568 24.4371C13.3989 23.3119 12.5835 22.2722 11.4446 22.201C10.3199 22.1297 9.19508 22.1155 8.08436 22.201C6.93146 22.2864 6.14411 23.2834 6.17223 24.4371C6.21441 25.5765 7.08612 26.4738 8.25308 26.5165C8.74517 26.5308 9.23726 26.5165 9.72935 26.5165C10.2355 26.5165 10.7417 26.5308 11.2619 26.5165ZM22.7487 26.5165C23.2408 26.5165 23.7329 26.5308 24.225 26.5165C25.3919 26.4738 26.2777 25.605 26.3339 24.4656C26.3902 23.2977 25.6169 22.2864 24.464 22.201C23.3251 22.1155 22.1722 22.1155 21.0334 22.201C19.9227 22.2864 19.1213 23.2977 19.1494 24.3943C19.1775 25.5195 20.0773 26.4596 21.2162 26.5023C21.7083 26.5308 22.2285 26.5165 22.7487 26.5165ZM42.6151 18.6402C42.6151 18.1417 42.6292 17.6432 42.6151 17.1447C42.5729 15.9483 41.6591 15.0226 40.5202 14.9798C39.4236 14.9513 38.4113 15.8059 38.341 16.9738C38.2707 18.1133 38.2707 19.2527 38.355 20.3779C38.4394 21.5031 39.4236 22.3007 40.5202 22.2722C41.6591 22.2437 42.5448 21.3606 42.6011 20.1927C42.6292 19.68 42.6151 19.153 42.6151 18.6402ZM60.5975 61.383C60.5554 60.1439 59.6555 59.1896 58.4745 59.1753C57.3497 59.1469 56.3515 60.0442 56.2812 61.2406C56.225 62.3088 56.225 63.377 56.2812 64.4452C56.3515 65.6274 57.3779 66.5247 58.5026 66.4819C59.6555 66.4392 60.5413 65.5134 60.5975 64.3028C60.6116 63.8043 60.5975 63.3058 60.5975 62.8073C60.5975 62.3373 60.6116 61.8672 60.5975 61.383ZM60.5835 49.362C60.5413 48.1656 59.6415 47.2256 58.4886 47.1829C57.3357 47.1402 56.3234 48.0659 56.2671 49.2908C56.2109 50.3021 56.225 51.3275 56.2671 52.353C56.3234 53.5922 57.2935 54.5037 58.4605 54.4895C59.6415 54.461 60.5413 53.5352 60.5835 52.2818C60.5975 51.826 60.5835 51.3845 60.5835 50.9287C60.5975 50.4018 60.6116 49.8748 60.5835 49.362ZM52.007 54.6604C51.4868 54.6604 50.9807 54.6461 50.4605 54.6604C49.2232 54.7173 48.3374 55.6431 48.3515 56.8538C48.3656 58.0359 49.2373 58.9617 50.4323 58.9902C51.4446 59.0187 52.4429 59.0187 53.4552 58.9902C54.6503 58.9475 55.536 58.0074 55.536 56.8395C55.536 55.6716 54.6643 54.7173 53.4833 54.6604C52.9912 54.6319 52.4991 54.6604 52.007 54.6604ZM64.8858 58.9902C65.4482 58.9902 66.0106 59.0187 66.5729 58.9902C67.6837 58.9047 68.5132 57.979 68.5132 56.8538C68.5272 55.7001 67.6837 54.7316 66.5448 54.6746C65.4763 54.6319 64.3937 54.6319 63.3111 54.6746C62.1722 54.7316 61.3005 55.7143 61.3146 56.8395C61.3146 57.9647 62.2004 58.919 63.3392 58.9902C63.8594 59.0187 64.3656 59.0044 64.8858 58.9902Z" fill="#7A43EE"/>
</svg>
