<svg width="72" height="72" viewBox="0 0 72 72" fill="none" xmlns="http://www.w3.org/2000/svg">
<g clip-path="url(#clip0_163_516)">
<path d="M2.25059 72C1.03152 71.4939 0.618911 70.5754 0.637666 69.2632C0.693931 65.3455 0.656421 61.4465 0.656421 57.5288C0.656421 55.7855 1.44413 54.9982 3.18833 54.9982C8.51472 54.9982 13.8223 54.9982 19.1487 54.9982C19.4301 54.9982 19.7114 54.9982 20.0865 54.9982C20.0865 54.717 20.0865 54.4733 20.0865 54.2109C20.0865 51.3241 20.0865 48.4561 20.0865 45.5694C20.0865 44.0323 20.9305 43.1888 22.4871 43.1888C27.851 43.1888 33.2149 43.1888 38.5788 43.1888C38.8601 43.1888 39.1414 43.1888 39.5165 43.1888C39.5165 42.8701 39.5165 42.6077 39.5165 42.3265C39.5165 37.9776 39.5165 33.61 39.5165 29.2611C39.5165 27.4991 40.3042 26.7118 42.1047 26.7118C44.4491 26.7118 46.7934 26.7118 49.2503 26.7118C49.2503 26.4119 49.2503 26.1494 49.2503 25.8683C49.2503 18.1453 49.2691 10.4035 49.2316 2.68055C49.2316 1.38714 49.6629 0.468628 50.9008 0C51.2383 0 51.5572 0 51.8948 0C53.3764 0.581099 53.6202 1.81828 53.4514 3.24291C53.8265 3.24291 54.0703 3.24291 54.3329 3.24291C59.2842 3.24291 64.2167 3.2804 69.168 3.22416C70.4809 3.20542 71.4374 3.56157 72 4.78001C72 5.15491 72 5.52981 72 5.90471C71.5874 6.42958 71.2123 6.99193 70.7622 7.49805C69.5994 8.79146 68.3991 10.0849 67.2175 11.3783C68.4928 12.653 69.7307 13.8901 70.931 15.1461C71.3436 15.5772 71.6437 16.1021 72 16.5894C72 16.9268 72 17.2455 72 17.5829C71.4936 18.8014 70.5746 19.195 69.2805 19.1763C64.2917 19.12 59.3029 19.1575 54.3141 19.1575C54.0516 19.1575 53.7703 19.1575 53.5077 19.1575C53.5077 21.7443 53.5077 24.1812 53.5077 26.7118C53.789 26.7118 54.0516 26.7118 54.2954 26.7118C56.5272 26.7118 58.7403 26.7118 60.9721 26.7118C62.7914 26.7118 63.5603 27.4803 63.5603 29.3174C63.5603 42.5889 63.5415 55.8605 63.5791 69.1507C63.5791 70.4629 63.2227 71.4189 62.0224 71.9813C42.1047 72 22.187 72 2.25059 72ZM43.8114 30.9669C43.8114 43.2825 43.8114 55.5043 43.8114 67.7449C49.0065 67.7449 54.1641 67.7449 59.3029 67.7449C59.3029 55.4668 59.3029 43.2262 59.3029 30.9669C54.1266 30.9669 48.9878 30.9669 43.8114 30.9669ZM39.4978 67.7449C39.4978 60.9591 39.4978 54.2109 39.4978 47.4626C34.434 47.4626 29.4077 47.4626 24.3626 47.4626C24.3626 54.2484 24.3626 60.9779 24.3626 67.7449C29.4264 67.7449 34.434 67.7449 39.4978 67.7449ZM4.93253 67.7261C10.0339 67.7261 15.0602 67.7261 20.049 67.7261C20.049 64.8769 20.049 62.0838 20.049 59.2721C14.9852 59.2721 9.9776 59.2721 4.93253 59.2721C4.93253 62.1026 4.93253 64.8956 4.93253 67.7261ZM65.0419 7.51679C61.1034 7.51679 57.3337 7.51679 53.5264 7.51679C53.5264 10.0099 53.5264 12.4468 53.5264 14.8836C57.2587 14.8836 60.9346 14.8836 64.7794 14.8836C64.0854 14.2088 63.504 13.6652 62.9414 13.1028C61.9099 12.0531 61.8911 10.9659 62.8664 9.87868C63.5603 9.12887 64.273 8.37907 65.0419 7.51679ZM0 42.9076C1.05027 44.5571 1.78171 44.7821 3.61969 43.9573C16.9544 37.9964 27.0445 28.5863 33.9463 15.7272C34.0401 15.5584 34.1526 15.3897 34.3027 15.1461C34.8091 16.1583 35.2592 17.0768 35.7281 17.9766C36.3282 19.1575 37.5098 19.6261 38.5976 19.1013C39.7041 18.5764 40.0979 17.3205 39.5165 16.1021C38.4288 13.8714 37.3222 11.6595 36.2157 9.44754C35.6718 8.34158 34.9028 7.94793 33.6838 8.19162C31.2081 8.67899 28.7325 9.20385 26.2568 9.74746C24.944 10.0474 24.2688 11.4533 24.8127 12.6717C25.2066 13.5152 26.1256 14.0213 27.0633 13.8526C28.1698 13.6652 29.2576 13.4215 30.3454 13.1966C30.3642 13.309 30.3829 13.3653 30.3642 13.4028C30.2704 13.609 30.1766 13.8339 30.0641 14.0401C23.6124 25.8683 14.2537 34.5847 1.913 40.0771C1.06903 40.452 0.356343 40.9019 0 41.7829C0 42.1578 0 42.5327 0 42.9076Z" fill="#FB7354"/>
</g>
<defs>
<clipPath id="clip0_163_516">
<rect width="72" height="72" fill="white"/>
</clipPath>
</defs>
</svg>
