<svg width="291" height="242" viewBox="0 0 291 242" fill="none" xmlns="http://www.w3.org/2000/svg">
<path d="M271.655 94.656C267.248 92.1809 262.842 89.6233 258.514 87.1483C256.94 86.2407 255.288 85.3332 253.714 84.4257C249.307 81.8681 247.969 76.9179 247.655 71.9678C247.104 64.46 246.553 56.9523 246.002 49.4446C250.409 51.9197 254.815 54.4772 259.143 56.9523C260.245 57.6123 261.347 58.1899 262.448 58.8499C262.763 59.0149 263.629 59.3449 263.865 59.6749C264.101 60.0049 263.943 61.2424 264.022 61.655C264.101 62.48 264.179 63.3875 264.179 64.2125C264.337 65.8626 264.415 67.5952 264.573 69.2452C264.809 72.5453 265.045 75.8454 265.281 79.228C265.517 82.4456 265.596 85.8282 266.776 88.8808C267.799 91.1909 269.452 93.336 271.655 94.656ZM274.566 10.3383C276.848 10.0083 279.288 10.4209 281.334 11.5759C276.14 8.60579 270.947 5.6357 265.753 2.66561C264.966 2.25309 264.258 1.84058 263.471 1.34557C261.032 0.0255243 258.356 -0.304486 255.681 0.273032C248.048 1.92308 240.415 3.90315 232.783 5.80071C225.15 7.61576 217.517 9.51332 209.884 11.3284C206.028 12.2359 202.173 13.2259 198.317 14.1335C194.933 14.9585 191.392 15.536 188.323 17.4336C182.894 20.7337 179.589 27.1689 180.455 33.7691C180.848 36.6567 182.028 39.3793 184.074 41.3593C184.94 42.1843 185.884 42.7619 186.907 43.2569C192.415 46.392 198.002 49.6096 203.51 52.7447C203.668 52.8272 203.825 52.9097 203.982 52.9922C199.182 50.2696 197.609 44.1644 198.553 38.8842C199.655 32.7791 204.14 27.8289 209.805 26.0138C213.11 24.9413 216.573 24.2813 219.956 23.4563C223.497 22.6312 226.96 21.7237 230.501 20.8987C237.504 19.2486 244.429 17.5161 251.432 15.866C255.288 14.9585 259.143 13.9685 263.078 13.0609C265.045 12.5659 267.091 12.0709 269.058 11.6584C270.789 11.1634 272.678 10.5859 274.566 10.3383ZM149.294 136.402C153.071 138.547 156.769 140.692 160.546 142.838C162.513 143.993 164.481 145.065 166.448 146.22C166.605 146.303 166.92 146.55 167.077 146.55C167.471 146.633 167.707 145.973 168.022 145.56C169.832 143.085 171.72 140.61 173.53 138.217C180.848 128.482 188.166 118.747 195.484 108.929C202.723 99.2762 209.963 89.6233 217.202 79.9705C224.52 70.2352 231.76 60.5824 239.078 50.8471C239.943 49.6096 240.887 48.4545 241.753 47.217C237.976 45.0719 234.278 42.9269 230.501 40.7818C228.533 39.6268 226.566 38.5542 224.599 37.3992C224.442 37.3167 224.127 37.0692 223.969 37.0692C223.576 36.9867 223.34 37.6467 223.025 38.0592C221.215 40.5343 219.405 42.9269 217.517 45.4019C210.278 55.1373 202.96 64.7901 195.72 74.5254C188.481 84.1782 181.241 93.831 174.002 103.484C166.684 113.219 159.366 123.037 152.048 132.772C151.104 134.01 150.238 135.165 149.294 136.402ZM119.181 141.57C118.236 140.827 115.772 140.857 114.828 140.197C114.513 139.95 114.199 139.867 113.884 139.702C112.546 138.96 111.208 138.135 109.871 137.392C106.408 135.412 102.946 133.432 99.4838 131.452C98.6182 130.957 97.8313 130.462 96.9658 130.05C98.0674 131.287 99.169 132.525 100.428 133.597C101.844 134.752 103.34 135.99 104.756 137.145C107.589 139.455 110.422 141.765 113.254 144.075C118.999 148.695 124.743 153.398 130.408 158.018C132.218 159.503 134.028 160.906 136.074 162.061C136.861 162.556 137.727 162.968 138.513 163.463C141.504 165.196 144.494 166.846 147.484 168.578C149.609 169.816 151.654 170.971 153.779 172.208C151.182 170.723 151.654 165.361 149.294 163.463C146.933 161.566 143.926 159.916 141.566 158.018C136.844 154.14 132.451 150.893 127.651 147.015C125.054 144.705 121.856 143.798 119.181 141.57ZM101.636 124.63C107.695 117.535 111.759 110.331 121.045 111.982C123.563 112.394 126.081 113.302 128.284 114.622C122.146 111.157 116.087 107.526 109.871 104.144C102.238 100.019 93.3461 101.009 86.2641 105.794C82.6444 108.269 79.6542 111.487 76.9001 114.952C73.6739 119.077 70.4477 123.284 67.2214 127.41C54.3165 144.075 41.4115 160.741 28.4279 177.406C22.0541 185.656 15.5229 193.907 9.2278 202.157C7.65402 204.219 6.15893 206.199 4.58516 208.262C3.32614 209.912 2.30318 211.727 1.59499 213.707C0.178588 217.75 0.178588 222.288 2.2245 226.083C4.2704 229.878 8.59829 231.693 12.1393 233.673C15.995 235.9 19.8508 238.046 23.7065 240.273C23.9426 240.438 24.1787 240.521 24.4934 240.686C21.1098 238.706 18.9852 234.993 18.6704 230.95C18.3557 226.825 22.5186 226.545 24.8006 223.245C27.5547 219.12 30.8854 215.105 33.8756 211.145C36.8658 207.267 40.4867 202.318 43.5556 198.44C55.831 182.682 67.5802 165.881 79.8556 150.04C83.3179 145.585 86.6783 141.6 90.1406 137.145C93.5242 133.02 98.1733 128.755 101.636 124.63Z" fill="#FB7354"/>
<path d="M245.216 17.351C251.668 15.7835 258.121 14.2159 264.652 12.6484C267.721 11.9058 270.868 10.9983 274.016 10.4208C276.14 10.0083 278.265 10.1733 280.311 10.9983C284.403 12.7309 286.685 16.9385 287.078 21.3936C287.708 28.3239 288.101 35.2541 288.573 42.1843C289.045 49.1145 289.517 55.9622 289.99 62.8924C290.226 66.3575 290.462 69.9052 290.698 73.3703C290.855 76.2579 291.249 79.2279 290.776 82.1155C290.068 86.7357 287.55 91.1083 283.773 93.6659C280.311 95.976 275.589 96.7185 271.812 94.7384C268.035 92.6759 266.068 88.3032 265.675 84.0131C265.045 77.6604 264.73 71.2252 264.258 64.79C264.101 63.0574 264.022 61.3249 263.865 59.6748C259.38 65.2025 255.209 70.9777 250.96 76.6704C246.475 82.6931 241.911 88.7157 237.425 94.6559C228.455 106.536 219.563 118.499 210.593 130.38C206.107 136.402 201.543 142.425 197.058 148.365C194.855 151.335 192.573 154.305 190.37 157.275C188.245 160.163 186.199 163.051 183.76 165.691C179.904 169.816 175.104 173.116 169.674 174.436C163.773 175.838 157.635 174.601 152.52 171.218C149.53 169.238 146.776 166.763 144.022 164.453C141.189 162.143 138.356 159.833 135.524 157.523C129.779 152.903 124.114 148.2 118.369 143.497C117.11 142.425 116.087 141.27 114.986 140.115C107.274 150.015 99.5628 159.998 91.8513 169.898C83.825 180.294 75.7988 190.606 67.7725 201.002C59.7463 211.397 51.72 221.71 43.6937 232.023C40.3101 236.395 36.7691 241.263 31.0249 241.923C26.3822 242.501 21.897 239.778 19.9297 235.405C18.1199 231.445 18.4347 226.66 20.1658 222.7C21.2675 220.142 22.9986 217.997 24.7298 215.77C26.697 213.212 28.6642 210.572 30.6314 208.014C38.579 197.784 46.5265 187.554 54.4741 177.323C62.5004 166.928 70.5266 156.533 78.6316 146.22C82.6447 141.105 86.5791 135.907 90.5922 130.792C94.2906 126.089 97.7529 120.974 102.474 117.262C106.409 114.127 111.051 111.981 116.009 111.569C121.36 111.156 126.71 112.889 131.038 116.107C133.556 118.004 135.996 120.067 138.435 122.047C140.953 124.109 143.471 126.089 145.989 128.152C151.025 132.195 156.061 136.32 161.019 140.445C162.199 141.435 163.379 142.425 164.56 143.332C165.661 144.24 166.448 145.395 167.314 146.468C177.071 133.515 186.75 120.479 196.507 107.526C206.186 94.6559 215.865 81.7855 225.465 68.9151C230.894 61.6549 236.324 54.3947 241.753 47.1344C233.884 48.6195 226.094 50.7646 218.304 52.5796C214.92 53.4046 211.379 54.6422 207.838 54.1472C205.32 53.8172 202.881 52.5796 201.15 50.5996C197.294 46.0619 197.373 38.8842 200.127 33.8515C201.543 31.2114 203.668 28.9839 206.186 27.4163C209.334 25.5188 213.032 24.9413 216.573 24.1162C226.173 21.9712 235.694 19.6611 245.216 17.351Z" fill="url(#paint0_linear_163_432)"/>
<defs>
<linearGradient id="paint0_linear_163_432" x1="281.321" y1="18.15" x2="36.9009" y2="225.06" gradientUnits="userSpaceOnUse">
<stop stop-color="#F8BA55"/>
<stop offset="1" stop-color="#FB7354"/>
</linearGradient>
</defs>
</svg>
