<svg width="424" height="333" viewBox="0 0 424 333" fill="none" xmlns="http://www.w3.org/2000/svg">
<path d="M422.337 77.1633C421.878 76.4358 408.936 76.7421 392.434 77.4313C386.116 76.7421 379.071 76.5124 371.682 76.7804C363.182 77.125 355.141 78.1205 348.058 79.6137C332.436 80.4561 320.605 81.1453 320.605 81.1453C320.605 81.1453 318.844 238.409 321.332 241.166C325.965 248.747 346.871 253.686 371.797 252.614C399.249 251.427 421.457 243.348 422.337 234.389C422.376 234.389 422.376 234.389 422.376 234.389C422.376 234.389 423.639 79.1543 422.337 77.1633Z" fill="url(#paint0_linear_163_474)"/>
<path d="M423.218 77.8096C423.257 86.9989 400.513 95.3841 372.218 96.571C343.693 97.758 320.375 91.1723 320.337 81.8682C320.337 72.5641 343.578 64.1406 372.065 63.1068C400.36 62.073 423.142 68.6587 423.218 77.8096Z" fill="#B565E5"/>
<path d="M337.337 172.163C336.878 171.436 323.936 171.742 307.434 172.431C301.116 171.742 294.071 171.512 286.682 171.78C278.182 172.125 270.141 173.12 263.058 174.614C247.436 175.456 235.605 176.145 235.605 176.145C235.605 176.145 233.844 278.409 236.332 281.166C240.965 288.747 261.871 293.686 286.797 292.614C314.249 291.427 336.457 283.348 337.337 274.389C337.376 274.389 337.376 274.389 337.376 274.389C337.376 274.389 338.639 174.154 337.337 172.163Z" fill="url(#paint1_linear_163_474)"/>
<path d="M338.218 173.81C338.257 182.999 315.513 191.384 287.218 192.571C258.693 193.758 235.375 187.172 235.337 177.868C235.337 168.564 258.578 160.141 287.065 159.107C315.36 158.073 338.142 164.659 338.218 173.81Z" fill="#E8F0FF"/>
<path d="M58.836 230.22C59.5877 229.657 75.6757 234.257 96.1196 240.466C104.233 241.89 113.059 243.997 122.24 246.73C132.798 249.905 142.58 253.598 151.049 257.438C170.371 263.502 185.051 268.186 185.051 268.186C185.051 268.186 183.238 283.699 179.361 285.567C171.483 291.555 143.962 289.489 113.048 280.053C79.0199 269.678 53.5242 254.212 54.8259 244.999C54.7909 244.99 54.756 244.981 54.756 244.981C54.756 244.981 56.6988 231.749 58.836 230.22Z" fill="#FB7354"/>
<path d="M57.6371 231.865C55.0899 240.977 81.1372 256.893 116.109 267.517C151.395 278.225 182.329 279.442 184.845 270.17C187.396 260.907 160.59 244.751 125.325 234.24C90.3152 223.758 60.1494 222.744 57.6371 231.865Z" fill="url(#paint2_linear_163_474)"/>
<path d="M72.4628 220.677C73.1158 220.202 86.6723 224.056 103.915 229.227C110.751 230.388 118.215 232.135 125.937 234.444C134.838 237.104 143.061 240.193 150.189 243.45C166.45 248.513 178.758 252.417 178.758 252.417C178.758 252.417 177.174 265.704 173.883 267.345C167.228 272.552 144.038 270.947 118.019 263.073C89.3386 254.381 67.8478 241.271 68.9867 233.349C68.9517 233.34 68.9517 233.34 68.9517 233.34C68.9517 233.34 70.6377 222.021 72.4628 220.677Z" fill="#FB7354"/>
<path d="M71.0884 222.015C68.8883 229.847 90.9307 243.407 120.459 252.285C150.257 261.273 176.348 262.123 178.517 254.131C180.711 246.183 158.144 232.484 128.378 223.657C98.865 214.859 73.2982 214.148 71.0884 222.015Z" fill="url(#paint3_linear_163_474)"/>
<path d="M94.5278 224.009C93.6675 227.029 106.77 233.539 123.801 238.629C129.11 240.217 134.139 241.466 138.633 242.348C148.641 244.343 155.797 244.492 156.373 242.378C156.574 241.639 155.874 240.926 154.57 239.827C145.451 228.138 158.464 182.718 158.464 182.718L122.829 172.424C122.829 172.424 109.622 221.568 95.4324 223.153C95.4324 223.153 95.5307 223.066 95.5907 223.119C94.9981 223.378 94.6334 223.622 94.5278 224.009Z" fill="url(#paint4_linear_163_474)"/>
<g filter="url(#filter0_i_163_474)">
<path d="M96.8194 150.866L92.7401 149.716C75.45 144.859 62.779 130.7 61.2314 114.382L55.4755 53.9399C55.1416 50.3835 56.6617 47.1271 59.6514 44.8989C62.5429 42.7578 66.4726 42.1345 70.3879 43.2039C70.4921 43.2314 70.5616 43.2497 70.6658 43.2771L118.576 57.8998C122.463 59.0748 124.705 62.87 123.573 66.3418C122.44 69.8135 118.359 71.6785 114.482 70.4684L70.1642 56.8679L75.6868 113.931C76.7233 124.61 84.9942 133.877 96.3041 137.045L100.383 138.196C104.324 139.309 106.743 143.001 105.74 146.544C104.722 150.008 100.735 151.936 96.8194 150.866Z" fill="#F8BA55"/>
</g>
<g filter="url(#filter1_i_163_474)">
<path d="M95.1137 28.4996C95.1137 28.4996 94.6816 30.085 93.9927 32.8865C93.8967 33.2388 93.8007 33.5911 93.7395 33.9526C88.335 56.657 70.2931 144.754 105.655 184.957C108.22 187.861 110.584 190.409 113.704 192.78C118.777 196.608 125.248 199.823 130.972 201.671L130.962 201.706C132.414 202.127 131.902 201.954 132.18 202.027C132.459 202.101 132.901 202.255 133.388 202.383C204.944 220.895 247.041 104.056 255.764 76.9773C256.54 74.5387 257.289 72.8858 257.519 72.0403C257.615 71.688 257.787 71.4689 257.787 71.4689L176.797 49.9435L174.501 49.3385L95.1137 28.4996Z" fill="url(#paint5_linear_163_474)"/>
</g>
<g filter="url(#filter2_i_163_474)">
<path d="M201.337 172.006L205.557 173.193C217.251 176.463 229.586 172.737 236.222 163.965L271.877 116.611L229.548 106.739C229.548 106.739 219.708 99.3956 232.163 93.5899L278.822 104.376C278.927 104.403 279.031 104.431 279.1 104.449C283.269 105.548 286.501 108.171 288.028 111.59C289.594 115.133 289.182 118.832 286.951 121.827L249.005 172.123C238.822 185.578 219.904 191.189 201.959 186.122L197.74 184.934C193.694 183.793 191.189 180.003 192.202 176.424C193.224 172.81 197.292 170.865 201.337 172.006Z" fill="#F8BA55"/>
</g>
<g filter="url(#filter3_i_163_474)">
<path d="M81.4576 23.7311C79.2666 31.5177 87.4399 36.44 90.5311 38.2928C90.9212 38.5109 91.2763 38.7199 91.6915 38.9831C95.9723 41.4187 101.829 44.1173 109.192 47.0603C125.268 53.4946 147.096 60.5279 170.773 66.8216C192.17 72.5511 212.806 77.0821 229.595 79.7906C231.46 80.0915 233.29 80.3832 235.096 80.6299C243.06 81.7746 249.71 82.3804 254.783 82.4541C255.38 82.4586 255.943 82.4538 256.471 82.4398C256.735 82.4328 257.034 82.4351 257.333 82.4373C261.593 82.3346 270.412 81.7098 272.436 74.2627C274.615 66.2428 266.023 61.2098 262.792 59.3201C258.236 56.6581 251.719 53.6318 243.397 50.3587C226.833 43.7952 204.581 36.8036 180.779 30.5539C157.118 24.341 134.657 19.6349 117.472 17.2823C108.885 16.088 101.951 15.5609 96.8648 15.6754C93.258 15.7202 83.6486 15.9444 81.4576 23.7311Z" fill="url(#paint6_linear_163_474)"/>
</g>
<path d="M89.9707 21.8589C88.9519 25.4929 126.756 38.7536 174.906 51.5951C223.687 64.6039 264.541 72.2577 265.554 68.5061C266.567 64.7545 227.39 51.1672 178.59 38.2305C130.455 25.4705 90.9895 18.2248 89.9707 21.8589Z" fill="#FB7354"/>
<g filter="url(#filter4_d_163_474)">
<path d="M151.374 90.8679C149.08 90.5279 146.742 91.3087 144.957 93.4811C142.126 96.8883 139.331 100.305 136.545 103.686C136.202 104.124 135.856 104.297 135.236 104.247C130.816 103.913 126.43 103.588 122.034 103.298C119.36 103.123 117.306 104.092 115.917 106.179C114.518 108.303 114.473 110.518 115.857 112.695C118.251 116.497 120.715 120.317 123.169 124.173C123.43 124.581 123.423 124.881 123.238 125.286C121.495 129.357 119.707 133.454 118.033 137.543C117.048 139.926 117.421 142.252 119.279 144.327C121.128 146.438 123.5 147.176 126.157 146.592C130.195 145.731 134.252 144.798 138.319 143.831C138.918 143.687 139.3 143.788 139.736 144.242C142.867 147.257 145.998 150.271 149.173 153.26C152.664 156.595 157.99 155.658 159.836 151.35C160.336 150.198 160.403 148.856 160.496 147.559C160.85 143.387 161.16 139.24 161.469 135.093C161.519 134.502 161.694 134.133 162.236 133.785C165.994 131.491 169.701 129.107 173.477 126.742C175.957 125.168 177.226 122.973 176.982 120.039C176.737 117.106 175.03 115.297 172.368 114.256C168.458 112.735 164.556 111.179 160.636 109.693C160.029 109.457 159.793 109.093 159.658 108.491C158.772 104.218 157.832 100.007 156.892 95.7948C156.348 93.2733 154.483 91.4983 151.374 90.8679Z" fill="url(#paint7_linear_163_474)"/>
</g>
<path d="M252.337 262.163C251.878 261.436 238.936 261.742 222.434 262.431C216.116 261.742 209.071 261.512 201.682 261.78C193.182 262.125 185.141 263.12 178.058 264.614C162.436 265.456 150.605 266.145 150.605 266.145C150.605 266.145 148.844 318.409 151.332 321.166C155.965 328.747 176.871 333.686 201.797 332.614C229.249 331.427 251.457 323.348 252.337 314.389C252.376 314.389 252.376 314.389 252.376 314.389C252.376 314.389 253.639 264.154 252.337 262.163Z" fill="url(#paint8_linear_163_474)"/>
<path d="M253.218 263.81C253.257 272.999 230.513 281.384 202.218 282.571C173.693 283.758 150.375 277.172 150.337 267.868C150.337 258.564 173.578 250.141 202.065 249.107C230.36 248.073 253.142 254.659 253.218 263.81Z" fill="#E8F0FF"/>
<defs>
<filter id="filter0_i_163_474" x="52.4297" y="36.6917" width="71.4365" height="114.47" filterUnits="userSpaceOnUse" color-interpolation-filters="sRGB">
<feFlood flood-opacity="0" result="BackgroundImageFix"/>
<feBlend mode="normal" in="SourceGraphic" in2="BackgroundImageFix" result="shape"/>
<feColorMatrix in="SourceAlpha" type="matrix" values="0 0 0 0 0 0 0 0 0 0 0 0 0 0 0 0 0 0 127 0" result="hardAlpha"/>
<feOffset dx="-3" dy="-6"/>
<feGaussianBlur stdDeviation="3.5"/>
<feComposite in2="hardAlpha" operator="arithmetic" k2="-1" k3="1"/>
<feColorMatrix type="matrix" values="0 0 0 0 0.984314 0 0 0 0 0.45098 0 0 0 0 0.329412 0 0 0 1 0"/>
<feBlend mode="normal" in2="shape" result="effect1_innerShadow_163_474"/>
</filter>
<filter id="filter1_i_163_474" x="70.3271" y="14.4998" width="187.46" height="189.861" filterUnits="userSpaceOnUse" color-interpolation-filters="sRGB">
<feFlood flood-opacity="0" result="BackgroundImageFix"/>
<feBlend mode="normal" in="SourceGraphic" in2="BackgroundImageFix" result="shape"/>
<feColorMatrix in="SourceAlpha" type="matrix" values="0 0 0 0 0 0 0 0 0 0 0 0 0 0 0 0 0 0 127 0" result="hardAlpha"/>
<feOffset dx="-14" dy="-14"/>
<feGaussianBlur stdDeviation="16"/>
<feComposite in2="hardAlpha" operator="arithmetic" k2="-1" k3="1"/>
<feColorMatrix type="matrix" values="0 0 0 0 0.984314 0 0 0 0 0.45098 0 0 0 0 0.329412 0 0 0 1 0"/>
<feBlend mode="normal" in2="shape" result="effect1_innerShadow_163_474"/>
</filter>
<filter id="filter2_i_163_474" x="188.978" y="87.5898" width="99.9902" height="100.375" filterUnits="userSpaceOnUse" color-interpolation-filters="sRGB">
<feFlood flood-opacity="0" result="BackgroundImageFix"/>
<feBlend mode="normal" in="SourceGraphic" in2="BackgroundImageFix" result="shape"/>
<feColorMatrix in="SourceAlpha" type="matrix" values="0 0 0 0 0 0 0 0 0 0 0 0 0 0 0 0 0 0 127 0" result="hardAlpha"/>
<feOffset dx="-3" dy="-6"/>
<feGaussianBlur stdDeviation="3.5"/>
<feComposite in2="hardAlpha" operator="arithmetic" k2="-1" k3="1"/>
<feColorMatrix type="matrix" values="0 0 0 0 0.984314 0 0 0 0 0.45098 0 0 0 0 0.329412 0 0 0 1 0"/>
<feBlend mode="normal" in2="shape" result="effect1_innerShadow_163_474"/>
</filter>
<filter id="filter3_i_163_474" x="78.0898" y="9.66016" width="194.695" height="72.7957" filterUnits="userSpaceOnUse" color-interpolation-filters="sRGB">
<feFlood flood-opacity="0" result="BackgroundImageFix"/>
<feBlend mode="normal" in="SourceGraphic" in2="BackgroundImageFix" result="shape"/>
<feColorMatrix in="SourceAlpha" type="matrix" values="0 0 0 0 0 0 0 0 0 0 0 0 0 0 0 0 0 0 127 0" result="hardAlpha"/>
<feOffset dx="-3" dy="-6"/>
<feGaussianBlur stdDeviation="3.5"/>
<feComposite in2="hardAlpha" operator="arithmetic" k2="-1" k3="1"/>
<feColorMatrix type="matrix" values="0 0 0 0 0.984314 0 0 0 0 0.45098 0 0 0 0 0.329412 0 0 0 1 0"/>
<feBlend mode="normal" in2="shape" result="effect1_innerShadow_163_474"/>
</filter>
<filter id="filter4_d_163_474" x="92.8428" y="72.7915" width="110.169" height="112.479" filterUnits="userSpaceOnUse" color-interpolation-filters="sRGB">
<feFlood flood-opacity="0" result="BackgroundImageFix"/>
<feColorMatrix in="SourceAlpha" type="matrix" values="0 0 0 0 0 0 0 0 0 0 0 0 0 0 0 0 0 0 127 0" result="hardAlpha"/>
<feOffset dx="2" dy="6"/>
<feGaussianBlur stdDeviation="12"/>
<feComposite in2="hardAlpha" operator="out"/>
<feColorMatrix type="matrix" values="0 0 0 0 0.984314 0 0 0 0 0.45098 0 0 0 0 0.329412 0 0 0 1 0"/>
<feBlend mode="normal" in2="BackgroundImageFix" result="effect1_dropShadow_163_474"/>
<feBlend mode="normal" in="SourceGraphic" in2="effect1_dropShadow_163_474" result="shape"/>
</filter>
<linearGradient id="paint0_linear_163_474" x1="413.5" y1="217" x2="292.5" y2="217" gradientUnits="userSpaceOnUse">
<stop stop-color="#7A43EE"/>
<stop offset="1" stop-color="#B565E5"/>
</linearGradient>
<linearGradient id="paint1_linear_163_474" x1="328.5" y1="257" x2="207.5" y2="257" gradientUnits="userSpaceOnUse">
<stop stop-color="#CDD8F7"/>
<stop offset="1" stop-color="#E8F0FF"/>
</linearGradient>
<linearGradient id="paint2_linear_163_474" x1="91.9484" y1="230.366" x2="189.716" y2="285.484" gradientUnits="userSpaceOnUse">
<stop stop-color="#F8BA55"/>
<stop offset="1" stop-color="#FB7354"/>
</linearGradient>
<linearGradient id="paint3_linear_163_474" x1="100.129" y1="220.456" x2="182.935" y2="266.679" gradientUnits="userSpaceOnUse">
<stop stop-color="#F8BA55"/>
<stop offset="1" stop-color="#FB7354"/>
</linearGradient>
<linearGradient id="paint4_linear_163_474" x1="101.143" y1="199.737" x2="163.372" y2="216.696" gradientUnits="userSpaceOnUse">
<stop stop-color="#F8BA55"/>
<stop offset="1" stop-color="#FB7354"/>
</linearGradient>
<linearGradient id="paint5_linear_163_474" x1="100.772" y1="51.5631" x2="212.682" y2="239.99" gradientUnits="userSpaceOnUse">
<stop offset="0.122917" stop-color="#F8BA55"/>
<stop offset="1" stop-color="#FB7354"/>
</linearGradient>
<linearGradient id="paint6_linear_163_474" x1="153.536" y1="-8.41528" x2="156.314" y2="63.9507" gradientUnits="userSpaceOnUse">
<stop offset="0.0731889" stop-color="#E8F0FF"/>
<stop offset="1" stop-color="#F8BA55"/>
</linearGradient>
<linearGradient id="paint7_linear_163_474" x1="127.032" y1="58.8577" x2="154.069" y2="129.025" gradientUnits="userSpaceOnUse">
<stop offset="0.0731889" stop-color="#E8F0FF"/>
<stop offset="1" stop-color="#F8BA55"/>
</linearGradient>
<linearGradient id="paint8_linear_163_474" x1="243.5" y1="297" x2="122.5" y2="297" gradientUnits="userSpaceOnUse">
<stop stop-color="#CDD8F7"/>
<stop offset="1" stop-color="#E8F0FF"/>
</linearGradient>
</defs>
</svg>
