<svg width="238" height="224" viewBox="0 0 238 224" fill="none" xmlns="http://www.w3.org/2000/svg">
<path d="M66.8781 132.743C65.5469 131.912 64.3602 130.908 63.2214 129.709C62.1793 128.532 61.2578 127.28 60.4808 125.855C59.7038 124.431 59.1441 122.954 58.729 121.304C58.29 119.752 58.1889 118.072 58.1845 116.415L59.3596 21.1779C59.4042 19.7396 59.5454 18.3241 59.8562 17.052C60.167 15.7799 60.6473 14.6512 61.2243 13.5453C61.8014 12.4393 62.524 11.5746 63.3433 10.7327C64.1627 9.8908 65.0548 9.1695 66.0198 8.56882L64.693 9.39475C64.3311 9.62 64.0899 9.77018 63.7519 9.89758L58.951 12.8031C58.5891 13.0284 58.2273 13.2536 57.986 13.4038L57.3829 13.7792C57.2623 13.8543 57.0211 14.0045 56.9004 14.0795L56.3212 14.3571C56.2006 14.4322 55.9594 14.5824 55.8388 14.6574L49.2524 18.5914C49.0112 18.7416 48.7699 18.8917 48.5287 19.0419C48.1668 19.2671 47.805 19.4924 47.3464 19.6949L42.9073 22.3752C41.9424 22.9758 41.0741 23.5993 40.2548 24.4412C39.4354 25.2831 38.8095 26.1706 38.2564 27.1787C37.7033 28.1868 37.223 29.3155 36.9122 30.5876C36.6014 31.8597 36.3873 33.1545 36.3667 34.4949L34.771 126.011C34.7993 127.57 34.9243 129.152 35.2666 130.681C35.6089 132.211 36.1686 133.688 36.9694 135.015C37.6736 136.319 38.5712 137.668 39.6373 138.747C40.7033 139.826 41.89 140.83 43.1244 141.638L167.816 217.768L195.348 212.246L66.8781 132.743Z" fill="#FB7354"/>
<path d="M74.8079 7.1382C75.2913 7.25202 75.8954 7.29077 76.4516 7.52518C77.0318 7.66175 77.4913 7.8734 78.0715 8.00998C78.6277 8.24439 79.1839 8.47879 79.6435 8.69044C80.1997 8.92484 80.7321 9.25708 81.2405 9.68714L186.003 79.7672C187.237 80.575 188.327 81.5557 189.296 82.6115C190.265 83.6673 191.09 84.8959 191.77 86.2975C192.474 87.6012 192.937 89.0551 193.399 90.509C193.765 91.9401 194.011 93.4462 194.039 95.0047L195.435 212.34L66.9008 132.836C65.57 132.005 64.3836 131.002 63.2451 129.802C62.2032 128.626 61.2819 127.375 60.5051 125.95C59.7283 124.526 59.1688 123.049 58.7538 121.4C58.3149 119.848 58.2139 118.169 58.2095 116.513L59.3843 21.3012C59.4506 18.9374 59.8797 16.7624 60.7444 14.8969C61.6092 13.0314 62.7162 11.4299 64.1383 10.2128C65.5604 8.99583 67.2248 8.04276 68.9869 7.52653C70.8458 7.03306 72.8263 6.87859 74.8079 7.1382Z" fill="url(#paint0_linear_163_411)"/>
<defs>
<linearGradient id="paint0_linear_163_411" x1="195.392" y1="61.8077" x2="62.0103" y2="167.17" gradientUnits="userSpaceOnUse">
<stop stop-color="#E8F0FF"/>
<stop offset="0.372917" stop-color="#F8BA55"/>
<stop offset="1" stop-color="#FB7354"/>
</linearGradient>
</defs>
</svg>
