<svg width="90" height="92" viewBox="0 0 90 92" fill="none" xmlns="http://www.w3.org/2000/svg">
<path d="M57.4724 6.09933C52.1744 4.49211 46.8064 4.13362 41.6048 4.76972C36.4717 5.41307 31.5049 7.051 26.9255 9.56733C22.4146 12.0909 18.3673 15.4312 14.936 19.4646C11.5732 23.5054 8.89486 28.2466 7.12204 33.5721C5.34922 38.8975 4.67279 44.339 4.99418 49.5371C5.30787 54.8042 6.6117 59.8968 8.73085 64.5175C10.9108 69.2143 13.9061 73.4391 17.6713 76.9778C21.4365 80.5164 26.0401 83.3761 31.2389 85.2519C36.4376 87.1278 41.8433 87.7694 47.0827 87.4164C52.3983 87.0017 57.5475 85.5925 62.2563 83.1596C67.0336 80.734 71.355 77.4227 75.015 73.2041C78.6673 69.0544 81.5134 64.0518 83.3856 58.4577C85.2577 52.8636 85.8964 47.139 85.4687 41.6505C85.041 36.162 83.547 30.9097 81.1692 26.1221C78.7836 21.4035 75.5142 17.1497 71.4595 13.72C67.5342 10.3738 62.7705 7.70655 57.4724 6.09933Z" fill="url(#paint0_linear_163_426)"/>
<path d="M63.3745 35.4533C62.9706 35.3406 62.6353 35.2353 62.2237 35.1917C61.8121 35.1482 61.4614 35.1809 61.0421 35.2064C60.6228 35.232 60.2643 35.3338 59.8373 35.4284C59.4789 35.5303 59.0442 35.6939 58.6703 35.9339C57.1219 36.7485 55.642 37.5704 54.0935 38.3849C52.545 39.1995 51.0651 40.0214 49.5243 40.7669C47.9758 41.5815 46.4959 42.4033 45.0238 43.1561C43.5439 43.978 42.0031 44.7235 40.5232 45.5453L40.4469 45.6071L40.3706 45.669C40.3706 45.669 40.2943 45.7308 40.2866 45.7998C40.2789 45.8689 40.2103 45.8617 40.134 45.9235C40.0731 45.8471 40.0808 45.7781 40.0885 45.709C40.0962 45.6399 40.0276 45.6327 40.0353 45.5636C40.043 45.4945 39.9744 45.4872 39.9821 45.4182C39.9898 45.3491 39.9212 45.3418 39.9212 45.3418C39.7007 44.8293 39.4116 44.3095 39.1912 43.7969C38.9707 43.2843 38.6816 42.7645 38.4611 42.252C38.2406 41.7394 37.9516 41.2196 37.7311 40.707C37.5106 40.1945 37.2215 39.6746 37.001 39.1621C36.8337 38.7949 36.6587 38.4969 36.4152 38.1915C36.1716 37.8862 35.928 37.5809 35.6767 37.3446C35.4254 37.1083 35.1055 36.8648 34.7779 36.6904C34.4503 36.5159 34.1227 36.3415 33.7874 36.2361L33.7188 36.2288L33.6502 36.2216L33.5816 36.2143L33.513 36.2071C32.9796 36.0108 32.3621 35.9455 31.8056 35.9565C31.2491 35.9675 30.6849 36.0476 30.113 36.1967C29.541 36.3459 29.03 36.5713 28.5722 36.9422C28.0534 37.2368 27.6565 37.684 27.2596 38.1312C26.8626 38.5784 26.5266 39.102 26.2515 39.7019C25.984 40.2327 25.8461 40.8471 25.7082 41.4615C25.6388 42.0832 25.6458 42.643 25.7137 43.2792C25.7893 43.8464 25.9943 44.4971 26.2148 45.0096C26.6558 46.0347 27.173 46.998 27.614 48.0232C28.055 49.0483 28.5645 50.0807 29.0818 51.044C29.5914 52.0763 30.0323 53.1015 30.5496 54.0648C31.0592 55.0971 31.5001 56.1223 32.0174 57.0856C32.1847 57.4527 32.4206 57.8271 32.6642 58.1325C32.9077 58.4378 33.1513 58.7431 33.4712 58.9867C33.7911 59.2302 34.0424 59.4664 34.4386 59.6481C34.7662 59.8226 35.0938 59.997 35.4977 60.1097C35.833 60.215 36.237 60.3277 36.58 60.364C36.923 60.4003 37.3346 60.4438 37.6853 60.411C38.036 60.3783 38.463 60.2837 38.8214 60.1818C39.1799 60.08 39.6146 59.9163 39.9807 59.7454C41.9716 58.6981 43.9625 57.6507 46.022 56.6107C48.0129 55.5633 50.0725 54.5233 52.0711 53.4069C54.1306 52.3668 56.1292 51.2504 58.1887 50.2103C60.2482 49.1703 62.2468 48.0539 64.3141 46.9447C65.1226 46.541 65.8171 45.9156 66.382 45.2066C66.947 44.4976 67.3138 43.6978 67.4749 42.8761C67.7045 42.0618 67.7361 41.1565 67.6227 40.3059C67.5093 39.4552 67.1902 38.5828 66.6498 37.8267C66.4748 37.5286 66.2312 37.2233 65.9799 36.987C65.7286 36.7507 65.4773 36.5145 65.226 36.2782C64.967 36.111 64.6471 35.8675 64.3804 35.7694C64.0374 35.7331 63.7098 35.5586 63.3745 35.4533Z" fill="url(#paint1_linear_163_426)"/>
<defs>
<linearGradient id="paint0_linear_163_426" x1="44.0857" y1="71.5256" x2="54.363" y2="18.0765" gradientUnits="userSpaceOnUse">
<stop stop-color="#7A43EE"/>
<stop offset="1" stop-color="#B565E6"/>
</linearGradient>
<linearGradient id="paint1_linear_163_426" x1="47.5786" y1="33.6419" x2="33.9435" y2="60.5934" gradientUnits="userSpaceOnUse">
<stop stop-color="white"/>
<stop offset="1" stop-color="#CDD8F7"/>
</linearGradient>
</defs>
</svg>
