<svg width="248" height="280" viewBox="0 0 248 280" fill="none" xmlns="http://www.w3.org/2000/svg">
<g filter="url(#filter0_i_163_429)">
<path d="M57.9558 66.7746C59.7663 65.018 61.8607 63.4222 63.9731 62.0294C66.1589 60.5956 68.5551 59.3637 71.015 58.4156C73.5482 57.4266 76.2185 56.6804 78.9524 56.2182C81.7597 55.715 84.6306 55.4956 87.6385 55.5192C93.5351 55.5264 99.2731 56.7936 104.431 58.9168C109.663 60.999 114.361 64.0184 118.388 67.732C122.414 71.4455 125.725 75.7723 128.034 80.5516C130.344 85.3308 131.726 90.5214 131.971 95.9215C132.056 98.6421 131.904 101.283 131.394 103.804C130.884 106.325 130.135 108.766 129.222 111.086C128.236 113.447 127.039 115.606 125.558 117.604C124.123 119.684 122.477 121.561 120.621 123.237C118.765 124.913 116.817 126.426 114.659 127.738C112.501 129.05 110.178 130.241 107.792 131.148C105.332 132.096 102.809 132.76 100.12 133.303C97.4601 133.724 94.6349 134.025 91.8196 134C86.1155 133.992 80.5423 132.845 75.4754 130.884C70.4084 128.923 65.6829 126.025 61.674 122.515C57.6651 119.004 54.2538 114.84 51.7974 110.143C49.341 105.446 47.6926 100.298 47.3287 94.8575C47.1239 92.097 47.2031 89.4974 47.5483 86.8556C47.9392 84.2948 48.5683 81.8138 49.5091 79.3717C50.3765 76.9707 51.6013 74.6894 53.0365 72.6101C54.4718 70.5307 56.1453 68.5312 57.9558 66.7746ZM159.612 144.581C158.441 143.532 157.315 142.564 156.143 141.515C154.972 140.465 153.8 139.416 152.675 138.448C151.503 137.398 150.332 136.349 149.206 135.381C148.034 134.331 146.863 133.282 145.691 132.233C145.527 132.112 145.481 132.031 145.316 131.91C145.151 131.789 145.032 131.749 144.867 131.628C144.703 131.507 144.583 131.467 144.419 131.347C144.254 131.226 144.135 131.186 143.97 131.065C144.145 130.861 144.246 130.698 144.393 130.616C144.494 130.453 144.567 130.412 144.669 130.249C144.696 130.127 144.77 130.086 144.798 129.964C144.871 129.923 144.899 129.801 144.972 129.76C146.729 127.394 148.174 124.99 149.455 122.464C150.735 119.939 151.896 117.374 152.7 114.689C153.623 112.044 154.262 109.238 154.709 106.433C155.155 103.628 155.363 100.744 155.407 97.7382C155.442 94.2047 155.138 90.7543 154.568 87.3461C153.998 83.9378 153.088 80.6127 151.912 77.3298C150.736 74.0468 149.221 70.847 147.412 67.8113C145.558 64.6946 143.483 61.701 140.995 58.8316C136.787 53.9413 132.294 49.743 127.514 46.2368C122.735 42.7305 117.551 39.8764 112.154 37.6732C106.684 35.5111 100.974 34.122 95.0518 33.3839C89.0558 32.6868 82.8196 32.7628 76.252 33.4498C73.0873 33.8332 70.0139 34.3786 67.0776 35.1668C64.1412 35.9551 61.2962 36.9053 58.5148 38.1394C55.8803 39.2915 53.1902 40.6876 50.7106 42.2855C48.231 43.8835 45.8427 45.6433 43.5458 47.5651C43.2242 47.8513 42.976 48.0963 42.6544 48.3824C42.3328 48.6686 42.0847 48.9136 41.7631 49.1997C41.4692 49.3639 41.1476 49.65 40.8995 49.8951C40.6513 50.1401 40.3297 50.4262 40.0816 50.6713C37.6001 53.1221 35.329 55.7748 33.3697 58.4664C31.456 61.2389 29.7806 64.0913 28.4626 67.0634C27.1446 70.0356 26.037 73.2097 25.2412 76.4226C24.4454 79.6355 23.9335 83.0093 23.779 86.5028C23.5411 90.3624 23.6884 94.2198 24.203 97.872C24.7632 101.605 25.5439 105.215 26.7831 108.782C28.0223 112.349 29.5554 115.752 31.5471 119.111C33.4931 122.39 35.7509 125.708 38.3759 128.82C41.3941 132.458 44.7616 135.688 48.2125 138.552C51.7369 141.375 55.4638 143.872 59.3474 145.962C63.2311 148.051 67.3907 149.774 71.7071 151.09C76.0235 152.406 80.6158 153.354 85.3372 154.018C88.766 154.445 92.0579 154.63 95.3318 154.611C98.6057 154.593 101.816 154.29 104.963 153.704C108.155 153.198 111.211 152.45 114.276 151.377C117.314 150.426 120.288 149.19 123.244 147.752C123.538 147.588 123.877 147.505 124.098 147.382C124.364 147.34 124.63 147.298 124.868 147.377C125.106 147.457 125.344 147.537 125.583 147.617C125.867 147.778 126.077 147.98 126.288 148.182C127.505 149.312 128.75 150.32 129.967 151.45C131.184 152.581 132.429 153.589 133.646 154.719C134.863 155.85 136.108 156.858 137.325 157.988C138.543 159.118 139.788 160.127 141.005 161.257C141.106 161.094 141.281 160.89 141.382 160.727C141.557 160.523 141.658 160.36 141.833 160.156C142.007 159.952 142.108 159.789 142.283 159.584C142.458 159.38 142.678 159.257 142.853 159.053L156.839 146.344C157.014 146.139 157.234 146.016 157.482 145.771C157.702 145.648 157.877 145.444 158.171 145.28C158.391 145.157 158.612 145.034 158.906 144.87C159.172 144.828 159.392 144.705 159.612 144.581Z" fill="white"/>
</g>
<g filter="url(#filter1_i_163_429)">
<path d="M204.224 231.728L227.577 214.524C229.155 213.309 230.313 211.914 231.189 210.399C232.018 208.781 232.473 207.085 232.462 205.353C232.543 203.579 232.158 201.769 231.493 200.086C230.829 198.403 229.697 196.684 228.148 195.28L176.768 144.959C175.547 143.778 174.235 142.886 172.829 142.037C171.471 141.29 169.882 140.772 168.339 140.358C166.844 140.045 165.21 139.92 163.764 139.958C162.225 140.038 160.78 140.323 159.338 140.856C159.058 140.983 158.779 141.11 158.407 141.279C158.128 141.406 157.849 141.533 157.477 141.702C157.198 141.829 156.966 142.059 156.594 142.228C156.315 142.355 156.083 142.585 155.758 142.857L137.703 156.905C137.471 157.135 137.192 157.262 136.96 157.491C136.728 157.721 136.497 157.95 136.358 158.137C136.126 158.367 135.987 158.554 135.756 158.784C135.524 159.013 135.385 159.201 135.246 159.388C134.414 160.511 133.77 161.797 133.406 163.203C133.042 164.61 132.864 165.931 132.967 167.373C133.07 168.816 133.406 170.275 134.022 171.608C134.637 172.941 135.486 174.292 136.521 175.558L182.788 228.702C184.151 230.191 185.746 231.451 187.525 232.378C189.304 233.306 191.175 233.944 193.089 234.189C195.004 234.434 197.01 234.39 198.826 233.936C200.831 233.644 202.598 232.84 204.224 231.728Z" fill="#B565E5"/>
</g>
<defs>
<filter id="filter0_i_163_429" x="23.668" y="26.8965" width="141.944" height="134.36" filterUnits="userSpaceOnUse" color-interpolation-filters="sRGB">
<feFlood flood-opacity="0" result="BackgroundImageFix"/>
<feBlend mode="normal" in="SourceGraphic" in2="BackgroundImageFix" result="shape"/>
<feColorMatrix in="SourceAlpha" type="matrix" values="0 0 0 0 0 0 0 0 0 0 0 0 0 0 0 0 0 0 127 0" result="hardAlpha"/>
<feOffset dx="6" dy="-6"/>
<feGaussianBlur stdDeviation="3.5"/>
<feComposite in2="hardAlpha" operator="arithmetic" k2="-1" k3="1"/>
<feColorMatrix type="matrix" values="0 0 0 0 0.803922 0 0 0 0 0.847059 0 0 0 0 0.968627 0 0 0 1 0"/>
<feBlend mode="normal" in2="shape" result="effect1_innerShadow_163_429"/>
</filter>
<filter id="filter1_i_163_429" x="132.938" y="127.952" width="103.534" height="106.385" filterUnits="userSpaceOnUse" color-interpolation-filters="sRGB">
<feFlood flood-opacity="0" result="BackgroundImageFix"/>
<feBlend mode="normal" in="SourceGraphic" in2="BackgroundImageFix" result="shape"/>
<feColorMatrix in="SourceAlpha" type="matrix" values="0 0 0 0 0 0 0 0 0 0 0 0 0 0 0 0 0 0 127 0" result="hardAlpha"/>
<feOffset dx="4" dy="-12"/>
<feGaussianBlur stdDeviation="9"/>
<feComposite in2="hardAlpha" operator="arithmetic" k2="-1" k3="1"/>
<feColorMatrix type="matrix" values="0 0 0 0 0.477078 0 0 0 0 0.262111 0 0 0 0 0.933333 0 0 0 1 0"/>
<feBlend mode="normal" in2="shape" result="effect1_innerShadow_163_429"/>
</filter>
</defs>
</svg>
