<svg width="147" height="127" viewBox="0 0 147 127" fill="none" xmlns="http://www.w3.org/2000/svg">
<path d="M97.552 105.4C91.752 109.5 82.352 107.4 76.552 99.6L27.952 33.9C25.452 30.6 24.252 27 24.052 23.6C24.052 23.1 24.052 22.6 24.052 22.2C24.052 21.7 24.152 21.3 24.152 20.8C24.352 19.4 24.752 18.1 25.252 17C25.952 15.4 27.052 14.1 28.352 13L4.35199 32.2C-0.948015 36.5 -1.74801 45.5 3.85199 53.1L52.452 118.8C58.252 126.6 67.652 128.6 73.452 124.6C73.652 124.5 73.752 124.4 73.952 124.2L97.952 105C97.952 105.2 97.752 105.3 97.552 105.4Z" fill="#7A43EE"/>
<path d="M28.9519 12.7C30.4519 11.6 32.3519 10.9 34.5519 10.7L146.752 0L101.352 100.9C100.452 102.8 99.2519 104.4 97.6519 105.4C91.8519 109.5 82.4519 107.4 76.6519 99.6L28.0519 33.9C22.2519 26.2 23.2519 16.8 28.9519 12.7Z" fill="url(#paint0_linear_163_414)"/>
<defs>
<linearGradient id="paint0_linear_163_414" x1="70.5" y1="132.5" x2="112.637" y2="21.7944" gradientUnits="userSpaceOnUse">
<stop stop-color="#7A43EE"/>
<stop offset="1" stop-color="#B565E6"/>
</linearGradient>
</defs>
</svg>
