<svg width="24" height="24" viewBox="0 0 24 24" fill="none" xmlns="http://www.w3.org/2000/svg">
<g clip-path="url(#clip0_211_768)">
<path d="M12.001 12C10.626 12 9.50098 10.92 9.50098 9.60003C9.50098 8.28003 10.626 7.20003 12.001 7.20003C13.376 7.20003 14.501 8.28003 14.501 9.60003C14.501 10.92 13.376 12 12.001 12ZM19.501 9.84003C19.501 5.48403 16.1885 2.40003 12.001 2.40003C7.81348 2.40003 4.50098 5.48403 4.50098 9.84003C4.50098 12.648 6.93848 16.368 12.001 20.808C17.0635 16.368 19.501 12.648 19.501 9.84003ZM12.001 3.05176e-05C17.251 3.05176e-05 22.001 3.86403 22.001 9.84003C22.001 13.824 18.6635 18.54 12.001 24C5.33848 18.54 2.00098 13.824 2.00098 9.84003C2.00098 3.86403 6.75098 3.05176e-05 12.001 3.05176e-05Z" fill="#FB7354"/>
</g>
<defs>
<clipPath id="clip0_211_768">
<rect width="24" height="24" fill="white" transform="translate(0.000976562 3.05176e-05)"/>
</clipPath>
</defs>
</svg>
