<svg width="24" height="24" viewBox="0 0 24 24" fill="none" xmlns="http://www.w3.org/2000/svg">
<path d="M22.8664 6.58125C21.9619 5.49844 20.5224 4.78125 18.9079 4.57969C18.3924 1.57031 15.6545 0 13.0188 0H6.65794C5.77287 0 4.90725 0.295313 4.2167 0.829688C3.52615 1.36406 3.04471 2.11875 2.85505 2.94844L0.0879898 14.9484C-0.160024 16.05 0.122031 17.1891 0.861211 18.0797C1.61498 18.9797 2.73834 19.5 3.93464 19.5H4.98992L4.95588 19.6453C4.70786 20.7094 4.97047 21.8062 5.6756 22.6594C6.38074 23.5125 7.44088 24 8.56911 24C10.2858 24 11.7641 22.8797 12.1677 21.2719L12.8097 18.7172C12.9166 18.2953 13.3057 18 13.7531 18H15.3773C17.731 18 19.8756 17.2078 21.4221 15.7687C23.3228 14 23.2409 12.875 22.8664 12.5C22.4919 12.1297 22.2482 12.3876 20.0702 14.4188C18.8739 15.5344 17.2496 16.125 15.3773 16.125H13.7531C12.4012 16.125 11.234 17.0109 10.9179 18.2766L10.276 20.8312C10.0864 21.5953 9.38123 22.125 8.56911 22.125C8.03417 22.125 7.53328 21.8953 7.19773 21.4875C6.86218 21.0844 6.73574 20.5641 6.85732 20.0578L8.40376 13.4531H10.4316C12.017 13.4531 13.4175 13.1953 14.5944 12.6844C15.8539 12.1406 16.8654 11.3109 17.6046 10.2141C17.8964 9.77812 17.7699 9.20156 17.3177 8.91562C16.8654 8.63437 16.2673 8.75625 15.9706 9.19219C14.9008 10.7766 13.0382 11.5781 10.4316 11.5781H8.8463L9.71192 7.88437C9.9113 7.02187 10.6942 6.42188 11.6085 6.42188H18.3584C18.3876 6.42188 18.4119 6.42187 18.441 6.41719C19.6568 6.51562 20.7267 6.99844 21.354 7.75781C22.0348 8.57812 22.2245 9.70312 21.9132 11.1047C21.4464 14 19 15 20.5 15.5C21.0252 15.6078 22.5 16.125 23.8147 11.4937C24.3593 9.02812 23.6007 7.4625 22.8664 6.58125ZM9.17212 5.36719C8.48643 5.89687 8.00013 6.64219 7.80561 7.47187C7.75212 7.58437 5.43245 17.4937 5.43245 17.625H3.93464C3.32676 17.625 2.76265 17.3625 2.37847 16.9031C2.00888 16.4578 1.86786 15.8953 1.98943 15.3516L4.75649 3.35156C4.95101 2.49844 5.74855 1.875 6.65794 1.875H13.0188C14.643 1.875 16.4132 2.71875 16.9092 4.54688H11.6036C10.7234 4.54688 9.85781 4.8375 9.17212 5.36719Z" fill="white"/>
</svg>
