<svg width="24" height="24" viewBox="0 0 24 24" fill="none" xmlns="http://www.w3.org/2000/svg">
<path d="M22.6192 3.2002H1.38082C0.624658 3.2002 0 3.82485 0 4.58102V18.6194C0 19.3755 0.624658 20.0002 1.38082 20.0002H22.6192C23.3753 20.0002 24 19.3755 24 18.6194V4.58102C24 3.82485 23.3753 3.2002 22.6192 3.2002ZM22.0761 18.0002H1.89007V5.0811L22.109 5.0811L22.0761 18.0002Z" fill="white"/>
<path d="M3.41916 9.64417L4.14244 14.7401H5.88491L9.1397 8.42773H7.29861L5.91779 11.3538C5.72053 11.7812 5.55614 12.1428 5.39176 12.5044C5.35888 12.1428 5.32601 11.7812 5.29313 11.4195L4.99724 8.42773H2.2356L5.12875 10.7291L3.41916 9.64417Z" fill="white"/>
<path d="M10.389 14.7733L11.5725 8.46094H9.92868L8.74512 14.7733H10.389Z" fill="white"/>
<path d="M11.3424 14.3784C11.737 14.6743 12.3945 14.8387 13.1507 14.8387C14.6959 14.8387 15.7479 13.951 15.7479 12.6688C15.7479 11.9455 15.3205 11.3866 14.4657 10.9264C13.9726 10.6633 13.7096 10.4661 13.7096 10.236C13.7096 10.0387 13.9397 9.80855 14.4657 9.80855C14.9918 9.80855 15.3863 10.0058 15.452 10.0387L15.6493 10.1373L16.1753 8.72362L16.0438 8.65787C15.6493 8.42773 15.1561 8.3291 14.5315 8.3291C13.052 8.3291 12 9.21677 12 10.4332C12 11.3209 12.7233 11.8469 13.3479 12.1757C13.9397 12.4716 14.0383 12.6688 14.0383 12.8332C14.0383 13.2277 13.6109 13.3592 13.2822 13.3592C12.8219 13.3592 12.3616 13.2277 11.9671 12.9976L11.7698 12.899L11.2109 14.2798L11.3424 14.3784Z" fill="white"/>
<path d="M17.3589 14.7733L18.0822 13.2281H19.4959L19.6274 14.7733H21.337L20.5808 8.46094H18.674L15.6165 14.7733H17.3589ZM19.0685 10.8609C19.1343 10.7294 19.2 10.565 19.2658 10.4007C19.2658 10.565 19.2986 10.6966 19.2986 10.7952L19.3973 11.8801H18.6082L19.0685 10.8609Z" fill="white"/>
</svg>
