<svg width="24" height="24" viewBox="0 0 24 24" fill="none" xmlns="http://www.w3.org/2000/svg">
<g clip-path="url(#clip0_211_772)">
<path d="M16.001 12H18.6676C18.6676 8.32 15.681 5.33333 12.001 5.33333V8C14.2143 8 16.001 9.78667 16.001 12ZM21.3343 12H24.001C24.001 5.37333 18.6276 0 12.001 0V2.66667C17.161 2.66667 21.3343 6.84 21.3343 12ZM22.6676 16.6667C21.001 16.6667 19.401 16.4 17.9076 15.9067C17.7743 15.8667 17.6276 15.84 17.4943 15.84C17.1476 15.84 16.8143 15.9733 16.5476 16.2267L13.6143 19.16C9.84098 17.24 6.74764 14.16 4.82764 10.3733L7.76098 7.42667C8.13431 7.08 8.24098 6.56 8.09431 6.09333C7.60098 4.6 7.33431 3 7.33431 1.33333C7.33431 0.6 6.73431 0 6.00098 0H1.33431C0.600977 0 0.000976562 0.6 0.000976562 1.33333C0.000976562 13.8533 10.1476 24 22.6676 24C23.401 24 24.001 23.4 24.001 22.6667V18C24.001 17.2667 23.401 16.6667 22.6676 16.6667ZM2.70764 2.66667H4.70764C4.80098 3.84 5.00098 5 5.30764 6.10667L3.70764 7.72C3.17431 6.10667 2.82764 4.42667 2.70764 2.66667ZM21.3343 21.2933C19.5743 21.1733 17.8676 20.8267 16.2676 20.28L17.8676 18.68C19.001 19 20.161 19.2 21.3343 19.28V21.2933Z" fill="#FB7354"/>
</g>
<defs>
<clipPath id="clip0_211_772">
<rect width="24" height="24" fill="white" transform="translate(0.000976562)"/>
</clipPath>
</defs>
</svg>
