<svg width="24" height="24" viewBox="0 0 24 24" fill="none" xmlns="http://www.w3.org/2000/svg">
<path d="M4.755 20C5.52 20 6.225 19.536 6.555 18.816L8.685 14.272C8.895 13.824 9 13.344 9 12.848V5.6C9 4.72 8.325 4 7.5 4H1.5C0.675 4 0 4.72 0 5.6V12C0 12.88 0.675 13.6 1.5 13.6H4.5L2.955 16.896C2.28 18.32 3.255 20 4.755 20ZM19.755 20C20.52 20 21.225 19.536 21.555 18.816L23.685 14.272C23.895 13.824 24 13.344 24 12.848V5.6C24 4.72 23.325 4 22.5 4H16.5C15.675 4 15 4.72 15 5.6V12C15 12.88 15.675 13.6 16.5 13.6H19.5L17.955 16.896C17.28 18.32 18.255 20 19.755 20Z" fill="#7A43EE"/>
</svg>
