<svg width="261" height="270" viewBox="0 0 261 270" fill="none" xmlns="http://www.w3.org/2000/svg">
<path d="M49.6351 4.53988C74.1521 8.17718 119.278 20.2154 141.843 26.3649C150.42 28.7017 157.578 34.4555 161.595 42.2193L209.782 133.558L189.609 129.848L153.038 57.2403C148.751 48.6979 140.666 42.4375 131.17 40.3771L39.3735 20.3724C39.3735 20.3724 47.1309 4.19007 49.6351 4.53988Z" fill="url(#paint0_linear_1248_229)"/>
<path d="M20.1022 82.2001L92.5594 91.9787C93.6151 92.0846 94.8033 92.3171 95.8605 92.6819L255.854 141.031L189.736 255.576L11.873 204.419L20.1022 82.2001Z" fill="#7A43EE"/>
<path d="M14.3538 94.2349L2.22682 201.638C1.47333 207.736 4.93685 213.481 10.6207 215.813L97.4707 252.308C100.775 253.658 104.209 254.616 107.772 255.054L187.864 264.787C194.066 265.555 200.11 262.185 202.713 256.693L252.049 153.637L14.3538 94.2349ZM46.0455 144.767L37.7853 195.024C37.023 199.699 32.5599 202.903 27.8092 202.233C23.0585 201.562 19.8675 197.234 20.6297 192.559L28.8899 142.302C29.6522 137.627 34.1153 134.423 38.866 135.093C43.6167 135.764 46.8078 140.092 46.0455 144.767ZM74.4491 153.839L66.1888 204.096C65.4266 208.771 60.9635 211.975 56.2128 211.305C51.462 210.634 48.271 206.306 49.0332 201.631L57.2935 151.374C58.0557 146.699 62.5188 143.494 67.2696 144.165C72.0203 144.836 75.2113 149.164 74.4491 153.839ZM104.31 164.042L96.0481 214.041C95.2874 218.974 90.4304 222.447 85.416 221.782C80.4017 221.117 76.9445 216.407 77.7052 211.473L85.967 161.475C86.7277 156.541 91.5847 153.069 96.5991 153.734C101.614 154.528 105.071 159.109 104.31 164.042ZM154.603 237.709C149.845 235.874 147.703 230.488 149.652 225.916L169.668 179.02C171.616 174.318 177.141 172.125 181.767 173.963C186.524 175.798 188.667 181.185 186.718 185.757L166.702 232.652C164.753 237.224 159.361 239.544 154.603 237.709ZM195.609 237.831C193.659 242.274 188.53 244.458 184.036 242.617C179.542 240.777 177.401 235.778 179.352 231.336L199.757 183.525C201.707 179.083 206.836 176.898 211.33 178.739C215.824 180.58 217.965 185.578 216.015 190.021L195.609 237.831Z" fill="url(#paint1_linear_1248_229)"/>
<g filter="url(#filter0_i_1248_229)">
<path d="M258.28 155.963C257.904 158.904 255.153 160.877 252.256 160.431L142.834 145.629C139.016 145.075 135.194 144.14 131.635 142.943L12.9682 101.445C10.1994 100.486 8.86475 97.4558 9.7688 94.7587L13.1315 85.5057C14.1671 82.8057 17.1839 81.3369 19.9527 82.2959L138.487 123.669C140.86 124.509 143.232 125.095 145.734 125.422L255.155 140.224C258.052 140.67 260.042 143.303 259.665 146.116L258.28 155.963Z" fill="#B565E5"/>
</g>
<path d="M49.7638 3.9135C53.9772 1.22241 35.2784 12.9348 33.0508 15.5928C30.8232 18.2509 30.0781 23.8983 33.219 34.8541C35.6763 43.3314 51.8155 87.2261 58.8665 106.242C60.6287 110.93 66.2071 112.934 70.5551 110.503C74.2446 108.476 75.9278 104.123 74.3049 100.219C66.7233 81.0809 45.3341 27.3138 45.2872 21.9416C45.23 15.3902 44.892 7.00868 49.7638 3.9135Z" fill="url(#paint2_linear_1248_229)"/>
<defs>
<filter id="filter0_i_1248_229" x="9.48792" y="78.0018" width="254.223" height="82.4917" filterUnits="userSpaceOnUse" color-interpolation-filters="sRGB">
<feFlood flood-opacity="0" result="BackgroundImageFix"/>
<feBlend mode="normal" in="SourceGraphic" in2="BackgroundImageFix" result="shape"/>
<feColorMatrix in="SourceAlpha" type="matrix" values="0 0 0 0 0 0 0 0 0 0 0 0 0 0 0 0 0 0 127 0" result="hardAlpha"/>
<feOffset dx="4" dy="-4"/>
<feGaussianBlur stdDeviation="4"/>
<feComposite in2="hardAlpha" operator="arithmetic" k2="-1" k3="1"/>
<feColorMatrix type="matrix" values="0 0 0 0 0.477078 0 0 0 0 0.262111 0 0 0 0 0.933333 0 0 0 1 0"/>
<feBlend mode="normal" in2="shape" result="effect1_innerShadow_1248_229"/>
</filter>
<linearGradient id="paint0_linear_1248_229" x1="213.858" y1="85.9098" x2="100.242" y2="42.3577" gradientUnits="userSpaceOnUse">
<stop stop-color="#F8BA55"/>
<stop offset="1" stop-color="#FB7354"/>
</linearGradient>
<linearGradient id="paint1_linear_1248_229" x1="239.96" y1="177.729" x2="15.6966" y2="108.038" gradientUnits="userSpaceOnUse">
<stop stop-color="#B565E5"/>
<stop offset="0.398958" stop-color="#9452EB"/>
<stop offset="0.466667" stop-color="#B565E6"/>
<stop offset="1" stop-color="#7A43EE"/>
</linearGradient>
<linearGradient id="paint2_linear_1248_229" x1="40.018" y1="29.5579" x2="74.9988" y2="145.804" gradientUnits="userSpaceOnUse">
<stop stop-color="#F8BA55"/>
<stop offset="1" stop-color="#FB7354"/>
</linearGradient>
</defs>
</svg>
