<svg width="487" height="321" viewBox="0 0 487 321" fill="none" xmlns="http://www.w3.org/2000/svg">
<g filter="url(#filter0_i_1248_251)">
<path d="M312.744 123.582C280.191 115.953 224.792 95.0632 222.395 93.146C213.488 86.0364 198.83 58.8361 186.767 51.9262C174.665 44.9763 150.86 28.0011 142.991 19.8929C133.405 9.98732 123.619 -1.75555 119.625 0.521132C114.712 3.357 114.872 13.7419 120.025 22.7687C124.418 30.5573 138.837 46.8136 134.523 47.6923C130.25 48.571 88.1911 27.7215 78.0459 23.927C61.7896 17.9357 34.7091 4.47536 29.7163 11.6649C24.6837 18.8943 31.314 26.3634 45.2936 34.2719C56.717 40.7425 101.851 61.8717 102.93 66.6647C103.968 71.4577 100.214 69.4206 97.817 68.5819C95.4604 67.783 59.3531 55.0815 46.7715 52.3256C34.1499 49.4897 7.82827 41.5014 2.63584 47.253C-1.11868 51.367 -1.19857 58.3568 10.9437 62.1113C23.086 65.8259 58.5942 79.2064 70.4969 82.3618C79.3639 84.7183 91.3864 88.1933 89.7088 92.3073C88.91 94.2644 20.0504 78.8868 10.2647 78.6871C4.67287 78.6072 -1.91752 87.1947 11.8624 94.1047C25.6423 101.015 109.999 119.867 101.012 123.142C92.0255 126.457 55.3989 113.716 48.1694 116.672C40.9799 119.627 39.0228 125.459 57.4759 133.727C75.9289 141.995 131.927 163.244 147.864 165.121C158.848 166.439 189.044 166.998 201.146 168.955C210.573 170.513 218.361 175.226 226.869 180.259C230.384 182.336 247.654 191.526 254.723 195.96L317.856 228.029L312.744 123.582Z" fill="url(#paint0_linear_1248_251)"/>
</g>
<path d="M508.349 144.745L499.806 320.86C499.806 320.86 321.371 233.461 276.237 224.914C255.747 221 263.336 82.4816 301.16 101.694C321.211 111.879 440.888 132.962 508.349 144.745Z" fill="#CDD8F7"/>
<path d="M508.349 144.745L499.806 320.86C499.806 320.86 321.371 233.461 276.237 224.914C255.747 221 263.336 82.4816 301.16 101.694C321.211 111.879 440.888 132.962 508.349 144.745Z" fill="url(#paint1_linear_1248_251)"/>
<defs>
<filter id="filter0_i_1248_251" x="0.408447" y="-5.76529" width="317.448" height="233.795" filterUnits="userSpaceOnUse" color-interpolation-filters="sRGB">
<feFlood flood-opacity="0" result="BackgroundImageFix"/>
<feBlend mode="normal" in="SourceGraphic" in2="BackgroundImageFix" result="shape"/>
<feColorMatrix in="SourceAlpha" type="matrix" values="0 0 0 0 0 0 0 0 0 0 0 0 0 0 0 0 0 0 127 0" result="hardAlpha"/>
<feOffset dy="-6"/>
<feGaussianBlur stdDeviation="6"/>
<feComposite in2="hardAlpha" operator="arithmetic" k2="-1" k3="1"/>
<feColorMatrix type="matrix" values="0 0 0 0 0.803922 0 0 0 0 0.847059 0 0 0 0 0.968627 0 0 0 1 0"/>
<feBlend mode="normal" in2="shape" result="effect1_innerShadow_1248_251"/>
</filter>
<linearGradient id="paint0_linear_1248_251" x1="152" y1="47.5" x2="271.5" y2="193.5" gradientUnits="userSpaceOnUse">
<stop stop-color="white"/>
<stop offset="1" stop-color="#E8F0FF"/>
</linearGradient>
<linearGradient id="paint1_linear_1248_251" x1="366" y1="126" x2="366.383" y2="234.499" gradientUnits="userSpaceOnUse">
<stop stop-color="#E8F0FF"/>
<stop offset="1" stop-color="#CDD8F7"/>
</linearGradient>
</defs>
</svg>
