<svg width="255" height="134" viewBox="0 0 255 134" fill="none" xmlns="http://www.w3.org/2000/svg">
<g filter="url(#filter0_i_1248_204)">
<path d="M99.7723 60.3634C99.7723 80.487 83.4589 96.8004 63.3354 96.8004C62.3069 96.8004 61.2884 96.7578 60.2815 96.6742C57.9665 111.129 45.4391 122.172 30.3323 122.172C13.5802 122.172 -3.05176e-05 108.592 -3.05176e-05 91.8401C-3.05176e-05 76.2408 11.7755 63.3918 26.9224 61.6973C26.9065 61.2547 26.8985 60.81 26.8985 60.3634C26.8985 40.2399 43.2118 23.9265 63.3354 23.9265C83.4589 23.9265 99.7723 40.2399 99.7723 60.3634Z" fill="white"/>
<path d="M210.991 116.831C235.223 116.831 254.868 97.1867 254.868 72.9541C254.868 48.7215 235.223 29.0772 210.991 29.0772C186.758 29.0772 167.114 48.7215 167.114 72.9541C167.114 97.1867 186.758 116.831 210.991 116.831Z" fill="white"/>
</g>
<g filter="url(#filter1_i_1248_204)">
<path d="M146 134C183.003 134 213 104.003 213 67C213 29.9969 183.003 0 146 0C108.997 0 79 29.9969 79 67C79 104.003 108.997 134 146 134Z" fill="white"/>
</g>
<g filter="url(#filter2_i_1248_204)">
<path d="M79.3601 127.895C96.1122 127.895 109.692 114.315 109.692 97.5631C109.692 80.811 96.1122 67.2307 79.3601 67.2307C62.6081 67.2307 49.0278 80.811 49.0278 97.5631C49.0278 114.315 62.6081 127.895 79.3601 127.895Z" fill="white"/>
</g>
<defs>
<filter id="filter0_i_1248_204" x="0" y="9.92652" width="268.868" height="112.246" filterUnits="userSpaceOnUse" color-interpolation-filters="sRGB">
<feFlood flood-opacity="0" result="BackgroundImageFix"/>
<feBlend mode="normal" in="SourceGraphic" in2="BackgroundImageFix" result="shape"/>
<feColorMatrix in="SourceAlpha" type="matrix" values="0 0 0 0 0 0 0 0 0 0 0 0 0 0 0 0 0 0 127 0" result="hardAlpha"/>
<feOffset dx="14" dy="-14"/>
<feGaussianBlur stdDeviation="16"/>
<feComposite in2="hardAlpha" operator="arithmetic" k2="-1" k3="1"/>
<feColorMatrix type="matrix" values="0 0 0 0 0.803922 0 0 0 0 0.847059 0 0 0 0 0.968627 0 0 0 1 0"/>
<feBlend mode="normal" in2="shape" result="effect1_innerShadow_1248_204"/>
</filter>
<filter id="filter1_i_1248_204" x="79" y="-14" width="148" height="148" filterUnits="userSpaceOnUse" color-interpolation-filters="sRGB">
<feFlood flood-opacity="0" result="BackgroundImageFix"/>
<feBlend mode="normal" in="SourceGraphic" in2="BackgroundImageFix" result="shape"/>
<feColorMatrix in="SourceAlpha" type="matrix" values="0 0 0 0 0 0 0 0 0 0 0 0 0 0 0 0 0 0 127 0" result="hardAlpha"/>
<feOffset dx="14" dy="-14"/>
<feGaussianBlur stdDeviation="16"/>
<feComposite in2="hardAlpha" operator="arithmetic" k2="-1" k3="1"/>
<feColorMatrix type="matrix" values="0 0 0 0 0.803922 0 0 0 0 0.847059 0 0 0 0 0.968627 0 0 0 1 0"/>
<feBlend mode="normal" in2="shape" result="effect1_innerShadow_1248_204"/>
</filter>
<filter id="filter2_i_1248_204" x="49.0278" y="61.2307" width="66.6647" height="66.6646" filterUnits="userSpaceOnUse" color-interpolation-filters="sRGB">
<feFlood flood-opacity="0" result="BackgroundImageFix"/>
<feBlend mode="normal" in="SourceGraphic" in2="BackgroundImageFix" result="shape"/>
<feColorMatrix in="SourceAlpha" type="matrix" values="0 0 0 0 0 0 0 0 0 0 0 0 0 0 0 0 0 0 127 0" result="hardAlpha"/>
<feOffset dx="6" dy="-6"/>
<feGaussianBlur stdDeviation="8"/>
<feComposite in2="hardAlpha" operator="arithmetic" k2="-1" k3="1"/>
<feColorMatrix type="matrix" values="0 0 0 0 0.803922 0 0 0 0 0.847059 0 0 0 0 0.968627 0 0 0 1 0"/>
<feBlend mode="normal" in2="shape" result="effect1_innerShadow_1248_204"/>
</filter>
</defs>
</svg>
