<svg width="520" height="381" viewBox="0 0 520 381" fill="none" xmlns="http://www.w3.org/2000/svg">
<path d="M316.275 33.4831L21.9705 40.0068C10.242 40.2783 1.09644 48.9235 2.08926 59.0091L22.9887 266.695C23.9429 276.327 34.0141 283.25 45.2769 282.213L342.408 252.434C353.528 251.293 361.612 242.724 360.402 233.225L336.676 48.7943C335.515 39.862 326.676 33.3069 316.275 33.4831Z" fill="url(#paint0_linear_1248_213)"/>
<path d="M306.443 43.5558L34.0261 49.7632C23.2272 49.968 14.6975 57.9978 15.6032 67.0618L34.8319 256.707C35.7184 265.545 45.0676 271.834 55.4006 270.864L330.409 243.36C340.733 242.276 348.21 234.436 347.068 225.731L325.238 57.2693C324.163 49.3585 316.047 43.4368 306.443 43.5558Z" fill="url(#paint1_linear_1248_213)"/>
<path d="M306.443 43.5558L34.0261 49.7632C23.2272 49.968 14.6975 57.9978 15.6032 67.0618L34.8319 256.707C35.7184 265.545 45.0676 271.834 55.4006 270.864L330.409 243.36C340.733 242.276 348.21 234.436 347.068 225.731L325.238 57.2693C324.163 49.3585 316.047 43.4368 306.443 43.5558Z" fill="#CDD8F7"/>
<path d="M355.22 259.692L37.2 287.869C32.0474 288.418 34.068 303.42 38.3786 305.946L137.826 362.719C146.296 367.522 156.279 369.326 166.026 367.881L514.767 315.376C518.057 314.847 517.766 299.836 514.628 298.783L372.124 261.457C366.669 259.678 360.902 259.1 355.22 259.692Z" fill="#E8F0FF"/>
<path d="M354.29 247.801L39.5298 284.211C34.3773 284.761 32.9959 291.41 37.4388 293.925L136.886 350.698C145.356 355.502 155.339 357.306 165.087 355.861L513.837 303.485C517.127 302.957 517.6 298.473 514.462 297.42L371.194 249.566C365.739 247.786 359.972 247.209 354.29 247.801Z" fill="url(#paint2_linear_1248_213)"/>
<path d="M363.805 299.553L241.974 315.692C240.66 315.929 240.385 317.649 241.623 318.202L275.781 333.978C276.055 334.086 276.319 334.065 276.584 334.043L401.28 315.19C402.594 314.953 402.859 313.104 401.498 312.691L364.344 299.64C364.202 299.521 364.07 299.531 363.805 299.553Z" fill="#E8F0FF"/>
<path d="M203.622 296.442L231.182 292.913C232.505 292.806 232.78 291.089 231.675 290.527L218.816 283.874C218.542 283.766 218.268 283.658 218.003 283.679L190.169 287.1C188.846 287.207 188.571 288.923 189.676 289.486L202.951 296.365C203.083 296.355 203.357 296.463 203.622 296.442ZM147.288 292.256L176.171 288.621C176.436 288.6 176.701 288.578 176.984 288.816L190.391 295.685C191.496 296.247 191.221 297.964 189.898 298.071L161.421 301.804C161.156 301.825 160.892 301.847 160.608 301.609L146.786 294.513C145.557 294.091 145.965 292.363 147.288 292.256ZM134.361 288.347L127.861 284.961C126.755 284.398 127.03 282.682 128.354 282.575L157.521 279.177C157.785 279.156 158.05 279.134 158.333 279.372L164.55 282.52C165.656 283.083 165.381 284.799 164.057 284.906L135.165 288.412C134.9 288.434 134.635 288.455 134.361 288.347ZM98.0744 298.185L133.432 293.896C133.697 293.875 133.961 293.854 134.245 294.092L148.209 301.307C149.315 301.869 149.04 303.586 147.716 303.693L112.51 308.23C112.245 308.251 111.981 308.272 111.697 308.035L97.5817 300.571C96.3439 300.019 96.7512 298.292 98.0744 298.185ZM312.328 272.153L339.369 268.797C339.633 268.775 339.766 268.765 340.04 268.873L353.485 274.435C354.723 274.987 354.448 276.704 353.134 276.94L325.971 280.437C325.706 280.458 325.441 280.48 325.3 280.361L311.968 274.529C310.607 274.117 311.005 272.26 312.328 272.153ZM85.5448 294.243L78.7611 290.62C77.6557 290.057 77.9306 288.34 79.2538 288.234L114.498 284.215C114.763 284.194 115.027 284.172 115.311 284.41L121.943 287.785C123.049 288.348 122.774 290.064 121.45 290.171L86.4898 294.428C85.9605 294.47 85.6865 294.362 85.5448 294.243ZM177.233 283.06L171.148 279.902C170.043 279.339 170.318 277.623 171.641 277.516L199.759 274.333C200.023 274.312 200.288 274.29 200.571 274.528L206.382 277.579C207.487 278.141 207.212 279.858 205.889 279.965L178.055 283.385C177.781 283.277 177.507 283.169 177.233 283.06ZM231.85 281.91L255.988 278.918C256.253 278.896 256.518 278.875 256.659 278.994L270.019 285.215C271.257 285.767 270.85 287.494 269.536 287.731L244.877 290.895C244.613 290.916 244.348 290.938 244.065 290.7L231.347 284.166C230.251 283.733 230.526 282.016 231.85 281.91ZM270.638 277.214L296.894 274.051C297.159 274.03 297.423 274.008 297.565 274.127L311.171 280.068C312.409 280.619 312.134 282.336 310.82 282.573L284.053 286.037C283.789 286.059 283.524 286.08 283.25 285.972L270.155 279.729C268.908 279.048 269.315 277.321 270.638 277.214ZM393.747 271.706L368.691 274.902C368.427 274.924 368.162 274.945 368.02 274.826L354.849 269.372C353.611 268.82 353.886 267.103 355.2 266.867L378.554 264.069C378.819 264.047 378.951 264.037 379.093 264.156L393.966 269.212C395.326 269.623 395.061 271.47 393.747 271.706ZM410.615 274.906L425.355 279.973C426.716 280.385 426.46 282.361 425.137 282.468L396.414 286.481C396.149 286.502 395.884 286.524 395.743 286.405L382.571 280.951C381.333 280.399 381.608 278.682 382.922 278.446L410.086 274.949C410.209 274.809 410.473 274.788 410.615 274.906ZM219.055 277.989L213.386 275.058C212.281 274.495 212.556 272.779 213.879 272.672L236.978 270.025C237.243 270.003 237.507 269.982 237.649 270.101L243.441 272.892C244.679 273.444 244.271 275.171 242.958 275.408L219.736 278.195C219.471 278.216 219.197 278.108 219.055 277.989ZM202.56 302.002L216.109 308.99C217.214 309.552 216.939 311.269 215.616 311.376L187.422 315.347C187.158 315.368 186.893 315.39 186.61 315.152L172.645 307.937C171.54 307.374 171.815 305.658 173.138 305.551L201.615 301.818C202.012 301.786 202.286 301.894 202.56 302.002ZM160.237 307.505L174.333 314.709C175.439 315.272 175.164 316.988 173.841 317.095L138.398 322.042C138.133 322.064 137.868 322.085 137.585 321.847L123.328 314.265C122.222 313.702 122.497 311.986 123.82 311.879L159.292 307.32C159.689 307.288 159.963 307.397 160.237 307.505ZM256.333 305.742L229.189 309.498C228.924 309.519 228.659 309.541 228.376 309.303L214.969 302.434C213.863 301.872 214.138 300.155 215.462 300.048L243.022 296.519L296.82 289.569L324.512 286.029C324.777 286.008 325.042 285.987 325.183 286.106L338.789 292.046C340.027 292.598 339.752 294.315 338.438 294.551L310.367 298.382L256.333 305.742ZM256.918 273.368L251.267 270.696C250.03 270.144 250.437 268.417 251.751 268.18L277.09 265.222C277.355 265.201 277.619 265.179 277.761 265.298L283.534 267.83C284.772 268.382 284.497 270.099 283.183 270.335L257.853 273.423C257.466 273.585 257.192 273.476 256.918 273.368ZM367.894 280.441L381.34 286.004C382.578 286.555 382.303 288.272 380.989 288.509L353.315 292.307C353.05 292.329 352.786 292.35 352.644 292.231L339.312 286.399C338.074 285.847 338.349 284.13 339.663 283.894L367.356 280.354C367.488 280.344 367.62 280.333 367.894 280.441ZM297.823 268.501L292.192 266.088C290.954 265.536 291.229 263.82 292.543 263.583L319.205 260.518C319.47 260.497 319.602 260.486 319.876 260.594L325.366 262.888C326.604 263.44 326.329 265.157 325.015 265.393L298.494 268.577C298.229 268.599 297.955 268.491 297.823 268.501ZM340.165 263.258L334.95 261.072C333.712 260.52 333.978 258.674 335.301 258.567L355.895 256.252C356.16 256.231 356.292 256.22 356.434 256.339L362.302 258.342C363.663 258.754 363.406 260.73 361.951 260.847L340.846 263.463C340.581 263.485 340.44 263.366 340.165 263.258Z" fill="#DAE4FB"/>
<path d="M203.415 293.799L230.976 290.27C232.299 290.163 232.574 288.447 231.468 287.884L218.609 281.232C218.335 281.123 218.061 281.015 217.797 281.037L189.962 284.457C188.639 284.564 188.364 286.281 189.47 286.843L202.744 293.723C202.877 293.712 203.151 293.82 203.415 293.799ZM147.081 289.614L175.965 285.978C176.23 285.957 176.494 285.936 176.778 286.173L190.185 293.042C191.29 293.605 191.015 295.322 189.692 295.428L161.215 299.161C160.95 299.183 160.685 299.204 160.402 298.966L146.579 291.87C145.351 291.448 145.758 289.721 147.081 289.614ZM134.155 285.704L127.654 282.318C126.549 281.756 126.824 280.039 128.147 279.932L157.314 276.535C157.579 276.513 157.843 276.492 158.127 276.73L164.344 279.878C165.449 280.44 165.174 282.157 163.851 282.264L134.958 285.77C134.693 285.791 134.429 285.812 134.155 285.704ZM97.868 295.542L133.226 291.254C133.49 291.232 133.755 291.211 134.038 291.449L148.003 298.664C149.108 299.226 148.833 300.943 147.51 301.05L112.303 305.587C112.039 305.608 111.774 305.63 111.491 305.392L97.3753 297.928C96.1375 297.377 96.5448 295.649 97.868 295.542ZM312.122 269.511L339.162 266.154C339.427 266.133 339.559 266.122 339.833 266.23L353.279 271.793C354.516 272.345 354.241 274.061 352.928 274.298L325.764 277.794C325.5 277.816 325.235 277.837 325.093 277.718L311.761 271.886C310.401 271.474 310.799 269.617 312.122 269.511ZM85.3384 291.601L78.5547 287.977C77.4492 287.415 77.7242 285.698 79.0474 285.591L114.291 281.572C114.556 281.551 114.821 281.53 115.104 281.767L121.737 285.142C122.842 285.705 122.567 287.422 121.244 287.529L86.2834 291.785C85.7541 291.828 85.4801 291.72 85.3384 291.601ZM177.026 280.418L170.942 277.259C169.836 276.697 170.111 274.98 171.435 274.873L199.552 271.691C199.817 271.669 200.082 271.648 200.365 271.886L206.176 274.936C207.281 275.498 207.006 277.215 205.683 277.322L177.848 280.742C177.574 280.634 177.3 280.526 177.026 280.418ZM231.643 279.267L255.782 276.275C256.047 276.254 256.311 276.232 256.453 276.351L269.813 282.572C271.051 283.124 270.644 284.852 269.33 285.088L244.671 288.252C244.406 288.273 244.142 288.295 243.858 288.057L231.141 281.523C230.045 281.091 230.32 279.374 231.643 279.267ZM270.432 274.571L296.688 271.408C296.952 271.387 297.217 271.366 297.359 271.485L310.965 277.425C312.202 277.977 311.927 279.694 310.614 279.93L283.847 283.395C283.582 283.416 283.318 283.437 283.044 283.329L269.948 277.087C268.701 276.405 269.108 274.678 270.432 274.571ZM393.54 269.063L368.485 272.26C368.22 272.281 367.955 272.302 367.814 272.183L354.642 266.729C353.405 266.177 353.68 264.461 354.993 264.224L378.348 261.426C378.612 261.405 378.745 261.394 378.886 261.513L393.759 266.569C395.12 266.981 394.854 268.827 393.54 269.063ZM410.408 272.264L425.149 277.331C426.51 277.742 426.253 279.718 424.93 279.825L396.207 283.838C395.943 283.86 395.678 283.881 395.536 283.762L382.365 278.308C381.127 277.756 381.402 276.04 382.716 275.803L409.879 272.307C410.002 272.166 410.267 272.145 410.408 272.264ZM218.849 275.347L213.18 272.415C212.074 271.853 212.349 270.136 213.673 270.029L236.772 267.382C237.036 267.361 237.301 267.339 237.443 267.458L243.235 270.249C244.472 270.801 244.065 272.529 242.751 272.765L219.529 275.552C219.265 275.574 218.991 275.466 218.849 275.347ZM202.354 299.359L215.903 306.347C217.008 306.91 216.733 308.627 215.41 308.733L187.216 312.704C186.951 312.726 186.687 312.747 186.403 312.509L172.439 305.294C171.333 304.732 171.608 303.015 172.932 302.908L201.409 299.175C201.806 299.143 202.08 299.251 202.354 299.359ZM160.03 304.862L174.127 312.066C175.232 312.629 174.957 314.346 173.634 314.453L138.191 319.4C137.927 319.421 137.662 319.442 137.379 319.205L123.121 311.622C122.016 311.06 122.291 309.343 123.614 309.236L159.085 304.678C159.482 304.646 159.756 304.754 160.03 304.862ZM256.127 303.1L228.982 306.855C228.718 306.877 228.453 306.898 228.169 306.66L214.762 299.791C213.657 299.229 213.932 297.512 215.255 297.405L242.816 293.877L296.613 286.926L324.306 283.387C324.57 283.365 324.835 283.344 324.977 283.463L338.583 289.403C339.821 289.955 339.546 291.672 338.232 291.908L310.161 295.739L256.127 303.1ZM256.711 270.725L251.061 268.053C249.823 267.501 250.231 265.774 251.544 265.538L276.883 262.579C277.148 262.558 277.413 262.537 277.554 262.655L283.328 265.187C284.565 265.739 284.29 267.456 282.976 267.692L257.647 270.78C257.259 270.942 256.985 270.834 256.711 270.725ZM367.688 277.799L381.133 283.361C382.371 283.913 382.096 285.63 380.782 285.866L353.108 289.664C352.844 289.686 352.579 289.707 352.438 289.588L339.106 283.756C337.868 283.204 338.143 281.488 339.457 281.251L367.149 277.712C367.282 277.701 367.414 277.69 367.688 277.799ZM297.617 265.859L291.985 263.446C290.748 262.894 291.023 261.177 292.336 260.941L318.999 257.875C319.263 257.854 319.396 257.843 319.67 257.952L325.159 260.246C326.397 260.798 326.122 262.514 324.808 262.751L298.288 265.935C298.023 265.956 297.749 265.848 297.617 265.859ZM339.959 260.615L334.743 258.429C333.506 257.877 333.771 256.031 335.094 255.924L355.689 253.61C355.954 253.588 356.086 253.578 356.228 253.697L362.095 255.699C363.456 256.111 363.2 258.087 361.744 258.204L340.639 260.821C340.375 260.842 340.233 260.723 339.959 260.615Z" fill="white"/>
<path d="M192.901 60.1607L45.2182 63.4878C39.2939 63.3883 34.794 70.0788 35.4981 77.9001L50.382 241.55C51.0703 249.176 56.3468 254.826 61.9979 254.255L212.36 237.613C218.003 236.944 221.93 230.39 221.104 222.872L203.533 72.4389C202.763 65.6055 198.172 60.3035 192.901 60.1607Z" fill="url(#paint3_linear_1248_213)"/>
<path d="M317.539 160.757L231.432 166.455C228.027 166.398 225.44 170.243 225.845 174.738L231.657 230.402C232.053 234.785 235.086 238.032 238.334 237.704L324.759 228.141C328.003 227.757 330.26 223.99 329.785 219.669L323.65 167.813C323.207 163.886 320.568 160.839 317.539 160.757Z" fill="url(#paint4_linear_1248_213)"/>
<path d="M73.587 226.459L131.313 222.014" stroke="#CDD8F7" stroke-width="8" stroke-linecap="round"/>
<path d="M68.587 196.46L195.691 187.461" stroke="#CDD8F7" stroke-width="8" stroke-linecap="round"/>
<path d="M70.5869 211.46L197.691 202.461" stroke="#CDD8F7" stroke-width="8" stroke-linecap="round"/>
<defs>
<linearGradient id="paint0_linear_1248_213" x1="302.327" y1="10.7297" x2="147.392" y2="240.79" gradientUnits="userSpaceOnUse">
<stop stop-color="white"/>
<stop offset="1" stop-color="#E8F0FF"/>
</linearGradient>
<linearGradient id="paint1_linear_1248_213" x1="180.927" y1="218.812" x2="249.703" y2="44.2525" gradientUnits="userSpaceOnUse">
<stop stop-color="#7A43EE"/>
<stop offset="1" stop-color="#B565E6"/>
</linearGradient>
<linearGradient id="paint2_linear_1248_213" x1="317.282" y1="236.224" x2="319.359" y2="348.619" gradientUnits="userSpaceOnUse">
<stop stop-color="#E8F0FF"/>
<stop offset="1" stop-color="white"/>
</linearGradient>
<linearGradient id="paint3_linear_1248_213" x1="129.729" y1="212.677" x2="207.787" y2="93.1766" gradientUnits="userSpaceOnUse">
<stop stop-color="#E8F0FF"/>
<stop offset="1" stop-color="white"/>
</linearGradient>
<linearGradient id="paint4_linear_1248_213" x1="267.866" y1="147.225" x2="280.041" y2="256.586" gradientUnits="userSpaceOnUse">
<stop stop-color="#E8F0FF"/>
<stop offset="1" stop-color="#CDD8F7"/>
</linearGradient>
</defs>
</svg>
