<svg width="106" height="32" viewBox="0 0 106 32" fill="none" xmlns="http://www.w3.org/2000/svg">
<path d="M67.2841 9.08387C68.5194 7.63871 70.2694 6.8129 72.4311 6.8129C77.0635 6.8129 80.3576 10.6323 80.3576 16C80.3576 21.471 77.1664 25.2903 72.4311 25.2903C70.2694 25.2903 68.4164 24.4645 67.2841 22.9161V24.7742H62.8576V0H67.2841V9.08387ZM71.5047 21.2645C74.5929 21.2645 75.6223 18.5806 75.6223 16C75.6223 13.4194 74.49 10.7355 71.5047 10.7355C68.5194 10.7355 67.2841 13.4194 67.2841 16C67.2841 19.2 68.9311 21.2645 71.5047 21.2645ZM81.387 24.8774V0H85.9164V24.8774H81.387ZM43.4017 15.4839V17.1355H30.9458C31.0488 19.6129 32.6958 21.1613 35.4752 21.1613C37.3282 21.1613 38.7694 20.4387 39.9017 19.0968L40.0047 18.9935L42.887 21.7806L42.7841 21.8839C40.9311 24.1548 38.3576 25.2903 35.2694 25.2903C29.8135 25.2903 26.2105 21.6774 26.2105 16.1032C26.2105 10.529 29.7105 6.8129 34.9605 6.8129C40.0047 6.8129 43.4017 10.3226 43.4017 15.4839ZM31.0488 13.8323H38.9752C38.5635 11.871 37.1223 10.7355 35.0635 10.7355C33.1076 10.7355 31.5635 11.9742 31.0488 13.8323ZM61.5194 15.4839V17.1355H49.0635C49.1664 19.6129 50.8135 21.1613 53.5929 21.1613C55.4458 21.1613 56.887 20.4387 58.0194 19.0968L58.1223 18.9935L61.0047 21.7806L60.9017 21.8839C59.0488 24.1548 56.4752 25.2903 53.387 25.2903C47.9311 25.2903 44.3282 21.6774 44.3282 16.1032C44.3282 10.529 47.8282 6.8129 53.0782 6.8129C58.1223 6.8129 61.5194 10.3226 61.5194 15.4839ZM49.2694 13.8323H57.1958C56.7841 11.871 55.3429 10.7355 53.2841 10.7355C51.2252 10.7355 49.6811 11.9742 49.2694 13.8323ZM21.6811 7.22581H26.4164L21.5782 24.8774H16.4311L13.2399 13.5226L9.94583 24.8774H4.79877V24.7742L0.0634766 7.22581H4.90171L7.57818 18.4774L10.7694 7.22581H15.7105L19.0047 18.4774L21.6811 7.22581ZM100.225 7.22581H105.063L95.5929 32H91.2694L93.9458 24.8774L86.9458 7.22581H91.99L96.1076 18.9935L100.225 7.22581Z" fill="#929BB1"/>
</svg>
