<svg width="112" height="30" viewBox="0 0 112 30" fill="none" xmlns="http://www.w3.org/2000/svg">
<path d="M13.4572 0H4.74141C4.15682 0 3.62536 0.427427 3.54565 1.01514L0.011488 23.4817C-0.0682299 23.9359 0.277214 24.3366 0.728949 24.3366H4.87428C5.45888 24.3366 5.99033 23.9092 6.07004 23.3215L7.02666 17.2573C7.10638 16.6696 7.63783 16.2422 8.22243 16.2422H10.986C16.7257 16.2422 20.0472 13.4639 20.8976 7.90739C21.2962 5.4764 20.9241 3.5797 19.7815 2.24399C18.5592 0.774712 16.3536 0 13.4572 0ZM14.467 8.20125C13.9887 11.3535 11.5972 11.3535 9.28533 11.3535H7.98327L8.91332 5.4764C8.96646 5.12912 9.28533 4.86198 9.63078 4.86198H10.2419C11.8097 4.86198 13.2978 4.86198 14.0684 5.77026C14.4936 6.30454 14.6264 7.10597 14.467 8.20125ZM39.4984 8.09439H35.3265C34.9811 8.09439 34.6622 8.36153 34.609 8.70882L34.423 9.88424L34.1307 9.45681C33.2273 8.14782 31.2077 7.69368 29.2148 7.69368C24.6177 7.69368 20.6584 11.1932 19.9144 16.1354C19.5158 18.5931 20.0738 20.9439 21.4556 22.5735C22.7311 24.0695 24.538 24.7106 26.717 24.7106C30.4371 24.7106 32.4832 22.3063 32.4832 22.3063L32.2972 23.4817C32.2175 23.9359 32.563 24.3366 33.0147 24.3366H36.7614C37.346 24.3366 37.8509 23.9092 37.9572 23.3215L40.2159 8.97596C40.269 8.4951 39.9236 8.09439 39.4984 8.09439ZM33.679 16.2689C33.2804 18.6732 31.3938 20.276 28.9756 20.276C27.7533 20.276 26.7967 19.8753 26.1855 19.1541C25.5744 18.4061 25.3352 17.3642 25.5212 16.2155C25.8932 13.8379 27.833 12.1817 30.198 12.1817C31.3938 12.1817 32.3504 12.5824 32.9881 13.3304C33.5993 14.0516 33.865 15.0935 33.679 16.2689ZM61.6865 8.09439H57.4881C57.0895 8.09439 56.7175 8.28139 56.4783 8.62867L50.6855 17.1772L48.2408 8.94924C48.0814 8.44167 47.6031 8.09439 47.0716 8.09439H42.9528C42.448 8.09439 42.1025 8.57524 42.262 9.0561L46.8856 22.6803L42.5808 28.8513C42.2354 29.3321 42.5808 30 43.1654 30H47.3639C47.7625 30 48.1345 29.813 48.3471 29.4657L62.2977 9.2431C62.6166 8.76225 62.2977 8.09439 61.6865 8.09439ZM75.584 0H66.8682C66.2836 0 65.7787 0.427427 65.6724 1.01514L62.1383 23.4817C62.0586 23.9359 62.404 24.3366 62.8557 24.3366H67.3199C67.7451 24.3366 68.0905 24.0427 68.1437 23.6153L69.1535 17.2573C69.2332 16.6696 69.7646 16.2422 70.3492 16.2422H73.1128C78.8525 16.2422 82.174 13.4639 83.0244 7.90739C83.4229 5.4764 83.0509 3.5797 81.9083 2.24399C80.686 0.774712 78.4804 0 75.584 0ZM76.5938 8.20125C76.1155 11.3535 73.7239 11.3535 71.4121 11.3535H70.1101L71.0401 5.4764C71.0932 5.12912 71.3856 4.86198 71.7576 4.86198H72.3687C73.9365 4.86198 75.4246 4.86198 76.1952 5.77026C76.6204 6.30454 76.7532 7.10597 76.5938 8.20125ZM101.599 8.09439H97.4267C97.0813 8.09439 96.7624 8.36153 96.7093 8.70882L96.5233 9.88424L96.2309 9.45681C95.3275 8.14782 93.308 7.69368 91.315 7.69368C86.718 7.69368 82.7586 11.1932 82.0146 16.1354C81.616 18.5931 82.174 20.9439 83.5558 22.5735C84.8313 24.0695 86.6382 24.7106 88.8172 24.7106C92.5374 24.7106 94.5835 22.3063 94.5835 22.3063L94.3974 23.4817C94.3177 23.9359 94.6632 24.3366 95.1149 24.3366H98.8616C99.4462 24.3366 99.9511 23.9092 100.057 23.3215L102.316 8.97596C102.396 8.4951 102.05 8.09439 101.599 8.09439ZM95.8058 16.2689C95.4072 18.6732 93.5205 20.276 91.1024 20.276C89.9067 20.276 88.9235 19.8753 88.3123 19.1541C87.7011 18.4061 87.462 17.3642 87.648 16.2155C88.02 13.8379 89.9598 12.1817 92.3248 12.1817C93.5205 12.1817 94.4772 12.5824 95.1149 13.3304C95.7261 14.0516 95.9918 15.0935 95.8058 16.2689ZM106.541 0.614426L102.954 23.4817C102.874 23.9359 103.22 24.3366 103.671 24.3366H107.259C107.843 24.3366 108.375 23.9092 108.454 23.3215L111.989 0.881567C112.068 0.427427 111.723 0.0267162 111.271 0.0267162H107.259C106.887 1.90735e-06 106.594 0.267141 106.541 0.614426Z" fill="#929BB1"/>
</svg>
