<svg width="100" height="42" viewBox="0 0 100 42" fill="none" xmlns="http://www.w3.org/2000/svg">
<path d="M99.981 15.3494C99.2778 17.8619 98.5936 20.3932 97.8904 22.9058C97.6433 23.8058 97.3582 24.7058 97.1681 25.6245C96.693 27.7996 95.2295 28.9434 93.1199 29.2809C92.0175 29.4684 90.8392 29.4684 89.7178 29.3371C87.9503 29.1121 87.4371 28.2308 87.8743 26.4121C89.0716 26.4121 90.288 26.4121 91.3143 26.4121C91.7134 26.7121 92.0936 27.1621 92.3026 27.1058C93.2909 26.8058 93.1389 25.8683 93.3099 25.3058C92.2646 25.437 91.2573 25.7183 90.25 25.6621C89.0906 25.6058 88.4254 24.7808 88.6725 23.6558C89.2427 21.1432 89.8889 18.6307 90.6681 16.1557C91.3143 14.1119 94.2602 13.1931 95.9518 15.1056C96.2368 14.3181 96.864 14.2056 97.6243 14.2244C98.4035 14.2619 99.2018 14.2056 100 14.2056C99.981 14.5994 99.981 14.9744 99.981 15.3494ZM95.4956 16.9807C95.4006 16.7744 95.3626 16.5119 95.2675 16.4744C95.0775 16.4182 94.7924 16.4557 94.6784 16.5682C94.4883 16.7557 94.3363 17.0182 94.2602 17.2807C93.7661 19.0619 93.2909 20.8245 92.8538 22.6058C92.7968 22.8495 92.9678 23.1495 93.0439 23.412C93.3099 23.2433 93.7471 23.1308 93.8231 22.887C94.4123 20.937 94.9444 18.9494 95.4956 16.9807ZM42.1842 38.131C40.0175 36.106 38.44 33.8184 37.5468 30.9121C39.1623 30.9121 40.6637 30.8934 42.1652 30.9309C42.3552 30.9309 42.6213 31.2309 42.7354 31.4559C46.0614 37.756 54.0058 40.456 60.8289 37.7747C64.0029 36.5185 66.6067 34.3247 69.0014 31.9434C69.2295 31.7184 69.3626 31.3809 69.5526 31.0809C69.6666 31.1746 69.7617 31.2684 69.8757 31.3621C69.7997 31.5496 69.7427 31.7371 69.6286 31.9059C65.4284 38.2622 59.8026 42.1811 51.8202 41.9936C48.8742 41.9186 46.1564 40.9623 43.7427 39.2935C43.1915 38.9185 42.8114 38.9185 42.2222 39.181C36.6345 41.8248 31.0468 42.1623 25.459 39.1623C25.1549 39.0123 24.6038 39.106 24.2617 39.2748C20.4035 41.0935 16.3932 41.7873 12.1549 40.906C4.51458 39.2935 -0.655015 32.2622 0.0672073 24.5745C0.56136 19.3245 2.88007 14.8806 6.37715 11.0181C10.7865 6.143 15.9561 2.37419 22.4561 0.705413C25.478 -0.0633485 28.481 -0.0633485 31.3508 1.38042C31.883 1.64293 32.4532 1.92418 32.8523 2.35544C33.6315 3.2367 34.3158 3.0867 35.2851 2.58044C37.9269 1.15542 40.7397 0.274157 43.7427 0.180405C46.8216 0.0679035 49.5585 0.967918 51.7821 3.1617C54.3099 1.81168 56.8947 0.742914 59.7076 0.274157C63.1476 -0.307102 66.4547 -0.100849 69.2295 2.24294C71.5482 4.19297 72.9737 6.70551 73.4868 9.6868C73.5819 10.2493 73.5058 10.8306 73.3348 11.4306C73.2588 11.1493 73.1827 10.8681 73.0687 10.6056C72.2895 8.80554 71.6623 6.91176 70.655 5.24298C68.2792 1.30542 64.5541 -0.0820989 60.0687 1.06167C56.4196 1.99918 53.3596 4.00547 50.6608 6.49925C49.0073 8.03678 47.5628 9.78055 45.9854 11.4118C45.7003 11.7118 45.2251 11.9368 44.807 11.9743C43.7807 12.0493 42.7544 11.9931 41.462 11.9931C44.1988 8.43053 47.3918 5.80549 51.0789 3.55546C49.3494 1.86793 47.3538 1.08042 45.0731 0.967917C43.1345 0.855416 41.2529 1.21167 39.5234 1.99918C30.9137 5.89924 25.0979 12.2556 22.7412 21.3682C21.5628 25.9058 22.209 30.2746 25.383 34.0059C29.1842 38.4685 36.7105 40.3435 42.1842 38.131ZM23.9196 38.0935C21.5058 36.181 19.8143 33.9309 18.845 31.1746C17.1535 26.2996 17.8567 21.612 20.0994 17.0932C22.8362 11.5806 27.1696 7.49302 32.3201 4.15547C32.6052 3.96796 32.8713 3.78046 33.2514 3.53671C32.7763 3.14295 32.4152 2.80545 31.997 2.54294C29.0701 0.574162 25.8772 0.442909 22.7222 1.62418C13.8465 4.98048 8.06867 11.3181 5.16078 20.187C4.00142 23.7308 3.86838 27.3871 5.40785 30.9309C8.61984 38.356 17.9897 39.9123 23.9196 38.0935ZM56.8567 21.2557C57.1798 18.9494 57.5029 16.6432 57.826 14.3181C56.5526 14.3181 55.3933 14.3181 54.1769 14.3181C53.5687 18.9494 52.9605 23.5058 52.3523 28.1371C53.6257 28.1371 54.7661 28.0808 55.8874 28.1558C56.7047 28.1933 57.1038 27.9121 57.3889 27.1246C57.9781 25.512 58.6813 23.9183 59.3465 22.3245C59.4035 22.3433 59.4605 22.362 59.5175 22.3808C59.2895 24.2558 59.0614 26.1308 58.8143 28.0808C60.1637 28.0808 61.3991 28.0433 62.6155 28.0996C63.2237 28.1183 63.5088 27.9121 63.7178 27.3496C65.0292 23.862 66.3786 20.3932 67.7281 16.9244C68.0702 16.0619 68.3933 15.1806 68.7924 14.1681C67.8421 14.1681 67.0248 14.2431 66.2266 14.1494C65.3333 14.0556 64.9532 14.4306 64.6491 15.2181C63.9269 17.1682 63.1286 19.0994 62.3494 21.0495C62.3114 21.0495 62.2734 21.0307 62.2544 21.0307C62.5775 18.7994 62.9196 16.5682 63.2617 14.2244C62.2924 14.2244 61.4181 14.2619 60.5438 14.2056C59.9357 14.1681 59.6696 14.4119 59.4605 14.9744C58.6813 17.0932 57.864 19.1744 57.0468 21.2745C56.9707 21.2745 56.9137 21.2745 56.8567 21.2557ZM33.6696 14.4306C32.9473 14.3931 32.7003 14.6744 32.5292 15.3306C31.4839 19.3807 30.4196 23.4308 29.3552 27.4808C29.2792 27.7433 29.2602 28.0058 29.2222 28.3433C30.3435 28.3433 31.3889 28.2871 32.4152 28.3621C33.1754 28.4183 33.5175 28.1746 33.6886 27.4058C34.3918 24.4995 35.19 21.612 35.9503 18.7057C36.1023 18.1619 36.2544 17.6182 36.5014 17.1119C36.6155 16.9057 36.9956 16.8119 37.2427 16.6807C37.3187 16.9432 37.4707 17.2057 37.4707 17.4494C37.4707 17.7119 37.3757 17.9932 37.2997 18.2744C36.5014 21.3307 35.7032 24.3683 34.9239 27.4246C34.8479 27.6871 34.8289 27.9496 34.7529 28.2871C35.9503 28.2871 37.0526 28.2496 38.1549 28.3058C38.7631 28.3246 39.0292 28.1371 39.1813 27.5371C39.7704 25.1183 40.4547 22.6995 41.0628 20.2807C41.4049 18.9494 41.7661 17.6182 41.9561 16.2682C42.1462 15.0119 41.3859 14.1306 40.1125 14.2244C39.0292 14.2994 37.9839 14.7306 36.9576 14.9931C36.9576 14.9931 36.9766 14.7306 36.9956 14.4494C35.8742 14.4494 34.7719 14.5056 33.6696 14.4306ZM82.6857 25.3245C81.7354 25.5121 80.8231 25.8121 79.9108 25.8121C78.5424 25.8308 77.7251 24.912 78.0292 23.5995C78.5614 21.2182 79.1506 18.8557 79.8918 16.5307C80.443 14.8244 81.6403 14.0556 83.2558 14.2244C83.9591 14.2994 84.6243 14.7119 85.3655 14.9931C86.4108 13.7181 87.9693 14.6931 89.4137 14.2994C89.3757 14.6556 89.3757 14.8806 89.3187 15.0681C88.3874 18.6307 87.4181 22.1932 86.5058 25.7746C85.9547 27.9683 84.4722 29.1121 82.3055 29.4121C81.2032 29.5621 80.0248 29.5621 78.9225 29.4121C77.231 29.1684 76.7368 28.2308 77.25 26.5058C78.4474 26.5058 79.6637 26.5058 80.7471 26.5058C81.0512 26.8058 81.3363 27.2746 81.5073 27.2183C81.8304 27.1246 82.1915 26.8246 82.3626 26.5058C82.5526 26.1121 82.5906 25.6246 82.6857 25.3245ZM82.0395 22.9995C82.1535 23.1683 82.2295 23.4308 82.3626 23.487C82.5336 23.5433 82.7997 23.4308 82.9327 23.3183C83.1038 23.1495 83.2178 22.9058 83.2748 22.662C83.769 20.8807 84.2441 19.1182 84.6813 17.3182C84.7383 17.0744 84.5672 16.7744 84.5102 16.4932C84.2441 16.6619 83.788 16.7744 83.731 16.9994C83.1418 18.9869 82.6096 20.9745 82.0395 22.9995ZM51.307 22.4183C50.9269 27.4246 46.7646 29.3746 42.8874 28.1371C41.652 27.7433 41.0818 26.8433 41.0628 25.5683C41.0628 25.1933 41.0818 24.8183 41.1769 24.462C41.69 22.437 42.1462 20.3932 42.7544 18.3869C43.7997 15.0681 46.7836 13.4556 50.2047 14.2431C51.7821 14.6181 52.7134 15.7244 52.5614 17.2807C52.4283 18.5369 52.1052 19.7932 51.8011 21.0307C51.7441 21.237 51.307 21.4807 51.0409 21.4807C49.6535 21.537 48.2661 21.4995 46.8596 21.5557C46.5935 21.5745 46.1564 21.7807 46.0804 21.987C45.7383 23.0183 45.4912 24.087 45.2631 25.1558C45.2061 25.3995 45.3962 25.6996 45.4912 25.9621C45.8143 25.8121 46.2894 25.7371 46.4035 25.4933C46.7266 24.762 46.9737 23.9745 47.1447 23.187C47.2778 22.587 47.5628 22.3808 48.19 22.3995C49.2354 22.4558 50.2617 22.4183 51.307 22.4183ZM46.8216 19.1557C47.6389 19.437 48.114 19.3057 48.228 18.4619C48.2661 18.0869 48.4561 17.7307 48.4561 17.3744C48.4561 17.1119 48.2851 16.8494 48.19 16.5869C47.924 16.7557 47.5248 16.8869 47.4298 17.1119C47.1637 17.7682 47.0117 18.4619 46.8216 19.1557ZM77.231 21.4245C75.5965 21.4245 74.114 21.4432 72.6316 21.4057C72.0424 21.387 71.7003 21.537 71.5862 22.1745C71.4152 23.0933 71.1111 23.9933 70.921 24.912C70.864 25.1558 71.0731 25.437 71.1681 25.6996C71.4532 25.5496 71.9093 25.4933 72.0044 25.2683C72.3275 24.537 72.5746 23.7495 72.7646 22.962C72.8977 22.437 73.1257 22.2495 73.6769 22.2682C74.7032 22.3057 75.7485 22.287 76.7938 22.287C76.3567 26.5996 72.9357 29.0371 68.9824 27.9308C67.519 27.5183 66.6257 26.5621 66.9298 25.1183C67.5 22.3808 68.1272 19.6057 69.1535 17.0182C70.1608 14.5244 74.019 13.4744 76.4517 14.6931C77.402 15.1806 78.0292 15.9494 77.9342 16.9994C77.8012 18.4432 77.4971 19.887 77.231 21.4245ZM72.3845 19.1369C73.1827 19.4182 73.6389 19.2682 73.7529 18.4619C73.8099 18.0869 73.962 17.7307 73.981 17.3744C74 17.1494 73.8289 16.9057 73.7529 16.6619C73.5058 16.8119 73.1257 16.8869 73.0307 17.0932C72.7456 17.7682 72.5936 18.4619 72.3845 19.1369Z" fill="#929BB1"/>
</svg>
