<svg width="195" height="32" viewBox="0 0 195 32" fill="none" xmlns="http://www.w3.org/2000/svg">
<path d="M18.2132 25.0598L23.5588 0H29.0572L26.9571 9.82884L27.0335 9.86635C28.4844 8.21571 30.6227 7.27784 32.8755 7.27784C35.7392 7.27784 37.381 8.966 37.381 11.7046C37.3429 12.7925 37.2283 13.8429 36.9992 14.8933L34.861 25.0223H29.2863L31.3481 15.1934C31.5009 14.4807 31.5772 13.7679 31.5772 13.0176C31.5772 11.9672 31.119 11.2169 29.859 11.2169C28.1026 11.2169 26.2316 13.2052 25.5443 16.4314L23.7116 24.9848H18.2132V25.0598ZM55.5943 21.0082C56.2434 21.4959 57.0452 21.7585 57.8471 21.721C60.9017 21.721 63.0018 17.2192 63.0018 14.0305C63.0018 12.7175 62.4672 11.3294 60.8253 11.3294C58.9162 11.3294 57.1216 13.3552 56.4725 16.3939L55.5943 21.0082ZM47.7668 32L51.5851 14.068C52.0051 12.0422 52.4633 9.34115 52.6924 7.57796H57.5416L57.2361 10.204H57.3125C58.6871 8.40328 60.8253 7.35287 63.1163 7.27784C67.1255 7.27784 68.7674 10.2415 68.7674 13.5428C68.7674 19.5076 64.5673 25.3974 58.1143 25.3974C57.007 25.4349 55.8997 25.2098 54.907 24.7597H54.7924L53.3033 32H47.7668ZM98.0918 3.03869L97.0991 7.6905H101.108L100.306 11.3669H96.2972L94.8463 17.857C94.6936 18.4947 94.579 19.17 94.579 19.8453C94.579 20.7831 95.0754 21.3083 96.2209 21.3083C96.7172 21.3083 97.2136 21.3083 97.71 21.2333L97.0609 25.0223C95.9918 25.2849 94.8845 25.3974 93.8153 25.3599C90.5698 25.3599 88.9661 23.8218 88.9661 21.6084C88.9661 20.5955 89.1189 19.5451 89.3479 18.5698L90.9135 11.3294H88.4697L89.2716 7.65299H91.7153L92.4026 4.46424L98.0918 3.03869ZM113.632 11.4045C113.174 11.2919 112.716 11.2544 112.258 11.2544C108.172 11.2544 106.301 15.1184 106.301 18.6073C106.301 20.2954 106.912 21.4209 108.363 21.4209C110.005 21.4209 111.876 19.6202 112.716 15.6811L113.632 11.4045ZM111.99 25.0598C112.029 24.0469 112.143 22.959 112.219 21.796H112.105C110.387 24.4971 108.096 25.4349 106.072 25.4349C102.788 25.4349 100.65 23.0715 100.65 19.6577C100.65 13.0926 103.819 7.57796 113.747 7.57796C115.771 7.57796 117.794 7.87808 119.742 8.40328L117.718 17.4068C117.221 19.9203 116.954 22.5088 116.916 25.0973L111.99 25.0598ZM131.311 3.03869L130.318 7.6905H134.327L133.526 11.3669H129.516L128.065 17.857C127.913 18.4947 127.798 19.17 127.798 19.8453C127.798 20.7831 128.256 21.3083 129.44 21.3083C129.936 21.3083 130.433 21.3083 130.929 21.2333L130.28 25.0223C129.211 25.2849 128.104 25.3974 127.034 25.3599C123.789 25.3599 122.185 23.8218 122.185 21.6084C122.185 20.5955 122.338 19.5451 122.567 18.5698L124.133 11.3294H121.689L122.491 7.65299H124.934L125.622 4.46424L131.311 3.03869ZM167.623 25.0598L170.143 13.3177C170.639 11.1794 170.907 9.26612 171.174 7.6905H175.985L175.679 10.354H175.756C177.245 8.40328 179.612 7.27784 182.056 7.31536C185.111 7.31536 186.714 9.04103 186.714 11.7796C186.676 12.7925 186.562 13.8429 186.371 14.8183L184.194 25.0598H178.696L180.796 15.0809C180.949 14.4431 180.987 13.8054 181.025 13.1301C181.025 12.0422 180.605 11.2544 179.307 11.2544C177.627 11.2544 175.641 13.1676 174.916 16.8816L173.198 25.0598H167.623ZM44.7503 5.43962H44.8267C46.5068 5.43962 47.9577 4.42673 47.9959 2.62603C47.9959 1.20047 46.9268 0.187573 45.2849 0.187573C43.5667 0.187573 42.1921 1.42556 42.1921 3.00117C42.1921 4.46424 43.223 5.43962 44.7503 5.43962ZM46.774 7.54045H41.4284L39.0611 18.6073C38.832 19.5826 38.6793 20.5955 38.6793 21.646C38.6793 23.8593 40.2448 25.3599 43.4903 25.3599C44.5594 25.3974 45.6667 25.2474 46.6977 25.0223L47.3468 21.2708C46.8504 21.3083 46.3922 21.3458 45.8958 21.3458C44.7503 21.3458 44.2921 20.8206 44.2921 19.9203C44.3303 19.245 44.4067 18.6073 44.5594 17.9695L46.774 7.54045ZM140.742 5.43962H140.818C142.499 5.43962 143.949 4.42673 143.988 2.62603C143.988 1.20047 142.919 0.187573 141.277 0.187573C139.558 0.187573 138.184 1.42556 138.184 3.00117C138.184 4.46424 139.215 5.43962 140.742 5.43962ZM142.46 7.54045H137.115L134.709 18.6073C134.48 19.5826 134.327 20.5955 134.327 21.646C134.327 23.8593 135.893 25.3599 139.138 25.3599C140.208 25.3974 141.315 25.2474 142.384 25.0223L142.995 21.2708C142.499 21.3458 142.04 21.3458 141.544 21.3458C140.398 21.3458 139.94 20.8206 139.94 19.9203C139.978 19.245 140.055 18.6073 140.208 17.9695L142.46 7.54045ZM12.0658 11.442C9.85118 10.129 8.51478 9.00352 8.51478 7.72802C8.51478 6.26495 9.96573 5.06448 12.4476 5.06448C14.2804 5.02696 16.1514 5.81477 17.4878 6.52755L18.5187 2.25088L18.5569 2.13834C16.8005 1.23798 14.815 0.750293 12.8294 0.787808C6.49109 0.787808 2.82553 3.60141 2.82553 8.47831C2.82553 11.2919 5.04014 13.3927 7.63658 14.8933C9.85118 16.1313 10.9967 16.7691 10.9967 18.1946C10.9967 20.0703 9.08753 21.1208 6.87292 21.0832C4.73468 21.0832 2.52007 19.9203 1.14549 19.17L0 23.6342C1.94733 24.7597 4.20012 25.3599 6.45291 25.3599C12.4476 25.3599 16.7623 23.1465 16.7623 17.3693C16.7623 14.7808 15.0059 13.0176 12.0658 11.442ZM81.0623 11.442C78.8477 10.129 77.5113 9.04103 77.5113 7.72802C77.5113 6.26495 78.9622 5.06448 81.4441 5.06448C83.2769 5.02696 85.1096 5.81477 86.446 6.52755L87.5534 2.25088L87.5915 2.13834C85.8351 1.23798 83.8496 0.750293 81.8641 0.787808C75.5639 0.787808 71.8984 3.60141 71.8984 8.47831C71.8984 11.2919 74.113 13.3927 76.7094 14.8933C78.924 16.1313 80.0313 16.7691 80.0313 18.1946C80.0313 20.0703 78.1222 21.1208 75.9076 21.0832C73.7693 21.0832 71.5547 19.9203 70.142 19.17L69.0347 23.6342C70.982 24.7597 73.2348 25.3224 75.4876 25.3599C81.5205 25.3599 85.7969 23.1465 85.7969 17.3693C85.7588 14.7433 84.0405 13.0176 81.0623 11.442ZM191.105 6.18992H192.098C192.251 6.18992 192.442 6.11489 192.556 6.00234C192.671 5.8898 192.747 5.70223 192.747 5.55217C192.747 5.17702 192.442 4.8769 192.098 4.8769H191.105V6.18992ZM190.609 8.02814V4.46424H192.098C192.404 4.46424 192.671 4.57679 192.9 4.76436C193.129 4.95193 193.244 5.25205 193.244 5.55217C193.244 6.07737 192.862 6.56506 192.327 6.60258L193.32 8.02814H192.709L191.754 6.60258H191.105V8.02814H190.609ZM189.082 6.22743C189.082 7.72802 190.303 8.92849 191.831 8.92849C192.556 8.92849 193.244 8.66588 193.778 8.14068C194.313 7.65299 194.58 6.94021 194.58 6.22743C194.58 4.72685 193.358 3.52638 191.831 3.52638C190.303 3.52638 189.082 4.76436 189.082 6.22743ZM188.662 6.22743C188.662 4.50176 190.074 3.11372 191.793 3.11372C191.793 3.11372 191.793 3.11372 191.831 3.11372C192.404 3.11372 192.938 3.26377 193.434 3.52638C193.931 3.78898 194.313 4.16413 194.58 4.65182C194.847 5.13951 195 5.66471 195 6.22743C195 7.95311 193.587 9.34115 191.831 9.34115C190.074 9.34115 188.662 7.95311 188.662 6.22743ZM166.897 17.5944V14.1805L163.881 13.7304C163.69 12.9801 163.385 12.2673 162.965 11.592L164.797 9.15357L162.354 6.75264L159.872 8.55334C159.184 8.17819 158.459 7.87808 157.695 7.65299L157.237 4.68933H153.762L153.304 7.65299C152.541 7.84056 151.815 8.14068 151.128 8.55334L148.646 6.75264L146.202 9.15357L148.035 11.592C147.653 12.2673 147.348 12.9801 147.119 13.7304L144.102 14.1805V17.5944L147.119 18.0445C147.31 18.7948 147.615 19.5076 148.035 20.1829L146.202 22.6213L148.646 25.0223L151.128 23.2216C151.815 23.5967 152.541 23.8968 153.304 24.1219L153.762 27.0856H157.237L157.695 24.1219C158.459 23.9344 159.184 23.6342 159.872 23.2216L162.354 25.0223L164.797 22.6213L162.965 20.1829C163.346 19.5076 163.652 18.7948 163.881 18.0445L166.897 17.5944ZM155.481 19.6202C153.381 19.6202 151.662 17.932 151.662 15.8687C151.662 13.8054 153.381 12.1172 155.481 12.1172C157.581 12.1172 159.299 13.8054 159.299 15.8687C159.299 17.932 157.619 19.6202 155.481 19.6202Z" fill="#929BB1"/>
</svg>
