<svg width="71" height="42" viewBox="0 0 71 42" fill="none" xmlns="http://www.w3.org/2000/svg">
<path d="M60.239 22.6812C61.2929 21.7442 62.014 20.3387 62.43 18.4371C62.5687 17.7757 62.6242 17.0592 62.6242 16.2875C62.6242 15.4607 62.43 14.5513 62.0972 13.6694C61.6812 12.5395 61.0988 11.9332 60.4054 11.7954C59.3793 11.6025 58.3531 12.1812 57.4101 13.5867C56.6336 14.6891 56.1343 15.819 55.8847 17.004C55.7461 17.6655 55.6906 18.382 55.6906 19.0985C55.6906 19.9253 55.8847 20.8347 56.2175 21.7166C56.6336 22.8466 57.216 23.4529 57.9093 23.5907C58.6304 23.756 59.407 23.4253 60.239 22.6812Z" fill="#929BB1"/>
<path d="M42.1563 22.6812C43.2102 21.7442 43.9313 20.3387 44.3473 18.4371C44.4859 17.7757 44.5691 17.0592 44.5414 16.2875C44.5414 15.4607 44.3473 14.5513 44.0145 13.6694C43.5984 12.5395 43.016 11.9332 42.3227 11.7954C41.2965 11.6025 40.2703 12.1812 39.3274 13.5867C38.5508 14.6891 38.0516 15.819 37.802 17.004C37.6633 17.6655 37.6078 18.382 37.6078 19.0985C37.6078 19.9253 37.802 20.8347 38.1348 21.7166C38.5508 22.8466 39.1332 23.4529 39.8266 23.5907C40.5477 23.756 41.3242 23.4253 42.1563 22.6812Z" fill="#929BB1"/>
<path fill-rule="evenodd" clip-rule="evenodd" d="M64.3992 0H6.60096C2.94003 0 -0.0275415 2.97638 0.000192828 6.58661V28.4961C0.000192828 32.1339 2.96776 35.0827 6.62869 35.0827H34.0024L46.5106 42L43.654 35.0827H64.3715C68.0324 35.0827 71 32.1339 71 28.4961V6.58661C71 2.94882 68.0324 0 64.3992 0ZM5.8798 5.12608C5.04777 5.1812 4.46535 5.45679 4.04933 6.00797C3.63332 6.50403 3.46691 7.16545 3.60558 7.90955C5.32511 18.6576 6.90596 25.9332 8.37588 29.6812C8.9583 31.0592 9.62392 31.7206 10.4005 31.6655C11.6208 31.5828 13.063 29.9292 14.7548 26.6773C15.6423 24.8308 17.029 22.0749 18.9149 18.4095C20.468 23.8111 22.6036 27.8899 25.2938 30.6182C26.0426 31.4174 26.8192 31.7481 27.568 31.693C28.2336 31.6379 28.7606 31.3072 29.0934 30.6733C29.3707 30.1221 29.4817 29.4883 29.4262 28.7718C29.2598 26.1812 29.5094 22.5434 30.2305 17.8584C30.9793 13.0355 31.8946 9.56309 33.0317 7.49616C33.2535 7.05522 33.3368 6.64183 33.309 6.11821C33.2535 5.45679 32.9762 4.93317 32.4215 4.49222C31.8668 4.05128 31.2567 3.85837 30.5911 3.91348C29.759 3.9686 29.1211 4.38199 28.6774 5.1812C26.9024 8.40561 25.6266 13.6694 24.8778 20.945C23.7962 18.1891 22.8532 14.9371 22.1598 11.1615C21.8548 9.48041 21.0782 8.6812 19.8024 8.76388C18.9426 8.819 18.2216 9.37018 17.6391 10.4725L11.3157 22.4332C10.2895 18.2718 9.29111 13.2009 8.40362 7.19301C8.18174 5.70482 7.34971 5.01585 5.8798 5.12608ZM61.4593 7.16545C63.4839 7.6064 65.0371 8.6812 66.0632 10.5001C66.9785 12.0434 67.4777 13.9174 67.4499 16.1221C67.4499 19.0985 66.7011 21.7993 65.2035 24.2521C63.4562 27.1182 61.2097 28.5513 58.4086 28.5513C57.9371 28.5513 57.4101 28.4962 56.8554 28.3859C54.8308 27.945 53.2777 26.8702 52.2515 25.0513C51.3363 23.4804 50.8648 21.5788 50.8648 19.3741C50.8648 16.4253 51.6137 13.7245 53.1113 11.2993C54.8863 8.43317 57.1328 7.0001 59.9062 7.0001C60.3777 7.0001 60.9046 7.05522 61.4593 7.16545ZM43.4043 7.16545C45.4012 7.6064 46.982 8.6812 48.0082 10.5001C48.9234 12.0434 49.3949 13.9174 49.4226 16.1221C49.4226 19.0985 48.6738 21.7993 47.1762 24.2521C45.4289 27.1182 43.1824 28.5513 40.3813 28.5513C39.9098 28.5513 39.3828 28.4962 38.8281 28.3859C36.7758 27.945 35.2227 26.8702 34.1965 25.0513C33.2813 23.4804 32.8098 21.5788 32.8098 19.3741C32.8098 16.4253 33.5586 13.7245 35.0563 11.2993C36.8313 8.43317 39.0778 7.0001 41.8512 7.0001C42.3227 7.0001 42.8496 7.05522 43.4043 7.16545Z" fill="#929BB1"/>
</svg>
