<svg width="531" height="480" viewBox="0 0 531 480" fill="none" xmlns="http://www.w3.org/2000/svg">
<g filter="url(#filter0_i_1377_691)">
<path d="M469.51 75.2794L160.69 56.6369C155.637 56.3756 150.846 57.0725 146.403 58.5534C141.96 60.1215 137.953 62.4736 134.642 65.5226C131.245 68.5716 128.544 72.3175 126.628 76.499C124.711 80.6805 123.666 85.3847 123.666 90.3502V325.907C123.666 330.873 124.711 335.577 126.628 339.759C128.544 343.94 131.245 347.686 134.642 350.735C138.04 353.784 141.96 356.136 146.403 357.704C150.846 359.272 155.637 359.969 160.69 359.621L469.51 340.978C473.343 340.717 477.002 339.671 480.399 337.929C483.71 336.187 486.671 333.748 489.198 330.786C491.724 327.824 493.728 324.426 495.122 320.681C496.515 316.935 497.299 312.84 497.299 308.659V107.599C497.299 103.33 496.515 99.323 495.122 95.577C493.728 91.8311 491.724 88.4337 489.198 85.4718C486.671 82.5099 483.71 80.0707 480.399 78.3284C477.002 76.5861 473.343 75.5407 469.51 75.2794Z" fill="white"/>
</g>
<path d="M286.047 162.481L178.287 160.39C174.802 160.303 171.492 160.913 168.53 162.133C165.481 163.352 162.78 165.094 160.515 167.272C158.25 169.45 156.334 172.151 155.027 175.025C153.72 177.987 153.023 181.211 153.023 184.608V306.22C153.023 309.617 153.72 312.84 155.027 315.802C156.334 318.677 158.163 321.29 160.515 323.381C162.78 325.472 165.568 327.214 168.53 328.26C171.579 329.392 174.889 329.915 178.287 329.741L286.047 324.514C289.183 324.339 292.232 323.555 294.933 322.249C297.633 320.942 300.072 319.113 302.163 316.935C304.167 314.757 305.822 312.143 307.042 309.356C308.174 306.568 308.784 303.432 308.784 300.209V186.176C308.784 182.953 308.174 179.904 307.042 177.116C305.909 174.329 304.254 171.802 302.163 169.624C300.072 167.447 297.633 165.704 294.933 164.485C292.232 163.265 289.183 162.568 286.047 162.481Z" fill="url(#paint0_linear_1377_691)"/>
<path d="M425.43 202.728L351.731 202.553C350.338 202.553 348.944 202.815 347.724 203.425C346.505 203.947 345.372 204.731 344.414 205.69C343.456 206.648 342.759 207.867 342.236 209.087C341.713 210.394 341.452 211.788 341.452 213.269C341.452 214.749 341.713 216.143 342.236 217.45C342.759 218.757 343.543 219.889 344.414 220.847C345.372 221.806 346.417 222.59 347.724 223.112C348.944 223.635 350.338 223.984 351.731 223.896L425.43 223.374C426.737 223.374 428.044 223.025 429.176 222.503C430.309 221.98 431.354 221.196 432.225 220.238C433.096 219.279 433.793 218.147 434.229 216.927C434.751 215.708 435.013 214.314 435.013 212.92C435.013 211.526 434.751 210.132 434.229 208.913C433.706 207.693 433.009 206.561 432.225 205.602C431.354 204.644 430.309 203.86 429.176 203.338C428.044 202.989 426.737 202.728 425.43 202.728ZM466.2 165.965L351.731 163.788C350.338 163.788 348.944 164.049 347.724 164.572C346.505 165.094 345.372 165.878 344.414 166.837C343.456 167.795 342.759 168.927 342.236 170.234C341.713 171.541 341.452 172.935 341.452 174.416C341.452 175.896 341.713 177.377 342.236 178.597C342.759 179.904 343.543 181.036 344.414 182.082C345.372 183.04 346.417 183.911 347.724 184.434C348.944 184.956 350.338 185.305 351.731 185.305L466.2 186.437C467.506 186.437 468.726 186.176 469.771 185.653C470.904 185.131 471.862 184.434 472.733 183.475C473.604 182.604 474.214 181.472 474.737 180.252C475.172 179.033 475.434 177.726 475.434 176.332C475.434 174.938 475.172 173.544 474.737 172.325C474.301 171.105 473.604 169.973 472.733 169.014C471.862 168.056 470.904 167.272 469.771 166.749C468.639 166.314 467.419 165.965 466.2 165.965Z" fill="#E8F0FF"/>
<path d="M454.613 270.241L364.363 272.768C361.227 272.855 358.265 273.639 355.477 274.946C352.776 276.252 350.25 278.082 348.159 280.347C346.069 282.612 344.414 285.225 343.194 288.187C342.061 291.149 341.365 294.372 341.365 297.682C341.365 300.993 341.974 304.216 343.194 307.004C344.326 309.878 346.069 312.405 348.159 314.495C350.25 316.586 352.689 318.241 355.477 319.287C358.178 320.332 361.227 320.942 364.363 320.768L454.613 316.325C457.488 316.151 460.276 315.367 462.715 314.147C465.241 312.84 467.419 311.098 469.335 308.92C471.165 306.742 472.733 304.216 473.778 301.428C474.824 298.641 475.433 295.592 475.433 292.456C475.433 289.319 474.824 286.358 473.778 283.657C472.733 280.956 471.252 278.517 469.335 276.514C467.506 274.51 465.241 272.855 462.715 271.809C460.276 270.764 457.488 270.154 454.613 270.241Z" fill="url(#paint1_linear_1377_691)"/>
<path d="M454.614 99.9329L179.681 86.5173C176.022 86.3431 172.537 86.8657 169.314 88.0853C166.091 89.2178 163.216 91.0472 160.777 93.3122C158.338 95.5772 156.334 98.2777 155.027 101.327C153.633 104.376 152.937 107.773 152.937 111.432C152.937 115.091 153.721 118.488 155.027 121.711C156.421 124.848 158.338 127.81 160.777 130.249C163.216 132.688 166.091 134.692 169.314 136.085C172.537 137.479 176.022 138.35 179.681 138.437L454.614 146.191C457.488 146.278 460.276 145.668 462.715 144.623C465.241 143.577 467.419 141.922 469.336 139.918C471.165 137.915 472.733 135.476 473.779 132.775C474.824 130.074 475.434 127.113 475.434 123.976C475.434 120.84 474.824 117.791 473.779 115.004C472.733 112.216 471.252 109.69 469.336 107.512C467.506 105.334 465.241 103.592 462.715 102.285C460.276 100.804 457.488 100.02 454.614 99.9329Z" fill="#CDD8F7"/>
<path d="M183.513 117.269C182.555 117.269 181.597 117.007 180.813 116.659C179.942 116.31 179.245 115.788 178.548 115.091C177.938 114.481 177.415 113.697 177.067 112.826C176.718 111.955 176.544 111.084 176.544 110.125C176.544 109.167 176.718 108.296 177.067 107.425C177.415 106.641 177.938 105.857 178.548 105.247C179.158 104.637 179.942 104.201 180.813 103.853C181.684 103.505 182.555 103.417 183.513 103.417C184.472 103.417 185.43 103.679 186.214 104.114C187.085 104.463 187.782 105.073 188.392 105.682C189.002 106.292 189.524 107.076 189.873 107.947C190.221 108.819 190.395 109.69 190.395 110.648C190.395 111.606 190.221 112.477 189.873 113.261C189.524 114.045 189.002 114.829 188.392 115.352C187.782 115.962 186.998 116.398 186.127 116.746C185.43 117.094 184.559 117.269 183.513 117.269ZM183.513 98.2777C183.252 98.2777 182.991 98.2777 182.642 98.2777C182.381 98.2777 182.119 98.2777 181.771 98.3648C181.51 98.3648 181.248 98.4519 180.9 98.4519C180.639 98.5391 180.377 98.5391 180.029 98.6262C178.635 98.9746 177.415 99.4973 176.283 100.194C175.15 100.891 174.192 101.849 173.408 102.895C172.624 103.94 172.014 105.16 171.579 106.466C171.143 107.773 170.969 109.254 171.056 110.735C171.056 110.909 171.056 111.171 171.143 111.432C171.143 111.693 171.23 111.955 171.23 112.216C171.317 112.477 171.317 112.826 171.404 113.087C171.492 113.348 171.579 113.697 171.666 114.045C172.101 115.352 172.798 116.485 173.495 117.53C174.279 118.575 175.237 119.447 176.196 120.143C177.241 120.84 178.374 121.45 179.506 121.886C180.726 122.321 181.945 122.496 183.165 122.583C183.6 122.583 183.949 122.583 184.384 122.583C184.82 122.583 185.168 122.496 185.604 122.408C186.04 122.321 186.388 122.234 186.824 122.147C187.259 122.06 187.608 121.886 188.043 121.711C188.13 121.711 188.13 121.711 188.13 121.624C188.13 121.537 188.217 121.624 188.217 121.624H188.305H188.392H188.479C188.479 121.624 188.566 121.624 188.566 121.711L188.653 121.799L188.74 121.886C189.089 122.234 189.437 122.583 189.786 122.931C190.134 123.28 190.482 123.628 190.831 123.976C191.179 124.325 191.528 124.673 191.876 125.022C192.225 125.37 192.573 125.719 192.922 126.067C193.096 126.241 193.357 126.503 193.619 126.59C193.88 126.764 194.141 126.851 194.316 127.025C194.577 127.113 194.838 127.2 195.1 127.287C195.361 127.374 195.622 127.374 195.884 127.374C196.232 127.374 196.58 127.374 196.929 127.287C197.277 127.2 197.626 127.113 197.887 126.938C198.236 126.764 198.497 126.59 198.758 126.329C199.02 126.067 199.281 125.806 199.455 125.457C199.629 125.109 199.804 124.673 199.891 124.238C199.978 123.802 199.978 123.367 199.891 123.018C199.804 122.583 199.717 122.147 199.542 121.799C199.368 121.363 199.107 121.015 198.758 120.666C198.41 120.318 198.061 119.969 197.713 119.621C197.364 119.272 197.016 118.924 196.668 118.575C196.319 118.227 195.971 117.878 195.622 117.53C195.274 117.182 194.925 116.833 194.577 116.485C194.49 116.398 194.49 116.398 194.403 116.31C194.403 116.223 194.316 116.223 194.316 116.136C194.316 116.049 194.316 116.049 194.316 115.962C194.316 115.875 194.315 115.788 194.403 115.788C194.664 115.265 194.838 114.655 195.012 114.045C195.187 113.436 195.274 112.913 195.361 112.303C195.448 111.693 195.448 111.084 195.448 110.474C195.448 109.864 195.361 109.254 195.187 108.644C194.925 107.163 194.315 105.857 193.619 104.637C192.922 103.417 191.963 102.372 190.918 101.501C189.873 100.63 188.653 99.8458 187.346 99.3231C186.388 98.6262 184.994 98.3648 183.513 98.2777Z" fill="url(#paint2_linear_1377_691)"/>
<g filter="url(#filter1_i_1377_691)">
<path d="M29.1341 310.824L15.1958 309.43C20.1613 261.256 27.1305 225.452 36.4517 199.84C45.3374 175.535 56.488 160.552 70.5134 153.844C96.7348 141.387 125.57 160.29 156.147 180.414C182.368 197.663 209.461 215.434 233.679 211.775C257.287 208.203 284.031 183.463 313.301 138.076C337.867 99.9202 357.904 56.7986 368.619 33.5391C371.842 26.5699 374.194 21.6044 375.762 18.5554L388.132 25.0019C386.651 27.7895 384.299 32.9293 381.25 39.4629C370.361 62.9837 350.063 106.715 324.974 145.655C293.439 194.526 263.472 221.445 235.769 225.539C206.238 229.982 176.88 210.643 148.568 192C121.388 174.142 95.7766 157.329 76.6114 166.388C53.439 177.365 37.9326 224.668 29.1341 310.824Z" fill="white"/>
</g>
<path d="M22.1651 325.808C34.193 325.808 43.9437 316.057 43.9437 304.029C43.9437 292.001 34.193 282.25 22.1651 282.25C10.1371 282.25 0.386475 292.001 0.386475 304.029C0.386475 316.057 10.1371 325.808 22.1651 325.808Z" fill="url(#paint3_radial_1377_691)"/>
<path d="M235.779 237.557C247.807 237.557 257.557 227.807 257.557 215.779C257.557 203.751 247.807 194 235.779 194C223.751 194 214 203.751 214 215.779C214 227.807 223.751 237.557 235.779 237.557Z" fill="url(#paint4_radial_1377_691)"/>
<path d="M381.779 43.5572C393.807 43.5572 403.557 33.8066 403.557 21.7786C403.557 9.75061 393.807 0 381.779 0C369.751 0 360 9.75061 360 21.7786C360 33.8066 369.751 43.5572 381.779 43.5572Z" fill="url(#paint5_radial_1377_691)"/>
<path d="M247.617 461.88L249.882 298.541L278.543 316.661L276.278 480L247.617 461.88Z" fill="#CDD8F7"/>
<path d="M276.278 480L278.543 316.661L340.22 309.169L337.955 472.595L276.278 480Z" fill="url(#paint6_linear_1377_691)"/>
<path d="M340.22 309.169L278.543 316.66L249.882 298.541L311.646 291.136L340.22 309.169Z" fill="url(#paint7_linear_1377_691)"/>
<path d="M342.572 448.813L344.837 337.742L373.497 355.862L371.232 466.933L342.572 448.813Z" fill="#7A43EE"/>
<path d="M371.232 466.933L373.497 355.862L435.174 348.37L432.909 459.528L371.232 466.933Z" fill="url(#paint8_linear_1377_691)"/>
<path d="M435.175 348.37L373.498 355.862L344.837 337.742L406.601 330.337L435.175 348.37Z" fill="url(#paint9_linear_1377_691)"/>
<path d="M438.397 436.617L440.662 384.784L469.323 402.904L467.058 454.737L438.397 436.617Z" fill="#FB7354"/>
<path d="M467.058 454.737L469.323 402.904L531 395.412L528.735 447.332L467.058 454.737Z" fill="url(#paint10_linear_1377_691)"/>
<path d="M531 395.412L469.323 402.904L440.663 384.784L502.427 377.379L531 395.412Z" fill="url(#paint11_linear_1377_691)"/>
<defs>
<filter id="filter0_i_1377_691" x="123.666" y="50.583" width="379.634" height="309.125" filterUnits="userSpaceOnUse" color-interpolation-filters="sRGB">
<feFlood flood-opacity="0" result="BackgroundImageFix"/>
<feBlend mode="normal" in="SourceGraphic" in2="BackgroundImageFix" result="shape"/>
<feColorMatrix in="SourceAlpha" type="matrix" values="0 0 0 0 0 0 0 0 0 0 0 0 0 0 0 0 0 0 127 0" result="hardAlpha"/>
<feOffset dx="6" dy="-6"/>
<feGaussianBlur stdDeviation="3.5"/>
<feComposite in2="hardAlpha" operator="arithmetic" k2="-1" k3="1"/>
<feColorMatrix type="matrix" values="0 0 0 0 0.803922 0 0 0 0 0.847059 0 0 0 0 0.968627 0 0 0 1 0"/>
<feBlend mode="normal" in2="shape" result="effect1_innerShadow_1377_691"/>
</filter>
<filter id="filter1_i_1377_691" x="15.1958" y="12.5554" width="378.937" height="298.269" filterUnits="userSpaceOnUse" color-interpolation-filters="sRGB">
<feFlood flood-opacity="0" result="BackgroundImageFix"/>
<feBlend mode="normal" in="SourceGraphic" in2="BackgroundImageFix" result="shape"/>
<feColorMatrix in="SourceAlpha" type="matrix" values="0 0 0 0 0 0 0 0 0 0 0 0 0 0 0 0 0 0 127 0" result="hardAlpha"/>
<feOffset dx="6" dy="-6"/>
<feGaussianBlur stdDeviation="3.5"/>
<feComposite in2="hardAlpha" operator="arithmetic" k2="-1" k3="1"/>
<feColorMatrix type="matrix" values="0 0 0 0 0.803922 0 0 0 0 0.847059 0 0 0 0 0.968627 0 0 0 1 0"/>
<feBlend mode="normal" in2="shape" result="effect1_innerShadow_1377_691"/>
</filter>
<linearGradient id="paint0_linear_1377_691" x1="209" y1="306" x2="246.662" y2="169.38" gradientUnits="userSpaceOnUse">
<stop stop-color="#7A43EE"/>
<stop offset="1" stop-color="#B565E6"/>
</linearGradient>
<linearGradient id="paint1_linear_1377_691" x1="475.433" y1="295.515" x2="341.365" y2="295.515" gradientUnits="userSpaceOnUse">
<stop stop-color="#F8BA55"/>
<stop offset="1" stop-color="#FB7354"/>
</linearGradient>
<linearGradient id="paint2_linear_1377_691" x1="186.094" y1="121.749" x2="194.17" y2="96.1602" gradientUnits="userSpaceOnUse">
<stop stop-color="#7A43EE"/>
<stop offset="1" stop-color="#B565E6"/>
</linearGradient>
<radialGradient id="paint3_radial_1377_691" cx="0" cy="0" r="1" gradientUnits="userSpaceOnUse" gradientTransform="translate(24.5 297) rotate(-151.504) scale(19.9123 24.0567)">
<stop stop-color="#F8BA55"/>
<stop offset="1" stop-color="#FB7354"/>
</radialGradient>
<radialGradient id="paint4_radial_1377_691" cx="0" cy="0" r="1" gradientUnits="userSpaceOnUse" gradientTransform="translate(238.114 208.75) rotate(-151.504) scale(19.9123 24.0567)">
<stop stop-color="#F8BA55"/>
<stop offset="1" stop-color="#FB7354"/>
</radialGradient>
<radialGradient id="paint5_radial_1377_691" cx="0" cy="0" r="1" gradientUnits="userSpaceOnUse" gradientTransform="translate(384.114 14.7495) rotate(-151.504) scale(19.9123 24.0567)">
<stop stop-color="#F8BA55"/>
<stop offset="1" stop-color="#FB7354"/>
</radialGradient>
<linearGradient id="paint6_linear_1377_691" x1="289" y1="499" x2="325.5" y2="320.5" gradientUnits="userSpaceOnUse">
<stop stop-color="#CDD8F7"/>
<stop offset="1" stop-color="white"/>
</linearGradient>
<linearGradient id="paint7_linear_1377_691" x1="275.5" y1="291" x2="303.5" y2="317" gradientUnits="userSpaceOnUse">
<stop stop-color="white"/>
<stop offset="1" stop-color="#E8F0FF"/>
</linearGradient>
<linearGradient id="paint8_linear_1377_691" x1="385" y1="464" x2="359.945" y2="384.254" gradientUnits="userSpaceOnUse">
<stop stop-color="#7A43EE"/>
<stop offset="1" stop-color="#B565E6"/>
</linearGradient>
<linearGradient id="paint9_linear_1377_691" x1="391.877" y1="350.928" x2="387.368" y2="327.74" gradientUnits="userSpaceOnUse">
<stop stop-color="#7A43EE"/>
<stop offset="1" stop-color="#B565E6"/>
</linearGradient>
<linearGradient id="paint10_linear_1377_691" x1="520.5" y1="401" x2="470.5" y2="450" gradientUnits="userSpaceOnUse">
<stop stop-color="#F8BA55"/>
<stop offset="1" stop-color="#FB7354"/>
</linearGradient>
<linearGradient id="paint11_linear_1377_691" x1="481" y1="374" x2="483.5" y2="408" gradientUnits="userSpaceOnUse">
<stop stop-color="#F8BA55"/>
<stop offset="1" stop-color="#FB7354"/>
</linearGradient>
</defs>
</svg>
