<svg width="541" height="417" viewBox="0 0 541 417" fill="none" xmlns="http://www.w3.org/2000/svg">
<g filter="url(#filter0_i_30_170)">
<path d="M361.415 94.5738C361.415 109.18 349.575 121.02 334.969 121.02C334.223 121.02 333.484 120.989 332.753 120.928C331.072 131.42 321.98 139.435 311.015 139.435C298.857 139.435 289 129.579 289 117.42C289 106.098 297.547 96.7719 308.54 95.542C308.529 95.2207 308.523 94.8979 308.523 94.5738C308.523 79.968 320.363 68.1277 334.969 68.1277C349.575 68.1277 361.415 79.968 361.415 94.5738Z" fill="white"/>
<path d="M442.138 135.558C459.727 135.558 473.985 121.3 473.985 103.712C473.985 86.1241 459.727 71.8661 442.138 71.8661C424.55 71.8661 410.292 86.1241 410.292 103.712C410.292 121.3 424.55 135.558 442.138 135.558Z" fill="white"/>
</g>
<g filter="url(#filter1_i_30_170)">
<path d="M391.6 148.02C416.453 148.02 436.6 127.873 436.6 103.02C436.6 78.167 416.453 58.0198 391.6 58.0198C366.747 58.0198 346.6 78.167 346.6 103.02C346.6 127.873 366.747 148.02 391.6 148.02Z" fill="white"/>
</g>
<g filter="url(#filter2_i_30_170)">
<path d="M346.6 143.589C358.759 143.589 368.615 133.733 368.615 121.574C368.615 109.415 358.759 99.5583 346.6 99.5583C334.441 99.5583 324.585 109.415 324.585 121.574C324.585 133.733 334.441 143.589 346.6 143.589Z" fill="white"/>
</g>
<g filter="url(#filter3_i_30_170)">
<path d="M0.999756 30.7085L4.29052 230.716C4.36531 234.822 5.26279 238.705 6.83338 242.139C8.40398 245.573 10.5729 248.559 13.3401 251.023C16.0326 253.412 19.2485 255.279 22.7637 256.473C26.2788 257.593 30.0931 258.041 34.1318 257.668L280.864 232.433C284.006 232.135 286.922 231.09 289.615 229.522C292.307 227.954 294.701 225.789 296.795 223.251C298.814 220.712 300.459 217.801 301.656 214.59C302.853 211.38 303.451 207.946 303.526 204.362L305.994 37.1291L13.5645 30.4099L0.999756 30.7085Z" fill="url(#paint0_linear_30_170)"/>
</g>
<path d="M283.482 4.72789L30.6166 0.0244578C26.5032 -0.0501998 22.6141 0.771034 19.0241 2.26419C15.4342 3.75734 12.2182 5.99707 9.52581 8.7594C6.83336 11.5217 4.66445 14.8813 3.16865 18.6142C1.67285 22.3471 0.924945 26.4533 0.999735 30.7087L1.2989 47.88L305.769 46.6855L305.994 31.9033C306.069 28.245 305.47 24.6615 304.348 21.4512C303.227 18.2409 301.656 15.3293 299.637 12.8656C297.617 10.4019 295.149 8.38611 292.457 6.96762C289.615 5.54912 286.623 4.72789 283.482 4.72789Z" fill="url(#paint1_linear_30_170)"/>
<path d="M285.052 18.7636C285.95 18.7636 286.847 18.9875 287.595 19.4355C288.343 19.8088 289.091 20.406 289.615 21.078C290.213 21.7499 290.662 22.6458 290.961 23.5417C291.26 24.4375 291.484 25.4828 291.409 26.528C291.409 27.5732 291.185 28.6184 290.886 29.5143C290.512 30.4102 290.063 31.2314 289.465 31.978C288.867 32.6499 288.194 33.2471 287.371 33.6204C286.548 33.9937 285.725 34.2177 284.828 34.2177C283.93 34.2177 283.033 33.9937 282.285 33.6204C281.537 33.2471 280.789 32.6499 280.191 31.978C279.593 31.3061 279.144 30.4102 278.77 29.5143C278.471 28.6184 278.246 27.5732 278.246 26.528C278.246 25.4828 278.471 24.4375 278.77 23.5417C279.144 22.6458 279.593 21.8245 280.191 21.078C280.789 20.406 281.537 19.8088 282.285 19.4355C283.332 18.9875 284.155 18.7636 285.052 18.7636ZM262.017 18.5396C261.119 18.5396 260.222 18.7636 259.399 19.1369C258.577 19.5101 257.829 20.1074 257.23 20.7793C256.632 21.4512 256.109 22.3471 255.735 23.243C255.361 24.2136 255.211 25.1841 255.211 26.304C255.211 27.4239 255.361 28.3944 255.735 29.365C256.034 30.3355 256.557 31.1567 257.156 31.8287C257.754 32.5752 258.502 33.0978 259.25 33.5458C260.072 33.9191 260.895 34.143 261.867 34.143C262.765 34.143 263.662 33.9191 264.485 33.5458C265.308 33.1725 265.981 32.5752 266.654 31.9033C267.252 31.2314 267.776 30.3355 268.075 29.4396C268.449 28.5437 268.598 27.4985 268.598 26.3786C268.598 25.3334 268.449 24.2882 268.075 23.3177C267.776 22.3471 267.252 21.5259 266.654 20.854C266.056 20.1074 265.308 19.5848 264.56 19.1369C263.812 18.7636 262.914 18.5396 262.017 18.5396ZM238.383 18.241C237.411 18.241 236.514 18.4649 235.691 18.8382C234.868 19.2115 234.12 19.8088 233.447 20.4807C232.849 21.2273 232.325 22.0485 231.951 23.0191C231.577 23.9896 231.428 25.0348 231.353 26.08C231.353 27.1999 231.503 28.2451 231.877 29.141C232.251 30.1115 232.699 30.9328 233.372 31.6793C233.971 32.4259 234.719 32.9485 235.541 33.3965C236.364 33.7698 237.261 33.9937 238.234 33.9937C239.206 33.9937 240.103 33.7698 240.926 33.3965C241.749 33.0232 242.497 32.4259 243.095 31.6793C243.693 30.9328 244.217 30.1115 244.591 29.2156C244.965 28.2451 245.114 27.2745 245.114 26.1547C245.114 25.0348 244.965 24.0643 244.591 23.0937C244.217 22.1232 243.768 21.3019 243.17 20.5554C242.572 19.8088 241.824 19.2115 241.001 18.8382C240.178 18.5396 239.281 18.241 238.383 18.241Z" fill="#7A43EE"/>
<path d="M163.756 83.0923C163.044 83.3198 162.354 83.6185 161.616 84.011C160.949 84.3808 160.305 84.8217 159.66 85.2625C159.039 85.7745 158.417 86.2865 157.89 86.8469C157.291 87.43 156.786 88.0615 156.303 88.7641L111.742 154.016C111.642 154.439 111.519 154.792 111.49 155.193C111.39 155.617 111.267 155.97 111.167 156.394C111.067 156.817 110.944 157.17 110.843 157.594C110.743 158.018 110.62 158.371 110.52 158.795C109.948 160.937 109.327 163.172 108.516 165.548C107.775 167.9 106.915 170.369 105.961 172.79C105.078 175.188 104.053 177.632 103.076 179.981C102.099 182.331 101.077 184.538 100.057 186.51L162.687 94.2491C162.953 93.8509 163.17 93.5465 163.48 93.2905C163.768 92.9634 164.008 92.7302 164.342 92.5453C164.652 92.2893 164.915 92.1272 165.248 91.9423C165.582 91.7574 165.867 91.6664 166.2 91.4815C166.628 91.345 167.055 91.2085 167.505 91.1431C167.955 91.0777 168.334 91.035 168.807 91.0408C169.209 91.0692 169.611 91.0977 170.035 91.1973C170.459 91.2969 170.812 91.4192 171.166 91.5416C171.447 91.6867 171.894 91.8574 172.293 92.122C172.763 92.3638 173.207 92.7706 173.651 93.1775C174.117 93.6554 174.536 94.2272 174.834 94.9156C175.132 95.6041 175.311 96.4091 175.392 97.402L178.28 194.21C178.307 195.769 178.57 197.331 179.002 198.682C179.456 200.104 180.03 201.41 180.818 202.648C181.605 203.885 182.562 204.912 183.637 205.822C184.713 206.733 185.98 207.504 187.25 208.039C188.167 208.451 189.11 208.699 190.052 208.946C190.972 209.123 191.941 209.205 192.887 209.217C193.832 209.228 194.804 209.075 195.704 208.944C196.653 208.719 197.508 208.446 198.412 208.079C198.959 207.826 199.506 207.573 200.031 207.249C200.555 206.925 201.08 206.6 201.604 206.276C202.106 205.881 202.608 205.485 203.039 205.113C203.518 204.646 203.925 204.202 204.405 203.736L204.573 203.525L247.19 142.265C246.626 141.975 246.04 141.613 245.476 141.323C244.912 141.033 244.326 140.672 243.762 140.382C243.198 140.091 242.612 139.73 242.048 139.44C241.484 139.15 240.898 138.788 240.312 138.427L198.785 197.693C198.545 197.927 198.306 198.16 198.066 198.393C197.827 198.626 197.564 198.788 197.373 198.928C197.111 199.09 196.849 199.252 196.658 199.391C196.396 199.554 196.182 199.622 195.919 199.784C195.443 200.014 194.851 200.125 194.352 200.285C193.831 200.373 193.358 200.367 192.814 200.384C192.341 200.378 191.845 200.301 191.421 200.202C190.996 200.102 190.549 199.932 190.196 199.809C189.914 199.664 189.539 199.471 189.14 199.206C188.741 198.941 188.297 198.535 187.853 198.128C187.458 197.627 187.04 197.055 186.742 196.367C186.443 195.678 186.265 194.873 186.254 193.858L183.454 97.5703C183.405 95.9403 183.142 94.3786 182.665 92.8851C182.188 91.3916 181.52 90.0375 180.661 88.8227C179.802 87.608 178.823 86.5098 177.653 85.5511C176.483 84.5924 175.145 83.8441 173.71 83.2836C172.887 82.9194 172.038 82.7202 171.19 82.521C170.341 82.3219 169.466 82.2877 168.663 82.2307C167.789 82.1965 166.959 82.3046 166.13 82.4126C165.324 82.5918 164.54 82.842 163.756 83.0923Z" fill="#CDD8F7"/>
<path d="M84.7647 160.44C82.4462 160.515 80.2025 160.142 78.1832 159.32C76.1638 158.499 74.2941 157.23 72.7235 155.737C71.1529 154.169 69.8815 152.303 68.984 150.137C68.0865 148.047 67.563 145.658 67.563 143.194C67.563 140.731 68.0117 138.342 68.8344 136.176C69.6571 134.011 70.9285 131.996 72.4243 130.353C73.9201 128.711 75.7899 127.292 77.8092 126.322C79.8286 125.351 82.0723 124.829 84.3908 124.754C86.7092 124.679 88.953 125.127 90.9723 126.023C92.9916 126.844 94.7866 128.113 96.2824 129.681C97.7782 131.249 99.0496 133.116 99.8723 135.281C100.695 137.371 101.219 139.685 101.219 142.149C101.219 144.613 100.77 146.927 99.9471 149.092C99.1244 151.257 97.9278 153.198 96.432 154.841C94.9362 156.483 93.1412 157.902 91.1967 158.872C89.3269 159.694 87.0832 160.291 84.7647 160.44C84.7647 160.366 84.7647 160.366 84.7647 160.44C84.7647 160.366 84.7647 160.366 84.7647 160.44C84.7647 160.366 84.7647 160.366 84.7647 160.44ZM84.2412 102.282C83.7176 102.282 83.1941 102.282 82.6706 102.357C82.1471 102.357 81.6235 102.431 81.1 102.506C80.5765 102.581 80.0529 102.655 79.5294 102.73C79.0059 102.805 78.4823 102.879 77.9588 102.954C73.5462 103.775 69.2832 105.418 65.5437 107.807C61.7294 110.196 58.289 113.182 55.447 116.766C52.5302 120.349 50.2117 124.381 48.6411 128.711C46.9957 133.116 46.0982 137.744 46.0234 142.522C46.0234 145.135 46.173 147.674 46.4722 150.212C46.7713 152.75 47.2949 155.14 47.968 157.603C48.6411 159.992 49.389 162.381 50.2865 164.696C51.184 167.01 52.231 169.25 53.3529 171.49C54.6991 174.177 56.1949 176.865 57.7655 179.403C59.3361 181.942 60.9815 184.405 62.7016 186.794C64.4218 189.183 66.2916 191.498 68.1613 193.663C70.0311 195.903 72.0504 198.068 74.0697 200.158C74.9672 201.054 75.8647 201.95 76.7622 202.846C77.6597 203.742 78.5571 204.638 79.5294 205.459C80.4269 206.355 81.3992 207.176 82.2966 208.072C83.1941 208.968 84.1664 209.789 85.0639 210.685C85.363 210.386 85.737 210.088 86.1109 209.789C86.4849 209.49 86.784 209.117 87.158 208.818C87.5319 208.445 87.9059 208.146 88.2798 207.773C88.6538 207.4 89.0277 207.027 89.4017 206.653C90.9723 205.011 92.6177 203.219 94.2631 201.353C95.9084 199.412 97.5538 197.47 99.1992 195.38C100.77 193.364 102.34 191.274 103.836 189.258C105.257 187.242 106.603 185.301 107.8 183.435C108.024 183.061 108.249 182.763 108.473 182.39C108.698 182.016 108.922 181.718 109.146 181.344C109.371 180.971 109.595 180.672 109.819 180.299C110.044 179.926 110.268 179.627 110.418 179.254C111.465 177.462 112.437 175.745 113.335 173.879C114.232 172.087 115.129 170.22 115.952 168.429C116.775 166.562 117.523 164.696 118.196 162.755C118.869 160.814 119.467 158.872 120.066 156.931C120.589 154.99 121.038 153.049 121.412 151.108C121.786 149.167 122.01 147.226 122.16 145.285C122.309 143.344 122.309 141.403 122.235 139.461C122.085 137.52 121.861 135.579 121.487 133.563C120.514 128.86 118.869 124.605 116.625 120.797C114.382 116.989 111.54 113.705 108.324 110.942C105.033 108.18 101.368 106.089 97.3294 104.596C92.9916 102.954 88.7286 102.207 84.2412 102.282Z" fill="url(#paint2_linear_30_170)"/>
<path d="M243.993 111.671C242.422 111.745 241.001 111.447 239.655 110.924C238.309 110.327 237.112 109.505 236.14 108.386C235.168 107.266 234.345 105.922 233.747 104.429C233.223 102.936 232.849 101.293 232.924 99.5013C232.924 97.7096 233.298 95.9924 233.821 94.4993C234.42 92.9315 235.242 91.513 236.29 90.3185C237.337 89.1239 238.533 88.1534 239.879 87.4068C241.226 86.7349 242.721 86.2869 244.217 86.2123C245.788 86.1376 247.209 86.4363 248.555 87.0335C249.901 87.6308 251.098 88.5267 252.07 89.6465C253.042 90.7664 253.865 92.1102 254.389 93.6034C254.912 95.0965 255.211 96.739 255.211 98.5308C255.211 100.248 254.837 101.965 254.314 103.458C253.716 105.026 252.893 106.37 251.921 107.564C250.948 108.759 249.752 109.729 248.405 110.476C246.984 111.148 245.563 111.596 243.993 111.671ZM244.292 70.2356C243.918 70.2356 243.619 70.2356 243.245 70.3102C242.871 70.3102 242.572 70.3849 242.198 70.3849C241.824 70.4595 241.525 70.4595 241.151 70.5342C240.777 70.6088 240.478 70.6835 240.104 70.7582C237.187 71.3554 234.42 72.6246 231.877 74.3417C229.334 76.0588 227.09 78.2239 225.146 80.7623C223.201 83.3006 221.631 86.2123 220.584 89.3479C219.462 92.4835 218.863 95.7685 218.714 99.2027C218.639 101.069 218.714 102.861 218.938 104.653C219.163 106.445 219.462 108.162 219.836 109.879C220.21 111.596 220.733 113.238 221.257 114.881C221.855 116.523 222.453 118.166 223.201 119.734C224.024 121.675 224.996 123.541 225.968 125.333C226.941 127.125 227.988 128.916 229.11 130.559C230.232 132.276 231.428 133.844 232.625 135.486C233.821 137.054 235.093 138.622 236.439 140.115C236.514 140.19 236.589 140.264 236.663 140.339C236.738 140.414 236.813 140.488 236.888 140.563C236.963 140.638 237.037 140.712 237.112 140.787C237.187 140.862 237.262 140.936 237.337 141.011C237.785 141.534 238.234 141.982 238.683 142.504C239.132 142.952 239.58 143.475 240.029 143.923C240.478 144.371 240.926 144.893 241.375 145.341C241.824 145.789 242.273 146.312 242.721 146.76C242.796 146.834 242.871 146.909 242.946 146.984C243.021 147.058 243.095 147.133 243.17 147.208C243.245 147.282 243.32 147.357 243.395 147.432C243.469 147.506 243.544 147.581 243.619 147.656C244.741 146.61 246.012 145.266 247.358 143.699C248.705 142.206 250.126 140.488 251.472 138.697C252.818 136.905 254.239 135.038 255.436 133.247C256.707 131.455 257.829 129.663 258.876 128.021C259.774 126.527 260.596 125.034 261.419 123.466C262.242 121.899 262.99 120.405 263.737 118.763C264.485 117.195 265.084 115.553 265.682 113.91C266.28 112.268 266.804 110.551 267.253 108.834C267.627 107.415 267.926 106.071 268.225 104.653C268.449 103.234 268.674 101.89 268.748 100.472C268.823 99.0534 268.898 97.7096 268.823 96.2911C268.748 94.8726 268.599 93.4541 268.374 92.1102C267.776 88.7506 266.729 85.6897 265.308 83.002C263.887 80.3143 262.017 77.9253 259.923 76.0588C257.754 74.1178 255.361 72.6246 252.743 71.6541C250.051 70.6835 247.209 70.1609 244.292 70.2356Z" fill="url(#paint3_linear_30_170)"/>
<path d="M392.668 383.962L450.859 381.567L434.746 343.843L397.272 346.054L387.236 362.452L392.668 383.962Z" fill="url(#paint4_linear_30_170)"/>
<path d="M330.886 323.945L336.917 323.991C337.285 323.945 337.7 323.945 338.068 323.945C347.506 323.945 355.148 335.46 355.148 349.693C355.148 363.925 347.506 375.441 338.068 375.441H331.623V375.395C331.347 375.395 331.116 375.441 330.84 375.441C321.403 375.441 313.76 363.925 313.76 349.693C313.807 335.46 321.449 323.945 330.886 323.945Z" fill="#7A43EE"/>
<path d="M496.206 343.474L503.618 343.566C504.078 343.52 504.538 343.474 505.045 343.474C516.6 343.474 525.992 356.371 525.992 372.308C525.992 388.245 516.6 401.142 505.045 401.142H497.173V401.096C496.85 401.096 496.528 401.142 496.252 401.142C484.697 401.142 475.305 388.245 475.305 372.308C475.305 356.417 484.65 343.474 496.206 343.474Z" fill="#7A43EE"/>
<path d="M425.447 356.878C424.986 356.878 424.526 356.924 424.066 356.97L416.792 356.878L416.838 359.596C409.794 364.294 404.868 374.519 404.868 386.449C404.868 398.793 410.162 409.387 417.666 413.809L417.713 416.02H425.493C436.864 416.02 446.117 402.8 446.117 386.449C446.071 370.097 436.818 356.878 425.447 356.878Z" fill="#7A43EE"/>
<path d="M416.745 416.02C428.136 416.02 437.37 402.78 437.37 386.449C437.37 370.117 428.136 356.878 416.745 356.878C405.355 356.878 396.121 370.117 396.121 386.449C396.121 402.78 405.355 416.02 416.745 416.02Z" fill="url(#paint5_linear_30_170)"/>
<path d="M413.891 403.077C420.273 403.077 425.447 395.632 425.447 386.449C425.447 377.266 420.273 369.821 413.891 369.821C407.509 369.821 402.336 377.266 402.336 386.449C402.336 395.632 407.509 403.077 413.891 403.077Z" fill="#E8F0FF"/>
<path d="M219.937 323.945V354.713C219.937 362.728 226.98 368.946 234.945 367.979L309.709 358.813V323.945H219.937Z" fill="#7A43EE"/>
<path d="M253.59 319.661L274.123 351.581C277.069 356.141 281.857 359.181 287.243 359.826L355.194 367.978L360.396 333.617L253.59 319.661Z" fill="url(#paint6_linear_30_170)"/>
<path d="M258.332 335.23C257.964 335.23 257.549 335.276 257.181 335.276L251.15 335.23L251.196 337.579C245.35 341.678 241.252 350.568 241.252 360.932C241.252 371.71 245.626 380.922 251.887 384.745L251.933 386.633H258.378C267.816 386.633 275.458 375.118 275.458 360.885C275.412 346.745 267.77 335.23 258.332 335.23Z" fill="#7A43EE"/>
<path d="M251.15 386.725C260.583 386.725 268.23 375.198 268.23 360.977C268.23 346.757 260.583 335.229 251.15 335.229C241.717 335.229 234.07 346.757 234.07 360.977C234.07 375.198 241.717 386.725 251.15 386.725Z" fill="url(#paint7_linear_30_170)"/>
<path d="M248.756 375.441C254.07 375.441 258.378 368.966 258.378 360.978C258.378 352.99 254.07 346.515 248.756 346.515C243.442 346.515 239.134 352.99 239.134 360.978C239.134 368.966 243.442 375.441 248.756 375.441Z" fill="#E8F0FF"/>
<path d="M332.498 343.843L193.005 324.497C190.703 324.175 189 322.194 189 319.891V196.956C189 194.468 190.98 192.396 193.512 192.303L332.498 188.02V343.843Z" fill="url(#paint8_linear_30_170)"/>
<path d="M441.974 335.229L332.498 343.843V188.02L436.542 193.501C439.58 193.639 441.974 196.173 441.974 199.259V335.229Z" fill="url(#paint9_linear_30_170)"/>
<path d="M353.629 252.505C349.854 269.455 341.061 318.417 350.867 370.972C351.603 374.888 354.734 377.928 358.647 378.526L392.622 383.962C392.622 383.962 392.944 351.765 409.288 349.692C425.631 347.574 440.915 362.912 441.928 389.443C441.928 389.443 477.284 394.187 530.688 381.981C530.688 381.981 537.823 380.461 540.908 372.354L538.514 335.322C538.33 332.282 536.903 329.472 534.601 327.445L503.157 300.269C503.157 300.269 474.614 259.782 465.085 251.952C465.085 251.952 459.975 243.799 418.863 242.786C390.551 242.095 371.031 243.983 361.639 245.181C357.68 245.734 354.503 248.636 353.629 252.505Z" fill="url(#paint10_linear_30_170)"/>
<path d="M536.718 329.886L535.153 331.591C535.844 350.66 539.941 357.385 505.045 360.977C470.149 364.57 471.208 335.229 471.208 335.229L425.447 315.239L387.236 255.038C379.64 248.912 366.381 247.254 357.404 246.885C355.562 248.221 354.181 250.156 353.629 252.505C349.854 269.455 341.061 318.417 350.867 370.973C351.603 374.888 354.734 377.928 358.647 378.526L392.622 383.962C392.622 383.962 392.944 351.765 409.288 349.693C425.631 347.62 440.915 362.912 441.928 389.443C441.928 389.443 477.284 394.187 530.688 381.981C530.688 381.981 537.823 380.461 540.908 372.354L538.514 335.322C538.376 333.341 537.731 331.499 536.718 329.886Z" fill="url(#paint11_linear_30_170)"/>
<path d="M424.986 306.488C426.229 308.514 428.531 309.62 430.879 309.343L503.342 300.454L503.157 300.316C503.157 300.316 479.448 266.737 468.031 254.808L401.231 258.815C398.929 258.953 397.594 261.486 398.791 263.467L424.986 306.488Z" fill="#CDD8F7"/>
<path d="M532.161 334.769C532.069 334.124 531.516 333.617 530.872 333.617C512.825 333.756 490.083 337.579 482.579 338.914C481.152 339.191 480.231 340.573 480.553 341.954C482.026 348.219 484.466 352.456 486.262 354.943C487.505 356.602 489.346 357.661 491.418 357.845C497.08 358.306 509.695 359.043 515.818 357.615C521.25 356.325 526.452 353.746 529.26 352.226C530.872 351.351 532.023 349.739 532.345 347.896C533.035 343.474 532.483 337.302 532.161 334.769Z" fill="#CDD8F7"/>
<path d="M443.815 336.519C443.309 335.506 443.815 334.262 444.874 333.848C446.486 333.249 448.649 332.558 449.938 332.742C451.596 332.927 465.683 336.612 472.128 338.27C474.108 338.776 475.489 340.619 475.351 342.692C475.075 347.067 473.417 354.022 465.867 354.806C455.417 355.865 448.787 346.653 443.815 336.519Z" fill="url(#paint12_linear_30_170)"/>
<path d="M511.49 362.451C484.098 366.274 478.574 356.878 478.574 356.878C472.082 357.845 462.875 356.555 457.673 355.68C455.693 355.312 453.76 356.279 452.655 357.983C451.826 359.227 450.307 360.517 447.545 360.977C443.033 361.76 435.391 360.056 431.662 359.089C437.14 366.597 440.961 376.315 441.422 389.397C441.422 389.397 477.377 394.187 530.78 381.935C530.78 381.935 537.916 380.415 541 372.308L539.435 348.172C536.534 352.456 529.215 359.964 511.49 362.451Z" fill="#CDD8F7"/>
<path d="M365.322 262.315L375.174 264.711C378.397 265.494 381.205 267.428 383.093 270.146L407.446 305.704C409.104 308.146 406.94 311.324 404.086 310.725L361.869 301.789C360.166 301.421 358.923 299.993 358.831 298.243C358.555 292.163 358.279 277.7 360.672 265.309C361.087 263.191 363.205 261.809 365.322 262.315Z" fill="#CDD8F7"/>
<defs>
<filter id="filter0_i_30_170" x="289" y="54.1277" width="198.985" height="85.3076" filterUnits="userSpaceOnUse" color-interpolation-filters="sRGB">
<feFlood flood-opacity="0" result="BackgroundImageFix"/>
<feBlend mode="normal" in="SourceGraphic" in2="BackgroundImageFix" result="shape"/>
<feColorMatrix in="SourceAlpha" type="matrix" values="0 0 0 0 0 0 0 0 0 0 0 0 0 0 0 0 0 0 127 0" result="hardAlpha"/>
<feOffset dx="14" dy="-14"/>
<feGaussianBlur stdDeviation="16"/>
<feComposite in2="hardAlpha" operator="arithmetic" k2="-1" k3="1"/>
<feColorMatrix type="matrix" values="0 0 0 0 0.803922 0 0 0 0 0.847059 0 0 0 0 0.968627 0 0 0 1 0"/>
<feBlend mode="normal" in2="shape" result="effect1_innerShadow_30_170"/>
</filter>
<filter id="filter1_i_30_170" x="346.6" y="44.0198" width="104" height="104" filterUnits="userSpaceOnUse" color-interpolation-filters="sRGB">
<feFlood flood-opacity="0" result="BackgroundImageFix"/>
<feBlend mode="normal" in="SourceGraphic" in2="BackgroundImageFix" result="shape"/>
<feColorMatrix in="SourceAlpha" type="matrix" values="0 0 0 0 0 0 0 0 0 0 0 0 0 0 0 0 0 0 127 0" result="hardAlpha"/>
<feOffset dx="14" dy="-14"/>
<feGaussianBlur stdDeviation="16"/>
<feComposite in2="hardAlpha" operator="arithmetic" k2="-1" k3="1"/>
<feColorMatrix type="matrix" values="0 0 0 0 0.803922 0 0 0 0 0.847059 0 0 0 0 0.968627 0 0 0 1 0"/>
<feBlend mode="normal" in2="shape" result="effect1_innerShadow_30_170"/>
</filter>
<filter id="filter2_i_30_170" x="318.585" y="93.5583" width="50.0308" height="50.0308" filterUnits="userSpaceOnUse" color-interpolation-filters="sRGB">
<feFlood flood-opacity="0" result="BackgroundImageFix"/>
<feBlend mode="normal" in="SourceGraphic" in2="BackgroundImageFix" result="shape"/>
<feColorMatrix in="SourceAlpha" type="matrix" values="0 0 0 0 0 0 0 0 0 0 0 0 0 0 0 0 0 0 127 0" result="hardAlpha"/>
<feOffset dx="-6" dy="-6"/>
<feGaussianBlur stdDeviation="8"/>
<feComposite in2="hardAlpha" operator="arithmetic" k2="-1" k3="1"/>
<feColorMatrix type="matrix" values="0 0 0 0 0.803922 0 0 0 0 0.847059 0 0 0 0 0.968627 0 0 0 1 0"/>
<feBlend mode="normal" in2="shape" result="effect1_innerShadow_30_170"/>
</filter>
<filter id="filter3_i_30_170" x="0.999756" y="24.4099" width="310.994" height="233.387" filterUnits="userSpaceOnUse" color-interpolation-filters="sRGB">
<feFlood flood-opacity="0" result="BackgroundImageFix"/>
<feBlend mode="normal" in="SourceGraphic" in2="BackgroundImageFix" result="shape"/>
<feColorMatrix in="SourceAlpha" type="matrix" values="0 0 0 0 0 0 0 0 0 0 0 0 0 0 0 0 0 0 127 0" result="hardAlpha"/>
<feOffset dx="6" dy="-6"/>
<feGaussianBlur stdDeviation="3.5"/>
<feComposite in2="hardAlpha" operator="arithmetic" k2="-1" k3="1"/>
<feColorMatrix type="matrix" values="0 0 0 0 0.803922 0 0 0 0 0.847059 0 0 0 0 0.968627 0 0 0 1 0"/>
<feBlend mode="normal" in2="shape" result="effect1_innerShadow_30_170"/>
</filter>
<linearGradient id="paint0_linear_30_170" x1="237.949" y1="41.0893" x2="66.6093" y2="236.03" gradientUnits="userSpaceOnUse">
<stop stop-color="white"/>
<stop offset="1" stop-color="#E8F0FF"/>
</linearGradient>
<linearGradient id="paint1_linear_30_170" x1="8.55188" y1="23.6249" x2="305.919" y2="23.6249" gradientUnits="userSpaceOnUse">
<stop stop-color="#7A43EE"/>
<stop offset="1" stop-color="#B565E6"/>
</linearGradient>
<linearGradient id="paint2_linear_30_170" x1="76.9936" y1="204.465" x2="58.3892" y2="121.589" gradientUnits="userSpaceOnUse">
<stop stop-color="#7A43EE"/>
<stop offset="1" stop-color="#B565E6"/>
</linearGradient>
<linearGradient id="paint3_linear_30_170" x1="233.701" y1="136.593" x2="222.612" y2="77.4597" gradientUnits="userSpaceOnUse">
<stop stop-color="#7A43EE"/>
<stop offset="1" stop-color="#B565E6"/>
</linearGradient>
<linearGradient id="paint4_linear_30_170" x1="431.5" y1="392.02" x2="406.5" y2="333.52" gradientUnits="userSpaceOnUse">
<stop stop-color="#929BB1"/>
<stop offset="1" stop-color="#CDD8F7"/>
</linearGradient>
<linearGradient id="paint5_linear_30_170" x1="396" y1="405.52" x2="437" y2="375.02" gradientUnits="userSpaceOnUse">
<stop stop-color="#7A43EE"/>
<stop offset="1" stop-color="#B565E5"/>
</linearGradient>
<linearGradient id="paint6_linear_30_170" x1="307" y1="390.52" x2="342.5" y2="328.02" gradientUnits="userSpaceOnUse">
<stop stop-color="#7A43EE"/>
<stop offset="1" stop-color="#B565E5"/>
</linearGradient>
<linearGradient id="paint7_linear_30_170" x1="234" y1="379.02" x2="268.224" y2="360.957" gradientUnits="userSpaceOnUse">
<stop stop-color="#7A43EE"/>
<stop offset="1" stop-color="#B565E5"/>
</linearGradient>
<linearGradient id="paint8_linear_30_170" x1="255.5" y1="183.52" x2="214.5" y2="344.02" gradientUnits="userSpaceOnUse">
<stop stop-color="#F8BA55"/>
<stop offset="0.9964" stop-color="#FB7354"/>
</linearGradient>
<linearGradient id="paint9_linear_30_170" x1="315.5" y1="308.52" x2="447.5" y2="228.52" gradientUnits="userSpaceOnUse">
<stop stop-color="#FB7354"/>
<stop offset="0.9964" stop-color="#F8BA55"/>
</linearGradient>
<linearGradient id="paint10_linear_30_170" x1="452.5" y1="262.02" x2="414.5" y2="320.02" gradientUnits="userSpaceOnUse">
<stop stop-color="white"/>
<stop offset="1" stop-color="#E8F0FF"/>
</linearGradient>
<linearGradient id="paint11_linear_30_170" x1="463" y1="221.02" x2="390.5" y2="390.02" gradientUnits="userSpaceOnUse">
<stop stop-color="white"/>
<stop offset="1" stop-color="#CDD8F7"/>
</linearGradient>
<linearGradient id="paint12_linear_30_170" x1="478" y1="338.02" x2="437" y2="355.02" gradientUnits="userSpaceOnUse">
<stop stop-color="#F8BA55"/>
<stop offset="1" stop-color="#FB7354"/>
</linearGradient>
</defs>
</svg>
