<svg width="490" height="447" viewBox="0 0 490 447" fill="none" xmlns="http://www.w3.org/2000/svg">
<g filter="url(#filter0_i_1248_406)">
<path d="M256.359 446.779C175.858 446.779 110.599 381.462 110.599 300.889C110.599 220.317 175.858 155 256.359 155C336.86 155 402.119 220.317 402.119 300.889C402.119 381.462 336.86 446.779 256.359 446.779Z" fill="url(#paint0_radial_1248_406)"/>
</g>
<path d="M132.739 223.507C118.693 245.906 110.599 272.415 110.599 300.83C110.599 305.06 110.777 309.289 111.134 313.399C113.039 314.174 114.824 315.484 116.193 317.689C120.717 325.195 120.895 321.62 129.525 325.909C138.156 330.139 135.894 334.964 136.311 340.445C136.727 345.985 146.786 350.751 151.488 352.061C156.19 353.312 160.118 365.465 159.701 371.839C159.285 378.213 166.903 379.464 172.319 384.289C177.676 389.114 181.663 397.99 185.354 401.982C189.044 405.913 194.698 407.76 199.936 406.092C205.054 404.424 208.566 394.774 210.292 386.731C212.018 378.689 211.542 370.171 208.566 362.129C205.59 354.087 206.304 355.04 206.304 341.934C206.185 328.769 214.637 323.407 219.458 321.442C224.279 319.297 232.909 321.025 237.015 317.629C241.003 314.353 242.372 310.302 243.265 297.673C244.277 285.103 237.73 283.257 231.956 277.478C226.124 271.7 215.827 266.338 207.137 265.326C198.507 264.313 193.091 267.47 188.449 270.866C183.747 274.261 182.199 280.338 178.688 281.172C175.116 282.184 171.724 280.755 168.212 282.006C164.641 283.257 162.558 285.401 158.868 285.401C155.178 285.401 156.904 280.993 157.023 278.61C157.142 276.346 160.415 276.346 164.701 275.631C168.927 274.917 169.819 273.666 170.95 270.568C172.081 267.47 174.759 269.555 176.783 268.185C178.747 266.755 179.045 271.998 179.64 273.963C180.235 275.929 181.187 272.117 181.187 272.117C181.187 272.117 183.33 274.5 183.866 273.249C184.461 271.819 182.14 269.138 181.902 265.921C181.604 262.824 186.306 262.824 188.687 259.964C191.067 257.164 194.936 256.152 199.043 256.867C203.031 257.581 203.566 256.45 205.828 259.547C208.09 262.645 216.72 263.658 219.279 262.824C221.838 261.99 219.16 256.867 216.184 252.518C213.208 248.11 208.804 250.552 205.114 246.144C201.424 241.914 205.233 240.485 207.792 239.353C210.351 238.221 210.768 235.54 206.959 229.881C203.15 224.222 199.757 226.485 198.626 229.583C197.495 232.681 194.4 234.527 190.829 235.242C187.258 235.778 187.734 233.276 187.02 228.034C186.306 222.792 183.449 220.409 178.39 219.099C173.271 217.848 164.939 215.822 161.368 213.558C157.797 211.176 152.857 213.975 150.476 217.371C148.095 220.886 141.965 223.03 135.596 225.175C134.168 225.592 133.037 224.639 132.739 223.507ZM387.597 256.092V256.211C382.895 263.836 377.121 265.683 370.039 268.245C362.956 270.806 365.813 274.619 362.956 279.384C359.98 284.329 358.849 287.01 355.159 289.988C351.35 292.967 357.54 296.481 359.98 300.89C362.361 305.298 363.254 307.8 361.409 317.867C359.564 327.935 351.052 337.228 348.791 341.338C346.529 345.449 352.064 348.963 352.064 356.886C352.064 364.809 355.754 385.183 350.219 397.871C344.684 410.619 340.042 410.024 339.327 402.101C338.613 394.178 339.923 386.434 334.506 381.311C329.15 376.247 320.222 379.166 315.401 369.039C310.699 358.852 308.735 359.686 303.2 356.886C297.665 353.908 299.391 350.512 293.439 343.006C287.487 335.5 284.928 327.994 291.177 323.467C297.426 318.94 302.069 318.523 306.592 309.587C311.116 300.651 318.913 291.477 326.709 285.58C334.387 279.623 348.672 283.018 353.79 280.635C358.73 278.253 360.575 267.47 359.623 263.658C358.611 259.726 362.48 258.118 366.408 258.415C370.396 258.713 372.062 256.033 372.36 250.612C372.479 245.369 363.432 240.127 356.945 240.723C350.457 241.259 347.481 244.833 347.481 253.471C347.481 262.109 342.66 267.172 336.828 269.615C330.995 271.998 333.852 265.207 337.423 260.262C340.994 255.318 340.696 251.505 335.994 242.57C331.292 233.813 323.555 235.659 316.294 228.034C309.092 220.409 308.914 227.021 303.14 228.868C297.307 230.715 297.784 227.438 294.629 222.375C291.653 217.431 284.868 223.209 277.905 219.813C270.941 216.418 282.845 207.542 280.999 201.704C279.154 195.925 273.322 197.057 275.167 187.705C277.012 178.233 272.31 178.65 269.512 175.671C266.656 172.871 270.227 168.88 278.44 171.74C286.654 174.539 303.378 178.114 310.461 174.837C311.592 174.301 313.02 173.705 314.27 172.991C316.413 172.037 317.068 169.595 316.234 167.689C352.957 184.428 381.585 215.822 394.56 254.484C392.358 253.114 389.204 253.531 387.597 256.092ZM238.146 203.67C234.337 204.682 221.005 207.482 218.327 203.372C215.648 199.261 213.625 199.976 209.697 195.568C205.709 191.16 204.757 184.666 208.685 183.952C212.672 183.415 213.387 184.964 219.874 183.415C226.362 181.867 228.802 177.041 235.289 177.22C241.955 177.339 248.741 174.837 253.562 174.122C260.049 173.11 268.977 174.122 263.501 178.948C257.966 183.594 254.157 184.607 254.871 189.551C255.585 194.496 259.573 199.142 258.561 202.836C257.549 206.529 255.585 210.878 252.907 210.044C250.229 209.329 241.955 202.657 238.146 203.67ZM148.214 379.404C151.607 378.272 151.488 379.523 154.047 381.966C156.606 384.349 160.118 387.029 159.999 390.008C159.999 392.986 160.296 396.501 157.44 394.833C154.583 393.165 155.059 390.425 151.369 389.472C147.679 388.519 142.977 381.251 148.214 379.404Z" fill="url(#paint1_linear_1248_406)"/>
<path d="M331.662 62.57L240.177 93.4978C235.219 95.1505 232.032 100.226 232.504 105.775L240.531 222.285C241.003 229.84 247.968 234.916 254.696 232.673L368.138 195.489C373.922 193.6 377.227 186.99 375.575 180.733L345.591 70.479C343.702 64.2226 337.564 60.5632 331.662 62.57Z" fill="url(#paint2_linear_1248_406)"/>
<path d="M345.591 165.151V178.962C345.591 183.684 349.132 187.698 353.736 188.406L373.686 191.239C372.387 193.128 370.381 194.662 368.138 195.371L254.696 232.673C237.816 235.978 236.753 231.729 236.281 224.174L209.367 217.445L345.591 165.151Z" fill="#FB7354"/>
<g filter="url(#filter1_i_1248_406)">
<path d="M279.391 148.699C280.653 148.538 282.005 148.251 283.358 147.965C300.105 143.552 311.357 125.435 308.426 107.544L297.522 41.5481C296.092 32.8817 291.503 25.4139 284.705 20.7247C277.788 15.9373 269.259 14.4195 260.99 16.6122C244.244 21.0245 232.991 39.1423 235.922 57.0331L246.826 123.029C248.256 131.695 252.845 139.163 259.643 143.852C265.395 147.881 272.347 149.601 279.391 148.699ZM281.164 139.169C275.166 140.731 269.064 139.81 264.133 136.357C259.323 133.002 256.205 127.842 255.089 121.631L244.185 55.6353C241.945 42.3076 250.467 28.7371 263.08 25.4211C269.078 23.8593 275.18 24.7801 280.11 28.2335C284.92 31.5887 288.039 36.7488 289.154 42.9594L299.953 108.969C302.193 122.296 293.671 135.867 281.164 139.169Z" fill="white"/>
</g>
<g filter="url(#filter2_i_1248_406)">
<path d="M251.226 143.834C252.631 143.654 254.138 143.342 255.645 143.03C274.314 138.261 286.982 119.145 283.867 100.384L272.272 31.1769C270.752 22.0888 265.707 14.2849 258.182 9.41662C250.524 4.44625 241.046 2.92204 231.829 5.29177C213.16 10.0612 200.492 29.1766 203.608 47.9382L215.202 117.145C216.722 126.233 221.767 134.037 229.293 138.905C235.66 143.089 243.381 144.838 251.226 143.834ZM253.276 133.813C246.589 135.502 239.807 134.584 234.35 130.999C229.025 127.515 225.598 122.122 224.407 115.61L212.813 46.4031C210.429 32.4272 220.021 18.1087 234.082 14.5241C240.768 12.8353 247.55 13.7525 253.007 17.3384C258.332 20.8221 261.76 26.2149 262.95 32.727L274.427 101.949C276.811 115.925 267.219 130.243 253.276 133.813Z" fill="white"/>
</g>
<path d="M296.838 46.2798L199.097 79.0963C193.903 80.867 190.48 85.943 191.07 91.4911L202.52 207.884C203.229 215.439 210.783 220.396 217.984 218.035L339.217 178.254C345.355 176.247 348.778 169.637 346.772 163.381L311.948 53.8347C309.941 47.5783 303.095 44.155 296.838 46.2798Z" fill="url(#paint3_linear_1248_406)"/>
<g filter="url(#filter3_i_1248_406)">
<path d="M336.397 365.19C337.528 367.335 339.552 368.884 341.932 369.42L394.844 381.572C399.308 382.585 403.772 379.785 404.843 375.317C405.855 370.849 403.058 366.382 398.594 365.309L376.929 360.365C392.523 352.204 407.879 343.506 422.877 333.975C430.972 328.792 439.007 323.431 446.804 317.593C450.732 314.674 454.541 311.695 458.35 308.538C462.1 305.381 465.849 302.104 469.421 298.59C472.992 295.075 476.503 291.382 479.777 287.212C481.384 285.127 482.991 282.923 484.419 280.54C485.907 278.157 487.276 275.536 488.347 272.498C488.883 271.008 489.3 269.34 489.657 267.613C489.954 265.826 490.073 263.919 489.954 261.894C489.835 259.869 489.3 257.724 488.466 255.699C487.633 253.673 486.383 251.886 485.014 250.337C483.645 248.788 482.157 247.657 480.67 246.644C479.182 245.631 477.694 244.976 476.206 244.321C473.289 243.129 470.492 242.414 467.754 241.938C465.016 241.461 462.397 241.163 459.779 241.044C457.16 240.925 454.601 240.865 452.101 240.925C447.042 241.044 442.161 241.461 437.281 242.057C427.579 243.308 418.175 245.155 408.831 247.359C403.712 248.55 398.772 249.861 393.713 251.231C394.844 254.507 396.273 260.405 396.749 263.026C401.57 262.013 406.688 261 411.509 260.166C420.556 258.558 429.662 257.307 438.709 256.711C443.233 256.413 447.696 256.294 452.041 256.473C456.386 256.652 460.671 257.069 464.421 257.962C466.266 258.439 467.992 259.035 469.421 259.69C470.79 260.345 471.742 261.179 472.099 261.656C472.277 261.894 472.337 262.073 472.396 262.251C472.456 262.43 472.456 262.609 472.456 262.907C472.456 263.205 472.396 263.622 472.277 264.217C472.099 264.753 471.92 265.409 471.623 266.064C471.028 267.434 470.135 268.983 469.063 270.532C467.992 272.081 466.742 273.629 465.373 275.178C462.636 278.276 459.541 281.255 456.208 284.114C449.601 289.833 442.221 295.135 434.721 300.079C427.163 305.083 419.306 309.73 411.271 314.197C395.32 323.073 378.774 331.116 361.99 338.621L371.87 313.9C373.596 309.61 371.513 304.785 367.228 303.058C366.216 302.641 365.145 302.462 364.133 302.462C360.8 302.462 357.705 304.428 356.395 307.704L336.219 358.161C335.147 360.484 335.266 363.046 336.397 365.19Z" fill="white"/>
<path d="M336.397 365.19C337.528 367.335 339.552 368.884 341.932 369.42L394.844 381.572C399.308 382.585 403.772 379.785 404.843 375.317C405.855 370.849 403.058 366.382 398.594 365.309L376.929 360.365C392.523 352.204 407.879 343.506 422.877 333.975C430.972 328.792 439.007 323.431 446.804 317.593C450.732 314.674 454.541 311.695 458.35 308.538C462.1 305.381 465.849 302.104 469.421 298.59C472.992 295.075 476.503 291.382 479.777 287.212C481.384 285.127 482.991 282.923 484.419 280.54C485.907 278.157 487.276 275.536 488.347 272.498C488.883 271.008 489.3 269.34 489.657 267.613C489.954 265.826 490.073 263.919 489.954 261.894C489.835 259.869 489.3 257.724 488.466 255.699C487.633 253.673 486.383 251.886 485.014 250.337C483.645 248.788 482.157 247.657 480.67 246.644C479.182 245.631 477.694 244.976 476.206 244.321C473.289 243.129 470.492 242.414 467.754 241.938C465.016 241.461 462.397 241.163 459.779 241.044C457.16 240.925 454.601 240.865 452.101 240.925C447.042 241.044 442.161 241.461 437.281 242.057C427.579 243.308 418.175 245.155 408.831 247.359C403.712 248.55 398.772 249.861 393.713 251.231C394.844 254.507 396.273 260.405 396.749 263.026C401.57 262.013 406.688 261 411.509 260.166C420.556 258.558 429.662 257.307 438.709 256.711C443.233 256.413 447.696 256.294 452.041 256.473C456.386 256.652 460.671 257.069 464.421 257.962C466.266 258.439 467.992 259.035 469.421 259.69C470.79 260.345 471.742 261.179 472.099 261.656C472.277 261.894 472.337 262.073 472.396 262.251C472.456 262.43 472.456 262.609 472.456 262.907C472.456 263.205 472.396 263.622 472.277 264.217C472.099 264.753 471.92 265.409 471.623 266.064C471.028 267.434 470.135 268.983 469.063 270.532C467.992 272.081 466.742 273.629 465.373 275.178C462.636 278.276 459.541 281.255 456.208 284.114C449.601 289.833 442.221 295.135 434.721 300.079C427.163 305.083 419.306 309.73 411.271 314.197C395.32 323.073 378.774 331.116 361.99 338.621L371.87 313.9C373.596 309.61 371.513 304.785 367.228 303.058C366.216 302.641 365.145 302.462 364.133 302.462C360.8 302.462 357.705 304.428 356.395 307.704L336.219 358.161C335.147 360.484 335.266 363.046 336.397 365.19Z" fill="url(#paint4_linear_1248_406)"/>
</g>
<path d="M0.297493 379.726C0.714119 382.407 2.20205 385.087 3.98759 386.934C5.77314 388.781 7.79678 390.032 9.70137 390.866C11.606 391.7 13.5105 392.236 15.2961 392.653C18.9267 393.427 22.3788 393.666 25.7713 393.666C29.1638 393.666 32.4969 393.487 35.7109 393.129C42.2579 392.415 48.5668 391.283 54.8162 389.853C61.0656 388.423 67.196 386.755 73.3264 384.909C85.4681 381.215 97.3718 376.866 109.097 372.16C109.752 371.922 110.644 371.565 111.478 371.207C112.787 370.671 113.382 369.182 112.727 367.871C112.192 366.739 110.942 366.203 109.752 366.62C108.918 366.918 108.026 367.216 107.371 367.395C95.4672 371.267 83.504 374.782 71.3623 377.581C65.2914 378.951 59.2206 380.202 53.1497 381.156C47.0788 382.109 40.9485 382.824 34.9966 383.002C32.0207 383.121 29.0448 383.121 26.1284 382.883C23.2715 382.704 20.4146 382.287 17.9744 381.573C16.7245 381.215 15.5937 380.798 14.7009 380.262C13.7486 379.785 13.1534 379.19 12.7963 378.773C12.6178 378.534 12.5583 378.356 12.4987 378.177C12.4392 377.998 12.4392 377.879 12.4392 377.641C12.4392 377.462 12.4392 377.164 12.4987 376.807C12.5583 376.509 12.6773 376.092 12.7963 375.675C13.3915 373.888 14.7604 371.743 16.4269 369.658C18.0934 367.573 20.1171 365.548 22.2002 363.582C26.4855 359.65 31.247 356.017 36.187 352.562C46.1265 345.711 56.8398 339.575 67.7317 333.916C78.2069 328.435 88.9797 323.372 99.812 318.546L89.6344 335.643C87.7893 338.741 88.8011 342.792 91.8961 344.639C94.991 346.485 99.0383 345.473 100.883 342.375L122.072 306.573C122.846 305.322 123.203 303.832 123.024 302.403C122.786 299.96 121.179 297.875 118.917 296.982L80.1115 281.493C79.3377 281.195 78.5045 281.017 77.6712 281.017C74.9334 281.017 72.3741 282.744 71.4813 285.544C70.41 288.88 72.1955 292.454 75.4691 293.765L91.7175 300.199C80.7067 305.977 69.8148 312.053 59.1015 318.546C48.1502 325.218 37.4369 332.367 27.1997 340.469C22.0811 344.519 17.0816 348.868 12.4392 353.753C10.118 356.195 7.85629 358.816 5.77314 361.795C4.76133 363.284 3.74954 364.833 2.85677 366.561C1.964 368.288 1.19027 370.135 0.595085 372.339C0.297493 373.411 0.118935 374.543 -9.91821e-05 375.794C-9.91821e-05 377.045 0.0594177 378.356 0.297493 379.726Z" fill="url(#paint5_linear_1248_406)"/>
<g filter="url(#filter4_i_1248_406)">
<path d="M18.3912 142.632C19.0459 144.658 19.8792 146.385 20.8315 147.994C22.6765 151.211 24.8787 153.951 27.0809 156.453C29.3426 158.955 31.7233 161.278 34.1635 163.482C39.044 167.89 44.1626 171.822 49.4002 175.516C54.6378 179.209 59.9945 182.664 65.4106 186C76.3025 192.612 87.4919 198.51 98.8004 204.11C101.776 205.539 107.014 208.041 109.454 209.173C110.228 209.531 111.18 209.412 111.835 208.816C112.906 207.803 112.728 206.076 111.418 205.361C108.561 203.752 103.978 201.25 101.241 199.642C90.4083 193.387 79.8141 186.774 69.6364 179.686C64.5774 176.111 59.5778 172.418 54.8164 168.546C50.0549 164.674 45.472 160.563 41.2462 156.274C39.1631 154.13 37.199 151.866 35.4134 149.602C33.6279 147.338 32.0804 144.956 30.9496 142.632C30.4139 141.501 29.9377 140.369 29.6997 139.356C29.4616 138.343 29.4021 137.509 29.5211 136.973C29.5806 136.675 29.6402 136.497 29.7592 136.377C29.8187 136.199 29.9377 136.08 30.1163 135.96C30.2353 135.841 30.4734 135.663 30.771 135.484C31.0686 135.305 31.4257 135.126 31.8423 134.948C33.5684 134.233 36.1276 133.756 38.7464 133.637C41.4248 133.518 44.2816 133.637 47.1385 133.875C52.9118 134.412 58.8041 135.543 64.6964 136.973C76.481 139.773 88.1466 143.645 99.6932 147.994C110.525 152.045 121.179 156.512 131.833 161.219L113.382 165.448C109.871 166.222 107.49 169.678 108.204 173.192C108.978 176.767 112.49 179.09 116.061 178.256L156.593 168.784C158.914 168.248 160.818 166.461 161.473 164.078C161.83 162.648 161.711 161.159 161.176 159.789L145.76 121.127C144.748 118.566 142.249 117.017 139.689 117.017C138.856 117.017 138.082 117.196 137.249 117.493C133.916 118.864 132.25 122.676 133.619 126.012L140.344 142.871C128.798 138.582 117.072 134.59 105.169 131.016C92.9081 127.382 80.4092 124.106 67.5533 121.961C61.1253 120.889 54.5783 120.055 47.7932 119.876C44.4007 119.817 40.9486 119.876 37.3775 120.293C35.592 120.531 33.7469 120.829 31.9018 121.306C30.0568 121.782 28.0927 122.438 26.1286 123.51C25.1168 124.046 24.1645 124.642 23.1526 125.416C22.2004 126.191 21.2481 127.084 20.4148 128.157C18.6888 130.301 17.677 133.161 17.4984 135.722C17.3199 138.284 17.7365 140.607 18.3912 142.632Z" fill="black"/>
<path d="M18.3912 142.632C19.0459 144.658 19.8792 146.385 20.8315 147.994C22.6765 151.211 24.8787 153.951 27.0809 156.453C29.3426 158.955 31.7233 161.278 34.1635 163.482C39.044 167.89 44.1626 171.822 49.4002 175.516C54.6378 179.209 59.9945 182.664 65.4106 186C76.3025 192.612 87.4919 198.51 98.8004 204.11C101.776 205.539 107.014 208.041 109.454 209.173C110.228 209.531 111.18 209.412 111.835 208.816C112.906 207.803 112.728 206.076 111.418 205.361C108.561 203.752 103.978 201.25 101.241 199.642C90.4083 193.387 79.8141 186.774 69.6364 179.686C64.5774 176.111 59.5778 172.418 54.8164 168.546C50.0549 164.674 45.472 160.563 41.2462 156.274C39.1631 154.13 37.199 151.866 35.4134 149.602C33.6279 147.338 32.0804 144.956 30.9496 142.632C30.4139 141.501 29.9377 140.369 29.6997 139.356C29.4616 138.343 29.4021 137.509 29.5211 136.973C29.5806 136.675 29.6402 136.497 29.7592 136.377C29.8187 136.199 29.9377 136.08 30.1163 135.96C30.2353 135.841 30.4734 135.663 30.771 135.484C31.0686 135.305 31.4257 135.126 31.8423 134.948C33.5684 134.233 36.1276 133.756 38.7464 133.637C41.4248 133.518 44.2816 133.637 47.1385 133.875C52.9118 134.412 58.8041 135.543 64.6964 136.973C76.481 139.773 88.1466 143.645 99.6932 147.994C110.525 152.045 121.179 156.512 131.833 161.219L113.382 165.448C109.871 166.222 107.49 169.678 108.204 173.192C108.978 176.767 112.49 179.09 116.061 178.256L156.593 168.784C158.914 168.248 160.818 166.461 161.473 164.078C161.83 162.648 161.711 161.159 161.176 159.789L145.76 121.127C144.748 118.566 142.249 117.017 139.689 117.017C138.856 117.017 138.082 117.196 137.249 117.493C133.916 118.864 132.25 122.676 133.619 126.012L140.344 142.871C128.798 138.582 117.072 134.59 105.169 131.016C92.9081 127.382 80.4092 124.106 67.5533 121.961C61.1253 120.889 54.5783 120.055 47.7932 119.876C44.4007 119.817 40.9486 119.876 37.3775 120.293C35.592 120.531 33.7469 120.829 31.9018 121.306C30.0568 121.782 28.0927 122.438 26.1286 123.51C25.1168 124.046 24.1645 124.642 23.1526 125.416C22.2004 126.191 21.2481 127.084 20.4148 128.157C18.6888 130.301 17.677 133.161 17.4984 135.722C17.3199 138.284 17.7365 140.607 18.3912 142.632Z" fill="url(#paint6_linear_1248_406)"/>
</g>
<defs>
<filter id="filter0_i_1248_406" x="104.599" y="149" width="297.521" height="297.779" filterUnits="userSpaceOnUse" color-interpolation-filters="sRGB">
<feFlood flood-opacity="0" result="BackgroundImageFix"/>
<feBlend mode="normal" in="SourceGraphic" in2="BackgroundImageFix" result="shape"/>
<feColorMatrix in="SourceAlpha" type="matrix" values="0 0 0 0 0 0 0 0 0 0 0 0 0 0 0 0 0 0 127 0" result="hardAlpha"/>
<feOffset dx="-6" dy="-6"/>
<feGaussianBlur stdDeviation="23.5"/>
<feComposite in2="hardAlpha" operator="arithmetic" k2="-1" k3="1"/>
<feColorMatrix type="matrix" values="0 0 0 0 0.803922 0 0 0 0 0.847059 0 0 0 0 0.968627 0 0 0 1 0"/>
<feBlend mode="normal" in2="shape" result="effect1_innerShadow_1248_406"/>
</filter>
<filter id="filter1_i_1248_406" x="231.458" y="11.6287" width="77.4329" height="137.305" filterUnits="userSpaceOnUse" color-interpolation-filters="sRGB">
<feFlood flood-opacity="0" result="BackgroundImageFix"/>
<feBlend mode="normal" in="SourceGraphic" in2="BackgroundImageFix" result="shape"/>
<feColorMatrix in="SourceAlpha" type="matrix" values="0 0 0 0 0 0 0 0 0 0 0 0 0 0 0 0 0 0 127 0" result="hardAlpha"/>
<feOffset dx="-4" dy="-4"/>
<feGaussianBlur stdDeviation="3"/>
<feComposite in2="hardAlpha" operator="arithmetic" k2="-1" k3="1"/>
<feColorMatrix type="matrix" values="0 0 0 0 0.803922 0 0 0 0 0.847059 0 0 0 0 0.968627 0 0 0 1 0"/>
<feBlend mode="normal" in2="shape" result="effect1_innerShadow_1248_406"/>
</filter>
<filter id="filter2_i_1248_406" x="199.137" y="0.197266" width="85.2009" height="143.913" filterUnits="userSpaceOnUse" color-interpolation-filters="sRGB">
<feFlood flood-opacity="0" result="BackgroundImageFix"/>
<feBlend mode="normal" in="SourceGraphic" in2="BackgroundImageFix" result="shape"/>
<feColorMatrix in="SourceAlpha" type="matrix" values="0 0 0 0 0 0 0 0 0 0 0 0 0 0 0 0 0 0 127 0" result="hardAlpha"/>
<feOffset dx="-4" dy="-4"/>
<feGaussianBlur stdDeviation="3"/>
<feComposite in2="hardAlpha" operator="arithmetic" k2="-1" k3="1"/>
<feColorMatrix type="matrix" values="0 0 0 0 0.803922 0 0 0 0 0.847059 0 0 0 0 0.968627 0 0 0 1 0"/>
<feBlend mode="normal" in2="shape" result="effect1_innerShadow_1248_406"/>
</filter>
<filter id="filter3_i_1248_406" x="332.479" y="234.902" width="157.521" height="146.878" filterUnits="userSpaceOnUse" color-interpolation-filters="sRGB">
<feFlood flood-opacity="0" result="BackgroundImageFix"/>
<feBlend mode="normal" in="SourceGraphic" in2="BackgroundImageFix" result="shape"/>
<feColorMatrix in="SourceAlpha" type="matrix" values="0 0 0 0 0 0 0 0 0 0 0 0 0 0 0 0 0 0 127 0" result="hardAlpha"/>
<feOffset dx="-3" dy="-6"/>
<feGaussianBlur stdDeviation="4"/>
<feComposite in2="hardAlpha" operator="arithmetic" k2="-1" k3="1"/>
<feColorMatrix type="matrix" values="0 0 0 0 0.803922 0 0 0 0 0.847059 0 0 0 0 0.968627 0 0 0 1 0"/>
<feBlend mode="normal" in2="shape" result="effect1_innerShadow_1248_406"/>
</filter>
<filter id="filter4_i_1248_406" x="13.457" y="111.017" width="148.22" height="98.3574" filterUnits="userSpaceOnUse" color-interpolation-filters="sRGB">
<feFlood flood-opacity="0" result="BackgroundImageFix"/>
<feBlend mode="normal" in="SourceGraphic" in2="BackgroundImageFix" result="shape"/>
<feColorMatrix in="SourceAlpha" type="matrix" values="0 0 0 0 0 0 0 0 0 0 0 0 0 0 0 0 0 0 127 0" result="hardAlpha"/>
<feOffset dx="-4" dy="-6"/>
<feGaussianBlur stdDeviation="3.5"/>
<feComposite in2="hardAlpha" operator="arithmetic" k2="-1" k3="1"/>
<feColorMatrix type="matrix" values="0 0 0 0 0.803922 0 0 0 0 0.847059 0 0 0 0 0.968627 0 0 0 1 0"/>
<feBlend mode="normal" in2="shape" result="effect1_innerShadow_1248_406"/>
</filter>
<radialGradient id="paint0_radial_1248_406" cx="0" cy="0" r="1" gradientUnits="userSpaceOnUse" gradientTransform="translate(228 254) rotate(47.716) scale(186.532 188.688)">
<stop stop-color="white"/>
<stop offset="1" stop-color="#CDD8F7"/>
</radialGradient>
<linearGradient id="paint1_linear_1248_406" x1="294.5" y1="355.5" x2="206.433" y2="160.793" gradientUnits="userSpaceOnUse">
<stop stop-color="#7A43EE"/>
<stop offset="1" stop-color="#B565E6"/>
</linearGradient>
<linearGradient id="paint2_linear_1248_406" x1="232.004" y1="82.8323" x2="396.004" y2="165.332" gradientUnits="userSpaceOnUse">
<stop stop-color="#F8BA55"/>
<stop offset="1" stop-color="#FB7354"/>
</linearGradient>
<linearGradient id="paint3_linear_1248_406" x1="177.5" y1="73.5" x2="347.004" y2="286.332" gradientUnits="userSpaceOnUse">
<stop offset="0.00312487" stop-color="#E8F0FF"/>
<stop offset="0.245782" stop-color="#F8BA55"/>
<stop offset="1" stop-color="#FB7354"/>
</linearGradient>
<linearGradient id="paint4_linear_1248_406" x1="413" y1="295.5" x2="406" y2="248.182" gradientUnits="userSpaceOnUse">
<stop stop-color="white"/>
<stop offset="1" stop-color="#CDD8F7"/>
</linearGradient>
<linearGradient id="paint5_linear_1248_406" x1="94.9999" y1="308.682" x2="115" y2="370.182" gradientUnits="userSpaceOnUse">
<stop stop-color="#F8BA55"/>
<stop offset="1" stop-color="#FB7354"/>
</linearGradient>
<linearGradient id="paint6_linear_1248_406" x1="111.5" y1="151.682" x2="74.9214" y2="205.92" gradientUnits="userSpaceOnUse">
<stop stop-color="white"/>
<stop offset="1" stop-color="#CDD8F7"/>
</linearGradient>
</defs>
</svg>
