<svg width="189" height="32" viewBox="0 0 189 32" fill="none" xmlns="http://www.w3.org/2000/svg">
<path d="M6.91663 0.213069H7.13063L7.55863 0.318871L7.98663 0.424673L9.27064 0.742079L10.9827 1.05949L11.9457 1.27109L13.0157 1.48269L14.0857 1.5885L15.1557 1.9059L16.3327 2.11751L17.5097 2.43491L21.2547 3.17553L22.4317 3.49293L23.7157 3.70454L24.7857 3.91614L25.9627 4.12774L27.0327 4.33935L28.1027 4.44515L29.1727 4.76256L30.1358 4.86836L30.8848 5.07996L31.6338 5.18577L32.2758 5.39737L32.8108 5.50317L33.2388 5.60897H33.4528H33.5598L34.6298 5.82058L35.5928 5.92638L36.3418 6.13798L36.9838 6.24379L37.6258 6.45539L38.0538 6.56119L38.6958 6.8786L38.9098 6.9844L39.3378 7.40761V7.51341L39.4448 7.61921V7.72501H42.8688L43.0828 7.93662H43.4038L43.6178 8.04242H43.8318L44.0458 8.14822L44.6878 8.46563L44.7948 8.57143L45.3298 9.41785L45.4368 10.4759L45.3298 11.7455L44.9018 12.8035L44.4738 13.9673L44.0458 14.9196L43.6178 15.5544L43.5108 15.766L43.4038 15.8718L42.8688 15.9776L42.3338 16.1892L41.5848 16.5066L40.7288 16.824L39.6588 17.2472L38.4818 17.6704L37.1978 18.0936L35.5928 18.94L33.9878 19.469L32.3828 20.1039L28.9587 21.4793L27.1397 22.2199L25.3207 22.8547L23.5017 23.5953L21.6827 24.2301L19.8637 24.8649L18.1517 25.6056L16.3327 26.2404L14.7277 26.8752L11.6247 28.1448L10.1266 28.6738L8.84264 29.097L7.66563 29.5202L6.59563 29.9434L5.73962 30.3667L4.99062 30.5783L4.56262 30.8957L4.24161 31.0015L4.13461 31.1073H44.6878L51.3219 0.107267H6.91663V0.213069ZM37.3048 10.2643L37.0908 10.3701L35.4858 10.6875H35.0578H34.8438H34.5228L34.0948 10.7933L33.8808 10.8991L33.7738 11.0049L33.6668 11.1107V11.2165L33.7738 11.3223H34.0948L34.4158 11.4281H35.1648L35.5928 11.3223H36.0208L37.0908 11.2165H37.7328L38.3748 11.1107L38.9098 11.0049L39.3378 10.8991L39.8728 10.7933H42.0128L42.2268 10.8991L42.3338 11.0049L42.4408 11.2165V11.5339L42.3338 11.8513L42.2268 12.2745V12.8035L42.0128 13.3325L41.9058 13.8615L41.7988 14.1789L41.9058 14.2847L42.0128 14.1789L42.3338 13.8615L42.4408 13.6499L42.6548 13.2267L42.8688 12.8035L43.0828 12.2745L43.2968 11.8513L43.4038 11.4281L43.5108 11.0049V10.5817L43.4038 10.1585L43.1898 9.94686L43.0828 9.73525L42.6548 9.62945L42.2268 9.52365L41.6918 9.41785H38.3748L38.2678 9.52365H38.1608L38.0538 9.62945L37.9468 9.94686H37.7328L37.6258 10.0527L37.3048 10.2643ZM5.41862 7.30181L0.282593 31.0015L0.496594 30.8957L0.924596 30.5783L1.6736 30.2609L2.74361 29.7318L3.92061 29.2028L5.20462 28.4622L6.80963 27.7216L8.30764 26.981L9.91264 26.3462L11.4107 25.6056L12.9087 24.8649L14.2997 24.1243L15.4767 23.4895L16.5467 23.0663L17.2957 22.6431L17.8307 22.4315L18.5797 22.0083L19.3287 21.5851L20.1847 21.1619L21.0407 20.7387L21.7897 20.3155L22.7527 19.8923L23.6087 19.469L24.5717 19.0458L25.5347 18.6226L30.2428 16.7182L32.3828 15.9776L32.7038 15.8718L33.0248 15.766L33.4528 15.6602L34.8438 15.237L36.4488 14.8138L36.9838 14.7079L38.5888 14.2847L39.5518 14.1789L39.8728 14.0731L40.0868 13.9673H40.3008L40.5148 13.8615L40.6218 13.7557H40.7288V13.6499L40.6218 13.3325L40.4078 13.2267L40.0868 13.1209H39.8728L39.4448 13.0151H39.0168L38.4818 13.1209L37.5188 13.2267L36.4488 13.3325L35.3788 13.5441L34.2018 13.7557L33.0248 14.0731L31.7408 14.4963L30.5638 14.9196L29.2797 15.3428L28.1027 15.8718L26.9257 16.295L25.8557 16.7182L24.7857 17.1414L23.8227 17.4588L23.0737 17.7762L22.3247 18.0936L21.7897 18.411L18.7937 9.20624H37.8398L37.9468 8.78304L37.6258 8.35983L37.1978 8.14822L36.4488 7.93662L35.5928 7.83082L33.5598 7.51341L30.2428 7.196C30.2428 7.196 5.41862 7.196 5.41862 7.30181ZM188.176 16.295H55.1739L55.3879 14.2847H188.39L188.176 16.295ZM61.1659 11.9571L60.0959 11.8513L59.0259 11.6397L58.2769 11.4281L57.5279 11.0049L57.0999 10.4759L56.8859 9.62945L56.7789 8.88884L56.8859 7.93662L57.3139 6.24379L57.6349 4.65675L57.9559 3.38713L58.1699 2.32911L58.2769 1.37689L58.3839 0.636277L58.4909 0.213069L58.5979 0.107267H61.1659L61.0589 0.424673L60.9519 1.16529L60.6309 2.32911L60.4169 3.59873L60.0959 4.86836L59.6679 6.7728L59.5609 6.9844L59.4539 7.61921V8.67723L59.5609 9.10044L59.9889 9.62945L60.4169 9.84106L60.9519 9.94686L61.5939 10.0527L62.3429 9.94686L62.8779 9.84106L63.4129 9.62945L63.8409 9.20624L64.1619 8.78304L64.4829 8.35983L64.9109 7.0902L65.0179 6.45539L65.2319 5.50317L65.4459 4.33935L65.6599 3.06972L65.9809 1.9059L66.088 0.847881L66.1949 0.107267H66.409H68.977L68.549 2.32911L68.335 3.49293L68.228 3.91614V4.02194L68.121 4.44515L67.907 5.60897L67.372 7.83082L67.265 8.25402L67.051 8.67723L66.944 9.10044L66.516 9.62945L66.1949 10.0527L65.5529 10.6875L65.1249 10.8991L64.6969 11.1107L64.2689 11.3223L63.8409 11.4281L63.4129 11.6397L62.8779 11.7455L61.8079 11.8513C61.8079 11.9571 61.1659 11.9571 61.1659 11.9571ZM181.97 2.0117H178.332L177.69 2.11751L177.262 2.43491L177.155 2.54071L177.048 2.75232V3.06972L177.155 3.38713L177.369 3.70454L177.583 4.12774L178.332 4.86836L178.76 5.18577L179.188 5.50317L179.616 5.92638L180.365 6.66699L180.686 7.0902L181.114 8.04242L181.221 8.46563L181.114 8.99464L181.007 9.52365L180.793 10.0527L180.365 10.4759L179.83 10.8991L179.188 11.2165L178.439 11.4281L177.369 11.5339L176.299 11.6397H172.34L172.768 9.73525H177.048L177.476 9.62945L177.797 9.52365L178.011 9.41785L178.225 9.10044L178.332 8.78304L178.225 8.14822L177.797 7.51341L177.048 6.8786L176.299 6.13798L175.443 5.39737L174.694 4.55095L174.266 3.70454L174.159 2.64652L174.266 2.11751L174.587 1.48269L174.908 1.05949L175.443 0.636277L176.192 0.318871L176.941 0.107267L177.904 0.00146484H182.505L181.97 2.0117ZM172.768 2.0117H166.882L166.133 5.07996H171.27L170.842 6.66699H165.705L165.063 9.84106H170.949L170.521 11.7455H162.067L164.742 0.107267H173.196L172.768 2.0117ZM162.602 2.0117H158.964L156.824 11.7455H154.256L156.396 2.0117H152.758L153.186 0.107267H163.03L162.602 2.0117ZM144.519 11.6397L145.589 9.73525H149.227L148.157 2.32911L143.021 11.5339H140.453L147.194 0.107267H150.297L152.116 11.6397H144.519ZM144.091 2.0117H140.453L138.313 11.7455H135.745L137.885 2.0117H134.247L134.675 0.107267H144.519L144.091 2.0117ZM132.856 2.0117H129.218L128.79 2.11751L128.469 2.22331L128.255 2.32911L127.934 2.64652V3.17553L128.041 3.49293L128.148 3.81034L128.469 4.23355L129.218 4.97416L129.646 5.29157L130.074 5.60897L131.251 6.7728L131.572 7.196L131.893 7.51341L132 7.93662L132.107 8.35983V8.88884L132 9.41785L131.786 9.94686L131.358 10.3701L130.93 10.7933L130.181 11.1107L129.432 11.3223L128.469 11.4281L127.292 11.5339H123.333L123.761 9.62945H128.041L128.469 9.52365L128.683 9.62945L128.897 9.52365L129.111 9.20624L129.218 8.88884L129.111 8.25402L128.683 7.61921L127.934 6.9844L127.185 6.24379L126.329 5.50317L125.58 4.65675L125.152 3.81034L125.045 2.75232L125.152 2.22331L125.366 1.5885L125.794 1.16529L126.329 0.742079L126.971 0.424673L127.72 0.213069L128.683 0.107267H133.284L132.856 2.0117ZM109.102 5.82058L107.925 11.6397H113.168L113.81 11.5339H114.452L115.522 11.2165L116.164 11.0049L116.699 10.6875L117.662 10.0527L118.625 9.10044L119.374 8.04242L119.695 7.40761L119.909 6.7728L120.016 6.03218L120.123 5.71478L120.23 5.29157L120.337 4.23355L120.23 3.17553L120.123 2.43491L119.695 1.6943L119.053 0.953683L118.304 0.530475L117.234 0.213069L116.164 0.107267H110.386L109.102 5.82058ZM117.662 5.82058L117.555 6.24379L117.341 6.66699L117.234 7.0902L117.127 7.51341L116.913 7.83082L116.592 8.25402L115.95 8.88884L115.201 9.31205L114.773 9.52365L114.238 9.62945L113.275 9.73525H110.921L111.67 5.82058L112.526 1.9059H115.95L116.592 2.11751L117.02 2.43491L117.448 2.85812L117.662 3.28133L117.769 3.91614V5.18577L117.662 5.82058ZM108.139 2.0117H102.361L101.612 5.07996H106.748L106.427 6.66699H101.291L100.649 9.84106H106.427L106.106 11.7455H97.6531L100.114 0.107267H108.46C108.567 0.107267 108.139 2.0117 108.139 2.0117ZM97.9741 2.0117H94.3361L92.1961 11.7455H89.7351L91.8751 2.0117H88.2371L88.5581 0.107267H98.4021L97.9741 2.0117ZM84.278 11.6397H81.817L84.171 0.107267H86.7391L84.278 11.6397ZM79.249 11.6397H76.039L73.15 3.06972H73.043L71.224 11.6397H68.977L71.438 0.107267H74.755L77.537 8.78304L79.356 0.107267H81.71L79.249 11.6397ZM57.7419 26.5578H57.4209L57.3139 26.452H56.8859L56.7789 26.3462H56.6719L56.5649 24.7591H56.9929L57.0999 24.8649H57.5279L58.1699 24.7591L59.1329 24.4417L59.4539 24.1243L59.8819 23.4895L59.9889 23.1721V22.8547L60.0959 22.4315V22.0083L59.9889 21.6909L59.8819 21.4793L59.3469 21.2677H59.0259H58.8119H56.6719L54.5319 31.0015H51.9639L54.4249 19.469H59.9889L60.8449 19.5748L61.4869 19.8923L62.0219 20.3155L62.3429 20.8445L62.4499 21.3735L62.5569 22.0083V22.6431L62.4499 23.1721L62.3429 23.8069L61.9149 24.4417L61.4869 25.0766L60.8449 25.6056L60.2029 26.0288L58.5979 26.452L57.7419 26.5578ZM186.892 21.2677H180.9L180.258 24.3359H185.394L184.966 26.0288H179.83L179.188 29.2028H185.073L184.645 31.0015H176.192L178.653 19.469H187.106C187.32 19.3632 186.892 21.2677 186.892 21.2677ZM176.513 21.3735L176.192 21.2677H175.978L175.336 21.1619L174.908 21.0561H174.48L174.159 20.9503H173.731L172.875 21.0561L172.126 21.2677L171.377 21.5851L170.628 22.1141L170.092 22.6431L169.558 23.3837L169.236 24.2301L168.916 25.1824L168.809 26.1346L168.916 26.981L169.13 27.7216L169.451 28.2506L169.879 28.6738L170.521 29.097L171.27 29.3086L172.019 29.4144H172.447L172.875 29.3086H173.303L174.052 29.2028H174.373L174.801 29.097L175.122 28.9912L174.48 30.8957L174.159 31.0015H173.731L173.41 31.1073H172.982L172.661 31.2131H170.842L169.558 31.1073L169.023 31.0015L168.488 30.7899L168.059 30.5783L167.631 30.2609L167.203 29.7318L166.775 29.3086L166.561 28.8854L166.347 28.3564L166.133 27.9332L166.026 27.2984V26.6636L166.133 25.923L166.24 25.1824L166.454 24.4417L166.668 23.7011L167.311 22.4315L167.738 21.9025L168.701 20.9503L169.236 20.5271L170.307 19.8923L171.591 19.469L172.233 19.3632L172.875 19.2574L173.624 19.1516H175.229L175.55 19.2574H175.871L176.192 19.3632H176.513L176.834 19.469L176.513 21.3735ZM163.565 30.8957H160.997L163.458 19.3632H166.026L163.565 30.8957ZM155.219 30.8957H152.116L150.404 19.3632H152.972L154.149 28.6738L159.285 19.3632H161.746L155.219 30.8957ZM145.696 25.923L147.622 30.8957H144.84L142.7 24.6533H144.198L144.626 24.5475L145.054 24.4417L145.482 24.2301L145.803 24.0185L146.124 23.7011L146.231 23.2779L146.338 22.8547L146.445 22.5373V22.2199L146.338 21.7967L146.231 21.6909L145.91 21.5851L145.161 21.4793H142.807L140.667 31.2131H138.099L140.56 19.6806H146.017L146.766 19.7864L147.515 19.8923L148.05 20.1039L148.478 20.4213L148.799 20.8445L149.013 21.3735L149.12 22.0083V22.3257L149.013 23.0663L148.799 23.8069L148.478 24.4417L148.05 24.8649L147.622 25.2882L146.98 25.6056L146.445 25.8172L145.696 25.923ZM138.313 21.2677H132.428L131.786 24.3359H136.922L136.601 26.0288H131.465L130.823 29.2028H136.708L136.28 31.0015H127.72L130.181 19.469H138.634L138.313 21.2677ZM127.613 21.2677H124.296L123.547 21.3735L123.226 21.4793L123.119 21.5851L122.905 21.6909L122.798 22.0083V22.4315L122.905 22.7489L123.012 23.0663L123.333 23.3837L123.654 23.8069L124.082 24.1243L124.51 24.5475L124.938 24.8649L125.366 25.2882L125.794 25.6056L126.115 26.0288L126.436 26.452L126.757 26.8752L126.864 27.2984L126.971 27.8274V28.2506L126.864 28.8854L126.65 29.3086L125.687 30.2609L125.045 30.5783L124.189 30.7899L123.226 30.8957H117.983L118.411 29.097H122.691L123.119 28.9912L123.44 28.8854L123.654 28.7796L123.868 28.568L123.975 28.2506L123.868 27.6158L123.44 26.981L122.691 26.2404L121.942 25.4998L121.086 24.7591L120.337 23.9127L119.909 22.9605L119.802 22.0083L119.909 21.3735L120.123 20.8445L120.551 20.4213L121.086 19.9981L121.728 19.6806L122.477 19.469L123.44 19.3632L124.51 19.2574H127.934L127.613 21.2677ZM113.596 30.8957H105.678L108.139 19.3632H110.814L108.674 29.097H114.024L113.596 30.8957ZM96.7971 30.8957L97.8671 29.097H101.505L100.435 21.6909L95.2991 30.8957H92.7311L99.3651 19.3632H102.468L104.287 30.8957H96.7971ZM96.3691 21.2677H92.7311L90.5911 31.0015H88.0231L90.1631 21.2677H86.5251L86.9531 19.3632H96.7971L96.3691 21.2677ZM85.1341 21.2677H81.817L81.068 21.3735L80.854 21.4793L80.533 21.5851L80.212 21.9025L80.105 22.0083V22.4315L80.212 22.7489L80.64 23.3837L80.961 23.8069L81.389 24.1243L81.817 24.5475L82.245 24.8649L82.673 25.2882L83.101 25.6056L83.422 26.0288L83.85 26.452L84.064 26.8752L84.171 27.2984L84.278 27.8274L84.171 28.2506L84.064 28.8854L83.85 29.3086L83.529 29.7318L83.101 30.155L82.352 30.4725L81.496 30.7899L80.533 30.8957H75.504L75.825 29.097H80.212L80.533 28.9912L81.175 28.6738L81.282 28.4622L81.389 28.1448L81.496 27.6158L81.068 26.981L80.319 26.2404L79.463 25.4998L78.714 24.7591L77.965 23.9127L77.537 22.9605L77.323 22.1141L77.43 21.4793L77.751 20.9503L78.179 20.5271L78.607 20.1039L79.249 19.7864L80.105 19.5748L81.068 19.469L82.138 19.3632H85.562L85.1341 21.2677ZM63.3059 25.1824L63.1989 26.452L63.4129 28.039L63.8409 28.9912L64.1619 29.4144L64.9109 30.155L65.3389 30.4725L65.7669 30.6841L66.3019 30.8957L66.944 31.0015L67.586 31.1073H68.87L70.154 31.0015L70.796 30.8957L71.438 30.6841L71.973 30.4725L72.401 30.155L73.043 29.7318L73.471 29.3086L73.899 28.8854L74.327 28.4622L74.648 27.9332L75.29 26.6636L75.504 25.923L75.611 25.1824L75.718 24.5475V23.3837L75.611 22.7489L75.504 22.2199L75.29 21.2677L74.648 20.5271L74.22 20.2097L73.792 19.8923L73.364 19.6806L72.722 19.469L72.187 19.3632L71.438 19.1516H70.154L68.87 19.2574L68.228 19.3632L67.586 19.5748L67.051 19.7864L66.6229 20.3155L66.088 20.7387L65.5529 20.9503L65.1249 21.3735L64.6969 21.9025L64.2689 22.3257L63.9479 22.9605L63.7339 23.5953L63.5199 24.4417L63.3059 25.1824ZM73.15 25.1824L72.936 26.1346L72.508 26.981L72.08 27.6158L71.545 28.1448L70.903 28.6738L70.154 29.097L69.405 29.3086L68.549 29.4144L67.693 29.3086L67.051 28.9912L66.6229 28.568L66.1949 28.039L65.9809 27.51L65.8739 26.7694V26.0288L65.9809 25.2882L66.1949 24.3359L66.6229 23.3837L67.051 22.6431L67.586 22.1141L68.228 21.5851L68.977 21.2677L69.726 21.0561L70.582 20.9503L71.331 21.0561L71.973 21.2677L72.508 21.6909L72.936 22.1141L73.15 22.7489L73.257 23.4895V24.2301C73.257 24.3359 73.15 25.1824 73.15 25.1824Z" fill="#31225C"/>
</svg>
