<svg width="370" height="490" viewBox="0 0 370 490" fill="none" xmlns="http://www.w3.org/2000/svg">
<path d="M161.807 51.0705L87.1352 76.3142C83.0885 77.6631 80.487 81.8062 80.8724 86.3346L87.4242 181.432C87.8097 187.599 93.4943 191.742 98.9863 189.911L191.579 159.561C196.3 158.019 198.998 152.624 197.649 147.517L173.176 57.5259C171.634 52.4194 166.624 49.4325 161.807 51.0705Z" fill="url(#paint0_linear_202_582)"/>
<path d="M173.176 134.799V146.072C173.176 149.926 176.067 153.202 179.824 153.78L196.107 156.092C195.048 157.634 193.41 158.886 191.579 159.464L98.9864 189.911C85.2084 192.609 84.3412 189.14 83.9558 182.974L61.9879 177.482L173.176 134.799Z" fill="#7A43EE"/>
<g filter="url(#filter0_i_202_582)">
<path d="M119.142 121.37C120.172 121.239 121.276 121.005 122.38 120.771C136.049 117.169 145.233 102.382 142.841 87.7787L133.941 33.9121C132.774 26.8385 129.029 20.7431 123.48 16.9157C117.834 13.0082 110.872 11.7693 104.123 13.5591C90.4545 17.1605 81.27 31.9484 83.6622 46.5512L92.5623 100.418C93.7292 107.491 97.4748 113.587 103.023 117.414C107.718 120.703 113.393 122.106 119.142 121.37ZM120.589 113.592C115.693 114.867 110.713 114.115 106.689 111.296C102.762 108.558 100.217 104.346 99.3067 99.2769L90.4067 45.4103C88.5784 34.532 95.534 23.4556 105.829 20.749C110.724 19.4742 115.705 20.2258 119.729 23.0445C123.655 25.7831 126.2 29.9949 127.111 35.0641L135.925 88.9417C137.753 99.8199 130.798 110.896 120.589 113.592Z" fill="white"/>
</g>
<g filter="url(#filter1_i_202_582)">
<path d="M96.1535 117.399C97.3004 117.252 98.5306 116.998 99.7608 116.743C114.999 112.85 125.338 97.2482 122.795 81.9347L113.332 25.447C112.091 18.0292 107.973 11.6595 101.831 7.68599C95.5806 3.6291 87.8448 2.38501 80.3215 4.31922C65.0836 8.21211 54.7442 23.8144 57.2868 39.1279L66.7504 95.6155C67.9911 103.033 72.1089 109.403 78.2514 113.377C83.448 116.791 89.7503 118.219 96.1535 117.399ZM97.8266 109.22C92.3691 110.598 86.8336 109.85 82.3794 106.923C78.0329 104.079 75.2354 99.6778 74.2637 94.3625L64.8002 37.8749C62.8546 26.4676 70.684 14.7806 82.1601 11.8548C87.6176 10.4764 93.153 11.225 97.6073 14.1518C101.954 16.9953 104.751 21.397 105.723 26.7122L115.091 83.2121C117.036 94.6194 109.207 106.306 97.8266 109.22Z" fill="white"/>
</g>
<path d="M133.383 37.7742L53.6053 64.5595C49.3659 66.0048 46.5717 70.1479 47.0534 74.6763L56.3994 169.678C56.9775 175.844 63.1439 179.891 69.0213 177.964L167.973 145.494C172.983 143.856 175.777 138.46 174.139 133.354L145.716 43.9406C144.078 38.834 138.49 36.0399 133.383 37.7742Z" fill="url(#paint1_linear_202_582)"/>
<path d="M283.308 200.058C256.708 208.058 236.108 162.658 261.908 150.058C251.808 154.958 238.908 158.658 228.908 163.658C219.608 168.358 216.008 179.358 216.908 189.658C218.308 206.558 237.708 224.258 254.908 216.658C265.608 211.958 275.608 204.058 286.008 198.958C285.108 199.358 284.208 199.758 283.308 200.058Z" fill="#CDD8F7"/>
<path d="M369.008 196.458C368.808 191.558 367.608 186.858 365.808 182.258C362.308 173.358 355.908 166.558 350.008 159.158C334.308 139.258 318.508 119.358 302.808 99.4582C295.308 89.9582 288.308 77.3582 275.408 74.4582C269.008 73.0582 263.708 75.0582 258.008 77.8582C248.308 82.5582 238.608 87.3582 229.008 92.0582C249.908 81.8582 259.908 107.758 270.908 121.658C281.408 134.958 292.408 147.358 302.908 160.658C307.908 166.958 313.908 173.358 318.908 179.658C322.708 184.458 326.108 189.258 328.908 194.658C334.008 204.358 330.908 212.958 330.908 223.658C330.908 239.958 327.908 255.358 327.908 271.658C327.808 304.958 331.008 337.358 330.908 370.658C330.908 388.258 331.108 406.058 329.908 423.658C329.408 431.658 333.208 439.958 325.608 443.658C334.508 439.258 343.408 434.958 352.308 430.558C359.208 427.158 364.808 423.358 367.208 415.658C368.608 411.158 368.508 406.458 368.508 401.858C368.508 388.858 368.608 375.958 368.608 362.958C368.708 336.658 368.708 310.458 368.808 284.158C368.908 254.958 369.908 225.558 369.008 196.458Z" fill="#CDD8F7"/>
<path d="M332.008 192.458C339.108 206.758 337.508 221.858 337.508 237.458C337.508 253.758 337.408 270.058 337.408 286.258C337.308 319.158 337.308 352.158 337.208 385.058C337.208 392.858 337.208 400.558 337.108 408.358C337.108 415.458 337.908 423.058 336.108 429.958C333.608 439.658 325.808 445.958 315.708 445.658C308.808 445.458 301.808 443.758 295.008 442.658C286.508 441.358 277.908 439.958 269.408 438.658C253.608 436.158 237.708 433.658 221.908 431.158C206.008 428.658 190.108 426.158 174.208 423.458C162.008 421.358 151.908 414.058 148.408 401.858C146.808 396.158 147.008 390.158 147.008 384.258C147.008 375.358 147.008 366.458 147.108 357.458C147.108 341.058 147.208 324.758 147.208 308.358C147.308 275.658 147.308 242.958 147.508 210.158C147.608 195.858 144.708 177.158 152.708 164.358C156.208 158.558 162.908 153.858 168.008 149.058C174.408 142.958 180.908 136.858 187.308 130.758C193.808 124.658 200.208 118.558 206.708 112.458C213.308 106.258 219.708 98.9582 226.908 93.4582C232.708 88.9582 240.608 88.1582 247.408 90.8582C255.108 93.8582 259.608 99.9582 264.508 106.158C275.908 120.558 287.308 135.058 298.708 149.458C304.208 156.358 309.708 163.258 315.108 170.258C320.708 177.258 328.008 184.558 332.008 192.458ZM259.308 211.058C280.308 190.758 248.208 147.058 225.608 168.758C216.408 177.658 217.208 192.958 223.708 203.158C231.008 214.558 248.208 221.758 259.308 211.058Z" fill="url(#paint2_linear_202_582)"/>
<path d="M232.608 313.938C240.988 306.866 249.299 299.865 257.609 292.792C259.687 295.578 261.626 298.293 263.703 301.079C263.426 301.365 263.149 301.651 262.872 301.865C253.869 309.437 244.797 317.01 235.725 324.582C234.478 325.654 233.232 326.011 231.985 325.797C230.669 325.582 229.423 324.654 228.245 323.01C224.021 317.081 219.796 311.152 215.502 305.222C215.295 304.865 215.018 304.508 214.81 304.151C217.095 302.365 219.381 300.579 221.735 298.793C225.406 303.794 228.938 308.794 232.608 313.938ZM241.196 242.357C240.503 242.214 239.88 242.143 239.187 242C238.01 242.714 236.694 243.214 235.655 244.072C226.306 251.787 215.295 255.287 202.829 254.859C199.297 254.716 195.626 254.287 192.094 253.787C188.424 253.359 186.762 254.716 186.693 258.645C186.416 268.503 186 278.29 186 288.149C186 300.436 187.177 312.795 190.848 325.154C195.557 341.013 204.006 354.3 216.126 365.159C222.289 370.659 229.007 375.232 236.002 379.161C236.694 379.518 237.387 379.804 238.079 379.946C238.633 380.018 239.187 380.018 239.741 379.946C250.753 377.66 260.933 373.66 269.659 366.445C278.732 358.944 284.688 348.942 288.22 336.869C290.574 328.94 291.959 320.653 292.306 312.08C292.721 300.293 292.79 288.435 292.998 276.576C293.067 273.218 291.267 271.075 288.012 270.504C281.779 269.361 275.546 267.646 269.521 264.86C260.31 260.717 252.207 254.43 245.213 246.286C243.966 244.858 242.512 243.643 241.196 242.357Z" fill="#CDD8F7"/>
<path d="M51.0485 333.194C43.5944 332.186 38.0038 334.654 31.557 337.878C25.0095 341.101 18.462 344.375 11.9648 347.598C19.4693 343.871 25.211 352.383 33.1184 353.491C38.306 354.196 46.2638 349.16 51.5018 349.361C53.0128 349.411 53.6171 349.009 54.977 348.303C62.6326 344.526 70.2881 340.698 77.9437 336.921C68.9786 335.662 60.0136 334.403 51.0485 333.194Z" fill="url(#paint3_linear_202_582)"/>
<path d="M156.212 364.068C156.161 361.751 155.607 359.887 153.643 358.477C151.528 356.966 148.909 356.11 146.642 354.851C143.368 353.088 140.246 351.124 137.325 348.857C126.244 340.295 118.941 328.157 116.574 314.357C115.214 306.248 116.121 298.039 115.164 289.93C114.71 286.152 113.048 282.123 109.724 280.008C104.436 276.633 97.0321 277.993 91.7437 280.562C83.5845 284.541 75.4756 288.62 67.3164 292.649C71.7486 290.484 75.7274 296.276 80.4114 298.039C86.6064 300.406 84.2896 301.715 84.4407 307.608C84.8436 322.113 87.9663 336.82 96.0248 349.411C99.7518 355.203 107.508 358.175 113.048 362.204C115.516 364.017 118.135 365.679 120.855 367.14C123.373 368.5 119.042 373.637 121.208 375.551C122.366 376.558 123.524 381.595 123.726 383.106C124.381 387.891 123.323 390.862 123.222 395.697C123.021 406.979 122.87 412.62 122.718 423.902C122.618 430.45 121.308 435.486 121.208 442.034C121.107 447.926 116.826 455.33 116.171 461.173C115.315 468.677 124.431 476.131 117.531 479.606C125.69 474.922 134.605 471.397 142.915 467.015C149.563 463.54 153.593 456.992 154.65 449.639C155.406 444.099 155.104 438.307 155.204 432.716C155.305 425.614 155.406 418.513 155.506 411.411C155.708 395.697 156.413 379.832 156.212 364.068Z" fill="#FB7354"/>
<path d="M202.901 460.77C203.203 442.89 203.455 425.06 203.757 407.181C203.908 398.266 204.059 389.301 204.16 380.386C204.21 376.709 204.512 373.184 203.606 369.608C203.152 367.744 202.548 365.982 201.692 364.269C198.771 358.376 193.432 353.692 186.935 352.181C180.639 350.721 175.854 353.189 170.415 355.858C163.666 359.182 156.917 362.557 150.168 365.881C164.17 358.981 175.351 374.443 175.149 388.243C174.746 414.836 174.041 440.724 173.638 467.317C173.588 472.102 175.049 475.174 172.631 479.405C170.969 482.276 170.919 485.801 167.947 487.262C175.351 483.988 182.503 480.06 189.755 476.484C192.626 475.073 195.547 473.764 197.814 471.447C200.735 468.375 201.742 464.748 202.901 460.77Z" fill="#7A43EE"/>
<path d="M130.777 377.364C130.576 391.416 130.324 405.468 130.123 419.571C130.022 426.672 129.921 433.774 129.82 440.875C129.72 447.624 130.022 454.524 129.367 461.223C128.46 470.188 122.971 478.549 114.006 481.017C108.667 482.477 103.127 481.218 97.7375 480.513C90.7367 479.556 83.6855 478.599 76.6847 477.642C62.6327 475.728 48.5807 473.966 34.5791 471.699C24.9089 470.138 17.1023 463.439 13.3752 454.424C11.0584 448.833 10.6555 442.588 9.74892 436.645C8.69124 429.593 7.63357 422.593 6.57589 415.541C4.5109 401.49 2.19409 387.387 0.280199 373.335C-1.07967 363.161 2.44592 352.081 12.2672 347.447C17.7067 344.879 23.1965 345.433 28.9886 346.239C36.8456 347.296 44.7026 348.404 52.5596 349.512C50.8472 335.863 49.3362 322.164 54.3728 308.918C58.5028 298.089 67.2664 288.973 79.757 290.937C93.3053 293.103 89.7294 311.386 90.4849 321.106C91.4418 332.942 95.6222 344.325 103.429 353.34C108.163 358.88 114.006 363.363 120.352 366.888C122.971 368.349 126.144 369.356 128.511 371.169C130.475 372.731 130.828 374.896 130.777 377.364Z" fill="url(#paint4_linear_202_582)"/>
<path d="M177.668 380.336C179.33 385.574 178.776 390.913 178.675 396.302C178.574 401.892 178.524 407.483 178.423 413.074C178.272 424.255 178.07 435.385 177.919 446.567C177.819 452.157 177.768 457.748 177.668 463.338C177.567 468.224 177.97 473.16 176.257 477.844C173.638 484.945 166.839 489.428 159.284 489.025C151.175 488.571 144.376 482.779 141.153 475.577C139.289 471.397 139.138 467.216 139.188 462.734C139.239 457.143 139.339 451.553 139.39 445.912C139.541 434.731 139.742 423.499 139.893 412.318C139.994 406.727 140.095 401.137 140.196 395.546C140.296 390.308 139.893 384.818 140.649 379.631C141.858 370.918 149.11 363.917 158.126 364.32C167.343 364.723 174.948 371.723 177.668 380.336Z" fill="url(#paint5_linear_202_582)"/>
<defs>
<filter id="filter0_i_202_582" x="79.2832" y="8.75635" width="63.9365" height="112.805" filterUnits="userSpaceOnUse" color-interpolation-filters="sRGB">
<feFlood flood-opacity="0" result="BackgroundImageFix"/>
<feBlend mode="normal" in="SourceGraphic" in2="BackgroundImageFix" result="shape"/>
<feColorMatrix in="SourceAlpha" type="matrix" values="0 0 0 0 0 0 0 0 0 0 0 0 0 0 0 0 0 0 127 0" result="hardAlpha"/>
<feOffset dx="-4" dy="-4"/>
<feGaussianBlur stdDeviation="3"/>
<feComposite in2="hardAlpha" operator="arithmetic" k2="-1" k3="1"/>
<feColorMatrix type="matrix" values="0 0 0 0 0.803922 0 0 0 0 0.847059 0 0 0 0 0.968627 0 0 0 1 0"/>
<feBlend mode="normal" in2="shape" result="effect1_innerShadow_202_582"/>
</filter>
<filter id="filter1_i_202_582" x="52.9023" y="-0.574219" width="70.2773" height="118.199" filterUnits="userSpaceOnUse" color-interpolation-filters="sRGB">
<feFlood flood-opacity="0" result="BackgroundImageFix"/>
<feBlend mode="normal" in="SourceGraphic" in2="BackgroundImageFix" result="shape"/>
<feColorMatrix in="SourceAlpha" type="matrix" values="0 0 0 0 0 0 0 0 0 0 0 0 0 0 0 0 0 0 127 0" result="hardAlpha"/>
<feOffset dx="-4" dy="-4"/>
<feGaussianBlur stdDeviation="3"/>
<feComposite in2="hardAlpha" operator="arithmetic" k2="-1" k3="1"/>
<feColorMatrix type="matrix" values="0 0 0 0 0.803922 0 0 0 0 0.847059 0 0 0 0 0.968627 0 0 0 1 0"/>
<feBlend mode="normal" in2="shape" result="effect1_innerShadow_202_582"/>
</filter>
<linearGradient id="paint0_linear_202_582" x1="80.4644" y1="67.6088" x2="214.324" y2="134.947" gradientUnits="userSpaceOnUse">
<stop stop-color="#B565E5"/>
<stop offset="1" stop-color="#7A43EE"/>
</linearGradient>
<linearGradient id="paint1_linear_202_582" x1="35.9774" y1="59.9917" x2="174.329" y2="233.708" gradientUnits="userSpaceOnUse">
<stop offset="0.00312487" stop-color="#B565E5"/>
<stop offset="1" stop-color="#7A43EE"/>
</linearGradient>
<linearGradient id="paint2_linear_202_582" x1="199" y1="267" x2="296" y2="523.5" gradientUnits="userSpaceOnUse">
<stop stop-color="white"/>
<stop offset="1" stop-color="#CDD8F7"/>
</linearGradient>
<linearGradient id="paint3_linear_202_582" x1="77.9437" y1="343.262" x2="11.9648" y2="343.262" gradientUnits="userSpaceOnUse">
<stop stop-color="#FB7354"/>
<stop offset="1" stop-color="#F8BA55"/>
</linearGradient>
<linearGradient id="paint4_linear_202_582" x1="136.5" y1="515.5" x2="-35.5997" y2="401.99" gradientUnits="userSpaceOnUse">
<stop stop-color="#FB7354"/>
<stop offset="0.648958" stop-color="#F8BA55"/>
<stop offset="1" stop-color="#E8F0FF"/>
</linearGradient>
<linearGradient id="paint5_linear_202_582" x1="179" y1="501" x2="112.569" y2="478.753" gradientUnits="userSpaceOnUse">
<stop stop-color="#7A43EE"/>
<stop offset="1" stop-color="#B565E6"/>
</linearGradient>
</defs>
</svg>
