<svg width="513" height="654" viewBox="0 0 513 654" fill="none" xmlns="http://www.w3.org/2000/svg" xmlns:xlink="http://www.w3.org/1999/xlink">
   <path d="M512.613 388.616C524.645 606.113 253.411 741.611 100.998 588.613C27.7034 515.036 86.5465 378.637 67.4076 252.118C32.3127 20.1213 237.064 -55.3393 366.216 40.6209C492.055 134.12 506.231 273.257 512.613 388.616Z" fill="url(#pattern0)"/>
   <path d="M512.613 388.616C524.645 606.113 253.411 741.611 100.998 588.613C27.7034 515.036 86.5465 378.637 67.4076 252.118C32.3127 20.1213 237.064 -55.3393 366.216 40.6209C492.055 134.12 506.231 273.257 512.613 388.616Z" fill="url(#paint0_linear_203_1091)" style="mix-blend-mode:soft-light"/>

   <g>
      <path d="M0 158L9 105.5L16.5 149.5L0 158Z" fill="#FB7354"/>
      <path d="M24.451 198.082L8.99926 105.601L93.3719 118.222L111.96 222.101L24.451 198.082Z" fill="url(#paint1_linear_203_1091)"/>
      <path d="M111.96 222.101L203.753 149.355L187.46 63.6824L93.3723 118.222L111.96 222.101Z" fill="url(#paint2_linear_203_1091)"/>
      <path d="M123.129 62L187.46 63.6829L93.3725 118.223L8.99983 105.601L123.129 62Z" fill="url(#paint3_linear_203_1091)"/>
      <path d="M139 154.5L93.5 118L187.5 63.5L223.5 89L139 154.5Z" fill="#F8BA55"/>
      <path d="M123.129 62L129.999 97L93.3728 118.223L9.00009 105.601L123.129 62Z" fill="#FB7354"/>
      <path d="M62.6601 155.161L25.768 145.108C24.4961 144.77 23.5366 143.742 23.3645 142.417L19.7502 120.237C19.3977 117.999 21.3555 116.036 23.6211 116.408L59.2895 122.344C60.6776 122.557 61.7356 123.63 62.0332 125.071L66.8713 151.367C67.2777 153.748 65.0067 155.748 62.6601 155.161Z" fill="#F8BA55"/>
   </g>

   <g>
      <g filter="url(#filter0_i_203_1091)">
         <circle cx="102.685" cy="557.685" r="65.0624" transform="rotate(15 102.685 557.685)" fill="#E8F0FF"/>
      </g>
      <path d="M114.681 572.829C115.005 572.908 115.356 572.911 115.683 572.863C116.01 572.814 116.327 572.676 116.618 572.486C116.91 572.297 117.177 572.055 117.366 571.784C117.57 571.476 117.734 571.154 117.822 570.802C117.909 570.451 117.919 570.07 117.915 569.727C117.872 569.369 117.777 569.035 117.615 568.761C117.466 568.449 117.251 568.198 116.984 567.97C116.716 567.742 116.42 567.588 116.097 567.51C115.773 567.432 115.421 567.428 115.094 567.477C114.767 567.525 114.451 567.663 114.159 567.853C113.868 568.043 113.601 568.284 113.411 568.555C113.208 568.863 113.043 569.186 112.956 569.537C112.854 569.926 112.82 570.255 112.863 570.612C112.905 570.97 113.001 571.304 113.163 571.578C113.325 571.853 113.526 572.141 113.808 572.332C114.062 572.597 114.357 572.751 114.681 572.829ZM117.062 563.986C117.825 564.186 118.533 564.536 119.145 565.022C119.758 565.507 120.237 566.113 120.611 566.765C120.971 567.455 121.225 568.19 121.322 568.995C121.418 569.799 121.37 570.635 121.178 571.502C120.947 572.355 120.614 573.127 120.141 573.804C119.667 574.481 119.066 575.024 118.402 575.502C117.753 575.942 117.014 576.263 116.202 576.429C115.429 576.61 114.595 576.597 113.779 576.419L113.74 576.405L113.702 576.391L113.663 576.376L113.624 576.362C112.861 576.161 112.153 575.811 111.579 575.341C110.967 574.855 110.487 574.249 110.114 573.597C109.754 572.907 109.475 572.12 109.378 571.315C109.282 570.511 109.305 569.623 109.536 568.77C109.728 567.903 110.1 567.145 110.574 566.469C111.047 565.792 111.662 565.211 112.35 564.785C113.039 564.36 113.777 564.038 114.551 563.858C115.31 563.715 116.157 563.691 116.921 563.891L116.96 563.905L116.998 563.92C117.023 563.972 117.023 563.972 117.062 563.986ZM78.3654 563.985C78.7278 564.078 79.0795 564.081 79.4452 564.047C79.7722 563.999 80.1272 563.875 80.4188 563.685C80.7104 563.496 80.9773 563.254 81.2195 562.96C81.4617 562.667 81.6265 562.344 81.7279 561.955C81.8292 561.566 81.8779 561.2 81.8351 560.843C81.7923 560.485 81.7109 560.113 81.5099 559.824C81.3617 559.513 81.1221 559.21 80.8545 558.982C80.5868 558.753 80.2524 558.586 79.8654 558.441C79.8654 558.441 79.8654 558.441 79.8266 558.426C79.7879 558.412 79.8266 558.426 79.7879 558.412C79.7492 558.397 79.7879 558.412 79.7492 558.397C79.7105 558.383 79.7492 558.397 79.7105 558.383C79.3481 558.29 78.9964 558.287 78.6694 558.335C78.3425 558.384 77.9874 558.507 77.6571 558.682C77.3655 558.872 77.0599 559.099 76.8564 559.407C76.6142 559.701 76.4495 560.024 76.3481 560.413C76.2467 560.802 76.1981 561.168 76.2408 561.525C76.2836 561.883 76.4038 562.269 76.566 562.543C76.7529 562.869 76.9538 563.158 77.2742 563.363C77.5418 563.591 77.8762 563.759 78.2773 563.866C78.2773 563.866 78.2773 563.866 78.316 563.881C78.3547 563.895 78.316 563.881 78.3547 563.895C78.3267 563.97 78.3267 563.97 78.3654 563.985ZM80.7703 554.724C81.6499 554.967 82.4348 555.346 83.0862 555.846C83.7376 556.346 84.2803 557.019 84.6788 557.723C85.0774 558.427 85.3424 559.251 85.4634 560.108C85.5843 560.964 85.5224 561.838 85.3163 562.742C85.0716 563.633 84.686 564.428 84.1983 565.142C83.6718 565.841 83.0573 566.423 82.316 566.871C81.5746 567.32 80.7979 567.627 79.947 567.778C79.0962 567.929 78.2239 567.902 77.369 567.71C76.5141 567.519 75.7292 567.14 75.0391 566.625C74.349 566.111 73.7923 565.476 73.3691 564.72C72.9318 564.002 72.6668 563.177 72.5458 562.32C72.4249 561.464 72.4621 560.539 72.7069 559.648C72.9516 558.758 73.3513 557.926 73.8777 557.226C74.4041 556.526 75.0713 555.922 75.7987 555.511C76.54 555.063 77.3555 554.77 78.2063 554.619C79.0572 554.467 79.9294 554.495 80.7703 554.724ZM91.0287 545.583C91.391 545.675 91.7534 545.768 92.1158 545.861C92.4782 545.954 92.8406 546.047 93.203 546.14C93.5654 546.233 93.9278 546.325 94.2901 546.418C94.6525 546.511 95.0149 546.604 95.3773 546.697C95.6623 546.761 95.9225 546.773 96.1968 546.747C96.4711 546.722 96.7347 546.607 96.9596 546.478C97.1844 546.348 97.4233 546.181 97.5988 545.948C97.813 545.729 97.9497 545.482 98.0478 545.22C98.2826 544.71 98.4927 544.148 98.7276 543.638C98.9624 543.128 99.1725 542.567 99.4073 542.057C99.6422 541.547 99.8523 540.985 100.048 540.461C100.244 539.936 100.493 539.389 100.689 538.865C100.703 538.827 100.717 538.79 100.731 538.752C100.745 538.715 100.759 538.678 100.773 538.64C100.787 538.603 100.802 538.565 100.816 538.528C100.83 538.49 100.844 538.453 100.872 538.378C100.678 538.306 100.47 538.271 100.277 538.198C100.083 538.126 99.8758 538.091 99.6823 538.019C99.4887 537.946 99.2812 537.911 99.0876 537.839C98.8941 537.766 98.6865 537.731 98.493 537.659C98.3769 537.616 98.2467 537.61 98.1306 537.566C98.0145 537.523 97.8843 537.517 97.7682 537.473C97.6521 537.43 97.5219 537.424 97.4058 537.381C97.2897 537.337 97.1596 537.331 97.0434 537.288C96.5649 537.151 96.1358 537.119 95.654 537.109C95.2109 537.115 94.7537 537.157 94.3213 537.251C93.8889 537.346 93.4811 537.492 93.0594 537.676C92.6377 537.86 92.2653 538.147 91.8543 538.421C91.3485 538.829 90.8427 539.237 90.3369 539.646C89.8312 540.054 89.3254 540.463 88.8056 540.909C88.2998 541.317 87.78 541.763 87.2742 542.172C86.7684 542.58 86.2487 543.026 85.7429 543.435C85.6901 543.458 85.6761 543.495 85.6234 543.518C85.5707 543.541 85.5567 543.579 85.49 543.639C85.4373 543.662 85.4092 543.737 85.3565 543.76C85.2898 543.82 85.2371 543.843 85.1704 543.904C85.6876 544.055 86.1661 544.191 86.6973 544.304C87.1758 544.44 87.6931 544.591 88.1856 544.69C88.6641 544.826 89.1813 544.977 89.6738 545.076C90.0329 545.296 90.5114 545.432 91.0287 545.583ZM100.922 534.469C101.245 534.547 101.594 534.678 101.917 534.756C102.241 534.835 102.589 534.965 102.913 535.043C103.237 535.122 103.585 535.252 103.909 535.33C104.232 535.409 104.581 535.539 104.905 535.617C105.862 535.89 106.78 536.148 107.737 536.421C108.655 536.679 109.612 536.951 110.531 537.209C111.449 537.467 112.406 537.74 113.324 537.998C114.243 538.256 115.161 538.514 116.079 538.772C117.321 539.109 118.588 539.497 119.83 539.834C121.072 540.17 122.3 540.544 123.542 540.881C124.784 541.217 126.012 541.591 127.215 541.913C128.457 542.25 129.646 542.609 130.888 542.945C130.888 542.945 130.888 542.945 130.927 542.96C130.966 542.974 130.927 542.96 130.966 542.974C130.966 542.974 130.966 542.974 131.005 542.989C131.043 543.003 131.005 542.989 131.043 543.003C131.082 543.018 131.159 543.047 131.198 543.061C131.237 543.076 131.314 543.105 131.353 543.119C131.392 543.134 131.469 543.163 131.508 543.177C131.547 543.192 131.624 543.221 131.663 543.235C131.881 543.359 132.06 543.469 132.212 543.654C132.363 543.839 132.476 544.009 132.536 544.202C132.596 544.395 132.643 544.626 132.636 544.88C132.629 545.133 132.584 545.373 132.5 545.597C132.43 545.785 132.321 545.957 132.212 546.13C132.118 546.265 131.984 546.386 131.812 546.493C131.654 546.562 131.496 546.631 131.338 546.699C131.179 546.768 130.997 546.785 130.814 546.802C130.8 546.84 130.8 546.84 130.786 546.877C130.772 546.915 130.772 546.915 130.772 546.915L130.758 546.952L130.744 546.99C130.629 547.886 130.514 548.782 130.438 549.693C130.324 550.589 130.209 551.486 130.133 552.397C130.019 553.293 129.904 554.189 129.828 555.1C129.713 555.996 129.599 556.893 129.537 557.766C129.502 558.095 129.468 558.423 129.419 558.789C129.384 559.118 129.35 559.446 129.301 559.812C129.266 560.141 129.232 560.469 129.183 560.835C129.148 561.164 129.114 561.493 129.065 561.859C128.848 562.674 128.632 563.49 128.415 564.305C128.198 565.12 127.981 565.936 127.765 566.751C127.548 567.567 127.331 568.382 127.114 569.198C126.898 570.013 126.681 570.828 126.464 571.644C126.289 571.877 126.088 572.058 125.902 572.202C125.716 572.346 125.505 572.438 125.308 572.492C125.112 572.547 124.89 572.549 124.721 572.529C124.514 572.494 124.306 572.459 124.098 572.424C124.021 572.395 123.905 572.352 123.813 572.36C123.736 572.331 123.62 572.288 123.543 572.259C123.465 572.23 123.349 572.186 123.272 572.157C123.194 572.128 123.078 572.085 122.987 572.094C123.28 570.837 123.299 569.606 123.132 568.519C122.965 567.432 122.587 566.437 122.101 565.615C121.575 564.778 120.916 564.062 120.202 563.496C119.448 562.915 118.624 562.521 117.784 562.292C117.784 562.292 117.784 562.292 117.745 562.278C117.706 562.263 117.745 562.278 117.706 562.263C117.706 562.263 117.706 562.263 117.667 562.249C117.667 562.249 117.667 562.249 117.629 562.234C116.696 562.014 115.708 561.943 114.727 562.088C113.746 562.234 112.773 562.595 111.873 563.113C110.973 563.63 110.134 564.341 109.46 565.199C108.772 566.094 108.211 567.122 107.893 568.327C106.197 567.906 104.502 567.485 102.806 567.064C101.11 566.643 99.4141 566.222 97.6795 565.787C95.945 565.352 94.2492 564.931 92.5147 564.496C90.7802 564.06 89.0069 563.611 87.2584 563.213C87.5518 561.956 87.571 560.725 87.418 559.601C87.2263 558.462 86.8097 557.452 86.2736 556.526C85.6849 555.623 84.9626 554.84 84.1457 554.193C83.3147 553.584 82.3891 553.109 81.3793 552.86C81.3793 552.86 81.3793 552.86 81.3406 552.845C81.3406 552.845 81.3406 552.845 81.3019 552.831C81.3019 552.831 81.3019 552.831 81.2632 552.816C81.2632 552.816 81.2632 552.816 81.2245 552.802C80.2921 552.581 79.2511 552.533 78.2314 552.664C77.2117 552.795 76.1994 553.142 75.2224 553.631C74.2842 554.133 73.3921 554.867 72.6128 555.771C71.8722 556.689 71.2304 557.815 70.8315 559.118C70.7154 559.074 70.624 559.083 70.5078 559.039C70.3917 558.996 70.3003 559.004 70.1842 558.961C70.068 558.917 69.9766 558.926 69.8605 558.883C69.7444 558.839 69.6529 558.848 69.5368 558.804C69.2906 558.755 69.0583 558.668 68.8648 558.595C68.6325 558.509 68.453 558.399 68.2874 558.251C68.1219 558.104 67.9704 557.919 67.8329 557.697C67.6954 557.475 67.6246 557.192 67.5678 556.872C67.7392 556.296 67.8859 555.668 68.0573 555.092C68.2288 554.515 68.3755 553.887 68.5469 553.311C68.7183 552.735 68.851 552.144 69.0364 551.53C69.2078 550.954 69.3405 550.363 69.5259 549.75C69.54 549.712 69.554 549.675 69.6067 549.652C69.6207 549.614 69.6347 549.577 69.6874 549.554C69.7014 549.516 69.7154 549.479 69.7681 549.456C69.7822 549.418 69.7962 549.381 69.8102 549.344C70.059 548.796 70.3712 548.315 70.6975 547.797C71.0097 547.316 71.3994 546.864 71.775 546.45C72.1507 546.035 72.6038 545.65 73.0428 545.302C73.5206 544.968 73.9843 544.672 74.5255 544.405C74.9472 544.221 75.369 544.037 75.7907 543.853C76.2125 543.67 76.6342 543.486 77.0946 543.317C77.5164 543.133 77.9628 543.001 78.3845 542.817C78.8063 542.633 79.2527 542.501 79.6991 542.37C80.0542 542.246 80.4619 542.1 80.8309 541.939C81.1999 541.778 81.5689 541.617 81.8993 541.442C82.2296 541.267 82.5739 541.054 82.9182 540.841C83.2625 540.629 83.5821 540.364 83.863 540.085C84.3301 539.662 84.8359 539.253 85.303 538.83C85.8088 538.422 86.2618 538.036 86.7676 537.628C87.2734 537.219 87.7652 536.848 88.2322 536.425C88.724 536.054 89.2298 535.646 89.7216 535.275C90.2941 534.806 90.8773 534.426 91.4852 534.099C92.0931 533.771 92.7117 533.533 93.341 533.384C93.9843 533.198 94.6242 533.138 95.3029 533.093C95.9676 533.086 96.657 533.13 97.3431 533.301C97.6667 533.38 97.9517 533.444 98.2754 533.522C98.5991 533.6 98.9228 533.679 99.2077 533.743C99.5314 533.821 99.8551 533.899 100.126 534.001C100.288 534.275 100.598 534.391 100.922 534.469Z" fill="url(#paint4_linear_203_1091)"/>
   </g>

   <defs>
      <pattern id="pattern0" patternContentUnits="objectBoundingBox" width="1" height="1">
      <use xlink:href="#image0_203_1091" transform="matrix(0.000537037 0 0 0.000369521 0 -0.216504)"/>
      </pattern>
      <filter id="filter0_i_203_1091" x="23.6064" y="478.606" width="144.157" height="144.157" filterUnits="userSpaceOnUse" color-interpolation-filters="sRGB">
      <feFlood flood-opacity="0" result="BackgroundImageFix"/>
      <feBlend mode="normal" in="SourceGraphic" in2="BackgroundImageFix" result="shape"/>
      <feColorMatrix in="SourceAlpha" type="matrix" values="0 0 0 0 0 0 0 0 0 0 0 0 0 0 0 0 0 0 127 0" result="hardAlpha"/>
      <feOffset dx="-14" dy="-14"/>
      <feGaussianBlur stdDeviation="16"/>
      <feComposite in2="hardAlpha" operator="arithmetic" k2="-1" k3="1"/>
      <feColorMatrix type="matrix" values="0 0 0 0 0.803922 0 0 0 0 0.847059 0 0 0 0 0.968627 0 0 0 1 0"/>
      <feBlend mode="normal" in2="shape" result="effect1_innerShadow_203_1091"/>
      </filter>
      <linearGradient id="paint0_linear_203_1091" x1="137" y1="18" x2="272" y2="488" gradientUnits="userSpaceOnUse">
      <stop stop-color="#CDD8F7"/>
      <stop offset="1" stop-color="#CDD8F7" stop-opacity="0"/>
      </linearGradient>
      <linearGradient id="paint1_linear_203_1091" x1="42.3723" y1="190.04" x2="104.547" y2="105.922" gradientUnits="userSpaceOnUse">
      <stop stop-color="#F8BA55"/>
      <stop offset="1" stop-color="#FB7354"/>
      </linearGradient>
      <linearGradient id="paint2_linear_203_1091" x1="93.3723" y1="142.892" x2="203.753" y2="142.892" gradientUnits="userSpaceOnUse">
      <stop stop-color="#F8BA55"/>
      <stop offset="1" stop-color="#FB7354"/>
      </linearGradient>
      <linearGradient id="paint3_linear_203_1091" x1="8.99983" y1="90.1115" x2="187.46" y2="90.1115" gradientUnits="userSpaceOnUse">
      <stop stop-color="#F8BA55"/>
      <stop offset="1" stop-color="#FB7354"/>
      </linearGradient>
      <linearGradient id="paint4_linear_203_1091" x1="85.6103" y1="538.394" x2="127.895" y2="564.538" gradientUnits="userSpaceOnUse">
      <stop stop-color="#B565E6"/>
      <stop offset="1" stop-color="#7A43EE"/>
      </linearGradient>
      <image id="image0_203_1091" width="1920" height="3413" xlink:href="template12-image.png"></image>
   </defs>
</svg>
