<svg width="389" height="393" viewBox="0 0 389 393" fill="none" xmlns="http://www.w3.org/2000/svg">
<path d="M0.505951 383.563L40.8836 322.635C41.4231 320.925 42.61 319.694 44.0127 319.284L119.435 300L109.184 369.066L5.36145 390.949C2.01655 391.838 -0.788848 387.598 0.505951 383.563Z" fill="#E8F0FF"/>
<path d="M193.347 321.882L119.435 300L109.185 369.066L193.347 393V321.882Z" fill="#636363"/>
<path d="M193.347 321.882L119.435 300L109.185 369.066L193.347 393V321.882Z" fill="url(#paint0_linear_202_691)"/>
<path d="M269.955 300L279.666 369.75L193.346 393V321.882L269.955 300Z" fill="#E8F0FF"/>
<path d="M346.942 319.899L269.955 300L279.666 369.75L383.813 391.085C387.104 391.906 389.909 387.871 388.722 383.837L350.125 323.387C349.585 321.609 348.398 320.31 346.942 319.899Z" fill="url(#paint1_linear_202_691)"/>
<g filter="url(#filter0_i_202_691)">
<path d="M194.761 332.262C111.234 332.262 43.5226 264.49 43.5226 180.889C43.5226 97.2885 111.234 29.5166 194.761 29.5166C278.288 29.5166 346 97.2885 346 180.889C346 264.49 278.288 332.262 194.761 332.262Z" fill="url(#paint2_radial_202_691)"/>
</g>
<path d="M66.4957 100.598C51.9214 123.838 43.5227 151.344 43.5227 180.827C43.5227 185.216 43.708 189.604 44.0785 193.869C46.0547 194.673 47.9073 196.032 49.3277 198.319C54.0211 206.107 54.2064 202.399 63.1609 206.849C72.1154 211.238 69.7687 216.244 70.201 221.931C70.6333 227.679 81.0699 232.624 85.9486 233.984C90.8273 235.282 94.9031 247.891 94.4708 254.505C94.0385 261.118 101.943 262.416 107.563 267.423C113.121 272.43 117.258 281.639 121.087 285.781C124.916 289.86 130.783 291.776 136.217 290.046C141.528 288.315 145.172 278.302 146.963 269.957C148.754 261.613 148.26 252.774 145.172 244.43C142.084 236.085 142.825 237.074 142.825 223.476C142.702 209.816 151.471 204.253 156.473 202.213C161.475 199.988 170.43 201.781 174.691 198.258C178.829 194.858 180.249 190.655 181.175 177.551C182.225 164.509 175.432 162.593 169.442 156.598C163.39 150.602 152.706 145.039 143.69 143.988C134.735 142.938 129.116 146.214 124.299 149.737C119.42 153.26 117.814 159.564 114.171 160.43C110.465 161.481 106.945 159.997 103.302 161.295C99.5965 162.593 97.435 164.818 93.6062 164.818C89.7774 164.818 91.5683 160.244 91.6918 157.772C91.8153 155.423 95.2119 155.423 99.6583 154.681C104.043 153.94 104.969 152.642 106.143 149.428C107.316 146.214 110.095 148.377 112.195 146.955C114.233 145.472 114.541 150.911 115.159 152.951C115.776 154.991 116.764 151.035 116.764 151.035C116.764 151.035 118.988 153.507 119.543 152.209C120.161 150.726 117.753 147.944 117.506 144.606C117.197 141.392 122.075 141.392 124.546 138.425C127.016 135.52 131.03 134.47 135.291 135.211C139.429 135.953 139.984 134.779 142.331 137.993C144.678 141.207 153.632 142.258 156.288 141.392C158.943 140.527 156.164 135.211 153.077 130.699C149.989 126.125 145.419 128.659 141.59 124.086C137.761 119.697 141.714 118.214 144.369 117.039C147.025 115.865 147.457 113.083 143.505 107.211C139.552 101.339 136.032 103.688 134.859 106.902C133.685 110.116 130.474 112.033 126.769 112.774C123.064 113.331 123.558 110.735 122.817 105.295C122.075 99.856 119.111 97.3836 113.862 96.0237C108.551 94.7257 99.9053 92.6242 96.2 90.2754C92.4946 87.803 87.369 90.7081 84.8987 94.2312C82.4285 97.878 76.0677 100.103 69.4599 102.328C67.9778 102.761 66.8044 101.772 66.4957 100.598ZM330.932 134.408V134.531C326.053 142.443 320.063 144.359 312.714 147.017C305.365 149.675 308.329 153.631 305.365 158.576C302.277 163.706 301.104 166.487 297.275 169.578C293.323 172.668 299.745 176.315 302.277 180.889C304.748 185.463 305.674 188.059 303.76 198.505C301.845 208.951 293.014 218.593 290.667 222.858C288.321 227.123 294.064 230.77 294.064 238.99C294.064 247.211 297.893 268.35 292.15 281.516C286.406 294.743 281.589 294.125 280.848 285.904C280.107 277.684 281.466 269.648 275.846 264.333C270.288 259.079 261.025 262.107 256.023 251.6C251.144 241.03 249.106 241.896 243.363 238.99C237.62 235.9 239.411 232.377 233.235 224.589C227.059 216.801 224.404 209.013 230.888 204.315C237.373 199.617 242.189 199.185 246.883 189.913C251.576 180.642 259.666 171.123 267.756 165.004C275.723 158.823 290.544 162.346 295.855 159.874C300.981 157.401 302.895 146.214 301.907 142.258C300.857 138.178 304.871 136.509 308.947 136.818C313.085 137.127 314.814 134.346 315.122 128.721C315.246 123.282 305.859 117.843 299.128 118.461C292.397 119.017 289.309 122.726 289.309 131.688C289.309 140.651 284.307 145.904 278.255 148.439C272.203 150.911 275.167 143.865 278.872 138.734C282.577 133.604 282.269 129.648 277.39 120.377C272.511 111.291 264.483 113.207 256.949 105.295C249.477 97.3836 249.291 104.244 243.301 106.161C237.249 108.077 237.743 104.677 234.47 99.4233C231.382 94.2931 224.342 100.289 217.117 96.7655C209.891 93.2423 222.243 84.0326 220.328 77.9752C218.414 71.9796 212.362 73.154 214.276 63.4498C216.191 53.622 211.312 54.0547 208.409 50.9642C205.445 48.0591 209.15 43.9178 217.673 46.8847C226.195 49.7898 243.548 53.4984 250.897 50.0988C252.07 49.5426 253.552 48.9245 254.849 48.1827C257.073 47.1938 257.752 44.6596 256.887 42.6816C294.99 60.0503 324.695 92.6242 338.157 132.739C335.872 131.317 332.599 131.75 330.932 134.408ZM175.864 80.0149C171.912 81.0657 158.079 83.9708 155.3 79.7059C152.521 75.441 150.421 76.1827 146.345 71.6088C142.208 67.0348 141.22 60.2975 145.295 59.5558C149.433 58.9995 150.174 60.6066 156.905 58.9995C163.637 57.3924 166.169 52.3858 172.9 52.5713C179.817 52.6949 186.857 50.0988 191.859 49.3571C198.59 48.3064 207.854 49.3571 202.172 54.3637C196.429 59.1849 192.476 60.2357 193.218 65.3659C193.959 70.4962 198.096 75.3174 197.046 79.1496C195.997 82.9818 193.959 87.4939 191.18 86.6286C188.401 85.8869 179.817 78.9641 175.864 80.0149ZM82.552 262.355C86.0721 261.18 85.9486 262.478 88.604 265.012C91.2595 267.485 94.9031 270.266 94.7796 273.357C94.7796 276.447 95.0884 280.094 92.1241 278.363C89.1599 276.633 89.6539 273.79 85.8251 272.801C81.9962 271.812 77.1176 264.271 82.552 262.355Z" fill="url(#paint3_linear_202_691)"/>
<g filter="url(#filter1_i_202_691)">
<path d="M278.314 78C275.572 75.2715 272.759 72.6649 270.138 69.8633C264.15 63.4807 258.955 56.4891 255.084 48.5473C251.933 42.0429 249.841 35.2461 250.009 27.8647C250.346 14.3686 260.567 2.50466 273.721 0.385231C288.991 -2.09961 303.132 7.66923 306.378 22.9681C307.604 28.7417 306.907 34.4178 305.248 39.9965C303.204 46.9151 299.741 53.1272 295.677 58.9983C291.156 65.4783 283.46 74.0048 278.314 78ZM265.833 28.8147C265.833 35.9039 271.508 41.6775 278.506 41.6531C285.456 41.6287 291.108 35.9039 291.132 28.8635C291.156 21.75 285.504 16.0008 278.506 16.0008C271.508 15.952 265.833 21.7256 265.833 28.8147Z" fill="url(#paint4_linear_202_691)"/>
</g>
<g filter="url(#filter2_i_202_691)">
<path d="M281.288 245C278.162 241.922 274.953 238.981 271.964 235.82C265.136 228.619 259.212 220.731 254.797 211.771C251.205 204.433 248.819 196.765 249.011 188.437C249.395 173.211 261.05 159.826 276.05 157.435C293.464 154.631 309.589 165.652 313.291 182.913C314.689 189.426 313.894 195.83 312.002 202.124C309.671 209.93 305.722 216.938 301.087 223.562C295.932 230.873 287.156 240.493 281.288 245ZM267.055 189.509C267.055 197.507 273.527 204.021 281.507 203.993C289.433 203.966 295.877 197.507 295.904 189.564C295.932 181.538 289.487 175.052 281.507 175.052C273.527 174.997 267.055 181.511 267.055 189.509Z" fill="url(#paint5_linear_202_691)"/>
</g>
<g filter="url(#filter3_i_202_691)">
<path d="M91.7454 133C87.9939 129.292 84.1437 125.75 80.5568 121.943C72.3627 113.269 65.2547 103.767 59.9565 92.9746C55.6456 84.1352 52.7826 74.8985 53.013 64.8674C53.4737 46.5265 67.4595 30.4038 85.46 27.5235C106.356 24.1467 125.706 37.4223 130.149 58.213C131.827 66.0592 130.873 73.7729 128.602 81.3543C125.805 90.7564 121.066 99.1985 115.505 107.177C109.318 115.983 98.7877 127.571 91.7454 133ZM74.6663 66.1585C74.6663 75.7924 82.4325 83.6386 92.0087 83.6055C101.519 83.5724 109.252 75.7924 109.285 66.2247C109.318 56.5577 101.585 48.7446 92.0087 48.7446C82.4325 48.6784 74.6663 56.5246 74.6663 66.1585Z" fill="url(#paint6_linear_202_691)"/>
</g>
<defs>
<filter id="filter0_i_202_691" x="37.5225" y="23.5166" width="308.478" height="308.746" filterUnits="userSpaceOnUse" color-interpolation-filters="sRGB">
<feFlood flood-opacity="0" result="BackgroundImageFix"/>
<feBlend mode="normal" in="SourceGraphic" in2="BackgroundImageFix" result="shape"/>
<feColorMatrix in="SourceAlpha" type="matrix" values="0 0 0 0 0 0 0 0 0 0 0 0 0 0 0 0 0 0 127 0" result="hardAlpha"/>
<feOffset dx="-6" dy="-6"/>
<feGaussianBlur stdDeviation="23.5"/>
<feComposite in2="hardAlpha" operator="arithmetic" k2="-1" k3="1"/>
<feColorMatrix type="matrix" values="0 0 0 0 0.803922 0 0 0 0 0.847059 0 0 0 0 0.968627 0 0 0 1 0"/>
<feBlend mode="normal" in2="shape" result="effect1_innerShadow_202_691"/>
</filter>
<filter id="filter1_i_202_691" x="250" y="-6" width="63" height="84" filterUnits="userSpaceOnUse" color-interpolation-filters="sRGB">
<feFlood flood-opacity="0" result="BackgroundImageFix"/>
<feBlend mode="normal" in="SourceGraphic" in2="BackgroundImageFix" result="shape"/>
<feColorMatrix in="SourceAlpha" type="matrix" values="0 0 0 0 0 0 0 0 0 0 0 0 0 0 0 0 0 0 127 0" result="hardAlpha"/>
<feOffset dx="6" dy="-6"/>
<feGaussianBlur stdDeviation="3.5"/>
<feComposite in2="hardAlpha" operator="arithmetic" k2="-1" k3="1"/>
<feColorMatrix type="matrix" values="0 0 0 0 0.984314 0 0 0 0 0.45098 0 0 0 0 0.329412 0 0 0 1 0"/>
<feBlend mode="normal" in2="shape" result="effect1_innerShadow_202_691"/>
</filter>
<filter id="filter2_i_202_691" x="249" y="151" width="71" height="94" filterUnits="userSpaceOnUse" color-interpolation-filters="sRGB">
<feFlood flood-opacity="0" result="BackgroundImageFix"/>
<feBlend mode="normal" in="SourceGraphic" in2="BackgroundImageFix" result="shape"/>
<feColorMatrix in="SourceAlpha" type="matrix" values="0 0 0 0 0 0 0 0 0 0 0 0 0 0 0 0 0 0 127 0" result="hardAlpha"/>
<feOffset dx="6" dy="-6"/>
<feGaussianBlur stdDeviation="3.5"/>
<feComposite in2="hardAlpha" operator="arithmetic" k2="-1" k3="1"/>
<feColorMatrix type="matrix" values="0 0 0 0 0.984314 0 0 0 0 0.45098 0 0 0 0 0.329412 0 0 0 1 0"/>
<feBlend mode="normal" in2="shape" result="effect1_innerShadow_202_691"/>
</filter>
<filter id="filter3_i_202_691" x="53" y="21" width="84" height="112" filterUnits="userSpaceOnUse" color-interpolation-filters="sRGB">
<feFlood flood-opacity="0" result="BackgroundImageFix"/>
<feBlend mode="normal" in="SourceGraphic" in2="BackgroundImageFix" result="shape"/>
<feColorMatrix in="SourceAlpha" type="matrix" values="0 0 0 0 0 0 0 0 0 0 0 0 0 0 0 0 0 0 127 0" result="hardAlpha"/>
<feOffset dx="6" dy="-6"/>
<feGaussianBlur stdDeviation="3.5"/>
<feComposite in2="hardAlpha" operator="arithmetic" k2="-1" k3="1"/>
<feColorMatrix type="matrix" values="0 0 0 0 0.984314 0 0 0 0 0.45098 0 0 0 0 0.329412 0 0 0 1 0"/>
<feBlend mode="normal" in2="shape" result="effect1_innerShadow_202_691"/>
</filter>
<linearGradient id="paint0_linear_202_691" x1="185.015" y1="331.5" x2="177.709" y2="426.304" gradientUnits="userSpaceOnUse">
<stop stop-color="white"/>
<stop offset="0.670324" stop-color="#E8F0FF"/>
</linearGradient>
<linearGradient id="paint1_linear_202_691" x1="286.646" y1="307.5" x2="338.51" y2="375.909" gradientUnits="userSpaceOnUse">
<stop stop-color="white"/>
<stop offset="1" stop-color="#E8F0FF"/>
</linearGradient>
<radialGradient id="paint2_radial_202_691" cx="0" cy="0" r="1" gradientUnits="userSpaceOnUse" gradientTransform="translate(214.204 148.839) rotate(124.245) scale(237.857 240.606)">
<stop stop-color="#E8F0FF"/>
<stop offset="1" stop-color="#CDD8F7"/>
</radialGradient>
<linearGradient id="paint3_linear_202_691" x1="122.378" y1="251.041" x2="276.088" y2="40.0193" gradientUnits="userSpaceOnUse">
<stop stop-color="#7A43EE"/>
<stop offset="1" stop-color="#B565E6"/>
</linearGradient>
<linearGradient id="paint4_linear_202_691" x1="297.5" y1="12.5" x2="255" y2="64.5" gradientUnits="userSpaceOnUse">
<stop stop-color="#F8BA55"/>
<stop offset="1" stop-color="#FB7354"/>
</linearGradient>
<linearGradient id="paint5_linear_202_691" x1="306" y1="171.5" x2="249" y2="221.5" gradientUnits="userSpaceOnUse">
<stop stop-color="#F8BA55"/>
<stop offset="1" stop-color="#FB7354"/>
</linearGradient>
<linearGradient id="paint6_linear_202_691" x1="124.5" y1="36.5" x2="53" y2="97" gradientUnits="userSpaceOnUse">
<stop stop-color="#F8BA55"/>
<stop offset="1" stop-color="#FB7354"/>
</linearGradient>
</defs>
</svg>
