<svg width="72" height="72" viewBox="0 0 72 72" fill="none" xmlns="http://www.w3.org/2000/svg">
<path d="M35.2867 72C30.3747 70.4956 25.7912 68.3164 21.5932 65.3919C14.3396 60.3445 9.64182 53.5255 7.18585 45.1599C5.84364 40.5905 5.18681 35.9086 5.0583 31.1705C4.92979 26.7276 5.07258 22.2707 5.00118 17.8137C4.92979 13.4974 8.0997 9.95431 12.8117 9.71529C16.2672 9.54657 19.637 8.87171 22.8783 7.62039C25.9626 6.43937 28.7612 4.76626 31.2458 2.61511C32.4452 1.58875 33.5447 0.449912 35.1439 0C35.715 0 36.2862 0 36.8574 0C38.4138 0.449912 39.5275 1.54657 40.6984 2.55888C44.9106 6.21441 49.8369 8.40773 55.3628 9.26538C56.8906 9.50439 58.4327 9.61687 59.9606 9.79965C64.1157 10.3058 66.9572 13.3708 66.9715 17.5044C66.9858 22.7487 67.0857 28.007 66.8002 33.2373C66.4289 40.1687 64.9439 46.8612 61.5455 53.0475C58.5613 58.4745 54.3918 62.819 49.1657 66.2074C45.6531 68.4851 41.8835 70.2285 37.914 71.6204C37.5142 71.761 37.1001 71.8594 36.7003 71.9859C36.2434 72 35.7579 72 35.2867 72ZM9.29912 25.3919C9.17061 31.0861 9.48475 36.7522 10.8555 42.3339C12.4405 48.7452 15.4248 54.355 20.3224 58.9244C24.7203 63.0299 29.9464 65.7294 35.6151 67.6696C35.915 67.768 36.329 67.7118 36.6432 67.5993C39.9273 66.4605 43.0687 65.0404 46.0244 63.2127C51.5503 59.7961 55.834 55.2689 58.6184 49.406C60.6745 45.0756 61.7312 40.4921 62.3023 35.768C63.0448 29.6098 62.8592 23.4236 62.6879 17.2373C62.645 15.5501 61.4456 14.2847 59.7321 14.0457C58.1614 13.8207 56.5622 13.7223 54.9915 13.4974C50.1224 12.7944 45.5818 11.1916 41.5123 8.46397C39.7845 7.31107 38.2281 5.93322 36.6146 4.6116C36.1577 4.23199 35.8293 4.18981 35.4152 4.6116C35.0297 4.99121 34.6013 5.32865 34.2015 5.6942C29.8464 9.53251 24.7774 11.9789 19.0659 13.1178C16.8812 13.5536 14.6394 13.6942 12.4262 14.0176C10.47 14.2988 9.32768 15.5782 9.3134 17.5044C9.27057 20.1476 9.29912 22.7627 9.29912 25.3919ZM54.2205 36.0352C54.1205 45.9613 45.953 54.0035 35.9863 53.9332C25.7341 53.8629 17.7379 45.7645 17.7951 35.9367C17.8522 25.7856 26.1768 18.0246 36.0435 18.0808C46.1672 18.1371 54.3061 26.2636 54.2205 36.0352ZM49.9225 35.9789C49.8797 28.4007 43.5542 22.2004 35.9578 22.2847C28.2472 22.3691 22.093 28.4429 22.0787 35.993C22.0502 43.5149 28.3614 49.7294 36.0149 49.7153C43.6827 49.7153 49.9654 43.5009 49.9225 35.9789ZM30.5889 36.6397C29.5894 35.6696 28.3043 35.6415 27.419 36.5413C26.5766 37.3989 26.6337 38.6784 27.5618 39.6204C28.747 40.8014 29.9321 41.9824 31.1458 43.1494C32.1882 44.1476 33.3733 44.1476 34.4157 43.1213C37.6713 39.9297 40.9126 36.7381 44.1396 33.5325C45.082 32.6046 45.1105 31.3111 44.2681 30.4534C43.3828 29.5677 42.0977 29.6098 41.0982 30.5659C39.2277 32.3937 37.3571 34.2355 35.5009 36.0773C34.6156 36.949 33.7303 37.8348 32.745 38.819C31.974 38.0457 31.3029 37.3287 30.5889 36.6397Z" fill="#7A43EE"/>
</svg>
