<svg width="223" height="131" viewBox="0 0 223 131" fill="none" xmlns="http://www.w3.org/2000/svg">
<g filter="url(#filter0_i_209_581)">
<path d="M179.385 0.213851C183.486 1.01791 186.534 3.98286 187.366 9.10871C188.696 17.1995 189.97 25.2903 191.245 33.3811C191.411 34.4365 191.799 34.9893 192.852 35.2908C200.334 37.7532 207.815 40.2659 215.297 42.8288C219.786 44.3867 222.224 47.7034 222.446 52.578C222.668 57.5531 220.562 61.7744 216.128 64.8901C208.536 70.2169 200.833 75.4433 193.185 80.6697C192.409 81.2225 192.076 81.7752 191.966 82.6295C190.802 91.4742 189.693 100.319 188.419 109.214C187.698 114.39 184.816 118.36 179.884 120.621C177.224 121.827 174.73 122.229 172.403 121.878C170.352 121.526 168.468 120.621 166.75 119.114C161.097 114.239 155.5 109.364 149.958 104.389C149.57 104.038 149.182 103.837 148.739 103.736C148.295 103.686 147.852 103.736 147.242 103.937C139.373 106.751 131.503 109.565 123.634 112.279C121.362 113.083 119.145 113.234 117.15 112.932C111.497 112.028 107.562 107.153 108.393 100.57C108.671 98.2081 109.834 95.8462 110.832 93.5848C114.157 86.1473 117.538 78.76 120.974 71.3728C121.472 70.3174 121.472 69.5134 120.918 68.5586C116.983 61.8749 113.215 55.0906 109.336 48.3567C106.786 43.9846 106.731 39.3111 109.834 34.4867C112.938 29.6624 117.427 27.6523 122.802 27.6523C130.617 27.7025 138.431 27.602 146.245 27.602C147.464 27.602 148.184 27.1497 148.96 26.1446C154.447 19.2097 159.989 12.2747 165.531 5.38996C168.856 1.31943 173.677 -0.690712 179.385 0.213851Z" fill="#F8BA55"/>
</g>
<g filter="url(#filter1_i_209_581)">
<path d="M47.0065 44.9925C49.831 44.6126 52.3616 45.6981 53.8382 48.4884C56.1806 52.8891 58.4869 57.3012 60.7931 61.7133C61.0939 62.2888 61.448 62.5283 62.1905 62.4857C67.5247 62.368 72.8681 62.2792 78.2206 62.2196C81.4357 62.1954 83.6323 63.6096 84.665 66.3803C85.7161 69.209 85.1099 72.0815 82.7823 74.7945C78.7946 79.4354 74.7163 84.041 70.6742 88.6353C70.2682 89.1144 70.1518 89.5023 70.235 90.0187C71.0862 95.3683 71.9736 100.707 72.7616 106.108C73.234 109.247 72.0754 112.134 69.2664 114.456C67.749 115.701 66.1937 116.446 64.6097 116.722C63.2065 116.941 61.8113 116.807 60.4148 116.289C55.8354 114.637 51.2923 112.973 46.767 111.24C46.4496 111.116 46.1596 111.08 45.8518 111.113C45.5531 111.176 45.2728 111.296 44.9113 111.538C40.285 114.784 35.6587 118.03 31.014 121.218C29.6767 122.151 28.2566 122.694 26.8988 122.931C23.0427 123.572 19.5852 121.566 18.9288 117.591C18.6795 116.169 19.0092 114.565 19.2487 113.053C20.0652 108.072 20.9271 103.107 21.8252 98.132C21.9586 97.4196 21.8121 96.955 21.2763 96.5175C17.4893 93.466 13.7925 90.3223 10.0325 87.2305C7.57134 85.2294 6.68378 82.5406 7.83158 79.1143C8.97938 75.688 11.5446 73.6023 15.055 72.4955C20.1669 70.9156 25.2514 69.2487 30.3542 67.6398C31.1503 67.3887 31.5384 66.9791 31.862 66.2387C34.1815 61.1023 36.5371 55.9544 38.902 50.8357C40.3318 47.7993 43.1142 45.6452 47.0065 44.9925Z" fill="#F8BA55"/>
</g>
<defs>
<filter id="filter0_i_209_581" x="101.462" y="-6" width="121" height="128" filterUnits="userSpaceOnUse" color-interpolation-filters="sRGB">
<feFlood flood-opacity="0" result="BackgroundImageFix"/>
<feBlend mode="normal" in="SourceGraphic" in2="BackgroundImageFix" result="shape"/>
<feColorMatrix in="SourceAlpha" type="matrix" values="0 0 0 0 0 0 0 0 0 0 0 0 0 0 0 0 0 0 127 0" result="hardAlpha"/>
<feOffset dx="-6" dy="-6"/>
<feGaussianBlur stdDeviation="7.5"/>
<feComposite in2="hardAlpha" operator="arithmetic" k2="-1" k3="1"/>
<feColorMatrix type="matrix" values="0 0 0 0 0.984314 0 0 0 0 0.45098 0 0 0 0 0.329412 0 0 0 1 0"/>
<feBlend mode="normal" in2="shape" result="effect1_innerShadow_209_581"/>
</filter>
<filter id="filter1_i_209_581" x="1.33496" y="38.9189" width="83.8281" height="84.1299" filterUnits="userSpaceOnUse" color-interpolation-filters="sRGB">
<feFlood flood-opacity="0" result="BackgroundImageFix"/>
<feBlend mode="normal" in="SourceGraphic" in2="BackgroundImageFix" result="shape"/>
<feColorMatrix in="SourceAlpha" type="matrix" values="0 0 0 0 0 0 0 0 0 0 0 0 0 0 0 0 0 0 127 0" result="hardAlpha"/>
<feOffset dx="-6" dy="-6"/>
<feGaussianBlur stdDeviation="7.5"/>
<feComposite in2="hardAlpha" operator="arithmetic" k2="-1" k3="1"/>
<feColorMatrix type="matrix" values="0 0 0 0 0.984314 0 0 0 0 0.45098 0 0 0 0 0.329412 0 0 0 1 0"/>
<feBlend mode="normal" in2="shape" result="effect1_innerShadow_209_581"/>
</filter>
</defs>
</svg>
