<svg width="160" height="160" viewBox="0 0 160 160" fill="none" xmlns="http://www.w3.org/2000/svg">
<g filter="url(#filter0_i_202_552)">
<circle cx="79.6848" cy="79.6849" r="65.0624" transform="rotate(15 79.6848 79.6849)" fill="#E8F0FF"/>
</g>
<path d="M91.6809 94.8291C92.0045 94.9075 92.3562 94.911 92.6832 94.8625C93.0102 94.8141 93.3265 94.6762 93.6181 94.4865C93.9097 94.2967 94.1766 94.055 94.3661 93.7843C94.5696 93.4762 94.7344 93.1536 94.8217 92.8021C94.9091 92.4506 94.919 92.0701 94.915 91.727C94.8722 91.3695 94.7767 91.0349 94.6145 90.7608C94.4663 90.4492 94.2514 90.1981 93.9837 89.9699C93.7161 89.7417 93.4204 89.5884 93.0967 89.5101C92.7731 89.4317 92.4214 89.4282 92.0944 89.4767C91.7674 89.5251 91.4511 89.663 91.1595 89.8527C90.8679 90.0425 90.601 90.2842 90.4115 90.5549C90.208 90.863 90.0432 91.1856 89.9559 91.5371C89.8545 91.9261 89.8198 92.2547 89.8626 92.6122C89.9054 92.9697 90.0009 93.3043 90.1631 93.5784C90.3253 93.8525 90.5262 94.1411 90.8079 94.3319C91.0615 94.5975 91.3572 94.7508 91.6809 94.8291ZM94.0618 85.9861C94.8253 86.1863 95.5327 86.5363 96.1455 87.0216C96.7582 87.507 97.2374 88.1131 97.6113 88.7652C97.9711 89.4548 98.2255 90.1903 98.3217 90.9948C98.4179 91.7992 98.37 92.6351 98.178 93.5025C97.9472 94.3553 97.6143 95.1274 97.1406 95.804C96.6669 96.4806 96.0664 97.0245 95.4025 97.5019C94.7525 97.9418 94.0145 98.2635 93.2024 98.4293C92.4289 98.6096 91.5954 98.5967 90.7792 98.4195L90.7405 98.405L90.7018 98.3905L90.6631 98.376L90.6244 98.3616C89.8609 98.1614 89.1534 97.8114 88.5794 97.3405C87.9667 96.8552 87.4875 96.2491 87.1136 95.5969C86.7538 94.9074 86.4747 94.1199 86.3785 93.3155C86.2823 92.5111 86.3055 91.6232 86.5362 90.7703C86.7283 89.903 87.0999 89.1454 87.5736 88.4688C88.0473 87.7922 88.6618 87.2109 89.3504 86.7854C90.0391 86.3599 90.7771 86.0383 91.5505 85.858C92.31 85.7151 93.1575 85.6906 93.921 85.8908L93.9597 85.9053L93.9984 85.9197C94.0231 85.9717 94.0231 85.9717 94.0618 85.9861ZM55.3654 85.9847C55.7278 86.0776 56.0795 86.0811 56.4452 86.0471C56.7722 85.9986 57.1272 85.8753 57.4188 85.6855C57.7104 85.4957 57.9773 85.254 58.2195 84.9604C58.4617 84.6668 58.6265 84.3442 58.7279 83.9552C58.8292 83.5662 58.8779 83.2002 58.8351 82.8426C58.7923 82.4851 58.7109 82.1131 58.5099 81.8245C58.3617 81.5129 58.1221 81.2098 57.8545 80.9817C57.5868 80.7535 57.2524 80.5857 56.8654 80.4409C56.8654 80.4409 56.8654 80.4409 56.8266 80.4265C56.7879 80.412 56.8266 80.4265 56.7879 80.412C56.7492 80.3975 56.7879 80.412 56.7492 80.3975C56.7105 80.383 56.7492 80.3975 56.7105 80.383C56.3481 80.2902 55.9964 80.2867 55.6694 80.3352C55.3425 80.3836 54.9874 80.507 54.6571 80.6823C54.3655 80.872 54.0599 81.0992 53.8564 81.4074C53.6142 81.701 53.4495 82.0236 53.3481 82.4126C53.2467 82.8016 53.1981 83.1676 53.2408 83.5251C53.2836 83.8826 53.4038 84.2691 53.566 84.5432C53.7529 84.8693 53.9538 85.1579 54.2742 85.3631C54.5418 85.5913 54.8762 85.7591 55.2773 85.8664C55.2773 85.8664 55.2773 85.8664 55.316 85.8809C55.3547 85.8953 55.316 85.8809 55.3547 85.8953C55.3267 85.9702 55.3267 85.9702 55.3654 85.9847ZM57.7703 76.7238C58.6499 76.9674 59.4348 77.3463 60.0862 77.8461C60.7376 78.3459 61.2803 79.0185 61.6788 79.7226C62.0774 80.4266 62.3424 81.2515 62.4634 82.1079C62.5843 82.9642 62.5224 83.8376 62.3163 84.7424C62.0716 85.6327 61.686 86.4277 61.1983 87.1418C60.6718 87.8414 60.0573 88.4227 59.316 88.8712C58.5746 89.3196 57.7979 89.6268 56.947 89.7781C56.0962 89.9295 55.2239 89.9021 54.369 89.7104C53.5141 89.5187 52.7292 89.1397 52.0391 88.6255C51.349 88.1112 50.7923 87.4761 50.3691 86.7201C49.9318 86.0016 49.6668 85.1767 49.5458 84.3203C49.4249 83.4639 49.4621 82.5387 49.7069 81.6483C49.9516 80.758 50.3513 79.9255 50.8777 79.2259C51.4041 78.5263 52.0713 77.9221 52.7987 77.5111C53.54 77.0626 54.3555 76.7699 55.2063 76.6186C56.0572 76.4672 56.9294 76.4946 57.7703 76.7238ZM68.0287 67.5826C68.391 67.6755 68.7534 67.7683 69.1158 67.8612C69.4782 67.954 69.8406 68.0469 70.203 68.1397C70.5654 68.2326 70.9278 68.3255 71.2901 68.4183C71.6525 68.5112 72.0149 68.604 72.3773 68.6969C72.6623 68.7608 72.9225 68.7727 73.1968 68.7472C73.4711 68.7218 73.7347 68.6069 73.9596 68.4776C74.1844 68.3482 74.4233 68.1814 74.5988 67.9482C74.813 67.7295 74.9497 67.4818 75.0478 67.2196C75.2826 66.7098 75.4927 66.148 75.7276 65.6382C75.9624 65.1283 76.1725 64.5666 76.4073 64.0567C76.6422 63.5469 76.8523 62.9851 77.0484 62.4608C77.2445 61.9364 77.4933 61.3892 77.6894 60.8648C77.7035 60.8274 77.7175 60.7899 77.7315 60.7525C77.7455 60.715 77.7595 60.6776 77.7735 60.6401C77.7875 60.6027 77.8015 60.5652 77.8155 60.5278C77.8295 60.4903 77.8435 60.4529 77.8715 60.378C77.678 60.3056 77.4705 60.2706 77.2769 60.1982C77.0834 60.1258 76.8758 60.0909 76.6823 60.0185C76.4887 59.9461 76.2812 59.9112 76.0876 59.8388C75.8941 59.7664 75.6865 59.7315 75.493 59.6591C75.3769 59.6156 75.2467 59.6097 75.1306 59.5662C75.0145 59.5228 74.8843 59.5168 74.7682 59.4734C74.6521 59.4299 74.5219 59.4239 74.4058 59.3805C74.2897 59.3371 74.1596 59.3311 74.0434 59.2877C73.5649 59.1514 73.1358 59.1189 72.654 59.1095C72.2109 59.1145 71.7537 59.157 71.3213 59.2514C70.8889 59.3458 70.4811 59.4921 70.0594 59.6759C69.6377 59.8597 69.2653 60.1473 68.8543 60.4205C68.3485 60.829 67.8427 61.2375 67.3369 61.646C66.8312 62.0545 66.3254 62.463 65.8056 62.9089C65.2998 63.3174 64.78 63.7634 64.2742 64.1719C63.7684 64.5804 63.2487 65.0263 62.7429 65.4348C62.6901 65.4578 62.6761 65.4952 62.6234 65.5182C62.5707 65.5412 62.5567 65.5786 62.49 65.6391C62.4373 65.662 62.4092 65.7369 62.3565 65.7599C62.2898 65.8203 62.2371 65.8433 62.1704 65.9037C62.6876 66.0545 63.1661 66.1908 63.6973 66.3041C64.1758 66.4404 64.6931 66.5912 65.1856 66.69C65.6641 66.8263 66.1813 66.977 66.6738 67.0759C67.0329 67.2956 67.5114 67.4319 68.0287 67.5826ZM77.9216 56.4691C78.2453 56.5475 78.5937 56.6778 78.9173 56.7562C79.241 56.8345 79.5894 56.9648 79.9131 57.0432C80.2368 57.1216 80.5851 57.2519 80.9088 57.3303C81.2325 57.4086 81.5809 57.539 81.9046 57.6173C82.8616 57.8899 83.7799 58.148 84.7369 58.4206C85.6552 58.6787 86.6123 58.9513 87.5306 59.2094C88.4489 59.4675 89.4059 59.74 90.3243 59.9981C91.2426 60.2562 92.1609 60.5143 93.0792 60.7724C94.3212 61.1089 95.5879 61.4973 96.8299 61.8338C98.0719 62.1702 99.2999 62.5442 100.542 62.8806C101.784 63.2171 103.012 63.591 104.215 63.913C105.457 64.2495 106.646 64.609 107.888 64.9454C107.888 64.9454 107.888 64.9454 107.927 64.9599C107.966 64.9744 107.927 64.9599 107.966 64.9744C107.966 64.9744 107.966 64.9744 108.005 64.9889C108.043 65.0033 108.005 64.9889 108.043 65.0034C108.082 65.0178 108.159 65.0468 108.198 65.0613C108.237 65.0757 108.314 65.1047 108.353 65.1192C108.392 65.1337 108.469 65.1626 108.508 65.1771C108.547 65.1916 108.624 65.2205 108.663 65.235C108.881 65.3593 109.06 65.4692 109.212 65.6539C109.363 65.8387 109.476 66.0089 109.536 66.2022C109.596 66.3954 109.643 66.6261 109.636 66.8798C109.629 67.1334 109.584 67.3726 109.5 67.5973C109.43 67.7846 109.321 67.9574 109.212 68.1301C109.118 68.2655 108.984 68.3863 108.812 68.4927C108.654 68.5616 108.496 68.6305 108.338 68.6995C108.179 68.7684 107.997 68.7854 107.814 68.8024C107.8 68.8398 107.8 68.8398 107.786 68.8773C107.772 68.9147 107.772 68.9147 107.772 68.9147L107.758 68.9522L107.744 68.9896C107.629 69.8859 107.514 70.7823 107.438 71.6931C107.324 72.5894 107.209 73.4857 107.133 74.3965C107.019 75.2929 106.904 76.1892 106.828 77.1C106.713 77.9963 106.599 78.8926 106.537 79.766C106.502 80.0946 106.468 80.4231 106.419 80.7892C106.384 81.1177 106.35 81.4463 106.301 81.8123C106.266 82.1409 106.232 82.4695 106.183 82.8355C106.148 83.164 106.114 83.4926 106.065 83.8586C105.848 84.6741 105.632 85.4895 105.415 86.305C105.198 87.1204 104.981 87.9358 104.765 88.7513C104.548 89.5667 104.331 90.3822 104.114 91.1976C103.898 92.013 103.681 92.8285 103.464 93.6439C103.289 93.8771 103.088 94.0584 102.902 94.2022C102.716 94.346 102.505 94.4379 102.308 94.4924C102.112 94.5468 101.89 94.5493 101.721 94.5289C101.514 94.4939 101.306 94.459 101.098 94.424C101.021 94.3951 100.905 94.3517 100.813 94.3601C100.736 94.3312 100.62 94.2878 100.543 94.2588C100.465 94.2298 100.349 94.1864 100.272 94.1575C100.194 94.1285 100.078 94.0851 99.9866 94.0936C100.28 92.8372 100.299 91.6063 100.132 90.5193C99.9651 89.4322 99.5872 88.437 99.1006 87.6147C98.5752 86.7778 97.9164 86.0618 97.2016 85.4956C96.4481 84.9149 95.6245 84.5215 94.7836 84.2923C94.7836 84.2923 94.7836 84.2923 94.7449 84.2778C94.7062 84.2634 94.7449 84.2778 94.7062 84.2634C94.7062 84.2634 94.7062 84.2634 94.6675 84.2489C94.6675 84.2489 94.6675 84.2489 94.6288 84.2344C93.6964 84.0138 92.7081 83.9429 91.7271 84.0883C90.7461 84.2337 89.7725 84.5953 88.873 85.1126C87.9735 85.63 87.1341 86.3406 86.4602 87.1985C85.7723 88.0939 85.2113 89.1221 84.8931 90.3265C83.1973 89.9057 81.5015 89.4849 79.8057 89.064C78.1099 88.6432 76.4141 88.2224 74.6795 87.7871C72.945 87.3517 71.2492 86.9309 69.5147 86.4956C67.7802 86.0603 66.0069 85.6105 64.2584 85.2126C64.5518 83.9563 64.571 82.7254 64.418 81.6009C64.2263 80.4619 63.8097 79.4523 63.2736 78.526C62.6849 77.6228 61.9626 76.8403 61.1457 76.1932C60.3147 75.5836 59.3891 75.1093 58.3793 74.8597C58.3793 74.8597 58.3793 74.8597 58.3406 74.8452C58.3406 74.8452 58.3406 74.8452 58.3019 74.8307C58.3019 74.8307 58.3019 74.8307 58.2632 74.8162C58.2632 74.8162 58.2632 74.8162 58.2245 74.8018C57.2921 74.5811 56.2511 74.5333 55.2314 74.6642C54.2117 74.795 53.1994 75.1422 52.2224 75.6306C51.2842 76.1335 50.3921 76.8671 49.6128 77.7709C48.8722 78.6893 48.2304 79.8153 47.8315 81.1176C47.7154 81.0742 47.624 81.0827 47.5078 81.0393C47.3917 80.9958 47.3003 81.0043 47.1842 80.9609C47.068 80.9175 46.9766 80.926 46.8605 80.8825C46.7444 80.8391 46.6529 80.8476 46.5368 80.8041C46.2906 80.7547 46.0583 80.6679 45.8648 80.5955C45.6325 80.5086 45.453 80.3987 45.2874 80.2515C45.1219 80.1042 44.9704 79.9194 44.8329 79.6972C44.6954 79.475 44.6246 79.1924 44.5678 78.8723C44.7392 78.2961 44.8859 77.6679 45.0573 77.0916C45.2288 76.5154 45.3755 75.8872 45.5469 75.3109C45.7183 74.7347 45.851 74.144 46.0364 73.5303C46.2078 72.954 46.3405 72.3633 46.5259 71.7496C46.54 71.7121 46.554 71.6747 46.6067 71.6517C46.6207 71.6142 46.6347 71.5768 46.6874 71.5538C46.7014 71.5164 46.7154 71.4789 46.7681 71.4559C46.7822 71.4185 46.7962 71.381 46.8102 71.3436C47.059 70.7963 47.3712 70.3154 47.6975 69.7971C48.0097 69.3162 48.3994 68.8643 48.775 68.4498C49.1507 68.0353 49.6038 67.6498 50.0428 67.3017C50.5206 66.9681 50.9843 66.672 51.5255 66.4048C51.9472 66.221 52.369 66.0372 52.7907 65.8534C53.2125 65.6696 53.6342 65.4859 54.0946 65.3165C54.5164 65.1328 54.9628 65.0009 55.3845 64.8171C55.8063 64.6333 56.2527 64.5015 56.6991 64.3696C57.0542 64.2463 57.4619 64.0999 57.8309 63.9391C58.1999 63.7783 58.5689 63.6175 58.8993 63.4422C59.2296 63.2669 59.5739 63.0542 59.9182 62.8414C60.2625 62.6287 60.5821 62.364 60.863 62.0849C61.3301 61.6619 61.8359 61.2534 62.303 60.8304C62.8088 60.4219 63.2618 60.0364 63.7676 59.6279C64.2734 59.2194 64.7652 58.8484 65.2322 58.4254C65.724 58.0543 66.2298 57.6458 66.7216 57.2748C67.2941 56.8059 67.8773 56.4263 68.4852 56.0987C69.0931 55.7711 69.7117 55.5329 70.341 55.384C70.9843 55.1977 71.6242 55.1383 72.3029 55.0933C72.9676 55.0858 73.657 55.1302 74.3431 55.3014C74.6667 55.3798 74.9517 55.4437 75.2754 55.522C75.5991 55.6004 75.9228 55.6788 76.2077 55.7427C76.5314 55.8211 76.8551 55.8994 77.126 56.0008C77.2883 56.2749 77.5979 56.3907 77.9216 56.4691Z" fill="url(#paint0_linear_202_552)"/>
<defs>
<filter id="filter0_i_202_552" x="0.606445" y="0.606308" width="144.157" height="144.157" filterUnits="userSpaceOnUse" color-interpolation-filters="sRGB">
<feFlood flood-opacity="0" result="BackgroundImageFix"/>
<feBlend mode="normal" in="SourceGraphic" in2="BackgroundImageFix" result="shape"/>
<feColorMatrix in="SourceAlpha" type="matrix" values="0 0 0 0 0 0 0 0 0 0 0 0 0 0 0 0 0 0 127 0" result="hardAlpha"/>
<feOffset dx="-14" dy="-14"/>
<feGaussianBlur stdDeviation="16"/>
<feComposite in2="hardAlpha" operator="arithmetic" k2="-1" k3="1"/>
<feColorMatrix type="matrix" values="0 0 0 0 0.803922 0 0 0 0 0.847059 0 0 0 0 0.968627 0 0 0 1 0"/>
<feBlend mode="normal" in2="shape" result="effect1_innerShadow_202_552"/>
</filter>
<linearGradient id="paint0_linear_202_552" x1="62.6103" y1="60.3939" x2="104.895" y2="86.5383" gradientUnits="userSpaceOnUse">
<stop stop-color="#B565E6"/>
<stop offset="1" stop-color="#7A43EE"/>
</linearGradient>
</defs>
</svg>
