<svg width="72" height="72" viewBox="0 0 72 72" fill="none" xmlns="http://www.w3.org/2000/svg">
<g clip-path="url(#clip0_202_675)">
<path d="M50.4806 0C57.0976 0 63.6959 0 70.3129 0C71.1377 0.299922 71.6813 0.881021 72 1.68706C72 1.96824 72 2.24941 72 2.53059C71.2689 3.88024 70.5566 5.22989 69.7881 6.56079C69.5631 6.97318 69.5444 7.27311 69.7693 7.70424C70.5379 9.05389 71.2502 10.441 72 11.8094C72 12.0906 72 12.3718 72 12.653C71.4751 13.9276 70.5191 14.34 69.1695 14.3213C64.0896 14.2838 59.0096 14.3025 53.9297 14.3025C53.6485 14.3025 53.3861 14.3025 53.0487 14.3025C53.0487 15.3335 53.0487 16.252 53.0487 17.1893C53.0487 17.433 53.0487 17.6954 53.0487 17.9953C53.7235 18.0515 54.3234 18.089 54.9232 18.164C62.7774 19.195 69.2445 24.8373 71.2877 32.504C71.6063 33.685 71.7563 34.9222 72 36.1406C72 44.2572 72 52.3551 72 60.4718C71.5314 61.7277 70.6129 62.1401 69.3007 62.1401C61.1841 62.1213 53.0487 62.1213 44.932 62.1213C44.6321 62.1213 44.3509 62.1213 43.9948 62.1213C43.9948 62.9461 44.0135 63.6772 43.9948 64.4082C43.8636 67.6136 41.7641 70.4816 38.7274 71.5314C38.1651 71.7376 37.5652 71.85 36.9841 72C36.4218 72 35.8594 72 35.2971 72C35.2408 71.9625 35.1658 71.925 35.1096 71.9063C30.5545 70.9503 28.2302 68.101 28.2302 63.471C28.2302 63.0398 28.2302 62.6087 28.2302 62.1213C27.8178 62.1213 27.4991 62.1213 27.1992 62.1213C19.0263 62.1213 10.8534 62.1026 2.6993 62.1401C1.40588 62.1401 0.468628 61.7277 0 60.4718C0 51.849 0 43.2262 0 34.6035C0.0374902 34.3973 0.112471 34.1911 0.131216 33.9849C0.449883 31.3231 1.27467 28.8112 2.75553 26.5806C6.41083 20.9945 11.622 18.089 18.2952 18.0515C28.1552 17.9953 38.0151 18.0328 47.875 18.0328C48.175 18.0328 48.4749 18.0328 48.831 18.0328C48.831 17.6579 48.831 17.3955 48.831 17.1143C48.831 12.353 48.8498 7.61052 48.8123 2.84926C48.7935 1.49961 49.1872 0.506118 50.4806 0ZM67.7261 57.8662C67.7449 57.6412 67.7636 57.4538 67.7636 57.2663C67.7636 50.6681 67.8011 44.051 67.7449 37.4527C67.7074 30.9107 63.4147 25.0247 57.1914 23.019C55.8792 22.5879 54.4921 22.4192 53.0674 22.1192C53.0299 22.4567 53.0112 22.5691 53.0112 22.6816C53.0112 26.693 53.0112 30.6858 52.9925 34.6972C52.9925 35.1658 53.2361 35.2783 53.5735 35.4283C56.2728 36.6467 57.8662 39.4772 57.4538 42.3452C56.9852 45.5694 54.3983 47.875 51.1179 48.0437C48.1 48.1937 45.2882 46.038 44.5197 42.9826C43.7699 39.9084 45.2882 36.7779 48.2312 35.447C48.7186 35.2221 48.8123 34.9596 48.8123 34.491C48.7935 30.6483 48.8123 26.8055 48.7935 22.9628C48.7935 22.7378 48.7748 22.5129 48.7561 22.2692C42.4202 22.2692 36.1406 22.2692 29.8985 22.2692C30.7795 23.2439 31.698 24.1625 32.4853 25.1747C35.0721 28.5301 36.2156 32.3541 36.2156 36.5717C36.1968 43.3575 36.2156 50.1619 36.2156 56.9477C36.2156 57.2476 36.2343 57.5288 36.2531 57.8662C46.7691 57.8662 57.2101 57.8662 67.7261 57.8662ZM32.0167 57.8662C32.0167 57.5663 32.0167 57.3413 32.0167 57.1164C32.0167 50.2369 32.0167 43.3387 31.9979 36.4593C31.9979 35.522 31.9042 34.5847 31.773 33.6662C30.592 26.2994 23.0752 21.0508 15.7646 22.4567C8.88519 23.7688 4.2364 29.3549 4.2364 36.3468C4.2364 43.2825 4.2364 50.2182 4.2364 57.1539C4.2364 57.3788 4.25514 57.6038 4.27389 57.8662C13.4965 57.8662 22.6816 57.8662 32.0167 57.8662ZM66.3952 4.25514C61.7839 4.25514 57.435 4.25514 53.0674 4.25514C53.0674 6.20463 53.0674 8.09789 53.0674 10.0286C57.4538 10.0286 61.8027 10.0286 66.3952 10.0286C64.6332 8.09789 64.5769 6.22338 66.3952 4.25514ZM39.8334 62.1401C37.3028 62.1401 34.9034 62.1401 32.4478 62.1401C32.4478 62.8711 32.4291 63.5834 32.4478 64.277C32.5415 66.114 33.9662 67.5761 35.8032 67.7449C37.5652 67.9136 39.2898 66.7139 39.6459 64.9331C39.8146 64.0521 39.7771 63.1336 39.8334 62.1401ZM53.2924 41.4455C53.2924 40.1146 52.2614 39.0836 50.9492 39.0836C49.6371 39.0836 48.5686 40.1146 48.5499 41.4267C48.5311 42.7389 49.6371 43.8636 50.9492 43.8448C52.2426 43.8073 53.2924 42.7389 53.2924 41.4455ZM18.1453 40.1708C20.3947 40.1708 22.6441 40.1708 24.8935 40.1708C26.5618 40.1708 27.3491 40.9581 27.3491 42.6264C27.3491 45.4382 27.3491 48.2499 27.3491 51.0617C27.3491 52.7113 26.5431 53.4986 24.8748 53.4986C20.3572 53.4986 15.8396 53.4986 11.3221 53.4986C9.67248 53.4986 8.86644 52.6925 8.86644 51.043C8.86644 48.2124 8.86644 45.3819 8.86644 42.5514C8.86644 41.0331 9.69123 40.1895 11.1908 40.1895C13.5152 40.152 15.8209 40.1708 18.1453 40.1708ZM13.1028 49.2247C16.477 49.2247 19.7948 49.2247 23.094 49.2247C23.094 47.5939 23.094 46.0005 23.094 44.4259C19.7386 44.4259 16.4207 44.4259 13.1028 44.4259C13.1028 46.038 13.1028 47.6126 13.1028 49.2247Z" fill="#7A43EE"/>
</g>
<defs>
<clipPath id="clip0_202_675">
<rect width="72" height="72" fill="white"/>
</clipPath>
</defs>
</svg>
