<svg width="200" height="189" viewBox="0 0 200 189" fill="none" xmlns="http://www.w3.org/2000/svg">
<path d="M71.0683 85.8449C81.5014 78.8849 70.5521 58.2287 58.6475 63.5471C63.2958 61.4555 68.2892 58.027 72.9463 56C77.2959 54.1296 82.3655 56.122 85.9111 59.4852C91.7502 64.9765 92.8209 77.016 85.1796 80.7983C80.4362 83.1595 74.7096 84.3285 69.9031 86.4662C70.3038 86.269 70.7045 86.0717 71.0683 85.8449Z" fill="#7A43EE"/>
<path d="M45.6354 114.829C43.8845 113.309 42.4886 111.498 41.2984 109.505C39.0005 105.645 38.2929 101.389 37.2234 97.1304C34.3005 85.7373 31.4057 74.3091 28.4827 62.916C27.0888 57.4754 24.4109 51.2928 26.9701 45.9115C28.2541 43.2531 30.4826 41.9865 33.1187 40.8163C37.5808 38.8057 42.0797 36.8247 46.5136 34.8492C36.8725 39.1596 43.6118 50.3294 45.6439 58.2992C47.5955 65.9161 49.0744 73.4421 51.026 81.059C51.943 84.6763 52.6156 88.6738 53.5326 92.291C54.2339 95.0437 55.0478 97.6561 56.2517 100.236C58.3946 104.894 62.4384 106.352 66.3847 109.517C72.3964 114.34 78.92 117.845 84.9317 122.668C97.2413 132.486 108.291 143.194 120.6 153.012C127.091 158.219 133.6 163.556 140.429 168.343C143.52 170.535 145.512 174.323 149.014 172.753C144.888 174.572 140.799 176.42 136.672 178.239C133.477 179.652 130.501 180.492 126.986 179.055C124.932 178.214 123.227 176.789 121.53 175.428C116.736 171.581 111.95 167.799 107.155 163.953C97.4274 156.206 87.7645 148.454 78.0366 140.708C67.2391 132.103 56.1147 123.755 45.6354 114.829Z" fill="#7A43EE"/>
<path d="M54.5676 100.672C57.8444 107.393 63.8635 111.3 69.617 115.915C75.6287 120.738 81.6684 125.526 87.6432 130.319C99.8053 140.019 111.976 149.783 124.138 159.482C127.015 161.79 129.855 164.068 132.76 166.341C135.378 168.442 137.956 170.971 141.007 172.381C145.288 174.375 149.806 173.504 152.536 169.874C154.403 167.395 155.746 164.438 157.253 161.728C159.164 158.363 161.067 154.933 162.979 151.568C166.501 145.288 170.052 138.973 173.575 132.693C177.125 126.378 180.676 120.064 184.153 113.689C186.81 108.79 186.959 103.089 183.444 98.2519C181.792 96.0043 179.523 94.2992 177.347 92.5535C174.064 89.9201 170.782 87.2868 167.435 84.6589C161.386 79.8065 155.346 75.0187 149.298 70.1662C137.209 60.526 125.149 50.8507 112.996 41.2159C107.694 37.0199 101.613 30.4701 94.6414 29.4879C91.5178 28.9991 87.8996 29.9577 84.6947 30.3258C80.6446 30.765 76.5664 31.2393 72.5163 31.6785C68.438 32.1528 64.3879 32.592 60.3097 33.0663C56.1665 33.5461 51.6738 33.6303 47.62 34.5275C44.3288 35.2298 41.8114 37.7632 40.8944 40.9464C39.8348 44.534 40.8187 47.9167 41.7269 51.4693C43.831 59.7273 45.9719 68.0149 48.076 76.2729C49.0736 80.243 50.0713 84.2131 51.1339 88.1777C52.1403 92.2125 52.7792 96.9321 54.5676 100.672ZM81.8782 80.6839C68.4839 82.041 61.3966 57.8554 75.7573 56.3515C81.6277 55.759 87.0455 60.5665 88.9789 65.8636C91.1299 71.7963 88.9469 79.9577 81.8782 80.6839Z" fill="url(#paint0_linear_211_658)"/>
<defs>
<linearGradient id="paint0_linear_211_658" x1="112.865" y1="36.7234" x2="118.292" y2="201.108" gradientUnits="userSpaceOnUse">
<stop stop-color="#B565E5"/>
<stop offset="1" stop-color="#7A43EE"/>
</linearGradient>
</defs>
</svg>
