<svg width="205" height="213" viewBox="0 0 205 213" fill="none" xmlns="http://www.w3.org/2000/svg">
<path d="M35.9568 126.457C39.0535 128.483 43.4009 127.815 46.5431 126.152C52.4311 123.102 51.7671 116.354 53.9786 110.847C60.8953 93.8176 78.1623 82.8457 95.0407 77.5495C102.553 75.1879 111.362 73.1262 119.256 74.0086C120.393 74.1411 120.195 74.0885 120.53 75.1027C120.912 76.2466 121.285 77.337 121.667 78.4809C122.567 81.1574 123.498 83.8568 124.375 86.564C125.466 89.8125 127.083 91.7834 130.851 92.0191C133.52 92.1986 135.831 91.2035 138.31 90.2382C144.045 88.0294 149.804 85.7899 155.501 83.5049C159.757 81.8142 168.261 79.3338 166.659 72.8877C165.43 67.914 163.371 63.0354 161.731 58.2314C161.395 61.7992 157.216 62.115 153.898 63.6948C147.255 66.801 143.38 64.4809 137.424 70.4861C136.379 67.3672 133.625 67.7457 132.611 64.6496C132.29 63.7422 132.153 62.5897 131.444 62.0123C130.795 61.4806 129.43 61.2726 128.774 61.0693C118.79 58.1493 108.257 58.0649 98.0904 60.163C76.4527 64.5787 51.635 78.7905 46.801 102.195C46.2825 104.671 46.0538 106.887 44.2234 108.766C42.6829 110.384 40.4939 111.47 38.3355 112.006C35.1246 112.806 30.0602 112.462 28.7862 108.695C30.0144 112.332 31.2502 116.023 32.4784 119.66C33.2794 122.024 33.7296 124.985 35.9568 126.457ZM130.491 75.9533C127.364 77.1504 122.346 77.3172 120.301 74.0728C124.008 74.263 127.684 74.8122 131.269 75.675C131.033 75.7371 130.773 75.8299 130.491 75.9533Z" fill="#FB7354"/>
<path d="M79.1716 123.499C80.2167 126.809 77.5474 129.684 74.9391 131.268C73.2307 132.284 71.2477 132.903 69.4172 133.637C66.397 134.818 66.5952 134.489 67.5107 137.272C68.9601 141.504 70.3561 145.744 71.8055 149.976C75.7257 148.417 82.5366 146.868 84.199 142.095C84.8548 140.199 84.2675 138.758 83.7029 136.904C82.2993 132.42 80.6821 127.967 79.1716 123.499ZM52.7698 173.373C52.0681 173.04 51.1147 172.471 50.596 171.893C48.5365 169.496 47.3998 164.782 46.1106 161.863C44.8749 159.126 43.4713 156.36 42.4186 153.57C40.5344 148.584 39.0087 143.436 37.2999 138.342C44.4009 142.259 43.6691 147.631 46.4609 152.865C47.3534 154.534 45.6451 156.886 47.1095 157.788C48.8181 158.873 51.0223 159.039 52.9824 158.832C57.6731 158.277 63.2787 154.587 62.2716 149.254C78.4641 151.559 93.131 152.343 109.132 147.967C124.165 143.87 138.58 136.591 150.157 126.049C155.366 121.299 158.592 115.642 160.91 108.973C165.181 96.8885 167.774 94.0518 170.389 88.3207C171.717 92.2707 173.052 96.2742 174.379 100.224C176.24 105.814 175.242 110.652 173.152 116.251C168.279 129.461 157.877 140.403 146.421 148.364C131.968 158.43 114.762 164.675 97.2658 166.407C86.9159 167.414 77.5344 165.66 67.3141 164.52C68.7637 171.807 58.3911 176.09 52.7698 173.373Z" fill="#FB7354"/>
<path fill-rule="evenodd" clip-rule="evenodd" d="M40.0816 111.449C39.9062 111.557 39.7232 111.611 39.5401 111.665C35.8792 112.941 32.0809 112.492 29.9986 110.507C28.9231 109.466 28.4425 108.2 28.6407 106.725C31.2404 88.2871 43.3054 72.5724 64.8969 59.6269C66.8129 58.4836 68.8773 57.4718 70.9471 56.4574C72.0245 55.9294 73.1034 55.4006 74.1635 54.8522L75.1473 54.2981C76.4897 53.7731 77.8187 53.2499 79.1476 52.7268C80.4766 52.2037 81.8056 51.6806 83.1479 51.1555C84.2148 50.8535 85.2825 50.5342 86.3513 50.2146C88.3006 49.6316 90.2531 49.0478 92.2088 48.5658C107.875 44.7029 122.511 44.5099 136.103 47.8801C136.235 47.9119 136.378 47.9301 136.539 47.9506C136.72 47.9737 136.924 47.9997 137.163 48.0512C137.113 47.9231 137.071 47.8217 137.036 47.735C136.978 47.5949 136.936 47.4934 136.903 47.3803C135.797 44.4068 137.894 40.9613 142.066 38.8738C142.234 38.8081 142.394 38.7368 142.554 38.6655C142.715 38.5941 142.875 38.5228 143.043 38.4572C146.604 37.0596 150.746 37.4312 152.965 39.4224C153.072 39.5021 153.181 39.5952 153.29 39.6883C153.398 39.7814 153.507 39.8745 153.614 39.9542L161.784 58.2239C161.78 58.3881 161.763 58.5543 161.745 58.7205C161.728 58.8866 161.711 59.0528 161.707 59.217C161.547 61.9134 159.374 64.6338 155.865 66.0235C151.457 67.7913 147.049 69.5591 142.633 71.2735C138.636 72.8715 134.609 74.4467 130.575 75.9685C126.227 77.591 121.636 76.5493 120.202 73.7605C118.63 70.7737 120.567 66.9699 124.907 64.9122C125.723 64.5193 126.547 64.1797 127.401 63.8629C127.878 63.6809 128.364 63.5005 128.861 63.3165C129.818 62.9617 130.813 62.5931 131.848 62.1713C131.701 62.0996 131.572 62.0346 131.457 61.9763C131.133 61.8128 130.911 61.7007 130.681 61.6341C118.012 57.4734 104.054 57.6481 88.9529 62.6007C87.3131 63.1423 85.7038 63.7067 84.1555 64.3167C63.0901 72.5482 48.8208 87.7149 46.4574 104.373C46.0076 107.521 43.7502 110.036 40.0816 111.449ZM55.9793 158.063C52.1888 159.576 48.1159 159.113 45.8657 156.908C45.7666 156.786 45.5912 156.703 45.3166 156.689L37.1468 138.419C37.2078 138.273 37.246 138.159 37.2536 138.021C37.1771 134.814 39.4422 131.971 43.698 130.28L43.6992 130.28C47.825 128.636 51.9507 126.992 56.1069 125.37C60.0043 123.841 63.9016 122.312 67.8066 120.837C72.3522 119.076 76.8827 119.881 78.5914 122.493C80.3992 125.227 78.8892 128.968 74.8623 131.307C73.8552 131.882 72.7272 132.33 71.6034 132.777C71.4336 132.845 71.2638 132.912 71.0946 132.98C70.7972 133.092 70.5073 133.21 70.2175 133.328C69.9277 133.445 69.6379 133.563 69.3404 133.675C68.4633 134.023 67.5863 134.37 66.5795 134.764C66.7512 134.842 66.8991 134.915 67.0334 134.98C67.2868 135.104 67.4916 135.204 67.716 135.278C79.7365 139.48 93.122 139.689 107.766 135.35C110.458 134.544 113.005 133.678 115.484 132.712C130.044 127.021 140.897 118.277 147.951 106.6C150.727 101.991 152.161 97.3342 152.778 92.6885C153.182 89.6015 155.775 86.9557 159.131 85.643C160.756 84.9945 162.617 84.6658 164.432 84.7801C168.39 85.0151 170.923 87.2875 170.549 90.3972C169.307 101.163 164.106 111.502 154.908 121.339C146.969 129.873 137.031 136.82 125.179 142.193C124.897 142.317 124.622 142.494 124.347 142.671C123.585 142.968 122.818 143.265 122.049 143.564C119.981 144.367 117.897 145.177 115.828 145.999C115.727 146.021 115.623 146.041 115.519 146.062C115.216 146.122 114.905 146.183 114.616 146.286C97.1957 151.99 80.6908 153.031 65.0245 149.639C64.4178 149.497 63.7851 149.417 63.1709 149.34C62.8431 149.298 62.5206 149.257 62.2101 149.208C62.2201 149.278 62.2388 149.373 62.2599 149.479C62.2871 149.617 62.3183 149.775 62.3398 149.925C62.7824 153.024 60.3953 156.158 56.3378 157.901C56.2386 157.97 56.109 158.017 55.9793 158.063Z" fill="url(#paint0_linear_246_1080)"/>
<defs>
<linearGradient id="paint0_linear_246_1080" x1="27.8122" y1="135.726" x2="170.612" y2="61.5587" gradientUnits="userSpaceOnUse">
<stop stop-color="#FB7354"/>
<stop offset="1" stop-color="#F8BA55"/>
</linearGradient>
</defs>
</svg>
