<svg width="72" height="72" viewBox="0 0 72 72" fill="none" xmlns="http://www.w3.org/2000/svg">
<path d="M72 21.0802C72 33.8214 72 46.5627 72 59.3039C71.8688 59.7503 71.7751 60.1967 71.6252 60.6245C70.557 63.9354 67.6148 66 63.923 66C45.3139 66 26.7048 66 8.07704 66C7.88964 66 7.70224 66 7.51484 66C4.46018 65.814 2.19261 64.3818 0.80583 61.6661C0.431025 60.9407 0.262363 60.1037 0 59.3039C0.0374805 46.5627 0.0374805 33.8214 0.0374805 21.0802C0.074961 21.0244 0.112441 20.9686 0.131182 20.8942C0.712129 17.8438 2.47371 15.8163 5.39719 14.7561C5.58459 14.6817 5.77199 14.3655 5.77199 14.1609C5.80947 13.0263 5.77199 11.8917 5.79073 10.7384C5.84695 8.50639 7.45862 6.47896 9.6887 6.18135C11.3004 5.97675 12.9682 5.97675 14.5799 6.18135C16.7725 6.47896 18.3654 8.48779 18.4404 10.7012C18.4779 11.7429 18.4404 12.7845 18.4591 13.8447C18.4591 14.0121 18.4966 14.1981 18.5154 14.3841C19.5086 14.3841 20.4456 14.3655 21.3826 14.3841C21.7574 14.4027 21.9073 14.2539 22.0198 13.9191C22.4133 12.7101 22.8069 11.4824 23.2379 10.292C24.1749 7.66938 26.4612 6.03255 29.2723 6.01395C33.7699 5.99535 38.2676 5.99535 42.7652 6.01395C45.5763 6.01395 47.8626 7.65078 48.8183 10.2734C49.2119 11.3894 49.6054 12.5055 49.9427 13.6401C50.1114 14.1981 50.355 14.3841 50.9547 14.3841C55.3774 14.3469 59.8001 14.3469 64.2228 14.3655C67.6897 14.3841 70.5945 16.5045 71.6439 19.7224C71.7751 20.1874 71.8876 20.6524 72 21.0802ZM35.9813 61.8149C45.2952 61.8149 54.6278 61.8149 63.9417 61.8149C66.303 61.8149 67.7647 60.3827 67.7647 58.0577C67.7647 46.1535 67.7647 34.2492 67.7647 22.345C67.7647 20.02 66.303 18.5878 63.9417 18.5878C58.9943 18.5878 54.0656 18.5878 49.1182 18.5878C47.5815 18.5878 47.0005 18.1786 46.532 16.7463C45.9885 15.1095 45.4451 13.4913 44.8829 11.8545C44.4893 10.6826 43.8147 10.199 42.5778 10.199C38.1926 10.199 33.8261 10.199 29.4409 10.199C28.2041 10.199 27.5481 10.6826 27.1546 11.8545C26.6299 13.4169 26.1052 14.9793 25.5804 16.5417C25.0182 18.1972 24.5122 18.5692 22.7694 18.5692C17.9531 18.5692 13.1182 18.5692 8.30193 18.5692C5.64081 18.5692 4.27277 19.927 4.27277 22.5496C4.27277 34.305 4.27277 46.0791 4.27277 57.8345C4.27277 60.4199 5.65955 61.8149 8.2457 61.8149C17.4846 61.8149 26.7236 61.8149 35.9813 61.8149ZM10.026 14.3469C11.469 14.3469 12.8371 14.3469 14.2426 14.3469C14.2426 13.1937 14.2426 12.0777 14.2426 10.9616C14.2426 10.4594 13.9427 10.199 13.4368 10.199C12.5747 10.199 11.7126 10.199 10.8506 10.199C10.3446 10.199 10.0448 10.4594 10.0448 10.9616C10.0073 12.0777 10.026 13.1751 10.026 14.3469ZM36.1124 19.9642C46.5508 20.02 55.0213 28.5017 54.9839 38.8621C54.9464 49.2597 46.3821 57.6857 35.9063 57.6299C25.4492 57.5741 16.9599 49.0551 17.0349 38.6575C17.1098 28.3157 25.6741 19.927 36.1124 19.9642ZM36 24.1493C27.8855 24.1493 21.2514 30.7152 21.2514 38.7877C21.2514 46.8603 27.8667 53.4262 35.9813 53.4448C44.1333 53.4634 50.7861 46.8603 50.7673 38.7691C50.7673 30.7152 44.1333 24.1493 36 24.1493ZM10.7382 22.7728C9.53878 22.81 8.63925 23.7029 8.62051 24.8375C8.60177 25.9721 9.5013 26.9207 10.6819 26.9393C12.1062 26.9765 13.5305 26.9765 14.9547 26.9393C16.1353 26.9207 17.0349 25.9907 17.0349 24.8375C17.0349 23.7029 16.1166 22.7914 14.936 22.7542C14.2426 22.7356 13.5305 22.7542 12.8371 22.7542C12.1249 22.7542 11.4315 22.7542 10.7382 22.7728ZM59.2192 24.8189C59.2004 25.9535 60.1374 26.9207 61.2618 26.9579C62.4237 26.9951 63.417 26.0279 63.4357 24.8747C63.4357 23.7401 62.4987 22.7914 61.3555 22.7728C60.2124 22.7542 59.2379 23.6843 59.2192 24.8189ZM25.4867 38.7877C25.4867 33.0216 30.228 28.3343 36.0375 28.3529C41.847 28.3529 46.5695 33.0588 46.5695 38.8249C46.5695 44.591 41.8282 49.2783 36.0187 49.2783C30.2093 49.2597 25.468 44.5538 25.4867 38.7877ZM42.3342 38.8249C42.3342 35.3839 39.5232 32.5566 36.075 32.5194C32.5705 32.5008 29.7033 35.3095 29.7033 38.7691C29.7033 42.2102 32.5143 45.0374 35.9625 45.0746C39.4669 45.1118 42.3342 42.2846 42.3342 38.8249Z" fill="#7A43EE"/>
</svg>
