<svg width="72" height="72" viewBox="0 0 72 72" fill="none" xmlns="http://www.w3.org/2000/svg">
<g clip-path="url(#clip0_246_1109)">
<path d="M54.1636 72C42.0735 72 29.9833 72 17.8932 72C17.8054 71.9648 17.7175 71.9297 17.6296 71.9121C14.6774 71.3145 12.762 69.3984 12.3051 66.4102C11.6373 62.1035 11.0574 57.7969 10.4424 53.4902C9.63401 47.8301 8.80808 42.1875 7.99973 36.5273C7.12109 30.498 6.26002 24.4863 5.38138 18.457C5.10022 16.5234 4.81905 14.6074 4.52031 12.6562C3.76468 12.6562 3.06177 12.6562 2.35885 12.6562C0.900309 12.6387 0.0568131 11.8125 0.0392403 10.3535C0.0216674 9.07031 -0.0486239 7.76953 0.0568131 6.48633C0.127104 5.51953 0.28526 4.5 0.689435 3.63867C1.90196 1.08984 4.04585 0 6.82235 0C26.2931 0 45.7638 0 65.2169 0C65.3575 0 65.498 0 65.6386 0C67.7474 0.0703125 69.5574 0.84375 70.7348 2.61914C71.3322 3.51562 71.5958 4.60547 72 5.625C72 7.45312 72 9.28125 72 11.1094C71.0862 13.2188 69.1708 12.5332 67.5365 12.6738C67.4838 12.9023 67.4311 13.0957 67.4135 13.3066C67.0796 15.6445 66.7281 17.9824 66.3943 20.3203C65.3047 27.9141 64.2152 35.5254 63.1081 43.1191C62.0362 50.502 60.9643 57.9023 59.9099 65.2852C59.6463 67.1309 59.2421 68.8711 57.8187 70.207C56.7819 71.209 55.5167 71.7012 54.1636 72ZM63.2487 12.709C45.0433 12.709 26.9432 12.709 8.84323 12.709C8.8608 12.8672 8.8608 12.9902 8.87838 13.0957C9.82731 19.7402 10.7762 26.4023 11.7427 33.0469C13.3243 43.9277 14.9059 54.8262 16.4874 65.707C16.6807 67.0605 17.5066 67.7813 18.8597 67.7813C30.3172 67.7813 41.7747 67.7813 53.2322 67.7813C54.5853 67.7813 55.3937 67.043 55.6045 65.6895C56.0966 62.3145 56.5886 58.9219 57.0807 55.5469C57.9066 49.8867 58.7149 44.2441 59.5233 38.584C60.3492 32.9063 61.1751 27.2285 61.9835 21.5508C62.3877 18.6152 62.8094 15.6797 63.2487 12.709ZM4.25672 8.38477C25.4671 8.38477 46.6073 8.38477 67.7825 8.38477C67.7825 7.61133 67.8177 6.89062 67.7649 6.16992C67.6947 4.92187 66.7633 4.21875 65.252 4.21875C45.7638 4.21875 26.2755 4.21875 6.78721 4.21875C6.59391 4.21875 6.41818 4.21875 6.22488 4.23633C5.15294 4.32422 4.32701 5.11523 4.25672 6.1875C4.22157 6.89063 4.25672 7.62891 4.25672 8.38477ZM39.6836 32.2559C38.6643 32.3086 37.8735 33.1348 37.7681 34.1719C37.6627 35.1387 38.3129 36.0879 39.3497 36.3867C41.1421 36.8965 42.9521 37.3711 44.7621 37.8457C46.3261 38.25 47.2926 37.7051 47.7319 36.1406C47.7846 35.9297 47.8374 35.7363 47.9076 35.5254C48.3294 33.9609 48.7511 32.4141 49.1553 30.8496C49.4892 29.5664 48.9093 28.4414 47.7495 28.1074C46.5721 27.7734 45.5177 28.3887 45.1136 29.6719C45.0433 29.8828 44.973 30.0938 44.8675 30.4102C44.6742 30.1113 44.5512 29.9004 44.4106 29.6895C43.3387 27.8789 42.3195 26.0332 41.1597 24.2754C38.6292 20.4434 32.7774 20.6895 30.5281 24.6797C30.0888 25.4707 30.1064 26.2441 30.616 27C31.0904 27.6855 32.0218 28.1074 32.7774 27.791C33.3398 27.5625 33.8669 27.1055 34.2711 26.6133C35.2552 25.4707 36.8719 25.418 37.6802 26.666C38.8752 28.5293 39.9647 30.4629 41.1421 32.4316C40.5973 32.3613 40.1404 32.2383 39.6836 32.2559ZM39.9471 50.9063C41.9329 50.9063 43.9362 50.959 45.9219 50.8711C50.4557 50.6777 53.2674 45.8437 51.2465 41.7832C50.6139 40.5176 49.5068 40.043 48.3821 40.5527C47.2574 41.0625 46.8708 42.2227 47.4156 43.5234C48.1361 45.2461 47.2047 46.6699 45.3596 46.6875C43.4441 46.7051 41.5111 46.6875 39.5957 46.6875C39.4551 46.6875 39.3145 46.6523 39.1212 46.6172C39.3672 46.3535 39.5605 46.1426 39.7363 45.9316C40.4392 45.0527 40.404 43.9102 39.6484 43.1191C38.8752 42.3105 37.6275 42.2051 36.8016 42.9961C35.2728 44.4375 33.7791 45.9316 32.3381 47.4609C31.6352 48.1992 31.5825 49.3066 32.2678 50.0273C33.7791 51.627 35.3255 53.1914 36.9422 54.6855C37.6978 55.3887 38.8752 55.2305 39.6308 54.5098C40.3865 53.7715 40.4919 52.6289 39.8417 51.7676C39.6484 51.5039 39.42 51.2754 39.0861 50.9063C39.4551 50.9063 39.7011 50.9063 39.9471 50.9063ZM23.7801 36.4746C22.7609 38.2676 21.6538 40.0078 20.74 41.8535C18.7192 45.8965 21.6538 50.7305 26.1525 50.8887C27.4529 50.9414 28.4194 50.1328 28.5072 48.9023C28.5951 47.7598 27.7165 46.8105 26.4512 46.6699C24.5709 46.4766 23.7801 44.9473 24.7115 43.2773C25.6429 41.625 26.5918 39.9902 27.5407 38.3555C27.6286 38.2148 27.734 38.0918 27.8746 37.916C27.9625 38.2148 28.0328 38.4258 28.1031 38.6191C28.4897 39.7793 29.5089 40.377 30.5984 40.1133C31.7406 39.832 32.4435 38.7773 32.1624 37.5996C31.6879 35.6309 31.1432 33.6621 30.5808 31.7109C30.2821 30.6738 29.3332 30.0234 28.3139 30.2695C26.2052 30.7617 24.0964 31.3418 22.0229 31.957C21.1618 32.2207 20.6522 33.1523 20.74 34.0137C20.8279 34.9629 21.4254 35.7363 22.3567 35.8945C22.9191 36 23.499 35.9121 24.0965 35.9121C24.0262 36.0352 23.9031 36.2637 23.7801 36.4746Z" fill="#7A43EE"/>
</g>
<defs>
<clipPath id="clip0_246_1109">
<rect width="72" height="72" fill="white"/>
</clipPath>
</defs>
</svg>
