<svg width="72" height="72" viewBox="0 0 72 72" fill="none" xmlns="http://www.w3.org/2000/svg">
<g clip-path="url(#clip0_158_428)">
<path fill-rule="evenodd" clip-rule="evenodd" d="M0 5.775V39.2438C0.0125 39.275 0.0291667 39.3063 0.0458333 39.3375C0.0791667 39.4 0.1125 39.4625 0.1125 39.525C0.84375 42.7688 3.39375 44.85 6.76875 44.85C11.5806 44.8625 16.384 44.8583 21.1903 44.8542C23.5944 44.8521 25.9993 44.85 28.4062 44.85H29.3063V51.1687C29.1 51.0375 28.9125 50.925 28.725 50.8125C25.7812 48.9375 21.9375 49.5 19.6875 52.125C17.4375 54.75 17.4563 58.6875 19.875 61.2188C22.6312 64.1062 25.4625 66.9 28.3125 69.675C29.55 70.875 31.0875 71.5875 32.7937 71.8687C32.8725 71.88 32.9512 71.9115 33.03 71.943C33.0825 71.964 33.135 71.985 33.1875 72H52.875C54.3 71.6812 55.6875 71.2875 56.8875 70.4062C59.3625 68.6062 60.675 66.1688 60.7125 63.1125C60.75 58.6313 60.7312 54.1313 60.7125 49.6313C60.7125 48 60.3 46.4437 59.4187 44.9437C59.5399 44.9357 59.6471 44.9241 59.7448 44.9136C59.8741 44.8997 59.987 44.8875 60.0938 44.8875H65.0063C68.625 44.8687 71.0437 42.9562 71.8875 39.4125C71.9 39.375 71.9292 39.3375 71.9583 39.3C71.9729 39.2813 71.9875 39.2625 72 39.2438V5.775C71.9062 5.41875 71.8125 5.0625 71.7 4.70625C70.8562 2.23125 69.1875 0.69375 66.6187 0.13125C66.5531 0.1125 66.4875 0.0890625 66.4219 0.065625C66.3563 0.0421875 66.2906 0.01875 66.225 0H5.75625C5.50118 0.0927526 5.24253 0.176544 4.98417 0.260239C4.40688 0.44725 3.83107 0.633785 3.3 0.91875C1.63125 1.8375 0.61875 3.31875 0.15 5.175C0.119188 5.34447 0.0757178 5.50127 0.02999 5.66622C0.0200642 5.70203 0.0100321 5.73821 0 5.775ZM33.6 55.9125V42.6937V42.691C33.6 38.2294 33.6 33.7866 33.5813 29.3063C33.5813 27.75 34.6687 26.7188 36.1687 26.8125C37.4625 26.9062 38.3812 27.9188 38.3812 29.3438V42.4875C38.3812 43.2188 38.5125 43.9125 39.1125 44.3063C39.5813 44.625 40.1812 44.85 40.725 44.85C43.3685 44.8781 46.0226 44.8746 48.6794 44.8711C49.5652 44.8699 50.4514 44.8688 51.3375 44.8688C54.525 44.8688 56.475 46.8 56.475 49.9875V62.7188C56.475 65.8313 54.525 67.7812 51.4312 67.7812C49.5562 67.7812 47.6812 67.7792 45.8062 67.7771C42.0562 67.7729 38.3063 67.7687 34.5563 67.7812C33.075 67.7812 31.8375 67.275 30.7875 66.225C28.9028 64.3121 26.9969 62.4098 25.0937 60.5102C24.4598 59.8774 23.8262 59.245 23.1937 58.6125C22.0125 57.4313 21.9563 55.8375 23.025 54.7312C24.0938 53.625 25.7812 53.6625 26.9812 54.825C27.8812 55.7062 28.7812 56.5875 29.6625 57.5063C30.4125 58.2938 31.2563 58.7063 32.3063 58.2563C33.3188 57.825 33.6 56.9625 33.6 55.9125ZM4.21875 37.8187V35.6062C4.58881 35.6335 4.95098 35.6638 5.30708 35.6937C6.17788 35.7667 7.01241 35.8367 7.8375 35.85C12.9845 35.8781 18.1316 35.8746 23.2787 35.8711C24.9941 35.8699 26.7096 35.8688 28.425 35.8688H29.325V40.6687H28.5938H7.03125C5.1 40.6687 4.21875 39.7687 4.21875 37.8187ZM66.5813 35.7252C66.9738 35.7035 67.3675 35.6818 67.7625 35.6625C67.7625 35.9254 67.7682 36.2074 67.7742 36.5018C67.7869 37.131 67.8008 37.8167 67.7625 38.4938C67.6687 39.7688 66.6188 40.65 65.25 40.65H50.55H43.4437H42.6562V35.85H43.4437C45.6451 35.85 47.8444 35.8521 50.0424 35.8542C54.434 35.8583 58.8201 35.8625 63.2063 35.85C64.3209 35.85 65.4459 35.7879 66.5813 35.7252ZM42.7975 31.6053C42.7407 31.6016 42.6814 31.5977 42.6188 31.5938C42.6188 31.4041 42.6145 31.2166 42.6103 31.0312C42.602 30.6668 42.5939 30.3105 42.6188 29.9625C42.8813 26.3813 40.7625 23.3625 36.975 22.5563C32.43 22.2013 29.6358 24.718 29.5 27C29.4334 28.1186 29.3848 29 29.3848 30.19C29.3527 30.6628 29.3201 31.1423 29.2875 31.6312H28.6125H7.03125C5.1375 31.6312 4.21875 30.6937 4.21875 28.8187V7.03125C4.21875 5.1375 5.1375 4.21875 7.0125 4.21875H65.0063C66.8438 4.21875 67.7812 5.1375 67.7812 6.975V28.8375C67.7812 30.6938 66.8437 31.6312 65.025 31.6312H43.3688C43.1907 31.6312 43.0127 31.6195 42.7975 31.6053Z" fill="#7A43EE"/>
</g>
<defs>
<clipPath id="clip0_158_428">
<rect width="72" height="72" fill="white"/>
</clipPath>
</defs>
</svg>
