<svg width="450" height="349" viewBox="0 0 450 349" fill="none" xmlns="http://www.w3.org/2000/svg">
<g filter="url(#filter0_i_158_525)">
<path d="M122.806 45.3906C120.21 47.8382 118.8 51.3243 119.023 54.9587C120.877 82.773 120.135 87.1491 125.327 133.061C131.261 184.981 134.228 348.9 173.539 348.9C212.85 348.9 408.662 322.198 413.113 321.457C417.563 320.715 367.126 331.099 356.742 157.538C354.888 126.46 352.292 81.8829 350.586 63.2659C350.29 60.0024 348.658 57.0355 346.062 54.9587L331.153 43.0913C327.371 40.0502 322.179 39.6052 317.877 41.9787L299.408 52.066C295.848 53.9945 291.546 54.0686 287.985 52.1402L267.366 41.0886C263.88 39.2343 259.726 39.1602 256.24 41.0145L239.626 49.5442C236.362 51.2501 232.431 51.3243 229.093 49.7667L201.502 37.0834C197.941 35.4516 193.788 35.6741 190.376 37.6767L171.833 48.5799C168.718 50.4342 164.935 50.7309 161.597 49.5442L137.492 40.7178C133.264 39.1602 128.443 40.1244 125.179 43.2396L122.806 45.3906Z" fill="url(#paint0_linear_158_525)"/>
</g>
<g filter="url(#filter1_i_158_525)">
<path d="M191.34 299.947C191.34 299.947 195.049 314.039 192.082 331.841C190.969 338.516 185.258 344.227 178.583 348.826C227.239 346.972 414.077 321.457 415.189 321.457C439.814 305.955 439.814 274.061 439.814 274.061L191.34 299.947Z" fill="url(#paint1_linear_158_525)"/>
</g>
<path d="M191.115 266.994C187.999 266.994 185.403 264.621 185.181 261.431C184.958 258.168 187.406 255.349 190.744 255.127L326.478 246.226C329.741 246.004 332.56 248.525 332.782 251.789C333.005 255.053 330.557 257.871 327.219 258.094L191.486 266.994C191.411 266.994 191.263 266.994 191.115 266.994ZM185.552 241.034L323.511 233.617C326.774 233.469 329.296 230.65 329.148 227.387C328.999 224.123 326.181 221.601 322.917 221.75L184.958 229.167C181.695 229.315 179.173 232.134 179.321 235.397C179.47 238.586 182.14 241.034 185.255 241.034C185.329 241.034 185.403 241.034 185.552 241.034ZM179.618 217.299L323.511 209.14C326.774 208.918 329.296 206.174 329.074 202.91C328.851 199.646 326.107 197.125 322.843 197.347L178.951 205.506C175.687 205.729 173.165 208.473 173.388 211.736C173.536 214.926 176.206 217.299 179.321 217.299C179.396 217.299 179.47 217.299 179.618 217.299Z" fill="#E8F0FF"/>
<path d="M0 250.569L15.9434 260.664L64.7484 263.171L37.8047 241.31L0 250.569Z" fill="#7A43EE"/>
<path d="M295.127 74.8437C295.127 74.8437 290.532 110.003 272.43 133.674C242.145 173.22 200.093 168.137 153.029 181.574C91.1348 199.328 64.7481 263.171 64.7481 263.171L39.5449 243.816L108.471 171.479L187.492 146.276L229.543 109.307L248.898 76.5146L268.183 64.7485L295.127 74.8437Z" fill="#7A43EE"/>
<path d="M264.842 0L285.868 6.75333L309.4 68.0903L278.279 59.666L264.842 0Z" fill="url(#paint2_linear_158_525)"/>
<path d="M295.127 74.8436L309.4 68.0903L278.279 59.666L272.431 67.2548L295.127 74.8436Z" fill="#7A43EE"/>
<path d="M212.695 67.2548L264.842 0L289.21 62.242L274.937 67.2548C274.937 67.2548 266.443 106.73 251.405 122.744C237.968 137.016 221.328 149.269 202.67 151.358C179.973 153.865 138.757 158.111 101.787 186.656C61.1977 217.986 47.1341 250.569 47.1341 250.569H0C0 250.569 21.0258 184.986 110.142 157.206C148.713 145.231 164.795 153.029 190.834 134.51C220.493 113.484 227.803 70.5967 227.803 70.5967L212.695 67.2548Z" fill="url(#paint3_linear_158_525)"/>
<path d="M340.892 228.531C340.883 228.435 340.866 228.243 340.762 228.156C340.614 227.59 340.475 227.12 340.424 226.545C340.406 226.353 340.293 226.17 340.268 225.883C340.111 225.221 340.043 224.454 339.878 223.696C339.835 223.217 339.783 222.643 339.74 222.164C339.723 221.972 339.705 221.78 339.697 221.684C339.671 221.397 339.636 221.014 339.611 220.726C339.611 220.726 339.611 220.726 339.602 220.631C339.593 220.535 339.585 220.439 339.576 220.343C339.533 219.864 339.586 219.377 339.551 218.993C339.534 218.802 339.517 218.61 339.595 218.41C339.56 218.027 339.622 217.635 339.683 217.243C339.674 217.147 339.666 217.051 339.657 216.956C339.648 216.86 339.64 216.764 339.64 216.764C339.614 216.477 339.692 216.276 339.762 215.98C339.745 215.789 339.823 215.588 339.797 215.301C339.867 215.005 339.85 214.813 339.92 214.517C339.903 214.326 339.99 214.221 339.972 214.03L339.964 213.934C340.095 213.246 340.313 212.454 340.444 211.766C340.435 211.67 340.435 211.67 340.522 211.566C340.514 211.47 340.514 211.47 340.601 211.365C340.836 210.765 340.967 210.077 341.203 209.476C341.203 209.476 341.194 209.38 341.29 209.372C341.281 209.276 341.377 209.267 341.368 209.172C341.603 208.571 341.839 207.97 342.17 207.361C342.414 206.856 342.745 206.247 343.084 205.733C343.076 205.638 343.171 205.629 343.163 205.533L343.25 205.429C343.589 204.915 343.929 204.402 344.269 203.888C344.269 203.888 344.26 203.793 344.356 203.784C344.53 203.575 344.695 203.27 344.965 203.053L352.061 194.012C351.896 194.316 351.626 194.534 351.46 194.838C351.121 195.352 350.781 195.865 350.442 196.379C350.355 196.483 350.267 196.588 350.276 196.684C349.936 197.197 349.692 197.702 349.361 198.311C349.126 198.912 348.795 199.521 348.56 200.122C348.473 200.226 348.481 200.322 348.394 200.426C348.159 201.027 347.924 201.628 347.793 202.316C347.801 202.411 347.714 202.516 347.723 202.612C347.496 203.308 347.365 203.996 347.243 204.78C347.164 204.98 347.182 205.171 347.103 205.372C347.033 205.668 347.051 205.859 346.981 206.155C346.902 206.356 346.919 206.547 346.945 206.835C346.876 207.131 346.893 207.322 346.823 207.618C346.84 207.81 346.762 208.01 346.779 208.202C346.718 208.594 346.752 208.977 346.691 209.369C346.708 209.56 346.726 209.752 346.647 209.952C346.595 210.44 346.638 210.919 346.681 211.398C346.689 211.494 346.698 211.589 346.707 211.685C346.733 211.973 346.767 212.356 346.793 212.643C346.81 212.835 346.819 212.931 346.836 213.122C346.879 213.601 346.931 214.176 346.974 214.655C347.043 215.422 347.199 216.084 347.364 216.841C347.381 217.033 347.494 217.216 347.52 217.503C347.667 218.07 347.806 218.54 347.858 219.115C347.875 219.307 347.988 219.49 348.005 219.681C348.17 220.439 348.43 221.188 348.69 221.937C348.803 222.12 348.821 222.312 348.942 222.591C349.072 222.965 349.211 223.436 349.437 223.802C349.559 224.081 349.671 224.264 349.697 224.551C349.828 224.926 350.053 225.292 350.184 225.666C350.305 225.945 350.418 226.128 350.54 226.407C350.67 226.782 350.896 227.148 351.122 227.514C351.234 227.697 351.356 227.975 351.469 228.158C351.695 228.524 351.921 228.89 352.147 229.256C352.259 229.439 352.372 229.622 352.494 229.901C352.824 230.354 353.067 230.912 353.397 231.365C353.406 231.461 353.51 231.548 353.519 231.644C353.858 232.193 354.292 232.733 354.631 233.282C354.857 233.648 355.074 233.919 355.396 234.276C355.509 234.459 355.613 234.546 355.726 234.729C356.056 235.182 356.482 235.627 356.812 236.08C357.455 236.795 357.994 237.422 358.637 238.137C358.75 238.32 358.854 238.407 359.063 238.582C359.602 239.209 360.227 239.733 360.862 240.352C360.966 240.439 361.071 240.526 361.175 240.613C361.696 241.049 362.218 241.485 362.74 241.921C362.948 242.095 363.052 242.183 363.261 242.357C363.887 242.88 364.504 243.308 365.13 243.831C365.747 244.258 366.373 244.781 367.086 245.2C367.286 245.279 367.495 245.453 367.599 245.54C368.112 245.88 368.625 246.22 369.138 246.561C369.338 246.639 369.442 246.726 369.642 246.805C370.355 247.224 371.059 247.547 371.772 247.965C371.876 248.053 372.076 248.131 372.181 248.218C372.789 248.55 373.398 248.882 374.094 249.109C374.294 249.187 374.398 249.274 374.598 249.353C375.398 249.667 376.206 250.077 377.006 250.392C377.302 250.462 377.606 250.628 377.902 250.698C378.102 250.776 378.398 250.846 378.598 250.925C378.998 251.082 379.389 251.143 379.693 251.309C379.893 251.388 380.093 251.466 380.285 251.449C380.485 251.527 380.685 251.606 380.972 251.58C381.372 251.737 381.859 251.79 382.259 251.947C382.555 252.017 382.755 252.096 383.042 252.07C383.433 252.131 383.833 252.289 384.224 252.35C384.616 252.411 385.007 252.473 385.303 252.543C385.494 252.525 385.694 252.604 385.886 252.587C386.468 252.631 387.06 252.771 387.642 252.815C396.218 253.782 403.656 251.76 409.183 247.786C410.993 246.464 412.682 244.863 414.066 243.097L406.97 252.138C401.433 259.204 391.948 263.148 380.546 261.856C379.963 261.812 379.372 261.672 378.789 261.628C378.598 261.645 378.398 261.567 378.207 261.584C377.911 261.514 377.624 261.54 377.328 261.47C377.233 261.478 377.128 261.391 377.033 261.4C376.641 261.338 376.25 261.277 375.85 261.12C375.554 261.05 375.354 260.971 375.067 260.997C374.676 260.936 374.18 260.787 373.78 260.63C373.58 260.552 373.389 260.569 373.284 260.482L373.189 260.49C372.989 260.412 372.789 260.333 372.597 260.35C372.197 260.193 371.806 260.132 371.502 259.966C371.302 259.887 371.102 259.809 370.806 259.739C370.606 259.66 370.31 259.59 370.11 259.512C370.015 259.52 370.006 259.424 369.91 259.433C369.11 259.119 368.31 258.804 367.502 258.394C367.406 258.403 367.397 258.307 367.302 258.316C367.197 258.228 367.102 258.237 366.997 258.15C366.389 257.818 365.693 257.591 365.085 257.26C364.98 257.172 364.885 257.181 364.78 257.094L364.676 257.007C363.972 256.684 363.259 256.265 362.642 255.838L362.537 255.75C362.433 255.663 362.329 255.576 362.233 255.585C361.72 255.245 361.207 254.904 360.694 254.564C360.59 254.477 360.486 254.39 360.39 254.398C360.286 254.311 360.286 254.311 360.181 254.224C359.564 253.797 358.851 253.378 358.225 252.855C357.608 252.427 356.982 251.904 356.356 251.381C356.252 251.294 356.252 251.294 356.148 251.207C356.043 251.119 355.939 251.032 355.835 250.945C355.313 250.509 354.792 250.073 354.27 249.637C354.166 249.55 354.062 249.463 354.062 249.463C354.062 249.463 354.053 249.367 353.957 249.376C353.331 248.852 352.793 248.225 352.158 247.606C352.054 247.519 352.054 247.519 351.949 247.431C351.845 247.344 351.837 247.248 351.732 247.161C351.098 246.542 350.455 245.828 349.907 245.104C349.481 244.66 349.151 244.206 348.821 243.753C348.708 243.57 348.604 243.483 348.491 243.3C348.274 243.03 348.048 242.664 347.831 242.394C347.831 242.394 347.822 242.298 347.726 242.306C347.292 241.766 346.953 241.217 346.614 240.668C346.606 240.572 346.501 240.485 346.493 240.389C346.162 239.936 345.824 239.387 345.589 238.925C345.581 238.829 345.485 238.838 345.476 238.742C345.363 238.559 345.355 238.463 345.242 238.28C345.016 237.914 344.79 237.548 344.564 237.182C344.451 236.999 344.33 236.721 344.217 236.538C343.991 236.172 343.861 235.797 343.635 235.431C343.513 235.152 343.4 234.969 343.279 234.69C343.149 234.316 342.923 233.95 342.793 233.575C342.671 233.296 342.558 233.113 342.532 232.826C342.402 232.451 342.272 232.077 342.037 231.615C342.02 231.423 341.907 231.24 341.899 231.145L341.89 231.049C341.63 230.299 341.369 229.55 341.205 228.792C340.909 228.722 340.9 228.627 340.892 228.531Z" fill="#FB7354"/>
<path d="M378.424 184.685C398.385 186.752 416.516 203.857 419.075 222.653C421.54 241.458 407.516 254.986 387.547 252.824C367.673 250.652 349.456 233.652 346.991 214.847C344.423 195.955 358.551 182.514 378.424 184.685Z" fill="#F8BA55"/>
<path d="M379.515 192.507C394.814 194.22 408.816 207.254 410.796 221.757C412.777 236.259 401.844 246.611 386.554 244.993C371.255 243.279 357.253 230.245 355.368 215.735C353.387 201.232 364.216 190.793 379.515 192.507Z" fill="url(#paint4_linear_158_525)"/>
<path d="M419.976 160.884C419.901 160.886 419.749 160.891 419.676 160.968C419.224 161.056 418.847 161.142 418.393 161.155C418.242 161.159 418.092 161.239 417.865 161.245C417.337 161.335 416.732 161.352 416.128 161.444C415.75 161.455 415.296 161.467 414.917 161.478C414.766 161.482 414.615 161.486 414.539 161.488C414.312 161.495 414.009 161.503 413.782 161.509C413.782 161.509 413.782 161.509 413.706 161.511C413.631 161.513 413.555 161.515 413.479 161.518C413.101 161.528 412.72 161.463 412.417 161.471C412.266 161.475 412.115 161.48 411.961 161.408C411.658 161.416 411.353 161.349 411.049 161.282C410.973 161.284 410.897 161.286 410.821 161.288C410.746 161.29 410.67 161.292 410.67 161.292C410.443 161.299 410.29 161.227 410.06 161.158C409.909 161.162 409.755 161.091 409.528 161.097C409.299 161.028 409.148 161.032 408.919 160.962C408.767 160.967 408.69 160.893 408.538 160.897L408.462 160.899C407.928 160.763 407.317 160.553 406.783 160.416C406.707 160.418 406.707 160.418 406.629 160.345C406.553 160.347 406.553 160.347 406.476 160.273C406.015 160.059 405.481 159.922 405.021 159.708C405.021 159.708 404.945 159.71 404.943 159.635C404.867 159.637 404.865 159.561 404.789 159.563C404.329 159.349 403.869 159.135 403.406 158.845C403.021 158.628 402.559 158.339 402.172 158.047C402.096 158.049 402.094 157.973 402.019 157.975L401.941 157.902C401.554 157.61 401.167 157.318 400.78 157.026C400.78 157.026 400.705 157.028 400.703 156.952C400.547 156.805 400.316 156.66 400.158 156.438L393.402 150.42C393.633 150.565 393.79 150.788 394.022 150.933C394.409 151.225 394.795 151.517 395.182 151.809C395.26 151.882 395.338 151.956 395.413 151.953C395.8 152.245 396.185 152.462 396.647 152.752C397.108 152.966 397.57 153.256 398.031 153.47C398.109 153.544 398.184 153.541 398.262 153.615C398.723 153.829 399.183 154.044 399.717 154.18C399.793 154.178 399.87 154.252 399.946 154.249C400.482 154.462 401.016 154.598 401.626 154.733C401.78 154.804 401.931 154.8 402.084 154.871C402.314 154.941 402.465 154.937 402.694 155.006C402.848 155.077 402.999 155.073 403.226 155.067C403.455 155.136 403.607 155.132 403.836 155.201C403.987 155.197 404.141 155.269 404.292 155.264C404.597 155.332 404.9 155.323 405.205 155.391C405.356 155.386 405.507 155.382 405.661 155.454C406.041 155.519 406.42 155.508 406.798 155.498C406.874 155.496 406.95 155.494 407.025 155.492C407.252 155.485 407.555 155.477 407.782 155.471C407.934 155.467 408.009 155.464 408.161 155.46C408.539 155.45 408.993 155.437 409.372 155.427C409.978 155.41 410.505 155.32 411.109 155.228C411.26 155.223 411.409 155.144 411.637 155.137C412.089 155.049 412.465 154.963 412.919 154.951C413.071 154.947 413.22 154.867 413.371 154.863C413.975 154.77 414.576 154.602 415.178 154.434C415.327 154.355 415.478 154.351 415.703 154.269C416.004 154.185 416.38 154.099 416.679 153.939C416.904 153.857 417.053 153.777 417.28 153.771C417.581 153.687 417.88 153.528 418.18 153.444C418.405 153.362 418.555 153.282 418.78 153.2C419.08 153.116 419.379 152.957 419.677 152.797C419.827 152.717 420.052 152.636 420.201 152.556C420.5 152.396 420.798 152.237 421.097 152.077C421.246 151.997 421.396 151.918 421.621 151.836C421.993 151.598 422.443 151.435 422.815 151.197C422.891 151.195 422.964 151.118 423.04 151.116C423.488 150.876 423.934 150.561 424.382 150.322C424.68 150.162 424.903 150.005 425.2 149.77C425.349 149.69 425.423 149.612 425.572 149.533C425.944 149.295 426.314 148.982 426.686 148.745C427.279 148.275 427.799 147.882 428.392 147.412C428.541 147.332 428.615 147.254 428.762 147.099C429.282 146.706 429.723 146.24 430.241 145.772C430.314 145.694 430.388 145.617 430.461 145.539C430.829 145.151 431.197 144.762 431.565 144.374C431.713 144.218 431.786 144.141 431.934 143.985C432.375 143.519 432.741 143.055 433.183 142.589C433.549 142.125 433.99 141.659 434.354 141.119C434.426 140.966 434.573 140.81 434.647 140.733C434.939 140.346 435.231 139.96 435.524 139.574C435.595 139.42 435.669 139.343 435.74 139.189C436.104 138.65 436.392 138.112 436.756 137.573C436.83 137.495 436.901 137.342 436.975 137.264C437.265 136.802 437.556 136.34 437.768 135.805C437.84 135.651 437.913 135.574 437.985 135.42C438.271 134.807 438.633 134.192 438.919 133.579C438.988 133.35 439.133 133.119 439.203 132.89C439.274 132.737 439.344 132.508 439.415 132.354C439.558 132.048 439.626 131.743 439.771 131.512C439.842 131.359 439.914 131.206 439.91 131.055C439.981 130.901 440.053 130.748 440.046 130.521C440.189 130.215 440.255 129.835 440.398 129.528C440.467 129.299 440.539 129.146 440.532 128.919C440.6 128.615 440.743 128.308 440.81 128.003C440.877 127.699 440.945 127.394 441.014 127.166C441.01 127.014 441.082 126.861 441.077 126.71C441.141 126.254 441.28 125.796 441.343 125.341C442.522 118.65 441.297 112.707 438.445 108.171C437.495 106.684 436.32 105.279 435 104.105L441.756 110.122C447.037 114.818 449.672 122.463 448.099 131.358C448.036 131.814 447.897 132.272 447.834 132.727C447.838 132.879 447.767 133.032 447.771 133.183C447.701 133.412 447.708 133.639 447.638 133.868C447.64 133.943 447.567 134.021 447.569 134.097C447.501 134.401 447.434 134.706 447.291 135.012C447.222 135.241 447.15 135.394 447.156 135.621C447.089 135.926 446.948 136.308 446.805 136.614C446.733 136.768 446.738 136.919 446.664 136.997L446.666 137.072C446.594 137.225 446.523 137.379 446.527 137.53C446.384 137.837 446.317 138.141 446.172 138.372C446.1 138.525 446.029 138.679 445.959 138.907C445.888 139.061 445.818 139.29 445.747 139.443C445.749 139.519 445.673 139.521 445.675 139.596C445.389 140.209 445.103 140.823 444.741 141.438C444.743 141.513 444.668 141.516 444.67 141.591C444.596 141.669 444.598 141.744 444.525 141.822C444.234 142.284 444.022 142.82 443.732 143.281C443.658 143.359 443.66 143.435 443.586 143.512L443.513 143.59C443.225 144.128 442.861 144.667 442.495 145.131L442.421 145.209C442.348 145.287 442.274 145.364 442.276 145.44C441.984 145.826 441.691 146.213 441.399 146.599C441.325 146.677 441.252 146.755 441.254 146.83C441.18 146.908 441.18 146.908 441.107 146.985C440.741 147.45 440.377 147.989 439.935 148.455C439.569 148.919 439.127 149.385 438.686 149.852C438.612 149.929 438.612 149.929 438.539 150.007C438.465 150.085 438.391 150.162 438.318 150.24C437.95 150.629 437.582 151.017 437.214 151.405C437.14 151.483 437.066 151.561 437.066 151.561C437.066 151.561 436.991 151.563 436.993 151.638C436.551 152.105 436.032 152.497 435.514 152.965C435.441 153.043 435.441 153.043 435.367 153.121C435.294 153.199 435.218 153.201 435.144 153.278C434.627 153.747 434.034 154.217 433.439 154.612C433.069 154.924 432.696 155.162 432.324 155.399C432.175 155.479 432.101 155.556 431.952 155.636C431.729 155.794 431.43 155.953 431.208 156.111C431.208 156.111 431.132 156.113 431.134 156.188C430.688 156.503 430.24 156.743 429.792 156.982C429.717 156.984 429.643 157.062 429.567 157.064C429.195 157.301 428.747 157.54 428.373 157.702C428.297 157.704 428.299 157.78 428.224 157.782C428.074 157.862 427.999 157.864 427.849 157.943C427.551 158.103 427.252 158.263 426.953 158.422C426.804 158.502 426.579 158.584 426.43 158.663C426.131 158.823 425.831 158.907 425.532 159.067C425.307 159.148 425.158 159.228 424.933 159.31C424.632 159.394 424.333 159.554 424.033 159.638C423.808 159.719 423.658 159.799 423.431 159.805C423.131 159.889 422.83 159.973 422.456 160.135C422.304 160.139 422.155 160.219 422.079 160.221L422.003 160.223C421.402 160.391 420.801 160.559 420.197 160.651C420.128 160.88 420.052 160.882 419.976 160.884Z" fill="#FB7354"/>
<path d="M387.364 129.251C389.964 113.669 404.29 100.261 419.183 99.1692C434.078 98.1529 444.021 109.833 441.345 125.416C438.667 140.924 424.419 154.406 409.524 155.423C394.555 156.517 384.686 144.759 387.364 129.251Z" fill="#F8BA55"/>
<path d="M393.563 128.777C395.657 116.841 406.583 106.477 418.074 105.63C429.565 104.784 437.164 113.88 435.145 125.814C433.05 137.75 422.124 148.114 410.631 148.885C399.14 149.732 391.468 140.713 393.563 128.777Z" fill="url(#paint5_linear_158_525)"/>
<defs>
<filter id="filter0_i_158_525" x="119" y="24" width="298.39" height="324.9" filterUnits="userSpaceOnUse" color-interpolation-filters="sRGB">
<feFlood flood-opacity="0" result="BackgroundImageFix"/>
<feBlend mode="normal" in="SourceGraphic" in2="BackgroundImageFix" result="shape"/>
<feColorMatrix in="SourceAlpha" type="matrix" values="0 0 0 0 0 0 0 0 0 0 0 0 0 0 0 0 0 0 127 0" result="hardAlpha"/>
<feOffset dx="4" dy="-12"/>
<feGaussianBlur stdDeviation="9"/>
<feComposite in2="hardAlpha" operator="arithmetic" k2="-1" k3="1"/>
<feColorMatrix type="matrix" values="0 0 0 0 0.803922 0 0 0 0 0.847059 0 0 0 0 0.968627 0 0 0 1 0"/>
<feBlend mode="normal" in2="shape" result="effect1_innerShadow_158_525"/>
</filter>
<filter id="filter1_i_158_525" x="178.583" y="274.061" width="264.232" height="77.7646" filterUnits="userSpaceOnUse" color-interpolation-filters="sRGB">
<feFlood flood-opacity="0" result="BackgroundImageFix"/>
<feBlend mode="normal" in="SourceGraphic" in2="BackgroundImageFix" result="shape"/>
<feColorMatrix in="SourceAlpha" type="matrix" values="0 0 0 0 0 0 0 0 0 0 0 0 0 0 0 0 0 0 127 0" result="hardAlpha"/>
<feOffset dx="3" dy="3"/>
<feGaussianBlur stdDeviation="4"/>
<feComposite in2="hardAlpha" operator="arithmetic" k2="-1" k3="1"/>
<feColorMatrix type="matrix" values="0 0 0 0 1 0 0 0 0 1 0 0 0 0 1 0 0 0 1 0"/>
<feBlend mode="normal" in2="shape" result="effect1_innerShadow_158_525"/>
</filter>
<linearGradient id="paint0_linear_158_525" x1="266.195" y1="36" x2="266.195" y2="348.9" gradientUnits="userSpaceOnUse">
<stop stop-color="#E8F0FF"/>
<stop offset="1" stop-color="#CDD8F7"/>
</linearGradient>
<linearGradient id="paint1_linear_158_525" x1="309" y1="287.5" x2="317" y2="349" gradientUnits="userSpaceOnUse">
<stop stop-color="#E8F0FF"/>
<stop offset="1" stop-color="#CDD8F7"/>
</linearGradient>
<linearGradient id="paint2_linear_158_525" x1="298" y1="108" x2="279.5" y2="-22" gradientUnits="userSpaceOnUse">
<stop stop-color="#7A43EE"/>
<stop offset="1" stop-color="#B565E6"/>
</linearGradient>
<linearGradient id="paint3_linear_158_525" x1="156" y1="301" x2="258" y2="36" gradientUnits="userSpaceOnUse">
<stop stop-color="#7A43EE"/>
<stop offset="0.348099" stop-color="#B565E5"/>
<stop offset="0.544792" stop-color="#7A43EE"/>
<stop offset="1" stop-color="#B565E6"/>
</linearGradient>
<linearGradient id="paint4_linear_158_525" x1="393.488" y1="209.024" x2="332.331" y2="257.096" gradientUnits="userSpaceOnUse">
<stop stop-color="#FB7354"/>
<stop offset="1" stop-color="#F8BA55"/>
</linearGradient>
<linearGradient id="paint5_linear_158_525" x1="407.223" y1="118.606" x2="442.002" y2="169.008" gradientUnits="userSpaceOnUse">
<stop stop-color="#FB7354"/>
<stop offset="1" stop-color="#F8BA55"/>
</linearGradient>
</defs>
</svg>
