<svg width="142" height="141" viewBox="0 0 142 141" fill="none" xmlns="http://www.w3.org/2000/svg">
<path d="M112.29 20.4591L62.5812 9.40672C45.6697 5.68181 27.858 16.2905 22.8105 33.2239L7.92899 82.9486C2.88148 99.882 12.4701 116.635 29.3816 120.36L79.0908 131.412C95.9877 135.197 113.814 124.528 118.861 107.595L133.743 57.8702C138.831 41.01 129.187 24.2438 112.29 20.4591Z" fill="url(#paint0_linear_158_359)"/>
<path d="M67.6976 80.5616C66.2587 80.2123 64.8381 80.7533 64.3847 81.6556L58.0578 97.5825C57.5556 99.1689 59.0628 100.927 61.4571 101.445C63.7961 101.949 66.1075 101.118 66.5689 99.4584L70.0034 82.8928C70.1248 81.9099 69.1511 80.8511 67.6976 80.5616ZM80.865 76.2915C80.0348 76.09 78.9344 76.5189 78.0093 77.4333C76.9299 78.5 76.5265 79.9205 77.0865 80.7524L87.6929 93.0702C87.9815 93.3301 88.2845 93.5302 88.6865 93.5644C89.904 93.86 91.6448 93.2069 93.018 91.8951C94.7985 90.1128 95.2534 87.7557 94.1137 86.6566L81.3485 76.4722C81.2379 76.4453 81.0863 76.3453 80.865 76.2915ZM58.5153 71.31C58.3493 71.2697 58.1134 71.2757 57.9329 71.2952L41.0694 74.858C39.4828 75.3587 38.5298 77.5949 39.1436 79.895C39.5967 81.65 40.7628 82.8821 41.9803 83.1776C42.3677 83.2716 42.7841 83.2462 43.1597 83.1475L59.3594 76.7663C60.3491 76.3105 60.8078 74.9034 60.4482 73.4874C60.1413 72.3373 59.3455 71.5115 58.5153 71.31ZM99.4696 57.5869C99.0822 57.4929 98.6657 57.5184 98.2902 57.617L82.0905 63.9983C81.1562 64.4675 80.6974 65.8746 81.0017 67.2771C81.3086 68.4272 82.0899 69.3128 82.9346 69.4545C83.1006 69.4948 83.2811 69.4754 83.4617 69.4559L100.34 65.8334C101.982 65.3461 102.824 63.083 102.265 60.7963C101.853 59.1145 100.687 57.8824 99.4696 57.5869ZM52.7634 47.2001C51.5459 46.9046 49.8051 47.5577 48.4318 48.8694C46.6514 50.6517 46.1965 53.0088 47.3362 54.108L60.1014 64.2924C60.2529 64.3924 60.4044 64.4925 60.6403 64.4864C61.4704 64.6879 62.6261 64.2725 63.496 63.3447C64.5898 62.2183 64.9932 60.7977 64.3634 60.0121L53.7425 47.7541C53.4684 47.4345 53.1508 47.2941 52.7634 47.2001ZM80.0336 39.3932C77.6393 38.8754 75.3688 39.7795 74.9219 41.3793L71.4873 57.945C71.366 58.9278 72.3397 59.9866 73.7931 60.2761C75.232 60.6254 76.708 60.0978 77.106 59.1821L83.3776 43.2418C83.8798 41.6554 82.3725 39.8976 80.0336 39.3932Z" fill="url(#paint1_linear_158_359)"/>
<defs>
<linearGradient id="paint0_linear_158_359" x1="35.8849" y1="106.186" x2="115.9" y2="31.642" gradientUnits="userSpaceOnUse">
<stop stop-color="#7A43EE"/>
<stop offset="1" stop-color="#B565E6"/>
</linearGradient>
<linearGradient id="paint1_linear_158_359" x1="105.222" y1="60.2027" x2="32.2295" y2="79.5839" gradientUnits="userSpaceOnUse">
<stop stop-color="#F8BA55"/>
<stop offset="1" stop-color="#FB7354"/>
</linearGradient>
</defs>
</svg>
