<svg width="202" height="198" viewBox="0 0 202 198" fill="none" xmlns="http://www.w3.org/2000/svg">
<path d="M125.12 0.439984L44.32 6.61398C37.12 7.17525 30.42 9.1397 24.62 12.2267C18.72 15.3137 13.72 19.6168 9.72004 24.7618C5.72004 29.9068 2.82004 35.9872 1.32004 42.5354C-0.279959 49.1771 -0.479959 56.2866 1.02004 63.6767L18.32 151.422C19.82 158.999 22.82 165.922 26.92 172.002C31.02 178.083 36.22 183.321 42.22 187.344C48.12 191.366 54.82 194.36 61.82 195.95C68.82 197.54 76.02 197.727 83.32 196.324L164.52 180.983C171.12 179.766 176.92 177.147 182.02 173.592C187.02 170.038 191.12 165.454 194.32 160.122C197.42 154.883 199.62 148.99 200.52 142.629C201.52 136.361 201.32 129.72 199.72 122.891L182.02 44.3128C180.52 37.671 177.82 31.5906 174.32 26.0714C170.72 20.5522 166.32 15.7814 161.22 11.759C156.12 7.83007 150.42 4.64953 144.32 2.68507C138.12 0.72062 131.62 -0.121288 125.12 0.439984Z" fill="url(#paint0_linear_158_356)"/>
<path d="M54.6205 134.771C54.3205 134.771 54.1205 134.865 53.9205 135.052C53.7205 135.239 53.6205 135.426 53.5205 135.613C53.5205 135.894 53.5205 136.081 53.6205 136.455C53.8205 136.736 54.0205 137.11 54.5205 137.484C56.6205 139.261 59.8205 141.6 63.9205 144.126C67.9205 146.558 72.8205 149.084 78.3205 151.329C83.8205 153.48 89.8205 155.258 96.2205 156.193C102.621 157.128 109.321 157.316 116.121 156.099C122.821 154.977 128.721 153.012 133.621 150.674C138.521 148.335 142.621 145.622 145.821 143.003C149.021 140.384 151.521 137.765 153.221 135.707C154.921 133.649 155.921 131.965 156.321 131.216C156.621 130.655 156.721 130.094 156.821 129.72C156.921 129.252 156.821 128.878 156.721 128.597C156.621 128.316 156.421 128.129 156.121 127.942C155.921 127.849 155.621 127.755 155.221 127.849C155.121 127.849 155.021 127.849 155.021 127.942C154.921 127.942 154.821 128.036 154.821 128.036C154.721 128.036 154.621 128.129 154.521 128.129C154.421 128.129 154.321 128.223 154.221 128.316C150.721 130.842 147.321 133.087 144.021 135.052C140.621 137.016 137.321 138.7 134.021 140.103C130.721 141.506 127.521 142.722 124.321 143.658C121.121 144.593 118.021 145.342 114.921 145.809C108.921 146.745 103.121 147.026 97.6205 146.651C92.1205 146.277 86.8205 145.435 81.8205 144.219C76.8205 143.003 72.1205 141.506 67.7205 139.823C63.3205 138.232 59.2205 136.548 55.5205 134.958C55.4205 134.958 55.3205 134.865 55.3205 134.865C55.2205 134.865 55.1205 134.865 55.0205 134.771C54.9205 134.771 54.8205 134.771 54.7205 134.771C54.7205 134.678 54.6205 134.678 54.6205 134.771ZM157.421 118.214C157.121 118.307 156.821 118.307 156.421 118.401C156.121 118.494 155.821 118.494 155.521 118.588C155.221 118.681 154.921 118.681 154.621 118.775C154.321 118.868 154.021 118.962 153.821 118.962C152.921 119.243 151.821 119.617 150.821 120.178C149.821 120.646 148.821 121.207 147.921 121.862C147.021 122.423 146.321 123.078 145.921 123.546C145.521 124.107 145.321 124.575 145.521 124.949C145.521 125.042 145.621 125.042 145.621 125.136C145.621 125.136 145.721 125.23 145.821 125.23C145.921 125.23 145.921 125.23 146.021 125.23C146.121 125.23 146.221 125.23 146.321 125.23C146.421 125.23 146.621 125.136 146.721 125.136C146.921 125.136 147.121 125.042 147.321 124.949C147.521 124.855 147.821 124.855 148.121 124.762C148.421 124.668 148.721 124.575 149.121 124.481C149.421 124.388 149.921 124.294 150.321 124.107C150.821 124.013 151.321 123.826 151.921 123.733C152.521 123.639 153.121 123.452 153.721 123.359C154.321 123.265 154.921 123.078 155.521 122.984C156.121 122.891 156.721 122.797 157.221 122.797C157.821 122.797 158.321 122.797 158.821 122.797C159.321 122.797 159.721 122.891 160.121 122.984C160.521 123.078 160.821 123.265 161.121 123.546C161.621 124.013 161.921 125.042 162.021 126.446C162.121 127.755 162.121 129.345 162.021 131.029C161.921 132.62 161.721 134.21 161.521 135.613C161.321 136.923 161.221 137.952 161.121 138.419C161.021 138.7 161.021 138.981 161.021 139.168C161.021 139.355 161.121 139.542 161.121 139.635C161.221 139.729 161.221 139.823 161.421 139.916C161.521 140.01 161.621 140.01 161.821 140.01C161.921 140.01 162.021 140.01 162.121 139.916C162.221 139.916 162.321 139.823 162.421 139.729C162.521 139.635 162.621 139.542 162.721 139.448C162.821 139.355 162.921 139.261 163.021 139.074C163.321 138.7 163.621 138.326 163.921 137.765C164.221 137.203 164.521 136.548 164.921 135.8C165.221 135.052 165.521 134.21 165.821 133.274C166.121 132.339 166.321 131.31 166.521 130.281C166.721 129.158 166.821 128.036 166.821 126.82C166.821 125.604 166.821 124.481 166.821 123.359C166.721 122.33 166.621 121.301 166.421 120.552C166.221 119.804 166.021 119.243 165.721 118.868C165.421 118.588 165.021 118.401 164.521 118.307C164.021 118.12 163.321 118.12 162.621 118.027C161.921 118.027 161.121 118.027 160.321 118.027C159.121 118.027 158.221 118.12 157.421 118.214ZM104.721 111.104C103.221 111.291 101.821 111.198 100.621 110.824C99.3205 110.449 98.2205 109.795 97.2205 108.859C96.2205 107.924 95.3205 106.801 94.6205 105.491C93.9205 104.182 93.3205 102.592 93.0205 100.908C92.3205 97.5401 92.5205 94.7337 93.3205 92.4886C94.1205 90.2435 95.6205 88.4662 97.6205 86.9694C99.5205 85.5663 101.921 84.5373 104.421 83.7889C106.921 83.0405 109.721 82.5728 112.421 82.1986L113.121 85.5663C113.421 87.063 113.721 88.5597 114.021 89.9629C114.321 91.3661 114.521 92.7693 114.621 94.0789C114.721 95.4821 114.721 96.7917 114.621 98.1949C114.521 99.5981 114.221 101.001 113.821 102.404C113.421 103.621 113.021 104.65 112.421 105.679C111.821 106.614 111.121 107.549 110.421 108.298C109.621 109.046 108.821 109.607 107.821 110.075C106.821 110.636 105.821 110.917 104.721 111.104ZM94.3205 37.2969C90.7205 37.671 87.0205 38.3259 83.5205 39.5419C80.0205 40.6645 76.7205 42.3483 73.9205 44.4998C71.1205 46.6514 68.7205 49.3642 67.0205 52.7318C65.3205 56.0995 64.4205 60.1219 64.5205 64.7992C64.5205 65.2669 64.6205 65.7346 64.8205 66.1088C65.0205 66.483 65.2205 66.7636 65.5205 67.0443C65.8205 67.3249 66.1205 67.512 66.5205 67.6056C66.8205 67.6991 67.2205 67.7926 67.5205 67.8862L83.1205 67.7926C83.4205 67.6991 83.7205 67.6056 84.0205 67.4185C84.3205 67.2314 84.5205 66.9507 84.7205 66.6701C84.9205 66.3895 85.0205 66.0153 85.1205 65.7346C85.2205 65.3605 85.2205 64.9863 85.2205 64.7056C85.2205 63.1154 85.5205 61.6187 86.0205 60.4026C86.5205 59.1865 87.3205 58.0639 88.2205 57.222C89.1205 56.2866 90.3205 55.6317 91.5205 55.0705C92.8205 54.5092 94.1205 54.2286 95.6205 54.0415C96.4205 53.9479 97.2205 53.9479 98.0205 54.0415C98.8205 54.135 99.7205 54.2286 100.521 54.5092C101.321 54.7898 102.121 55.0705 102.921 55.5382C103.621 56.0059 104.321 56.5672 105.021 57.222C105.721 57.9704 106.321 58.8123 106.721 59.6542C107.221 60.4961 107.521 61.4316 107.821 62.4606C108.121 63.396 108.321 64.425 108.621 65.3605C108.821 66.2959 109.021 67.3249 109.221 68.1668L109.621 70.1313C107.521 70.599 105.221 71.1603 102.821 71.7216C100.421 72.2828 97.9205 72.8441 95.5205 73.5925C93.0205 74.2473 90.6205 74.9956 88.3205 75.9311C86.0205 76.8665 83.8205 77.8955 81.9205 79.0181C79.7205 80.4213 77.7205 82.0115 76.0205 83.8824C74.3205 85.7534 72.9205 87.9049 71.9205 90.2435C70.9205 92.5822 70.2205 95.2014 69.9205 98.0078C69.7205 100.814 69.8205 103.901 70.5205 107.082C71.4205 111.291 72.8205 114.846 74.6205 117.746C76.4205 120.739 78.7205 123.078 81.2205 124.855C83.8205 126.633 86.6205 127.849 89.6205 128.41C92.6205 129.065 95.8205 129.065 99.1205 128.597C101.921 128.223 104.321 127.662 106.421 126.913C108.521 126.165 110.421 125.323 112.221 124.107C114.021 122.891 115.621 121.488 117.121 119.71C118.721 117.933 120.221 115.875 121.821 113.349C122.721 114.285 123.521 115.127 124.221 115.875C124.921 116.623 125.621 117.278 126.421 118.027C127.221 118.681 128.021 119.43 129.021 120.085C130.021 120.833 131.221 121.581 132.721 122.517C132.821 122.61 133.021 122.61 133.121 122.61C133.221 122.61 133.421 122.704 133.521 122.704C133.621 122.704 133.821 122.704 133.921 122.704C134.021 122.704 134.221 122.704 134.321 122.704C134.521 122.704 134.721 122.61 134.821 122.61C135.021 122.517 135.121 122.517 135.321 122.423C135.521 122.33 135.621 122.236 135.721 122.143C135.821 122.049 136.021 121.862 136.121 121.768H136.221C136.821 120.926 137.521 119.991 138.321 118.962C139.121 117.933 139.921 116.81 140.721 115.688C141.521 114.565 142.421 113.536 143.121 112.507C143.921 111.478 144.621 110.543 145.221 109.795C145.421 109.514 145.621 109.14 145.721 108.859C145.821 108.485 145.721 108.111 145.721 107.83C145.621 107.456 145.521 107.082 145.221 106.801C145.021 106.427 144.721 106.146 144.421 105.772C143.521 104.93 142.621 104.088 141.821 103.153C140.921 102.311 140.121 101.375 139.421 100.346C138.621 99.3174 137.921 98.1949 137.321 96.8853C136.721 95.5756 136.221 94.0789 135.821 92.208L130.621 68.3539C130.121 65.8282 129.621 63.396 129.021 60.9638C128.421 58.6252 127.821 56.2866 127.021 54.135C126.221 51.9835 125.121 49.9255 123.721 48.0546C122.321 46.1837 120.621 44.4063 118.421 42.9096C116.721 41.6935 114.821 40.6645 112.721 39.8226C110.721 39.0742 108.621 38.4194 106.421 38.0452C104.321 37.671 102.121 37.3904 100.021 37.3904C98.2205 37.0162 96.2205 37.1098 94.3205 37.2969Z" fill="url(#paint1_linear_158_356)"/>
<defs>
<linearGradient id="paint0_linear_158_356" x1="164.5" y1="21.2693" x2="35" y2="169.769" gradientUnits="userSpaceOnUse">
<stop stop-color="#F8BA55"/>
<stop offset="1" stop-color="#FB7354"/>
</linearGradient>
<linearGradient id="paint1_linear_158_356" x1="110" y1="77.2693" x2="67" y2="186.269" gradientUnits="userSpaceOnUse">
<stop stop-color="white"/>
<stop offset="1" stop-color="#FBDCAA"/>
</linearGradient>
</defs>
</svg>
