<svg width="72" height="72" viewBox="0 0 72 72" fill="none" xmlns="http://www.w3.org/2000/svg">
<g clip-path="url(#clip0_158_587)">
<path d="M72 32.625C72 43.9312 72 55.2187 72 66.525C71.9438 66.6937 71.8875 66.8813 71.85 67.05C71.2502 69.3563 69.8443 70.9125 67.5949 71.7C67.2387 71.8312 66.8826 71.9062 66.5264 72C57.435 72 48.3437 72 39.2523 72C39.1023 71.9437 38.9524 71.8875 38.8024 71.8313C36.6467 71.25 35.1284 69.9562 34.3036 67.8562C34.2473 67.6875 34.1724 67.5188 34.0974 67.35C33.76 67.35 33.4788 67.35 33.1976 67.35C24.2937 67.35 15.3897 67.35 6.48581 67.35C3.59906 67.35 1.18094 65.6438 0.318667 63C0.187451 62.625 0.112471 62.2312 0 61.8562C0.0187451 43.0875 0.0187451 24.2812 0.0187451 5.49375C0.0749805 5.2875 0.131216 5.1 0.187451 4.89375C0.637334 3.15 1.59334 1.7625 3.16792 0.9C3.89898 0.50625 4.72377 0.3 5.51106 0C16.6082 0 27.724 0 38.8211 0C39.2335 0.3 39.6834 0.5625 40.0396 0.91875C44.3697 5.26875 48.6811 9.6375 53.0112 14.0062C53.611 14.6062 53.8922 15.2812 53.8922 16.1437C53.8735 19.5375 53.8735 22.9312 53.8735 26.3438C53.8735 26.5875 53.8735 26.85 53.8735 27.1687C54.1921 27.1687 54.4358 27.1687 54.6983 27.1687C58.3536 27.1687 62.0089 27.1312 65.6642 27.1875C68.4009 27.225 70.3692 28.575 71.5126 31.0687C71.7188 31.5375 71.8313 32.1 72 32.625ZM36.1593 4.21875C35.8407 4.21875 35.6345 4.21875 35.4283 4.21875C25.8495 4.21875 16.2708 4.21875 6.69201 4.21875C5.06118 4.21875 4.25514 5.04375 4.25514 6.69375C4.25514 24.6938 4.25514 42.6938 4.25514 60.675C4.25514 62.3063 5.07993 63.1313 6.71075 63.1313C15.521 63.1313 24.3312 63.1313 33.1414 63.1313C33.3851 63.1313 33.6287 63.1313 33.8724 63.1313C33.8724 61.5 33.8724 59.9625 33.8724 58.35C33.5725 58.35 33.2913 58.35 33.0102 58.35C25.8683 58.35 18.7264 58.35 11.5657 58.35C9.9724 58.35 9.14762 57.525 9.14762 55.9125C9.14762 50.1563 9.14762 44.3813 9.14762 38.625C9.14762 36.9375 9.95366 36.1312 11.6407 36.1312C18.7639 36.1312 25.887 36.1312 33.0102 36.1312C33.2913 36.1312 33.5538 36.1312 33.8912 36.1312C33.8912 35.2687 33.8912 34.4813 33.8912 33.675C33.9099 29.85 36.628 27.1312 40.452 27.1312C43.245 27.1312 46.0193 27.1312 48.8123 27.1312C49.056 27.1312 49.3184 27.1312 49.5808 27.1312C49.5808 24 49.5808 20.9437 49.5808 17.85C49.2809 17.85 49.0372 17.85 48.7748 17.85C45.3632 17.85 41.9328 17.85 38.5212 17.85C36.9654 17.85 36.1406 17.0062 36.1406 15.4688C36.1406 12.4312 36.1406 9.375 36.1406 6.3375C36.1406 5.6625 36.1593 4.9875 36.1593 4.21875ZM67.7823 49.6313C67.7823 44.3625 67.7823 39.0937 67.7823 33.825C67.7823 32.1937 66.9576 31.3688 65.3267 31.3688C57.0789 31.3688 48.831 31.3688 40.6019 31.3688C38.9524 31.3688 38.1276 32.175 38.1276 33.825C38.1276 44.325 38.1276 54.8062 38.1276 65.3062C38.1276 66.9937 38.9336 67.8 40.6207 67.8C48.8498 67.8 57.0601 67.8 65.2893 67.8C66.9763 67.8 67.8011 66.9937 67.8011 65.325C67.7824 60.075 67.7823 54.8438 67.7823 49.6313ZM33.8537 45.1125C33.8537 43.5 33.8537 41.9625 33.8537 40.425C30.0109 40.425 26.2057 40.425 22.4192 40.425C22.4192 42.0188 22.4192 43.5563 22.4192 45.1125C26.2244 45.1125 30.0109 45.1125 33.8537 45.1125ZM33.8912 49.4062C30.0297 49.4062 26.2244 49.4062 22.3817 49.4062C22.3817 50.2125 22.3817 50.9813 22.3817 51.75C22.3817 52.5375 22.3817 53.325 22.3817 54.0938C26.2807 54.0938 30.0859 54.0938 33.8912 54.0938C33.8912 52.5188 33.8912 51 33.8912 49.4062ZM13.4215 40.3875C13.4215 41.9812 13.4215 43.5375 13.4215 45.075C15.0148 45.075 16.5707 45.075 18.1265 45.075C18.1265 43.4812 18.1265 41.9437 18.1265 40.3875C16.5519 40.3875 15.0148 40.3875 13.4215 40.3875ZM18.1078 54.1125C18.1078 52.5 18.1078 50.9438 18.1078 49.425C16.5144 49.425 14.9586 49.425 13.4215 49.425C13.4215 51.0188 13.4215 52.5563 13.4215 54.1125C14.9773 54.1125 16.5144 54.1125 18.1078 54.1125ZM40.3957 13.575C42.4952 13.575 44.5197 13.575 46.5441 13.575C44.4634 11.5313 42.4015 9.525 40.3957 7.575C40.3957 9.46875 40.3957 11.5125 40.3957 13.575ZM17.2455 18.2812C16.0833 17.7938 14.9211 17.2875 13.7777 16.7812C13.1591 16.5 13.1591 16.0312 13.4028 15.4875C13.6652 14.925 14.2275 14.7375 14.9773 14.9625C15.4272 15.0938 15.8396 15.3375 16.2708 15.5062C17.3205 15.9375 18.4639 15.5063 18.9513 14.5125C19.4387 13.5188 19.0638 12.3563 18.089 11.7938C17.8266 11.6438 17.5079 11.5688 17.283 11.3813C17.0581 11.2125 16.7956 10.9875 16.7019 10.725C16.3645 9.7875 15.6709 9.1875 14.7712 9.15C13.8339 9.09375 13.0653 9.6375 12.653 10.575C12.5592 10.7813 12.3718 11.0063 12.1843 11.1C10.1411 12.15 9.09138 13.8187 9.03515 16.0687C8.97891 18.2625 10.1599 19.7437 12.0531 20.6437C13.2341 21.2062 14.4525 21.675 15.6522 22.2C16.5707 22.5938 16.8706 23.325 16.477 24.2625C16.177 24.9937 15.6334 25.425 14.8461 25.5C13.7402 25.6125 12.7279 25.4062 11.7719 24.7875C10.7784 24.1312 9.48503 24.5062 8.90393 25.4812C8.30409 26.475 8.58526 27.75 9.61625 28.35C10.4035 28.8 11.2658 29.1 12.0719 29.5125C12.3155 29.625 12.5592 29.8313 12.6717 30.0563C13.1028 30.9 13.8714 31.3875 14.7524 31.3313C15.6147 31.275 16.2895 30.7125 16.6269 29.8688C16.7394 29.5875 17.0018 29.2875 17.2643 29.1562C19.5512 27.975 20.7134 26.1 20.8258 24.0375C20.8633 21.1687 19.5137 19.2 17.2455 18.2812ZM52.9362 35.025C55.823 35.025 58.691 35.025 61.5777 35.025C63.171 35.025 63.9958 35.85 63.9958 37.4625C63.9958 40.2563 63.9958 43.0312 63.9958 45.825C63.9958 47.4187 63.171 48.2625 61.5777 48.2625C55.7667 48.2625 49.9745 48.2625 44.1635 48.2625C42.6264 48.2625 41.7829 47.4188 41.7829 45.8625C41.7829 43.05 41.7829 40.2375 41.7829 37.425C41.7829 35.8688 42.6264 35.025 44.1635 35.025C47.0877 35.0063 50.012 35.025 52.9362 35.025ZM46.0193 43.9688C50.6306 43.9688 55.1669 43.9688 59.7032 43.9688C59.7032 42.375 59.7032 40.8187 59.7032 39.2812C55.1106 39.2812 50.5743 39.2812 46.0193 39.2812C46.0193 40.8375 46.0193 42.375 46.0193 43.9688ZM43.8823 51.9C42.7389 51.9 41.7829 52.8563 41.7829 54C41.7829 55.1625 42.7764 56.1375 43.9386 56.1187C45.082 56.1 46.0193 55.125 46.0005 53.9812C45.9818 52.8375 45.0258 51.8812 43.8823 51.9ZM54.9794 54.1125C55.0544 52.9688 54.1547 51.975 53.0112 51.8813C51.849 51.8063 50.818 52.725 50.7618 53.9062C50.7055 55.0312 51.6241 56.0438 52.7675 56.1C53.911 56.1563 54.9232 55.2563 54.9794 54.1125ZM61.9151 51.9C60.7717 51.8812 59.7969 52.8187 59.7782 53.9625C59.7407 55.125 60.7154 56.1187 61.8776 56.1187C63.0211 56.1187 63.9771 55.1625 63.9771 54.0375C63.9958 52.875 63.0586 51.9187 61.9151 51.9ZM43.9198 59.775C42.7764 59.7562 41.8016 60.6937 41.7829 61.8375C41.7454 63 42.7201 63.9937 43.8823 63.9937C45.0258 63.9937 45.9818 63.0375 45.9818 61.9125C46.0005 60.75 45.0633 59.7937 43.9198 59.775ZM50.7805 61.8562C50.7805 63 51.7178 63.9563 52.8612 63.975C54.0234 63.9938 55.0169 63.0187 54.9982 61.8375C54.9794 60.6937 54.0234 59.7563 52.88 59.7563C51.7365 59.775 50.7805 60.7312 50.7805 61.8562ZM61.8776 59.775C60.7342 59.775 59.7782 60.7313 59.7782 61.875C59.7782 63.0375 60.7717 64.0125 61.9339 63.9937C63.0773 63.975 64.0146 63 63.9958 61.8562C63.9771 60.7125 63.0023 59.7562 61.8776 59.775Z" fill="#7A43EE"/>
</g>
<defs>
<clipPath id="clip0_158_587">
<rect width="72" height="72" fill="white"/>
</clipPath>
</defs>
</svg>
