<svg width="72" height="72" viewBox="0 0 72 72" fill="none" xmlns="http://www.w3.org/2000/svg">
<g clip-path="url(#clip0_158_583)">
<path d="M0 56.5165C0 38.2026 0 19.8698 0 1.55584C0.3375 0.84353 0.84375 0.337412 1.55625 0C19.875 0 38.2125 0 56.5312 0C57.75 0.562354 58.1062 1.51835 58.1062 2.83051C58.0687 13.7964 58.0875 24.7436 58.0688 35.7095C58.0688 36.2718 58.2188 36.4967 58.7812 36.6655C65.25 38.6149 69.45 42.8326 71.3625 49.2997C71.6625 50.3306 71.7937 51.3991 72 52.4488C72 53.4798 72 54.5108 72 55.5418C71.9625 55.7292 71.9062 55.8979 71.8687 56.0854C70.8 63.2835 66.8625 68.251 60.0938 70.894C58.65 71.4564 57.075 71.6438 55.5562 72C54.525 72 53.4937 72 52.4625 72C52.3125 71.9625 52.1437 71.8875 51.9937 71.8688C44.6812 71.044 38.6813 65.9266 36.675 58.7659C36.525 58.2036 36.3 58.0536 35.7375 58.0536C24.7688 58.0724 13.8187 58.0536 2.85 58.0911C1.51875 58.0911 0.5625 57.735 0 56.5165ZM35.9437 53.8172C36.0375 44.1635 44.1375 36.0469 53.8313 35.9344C53.8313 25.3809 53.8313 14.8274 53.8313 4.27389C48.375 4.27389 42.9562 4.27389 37.4812 4.27389C37.4812 4.6113 37.4812 4.89248 37.4812 5.17365C37.4812 9.93491 37.4812 14.6774 37.4812 19.4387C37.4812 19.7386 37.4812 20.0573 37.4437 20.3572C37.2562 21.9693 35.4937 22.7566 34.1625 21.8381C33.9 21.6506 33.6562 21.4257 33.4125 21.2007C31.9687 19.9073 30.5062 18.6326 29.0437 17.3205C27.4312 18.7639 25.8375 20.151 24.2812 21.5569C23.5688 22.1942 22.7812 22.4379 21.8812 22.0443C20.8875 21.6131 20.5875 20.7696 20.6063 19.7574C20.625 14.9024 20.6063 10.0661 20.6063 5.21114C20.6063 4.91122 20.6063 4.6113 20.6063 4.29263C15.1125 4.29263 9.69375 4.29263 4.275 4.29263C4.275 20.8446 4.275 37.3403 4.275 53.836C14.8687 53.8172 25.4062 53.8172 35.9437 53.8172ZM54.0562 40.2083C46.4625 40.1895 40.2375 46.3379 40.2188 53.911C40.1812 61.5027 46.3312 67.7261 53.9062 67.7636C61.5375 67.8011 67.7625 61.634 67.7812 54.0234C67.8 46.4317 61.6312 40.227 54.0562 40.2083ZM33.225 4.27389C30.3937 4.27389 27.6375 4.27389 24.8812 4.27389C24.8812 7.96668 24.8812 11.5845 24.8812 15.3523C25.575 14.7337 26.1562 14.2088 26.7562 13.6839C28.7437 11.9032 29.3438 11.9032 31.3125 13.6839C31.9125 14.2275 32.5125 14.7524 33.225 15.371C33.225 11.5657 33.225 7.94793 33.225 4.27389ZM18.2062 33.0476C20.625 33.0476 23.025 33.0476 25.4437 33.0476C27 33.0476 27.8438 33.8912 27.8438 35.4283C27.8438 39.3835 27.8438 43.3387 27.8438 47.2939C27.8438 48.7935 26.9812 49.6371 25.4812 49.6371C20.5875 49.6371 15.6937 49.6371 10.8 49.6371C9.3 49.6371 8.4375 48.7935 8.4375 47.2939C8.4375 43.32 8.4375 39.3273 8.4375 35.3533C8.4375 33.9099 9.3 33.0476 10.7625 33.0476C13.2563 33.0289 15.7312 33.0476 18.2062 33.0476ZM23.5687 45.3819C23.5687 42.6451 23.5687 39.9646 23.5687 37.3215C19.9125 37.3215 16.2937 37.3215 12.6937 37.3215C12.6937 40.0396 12.6937 42.7014 12.6937 45.3819C16.3312 45.3819 19.9312 45.3819 23.5687 45.3819ZM49.6875 52.7863C48.7875 51.924 47.4937 51.9052 46.6687 52.73C45.825 53.5548 45.825 54.867 46.7063 55.748C48.075 57.1351 49.4438 58.5035 50.8313 59.8719C51.6938 60.7154 52.9312 60.7529 53.7937 59.9094C56.2125 57.5288 58.6125 55.1294 60.9937 52.7113C61.5562 52.1302 61.7437 51.4179 61.5 50.6306C61.0125 49.056 59.1563 48.6248 57.9563 49.8058C56.0813 51.6428 54.2438 53.5173 52.3313 55.4293C51.3938 54.5108 50.55 53.6485 49.6875 52.7863Z" fill="#7A43EE"/>
</g>
<defs>
<clipPath id="clip0_158_583">
<rect width="72" height="72" fill="white"/>
</clipPath>
</defs>
</svg>
