<svg width="391" height="378" viewBox="0 0 391 378" fill="none" xmlns="http://www.w3.org/2000/svg">
<g clip-path="url(#clip0_230_1063)">
<g filter="url(#filter0_i_230_1063)">
<path d="M29.9982 323.5C60.5705 304.687 89.5873 259.031 102.998 246.939C118.384 233.071 132.879 217.44 148.498 215.5C163.224 213.69 192.76 204.994 220.565 211.327C253.623 218.832 215.903 217.534 220.565 221C227.023 225.78 211.92 224.635 201.498 228C191.715 231.178 196.762 236.202 188.998 246.939C186.471 250.452 257.886 263.332 265.933 263.51C274.006 263.688 321.837 232.271 338.447 226.272C355.056 220.298 363.669 229.267 363.19 231.157C362.084 235.721 289.723 297.112 268.154 309.43C246.584 321.747 158.778 286.531 145.991 284.94C136.572 283.764 55.9213 348.574 33.6189 366.784C10.2055 362.566 45.7722 341.193 24.9982 329C46.9378 347.306 32.9214 325.425 29.9982 323.5Z" fill="url(#paint0_linear_230_1063)"/>
</g>
<g filter="url(#filter1_i_230_1063)">
<path d="M-12.091 329.676C17.3002 306.763 73.8761 262.051 86.3292 248.038C100.617 231.966 125.47 205.795 141.363 202.004C156.351 198.45 180.249 203.17 209.664 206.52C244.634 210.478 266.874 216.239 272.082 219.281C279.293 223.474 275.888 232.854 265.52 237.52C255.789 241.919 211.438 230.969 204.657 242.937C202.452 246.852 254.129 255.907 262.452 255.169C270.802 254.428 316.558 216.534 333.01 208.442C349.464 200.376 359.378 208.644 359.1 210.649C358.482 215.485 290.848 287.117 270.002 302.297C249.156 317.476 154.522 291.194 141.146 291.017C131.293 290.882 55.4961 366.991 34.569 388.335C9.9273 386.664 20.5334 344.562 -2.29823 334.36C-5.60029 332.873 -8.85431 331.328 -12.091 329.676Z" fill="url(#paint1_linear_230_1063)"/>
</g>
<path d="M-12.091 329.676C17.3002 306.763 73.8761 262.051 86.3292 248.038C100.617 231.966 125.47 205.795 141.363 202.004C156.351 198.45 180.249 203.17 209.664 206.52C244.634 210.478 266.874 216.239 272.082 219.281C279.293 223.474 275.888 232.854 265.52 237.52C255.789 241.919 211.438 230.969 204.657 242.937C202.452 246.852 254.129 255.907 262.452 255.169C270.802 254.428 316.558 216.534 333.01 208.442C349.464 200.376 359.378 208.644 359.1 210.649C358.482 215.485 290.848 287.117 270.002 302.297C249.156 317.476 154.522 291.194 141.146 291.017C131.293 290.882 55.4961 366.991 34.569 388.335C9.9273 386.664 20.5334 344.562 -2.29823 334.36C-5.60029 332.873 -8.85431 331.328 -12.091 329.676Z" fill="url(#paint2_radial_230_1063)"/>
</g>
<path d="M124.177 25.463C126.182 23.3624 124.846 15.9149 127.615 17.4426C124.368 15.6284 121.122 13.9098 117.875 12.0956C114.916 10.4724 111.956 10.5679 109.378 12.9549C106.8 15.342 105.176 18.8748 103.267 21.7392C100.593 25.845 97.8243 29.9507 95.1508 34.1518C92.9548 37.4937 86.9394 43.9865 92.2864 47.5193C93.8141 48.5696 95.5328 49.2379 97.0605 50.0973C97.9198 50.5747 98.8746 50.9566 99.6385 51.5295C100.784 52.3888 100.498 52.2934 100.498 54.1075C100.498 64.0376 100.498 73.9677 100.402 83.9932C100.402 103.853 100.307 123.809 100.307 143.669C100.307 149.112 100.02 154.65 100.211 160.092C100.402 163.243 101.548 165.821 104.317 167.444C107.754 169.545 111.383 171.359 115.011 173.269C110.046 170.595 116.539 163.147 116.539 158.469C116.539 152.072 114.916 146.438 114.916 140.041C114.916 126.864 115.393 113.593 115.393 100.416C115.393 87.2396 115.202 75.3999 115.202 62.2234C115.202 60.6003 113.961 57.9268 113.961 56.3036C113.961 55.6352 113.961 52.8662 113.674 52.2934C113.292 51.7205 109.473 52.1979 108.9 51.9114C107.563 51.1476 106.227 50.4792 104.89 49.7154C104.126 49.3334 104.508 50.1928 104.413 48.0922C104.413 47.1373 106.991 47.5193 107.563 46.469C109.473 43.4136 110.523 42.3633 112.528 39.3079C114.438 36.3479 114.534 32.7196 116.539 29.7597C118.353 27.1817 121.886 27.9455 124.177 25.463Z" fill="#7A43EE"/>
<path d="M146.138 39.6897C148.62 42.8406 146.997 47.1373 143.464 48.474C141.745 49.1424 139.454 48.7605 137.735 49.5243C136.685 50.0017 136.876 49.9063 136.876 51.243C136.876 52.5797 136.876 53.821 136.876 55.1577C136.876 65.0878 136.876 75.1134 136.78 85.0435C136.78 105.19 136.685 125.337 136.685 145.483C136.685 150.448 136.685 155.413 136.685 160.474C136.685 164.007 136.303 167.444 133.821 170.118C131.242 172.791 127.614 173.077 124.177 173.555C121.026 174.032 117.589 174.892 114.629 173.077C111.86 171.359 111.191 168.112 111.191 165.057C111.191 160.092 111.191 155.127 111.287 150.066C111.287 140.136 111.382 130.111 111.382 120.181C111.382 97.838 111.478 75.5908 111.478 53.2481C108.995 53.63 105.653 54.5849 103.362 53.4391C99.7336 51.6249 101.261 47.4237 102.884 44.8457C107.372 37.8756 111.955 31.0009 116.538 24.0308C118.352 21.2618 120.071 17.9199 123.413 16.8696C126.85 15.8193 128.951 18.0154 130.956 20.4025C136.017 26.9907 141.077 33.3879 146.138 39.6897Z" fill="url(#paint3_linear_230_1063)"/>
<path d="M79.1115 83.7067C80.2573 83.7067 81.594 80.4604 82.5488 80.9378C80.0663 79.601 77.5838 78.2643 75.1013 76.8321C72.9052 75.5908 70.8046 74.1586 68.2266 74.1586C65.7441 74.1586 63.0706 74.7315 60.6836 75.1134C58.4875 75.3998 56.4824 75.7818 54.5727 77.023C52.4721 78.3598 51.1354 80.5558 50.467 82.9429C49.7987 85.4254 50.0851 88.1944 50.0851 90.7724C50.0851 94.7826 50.0851 98.8883 50.0851 102.899C50.0851 110.442 50.0851 117.985 50.0851 125.623C50.0851 140.9 49.8941 156.082 49.9896 171.359C49.9896 174.223 50.3716 177.279 52.7586 179.284C53.7134 180.048 54.8592 180.525 55.9095 181.098C58.7739 182.721 61.7339 184.249 64.5983 185.872C61.6384 184.249 66.317 181.289 66.317 178.138C66.317 173.364 66.9853 168.685 66.9853 164.007C66.9853 154.554 66.317 145.483 66.317 136.031C66.317 126.673 66.9853 117.985 66.9853 108.627C66.9853 103.853 67.5582 101.084 67.6537 96.4058C67.6537 94.0187 65.0757 92.491 66.317 90.3904C67.5582 88.1944 67.7492 87.4305 70.1362 86.7621C73.2871 85.6164 75.7697 83.6112 79.1115 83.7067Z" fill="#7A43EE"/>
<path d="M86.3682 88.0989C86.8457 105.954 86.2728 124 86.2728 141.855C86.2728 151.021 86.2728 160.187 86.2728 169.354C86.2728 173.364 86.6547 177.661 84.3631 181.098C82.0716 184.44 78.9207 185.299 75.1014 185.777C71.9505 186.254 68.1313 187.4 65.0758 186.063C62.4978 184.917 61.1611 182.435 60.7792 179.761C60.3018 175.56 60.6837 170.977 60.6837 166.68C60.6837 162.097 60.6837 157.609 60.6837 153.026C60.6837 134.98 60.7792 116.839 60.7792 98.7928C60.7792 94.7826 60.1108 90.104 62.1159 86.4757C63.7391 83.4203 66.699 81.7971 70.0409 81.3197C73.3828 80.7468 77.8704 79.5055 81.2122 80.4604C84.6496 81.5107 86.3682 84.757 86.3682 88.0989Z" fill="url(#paint4_linear_230_1063)"/>
<path d="M28.6963 121.899C29.8421 121.899 31.7518 116.839 32.8021 117.412C30.7015 116.266 28.6009 115.12 26.4048 113.974C24.4952 112.924 22.3946 111.492 20.294 110.919C18.5753 110.442 16.8566 110.824 15.0425 111.014C12.369 111.396 9.50454 111.492 7.02202 112.351C4.82595 113.115 3.0118 114.547 1.77053 116.457C-0.234578 119.799 0.147348 123.809 0.147348 127.628C0.147348 134.598 0.147348 141.473 0.147348 148.443C0.147348 155.032 0.147348 161.715 0.147348 168.303C0.147348 171.454 0.147348 174.51 0.147348 177.661C0.147348 180.812 -0.33006 184.344 0.433793 187.4C1.29313 191.219 4.25306 192.46 7.40395 194.179C9.88647 195.516 12.369 196.852 14.8515 198.285C11.3187 196.375 15.4244 192.269 15.4244 188.641C15.4244 183.771 15.138 179.952 15.138 175.083C15.138 165.057 15.4244 155.509 15.4244 145.483C15.4244 140.518 15.0425 136.604 15.138 131.639C15.138 129.156 15.8063 127.915 17.2386 125.719C18.4798 123.809 18.4798 121.517 20.5804 120.754C23.6358 119.703 25.259 121.804 28.6963 121.899Z" fill="#7A43EE"/>
<path d="M27.9324 116.648C33.8523 115.884 36.5258 120.467 36.5258 125.719C36.5258 133.166 36.5258 140.614 36.5258 148.061C36.5258 155.7 36.5258 163.338 36.5258 170.881C36.5258 174.605 36.5258 178.329 36.5258 182.053C36.5258 185.299 36.9077 188.641 35.6664 191.696C33.1839 197.425 27.455 197.998 22.0126 198.667C19.3391 199.048 16.6656 199.43 14.374 197.807C12.2734 196.375 11.3186 193.988 11.1277 191.601C10.5548 184.535 11.1277 177.183 11.1277 170.022C11.1277 162.479 11.1277 154.936 11.1277 147.393C11.1277 143.096 11.1277 138.895 11.1277 134.598C11.1277 131.161 10.6503 127.437 11.987 124.095C14.4695 117.412 21.9171 117.507 27.9324 116.648Z" fill="url(#paint5_linear_230_1063)"/>
<g filter="url(#filter2_i_230_1063)">
<path d="M218.628 238.606C218.613 238.418 218.786 238.214 218.786 238.214C218.959 238.011 219.117 237.619 219.102 237.431C224.433 226.008 227.573 182.139 226.652 177.66C226.652 177.66 276.995 185.811 278.68 195.161C280.35 204.322 283.475 217.54 289.178 244.209C289.222 244.775 289.267 245.34 289.312 245.905C289.461 247.79 289.032 249.531 288.198 250.925C286.889 253.494 284.83 256.122 281.599 258.275C269.239 266.84 246.63 267.682 231.108 260.187C219.694 254.453 215.252 246.081 218.628 238.606Z" fill="#E8F0FF"/>
</g>
<g filter="url(#filter3_i_230_1063)">
<path d="M313.686 67.7462C324.86 86.4468 327.587 135.29 325.62 158.453C323.653 181.617 316.477 201.391 310.633 206.798C296.306 220.292 263.341 197.612 235.05 185.972C215.399 177.83 201.876 148.667 196.178 122.307C191.609 100.612 191.236 64.703 219.971 48.3563C248.706 32.0097 293.993 35.0786 313.686 67.7462Z" fill="url(#paint6_linear_230_1063)"/>
</g>
<path d="M216.521 139.589C209.745 119.229 215.445 115.783 223.558 116.865C231.67 117.947 232.92 126.337 237.625 134.178C244.117 144.999 240.871 104.422 235.461 95.2242C230.05 86.0266 254.397 91.978 271.71 95.2242C289.023 98.4704 316.074 101.176 330.141 90.8959C342.024 82.2123 352.864 23.267 321.485 35.1697C305.171 41.3576 298.356 16.6602 271.71 14.6106C243.575 12.4464 246.22 28.209 214.902 25.9721C177.028 23.2672 167.832 73.0419 172.701 95.2242C177.57 117.406 209.525 159.334 206.785 166.64C205.162 170.968 230.59 179.084 230.59 152.032C223.558 159.066 218.142 144.458 216.521 139.589Z" fill="url(#paint7_linear_230_1063)"/>
<defs>
<filter id="filter0_i_230_1063" x="24.998" y="195.05" width="342.211" height="171.734" filterUnits="userSpaceOnUse" color-interpolation-filters="sRGB">
<feFlood flood-opacity="0" result="BackgroundImageFix"/>
<feBlend mode="normal" in="SourceGraphic" in2="BackgroundImageFix" result="shape"/>
<feColorMatrix in="SourceAlpha" type="matrix" values="0 0 0 0 0 0 0 0 0 0 0 0 0 0 0 0 0 0 127 0" result="hardAlpha"/>
<feOffset dx="4" dy="-14"/>
<feGaussianBlur stdDeviation="12"/>
<feComposite in2="hardAlpha" operator="arithmetic" k2="-1" k3="1"/>
<feColorMatrix type="matrix" values="0 0 0 0 0.803922 0 0 0 0 0.847059 0 0 0 0 0.968627 0 0 0 1 0"/>
<feBlend mode="normal" in2="shape" result="effect1_innerShadow_230_1063"/>
</filter>
<filter id="filter1_i_230_1063" x="-12.0918" y="186.739" width="375.197" height="201.595" filterUnits="userSpaceOnUse" color-interpolation-filters="sRGB">
<feFlood flood-opacity="0" result="BackgroundImageFix"/>
<feBlend mode="normal" in="SourceGraphic" in2="BackgroundImageFix" result="shape"/>
<feColorMatrix in="SourceAlpha" type="matrix" values="0 0 0 0 0 0 0 0 0 0 0 0 0 0 0 0 0 0 127 0" result="hardAlpha"/>
<feOffset dx="4" dy="-14"/>
<feGaussianBlur stdDeviation="12"/>
<feComposite in2="hardAlpha" operator="arithmetic" k2="-1" k3="1"/>
<feColorMatrix type="matrix" values="0 0 0 0 0.803922 0 0 0 0 0.847059 0 0 0 0 0.968627 0 0 0 1 0"/>
<feBlend mode="normal" in2="shape" result="effect1_innerShadow_230_1063"/>
</filter>
<filter id="filter2_i_230_1063" x="217.525" y="165.66" width="75.8164" height="99.6377" filterUnits="userSpaceOnUse" color-interpolation-filters="sRGB">
<feFlood flood-opacity="0" result="BackgroundImageFix"/>
<feBlend mode="normal" in="SourceGraphic" in2="BackgroundImageFix" result="shape"/>
<feColorMatrix in="SourceAlpha" type="matrix" values="0 0 0 0 0 0 0 0 0 0 0 0 0 0 0 0 0 0 127 0" result="hardAlpha"/>
<feOffset dx="4" dy="-12"/>
<feGaussianBlur stdDeviation="9"/>
<feComposite in2="hardAlpha" operator="arithmetic" k2="-1" k3="1"/>
<feColorMatrix type="matrix" values="0 0 0 0 0.803922 0 0 0 0 0.847059 0 0 0 0 0.968627 0 0 0 1 0"/>
<feBlend mode="normal" in2="shape" result="effect1_innerShadow_230_1063"/>
</filter>
<filter id="filter3_i_230_1063" x="193.869" y="35.6903" width="150.338" height="175.264" filterUnits="userSpaceOnUse" color-interpolation-filters="sRGB">
<feFlood flood-opacity="0" result="BackgroundImageFix"/>
<feBlend mode="normal" in="SourceGraphic" in2="BackgroundImageFix" result="shape"/>
<feColorMatrix in="SourceAlpha" type="matrix" values="0 0 0 0 0 0 0 0 0 0 0 0 0 0 0 0 0 0 127 0" result="hardAlpha"/>
<feOffset dx="20" dy="-3"/>
<feGaussianBlur stdDeviation="9"/>
<feComposite in2="hardAlpha" operator="arithmetic" k2="-1" k3="1"/>
<feColorMatrix type="matrix" values="0 0 0 0 0.803922 0 0 0 0 0.847059 0 0 0 0 0.968627 0 0 0 1 0"/>
<feBlend mode="normal" in2="shape" result="effect1_innerShadow_230_1063"/>
</filter>
<linearGradient id="paint0_linear_230_1063" x1="193.015" y1="187.413" x2="81.1803" y2="308.744" gradientUnits="userSpaceOnUse">
<stop stop-color="white"/>
<stop offset="1" stop-color="#E8F0FF"/>
</linearGradient>
<linearGradient id="paint1_linear_230_1063" x1="178.498" y1="185" x2="76.998" y2="323" gradientUnits="userSpaceOnUse">
<stop stop-color="white"/>
<stop offset="1" stop-color="#E8F0FF"/>
</linearGradient>
<radialGradient id="paint2_radial_230_1063" cx="0" cy="0" r="1" gradientUnits="userSpaceOnUse" gradientTransform="translate(243.5 212) rotate(96.3402) scale(22.6385 70.8245)">
<stop stop-color="white"/>
<stop offset="1" stop-color="white" stop-opacity="0"/>
</radialGradient>
<linearGradient id="paint3_linear_230_1063" x1="115" y1="174" x2="133.5" y2="46" gradientUnits="userSpaceOnUse">
<stop stop-color="#7A43EE"/>
<stop offset="1" stop-color="#B565E6"/>
</linearGradient>
<linearGradient id="paint4_linear_230_1063" x1="71" y1="187" x2="80.5" y2="93" gradientUnits="userSpaceOnUse">
<stop stop-color="#7A43EE"/>
<stop offset="1" stop-color="#B565E6"/>
</linearGradient>
<linearGradient id="paint5_linear_230_1063" x1="24" y1="191.5" x2="30" y2="126" gradientUnits="userSpaceOnUse">
<stop stop-color="#7A43EE"/>
<stop offset="1" stop-color="#B565E6"/>
</linearGradient>
<linearGradient id="paint6_linear_230_1063" x1="305.793" y1="94.142" x2="225.72" y2="174.756" gradientUnits="userSpaceOnUse">
<stop stop-color="white"/>
<stop offset="1" stop-color="#E8F0FF"/>
</linearGradient>
<linearGradient id="paint7_linear_230_1063" x1="246.821" y1="153.114" x2="269.63" y2="36.0363" gradientUnits="userSpaceOnUse">
<stop stop-color="#FB7354"/>
<stop offset="1" stop-color="#F8BA55"/>
</linearGradient>
<clipPath id="clip0_230_1063">
<rect x="18" y="192" width="373" height="186" rx="48" fill="white"/>
</clipPath>
</defs>
</svg>
